<?xml version="1.0" standalone="no"?>
<!DOCTYPE svg PUBLIC "-//W3C//DTD SVG 1.1//EN" "http://www.w3.org/Graphics/SVG/1.1/DTD/svg11.dtd" >
<svg xmlns="http://www.w3.org/2000/svg" xmlns:xlink="http://www.w3.org/1999/xlink" version="1.1">
<metadata>
Created by FontForge 20161013 at Fri Mar  6 19:05:36 2015
 By ,,,
Copyright (c) 2015 by Andriy Konstantynov. All rights reserved.
</metadata>
<defs>
<font id="DiariaPro-SemiBold" horiz-adv-x="571" >
  <font-face 
    font-family="DiariaPro-SemiBold"
    font-weight="400"
    font-stretch="normal"
    units-per-em="1000"
    panose-1="2 13 0 3 3 2 0 0 0 0"
    ascent="761"
    descent="-239"
    x-height="524"
    cap-height="700"
    bbox="-151 -260 1245 962"
    underline-thickness="50"
    underline-position="-150"
    unicode-range="U+0020-FB04"
  />
<missing-glyph horiz-adv-x="250" 
 />
    <glyph glyph-name="ff" unicode="ff" horiz-adv-x="703" 
d="M424 72v370h-208v-376l88 -4v-62h-267v53l60 19v370h-60v67l60 15v27q0 93 52.5 145.5t153.5 52.5q95 0 159 -46q48 56 158 56q37 0 71.5 -6.5t50.5 -12.5l15 -6v-135h-86l-14 72q-14 8 -41 8q-18 0 -33.5 -3.5t-22.5 -7.5l-6 -4q-11 -29 -11 -96v-44h133v-82h-133v-376
l88 -4v-62h-268v53zM216 545v-21h208v50q0 40 9 73q-60 22 -120 22q-25 0 -44.5 -4t-26.5 -8l-7 -4q-19 -35 -19 -108z" />
    <glyph glyph-name="fi" unicode="fi" horiz-adv-x="616" 
d="M216 442v-376l88 -4v-62h-267v53l60 19v370h-60v67l60 15v23q0 100 70.5 156t187.5 56q79 0 124.5 -26t45.5 -70q0 -16 -6.5 -32t-13.5 -24l-7 -8h-90l-12 73q-13 14 -62 14q-29 0 -53 -6.5t-33 -13.5l-10 -6q-22 -42 -22 -112v-24h131l173 8l11 -11v-457l60 -8v-56h-240
v53l61 19v370h-196z" />
    <glyph glyph-name="fl" unicode="fl" horiz-adv-x="626" 
d="M37 436v66l60 15v47q0 99 50.5 147t160.5 48q56 0 104 -12l120 12l11 -11v-684l60 -8v-56h-240v60l61 19v586l-5 2q-32 12 -91 12q-35 0 -59 -4.5t-31 -8.5l-6 -4q-16 -37 -16 -104v-41h138v-81h-138v-370l88 -4v-62h-267v53l60 19v364h-60z" />
    <glyph glyph-name="ffi" unicode="ffi" horiz-adv-x="943" 
d="M424 72v370h-208v-376l88 -4v-62h-267v53l60 19v370h-60v67l60 15v20q0 98 53.5 151.5t157.5 53.5q111 0 175 -56q69 66 198 66q80 0 125 -25.5t45 -70.5q0 -16 -6.5 -32t-12.5 -24l-7 -8h-90l-11 73q-14 14 -63 14q-30 0 -54 -6.5t-33 -13.5l-9 -6q-22 -42 -22 -112v-24
h131l172 8l11 -11v-457l61 -8v-56h-239v53l60 19v370h-196v-376l88 -4v-62h-268v53zM216 538v-14h208v23q0 54 21 96q-57 26 -127 26q-28 0 -48.5 -4.5t-27.5 -8.5l-7 -5q-19 -38 -19 -113z" />
    <glyph glyph-name="ffl" unicode="ffl" horiz-adv-x="953" 
d="M424 72v370h-208v-376l88 -4v-62h-267v53l60 19v370h-60v67l60 15v27q0 94 52.5 146t154.5 52t162 -47q51 57 169 57q56 0 104 -12l119 12l11 -11v-684l61 -8v-56h-240v60l61 19v586q-27 14 -96 14q-35 0 -59 -4.5t-30 -8.5l-7 -4q-16 -37 -16 -104v-34h137v-82h-137
v-376l88 -4v-62h-268v53zM216 545v-21h208v40q0 45 11 83q-60 22 -122 22q-25 0 -44.5 -4t-26.5 -8l-7 -4q-19 -35 -19 -108z" />
    <glyph glyph-name="f_f_j" unicode="ffj" horiz-adv-x="943" 
d="M424 72v370h-208v-376l88 -4v-62h-267v53l60 19v370h-60v67l60 15v20q0 98 53.5 151.5t157.5 53.5q111 0 175 -56q69 66 198 66q80 0 125 -25.5t45 -70.5q0 -16 -6.5 -32t-12.5 -24l-7 -8h-90l-11 73q-14 14 -63 14q-30 0 -54 -6.5t-33 -13.5l-9 -6q-22 -42 -22 -112v-24
h131l172 8l11 -11v-521q0 -130 -46 -184.5t-143 -54.5q-23 0 -46.5 2.5t-35.5 4.5l-11 3l14 92q37 -22 83 -22q11 0 22 1.5t16 3.5l6 2q23 36 23 152v442h-196v-376l88 -4v-62h-268v53zM216 538v-14h208v23q0 54 21 96q-57 26 -127 26q-28 0 -48.5 -4.5t-27.5 -8.5l-7 -5
q-19 -38 -19 -113z" />
    <glyph glyph-name="f_j" unicode="fj" horiz-adv-x="616" 
d="M216 442v-376l88 -4v-62h-267v53l60 19v370h-60v67l60 15v23q0 100 70.5 156t187.5 56q79 0 124.5 -26t45.5 -70q0 -16 -6.5 -32t-13.5 -24l-7 -8h-90l-12 73q-13 14 -62 14q-29 0 -53 -6.5t-33 -13.5l-10 -6q-22 -42 -22 -112v-24h131l173 8l11 -11v-521
q0 -130 -46.5 -184.5t-143.5 -54.5q-23 0 -46 2.5t-35 4.5l-11 3l14 92q37 -22 82 -22q11 0 22 1.5t17 3.5l5 2q23 36 23 152v442h-196z" />
    <glyph glyph-name="afii10104_afii10104" unicode="&#x457;&#x457;" horiz-adv-x="596" 
d="M-15 667q0 27 17 43.5t43 16.5t43 -16.5t17 -43.5q0 -26 -17 -43t-43 -17t-43 17t-17 43zM233 667q0 27 16.5 43.5t42.5 16.5q27 0 44 -16.5t17 -43.5q0 -26 -17 -43t-44 -17q-26 0 -42.5 17t-16.5 43zM33 464v52l168 16l11 -11v-457l61 -8v-56h-240v53l61 19v367z
M480 667q0 27 17 43.5t43 16.5t43 -16.5t17 -43.5q0 -26 -17 -43t-43 -17t-43 17t-17 43zM331 464v52l168 16l11 -11v-457l61 -8v-56h-240v53l60 19v367z" />
    <glyph glyph-name=".notdef" horiz-adv-x="250" 
 />
    <glyph glyph-name=".null" horiz-adv-x="0" 
 />
    <glyph glyph-name="nonmarkingreturn" horiz-adv-x="333" 
 />
    <glyph glyph-name="space" unicode=" " horiz-adv-x="250" 
 />
    <glyph glyph-name="exclam" unicode="!" horiz-adv-x="304" 
d="M78 65q0 33 20.5 53.5t52.5 20.5q33 0 53 -20.5t20 -53.5q0 -32 -20.5 -52.5t-52.5 -20.5t-52.5 20.5t-20.5 52.5zM104 208l-12 312v180h120v-180l-11 -312h-97z" />
    <glyph glyph-name="quotedbl" unicode="&#x22;" horiz-adv-x="410" 
d="M76 419v261h103l-23 -261h-80zM240 419v261h103l-23 -261h-80z" />
    <glyph glyph-name="numbersign" unicode="#" horiz-adv-x="597" 
d="M70 514h103l35 186h83l-35 -186h144l35 186h82l-35 -186h84v-75h-98l-33 -178h90v-75h-104l-34 -186h-82l34 186h-144l-35 -186h-82l34 186h-81v75h95l33 178h-89v75zM242 439l-33 -178h144l33 178h-144z" />
    <glyph glyph-name="dollar" unicode="$" horiz-adv-x="543" 
d="M208 -75l4 66q-51 3 -93 13.5t-59 19.5l-16 10v173h80l22 -109q24 -15 72 -20l16 221q-20 7 -25 10q-77 30 -120 78t-43 133q0 183 217 190l3 40h60l-3 -42q43 -4 78.5 -15t50.5 -19l14 -9v-171h-84l-15 109q-18 12 -50 19l-16 -219l24 -9q85 -33 129 -79t44 -128
q0 -185 -226 -196l-4 -66h-60zM382 174q0 39 -23 62t-67 41l-14 -201q23 1 43.5 5t30.5 7l9 4q21 38 21 82zM162 536q0 -42 21 -67t60 -44l14 200q-19 -1 -38 -5t-29 -7l-9 -3q-19 -29 -19 -74z" />
    <glyph glyph-name="percent" unicode="%" horiz-adv-x="827" 
d="M228 0h-90l463 700h90zM46 526q0 85 44.5 133.5t117.5 48.5q74 0 118.5 -48.5t44.5 -134.5t-44.5 -134.5t-117.5 -48.5q-74 0 -118.5 49t-44.5 135zM137 526q0 -117 75 -117q12 0 23.5 2.5t16.5 4.5l6 2q21 30 21 105q0 118 -73 118q-12 0 -23.5 -2.5t-17.5 -4.5l-6 -3
q-22 -29 -22 -105zM458 176q0 85 44.5 133.5t118.5 48.5q73 0 118 -48.5t45 -134.5q0 -85 -44.5 -134t-117.5 -49q-74 0 -119 49t-45 135zM550 176q0 -117 74 -117q12 0 23.5 2.5t16.5 4.5l6 2q21 30 21 105q0 118 -72 118q-12 0 -24 -2.5t-18 -4.5l-6 -3q-21 -29 -21 -105z
" />
    <glyph glyph-name="ampersand" unicode="&#x26;" horiz-adv-x="687" 
d="M601 297q0 -81 -60 -167l59 -66l56 -8v-56h-147l-57 64q-74 -74 -205 -74q-99 0 -150 46t-51 130q0 74 36 122.5t100 88.5q-69 91 -69 167t49.5 119t137.5 43q79 0 122 -36.5t43 -105.5q0 -66 -36.5 -106t-104.5 -79l168 -193q26 50 26 111v29l-59 8v56h198v-53l-56 -19
v-21zM289 76q66 0 120 38l-180 207q-70 -51 -70 -127q0 -56 34 -87t96 -31zM224 554q0 -53 54 -121q46 28 70 55.5t24 65.5q0 69 -77 69q-16 0 -31.5 -3.5t-23.5 -6.5l-7 -3q-9 -23 -9 -56z" />
    <glyph glyph-name="quotesingle" unicode="'" horiz-adv-x="246" 
d="M76 419v261h103l-23 -261h-80z" />
    <glyph glyph-name="parenleft" unicode="(" horiz-adv-x="307" 
d="M43 324q0 93 21.5 172t52.5 125.5t62 80t53 46.5l21 13l20 -26q-5 -5 -12.5 -15.5t-27.5 -48.5t-35 -81.5t-27.5 -115.5t-12.5 -150q0 -79 12 -150t28.5 -117t33.5 -80.5t29 -49.5l12 -15l-20 -26q-9 4 -23 13.5t-50 45.5t-64 81t-50.5 125t-22.5 173z" />
    <glyph glyph-name="parenright" unicode=")" horiz-adv-x="307" 
d="M264 324q0 -68 -11.5 -128.5t-30 -103.5t-41 -79.5t-45.5 -59t-41.5 -38.5t-30.5 -23l-11 -6l-19 26q5 5 12.5 15.5t27.5 48.5t35 81.5t27.5 115.5t12.5 151q0 78 -12 149.5t-28.5 117t-33.5 80t-29 49.5l-12 15l19 26q9 -4 23 -13.5t50.5 -45.5t64 -81t50.5 -124.5
t23 -172.5z" />
    <glyph glyph-name="asterisk" unicode="*" horiz-adv-x="482" 
d="M241 444l-76 -133l-81 59l103 113l-149 33l30 94l139 -63l-16 153h100l-17 -153l139 63l31 -94l-149 -32l103 -114l-81 -59z" />
    <glyph glyph-name="plus" unicode="+" horiz-adv-x="503" 
d="M58 303v74h156v157h75v-157h156v-74h-156v-157h-75v157h-156z" />
    <glyph glyph-name="comma" unicode="," horiz-adv-x="236" 
d="M52 -152l-22 30q9 7 21.5 18.5t33 43t20.5 58.5q-27 3 -42.5 21.5t-15.5 46.5q0 32 19.5 51.5t51.5 19.5t52 -21.5t20 -67.5q0 -38 -14 -72.5t-34.5 -56.5t-41 -39t-34.5 -24z" />
    <glyph glyph-name="hyphen" unicode="-" horiz-adv-x="350" 
d="M55 266v81h240v-81h-240z" />
    <glyph glyph-name="period" unicode="." horiz-adv-x="236" 
d="M45 65q0 33 20 53.5t52 20.5q33 0 53 -20.5t20 -53.5q0 -32 -20.5 -52.5t-52.5 -20.5t-52 20.5t-20 52.5z" />
    <glyph glyph-name="slash" unicode="/" horiz-adv-x="410" 
d="M88 -100h-82l308 850h83z" />
    <glyph glyph-name="zero" unicode="0" horiz-adv-x="580" 
d="M44 341q0 164 67.5 256.5t178.5 92.5t178.5 -92.5t67.5 -257.5q0 -164 -67 -257t-178 -93q-112 0 -179.5 93.5t-67.5 257.5zM173 340q0 -137 29.5 -201.5t91.5 -64.5q20 0 39 6t27 12l9 7q4 7 10.5 22t17 76.5t10.5 140.5q0 140 -29.5 203.5t-89.5 63.5q-21 0 -40 -6.5
t-28 -12.5l-9 -6q-4 -7 -10.5 -21.5t-17 -76.5t-10.5 -142z" />
    <glyph glyph-name="one" unicode="1" horiz-adv-x="443" 
d="M54 570v60q124 17 229 59l11 -11v-603l105 -8v-67h-337v67l114 19v484h-122z" />
    <glyph glyph-name="two" unicode="2" horiz-adv-x="550" 
d="M494 529q0 -59 -33.5 -113.5t-78 -93t-117 -104.5t-124.5 -127h249l28 100h80l-13 -191h-442v91q54 72 121 142t106 107t67 83.5t28 95.5q0 45 -24.5 66t-78.5 21q-29 0 -53.5 -6t-34.5 -12l-9 -7l-30 -104h-80l14 168q7 5 21 12.5t65.5 20t112.5 12.5q226 0 226 -161z
" />
    <glyph glyph-name="three" unicode="3" horiz-adv-x="545" 
d="M494 196q0 -101 -69 -153t-188 -52q-57 0 -106.5 12t-70.5 23l-22 12l21 68q61 -34 164 -34q28 0 55.5 3t41.5 7l13 3q4 3 9 10t14 34.5t9 62.5q0 67 -29 97.5t-93 30.5h-42l-11 11v63q20 6 60.5 58t71.5 101l30 49h-189l-28 -109h-80l13 187h404v-78q-86 -128 -167 -209
v-7q189 -30 189 -190z" />
    <glyph glyph-name="four" unicode="4" horiz-adv-x="583" 
d="M458 680v-421h85v-87h-82v-104l81 -8v-60h-282v53l83 19v98h-308v48l298 462h125zM151 261h196v305z" />
    <glyph glyph-name="five" unicode="5" horiz-adv-x="523" 
d="M479 203q0 -212 -252 -212q-59 0 -109 12t-70 23l-20 12l21 68q59 -34 159 -34q26 0 53.5 3t41.5 6l14 3q32 36 32 109q0 77 -49 110.5t-164 33.5h-60l-11 11l39 332h343v-91h-263l-22 -173q72 -2 124.5 -11.5t98.5 -32t70 -65t24 -104.5z" />
    <glyph glyph-name="six" unicode="6" horiz-adv-x="565" 
d="M469 653l-21 -63q-53 18 -125 18q-37 0 -64.5 -6t-36.5 -12l-10 -7q-4 -6 -10 -18t-17 -63t-15 -117q54 36 140 36q99 0 155 -52t56 -153q0 -104 -60 -164.5t-168 -60.5q-249 0 -249 344q0 354 262 354q43 0 84 -9t60 -18zM287 341q-66 0 -118 -26q0 -129 29.5 -186.5
t100.5 -57.5q18 0 36 3.5t27 7.5l8 3q29 33 29 121q0 74 -26 104.5t-86 30.5z" />
    <glyph glyph-name="seven" unicode="7" horiz-adv-x="528" 
d="M285 0h-129q15 97 50 194t95 226t82 182h-234l-28 -109h-80l13 187h437v-48q-22 -63 -75 -194.5t-85.5 -234t-45.5 -203.5z" />
    <glyph glyph-name="eight" unicode="8" horiz-adv-x="564" 
d="M46 149q0 117 116 184q-98 56 -98 169q0 84 54 136t170 52q98 0 150 -39t52 -116q0 -114 -106 -175q130 -58 130 -180q0 -89 -61 -139.5t-185 -50.5q-222 0 -222 159zM400 171q0 22 -7 39t-15.5 27.5t-28 21t-31.5 15t-41 14t-42 14.5h-1q-75 -56 -75 -129
q0 -48 34.5 -72.5t91.5 -24.5q25 0 49 4.5t36 9.5l11 4q19 33 19 77zM179 517q0 -23 7.5 -41.5t17.5 -30.5t29.5 -23.5t34.5 -17.5t41 -15q75 55 75 129q0 44 -28 66t-78 22q-23 0 -44 -4.5t-30 -9.5l-9 -4q-16 -30 -16 -71z" />
    <glyph glyph-name="nine" unicode="9" horiz-adv-x="565" 
d="M71 31l21 68q52 -27 141 -27q37 0 66.5 6t40.5 12l10 6q4 6 10 18t18 63.5t16 119.5q-48 -35 -139 -35q-99 0 -154.5 50.5t-55.5 151.5q0 105 60 165t168 60q248 0 248 -341q0 -179 -68.5 -268t-210.5 -89q-49 0 -92 10t-61 20zM277 342q63 0 119 25q-1 129 -29.5 185.5
t-98.5 56.5q-20 0 -37.5 -3.5t-25.5 -7.5l-8 -4q-30 -31 -30 -121q0 -71 26 -101t84 -30z" />
    <glyph glyph-name="colon" unicode=":" horiz-adv-x="249" 
d="M51 65q0 33 20.5 53.5t52.5 20.5t52.5 -20.5t20.5 -53.5q0 -32 -20.5 -52.5t-52.5 -20.5t-52.5 20.5t-20.5 52.5zM51 458q0 33 20.5 53t52.5 20t52.5 -20t20.5 -53t-20.5 -53t-52.5 -20t-52.5 20t-20.5 53z" />
    <glyph glyph-name="semicolon" unicode=";" horiz-adv-x="249" 
d="M59 -152l-23 30q9 7 21.5 18.5t33.5 43t21 58.5q-27 3 -42.5 21.5t-15.5 46.5q0 32 20 51.5t51 19.5q32 0 51.5 -21.5t19.5 -67.5q0 -38 -14 -72t-34 -56.5t-40.5 -39.5t-34.5 -24zM51 458q0 33 20.5 53t52.5 20t52.5 -20t20.5 -53t-20.5 -53t-52.5 -20t-52.5 20
t-20.5 53z" />
    <glyph glyph-name="less" unicode="&#x3c;" horiz-adv-x="503" 
d="M58 377l387 165v-83l-277 -119l277 -119v-83l-387 165v74z" />
    <glyph glyph-name="equal" unicode="=" horiz-adv-x="503" 
d="M58 474h387v-74h-387v74zM445 206h-387v74h387v-74z" />
    <glyph glyph-name="greater" unicode="&#x3e;" horiz-adv-x="503" 
d="M445 377v-74l-387 -165v83l277 119l-277 119v83z" />
    <glyph glyph-name="question" unicode="?" horiz-adv-x="496" 
d="M165 65q0 33 20.5 53.5t52.5 20.5t52 -20.5t20 -53.5q0 -32 -20 -52.5t-52 -20.5t-52.5 20.5t-20.5 52.5zM190 208l-10 145q74 48 106.5 87.5t32.5 90.5q0 81 -90 81q-25 0 -46 -6t-29 -12l-9 -6l-30 -104h-80l14 167q7 5 20 12.5t61 20t104 12.5q109 0 161.5 -42
t52.5 -115q0 -61 -36.5 -107.5t-112.5 -100.5l-12 -123h-97z" />
    <glyph glyph-name="at" unicode="@" horiz-adv-x="801" 
d="M410 243q32 49 49 143l14 75q-21 8 -45 8q-15 0 -29 -2.5t-21 -4.5l-7 -3q-5 -7 -12 -21t-19 -57.5t-12 -88.5q0 -34 8.5 -48.5t29.5 -14.5q11 0 22 3.5t16 7.5zM461 258h-5q-15 -43 -50 -66.5t-77 -23.5q-46 0 -69 28t-23 91q0 106 58 174.5t156 68.5q28 0 59 -6t48 -12
l16 -6l-46 -236q-4 -20 2.5 -28t26.5 -8q14 0 30.5 3t26.5 6l9 3q6 8 14.5 23.5t22.5 67.5t14 109q0 103 -50.5 153t-169.5 50q-51 0 -98 -8.5t-68 -16.5l-22 -9q-6 -5 -15 -15t-32.5 -43.5t-41.5 -70.5t-33 -96.5t-15 -121.5q0 -116 56.5 -166.5t186.5 -50.5
q68 0 128.5 11.5t87.5 22.5l26 11l16 -33q-1 0 -17 -9.5t-37 -19t-52.5 -20t-75 -17.5t-91.5 -7q-159 0 -240.5 72t-81.5 213q0 186 127.5 310.5t319.5 124.5q135 0 209.5 -66t74.5 -185q0 -122 -73 -205.5t-166 -83.5q-35 0 -57 16t-12 56z" />
    <glyph glyph-name="A" unicode="A" horiz-adv-x="713" 
d="M294 700h118l14 -13l215 -619l69 -8v-60h-283v55l70 20l-43 128h-242l-45 -135l73 -8v-60h-237v56l66 19zM316 511l-77 -227h190l-74 227q-10 31 -18 70h-4q-10 -48 -17 -70z" />
    <glyph glyph-name="B" unicode="B" horiz-adv-x="624" 
d="M347 0h-309v56l69 19v558l-69 8v59h286q108 0 174 -49.5t66 -135.5q0 -51 -24.5 -91t-64.5 -60q-8 -2 -16 -2v-3q8 0 16 -2q51 -21 80.5 -64t29.5 -101q0 -89 -65.5 -140.5t-172.5 -51.5zM318 316h-89v-234h96q23 0 46 3t34 5l11 3q4 3 10 9.5t16.5 33.5t10.5 62
q0 62 -33 90t-102 28zM297 619h-68v-222h74q23 0 46 2.5t34 4.5l11 3q4 3 10 9.5t16.5 32t10.5 57.5q0 59 -33 86t-101 27z" />
    <glyph glyph-name="C" unicode="C" horiz-adv-x="585" 
d="M466 494l-30 109q-39 22 -103 22q-32 0 -59 -6.5t-38 -13.5l-12 -7q-2 -2 -5.5 -7.5t-13 -26t-16.5 -46t-12.5 -71t-5.5 -97.5q0 -141 41 -208.5t127 -67.5q24 0 49 5t38 11l12 5l30 114h80l-14 -177q-83 -42 -189 -42q-143 0 -224.5 95t-81.5 266q0 170 81.5 264.5
t226.5 94.5q48 0 94.5 -10.5t68.5 -21.5l22 -10l14 -174h-80z" />
    <glyph glyph-name="D" unicode="D" horiz-adv-x="661" 
d="M333 0h-295v56l69 19v557l-69 8v60h294q131 0 210.5 -92.5t79.5 -257.5q0 -164 -79 -257t-210 -93zM322 619h-93v-538h99q28 0 53.5 5.5t36.5 10.5l11 5q2 2 6.5 7.5t14.5 26.5t18 47t14.5 72.5t6.5 101.5q0 136 -41.5 199t-125.5 63z" />
    <glyph glyph-name="E" unicode="E" horiz-adv-x="594" 
d="M547 0h-509v56l69 19v557l-69 8v60h496l13 -184h-80l-28 103h-210v-223h102l15 79h67v-240h-67l-15 79h-102v-233h222l29 106h80z" />
    <glyph glyph-name="F" unicode="F" horiz-adv-x="568" 
d="M312 0h-274v56l69 19v557l-69 8v60h491l13 -187h-80l-28 106h-205v-231h101l15 79h67v-240h-67l-15 80h-101v-238l83 -4v-65z" />
    <glyph glyph-name="G" unicode="G" horiz-adv-x="623" 
d="M544 293v-258q-9 -5 -25.5 -12.5t-67 -20t-100.5 -12.5q-148 0 -230 94.5t-82 265.5t81.5 265.5t226.5 94.5q48 0 94.5 -10.5t68.5 -21.5l22 -10l14 -174h-80l-30 109q-39 22 -103 22q-32 0 -59 -6.5t-38 -13.5l-12 -7q-2 -2 -5.5 -7.5t-13 -26t-16.5 -46t-12.5 -71
t-5.5 -97.5q0 -141 41 -208.5t127 -67.5q37 0 97 20v206l-83 8v59h257v-56z" />
    <glyph glyph-name="H" unicode="H" horiz-adv-x="729" 
d="M229 68l70 -8v-60h-261v56l69 19v557l-69 8v60h261v-56l-70 -19v-229h271v236l-70 8v60h261v-56l-69 -19v-557l69 -8v-60h-261v56l70 19v239h-271v-246z" />
    <glyph glyph-name="I" unicode="I" horiz-adv-x="337" 
d="M229 68l70 -8v-60h-261v56l69 19v557l-69 8v60h261v-56l-70 -19v-557z" />
    <glyph glyph-name="J" unicode="J" horiz-adv-x="446" 
d="M344 625v-437q0 -92 -52 -145t-147 -53q-29 0 -57 5t-41 11l-13 5l12 81q33 -18 85 -18q16 0 33.5 2t26.5 4l9 3q22 37 22 121v426l-83 5v65h275v-56z" />
    <glyph glyph-name="K" unicode="K" horiz-adv-x="665" 
d="M229 68l70 -8v-60h-261v56l69 19v557l-69 8v60h261v-56l-70 -19v-237l75 15l164 229l-67 8v60h234v-56l-68 -19l-176 -246l194 -311l68 -8v-60h-170l-196 321h-58v-253z" />
    <glyph glyph-name="L" unicode="L" horiz-adv-x="573" 
d="M537 0h-499v56l69 19v557l-69 8v60h261v-56l-70 -19v-544h213l29 110h79z" />
    <glyph glyph-name="M" unicode="M" horiz-adv-x="896" 
d="M179 68l74 -8l-1 -60h-237v56l73 19l47 557l-73 8v60h224l149 -436q14 -47 17 -64h5q5 34 16 67l148 433h213v-56l-69 -19l46 -557l70 -8v-60h-262v56l70 19l-36 434q-2 22 -2 42h-4q-2 -21 -9 -42l-144 -431h-106l-14 14l-146 417q-8 20 -8 42h-4q0 -6 -0.5 -21
t-0.5 -21z" />
    <glyph glyph-name="N" unicode="N" horiz-adv-x="730" 
d="M199 68l73 -8v-60h-238v56l73 19v557l-73 8v60h190l281 -428q17 -26 26 -52l3 1q-2 18 -2 51v360l-73 8v60h237v-56l-73 -19v-625h-85l-312 476q-21 33 -26 52l-4 -1q3 -27 3 -51v-408z" />
    <glyph glyph-name="O" unicode="O" horiz-adv-x="656" 
d="M38 351q0 168 79.5 263.5t210.5 95.5t210 -95.5t79 -264.5t-79 -264.5t-209 -95.5q-132 0 -211.5 96t-79.5 265zM171 350q0 -143 39.5 -209.5t123.5 -66.5q28 0 53 6.5t35 13.5l11 6q6 7 14.5 22.5t23 79.5t14.5 147q0 144 -40 210t-122 66q-28 0 -53 -6.5t-36 -12.5
l-12 -7q-2 -2 -5.5 -7.5t-12.5 -26t-15.5 -46.5t-12 -71t-5.5 -98z" />
    <glyph glyph-name="P" unicode="P" horiz-adv-x="613" 
d="M229 69l83 -4v-65h-274v56l69 19v557l-69 8v60h293q109 0 174 -54.5t65 -152.5t-65 -152.5t-173 -54.5h-103v-217zM304 619h-75v-251h81q22 0 44.5 2.5t33.5 5.5l11 2q4 4 10.5 11.5t17.5 37.5t11 66q0 66 -33 96t-101 30z" />
    <glyph glyph-name="Q" unicode="Q" horiz-adv-x="657" 
d="M39 351q0 168 79.5 263.5t210.5 95.5t210 -95.5t79 -263.5q0 -129 -47.5 -216t-131.5 -121v-3q48 -25 107.5 -43t95.5 -24l35 -6l-24 -105q-7 1 -18.5 3t-47.5 12t-71.5 26t-84 47t-90.5 71q-12 -2 -20 -2q-127 3 -204.5 99t-77.5 262zM171 348q0 -141 40 -207.5
t125 -66.5q27 0 51.5 6.5t34.5 13.5l11 6q2 3 5.5 8t13 26t16.5 47t12.5 71.5t5.5 98.5q0 143 -40 208.5t-123 65.5q-27 0 -52.5 -6.5t-36.5 -12.5l-12 -7q-2 -2 -5.5 -7.5t-12.5 -26.5t-15.5 -46.5t-12 -71.5t-5.5 -99z" />
    <glyph glyph-name="R" unicode="R" horiz-adv-x="646" 
d="M229 68l70 -8v-60h-261v56l69 19v557l-69 8v60h293q109 0 174 -53.5t65 -149.5q0 -73 -40 -122t-110 -68l147 -239l68 -8v-60h-174l-159 296h-73v-228zM304 619h-75v-242h81q22 0 44.5 2.5t33.5 5.5l11 3q4 3 10.5 10t17.5 35t11 63q0 64 -33 93.5t-101 29.5z" />
    <glyph glyph-name="S" unicode="S" horiz-adv-x="543" 
d="M382 174q0 21 -7.5 38t-17.5 27.5t-30 21.5t-34 16.5t-42 15.5t-42 16q-77 30 -120 78t-43 133q0 190 231 190q56 0 103.5 -11t66.5 -23l19 -11v-171h-84l-15 109q-31 23 -92 23q-23 0 -46.5 -4t-35.5 -8l-12 -4q-19 -29 -19 -74q0 -19 4 -35t15 -29t19 -21t28 -17.5
t28.5 -13.5t35 -13.5t33.5 -12.5q85 -33 129 -79t44 -128q0 -197 -255 -197q-61 0 -110.5 11t-68.5 22l-20 11v173h80l22 -109q36 -22 109 -22q28 0 54.5 4t38.5 8l13 4q21 38 21 82z" />
    <glyph glyph-name="T" unicode="T" horiz-adv-x="629" 
d="M376 68l69 -8v-60h-261v56l70 19v544h-123l-28 -120h-80l13 201h558l13 -201h-80l-28 120h-123v-551z" />
    <glyph glyph-name="U" unicode="U" horiz-adv-x="719" 
d="M617 625v-372q0 -123 -70.5 -193t-187.5 -70q-115 0 -186 66.5t-71 183.5v392l-69 8v60h264v-56l-69 -19v-385q0 -87 37.5 -128t118.5 -41q29 0 53 4.5t33 8.5l10 5q5 5 12.5 15.5t20 52.5t12.5 94v381l-74 8v60h239v-56z" />
    <glyph glyph-name="V" unicode="V" horiz-adv-x="699" 
d="M417 0h-118l-14 13l-213 619l-69 8v60h286v-56l-73 -17l141 -438q7 -22 17 -70h5q10 48 17 70l137 443l-70 8v60h233v-56l-66 -19z" />
    <glyph glyph-name="W" unicode="W" horiz-adv-x="1042" 
d="M398 0h-118l-14 13l-191 616l-72 11v60h288v-56l-73 -14l116 -437q12 -44 16 -65h5q1 12 14 65l124 497h114l128 -497q1 -7 7.5 -30t8.5 -35h4q0 3 15 65l109 439l-69 8v60h226v-56l-68 -19l-175 -625h-117l-14 13l-117 465q-10 36 -13 62h-5q-2 -16 -13 -62z" />
    <glyph glyph-name="X" unicode="X" horiz-adv-x="687" 
d="M591 625l-170 -283l188 -274l67 -8v-60h-288v56l76 17l-119 191q-1 2 -10 15.5t-13 21.5h-4q-5 -11 -21 -38l-123 -195l68 -8v-60h-231v56l71 19l185 290l-177 267l-67 8v60h289v-56l-83 -17l118 -185q14 -22 22 -38h3q8 18 20 39l106 189l-67 8v60h230v-56z" />
    <glyph glyph-name="Y" unicode="Y" horiz-adv-x="667" 
d="M585 625l-186 -323v-234l70 -8v-60h-261v56l69 19v225l-199 332l-67 8v60h286v-56l-75 -17l116 -203q15 -23 23 -42h4q3 9 11 25t10 19l108 206l-67 8v60h229v-56z" />
    <glyph glyph-name="Z" unicode="Z" horiz-adv-x="582" 
d="M39 0v48l341 571h-236l-28 -110h-80l13 191h484v-48l-340 -571h250l15 110h84v-191h-503z" />
    <glyph glyph-name="bracketleft" unicode="[" horiz-adv-x="350" 
d="M309 750v-74h-110v-739h110v-74h-218v887h218z" />
    <glyph glyph-name="backslash" unicode="\" horiz-adv-x="410" 
d="M399 -100h-82l-308 850h82z" />
    <glyph glyph-name="bracketright" unicode="]" horiz-adv-x="350" 
d="M41 -137v74h110v739h-110v74h218v-887h-218z" />
    <glyph glyph-name="asciicircum" unicode="^" horiz-adv-x="440" 
d="M46 525l167 183h14l167 -183l-37 -31l-137 115l-137 -115z" />
    <glyph glyph-name="underscore" unicode="_" horiz-adv-x="503" 
d="M1 -137v74h500v-74h-500z" />
    <glyph glyph-name="grave" unicode="`" horiz-adv-x="402" 
d="M79 686l74 74l135 -162l-52 -24z" />
    <glyph glyph-name="a" unicode="a" horiz-adv-x="541" 
d="M43 125q0 66 41 108.5t123 51.5l134 14v56q0 51 -20.5 74.5t-70.5 23.5q-21 0 -38.5 -3.5t-25.5 -7.5l-7 -4l-15 -80h-87v136q6 4 19 10.5t58 17.5t97 11q112 0 160 -47.5t48 -144.5v-233q0 -33 33 -33h34l7 -54q-31 -27 -91 -27q-76 0 -94 56q-70 -59 -164 -59
q-68 0 -104.5 35.5t-36.5 98.5zM154 140q0 -66 72 -66q60 0 115 41v121l-167 -32q-20 -27 -20 -64z" />
    <glyph glyph-name="b" unicode="b" horiz-adv-x="568" 
d="M17 690v53l167 16l12 -11v-211q0 -26 -5 -42l3 -3v-1q68 42 140 42q91 0 144.5 -69.5t53.5 -191.5q0 -136 -67 -208.5t-198 -72.5q-52 0 -99.5 10.5t-69.5 20.5l-21 11v632zM406 255q0 102 -28 148.5t-88 46.5q-54 0 -94 -27v-331q37 -21 94 -21q24 0 45.5 4.5t30.5 8.5
l9 5q31 46 31 166z" />
    <glyph glyph-name="c" unicode="c" horiz-adv-x="496" 
d="M365 358l-15 80q-23 14 -71 14q-24 0 -45.5 -5t-30.5 -9l-9 -5q-33 -49 -33 -155q0 -115 37 -159.5t103 -44.5q34 0 68 8t51 16l17 7l23 -62q-8 -6 -22.5 -14.5t-60.5 -23t-93 -14.5q-111 0 -179.5 73t-68.5 198q0 121 66 196t187 75q43 0 83.5 -9.5t59.5 -19.5l20 -9
v-137h-87z" />
    <glyph glyph-name="d" unicode="d" horiz-adv-x="574" 
d="M551 60v-53l-164 -16l-11 11l5 50l-4 4q-65 -65 -151 -65q-84 0 -137 70t-53 188q0 134 65.5 209t174.5 75q53 0 96 -18v150l-61 25v53l169 16l11 -11v-663zM161 265q0 -189 109 -189q62 0 102 52v297q-34 27 -94 27q-24 0 -45 -4t-30 -8l-9 -5q-4 -5 -9.5 -16
t-14.5 -54.5t-9 -99.5z" />
    <glyph glyph-name="e" unicode="e" horiz-adv-x="517" 
d="M444 105l23 -62q-8 -6 -22.5 -14.5t-61 -23t-94.5 -14.5q-112 0 -182.5 72.5t-70.5 196.5q0 122 68 197.5t177 75.5q102 0 156.5 -69t42.5 -197l-34 -24h-285q1 -86 40.5 -127.5t107.5 -41.5q32 0 65.5 8t51.5 16zM196 434q-35 -47 -35 -130l215 15q4 133 -101 133
q-21 0 -40.5 -4.5t-28.5 -9.5z" />
    <glyph glyph-name="f" unicode="f" horiz-adv-x="376" 
d="M37 442v67l60 15v50q0 185 196 185q38 0 72 -6.5t49 -12.5l16 -6v-135h-87l-13 72q-13 8 -42 8q-17 0 -32.5 -3.5t-21.5 -7.5l-7 -4q-11 -29 -11 -96v-44h133v-82h-133v-376l88 -4v-62h-267v53l60 19v370h-60z" />
    <glyph glyph-name="g" unicode="g" horiz-adv-x="545" 
d="M526 573l-10 -90q-13 4 -36 4q-33 0 -68 -13q44 -47 44 -118q0 -83 -56 -130t-149 -47q-31 0 -66 7q-25 -19 -25 -50q0 -48 62 -48h123q83 0 128.5 -34t45.5 -103q0 -88 -76 -139t-217 -51q-212 0 -212 119q0 49 29.5 82t65.5 51q-47 28 -47 86q0 68 64 110
q-81 46 -81 148q0 82 56 129t149 47q66 0 114 -24q58 68 129 68zM213 -10q-21 0 -41 3q-44 -33 -44 -85q0 -34 27 -50t91 -16q35 0 70 4t52 8l18 5q22 28 22 69q0 62 -80 62h-115zM152 363q0 -102 102 -102q17 0 35 2.5t27 4.5l9 2q24 27 24 78q0 103 -104 103
q-16 0 -33.5 -2.5t-27.5 -4.5l-9 -3q-23 -25 -23 -78z" />
    <glyph glyph-name="h" unicode="h" horiz-adv-x="606" 
d="M30 690v53l168 16l11 -11v-224l-5 -43l3 -2q72 54 171 54q79 0 112.5 -41.5t33.5 -124.5v-303l60 -8v-56h-240v53l61 19v286q0 50 -17 71t-62 21q-64 0 -117 -41v-345l61 -8v-56h-240v53l60 19v593z" />
    <glyph glyph-name="i" unicode="i" horiz-adv-x="298" 
d="M33 464v52l168 16l11 -11v-457l61 -8v-56h-240v53l61 19v367zM67 682q0 34 21.5 55t55.5 21q35 0 56.5 -21t21.5 -55t-21.5 -55t-56.5 -21q-34 0 -55.5 21t-21.5 55z" />
    <glyph glyph-name="j" unicode="j" horiz-adv-x="284" 
d="M63 682q0 34 22 55t56 21q35 0 56.5 -21t21.5 -55t-21.5 -55t-56.5 -21q-34 0 -56 21t-22 55zM30 464v52l168 16l11 -11v-521q0 -130 -46.5 -184.5t-143.5 -54.5q-23 0 -46 2.5t-35 4.5l-11 3l13 92q37 -22 83 -22q11 0 22 1.5t17 3.5l5 2q23 36 23 152v439z" />
    <glyph glyph-name="k" unicode="k" horiz-adv-x="565" 
d="M473 452l-120 -164l143 -224l57 -8v-56h-147l-152 239h-45v-175l61 -8v-56h-240v53l60 19v593l-60 25v53l168 16l11 -11v-442l61 14l105 139l-59 8v57h213v-53z" />
    <glyph glyph-name="l" unicode="l" horiz-adv-x="293" 
d="M30 690v53l168 16l11 -11v-684l61 -8v-56h-240v60l60 19v586z" />
    <glyph glyph-name="m" unicode="m" horiz-adv-x="887" 
d="M392 72v297q0 43 -15.5 61.5t-54.5 18.5q-65 0 -106 -47v-338l60 -8v-56h-239v53l60 19v367l-60 25v52l164 16l11 -11l-6 -49l3 -4q68 65 167 65q93 0 121 -72q65 72 174 72q72 0 103 -39.5t31 -115.5v-314l60 -8v-56h-234v53l55 19v297q0 43 -15 61.5t-54 18.5
q-63 0 -108 -48q0 -4 0.5 -12.5t0.5 -12.5v-312l59 -8v-56h-232v53z" />
    <glyph glyph-name="n" unicode="n" horiz-adv-x="613" 
d="M37 464v52l164 16l11 -11l-6 -49l4 -4q76 65 177 65q77 0 110.5 -41.5t33.5 -124.5v-303l60 -8v-56h-240v53l61 19v286q0 50 -17 71t-60 21q-67 0 -119 -55v-331l60 -8v-56h-239v53l60 19v367z" />
    <glyph glyph-name="o" unicode="o" horiz-adv-x="556" 
d="M36 262q0 127 66 199t176 72t176 -72t66 -199t-65.5 -199t-175.5 -72t-176.5 72.5t-66.5 198.5zM162 264q0 -99 29.5 -146t91.5 -47q20 0 39.5 4.5t28.5 8.5l9 4q4 5 10 16.5t15.5 55.5t9.5 99q0 100 -29.5 146.5t-90.5 46.5q-20 0 -40 -4t-29 -8l-10 -4
q-4 -5 -9.5 -16.5t-15 -55.5t-9.5 -100z" />
    <glyph glyph-name="p" unicode="p" horiz-adv-x="577" 
d="M25 464v52l164 16l11 -11l-5 -49l4 -4q68 65 151 65q84 0 137 -70t53 -188q0 -134 -66 -209t-175 -75q-52 0 -95 17v-172l91 -4v-62h-270v53l60 19v597zM414 248q0 105 -26.5 152.5t-81.5 47.5q-62 0 -102 -53v-297q30 -27 94 -27q24 0 45 4.5t29 8.5l9 5q33 51 33 159z
" />
    <glyph glyph-name="q" unicode="q" horiz-adv-x="565" 
d="M376 29l-3 3q-67 -41 -141 -41q-91 0 -144 69t-53 191q0 136 67 209t198 73q52 0 99.5 -10.5t68.5 -21.5l22 -11v-656l60 -8v-56h-239v53l60 19v145q0 24 5 42zM161 267q0 -103 28 -148t90 -45q56 0 92 26v331q-42 21 -93 21q-25 0 -46 -5t-30 -9l-9 -5q-4 -5 -9 -15.5
t-14 -53t-9 -97.5z" />
    <glyph glyph-name="r" unicode="r" horiz-adv-x="419" 
d="M407 531l-10 -113q-22 8 -57 8q-73 0 -124 -46v-314l90 -4v-62h-269v53l60 19v367l-60 25v52l164 16l11 -11l-7 -76l4 -4q60 93 156 93z" />
    <glyph glyph-name="s" unicode="s" horiz-adv-x="470" 
d="M328 132q0 41 -52 63q-16 7 -77 26q-77 25 -114 59t-37 105q0 148 186 148q49 0 91 -9.5t60 -19.5l18 -9v-134h-86l-15 80q-25 15 -71 15q-18 0 -35.5 -3t-25.5 -6l-9 -3q-12 -20 -12 -45q0 -35 28.5 -53t93.5 -39q80 -26 118.5 -59t38.5 -103q0 -155 -205 -155
q-52 0 -96 9t-62 19l-18 9v135h87l15 -80q29 -13 82 -13q23 0 43.5 2.5t29.5 5.5l9 3q15 24 15 52z" />
    <glyph glyph-name="t" unicode="t" horiz-adv-x="381" 
d="M22 442v67l60 15l18 106h101v-106h145v-82h-145v-294q0 -73 64 -73q17 0 37 5t32 10l11 5l13 -61q-5 -5 -15 -12t-44.5 -19t-72.5 -12q-144 0 -144 154v297h-60z" />
    <glyph glyph-name="u" unicode="u" horiz-adv-x="597" 
d="M332 464v52l168 16l11 -11v-436l61 -25v-53l-164 -16l-12 11l6 50l-4 3q-75 -64 -174 -64q-77 0 -109.5 41.5t-32.5 124.5v282l-60 25v52l167 16l12 -11v-355q0 -49 16 -70.5t58 -21.5q63 0 117 54v311z" />
    <glyph glyph-name="v" unicode="v" horiz-adv-x="587" 
d="M353 0h-107l-10 11l-172 448l-59 8v57h254v-53l-65 -17l96 -265q19 -58 21 -70h4q2 12 21 70l92 270l-62 8v57h213v-53l-56 -19z" />
    <glyph glyph-name="w" unicode="w" horiz-adv-x="851" 
d="M334 0h-110l-11 11l-147 445l-61 11v57h256v-53l-65 -14l73 -264q15 -54 17 -64h4q3 24 15 64l91 326h103l89 -326q14 -50 16 -64h5q0 1 15 64l71 266l-62 8v57h211v-53l-57 -19l-139 -452h-109l-11 11l-81 286q-9 38 -13 59h-5q-2 -23 -12 -59z" />
    <glyph glyph-name="x" unicode="x" horiz-adv-x="578" 
d="M490 452l-127 -197l144 -191l56 -8v-56h-259v53l68 17l-77 111q-19 29 -22 34h-4q-9 -18 -22 -36l-79 -115l59 -8v-56h-210v53l60 19l138 202l-135 185l-56 8v57h259v-53l-68 -17l71 -107q14 -20 23 -36h3q10 22 19 37l69 111l-60 8v57h211v-53z" />
    <glyph glyph-name="y" unicode="y" horiz-adv-x="590" 
d="M257 -20l-194 479l-58 8v57h256v-53l-66 -17l102 -265q9 -22 19 -70h5q11 46 20 70l93 270l-62 8v57h210v-53l-55 -19l-169 -452q-53 -143 -96 -191t-123 -48q-24 0 -48 3.5t-35 6.5l-12 3l18 100q43 -21 135 -21q38 47 60 127z" />
    <glyph glyph-name="z" unicode="z" horiz-adv-x="502" 
d="M45 0v45l263 401h-155l-15 -88h-87v166h398v-45l-263 -401h170l15 88h86v-166h-412z" />
    <glyph glyph-name="braceleft" unicode="{" horiz-adv-x="380" 
d="M125 31l9 138q7 100 -100 100v75q107 0 100 100l-9 138q-8 94 37 131t177 37v-74q-63 0 -85.5 -21.5t-18.5 -72.5l9 -138q9 -95 -74 -138q85 -42 74 -137l-9 -138q-4 -51 18.5 -72.5t85.5 -21.5v-74q-132 0 -177 37t-37 131z" />
    <glyph glyph-name="bar" unicode="|" horiz-adv-x="256" 
d="M165 -100h-74v850h74v-850z" />
    <glyph glyph-name="braceright" unicode="}" horiz-adv-x="380" 
d="M245 169l10 -138q8 -94 -37 -131t-177 -37v74q63 0 85.5 21.5t18.5 72.5l-10 138q-11 95 74 137q-83 43 -74 138l10 138q4 51 -18.5 72.5t-85.5 21.5v74q132 0 177 -37t37 -131l-10 -138q-7 -100 100 -100v-75q-107 0 -100 -100z" />
    <glyph glyph-name="asciitilde" unicode="~" horiz-adv-x="496" 
d="M75 247l-28 31q3 4 8.5 11.5t22 26.5t33.5 33.5t40.5 26.5t44.5 12q29 0 79.5 -29t69.5 -29l77 64l28 -31q-3 -4 -8.5 -11.5t-22 -26.5t-33 -33t-40 -26t-44.5 -12q-29 0 -80 29t-69 29z" />
    <glyph glyph-name="exclamdown" unicode="&#xa1;" horiz-adv-x="304" 
d="M201 412l11 -312v-180h-120v180l11 312h98zM224 555q0 -33 -20 -53.5t-53 -20.5q-32 0 -52.5 20.5t-20.5 53.5q0 32 20.5 52.5t52.5 20.5t52.5 -20.5t20.5 -52.5z" />
    <glyph glyph-name="cent" unicode="&#xa2;" horiz-adv-x="496" 
d="M452 358h-80l-16 80q-17 7 -40 11l-26 -375h11q34 0 68 8t51 16l17 7l23 -62q-8 -6 -22.5 -14.5t-60.5 -23t-93 -14.5l-4 -59h-60l4 65q-86 18 -137 87.5t-51 177.5q0 114 59 187.5t167 82.5l3 42h60l-3 -43q35 -3 67.5 -12t47.5 -17l15 -7v-137zM161 278q0 -149 70 -189
l25 361q-18 -2 -33 -6t-21 -8l-7 -3q-34 -49 -34 -155z" />
    <glyph glyph-name="sterling" unicode="&#xa3;" 
d="M71 540q0 82 46.5 126t157.5 44q57 0 105 -11t68 -23l20 -11l14 -168h-80l-30 104q-27 26 -96 26q-23 0 -43.5 -3.5t-30.5 -7.5l-9 -3q-15 -26 -15 -71q0 -26 6 -50t19 -56t17 -44h134v-81h-123q-4 -79 -87 -220h254l28 100h80l-13 -191h-447v51q4 10 13.5 34t13 33.5
t11.5 29.5t11 30t8.5 26.5t7.5 26.5t5 23.5t4 25t1 22.5v9h-72v67l55 13q-1 3 -6.5 18t-7 20t-5.5 18.5t-6 21.5t-4 21t-3 25t-1 25z" />
    <glyph glyph-name="yen" unicode="&#xa5;" horiz-adv-x="667" 
d="M137 280v67h115l-174 285l-67 8v60h286v-56l-75 -17l116 -196q16 -27 23 -43h4q4 9 12 26.5t9 18.5l108 199l-67 8v60h229v-56l-71 -19l-163 -278h118v-67h-141v-69h141v-68h-141v-75l70 -8v-60h-261v56l69 19v68h-140v68h140v69h-140z" />
    <glyph glyph-name="brokenbar" unicode="&#xa6;" horiz-adv-x="256" 
d="M165 750v-350h-74v350h74zM165 -100h-74v350h74v-350z" />
    <glyph glyph-name="section" unicode="&#xa7;" horiz-adv-x="479" 
d="M441 302q0 -86 -62 -127q61 -43 61 -127q0 -158 -197 -158q-50 0 -93.5 9.5t-62.5 18.5l-19 10v134h86l17 -80q29 -15 78 -15q20 0 39.5 3.5t28.5 6.5l9 3q13 22 13 49q0 20 -8.5 34.5t-30 26.5t-38 18t-53.5 18q-84 28 -125 64t-41 107q0 87 66 129q-54 40 -54 124
q0 74 41.5 116.5t143.5 42.5q47 0 89 -9.5t60 -18.5l18 -9v-135h-87l-15 80q-25 15 -69 15q-18 0 -35 -3t-25 -7l-9 -3q-12 -22 -12 -49q0 -16 6.5 -29t14.5 -21.5t27.5 -18t32 -14t40.5 -14.5q42 -15 65.5 -26t50 -30.5t38 -47.5t11.5 -67zM143 310q0 -9 2 -16.5t7 -14.5
t9 -12t14.5 -10.5t16 -8.5t19.5 -8t20.5 -7t24 -7.5t24.5 -7.5l31 -11q30 35 30 78q0 11 -2.5 20t-6 16t-12 13.5t-14.5 10t-20 9.5t-22.5 8.5t-28.5 9t-31 10.5q-11 3 -31 11q-30 -35 -30 -83z" />
    <glyph glyph-name="dieresis" unicode="&#xa8;" horiz-adv-x="420" 
d="M52 667q0 27 16.5 43.5t42.5 16.5q27 0 43.5 -16.5t16.5 -43.5q0 -26 -16.5 -43t-43.5 -17q-26 0 -42.5 17t-16.5 43zM249 667q0 27 16.5 43.5t42.5 16.5q27 0 43.5 -16.5t16.5 -43.5q0 -26 -16.5 -43t-43.5 -17q-26 0 -42.5 17t-16.5 43z" />
    <glyph glyph-name="copyright" unicode="&#xa9;" horiz-adv-x="770" 
d="M39 350q0 162 95.5 258.5t250.5 96.5t250.5 -96.5t95.5 -258.5t-95.5 -258.5t-250.5 -96.5t-250.5 96.5t-95.5 258.5zM106 354q0 -136 79 -214t209 -78q38 0 78 7t61 14l21 7q4 3 11.5 9.5t26.5 30.5t33.5 51t26.5 72.5t12 94.5q0 134 -79.5 212t-209.5 78
q-40 0 -80 -7.5t-61 -14.5l-20 -8q-4 -3 -11.5 -9.5t-26 -29.5t-33 -50t-26 -71.5t-11.5 -93.5zM470 425l-17 57q-23 11 -60 11q-18 0 -34 -3.5t-23 -7.5l-7 -3q-3 -3 -8 -11t-13 -41.5t-8 -78.5q0 -74 23.5 -108.5t73.5 -34.5q14 0 28.5 2.5t21.5 4.5l7 3l17 59h47l-8 -96
q-48 -22 -110 -22q-83 0 -130.5 51t-47.5 143t47.5 142t131.5 50q28 0 55 -5.5t40 -10.5l13 -6l8 -95h-47z" />
    <glyph glyph-name="ordfeminine" unicode="&#xaa;" horiz-adv-x="389" 
d="M32 439q0 48 29.5 78t88.5 36l86 9v37q0 33 -13 48t-44 15q-12 0 -22.5 -2t-14.5 -4l-5 -2l-12 -56h-69v100q40 27 124 27q81 0 116 -34t35 -103v-157q0 -21 21 -21h24l5 -44q-23 -20 -69 -20q-54 0 -69 37q-49 -40 -111 -40q-48 0 -74 25.5t-26 70.5zM120 451
q0 -42 45 -42q35 0 71 25v78l-104 -22q-12 -18 -12 -39z" />
    <glyph glyph-name="guillemotleft" unicode="&#xab;" horiz-adv-x="482" 
d="M225 126l-183 167v14l183 167l31 -37l-115 -137l115 -137zM397 126l-184 167v14l184 167l30 -37l-115 -137l115 -137z" />
    <glyph glyph-name="registered" unicode="&#xae;" horiz-adv-x="770" 
d="M39 350q0 162 95.5 258.5t250.5 96.5t250.5 -96.5t95.5 -258.5t-95.5 -258.5t-250.5 -96.5t-250.5 96.5t-95.5 258.5zM106 354q0 -136 79 -214t209 -78q39 0 79 7t61 14l20 7q5 3 12 9.5t26.5 30.5t34 51t26.5 72.5t12 94.5q0 134 -80 212t-210 78q-40 0 -80.5 -7.5
t-60.5 -14.5l-20 -8q-4 -3 -11.5 -9.5t-26 -29.5t-33 -50t-26 -71.5t-11.5 -93.5zM334 205l41 -4v-35h-154v33l41 11v295l-41 4v35h173q64 0 102 -29t38 -81q0 -81 -86 -104l84 -125l39 -4v-35h-102l-93 158h-42v-119zM377 497h-43v-125h47q13 0 26 1.5t19 2.5l7 2
q23 14 23 56q0 63 -79 63z" />
    <glyph glyph-name="macron" unicode="&#xaf;" horiz-adv-x="420" 
d="M67 623v74h286v-74h-286z" />
    <glyph glyph-name="degree" unicode="&#xb0;" horiz-adv-x="363" 
d="M41 550q0 61 38 97.5t101 36.5q64 0 103 -36.5t39 -97.5q0 -62 -39 -98.5t-103 -36.5q-63 0 -101 36.5t-38 98.5zM118 554q0 -74 68 -74q11 0 23 2t19 4l6 2q13 21 13 57q0 74 -67 74q-12 0 -24.5 -2t-19.5 -4l-6 -2q-12 -22 -12 -57z" />
    <glyph glyph-name="plusminus" unicode="&#xb1;" horiz-adv-x="503" 
d="M58 396v75h156v156h75v-156h156v-75h-156v-156h-75v156h-156zM58 106v75h387v-75h-387z" />
    <glyph glyph-name="twosuperior" unicode="&#xb2;" horiz-adv-x="353" 
d="M305 617q0 -42 -26.5 -73t-83 -74.5t-91.5 -81.5h130l18 50h55l-8 -112h-262v62q39 49 88.5 94t70.5 70.5t21 56.5q0 40 -51 40q-15 0 -27 -2.5t-17 -5.5l-5 -3l-18 -54h-55l9 98q38 24 118 24q134 0 134 -89z" />
    <glyph glyph-name="threesuperior" unicode="&#xb3;" horiz-adv-x="353" 
d="M307 432q0 -55 -41 -83.5t-112 -28.5q-34 0 -63.5 6.5t-42.5 13.5l-13 6l14 47q36 -18 95 -18q15 0 30 1.5t22 3.5l7 1q15 13 15 50q0 35 -15 49.5t-48 14.5h-21l-8 8v42q12 3 33.5 29t36.5 50l15 24h-94l-18 -59h-55l8 111h241v-52q-45 -65 -92 -109v-1
q106 -17 106 -106z" />
    <glyph glyph-name="acute" unicode="&#xb4;" horiz-adv-x="402" 
d="M101 598l135 162l74 -74l-158 -112z" />
    <glyph glyph-name="paragraph" unicode="&#xb6;" horiz-adv-x="639" 
d="M457 -100v719h-101v-719h-75v386q-108 0 -173 54.5t-65 152.5t65 152.5t174 54.5h319v-60l-70 -8v-732h-74z" />
    <glyph glyph-name="periodcentered" unicode="&#xb7;" horiz-adv-x="228" 
d="M41 360q0 33 20.5 53t52.5 20t52.5 -20t20.5 -53t-20.5 -53t-52.5 -20t-52.5 20t-20.5 53z" />
    <glyph glyph-name="cedilla" unicode="&#xb8;" horiz-adv-x="338" 
d="M136 -88l12 98h54l-10 -72q3 0 8 -0.5t18 -4.5t22.5 -10.5t17.5 -20.5t8 -32q0 -36 -31 -56t-85 -20q-18 0 -35 2t-25 4l-7 3l12 55q18 -15 52 -15l34 4q4 13 4 24q0 17 -12.5 27.5t-24.5 11.5z" />
    <glyph glyph-name="onesuperior" unicode="&#xb9;" horiz-adv-x="353" 
d="M56 628v40q98 16 160 37l8 -7v-323l76 -5v-44h-240v44l82 13v245h-86z" />
    <glyph glyph-name="ordmasculine" unicode="&#xba;" horiz-adv-x="399" 
d="M27 534q0 89 47.5 140t125.5 51t125 -51t47 -140t-47 -140t-125 -51t-125.5 51t-47.5 140zM127 536q0 -68 17.5 -99t58.5 -31q14 0 26.5 3t18.5 5l6 3q18 32 18 115q0 69 -17.5 99.5t-57.5 30.5q-14 0 -26.5 -3t-18.5 -6l-6 -3q-19 -30 -19 -114z" />
    <glyph glyph-name="guillemotright" unicode="&#xbb;" horiz-adv-x="482" 
d="M85 474l184 -167v-14l-184 -167l-30 37l115 137l-115 137zM257 474l184 -167v-14l-184 -167l-30 37l115 137l-115 137z" />
    <glyph glyph-name="onequarter" unicode="&#xbc;" horiz-adv-x="812" 
d="M715 374v-223h45v-60h-44v-46l44 -5v-40h-169v35l44 13v42h-165v33l159 251h86zM175 0h-90l587 700h90zM56 628v40q98 16 160 37l8 -7v-323l76 -5v-44h-240v44l82 13v245h-86zM547 152h91v144z" />
    <glyph glyph-name="onehalf" unicode="&#xbd;" horiz-adv-x="821" 
d="M56 628v40q98 16 160 37l8 -7v-323l76 -5v-44h-240v44l82 13v245h-86zM175 0h-90l587 700h90zM778 291q0 -42 -26.5 -72.5t-83 -74.5t-91.5 -82h130l18 51h55l-8 -113h-262v62q32 40 69.5 77t59 55.5t36 41.5t14.5 48q0 39 -50 39q-15 0 -27.5 -2.5t-17.5 -5.5l-4 -3
l-18 -53h-55l8 97q39 24 119 24q134 0 134 -89z" />
    <glyph glyph-name="threequarters" unicode="&#xbe;" horiz-adv-x="812" 
d="M714 374v-223h46v-60h-44v-46l44 -5v-40h-170v35l45 13v42h-165v33l159 251h85zM175 0h-90l587 700h90zM307 432q0 -55 -41 -83.5t-112 -28.5q-34 0 -63.5 6.5t-42.5 13.5l-13 6l14 47q36 -18 95 -18q15 0 30 1.5t22 3.5l7 1q15 13 15 50q0 35 -15 49.5t-48 14.5h-21
l-8 8v42q12 3 33.5 29t36.5 50l15 24h-94l-18 -59h-55l8 111h241v-52q-45 -65 -92 -109v-1q106 -17 106 -106zM547 152h91v144z" />
    <glyph glyph-name="questiondown" unicode="&#xbf;" horiz-adv-x="496" 
d="M328 555q0 -33 -20.5 -53t-52.5 -20t-52.5 20t-20.5 53t20.5 53t52.5 20t52.5 -20t20.5 -53zM303 412l10 -151q-74 -48 -106.5 -87.5t-32.5 -90.5q0 -81 89 -81q26 0 47 6t30 12l8 6l30 104h80l-14 -167q-7 -5 -20 -12.5t-61 -20t-104 -12.5q-109 0 -161.5 41.5
t-52.5 114.5q0 62 36.5 108.5t112.5 100.5l12 129h97z" />
    <glyph glyph-name="Agrave" unicode="&#xc0;" horiz-adv-x="713" 
d="M294 700h118l14 -13l215 -619l69 -8v-60h-283v55l70 20l-43 128h-242l-45 -135l73 -8v-60h-237v56l66 19zM316 511l-77 -227h190l-74 227q-10 31 -18 70h-4q-10 -48 -17 -70zM207 851l74 74l135 -162l-51 -23z" />
    <glyph glyph-name="Aacute" unicode="&#xc1;" horiz-adv-x="713" 
d="M294 700h118l14 -13l215 -619l69 -8v-60h-283v55l70 20l-43 128h-242l-45 -135l73 -8v-60h-237v56l66 19zM316 511l-77 -227h190l-74 227q-10 31 -18 70h-4q-10 -48 -17 -70zM284 763l135 162l74 -74l-158 -111z" />
    <glyph glyph-name="Acircumflex" unicode="&#xc2;" horiz-adv-x="713" 
d="M294 700h118l14 -13l215 -619l69 -8v-60h-283v55l70 20l-43 128h-242l-45 -135l73 -8v-60h-237v56l66 19zM316 511l-77 -227h190l-74 227q-10 31 -18 70h-4q-10 -48 -17 -70zM209 763l140 154h15l140 -154l-51 -23l-96 78l-97 -78z" />
    <glyph glyph-name="Atilde" unicode="&#xc3;" horiz-adv-x="713" 
d="M294 700h118l14 -13l215 -619l69 -8v-60h-283v55l70 20l-43 128h-242l-45 -135l73 -8v-60h-237v56l66 19zM316 511l-77 -227h190l-74 227q-10 31 -18 70h-4q-10 -48 -17 -70zM215 764l-29 31q2 3 6.5 9t18 21t27.5 26t35.5 20.5t41.5 9.5q25 0 64 -19.5t62 -19.5l58 41
l27 -31l-6 -9q-4 -6 -17.5 -20.5t-27.5 -25.5t-34.5 -20t-40.5 -9q-24 0 -64 19t-63 19z" />
    <glyph glyph-name="Adieresis" unicode="&#xc4;" horiz-adv-x="713" 
d="M294 700h118l14 -13l215 -619l69 -8v-60h-283v55l70 20l-43 128h-242l-45 -135l73 -8v-60h-237v56l66 19zM316 511l-77 -227h190l-74 227q-10 31 -18 70h-4q-10 -48 -17 -70zM198 827q0 28 16.5 44.5t42.5 16.5q27 0 44 -16.5t17 -44.5q0 -26 -17 -42.5t-44 -16.5
q-26 0 -42.5 16.5t-16.5 42.5zM395 827q0 28 16.5 44.5t42.5 16.5q27 0 44 -16.5t17 -44.5q0 -26 -17 -42.5t-44 -16.5q-26 0 -42.5 16.5t-16.5 42.5z" />
    <glyph glyph-name="Aring" unicode="&#xc5;" horiz-adv-x="713" 
d="M294 700h118l14 -13l215 -619l69 -8v-60h-283v55l70 20l-43 128h-242l-45 -135l73 -8v-60h-237v56l66 19zM316 511l-77 -227h190l-74 227q-10 31 -18 70h-4q-10 -48 -17 -70zM263 831q0 40 25 64t67 24t67.5 -24t25.5 -64t-25.5 -64t-67.5 -24t-67 24t-25 64zM320 833
q0 -42 38 -42l27 5q7 12 7 32q0 42 -37 42l-29 -5q-6 -12 -6 -32z" />
    <glyph glyph-name="AE" unicode="&#xc6;" horiz-adv-x="829" 
d="M782 0h-433v55l69 20l-16 128h-183l-52 -135l73 -8v-60h-237v56l66 19l245 625h454l14 -184h-80l-29 103h-206l32 -223h77l15 79h63v-240h-63l-15 79h-67l35 -233h142l29 106h80zM334 511l-89 -227h151l-37 301h-4q-6 -31 -21 -74z" />
    <glyph glyph-name="Ccedilla" unicode="&#xc7;" horiz-adv-x="585" 
d="M295 -88l9 80q-125 14 -195 107.5t-70 251.5q0 170 81.5 264.5t226.5 94.5q48 0 94.5 -10.5t68.5 -21.5l22 -10l14 -174h-80l-30 109q-39 22 -103 22q-32 0 -59 -6.5t-38 -13.5l-12 -7q-2 -2 -5.5 -7.5t-13 -26t-16.5 -46t-12.5 -71t-5.5 -97.5q0 -141 41 -208.5
t127 -67.5q24 0 49 5t38 11l12 5l30 114h80l-14 -177q-77 -39 -177 -42l-7 -52q3 0 8 -0.5t18 -4.5t23 -10.5t18 -20.5t8 -32q0 -36 -31.5 -56t-85.5 -20q-18 0 -34.5 2t-23.5 4l-8 3l11 55q18 -15 52 -15l34 4q4 13 4 24q0 17 -12 27.5t-24 11.5z" />
    <glyph glyph-name="Egrave" unicode="&#xc8;" horiz-adv-x="594" 
d="M547 0h-509v56l69 19v557l-69 8v60h496l13 -184h-80l-28 103h-210v-223h102l15 79h67v-240h-67l-15 79h-102v-233h222l29 106h80zM154 851l74 74l135 -162l-51 -23z" />
    <glyph glyph-name="Eacute" unicode="&#xc9;" horiz-adv-x="594" 
d="M547 0h-509v56l69 19v557l-69 8v60h496l13 -184h-80l-28 103h-210v-223h102l15 79h67v-240h-67l-15 79h-102v-233h222l29 106h80zM224 763l135 162l74 -74l-158 -111z" />
    <glyph glyph-name="Ecircumflex" unicode="&#xca;" horiz-adv-x="594" 
d="M547 0h-509v56l69 19v557l-69 8v60h496l13 -184h-80l-28 103h-210v-223h102l15 79h67v-240h-67l-15 79h-102v-233h222l29 106h80zM149 763l140 154h15l141 -154l-51 -23l-97 78l-97 -78z" />
    <glyph glyph-name="Edieresis" unicode="&#xcb;" horiz-adv-x="594" 
d="M547 0h-509v56l69 19v557l-69 8v60h496l13 -184h-80l-28 103h-210v-223h102l15 79h67v-240h-67l-15 79h-102v-233h222l29 106h80zM142 827q0 27 17 44t43 17t43 -17t17 -44q0 -26 -17 -42.5t-43 -16.5t-43 16.5t-17 42.5zM339 827q0 27 16.5 44t43.5 17t43.5 -17
t16.5 -44q0 -26 -17 -42.5t-43 -16.5t-43 16.5t-17 42.5z" />
    <glyph glyph-name="Igrave" unicode="&#xcc;" horiz-adv-x="337" 
d="M229 68l69 -8v-60h-261v56l70 19v557l-70 8v60h261v-56l-69 -19v-557zM26 851l74 74l134 -162l-51 -23z" />
    <glyph glyph-name="Iacute" unicode="&#xcd;" horiz-adv-x="337" 
d="M229 68l69 -8v-60h-261v56l70 19v557l-70 8v60h261v-56l-69 -19v-557zM89 763l135 162l74 -74l-158 -111z" />
    <glyph glyph-name="Icircumflex" unicode="&#xce;" horiz-adv-x="337" 
d="M229 68l69 -8v-60h-261v56l70 19v557l-70 8v60h261v-56l-69 -19v-557zM21 763l140 154h15l140 -154l-51 -23l-97 78l-96 -78z" />
    <glyph glyph-name="Idieresis" unicode="&#xcf;" horiz-adv-x="337" 
d="M229 68l69 -8v-60h-261v56l70 19v557l-70 8v60h261v-56l-69 -19v-557zM10 827q0 27 17 44t43 17q27 0 43.5 -16.5t16.5 -44.5q0 -26 -16.5 -42.5t-43.5 -16.5q-26 0 -43 16.5t-17 42.5zM207 827q0 27 16.5 44t43.5 17t43.5 -16.5t16.5 -44.5q0 -26 -16.5 -42.5
t-43.5 -16.5q-26 0 -43 16.5t-17 42.5z" />
    <glyph glyph-name="Eth" unicode="&#xd0;" horiz-adv-x="662" 
d="M39 316v66l70 16v234l-70 8v60h295q131 0 210 -92.5t79 -257.5t-78.5 -257.5t-209.5 -92.5h-296v56l70 19v241h-70zM323 619h-92v-222h130v-81h-130v-235h99q28 0 53.5 5.5t36.5 10.5l11 5q2 2 6.5 7.5t14.5 26.5t18 47t14.5 72.5t6.5 101.5q0 137 -41.5 199.5
t-126.5 62.5z" />
    <glyph glyph-name="Ntilde" unicode="&#xd1;" horiz-adv-x="727" 
d="M199 68l73 -8v-60h-238v56l73 19v557l-73 8v60h190l281 -428q17 -26 26 -52l3 1q-2 18 -2 51v360l-73 8v60h237v-56l-73 -19v-625h-85l-312 476q-21 33 -26 52l-4 -1q3 -27 3 -51v-408zM218 764l-28 31q2 3 6.5 9t17.5 21t27.5 26t35.5 20.5t41 9.5q25 0 64.5 -19.5
t62.5 -19.5l57 41l28 -31q-6 -9 -17 -23t-44.5 -37.5t-65.5 -23.5q-24 0 -64 19t-62 19z" />
    <glyph glyph-name="Ograve" unicode="&#xd2;" horiz-adv-x="657" 
d="M40 351q0 168 79 263.5t210 95.5t210.5 -95.5t79.5 -264.5t-79 -264.5t-210 -95.5q-132 0 -211 96t-79 265zM172 350q0 -143 40 -209.5t124 -66.5q28 0 52.5 6.5t35.5 13.5l10 6q6 7 14.5 22.5t23 79.5t14.5 147q0 144 -39.5 210t-121.5 66q-28 0 -53.5 -6.5t-37.5 -12.5
l-11 -7q-2 -2 -5.5 -7.5t-12.5 -26t-15.5 -46.5t-12 -71t-5.5 -98zM186 851l74 74l134 -162l-51 -23z" />
    <glyph glyph-name="Oacute" unicode="&#xd3;" horiz-adv-x="657" 
d="M40 351q0 168 79 263.5t210 95.5t210.5 -95.5t79.5 -264.5t-79 -264.5t-210 -95.5q-132 0 -211 96t-79 265zM172 350q0 -143 40 -209.5t124 -66.5q28 0 52.5 6.5t35.5 13.5l10 6q6 7 14.5 22.5t23 79.5t14.5 147q0 144 -39.5 210t-121.5 66q-28 0 -53.5 -6.5t-37.5 -12.5
l-11 -7q-2 -2 -5.5 -7.5t-12.5 -26t-15.5 -46.5t-12 -71t-5.5 -98zM249 763l135 162l74 -74l-158 -111z" />
    <glyph glyph-name="Ocircumflex" unicode="&#xd4;" horiz-adv-x="657" 
d="M40 351q0 168 79 263.5t210 95.5t210.5 -95.5t79.5 -264.5t-79 -264.5t-210 -95.5q-132 0 -211 96t-79 265zM172 350q0 -143 40 -209.5t124 -66.5q28 0 52.5 6.5t35.5 13.5l10 6q6 7 14.5 22.5t23 79.5t14.5 147q0 144 -39.5 210t-121.5 66q-28 0 -53.5 -6.5t-37.5 -12.5
l-11 -7q-2 -2 -5.5 -7.5t-12.5 -26t-15.5 -46.5t-12 -71t-5.5 -98zM181 763l140 154h15l140 -154l-51 -23l-96 78l-97 -78z" />
    <glyph glyph-name="Otilde" unicode="&#xd5;" horiz-adv-x="657" 
d="M40 351q0 168 79 263.5t210 95.5t210.5 -95.5t79.5 -264.5t-79 -264.5t-210 -95.5q-132 0 -211 96t-79 265zM172 350q0 -143 40 -209.5t124 -66.5q28 0 52.5 6.5t35.5 13.5l10 6q6 7 14.5 22.5t23 79.5t14.5 147q0 144 -39.5 210t-121.5 66q-28 0 -53.5 -6.5t-37.5 -12.5
l-11 -7q-2 -2 -5.5 -7.5t-12.5 -26t-15.5 -46.5t-12 -71t-5.5 -98zM187 764l-29 31q2 3 6.5 9t17.5 21t27.5 26t35.5 20.5t41 9.5q25 0 64.5 -19.5t62.5 -19.5l58 41l27 -31q-6 -9 -17 -23t-44 -37.5t-65 -23.5q-24 0 -64.5 19t-62.5 19z" />
    <glyph glyph-name="Odieresis" unicode="&#xd6;" horiz-adv-x="657" 
d="M40 351q0 168 79 263.5t210 95.5t210.5 -95.5t79.5 -264.5t-79 -264.5t-210 -95.5q-132 0 -211 96t-79 265zM172 350q0 -143 40 -209.5t124 -66.5q28 0 52.5 6.5t35.5 13.5l10 6q6 7 14.5 22.5t23 79.5t14.5 147q0 144 -39.5 210t-121.5 66q-28 0 -53.5 -6.5t-37.5 -12.5
l-11 -7q-2 -2 -5.5 -7.5t-12.5 -26t-15.5 -46.5t-12 -71t-5.5 -98zM170 827q0 28 16.5 44.5t42.5 16.5q27 0 44 -16.5t17 -44.5q0 -26 -17 -42.5t-44 -16.5q-26 0 -42.5 16.5t-16.5 42.5zM367 827q0 28 16.5 44.5t42.5 16.5q27 0 44 -16.5t17 -44.5q0 -26 -17 -42.5
t-44 -16.5q-26 0 -42.5 16.5t-16.5 42.5z" />
    <glyph glyph-name="multiply" unicode="&#xd7;" horiz-adv-x="503" 
d="M121 157l-53 53l130 130l-130 130l53 53l130 -130l131 130l53 -53l-131 -130l131 -130l-53 -53l-131 130z" />
    <glyph glyph-name="Oslash" unicode="&#xd8;" horiz-adv-x="657" 
d="M56 13l56 81q-73 96 -73 257q0 168 79.5 263.5t210.5 95.5q98 0 168 -55l41 60l63 -29l-56 -81q73 -97 73 -255q0 -169 -79 -264.5t-210 -95.5q-97 0 -168 54l-41 -59zM171 350q0 -88 15 -147l253 367q-39 55 -115 55q-28 0 -53.5 -6.5t-36.5 -12.5l-11 -7
q-6 -7 -14.5 -22.5t-23 -79t-14.5 -147.5zM486 349q0 89 -15 147l-253 -368q39 -54 117 -54q28 0 52.5 6.5t34.5 13.5l11 6q2 3 5.5 8t13 26t16.5 47t12.5 71t5.5 97z" />
    <glyph glyph-name="Ugrave" unicode="&#xd9;" horiz-adv-x="719" 
d="M617 625v-372q0 -123 -70.5 -193t-187.5 -70q-115 0 -186 66.5t-71 183.5v392l-69 8v60h264v-56l-69 -19v-385q0 -87 37.5 -128t118.5 -41q29 0 53 4.5t33 8.5l10 5q5 5 12.5 15.5t20 52.5t12.5 94v381l-74 8v60h239v-56zM223 851l74 74l135 -162l-51 -23z" />
    <glyph glyph-name="Uacute" unicode="&#xda;" horiz-adv-x="719" 
d="M617 625v-372q0 -123 -70.5 -193t-187.5 -70q-115 0 -186 66.5t-71 183.5v392l-69 8v60h264v-56l-69 -19v-385q0 -87 37.5 -128t118.5 -41q29 0 53 4.5t33 8.5l10 5q5 5 12.5 15.5t20 52.5t12.5 94v381l-74 8v60h239v-56zM287 763l134 162l74 -74l-157 -111z" />
    <glyph glyph-name="Ucircumflex" unicode="&#xdb;" horiz-adv-x="719" 
d="M617 625v-372q0 -123 -70.5 -193t-187.5 -70q-115 0 -186 66.5t-71 183.5v392l-69 8v60h264v-56l-69 -19v-385q0 -87 37.5 -128t118.5 -41q29 0 53 4.5t33 8.5l10 5q5 5 12.5 15.5t20 52.5t12.5 94v381l-74 8v60h239v-56zM218 763l140 154h15l141 -154l-51 -23l-97 78
l-97 -78z" />
    <glyph glyph-name="Udieresis" unicode="&#xdc;" horiz-adv-x="719" 
d="M617 625v-372q0 -123 -70.5 -193t-187.5 -70q-115 0 -186 66.5t-71 183.5v392l-69 8v60h264v-56l-69 -19v-385q0 -87 37.5 -128t118.5 -41q29 0 53 4.5t33 8.5l10 5q5 5 12.5 15.5t20 52.5t12.5 94v381l-74 8v60h239v-56zM208 827q0 28 16.5 44.5t42.5 16.5
q27 0 44 -16.5t17 -44.5q0 -26 -17 -42.5t-44 -16.5q-26 0 -42.5 16.5t-16.5 42.5zM405 827q0 28 16.5 44.5t42.5 16.5q27 0 44 -16.5t17 -44.5q0 -26 -17 -42.5t-44 -16.5q-26 0 -42.5 16.5t-16.5 42.5z" />
    <glyph glyph-name="Yacute" unicode="&#xdd;" horiz-adv-x="667" 
d="M585 625l-186 -323v-234l70 -8v-60h-261v56l69 19v225l-199 332l-67 8v60h286v-56l-75 -17l116 -203q15 -23 23 -42h4q3 9 11 25t10 19l108 206l-67 8v60h229v-56zM260 752l134 161l74 -74l-157 -111z" />
    <glyph glyph-name="Thorn" unicode="&#xde;" horiz-adv-x="613" 
d="M229 69l83 -4v-65h-274v56l69 19v557l-69 8v60h261v-56l-70 -19v-66h102q109 0 174 -52.5t65 -146.5t-65 -146.5t-173 -52.5h-103v-92zM304 478h-75v-235h81q22 0 44.5 2.5t33.5 4.5l11 3q4 3 10.5 10.5t17.5 35t11 61.5q0 62 -33 90t-101 28z" />
    <glyph glyph-name="germandbls" unicode="&#xdf;" horiz-adv-x="667" 
d="M382 82q24 -13 73 -13q20 0 37.5 2.5t25.5 5.5l7 3q11 23 11 50q0 38 -24 57t-78 40q-73 30 -111.5 83.5t-38.5 153.5q62 27 91.5 59.5t29.5 77.5q0 40 -22.5 62.5t-66.5 22.5q-22 0 -43 -5.5t-31 -10.5l-11 -6q-22 -40 -22 -116v-548h-179v53l60 19v475q0 104 63 158
t177 54q186 0 186 -150q0 -61 -34 -102t-101 -75q0 -71 110 -121q6 -3 25 -11.5t26.5 -12.5t23.5 -13t23.5 -16t18.5 -19t15.5 -24t8.5 -29t4 -37q0 -73 -48 -116t-146 -43q-44 0 -84.5 8.5t-59.5 17.5l-18 9v137h87z" />
    <glyph glyph-name="agrave" unicode="&#xe0;" horiz-adv-x="541" 
d="M43 125q0 66 41 108.5t123 51.5l134 14v56q0 51 -20.5 74.5t-70.5 23.5q-21 0 -38.5 -3.5t-25.5 -7.5l-7 -4l-15 -80h-87v136q6 4 19 10.5t58 17.5t97 11q112 0 160 -47.5t48 -144.5v-233q0 -33 33 -33h34l7 -54q-31 -27 -91 -27q-76 0 -94 56q-70 -59 -164 -59
q-68 0 -104.5 35.5t-36.5 98.5zM154 140q0 -66 72 -66q60 0 115 41v121l-167 -32q-20 -27 -20 -64zM98 686l74 74l135 -162l-51 -24z" />
    <glyph glyph-name="aacute" unicode="&#xe1;" horiz-adv-x="541" 
d="M43 125q0 66 41 108.5t123 51.5l134 14v56q0 51 -20.5 74.5t-70.5 23.5q-21 0 -38.5 -3.5t-25.5 -7.5l-7 -4l-15 -80h-87v136q6 4 19 10.5t58 17.5t97 11q112 0 160 -47.5t48 -144.5v-233q0 -33 33 -33h34l7 -54q-31 -27 -91 -27q-76 0 -94 56q-70 -59 -164 -59
q-68 0 -104.5 35.5t-36.5 98.5zM154 140q0 -66 72 -66q60 0 115 41v121l-167 -32q-20 -27 -20 -64zM192 598l134 162l74 -74l-157 -112z" />
    <glyph glyph-name="acircumflex" unicode="&#xe2;" horiz-adv-x="541" 
d="M43 125q0 66 41 108.5t123 51.5l134 14v56q0 51 -20.5 74.5t-70.5 23.5q-21 0 -38.5 -3.5t-25.5 -7.5l-7 -4l-15 -80h-87v136q6 4 19 10.5t58 17.5t97 11q112 0 160 -47.5t48 -144.5v-233q0 -33 33 -33h34l7 -54q-31 -27 -91 -27q-76 0 -94 56q-70 -59 -164 -59
q-68 0 -104.5 35.5t-36.5 98.5zM154 140q0 -66 72 -66q60 0 115 41v121l-167 -32q-20 -27 -20 -64zM108 598l141 154h14l141 -154l-51 -24l-97 79l-97 -79z" />
    <glyph glyph-name="atilde" unicode="&#xe3;" horiz-adv-x="541" 
d="M43 125q0 66 41 108.5t123 51.5l134 14v56q0 51 -20.5 74.5t-70.5 23.5q-21 0 -38.5 -3.5t-25.5 -7.5l-7 -4l-15 -80h-87v136q6 4 19 10.5t58 17.5t97 11q112 0 160 -47.5t48 -144.5v-233q0 -33 33 -33h34l7 -54q-31 -27 -91 -27q-76 0 -94 56q-70 -59 -164 -59
q-68 0 -104.5 35.5t-36.5 98.5zM154 140q0 -66 72 -66q60 0 115 41v121l-167 -32q-20 -27 -20 -64zM121 609l-28 31q2 3 6.5 9t17.5 20.5t27.5 26t35.5 20.5t41 9q25 0 64.5 -19.5t62.5 -19.5l57 41l28 -31q-6 -9 -17 -23t-44.5 -37.5t-65.5 -23.5q-24 0 -64 19.5t-62 19.5z
" />
    <glyph glyph-name="adieresis" unicode="&#xe4;" horiz-adv-x="541" 
d="M43 125q0 66 41 108.5t123 51.5l134 14v56q0 51 -20.5 74.5t-70.5 23.5q-21 0 -38.5 -3.5t-25.5 -7.5l-7 -4l-15 -80h-87v136q6 4 19 10.5t58 17.5t97 11q112 0 160 -47.5t48 -144.5v-233q0 -33 33 -33h34l7 -54q-31 -27 -91 -27q-76 0 -94 56q-70 -59 -164 -59
q-68 0 -104.5 35.5t-36.5 98.5zM154 140q0 -66 72 -66q60 0 115 41v121l-167 -32q-20 -27 -20 -64zM101 667q0 27 17 43.5t43 16.5q27 0 43.5 -16.5t16.5 -43.5q0 -26 -16.5 -43t-43.5 -17q-26 0 -43 17t-17 43zM298 667q0 27 17 43.5t43 16.5q27 0 43.5 -16.5t16.5 -43.5
q0 -26 -16.5 -43t-43.5 -17q-26 0 -43 17t-17 43z" />
    <glyph glyph-name="aring" unicode="&#xe5;" horiz-adv-x="541" 
d="M43 125q0 66 41 108.5t123 51.5l134 14v56q0 51 -20.5 74.5t-70.5 23.5q-21 0 -38.5 -3.5t-25.5 -7.5l-7 -4l-15 -80h-87v136q6 4 19 10.5t58 17.5t97 11q112 0 160 -47.5t48 -144.5v-233q0 -33 33 -33h34l7 -54q-31 -27 -91 -27q-76 0 -94 56q-70 -59 -164 -59
q-68 0 -104.5 35.5t-36.5 98.5zM173 665q0 40 25 64t67 24t67.5 -24t25.5 -64t-25.5 -64t-67.5 -24t-67 24t-25 64zM154 140q0 -66 72 -66q60 0 115 41v121l-167 -32q-20 -27 -20 -64zM229 667q0 -41 39 -41l27 4q7 12 7 32q0 42 -38 42l-28 -5q-7 -11 -7 -32z" />
    <glyph glyph-name="ae" unicode="&#xe6;" horiz-adv-x="783" 
d="M710 105l23 -62q-8 -6 -22 -14.5t-58.5 -23t-88.5 -14.5q-118 0 -185 84q-79 -84 -194 -84q-69 0 -105.5 35t-36.5 99q0 67 41.5 108.5t122.5 51.5l117 14q4 43 18 81q-5 38 -27 55.5t-65 17.5q-21 0 -38.5 -3.5t-25.5 -7.5l-7 -4l-15 -80h-87v136q6 4 19 10.5t58 17.5
t97 11q112 0 162 -50q61 50 143 50q97 0 149.5 -69t41.5 -197l-35 -24h-264q1 -86 37.5 -127.5t100.5 -41.5q29 0 60 8t48 16zM154 140q0 -66 72 -66q64 0 124 49q-24 51 -28 111l-148 -30q-20 -27 -20 -64zM480 434q-32 -47 -32 -130l194 15q4 133 -92 133
q-18 0 -35.5 -4.5t-26.5 -9.5z" />
    <glyph glyph-name="ccedilla" unicode="&#xe7;" horiz-adv-x="496" 
d="M240 -88l10 81q-97 11 -155.5 82t-58.5 187q0 121 66 196t187 75q43 0 83.5 -9.5t59.5 -19.5l20 -9v-137h-87l-15 80q-23 14 -71 14q-24 0 -45.5 -5t-30.5 -9l-9 -5q-33 -49 -33 -155q0 -115 37 -159.5t103 -44.5q34 0 68 8t51 16l17 7l23 -62q-7 -5 -20 -12.5t-54 -21.5
t-83 -17l-7 -54q3 0 8 -0.5t18 -4.5t22.5 -10.5t17.5 -20.5t8 -32q0 -36 -31 -56t-85 -20q-18 0 -35 2t-25 4l-7 3l12 55q18 -15 52 -15l34 4q4 13 4 24q0 17 -12.5 27.5t-24.5 11.5z" />
    <glyph glyph-name="egrave" unicode="&#xe8;" horiz-adv-x="517" 
d="M444 105l23 -62q-8 -6 -22.5 -14.5t-61 -23t-94.5 -14.5q-112 0 -182.5 72.5t-70.5 196.5q0 122 68 197.5t177 75.5q102 0 156.5 -69t42.5 -197l-34 -24h-285q1 -86 40.5 -127.5t107.5 -41.5q32 0 65.5 8t51.5 16zM196 434q-35 -47 -35 -130l215 15q4 133 -101 133
q-21 0 -40.5 -4.5t-28.5 -9.5zM112 686l74 74l134 -162l-51 -24z" />
    <glyph glyph-name="eacute" unicode="&#xe9;" horiz-adv-x="517" 
d="M444 105l23 -62q-8 -6 -22.5 -14.5t-61 -23t-94.5 -14.5q-112 0 -182.5 72.5t-70.5 196.5q0 122 68 197.5t177 75.5q102 0 156.5 -69t42.5 -197l-34 -24h-285q1 -86 40.5 -127.5t107.5 -41.5q32 0 65.5 8t51.5 16zM196 434q-35 -47 -35 -130l215 15q4 133 -101 133
q-21 0 -40.5 -4.5t-28.5 -9.5zM228 598l135 162l74 -74l-158 -112z" />
    <glyph glyph-name="ecircumflex" unicode="&#xea;" horiz-adv-x="517" 
d="M444 105l23 -62q-8 -6 -22.5 -14.5t-61 -23t-94.5 -14.5q-112 0 -182.5 72.5t-70.5 196.5q0 122 68 197.5t177 75.5q102 0 156.5 -69t42.5 -197l-34 -24h-285q1 -86 40.5 -127.5t107.5 -41.5q32 0 65.5 8t51.5 16zM196 434q-35 -47 -35 -130l215 15q4 133 -101 133
q-21 0 -40.5 -4.5t-28.5 -9.5zM126 598l140 154h15l140 -154l-51 -24l-96 79l-97 -79z" />
    <glyph glyph-name="edieresis" unicode="&#xeb;" horiz-adv-x="517" 
d="M444 105l23 -62q-8 -6 -22.5 -14.5t-61 -23t-94.5 -14.5q-112 0 -182.5 72.5t-70.5 196.5q0 122 68 197.5t177 75.5q102 0 156.5 -69t42.5 -197l-34 -24h-285q1 -86 40.5 -127.5t107.5 -41.5q32 0 65.5 8t51.5 16zM196 434q-35 -47 -35 -130l215 15q4 133 -101 133
q-21 0 -40.5 -4.5t-28.5 -9.5zM116 667q0 27 17 43.5t43 16.5t43 -16.5t17 -43.5q0 -26 -17 -43t-43 -17t-43 17t-17 43zM313 667q0 27 17 43.5t43 16.5t43 -16.5t17 -43.5q0 -26 -17 -43t-43 -17t-43 17t-17 43z" />
    <glyph glyph-name="igrave" unicode="&#xec;" horiz-adv-x="298" 
d="M-20 686l74 74l135 -162l-51 -24zM33 464v52l168 16l11 -11v-457l61 -8v-56h-240v53l61 19v367z" />
    <glyph glyph-name="iacute" unicode="&#xed;" horiz-adv-x="298" 
d="M83 598l134 162l74 -74l-157 -112zM33 464v52l168 16l11 -11v-457l61 -8v-56h-240v53l61 19v367z" />
    <glyph glyph-name="icircumflex" unicode="&#xee;" horiz-adv-x="298" 
d="M33 464v52l168 16l11 -11v-457l61 -8v-56h-240v53l61 19v367zM-5 598l141 154h15l140 -154l-51 -24l-97 79l-97 -79z" />
    <glyph glyph-name="idieresis" unicode="&#xef;" horiz-adv-x="298" 
d="M-15 667q0 27 17 43.5t43 16.5t43 -16.5t17 -43.5q0 -26 -17 -43t-43 -17t-43 17t-17 43zM182 667q0 27 17 43.5t43 16.5t43 -16.5t17 -43.5q0 -26 -17 -43t-43 -17t-43 17t-17 43zM33 464v52l168 16l11 -11v-457l61 -8v-56h-240v53l61 19v367z" />
    <glyph glyph-name="eth" unicode="&#xf0;" horiz-adv-x="545" 
d="M393 704l-73 -39q184 -142 184 -388q0 -143 -61 -214.5t-168 -71.5q-110 0 -174.5 72.5t-64.5 200.5q0 126 61.5 197.5t165.5 71.5q23 0 57 -6q-29 53 -74 98l-105 -57l-31 54l85 45q-21 16 -42.5 27.5t-32.5 15.5l-11 4l24 44q58 -14 129 -55l101 54zM385 252
q0 92 -23 174q-40 26 -91 26q-20 0 -39.5 -4t-28.5 -8l-9 -4q-4 -5 -9 -16.5t-14 -55.5t-9 -99q0 -101 27.5 -147.5t87.5 -46.5q19 0 38 4.5t28 8.5l9 4q33 50 33 164z" />
    <glyph glyph-name="ntilde" unicode="&#xf1;" horiz-adv-x="613" 
d="M37 464v52l164 16l11 -11l-6 -49l4 -4q76 65 177 65q77 0 110.5 -41.5t33.5 -124.5v-303l60 -8v-56h-240v53l61 19v286q0 50 -17 71t-60 21q-67 0 -119 -55v-331l60 -8v-56h-239v53l60 19v367zM160 609l-29 31q2 3 6.5 9t18 20.5t27.5 26t35 20.5t41 9q25 0 64.5 -19.5
t62.5 -19.5l58 41l27 -31q-6 -9 -17 -23t-44 -37.5t-65 -23.5q-24 0 -64.5 19.5t-62.5 19.5z" />
    <glyph glyph-name="ograve" unicode="&#xf2;" horiz-adv-x="556" 
d="M36 262q0 127 66 199t176 72t176 -72t66 -199t-65.5 -199t-175.5 -72t-176.5 72.5t-66.5 198.5zM162 264q0 -99 29.5 -146t91.5 -47q20 0 39.5 4.5t28.5 8.5l9 4q4 5 10 16.5t15.5 55.5t9.5 99q0 100 -29.5 146.5t-90.5 46.5q-20 0 -40 -4t-29 -8l-10 -4
q-4 -5 -9.5 -16.5t-15 -55.5t-9.5 -100zM108 686l74 74l135 -162l-51 -24z" />
    <glyph glyph-name="oacute" unicode="&#xf3;" horiz-adv-x="556" 
d="M36 262q0 127 66 199t176 72t176 -72t66 -199t-65.5 -199t-175.5 -72t-176.5 72.5t-66.5 198.5zM162 264q0 -99 29.5 -146t91.5 -47q20 0 39.5 4.5t28.5 8.5l9 4q4 5 10 16.5t15.5 55.5t9.5 99q0 100 -29.5 146.5t-90.5 46.5q-20 0 -40 -4t-29 -8l-10 -4
q-4 -5 -9.5 -16.5t-15 -55.5t-9.5 -100zM226 598l134 162l74 -74l-157 -112z" />
    <glyph glyph-name="ocircumflex" unicode="&#xf4;" horiz-adv-x="556" 
d="M36 262q0 127 66 199t176 72t176 -72t66 -199t-65.5 -199t-175.5 -72t-176.5 72.5t-66.5 198.5zM162 264q0 -99 29.5 -146t91.5 -47q20 0 39.5 4.5t28.5 8.5l9 4q4 5 10 16.5t15.5 55.5t9.5 99q0 100 -29.5 146.5t-90.5 46.5q-20 0 -40 -4t-29 -8l-10 -4
q-4 -5 -9.5 -16.5t-15 -55.5t-9.5 -100zM130 598l141 154h14l141 -154l-51 -24l-97 79l-97 -79z" />
    <glyph glyph-name="otilde" unicode="&#xf5;" horiz-adv-x="556" 
d="M36 262q0 127 66 199t176 72t176 -72t66 -199t-65.5 -199t-175.5 -72t-176.5 72.5t-66.5 198.5zM162 264q0 -99 29.5 -146t91.5 -47q20 0 39.5 4.5t28.5 8.5l9 4q4 5 10 16.5t15.5 55.5t9.5 99q0 100 -29.5 146.5t-90.5 46.5q-20 0 -40 -4t-29 -8l-10 -4
q-4 -5 -9.5 -16.5t-15 -55.5t-9.5 -100zM136 609l-28 31q2 3 6.5 9t17.5 20.5t27.5 26t35.5 20.5t41 9q25 0 64.5 -19.5t62.5 -19.5l57 41l28 -31q-6 -9 -17 -23t-44.5 -37.5t-65.5 -23.5q-24 0 -64 19.5t-62 19.5z" />
    <glyph glyph-name="odieresis" unicode="&#xf6;" horiz-adv-x="556" 
d="M36 262q0 127 66 199t176 72t176 -72t66 -199t-65.5 -199t-175.5 -72t-176.5 72.5t-66.5 198.5zM162 264q0 -99 29.5 -146t91.5 -47q20 0 39.5 4.5t28.5 8.5l9 4q4 5 10 16.5t15.5 55.5t9.5 99q0 100 -29.5 146.5t-90.5 46.5q-20 0 -40 -4t-29 -8l-10 -4
q-4 -5 -9.5 -16.5t-15 -55.5t-9.5 -100zM119 667q0 27 17 43.5t43 16.5t43 -16.5t17 -43.5q0 -26 -17 -43t-43 -17t-43 17t-17 43zM316 667q0 27 17 43.5t43 16.5t43 -16.5t17 -43.5q0 -26 -17 -43t-43 -17t-43 17t-17 43z" />
    <glyph glyph-name="divide" unicode="&#xf7;" horiz-adv-x="503" 
d="M58 303v74h387v-74h-387zM183 502q0 30 18.5 48.5t47.5 18.5q30 0 48.5 -18.5t18.5 -48.5t-18.5 -48t-48.5 -18q-29 0 -47.5 18t-18.5 48zM249 108q-29 0 -47.5 18t-18.5 49q0 30 18.5 48t47.5 18q30 0 48.5 -18t18.5 -48t-18.5 -48.5t-48.5 -18.5z" />
    <glyph glyph-name="oslash" unicode="&#xf8;" horiz-adv-x="556" 
d="M46 -1l51 70q-61 72 -61 193q0 127 66 199t176 72q75 0 133 -36l37 50l62 -24l-51 -69q61 -72 61 -192q0 -127 -65.5 -199t-175.5 -72q-79 0 -134 36l-36 -50zM158 264q0 -60 10 -99l189 258q-30 33 -82 33q-21 0 -42 -5t-31 -9l-10 -5q-4 -5 -9.5 -16t-15 -56t-9.5 -101
zM398 259q0 59 -10 98l-189 -256q30 -33 84 -33q21 0 41.5 4.5t29.5 9.5l10 4q4 5 9.5 16.5t15 56t9.5 100.5z" />
    <glyph glyph-name="ugrave" unicode="&#xf9;" horiz-adv-x="597" 
d="M332 464v52l168 16l11 -11v-436l61 -25v-53l-164 -16l-12 11l6 50l-4 3q-75 -64 -174 -64q-77 0 -109.5 41.5t-32.5 124.5v282l-60 25v52l167 16l12 -11v-355q0 -49 16 -70.5t58 -21.5q63 0 117 54v311zM113 686l74 74l135 -162l-51 -24z" />
    <glyph glyph-name="uacute" unicode="&#xfa;" horiz-adv-x="597" 
d="M332 464v52l168 16l11 -11v-436l61 -25v-53l-164 -16l-12 11l6 50l-4 3q-75 -64 -174 -64q-77 0 -109.5 41.5t-32.5 124.5v282l-60 25v52l167 16l12 -11v-355q0 -49 16 -70.5t58 -21.5q63 0 117 54v311zM231 598l134 162l74 -74l-157 -112z" />
    <glyph glyph-name="ucircumflex" unicode="&#xfb;" horiz-adv-x="597" 
d="M332 464v52l168 16l11 -11v-436l61 -25v-53l-164 -16l-12 11l6 50l-4 3q-75 -64 -174 -64q-77 0 -109.5 41.5t-32.5 124.5v282l-60 25v52l167 16l12 -11v-355q0 -49 16 -70.5t58 -21.5q63 0 117 54v311zM140 598l140 154h15l140 -154l-51 -24l-96 79l-97 -79z" />
    <glyph glyph-name="udieresis" unicode="&#xfc;" horiz-adv-x="597" 
d="M332 464v52l168 16l11 -11v-436l61 -25v-53l-164 -16l-12 11l6 50l-4 3q-75 -64 -174 -64q-77 0 -109.5 41.5t-32.5 124.5v282l-60 25v52l167 16l12 -11v-355q0 -49 16 -70.5t58 -21.5q63 0 117 54v311zM321 667q0 27 16.5 43.5t42.5 16.5q27 0 44 -16.5t17 -43.5
q0 -26 -17 -43t-44 -17q-26 0 -42.5 17t-16.5 43zM124 667q0 27 16.5 43.5t42.5 16.5q27 0 44 -16.5t17 -43.5q0 -26 -17 -43t-44 -17q-26 0 -42.5 17t-16.5 43z" />
    <glyph glyph-name="yacute" unicode="&#xfd;" horiz-adv-x="590" 
d="M257 -20l-194 479l-58 8v57h256v-53l-66 -17l102 -265q9 -22 19 -70h5q11 46 20 70l93 270l-62 8v57h210v-53l-55 -19l-169 -452q-53 -143 -96 -191t-123 -48q-24 0 -48 3.5t-35 6.5l-12 3l18 100q43 -21 135 -21q38 47 60 127zM251 598l135 162l74 -74l-158 -112z" />
    <glyph glyph-name="thorn" unicode="&#xfe;" horiz-adv-x="569" 
d="M17 690v53l164 16l11 -11v-224q0 -25 -6 -52l4 -4q68 65 152 65t137 -70t53 -188q0 -134 -66 -209t-175 -75q-50 0 -95 17v-172l90 -4v-62h-269v53l60 19v823zM406 248q0 105 -26.5 152.5t-81.5 47.5q-62 0 -102 -52v-298q30 -27 94 -27q24 0 45 4.5t29 8.5l9 5
q33 51 33 159z" />
    <glyph glyph-name="ydieresis" unicode="&#xff;" horiz-adv-x="590" 
d="M257 -20l-194 479l-58 8v57h256v-53l-66 -17l102 -265q9 -22 19 -70h5q11 46 20 70l93 270l-62 8v57h210v-53l-55 -19l-169 -452q-53 -143 -96 -191t-123 -48q-24 0 -48 3.5t-35 6.5l-12 3l18 100q43 -21 135 -21q38 47 60 127zM141 667q0 27 16.5 43.5t42.5 16.5
q27 0 43.5 -16.5t16.5 -43.5q0 -26 -16.5 -43t-43.5 -17q-26 0 -42.5 17t-16.5 43zM338 667q0 27 16.5 43.5t42.5 16.5q27 0 44 -16.5t17 -43.5q0 -26 -17 -43t-44 -17q-26 0 -42.5 17t-16.5 43z" />
    <glyph glyph-name="Amacron" unicode="&#x100;" horiz-adv-x="713" 
d="M294 700h118l14 -13l215 -619l69 -8v-60h-283v55l70 20l-43 128h-242l-45 -135l73 -8v-60h-237v56l66 19zM316 511l-77 -227h190l-74 227q-10 31 -18 70h-4q-10 -48 -17 -70zM213 771v75h286v-75h-286z" />
    <glyph glyph-name="amacron" unicode="&#x101;" horiz-adv-x="541" 
d="M43 125q0 66 41 108.5t123 51.5l134 14v56q0 51 -20.5 74.5t-70.5 23.5q-21 0 -38.5 -3.5t-25.5 -7.5l-7 -4l-15 -80h-87v136q6 4 19 10.5t58 17.5t97 11q112 0 160 -47.5t48 -144.5v-233q0 -33 33 -33h34l7 -54q-31 -27 -91 -27q-76 0 -94 56q-70 -59 -164 -59
q-68 0 -104.5 35.5t-36.5 98.5zM154 140q0 -66 72 -66q60 0 115 41v121l-167 -32q-20 -27 -20 -64zM118 623v74h287v-74h-287z" />
    <glyph glyph-name="Abreve" unicode="&#x102;" horiz-adv-x="713" 
d="M294 700h118l14 -13l215 -619l69 -8v-60h-283v55l70 20l-43 128h-242l-45 -135l73 -8v-60h-237v56l66 19zM316 511l-77 -227h190l-74 227q-10 31 -18 70h-4q-10 -48 -17 -70zM458 879l40 -15q-1 -5 -3.5 -12t-13 -26.5t-24.5 -34t-40.5 -26.5t-59.5 -12q-32 0 -58.5 11
t-41.5 26.5t-25 31.5t-14 27l-3 11l59 20q3 -7 8.5 -16.5t29.5 -26t56 -16.5q31 0 53.5 14.5t29.5 28.5z" />
    <glyph glyph-name="abreve" unicode="&#x103;" horiz-adv-x="541" 
d="M43 125q0 66 41 108.5t123 51.5l134 14v56q0 51 -20.5 74.5t-70.5 23.5q-21 0 -38.5 -3.5t-25.5 -7.5l-7 -4l-15 -80h-87v136q6 4 19 10.5t58 17.5t97 11q112 0 160 -47.5t48 -144.5v-233q0 -33 33 -33h34l7 -54q-31 -27 -91 -27q-76 0 -94 56q-70 -59 -164 -59
q-68 0 -104.5 35.5t-36.5 98.5zM154 140q0 -66 72 -66q60 0 115 41v121l-167 -32q-20 -27 -20 -64zM361 727l39 -15q-1 -5 -3.5 -12t-13 -26.5t-24.5 -34t-40.5 -26.5t-59.5 -12q-32 0 -58.5 11t-41 26.5t-24.5 31.5t-13 27l-4 11l59 20q3 -7 8.5 -16.5t29.5 -26t56 -16.5
q19 0 35.5 6t26 14.5t16.5 17t9 14.5z" />
    <glyph glyph-name="Aogonek" unicode="&#x104;" horiz-adv-x="713" 
d="M617 -108q0 -46 42 -46q11 0 22.5 2t18.5 4l6 3l7 -31q-25 -27 -82 -27q-44 0 -68 21.5t-24 59.5q0 34 18.5 64.5t36.5 43.5l18 14h-185v55l70 20l-43 128h-242l-45 -135l73 -8v-60h-237v56l66 19l225 625h118l14 -13l215 -619l69 -8v-60h-46q-5 -5 -13 -15t-21 -38
t-13 -55zM316 511l-77 -227h190l-74 227q-10 31 -18 70h-4q-10 -48 -17 -70z" />
    <glyph glyph-name="aogonek" unicode="&#x105;" horiz-adv-x="541" 
d="M438 -105q0 -46 42 -46q11 0 22.5 2.5t17.5 4.5l7 2l7 -31q-25 -27 -82 -27q-45 0 -68.5 21t-23.5 60q0 64 62 114q-58 7 -74 55q-70 -59 -164 -59q-68 0 -104.5 35.5t-36.5 98.5q0 66 41 108.5t123 51.5l134 14v56q0 51 -20.5 74.5t-70.5 23.5q-21 0 -38.5 -3.5
t-25.5 -7.5l-7 -4l-15 -80h-87v136q6 4 19 10.5t58 17.5t97 11q112 0 160 -47.5t48 -144.5v-233q0 -33 33 -33h34l7 -54q-19 -16 -53 -23q-42 -46 -42 -103zM154 140q0 -66 72 -66q60 0 115 41v121l-167 -32q-20 -27 -20 -64z" />
    <glyph glyph-name="Cacute" unicode="&#x106;" horiz-adv-x="585" 
d="M466 494l-30 109q-39 22 -103 22q-32 0 -59 -6.5t-38 -13.5l-12 -7q-2 -2 -5.5 -7.5t-13 -26t-16.5 -46t-12.5 -71t-5.5 -97.5q0 -141 41 -208.5t127 -67.5q24 0 49 5t38 11l12 5l30 114h80l-14 -177q-83 -42 -189 -42q-143 0 -224.5 95t-81.5 266q0 170 81.5 264.5
t226.5 94.5q48 0 94.5 -10.5t68.5 -21.5l22 -10l14 -174h-80zM265 763l135 162l74 -74l-158 -111z" />
    <glyph glyph-name="cacute" unicode="&#x107;" horiz-adv-x="496" 
d="M365 358l-15 80q-23 14 -71 14q-24 0 -45.5 -5t-30.5 -9l-9 -5q-33 -49 -33 -155q0 -115 37 -159.5t103 -44.5q34 0 68 8t51 16l17 7l23 -62q-8 -6 -22.5 -14.5t-60.5 -23t-93 -14.5q-111 0 -179.5 73t-68.5 198q0 121 66 196t187 75q43 0 83.5 -9.5t59.5 -19.5l20 -9
v-137h-87zM221 598l134 162l74 -74l-157 -112z" />
    <glyph glyph-name="Ccircumflex" unicode="&#x108;" horiz-adv-x="585" 
d="M466 494l-30 109q-39 22 -103 22q-32 0 -59 -6.5t-38 -13.5l-12 -7q-2 -2 -5.5 -7.5t-13 -26t-16.5 -46t-12.5 -71t-5.5 -97.5q0 -141 41 -208.5t127 -67.5q24 0 49 5t38 11l12 5l30 114h80l-14 -177q-83 -42 -189 -42q-143 0 -224.5 95t-81.5 266q0 170 81.5 264.5
t226.5 94.5q48 0 94.5 -10.5t68.5 -21.5l22 -10l14 -174h-80zM189 763l141 154h15l140 -154l-51 -23l-97 78l-96 -78z" />
    <glyph glyph-name="ccircumflex" unicode="&#x109;" horiz-adv-x="496" 
d="M365 358l-15 80q-23 14 -71 14q-24 0 -45.5 -5t-30.5 -9l-9 -5q-33 -49 -33 -155q0 -115 37 -159.5t103 -44.5q34 0 68 8t51 16l17 7l23 -62q-8 -6 -22.5 -14.5t-60.5 -23t-93 -14.5q-111 0 -179.5 73t-68.5 198q0 121 66 196t187 75q43 0 83.5 -9.5t59.5 -19.5l20 -9
v-137h-87zM133 598l141 154h15l140 -154l-51 -24l-97 79l-96 -79z" />
    <glyph glyph-name="Cdotaccent" unicode="&#x10a;" horiz-adv-x="585" 
d="M466 494l-30 109q-39 22 -103 22q-32 0 -59 -6.5t-38 -13.5l-12 -7q-2 -2 -5.5 -7.5t-13 -26t-16.5 -46t-12.5 -71t-5.5 -97.5q0 -141 41 -208.5t127 -67.5q24 0 49 5t38 11l12 5l30 114h80l-14 -177q-83 -42 -189 -42q-143 0 -224.5 95t-81.5 266q0 170 81.5 264.5
t226.5 94.5q48 0 94.5 -10.5t68.5 -21.5l22 -10l14 -174h-80zM252 830q0 34 21.5 54.5t56.5 20.5t56.5 -20.5t21.5 -54.5t-21.5 -55t-56.5 -21t-56.5 21t-21.5 55z" />
    <glyph glyph-name="cdotaccent" unicode="&#x10b;" horiz-adv-x="496" 
d="M365 358l-15 80q-23 14 -71 14q-24 0 -45.5 -5t-30.5 -9l-9 -5q-33 -49 -33 -155q0 -115 37 -159.5t103 -44.5q34 0 68 8t51 16l17 7l23 -62q-8 -6 -22.5 -14.5t-60.5 -23t-93 -14.5q-111 0 -179.5 73t-68.5 198q0 121 66 196t187 75q43 0 83.5 -9.5t59.5 -19.5l20 -9
v-137h-87zM195 674q0 34 22 55t56 21q35 0 56.5 -21t21.5 -55t-21.5 -55t-56.5 -21q-34 0 -56 21t-22 55z" />
    <glyph glyph-name="Ccaron" unicode="&#x10c;" horiz-adv-x="585" 
d="M466 494l-30 109q-39 22 -103 22q-32 0 -59 -6.5t-38 -13.5l-12 -7q-2 -2 -5.5 -7.5t-13 -26t-16.5 -46t-12.5 -71t-5.5 -97.5q0 -141 41 -208.5t127 -67.5q24 0 49 5t38 11l12 5l30 114h80l-14 -177q-83 -42 -189 -42q-143 0 -224.5 95t-81.5 266q0 170 81.5 264.5
t226.5 94.5q48 0 94.5 -10.5t68.5 -21.5l22 -10l14 -174h-80zM326 740l-134 147l41 34l100 -82l100 82l41 -34l-134 -147h-14z" />
    <glyph glyph-name="ccaron" unicode="&#x10d;" horiz-adv-x="496" 
d="M365 358l-15 80q-23 14 -71 14q-24 0 -45.5 -5t-30.5 -9l-9 -5q-33 -49 -33 -155q0 -115 37 -159.5t103 -44.5q34 0 68 8t51 16l17 7l23 -62q-8 -6 -22.5 -14.5t-60.5 -23t-93 -14.5q-111 0 -179.5 73t-68.5 198q0 121 66 196t187 75q43 0 83.5 -9.5t59.5 -19.5l20 -9
v-137h-87zM271 581l-133 147l40 34l100 -82l100 82l41 -34l-133 -147h-15z" />
    <glyph glyph-name="Dcaron" unicode="&#x10e;" horiz-adv-x="661" 
d="M333 0h-295v56l69 19v557l-69 8v60h294q131 0 210.5 -92.5t79.5 -257.5q0 -164 -79 -257t-210 -93zM322 619h-93v-538h99q28 0 53.5 5.5t36.5 10.5l11 5q2 2 6.5 7.5t14.5 26.5t18 47t14.5 72.5t6.5 101.5q0 136 -41.5 199t-125.5 63zM301 740l-133 147l40 34l100 -82
l100 82l41 -34l-133 -147h-15z" />
    <glyph glyph-name="dcaron" unicode="&#x10f;" horiz-adv-x="706" 
d="M551 60v-53l-164 -16l-11 11l5 50l-4 4q-65 -65 -151 -65q-84 0 -137 70t-53 188q0 134 65.5 209t174.5 75q53 0 96 -18v150l-61 25v53l169 16l11 -11v-663zM161 265q0 -189 109 -189q62 0 102 52v297q-34 27 -94 27q-24 0 -45 -4t-30 -8l-9 -5q-4 -5 -9.5 -16
t-14.5 -54.5t-9 -99.5zM556 496l-21 27q8 6 19.5 17t31 40t18.5 54q-24 3 -38 20t-14 42q0 29 17.5 47t46.5 18t47.5 -20t18.5 -62q0 -34 -13 -65.5t-31.5 -52t-37 -36t-31.5 -22.5z" />
    <glyph glyph-name="Dcroat" unicode="&#x110;" horiz-adv-x="662" 
d="M39 316v66l70 16v234l-70 8v60h295q131 0 210 -92.5t79 -257.5t-78.5 -257.5t-209.5 -92.5h-296v56l70 19v241h-70zM323 619h-92v-222h130v-81h-130v-235h99q28 0 53.5 5.5t36.5 10.5l11 5q2 2 6.5 7.5t14.5 26.5t18 47t14.5 72.5t6.5 101.5q0 137 -41.5 199.5
t-126.5 62.5z" />
    <glyph glyph-name="dcroat" unicode="&#x111;" horiz-adv-x="574" 
d="M238 576v61h134v39l-61 25v42l169 16l11 -11v-111h60v-61h-60v-491l60 -25v-53l-164 -16l-11 11l5 50l-4 4q-65 -65 -151 -65q-84 0 -137 70t-53 188q0 134 65.5 209t174.5 75q53 0 96 -18v61h-134zM161 265q0 -189 109 -189q62 0 102 52v297q-34 27 -94 27q-24 0 -45 -4
t-30 -8l-9 -5q-4 -5 -9.5 -16t-14.5 -54.5t-9 -99.5z" />
    <glyph glyph-name="Emacron" unicode="&#x112;" horiz-adv-x="594" 
d="M547 0h-509v56l69 19v557l-69 8v60h496l13 -184h-80l-28 103h-210v-223h102l15 79h67v-240h-67l-15 79h-102v-233h222l29 106h80zM162 771v75h287v-75h-287z" />
    <glyph glyph-name="emacron" unicode="&#x113;" horiz-adv-x="517" 
d="M444 105l23 -62q-8 -6 -22.5 -14.5t-61 -23t-94.5 -14.5q-112 0 -182.5 72.5t-70.5 196.5q0 122 68 197.5t177 75.5q102 0 156.5 -69t42.5 -197l-34 -24h-285q1 -86 40.5 -127.5t107.5 -41.5q32 0 65.5 8t51.5 16zM196 434q-35 -47 -35 -130l215 15q4 133 -101 133
q-21 0 -40.5 -4.5t-28.5 -9.5zM133 623v74h287v-74h-287z" />
    <glyph glyph-name="Ebreve" unicode="&#x114;" horiz-adv-x="594" 
d="M547 0h-509v56l69 19v557l-69 8v60h496l13 -184h-80l-28 103h-210v-223h102l15 79h67v-240h-67l-15 79h-102v-233h222l29 106h80zM409 879l39 -15q-1 -5 -3.5 -12t-12.5 -26.5t-24.5 -34t-41 -26.5t-58.5 -12t-59 11t-41.5 26.5t-24.5 31.5t-13 27l-4 11l59 20
q3 -7 8.5 -16.5t29.5 -26t56 -16.5q31 0 53.5 14.5t29.5 28.5z" />
    <glyph glyph-name="ebreve" unicode="&#x115;" horiz-adv-x="517" 
d="M444 105l23 -62q-8 -6 -22.5 -14.5t-61 -23t-94.5 -14.5q-112 0 -182.5 72.5t-70.5 196.5q0 122 68 197.5t177 75.5q102 0 156.5 -69t42.5 -197l-34 -24h-285q1 -86 40.5 -127.5t107.5 -41.5q32 0 65.5 8t51.5 16zM196 434q-35 -47 -35 -130l215 15q4 133 -101 133
q-21 0 -40.5 -4.5t-28.5 -9.5zM374 727l39 -15q-1 -5 -3.5 -12t-13 -26.5t-24.5 -34t-40.5 -26.5t-59.5 -12q-32 0 -58.5 11t-41 26.5t-24.5 31.5t-14 27l-3 11l59 20q3 -7 8.5 -16.5t29.5 -26t56 -16.5q19 0 35.5 6t26 14.5t16.5 17t10 14.5z" />
    <glyph glyph-name="Edotaccent" unicode="&#x116;" horiz-adv-x="594" 
d="M547 0h-509v56l69 19v557l-69 8v60h496l13 -184h-80l-28 103h-210v-223h102l15 79h67v-240h-67l-15 79h-102v-233h222l29 106h80zM229 829q0 34 21.5 55t56.5 21q34 0 56 -21t22 -55t-22 -55t-56 -21q-35 0 -56.5 21t-21.5 55z" />
    <glyph glyph-name="edotaccent" unicode="&#x117;" horiz-adv-x="517" 
d="M444 105l23 -62q-8 -6 -22.5 -14.5t-61 -23t-94.5 -14.5q-112 0 -182.5 72.5t-70.5 196.5q0 122 68 197.5t177 75.5q102 0 156.5 -69t42.5 -197l-34 -24h-285q1 -86 40.5 -127.5t107.5 -41.5q32 0 65.5 8t51.5 16zM196 434q-35 -47 -35 -130l215 15q4 133 -101 133
q-21 0 -40.5 -4.5t-28.5 -9.5zM193 674q0 34 21.5 55t55.5 21q35 0 56.5 -21t21.5 -55t-21.5 -55t-56.5 -21q-34 0 -55.5 21t-21.5 55z" />
    <glyph glyph-name="Eogonek" unicode="&#x118;" horiz-adv-x="594" 
d="M464 -108q0 -46 42 -46q11 0 22.5 2t17.5 4l7 3l7 -31q-26 -27 -83 -27q-44 0 -68 21.5t-24 59.5q0 34 18.5 64.5t36.5 43.5l19 14h-421v56l69 19v557l-69 8v60h496l13 -184h-80l-28 103h-210v-223h102l15 79h67v-240h-67l-15 79h-102v-233h222l29 106h80l-13 -187h-36
q-5 -5 -13 -15t-21 -38t-13 -55z" />
    <glyph glyph-name="eogonek" unicode="&#x119;" horiz-adv-x="517" 
d="M371 -89q0 -46 42 -46q11 0 22.5 2.5t18.5 4.5l6 2l7 -31q-26 -27 -82 -27q-45 0 -69 21.5t-24 59.5q0 53 44 97q-22 -3 -47 -3q-112 0 -182.5 72.5t-70.5 196.5q0 122 68 197.5t177 75.5q102 0 156.5 -69t42.5 -197l-34 -24h-285q1 -86 40.5 -127.5t107.5 -41.5
q32 0 65.5 8t51.5 16l18 7l23 -62q-21 -15 -53 -28q-43 -48 -43 -104zM196 434q-35 -47 -35 -130l215 15q4 133 -101 133q-21 0 -40.5 -4.5t-28.5 -9.5z" />
    <glyph glyph-name="Ecaron" unicode="&#x11a;" horiz-adv-x="594" 
d="M547 0h-509v56l69 19v557l-69 8v60h496l13 -184h-80l-28 103h-210v-223h102l15 79h67v-240h-67l-15 79h-102v-233h222l29 106h80zM298 740l-133 147l40 34l100 -82l100 82l41 -34l-133 -147h-15z" />
    <glyph glyph-name="ecaron" unicode="&#x11b;" horiz-adv-x="517" 
d="M444 105l23 -62q-8 -6 -22.5 -14.5t-61 -23t-94.5 -14.5q-112 0 -182.5 72.5t-70.5 196.5q0 122 68 197.5t177 75.5q102 0 156.5 -69t42.5 -197l-34 -24h-285q1 -86 40.5 -127.5t107.5 -41.5q32 0 65.5 8t51.5 16zM196 434q-35 -47 -35 -130l215 15q4 133 -101 133
q-21 0 -40.5 -4.5t-28.5 -9.5zM264 581l-133 147l41 34l100 -82l100 82l41 -34l-134 -147h-15z" />
    <glyph glyph-name="Gcircumflex" unicode="&#x11c;" horiz-adv-x="623" 
d="M544 293v-258q-9 -5 -25.5 -12.5t-67 -20t-100.5 -12.5q-148 0 -230 94.5t-82 265.5t81.5 265.5t226.5 94.5q48 0 94.5 -10.5t68.5 -21.5l22 -10l14 -174h-80l-30 109q-39 22 -103 22q-32 0 -59 -6.5t-38 -13.5l-12 -7q-2 -2 -5.5 -7.5t-13 -26t-16.5 -46t-12.5 -71
t-5.5 -97.5q0 -141 41 -208.5t127 -67.5q37 0 97 20v206l-83 8v59h257v-56zM189 763l140 154h15l140 -154l-51 -23l-97 78l-96 -78z" />
    <glyph glyph-name="gcircumflex" unicode="&#x11d;" horiz-adv-x="545" 
d="M526 573l-10 -90q-13 4 -36 4q-33 0 -68 -13q44 -47 44 -118q0 -83 -56 -130t-149 -47q-31 0 -66 7q-25 -19 -25 -50q0 -48 62 -48h123q83 0 128.5 -34t45.5 -103q0 -88 -76 -139t-217 -51q-212 0 -212 119q0 49 29.5 82t65.5 51q-47 28 -47 86q0 68 64 110
q-81 46 -81 148q0 82 56 129t149 47q66 0 114 -24q58 68 129 68zM213 -10q-21 0 -41 3q-44 -33 -44 -85q0 -34 27 -50t91 -16q35 0 70 4t52 8l18 5q22 28 22 69q0 62 -80 62h-115zM152 363q0 -102 102 -102q17 0 35 2.5t27 4.5l9 2q24 27 24 78q0 103 -104 103
q-16 0 -33.5 -2.5t-27.5 -4.5l-9 -3q-23 -25 -23 -78zM101 598l141 154h15l140 -154l-51 -24l-97 79l-97 -79z" />
    <glyph glyph-name="Gbreve" unicode="&#x11e;" horiz-adv-x="623" 
d="M544 293v-258q-9 -5 -25.5 -12.5t-67 -20t-100.5 -12.5q-148 0 -230 94.5t-82 265.5t81.5 265.5t226.5 94.5q48 0 94.5 -10.5t68.5 -21.5l22 -10l14 -174h-80l-30 109q-39 22 -103 22q-32 0 -59 -6.5t-38 -13.5l-12 -7q-2 -2 -5.5 -7.5t-13 -26t-16.5 -46t-12.5 -71
t-5.5 -97.5q0 -141 41 -208.5t127 -67.5q37 0 97 20v206l-83 8v59h257v-56zM430 879l39 -15q-1 -5 -3.5 -12t-13 -26.5t-24.5 -34t-40.5 -26.5t-59.5 -12q-32 0 -58.5 11t-41 26.5t-24.5 31.5t-14 27l-3 11l59 20q3 -7 8.5 -16.5t29.5 -26t56 -16.5q19 0 35.5 6t26 14.5
t16.5 17t10 14.5z" />
    <glyph glyph-name="gbreve" unicode="&#x11f;" horiz-adv-x="545" 
d="M526 573l-10 -90q-13 4 -36 4q-33 0 -68 -13q44 -47 44 -118q0 -83 -56 -130t-149 -47q-31 0 -66 7q-25 -19 -25 -50q0 -48 62 -48h123q83 0 128.5 -34t45.5 -103q0 -88 -76 -139t-217 -51q-212 0 -212 119q0 49 29.5 82t65.5 51q-47 28 -47 86q0 68 64 110
q-81 46 -81 148q0 82 56 129t149 47q66 0 114 -24q58 68 129 68zM213 -10q-21 0 -41 3q-44 -33 -44 -85q0 -34 27 -50t91 -16q35 0 70 4t52 8l18 5q22 28 22 69q0 62 -80 62h-115zM152 363q0 -102 102 -102q17 0 35 2.5t27 4.5l9 2q24 27 24 78q0 103 -104 103
q-16 0 -33.5 -2.5t-27.5 -4.5l-9 -3q-23 -25 -23 -78zM352 727l39 -15q-1 -5 -3.5 -12t-13 -26.5t-24.5 -34t-40.5 -26.5t-59.5 -12q-32 0 -58.5 11t-41 26.5t-24.5 31.5t-14 27l-3 11l59 20q3 -7 8.5 -16.5t29.5 -26t56 -16.5q31 0 53.5 14.5t29.5 28.5z" />
    <glyph glyph-name="Gdotaccent" unicode="&#x120;" horiz-adv-x="623" 
d="M544 293v-258q-9 -5 -25.5 -12.5t-67 -20t-100.5 -12.5q-148 0 -230 94.5t-82 265.5t81.5 265.5t226.5 94.5q48 0 94.5 -10.5t68.5 -21.5l22 -10l14 -174h-80l-30 109q-39 22 -103 22q-32 0 -59 -6.5t-38 -13.5l-12 -7q-2 -2 -5.5 -7.5t-13 -26t-16.5 -46t-12.5 -71
t-5.5 -97.5q0 -141 41 -208.5t127 -67.5q37 0 97 20v206l-83 8v59h257v-56zM257 829q0 34 21.5 55t56.5 21q34 0 55.5 -21t21.5 -55t-21.5 -55t-55.5 -21q-35 0 -56.5 21t-21.5 55z" />
    <glyph glyph-name="gdotaccent" unicode="&#x121;" horiz-adv-x="545" 
d="M526 573l-10 -90q-13 4 -36 4q-33 0 -68 -13q44 -47 44 -118q0 -83 -56 -130t-149 -47q-31 0 -66 7q-25 -19 -25 -50q0 -48 62 -48h123q83 0 128.5 -34t45.5 -103q0 -88 -76 -139t-217 -51q-212 0 -212 119q0 49 29.5 82t65.5 51q-47 28 -47 86q0 68 64 110
q-81 46 -81 148q0 82 56 129t149 47q66 0 114 -24q58 68 129 68zM213 -10q-21 0 -41 3q-44 -33 -44 -85q0 -34 27 -50t91 -16q35 0 70 4t52 8l18 5q22 28 22 69q0 62 -80 62h-115zM152 363q0 -102 102 -102q17 0 35 2.5t27 4.5l9 2q24 27 24 78q0 103 -104 103
q-16 0 -33.5 -2.5t-27.5 -4.5l-9 -3q-23 -25 -23 -78zM170 674q0 34 22 55t56 21q35 0 56.5 -21t21.5 -55t-21.5 -55t-56.5 -21q-34 0 -56 21t-22 55z" />
    <glyph glyph-name="Gcommaaccent" unicode="&#x122;" horiz-adv-x="623" 
d="M544 293v-258q-9 -5 -25.5 -12.5t-67 -20t-100.5 -12.5q-148 0 -230 94.5t-82 265.5t81.5 265.5t226.5 94.5q48 0 94.5 -10.5t68.5 -21.5l22 -10l14 -174h-80l-30 109q-39 22 -103 22q-32 0 -59 -6.5t-38 -13.5l-12 -7q-2 -2 -5.5 -7.5t-13 -26t-16.5 -46t-12.5 -71
t-5.5 -97.5q0 -141 41 -208.5t127 -67.5q37 0 97 20v206l-83 8v59h257v-56zM297 -259l-16 22q7 5 16.5 14t25.5 33.5t16 45.5q-20 1 -31.5 15t-11.5 35q0 23 14.5 37.5t37.5 14.5q52 0 52 -66q0 -45 -26 -82.5t-52 -53.5z" />
    <glyph glyph-name="gcommaaccent" unicode="&#x123;" horiz-adv-x="545" 
d="M526 573l-10 -90q-13 4 -36 4q-33 0 -68 -13q44 -47 44 -118q0 -83 -56 -130t-149 -47q-31 0 -66 7q-25 -19 -25 -50q0 -48 62 -48h123q83 0 128.5 -34t45.5 -103q0 -88 -76 -139t-217 -51q-212 0 -212 119q0 49 29.5 82t65.5 51q-47 28 -47 86q0 68 64 110
q-81 46 -81 148q0 82 56 129t149 47q66 0 114 -24q58 68 129 68zM213 -10q-21 0 -41 3q-44 -33 -44 -85q0 -34 27 -50t91 -16q35 0 70 4t52 8l18 5q22 28 22 69q0 62 -80 62h-115zM152 363q0 -102 102 -102q17 0 35 2.5t27 4.5l9 2q24 27 24 78q0 103 -104 103
q-16 0 -33.5 -2.5t-27.5 -4.5l-9 -3q-23 -25 -23 -78zM303 793l16 -22q-7 -5 -16.5 -14t-25.5 -33t-15 -45q20 -2 31.5 -16t11.5 -35q0 -23 -15 -37.5t-38 -14.5t-37.5 16.5t-14.5 49.5q0 45 26 82.5t52 53.5z" />
    <glyph glyph-name="Hcircumflex" unicode="&#x124;" horiz-adv-x="729" 
d="M229 68l70 -8v-60h-261v56l69 19v557l-69 8v60h261v-56l-70 -19v-229h271v236l-70 8v60h261v-56l-69 -19v-557l69 -8v-60h-261v56l70 19v239h-271v-246zM217 763l140 154h15l140 -154l-51 -23l-96 78l-97 -78z" />
    <glyph glyph-name="hcircumflex" unicode="&#x125;" horiz-adv-x="606" 
d="M30 690v53l168 16l11 -11v-224l-5 -43l3 -2q72 54 171 54q79 0 112.5 -41.5t33.5 -124.5v-303l60 -8v-56h-240v53l61 19v286q0 50 -17 71t-62 21q-64 0 -117 -41v-345l61 -8v-56h-240v53l60 19v593zM-10 800l140 154h15l141 -154l-52 -23l-96 78l-97 -78z" />
    <glyph glyph-name="Hbar" unicode="&#x126;" horiz-adv-x="729" 
d="M38 483v74h69v75l-69 8v60h261v-56l-70 -19v-68h271v75l-70 8v60h261v-56l-69 -19v-68h69v-74h-69v-415l69 -8v-60h-261v56l70 19v239h-271v-246l70 -8v-60h-261v56l69 19v408h-69zM229 396h271v87h-271v-87z" />
    <glyph glyph-name="hbar" unicode="&#x127;" horiz-adv-x="606" 
d="M30 593v60l67 14l18 83h94v-83h145v-74h-145v-69l-5 -43l3 -2q72 54 171 54q79 0 112.5 -41.5t33.5 -124.5v-303l60 -8v-56h-240v53l61 19v286q0 50 -17 71t-62 21q-64 0 -117 -41v-345l61 -8v-56h-240v53l60 19v521h-60z" />
    <glyph glyph-name="Itilde" unicode="&#x128;" horiz-adv-x="337" 
d="M229 68l70 -8v-60h-261v56l69 19v557l-69 8v60h261v-56l-70 -19v-557zM27 774l-28 31q2 3 6.5 9t17.5 21t27.5 26t35.5 20.5t41 9.5q25 0 64.5 -19.5t62.5 -19.5l57 41l28 -31q-6 -9 -17 -23t-44 -37.5t-65 -23.5q-25 0 -65 19t-62 19z" />
    <glyph glyph-name="itilde" unicode="&#x129;" horiz-adv-x="298" 
d="M4 609l-29 31q2 3 6.5 9t18 20.5t27.5 26t35.5 20.5t41.5 9q24 0 63.5 -19.5t62.5 -19.5l58 41l27 -31q-6 -9 -17 -23t-44 -37.5t-65 -23.5q-24 0 -64 19.5t-63 19.5zM33 464v52l168 16l11 -11v-457l61 -8v-56h-240v53l61 19v367z" />
    <glyph glyph-name="Imacron" unicode="&#x12a;" horiz-adv-x="337" 
d="M229 68l70 -8v-60h-261v56l69 19v557l-69 8v60h261v-56l-70 -19v-557zM25 771v75h287v-75h-287z" />
    <glyph glyph-name="imacron" unicode="&#x12b;" horiz-adv-x="298" 
d="M0 623v74h286v-74h-286zM33 464v52l168 16l11 -11v-457l61 -8v-56h-240v53l61 19v367z" />
    <glyph glyph-name="Ibreve" unicode="&#x12c;" horiz-adv-x="337" 
d="M229 68l70 -8v-60h-261v56l69 19v557l-69 8v60h261v-56l-70 -19v-557zM271 879l39 -15q-1 -5 -3.5 -12t-13 -26.5t-24.5 -34t-40.5 -26.5t-59.5 -12q-32 0 -58.5 11t-41 26.5t-24.5 31.5t-13 27l-4 11l59 20q3 -7 8.5 -16.5t29.5 -26t56 -16.5q19 0 35.5 6t26 14.5
t16.5 17t9 14.5z" />
    <glyph glyph-name="ibreve" unicode="&#x12d;" horiz-adv-x="298" 
d="M239 727l39 -15q-1 -5 -3.5 -12t-13 -26.5t-24.5 -34t-40.5 -26.5t-59.5 -12q-32 0 -58.5 11t-41 26.5t-24.5 31.5t-13 27l-4 11l59 20q3 -7 8.5 -16.5t29.5 -26t56 -16.5q19 0 35.5 6t26 14.5t16.5 17t9 14.5zM33 464v52l168 16l11 -11v-457l61 -8v-56h-240v53l61 19
v367z" />
    <glyph glyph-name="Iogonek" unicode="&#x12e;" horiz-adv-x="337" 
d="M205 -108q0 -46 43 -46q11 0 22.5 2t17.5 4l7 3l7 -31q-26 -27 -83 -27q-44 0 -68 21.5t-24 59.5q0 34 18.5 64.5t36.5 43.5l19 14h-163v56l69 19v557l-69 8v60h261v-56l-70 -19v-557l70 -8v-60h-46q-5 -5 -13 -15t-21.5 -38t-13.5 -55z" />
    <glyph glyph-name="iogonek" unicode="&#x12f;" horiz-adv-x="298" 
d="M154 -108q0 -46 42 -46q11 0 22.5 2t17.5 4l7 3l7 -31q-25 -27 -82 -27q-45 0 -68.5 21t-23.5 60q0 21 7.5 41.5t18 34.5t21.5 25t19 16l7 5h-116v53l61 19v367l-61 25v52l168 16l11 -11v-457l61 -8v-56h-72q-5 -5 -13 -15t-21 -38t-13 -55zM67 682q0 34 21.5 55t55.5 21
q35 0 56.5 -21t21.5 -55t-21.5 -55t-56.5 -21q-34 0 -55.5 21t-21.5 55z" />
    <glyph glyph-name="Idotaccent" unicode="&#x130;" horiz-adv-x="337" 
d="M229 68l70 -8v-60h-261v56l69 19v557l-69 8v60h261v-56l-70 -19v-557zM91 829q0 34 21.5 55t55.5 21q35 0 56.5 -21t21.5 -55t-21.5 -55t-56.5 -21q-34 0 -55.5 21t-21.5 55z" />
    <glyph glyph-name="dotlessi" unicode="&#x131;" horiz-adv-x="298" 
d="M33 464v52l168 16l11 -11v-457l61 -8v-56h-240v53l61 19v367z" />
    <glyph glyph-name="IJ" unicode="&#x132;" horiz-adv-x="673" 
d="M566 625v-687q0 -92 -52 -145t-147 -53q-29 0 -57 5t-41 11l-13 5l13 81q32 -18 84 -18q16 0 33.5 2t26.5 4l9 3q22 37 22 121v678l-70 8v60h262v-56zM229 68l70 -8v-60h-261v56l69 19v557l-69 8v60h261v-56l-70 -19v-557z" />
    <glyph glyph-name="ij" unicode="&#x133;" horiz-adv-x="582" 
d="M33 464v52l168 16l11 -11v-457l61 -8v-56h-240v53l61 19v367zM67 682q0 34 21.5 55t55.5 21q35 0 56.5 -21t21.5 -55t-21.5 -55t-56.5 -21q-34 0 -55.5 21t-21.5 55zM361 682q0 34 21.5 55t56.5 21t56.5 -21t21.5 -55t-21.5 -55t-56.5 -21t-56.5 21t-21.5 55zM328 464v52
l168 16l11 -11v-521q0 -130 -46.5 -184.5t-143.5 -54.5q-23 0 -46 2.5t-35 4.5l-11 3l13 92q37 -22 83 -22q11 0 22 1.5t17 3.5l5 2q23 36 23 152v439z" />
    <glyph glyph-name="Jcircumflex" unicode="&#x134;" horiz-adv-x="446" 
d="M344 625v-437q0 -92 -52 -145t-147 -53q-29 0 -57 5t-41 11l-13 5l12 81q33 -18 85 -18q16 0 33.5 2t26.5 4l9 3q22 37 22 121v426l-83 5v65h275v-56zM129 763l141 154h15l140 -154l-51 -23l-97 78l-96 -78z" />
    <glyph glyph-name="jcircumflex" unicode="&#x135;" horiz-adv-x="284" 
d="M30 464v52l168 16l11 -11v-521q0 -130 -46.5 -184.5t-143.5 -54.5q-23 0 -46 2.5t-35 4.5l-11 3l13 92q37 -22 83 -22q11 0 22 1.5t17 3.5l5 2q23 36 23 152v439zM-6 598l140 154h15l140 -154l-51 -24l-97 79l-96 -79z" />
    <glyph glyph-name="Kcommaaccent" unicode="&#x136;" horiz-adv-x="665" 
d="M229 68l70 -8v-60h-261v56l69 19v557l-69 8v60h261v-56l-70 -19v-237l75 15l164 229l-67 8v60h234v-56l-68 -19l-176 -246l194 -311l68 -8v-60h-170l-196 321h-58v-253zM306 -259l-17 22q7 5 17 14t26 33.5t15 45.5q-20 1 -31.5 15t-11.5 35q0 23 14.5 37.5t37.5 14.5
q53 0 53 -66q0 -28 -10.5 -54t-25.5 -43t-30.5 -29.5t-26.5 -18.5z" />
    <glyph glyph-name="kcommaaccent" unicode="&#x137;" horiz-adv-x="565" 
d="M473 452l-120 -164l143 -224l57 -8v-56h-147l-152 239h-45v-175l61 -8v-56h-240v53l60 19v593l-60 25v53l168 16l11 -11v-442l61 14l105 139l-59 8v57h213v-53zM263 -259l-16 22q7 5 16.5 14t25.5 33.5t15 45.5q-20 1 -31.5 15t-11.5 35q0 22 14.5 37t37.5 15
q53 0 53 -66q0 -45 -26 -82.5t-52 -53.5z" />
    <glyph glyph-name="Lacute" unicode="&#x139;" horiz-adv-x="573" 
d="M537 0h-499v56l69 19v557l-69 8v60h261v-56l-70 -19v-544h213l29 110h79zM101 763l134 162l74 -74l-157 -111z" />
    <glyph glyph-name="lacute" unicode="&#x13a;" horiz-adv-x="293" 
d="M30 690v53l168 16l11 -11v-684l61 -8v-56h-240v60l60 19v586zM69 800l135 162l74 -74l-158 -111z" />
    <glyph glyph-name="Lcommaaccent" unicode="&#x13b;" horiz-adv-x="573" 
d="M537 0h-499v56l69 19v557l-69 8v60h261v-56l-70 -19v-544h213l29 110h79zM267 -259l-17 22q7 5 17 14t26 33.5t15 45.5q-20 1 -31.5 15t-11.5 35q0 23 14.5 37.5t37.5 14.5q53 0 53 -66q0 -45 -26 -82.5t-52 -53.5z" />
    <glyph glyph-name="lcommaaccent" unicode="&#x13c;" horiz-adv-x="293" 
d="M30 690v53l168 16l11 -11v-684l61 -8v-56h-240v60l60 19v586zM97 -259l-17 22q7 5 17 14t26 33.5t15 45.5q-20 1 -31.5 15t-11.5 35q0 23 14.5 37.5t37.5 14.5q53 0 53 -66q0 -45 -26 -82.5t-52 -53.5z" />
    <glyph glyph-name="Lcaron" unicode="&#x13d;" horiz-adv-x="573" 
d="M537 0h-499v56l69 19v557l-69 8v60h261v-56l-70 -19v-544h213l29 110h79zM396 444l-20 27q8 6 19.5 17t31 40t18.5 54q-24 3 -38 20t-14 42q0 29 17.5 47t46.5 18t47 -20t18 -62q0 -34 -13 -65.5t-31.5 -52t-37 -36t-31.5 -22.5z" />
    <glyph glyph-name="lcaron" unicode="&#x13e;" horiz-adv-x="424" 
d="M30 690v53l168 16l11 -11v-684l61 -8v-56h-240v60l60 19v586zM277 496l-20 27q8 6 19.5 17t30.5 40t19 54q-24 3 -38.5 20t-14.5 42q0 29 18 47t47 18t47 -20t18 -62q0 -34 -13 -65.5t-31.5 -52t-37 -36t-31.5 -22.5z" />
    <glyph glyph-name="Ldot" unicode="&#x13f;" horiz-adv-x="573" 
d="M537 0h-499v56l69 19v557l-69 8v60h261v-56l-70 -19v-544h213l29 110h79zM393 360q0 33 20.5 53t52.5 20t52 -20t20 -53t-20 -53t-52 -20t-52.5 20t-20.5 53z" />
    <glyph glyph-name="Lslash" unicode="&#x141;" horiz-adv-x="576" 
d="M365 384l-132 -66v-237h212l29 110h80l-14 -191h-499v56l70 19v182l-57 -28l-30 69l87 43v291l-70 8v60h261v-56l-69 -19v-224l102 51z" />
    <glyph glyph-name="lslash" unicode="&#x142;" horiz-adv-x="310" 
d="M293 379l-77 -38v-277l60 -8v-56h-239v60l60 19v203l-50 -25l-27 68l77 38v302l-60 25v53l167 16l12 -11v-326l51 25z" />
    <glyph glyph-name="Nacute" unicode="&#x143;" horiz-adv-x="730" 
d="M199 68l73 -8v-60h-238v56l73 19v557l-73 8v60h190l281 -428q17 -26 26 -52l3 1q-2 18 -2 51v360l-73 8v60h237v-56l-73 -19v-625h-85l-312 476q-21 33 -26 52l-4 -1q3 -27 3 -51v-408zM294 763l135 162l74 -74l-157 -111z" />
    <glyph glyph-name="nacute" unicode="&#x144;" horiz-adv-x="613" 
d="M37 464v52l164 16l11 -11l-6 -49l4 -4q76 65 177 65q77 0 110.5 -41.5t33.5 -124.5v-303l60 -8v-56h-240v53l61 19v286q0 50 -17 71t-60 21q-67 0 -119 -55v-331l60 -8v-56h-239v53l60 19v367zM245 598l135 162l74 -74l-158 -112z" />
    <glyph glyph-name="Ncommaaccent" unicode="&#x145;" horiz-adv-x="730" 
d="M199 68l73 -8v-60h-238v56l73 19v557l-73 8v60h190l281 -428q17 -26 26 -52l3 1q-2 18 -2 51v360l-73 8v60h237v-56l-73 -19v-625h-85l-312 476q-21 33 -26 52l-4 -1q3 -27 3 -51v-408zM332 -259l-16 22q7 5 16.5 14t25.5 33.5t15 45.5q-20 1 -31.5 15t-11.5 35
q0 22 15 37t37 15q53 0 53 -66q0 -28 -10.5 -54t-25.5 -43t-30.5 -29.5t-26.5 -18.5z" />
    <glyph glyph-name="ncommaaccent" unicode="&#x146;" horiz-adv-x="613" 
d="M37 464v52l164 16l11 -11l-6 -49l4 -4q76 65 177 65q77 0 110.5 -41.5t33.5 -124.5v-303l60 -8v-56h-240v53l61 19v286q0 50 -17 71t-60 21q-67 0 -119 -55v-331l60 -8v-56h-239v53l60 19v367zM262 -259l-16 22q7 5 16.5 14t25.5 33.5t16 45.5q-20 1 -31.5 15t-11.5 35
q0 23 14.5 37.5t37.5 14.5q52 0 52 -66q0 -28 -10.5 -54t-25.5 -43t-30.5 -29.5t-26.5 -18.5z" />
    <glyph glyph-name="Ncaron" unicode="&#x147;" horiz-adv-x="730" 
d="M199 68l73 -8v-60h-238v56l73 19v557l-73 8v60h190l281 -428q17 -26 26 -52l3 1q-2 18 -2 51v360l-73 8v60h237v-56l-73 -19v-625h-85l-312 476q-21 33 -26 52l-4 -1q3 -27 3 -51v-408zM358 740l-134 147l41 34l100 -82l100 82l41 -34l-133 -147h-15z" />
    <glyph glyph-name="ncaron" unicode="&#x148;" horiz-adv-x="613" 
d="M37 464v52l164 16l11 -11l-6 -49l4 -4q76 65 177 65q77 0 110.5 -41.5t33.5 -124.5v-303l60 -8v-56h-240v53l61 19v286q0 50 -17 71t-60 21q-67 0 -119 -55v-331l60 -8v-56h-239v53l60 19v367zM302 581l-133 147l40 34l100 -82l100 82l41 -34l-133 -147h-15z" />
    <glyph glyph-name="Eng" unicode="&#x14a;" horiz-adv-x="730" 
d="M199 68l73 -8v-60h-238v56l73 19v557l-73 8v60h190l281 -428q17 -26 26 -52l3 1q-2 18 -2 51v360l-73 8v60h237v-56l-73 -19v-687q0 -92 -48 -145t-137 -53q-29 0 -57 5t-41 11l-13 5l12 81q33 -18 85 -18q16 0 33.5 2t26.5 4l9 3q22 37 22 121v81l-289 441
q-21 33 -26 52l-4 -1q3 -27 3 -51v-408z" />
    <glyph glyph-name="eng" unicode="&#x14b;" horiz-adv-x="606" 
d="M37 464v52l164 16l11 -11l-6 -49l4 -4q76 65 177 65q77 0 110.5 -41.5t33.5 -124.5v-367q0 -130 -46.5 -184.5t-143.5 -54.5q-23 0 -46 2.5t-35 4.5l-11 3l13 92q37 -22 83 -22q11 0 22 1.5t17 3.5l5 2q23 36 23 152v358q0 50 -17 71t-60 21q-67 0 -119 -55v-331l60 -8
v-56h-239v53l60 19v367z" />
    <glyph glyph-name="Omacron" unicode="&#x14c;" horiz-adv-x="656" 
d="M38 351q0 168 79.5 263.5t210.5 95.5t210 -95.5t79 -264.5t-79 -264.5t-209 -95.5q-132 0 -211.5 96t-79.5 265zM171 350q0 -143 39.5 -209.5t123.5 -66.5q28 0 53 6.5t35 13.5l11 6q6 7 14.5 22.5t23 79.5t14.5 147q0 144 -40 210t-122 66q-28 0 -53 -6.5t-36 -12.5
l-12 -7q-2 -2 -5.5 -7.5t-12.5 -26t-15.5 -46.5t-12 -71t-5.5 -98zM185 771v75h286v-75h-286z" />
    <glyph glyph-name="omacron" unicode="&#x14d;" horiz-adv-x="556" 
d="M36 262q0 127 66 199t176 72t176 -72t66 -199t-65.5 -199t-175.5 -72t-176.5 72.5t-66.5 198.5zM162 264q0 -99 29.5 -146t91.5 -47q20 0 39.5 4.5t28.5 8.5l9 4q4 5 10 16.5t15.5 55.5t9.5 99q0 100 -29.5 146.5t-90.5 46.5q-20 0 -40 -4t-29 -8l-10 -4
q-4 -5 -9.5 -16.5t-15 -55.5t-9.5 -100zM134 623v74h287v-74h-287z" />
    <glyph glyph-name="Obreve" unicode="&#x14e;" horiz-adv-x="656" 
d="M38 351q0 168 79.5 263.5t210.5 95.5t210 -95.5t79 -264.5t-79 -264.5t-209 -95.5q-132 0 -211.5 96t-79.5 265zM171 350q0 -143 39.5 -209.5t123.5 -66.5q28 0 53 6.5t35 13.5l11 6q6 7 14.5 22.5t23 79.5t14.5 147q0 144 -40 210t-122 66q-28 0 -53 -6.5t-36 -12.5
l-12 -7q-2 -2 -5.5 -7.5t-12.5 -26t-15.5 -46.5t-12 -71t-5.5 -98zM430 879l39 -15q-1 -5 -3.5 -12t-12.5 -26.5t-24.5 -34t-41 -26.5t-58.5 -12t-59 11t-41.5 26.5t-24.5 31.5t-14 27l-3 11l59 20q3 -7 8.5 -16.5t29.5 -26t56 -16.5q31 0 53.5 14.5t29.5 28.5z" />
    <glyph glyph-name="obreve" unicode="&#x14f;" horiz-adv-x="556" 
d="M36 262q0 127 66 199t176 72t176 -72t66 -199t-65.5 -199t-175.5 -72t-176.5 72.5t-66.5 198.5zM162 264q0 -99 29.5 -146t91.5 -47q20 0 39.5 4.5t28.5 8.5l9 4q4 5 10 16.5t15.5 55.5t9.5 99q0 100 -29.5 146.5t-90.5 46.5q-20 0 -40 -4t-29 -8l-10 -4
q-4 -5 -9.5 -16.5t-15 -55.5t-9.5 -100zM380 727l39 -15q-1 -5 -3.5 -12t-13 -26.5t-24.5 -34t-40.5 -26.5t-59.5 -12q-32 0 -58.5 11t-41 26.5t-24.5 31.5t-14 27l-3 11l59 20q3 -7 8.5 -16.5t29.5 -26t56 -16.5q19 0 35.5 6t26 14.5t16.5 17t10 14.5z" />
    <glyph glyph-name="Ohungarumlaut" unicode="&#x150;" horiz-adv-x="656" 
d="M38 351q0 168 79.5 263.5t210.5 95.5t210 -95.5t79 -264.5t-79 -264.5t-209 -95.5q-132 0 -211.5 96t-79.5 265zM171 350q0 -143 39.5 -209.5t123.5 -66.5q28 0 53 6.5t35 13.5l11 6q6 7 14.5 22.5t23 79.5t14.5 147q0 144 -40 210t-122 66q-28 0 -53 -6.5t-36 -12.5
l-12 -7q-2 -2 -5.5 -7.5t-12.5 -26t-15.5 -46.5t-12 -71t-5.5 -98zM172 763l111 162l74 -60l-134 -125zM339 763l111 162l74 -60l-134 -125z" />
    <glyph glyph-name="ohungarumlaut" unicode="&#x151;" horiz-adv-x="556" 
d="M36 262q0 127 66 199t176 72t176 -72t66 -199t-65.5 -199t-175.5 -72t-176.5 72.5t-66.5 198.5zM162 264q0 -99 29.5 -146t91.5 -47q20 0 39.5 4.5t28.5 8.5l9 4q4 5 10 16.5t15.5 55.5t9.5 99q0 100 -29.5 146.5t-90.5 46.5q-20 0 -40 -4t-29 -8l-10 -4
q-4 -5 -9.5 -16.5t-15 -55.5t-9.5 -100zM133 598l111 162l74 -61l-133 -125zM300 598l111 162l74 -61l-133 -125z" />
    <glyph glyph-name="OE" unicode="&#x152;" horiz-adv-x="881" 
d="M834 0h-419q-40 -10 -78 -10q-135 0 -216.5 96t-81.5 265q0 168 81.5 263.5t216.5 95.5q36 0 79 -10h405l13 -184h-80l-28 103h-189v-223h84l15 79h67v-240h-67l-15 79h-84v-233h201l29 106h80zM344 74q15 0 29 2.5t21.5 5.5t13.5 6t7 3v501q-28 33 -83 33
q-29 0 -55.5 -6.5t-38.5 -12.5l-13 -7q-6 -7 -15 -22.5t-24 -80t-15 -148.5q0 -141 42.5 -207.5t130.5 -66.5z" />
    <glyph glyph-name="oe" unicode="&#x153;" horiz-adv-x="866" 
d="M793 105l23 -62q-8 -6 -22.5 -14.5t-61 -23t-93.5 -14.5q-129 0 -182 97h-5q-51 -97 -173 -97q-110 0 -176.5 72.5t-66.5 198.5q0 127 66.5 199t176.5 72q121 0 173 -97h4q55 97 174 97q101 0 156 -69t43 -197l-35 -24h-284q1 -86 40.5 -127.5t108.5 -41.5q31 0 64.5 8
t51.5 16zM162 265q0 -100 29 -147t92 -47q20 0 39.5 4.5t28.5 8.5l9 5q4 5 10 16.5t15.5 55t9.5 97.5q0 100 -29.5 147t-90.5 47q-20 0 -40 -4t-29 -8l-10 -5q-4 -5 -9.5 -16.5t-15 -55.5t-9.5 -98zM545 434q-35 -47 -35 -130l215 15q4 133 -101 133q-21 0 -40.5 -4.5
t-29.5 -9.5z" />
    <glyph glyph-name="Racute" unicode="&#x154;" horiz-adv-x="646" 
d="M229 68l70 -8v-60h-261v56l69 19v557l-69 8v60h293q109 0 174 -53.5t65 -149.5q0 -73 -40 -122t-110 -68l147 -239l68 -8v-60h-174l-159 296h-73v-228zM304 619h-75v-242h81q22 0 44.5 2.5t33.5 5.5l11 3q4 3 10.5 10t17.5 35t11 63q0 64 -33 93.5t-101 29.5zM239 763
l134 162l74 -74l-157 -111z" />
    <glyph glyph-name="racute" unicode="&#x155;" horiz-adv-x="419" 
d="M407 531l-10 -113q-22 8 -57 8q-73 0 -124 -46v-314l90 -4v-62h-269v53l60 19v367l-60 25v52l164 16l11 -11l-7 -76l4 -4q60 93 156 93zM170 598l135 162l74 -74l-158 -112z" />
    <glyph glyph-name="Rcommaaccent" unicode="&#x156;" horiz-adv-x="646" 
d="M229 68l70 -8v-60h-261v56l69 19v557l-69 8v60h293q109 0 174 -53.5t65 -149.5q0 -73 -40 -122t-110 -68l147 -239l68 -8v-60h-174l-159 296h-73v-228zM304 619h-75v-242h81q22 0 44.5 2.5t33.5 5.5l11 3q4 3 10.5 10t17.5 35t11 63q0 64 -33 93.5t-101 29.5zM299 -259
l-17 22q7 5 17 14t26 33.5t15 45.5q-20 1 -31.5 15t-11.5 35q0 23 14.5 37.5t37.5 14.5q53 0 53 -66q0 -45 -26 -82.5t-52 -53.5z" />
    <glyph glyph-name="rcommaaccent" unicode="&#x157;" horiz-adv-x="419" 
d="M407 531l-10 -113q-22 8 -57 8q-73 0 -124 -46v-314l90 -4v-62h-269v53l60 19v367l-60 25v52l164 16l11 -11l-7 -76l4 -4q60 93 156 93zM117 -259l-16 22q7 5 16.5 14t25.5 33.5t15 45.5q-20 1 -31.5 15t-11.5 35q0 23 15 37.5t38 14.5q52 0 52 -66q0 -45 -26 -82.5
t-52 -53.5z" />
    <glyph glyph-name="Rcaron" unicode="&#x158;" horiz-adv-x="646" 
d="M229 68l70 -8v-60h-261v56l69 19v557l-69 8v60h293q109 0 174 -53.5t65 -149.5q0 -73 -40 -122t-110 -68l147 -239l68 -8v-60h-174l-159 296h-73v-228zM304 619h-75v-242h81q22 0 44.5 2.5t33.5 5.5l11 3q4 3 10.5 10t17.5 35t11 63q0 64 -33 93.5t-101 29.5zM305 740
l-133 147l41 34l100 -82l100 82l41 -34l-134 -147h-15z" />
    <glyph glyph-name="rcaron" unicode="&#x159;" horiz-adv-x="419" 
d="M407 531l-10 -113q-22 8 -57 8q-73 0 -124 -46v-314l90 -4v-62h-269v53l60 19v367l-60 25v52l164 16l11 -11l-7 -76l4 -4q60 93 156 93zM234 581l-133 147l41 34l100 -82l100 82l40 -34l-133 -147h-15z" />
    <glyph glyph-name="Sacute" unicode="&#x15a;" horiz-adv-x="543" 
d="M382 174q0 21 -7.5 38t-17.5 27.5t-30 21.5t-34 16.5t-42 15.5t-42 16q-77 30 -120 78t-43 133q0 190 231 190q56 0 103.5 -11t66.5 -23l19 -11v-171h-84l-15 109q-31 23 -92 23q-23 0 -46.5 -4t-35.5 -8l-12 -4q-19 -29 -19 -74q0 -19 4 -35t15 -29t19 -21t28 -17.5
t28.5 -13.5t35 -13.5t33.5 -12.5q85 -33 129 -79t44 -128q0 -197 -255 -197q-61 0 -110.5 11t-68.5 22l-20 11v173h80l22 -109q36 -22 109 -22q28 0 54.5 4t38.5 8l13 4q21 38 21 82zM201 763l135 162l74 -74l-158 -111z" />
    <glyph glyph-name="sacute" unicode="&#x15b;" horiz-adv-x="470" 
d="M328 132q0 41 -52 63q-16 7 -77 26q-77 25 -114 59t-37 105q0 148 186 148q49 0 91 -9.5t60 -19.5l18 -9v-134h-86l-15 80q-25 15 -71 15q-18 0 -35.5 -3t-25.5 -6l-9 -3q-12 -20 -12 -45q0 -35 28.5 -53t93.5 -39q80 -26 118.5 -59t38.5 -103q0 -155 -205 -155
q-52 0 -96 9t-62 19l-18 9v135h87l15 -80q29 -13 82 -13q23 0 43.5 2.5t29.5 5.5l9 3q15 24 15 52zM162 598l134 162l74 -74l-157 -112z" />
    <glyph glyph-name="Scircumflex" unicode="&#x15c;" horiz-adv-x="543" 
d="M382 174q0 21 -7.5 38t-17.5 27.5t-30 21.5t-34 16.5t-42 15.5t-42 16q-77 30 -120 78t-43 133q0 190 231 190q56 0 103.5 -11t66.5 -23l19 -11v-171h-84l-15 109q-31 23 -92 23q-23 0 -46.5 -4t-35.5 -8l-12 -4q-19 -29 -19 -74q0 -19 4 -35t15 -29t19 -21t28 -17.5
t28.5 -13.5t35 -13.5t33.5 -12.5q85 -33 129 -79t44 -128q0 -197 -255 -197q-61 0 -110.5 11t-68.5 22l-20 11v173h80l22 -109q36 -22 109 -22q28 0 54.5 4t38.5 8l13 4q21 38 21 82zM124 763l140 154h15l141 -154l-52 -23l-96 78l-97 -78z" />
    <glyph glyph-name="scircumflex" unicode="&#x15d;" horiz-adv-x="470" 
d="M328 132q0 41 -52 63q-16 7 -77 26q-77 25 -114 59t-37 105q0 148 186 148q49 0 91 -9.5t60 -19.5l18 -9v-134h-86l-15 80q-25 15 -71 15q-18 0 -35.5 -3t-25.5 -6l-9 -3q-12 -20 -12 -45q0 -35 28.5 -53t93.5 -39q80 -26 118.5 -59t38.5 -103q0 -155 -205 -155
q-52 0 -96 9t-62 19l-18 9v135h87l15 -80q29 -13 82 -13q23 0 43.5 2.5t29.5 5.5l9 3q15 24 15 52zM89 598l140 154h15l140 -154l-51 -24l-97 79l-96 -79z" />
    <glyph glyph-name="Scedilla" unicode="&#x15e;" horiz-adv-x="543" 
d="M224 -88l9 78q-58 1 -105 12t-66 22l-18 10v173h80l22 -109q36 -22 109 -22q28 0 54.5 4t38.5 8l13 4q21 38 21 82q0 21 -7.5 38t-17.5 27.5t-30 21.5t-34 16.5t-42 15.5t-42 16q-77 30 -120 78t-43 133q0 190 231 190q56 0 103.5 -11t66.5 -23l19 -11v-171h-84l-15 109
q-31 23 -92 23q-23 0 -46.5 -4t-35.5 -8l-12 -4q-19 -29 -19 -74q0 -19 4 -35t15 -29t19 -21t28 -17.5t28.5 -13.5t35 -13.5t33.5 -12.5q85 -33 129 -79t44 -128q0 -179 -211 -195l-7 -54q3 0 8 -0.5t18 -4.5t22.5 -10.5t17.5 -20.5t8 -32q0 -36 -31 -56t-86 -20
q-18 0 -34.5 2t-24.5 4l-7 3l12 55q18 -15 52 -15l33 4q5 13 5 24q0 17 -12.5 27.5t-24.5 11.5z" />
    <glyph glyph-name="scedilla" unicode="&#x15f;" horiz-adv-x="470" 
d="M191 -88l9 79q-45 2 -83 11t-54 17l-16 8v135h87l15 -80q29 -13 82 -13q23 0 43.5 2.5t29.5 5.5l9 3q15 24 15 52q0 41 -52 63q-16 7 -77 26q-77 25 -114 59t-37 105q0 148 186 148q49 0 91 -9.5t60 -19.5l18 -9v-134h-86l-15 80q-25 15 -71 15q-18 0 -35.5 -3t-25.5 -6
l-9 -3q-12 -20 -12 -45q0 -35 28.5 -53t93.5 -39q80 -26 118.5 -59t38.5 -103q0 -142 -175 -154l-6 -53q3 0 8 -0.5t18 -4.5t22.5 -10.5t17.5 -20.5t8 -32q0 -36 -31 -56t-86 -20q-18 0 -34.5 2t-23.5 4l-8 3l12 55q17 -15 52 -15l33 4q4 13 4 24q0 17 -12 27.5t-24 11.5z
" />
    <glyph glyph-name="Scaron" unicode="&#x160;" horiz-adv-x="543" 
d="M382 174q0 21 -7.5 38t-17.5 27.5t-30 21.5t-34 16.5t-42 15.5t-42 16q-77 30 -120 78t-43 133q0 190 231 190q56 0 103.5 -11t66.5 -23l19 -11v-171h-84l-15 109q-31 23 -92 23q-23 0 -46.5 -4t-35.5 -8l-12 -4q-19 -29 -19 -74q0 -19 4 -35t15 -29t19 -21t28 -17.5
t28.5 -13.5t35 -13.5t33.5 -12.5q85 -33 129 -79t44 -128q0 -197 -255 -197q-61 0 -110.5 11t-68.5 22l-20 11v173h80l22 -109q36 -22 109 -22q28 0 54.5 4t38.5 8l13 4q21 38 21 82zM260 740l-134 147l41 34l100 -82l100 82l41 -34l-133 -147h-15z" />
    <glyph glyph-name="scaron" unicode="&#x161;" horiz-adv-x="470" 
d="M328 132q0 41 -52 63q-16 7 -77 26q-77 25 -114 59t-37 105q0 148 186 148q49 0 91 -9.5t60 -19.5l18 -9v-134h-86l-15 80q-25 15 -71 15q-18 0 -35.5 -3t-25.5 -6l-9 -3q-12 -20 -12 -45q0 -35 28.5 -53t93.5 -39q80 -26 118.5 -59t38.5 -103q0 -155 -205 -155
q-52 0 -96 9t-62 19l-18 9v135h87l15 -80q29 -13 82 -13q23 0 43.5 2.5t29.5 5.5l9 3q15 24 15 52zM224 581l-133 147l41 34l100 -82l100 82l40 -34l-133 -147h-15z" />
    <glyph glyph-name="Tcommaaccent" unicode="&#x162;" horiz-adv-x="629" 
d="M376 68l69 -8v-60h-261v56l70 19v544h-123l-28 -120h-80l13 201h558l13 -201h-80l-28 120h-123v-551zM263 -259l-16 22q7 5 16.5 14t25.5 33.5t15 45.5q-20 1 -31.5 15t-11.5 35q0 23 14.5 37.5t37.5 14.5q53 0 53 -66q0 -45 -26 -82.5t-52 -53.5z" />
    <glyph glyph-name="tcommaaccent" unicode="&#x163;" horiz-adv-x="381" 
d="M22 442v67l60 15l18 106h101v-106h145v-82h-145v-294q0 -73 64 -73q17 0 37 5t32 10l11 5l13 -61q-5 -5 -15 -12t-44.5 -19t-72.5 -12q-144 0 -144 154v297h-60zM170 -259l-16 22q7 5 17 14t26 33.5t15 45.5q-20 1 -31.5 15t-11.5 35q0 23 14.5 37.5t37.5 14.5
q53 0 53 -66q0 -28 -10.5 -54t-26 -43t-31 -29.5t-26.5 -18.5z" />
    <glyph glyph-name="Tcaron" unicode="&#x164;" horiz-adv-x="629" 
d="M376 68l69 -8v-60h-261v56l70 19v544h-123l-28 -120h-80l13 201h558l13 -201h-80l-28 120h-123v-551zM307 740l-134 147l41 34l100 -82l100 82l41 -34l-133 -147h-15z" />
    <glyph glyph-name="tcaron" unicode="&#x165;" horiz-adv-x="381" 
d="M22 442v67l60 15l18 106h101v-106h145v-82h-145v-294q0 -73 64 -73q17 0 37 5t32 10l11 5l13 -61q-5 -5 -15 -12t-44.5 -19t-72.5 -12q-144 0 -144 154v297h-60zM280 556l-15 20q6 5 15.5 13t24.5 31t14 43q-19 3 -29.5 16t-10.5 32q0 21 13.5 34.5t35.5 13.5
q49 0 49 -62q0 -27 -10 -51t-24.5 -40t-28.5 -27.5t-24 -16.5z" />
    <glyph glyph-name="Tbar" unicode="&#x166;" horiz-adv-x="629" 
d="M141 329v75h113v215h-123l-28 -120h-80l13 201h558l13 -201h-80l-28 120h-123v-215h112v-75h-112v-261l69 -8v-60h-261v56l70 19v254h-113z" />
    <glyph glyph-name="tbar" unicode="&#x167;" horiz-adv-x="381" 
d="M22 442v67l60 15l18 106h101v-106h145v-82h-145v-102h145v-74h-145v-118q0 -73 64 -73q17 0 37 5t32 10l11 5l13 -61q-5 -5 -15 -12t-44.5 -19t-72.5 -12q-144 0 -144 154v121h-60v74h60v102h-60z" />
    <glyph glyph-name="Utilde" unicode="&#x168;" horiz-adv-x="719" 
d="M617 625v-372q0 -123 -70.5 -193t-187.5 -70q-115 0 -186 66.5t-71 183.5v392l-69 8v60h264v-56l-69 -19v-385q0 -87 37.5 -128t118.5 -41q29 0 53 4.5t33 8.5l10 5q5 5 12.5 15.5t20 52.5t12.5 94v381l-74 8v60h239v-56zM218 768l-29 31q2 3 6.5 9t18 20.5t27.5 26
t35.5 20.5t41.5 9q24 0 63.5 -19.5t62.5 -19.5l58 41l27 -31l-6 -9q-4 -6 -17.5 -20.5t-27.5 -25.5t-34.5 -20t-40.5 -9q-24 0 -64 19.5t-63 19.5z" />
    <glyph glyph-name="utilde" unicode="&#x169;" horiz-adv-x="597" 
d="M332 464v52l168 16l11 -11v-436l61 -25v-53l-164 -16l-12 11l6 50l-4 3q-75 -64 -174 -64q-77 0 -109.5 41.5t-32.5 124.5v282l-60 25v52l167 16l12 -11v-355q0 -49 16 -70.5t58 -21.5q63 0 117 54v311zM151 609l-29 31q2 3 6.5 9t18 20.5t27.5 26t35.5 20.5t41.5 9
q24 0 63.5 -19.5t62.5 -19.5l58 41l27 -31q-6 -9 -17 -23t-44 -37.5t-65 -23.5q-24 0 -64 19.5t-63 19.5z" />
    <glyph glyph-name="Umacron" unicode="&#x16a;" horiz-adv-x="719" 
d="M617 625v-372q0 -123 -70.5 -193t-187.5 -70q-115 0 -186 66.5t-71 183.5v392l-69 8v60h264v-56l-69 -19v-385q0 -87 37.5 -128t118.5 -41q29 0 53 4.5t33 8.5l10 5q5 5 12.5 15.5t20 52.5t12.5 94v381l-74 8v60h239v-56zM216 771v75h287v-75h-287z" />
    <glyph glyph-name="umacron" unicode="&#x16b;" horiz-adv-x="597" 
d="M332 464v52l168 16l11 -11v-436l61 -25v-53l-164 -16l-12 11l6 50l-4 3q-75 -64 -174 -64q-77 0 -109.5 41.5t-32.5 124.5v282l-60 25v52l167 16l12 -11v-355q0 -49 16 -70.5t58 -21.5q63 0 117 54v311zM149 623v74h287v-74h-287z" />
    <glyph glyph-name="Ubreve" unicode="&#x16c;" horiz-adv-x="719" 
d="M617 625v-372q0 -123 -70.5 -193t-187.5 -70q-115 0 -186 66.5t-71 183.5v392l-69 8v60h264v-56l-69 -19v-385q0 -87 37.5 -128t118.5 -41q29 0 53 4.5t33 8.5l10 5q5 5 12.5 15.5t20 52.5t12.5 94v381l-74 8v60h239v-56zM468 879l39 -15q-1 -5 -3.5 -12t-12.5 -26.5
t-24.5 -34t-41 -26.5t-58.5 -12t-59 11t-41.5 26.5t-24.5 31.5t-14 27l-3 11l59 20q3 -7 8.5 -16.5t29.5 -26t56 -16.5q31 0 53.5 14.5t29.5 28.5z" />
    <glyph glyph-name="ubreve" unicode="&#x16d;" horiz-adv-x="597" 
d="M332 464v52l168 16l11 -11v-436l61 -25v-53l-164 -16l-12 11l6 50l-4 3q-75 -64 -174 -64q-77 0 -109.5 41.5t-32.5 124.5v282l-60 25v52l167 16l12 -11v-355q0 -49 16 -70.5t58 -21.5q63 0 117 54v311zM395 727l39 -15q-1 -5 -3 -12t-12.5 -26.5t-24.5 -34t-40.5 -26.5
t-59.5 -12q-32 0 -58.5 11t-41.5 26.5t-25 31.5t-13 27l-4 11l59 20q3 -7 8.5 -16.5t29.5 -26t56 -16.5q31 0 53.5 14.5t29.5 28.5z" />
    <glyph glyph-name="Uring" unicode="&#x16e;" horiz-adv-x="719" 
d="M617 625v-372q0 -123 -70.5 -193t-187.5 -70q-115 0 -186 66.5t-71 183.5v392l-69 8v60h264v-56l-69 -19v-385q0 -87 37.5 -128t118.5 -41q29 0 53 4.5t33 8.5l10 5q5 5 12.5 15.5t20 52.5t12.5 94v381l-74 8v60h239v-56zM274 828q0 40 25 64t66 24q42 0 67.5 -24
t25.5 -64t-25.5 -64t-67.5 -24q-41 0 -66 24t-25 64zM330 830q0 -42 38 -42l27 5q7 12 7 32q0 42 -37 42l-28 -5q-7 -12 -7 -32z" />
    <glyph glyph-name="uring" unicode="&#x16f;" horiz-adv-x="597" 
d="M332 464v52l168 16l11 -11v-436l61 -25v-53l-164 -16l-12 11l6 50l-4 3q-75 -64 -174 -64q-77 0 -109.5 41.5t-32.5 124.5v282l-60 25v52l167 16l12 -11v-355q0 -49 16 -70.5t58 -21.5q63 0 117 54v311zM194 665q0 40 25 64t66 24q42 0 68 -24t26 -64t-26 -64t-68 -24
q-41 0 -66 24t-25 64zM250 667q0 -41 39 -41l27 4q7 12 7 32q0 42 -38 42l-28 -5q-7 -11 -7 -32z" />
    <glyph glyph-name="Uhungarumlaut" unicode="&#x170;" horiz-adv-x="719" 
d="M617 625v-372q0 -123 -70.5 -193t-187.5 -70q-115 0 -186 66.5t-71 183.5v392l-69 8v60h264v-56l-69 -19v-385q0 -87 37.5 -128t118.5 -41q29 0 53 4.5t33 8.5l10 5q5 5 12.5 15.5t20 52.5t12.5 94v381l-74 8v60h239v-56zM217 763l111 162l74 -60l-134 -125zM384 763
l111 162l74 -60l-134 -125z" />
    <glyph glyph-name="uhungarumlaut" unicode="&#x171;" horiz-adv-x="597" 
d="M332 464v52l168 16l11 -11v-436l61 -25v-53l-164 -16l-12 11l6 50l-4 3q-75 -64 -174 -64q-77 0 -109.5 41.5t-32.5 124.5v282l-60 25v52l167 16l12 -11v-355q0 -49 16 -70.5t58 -21.5q63 0 117 54v311zM306 598l111 162l74 -61l-134 -125zM139 598l111 162l74 -61
l-134 -125z" />
    <glyph glyph-name="Uogonek" unicode="&#x172;" horiz-adv-x="719" 
d="M405 -103q0 -46 42 -46q11 0 22.5 2.5t18.5 4.5l6 2l7 -31q-25 -27 -82 -27q-45 0 -68.5 21t-23.5 60q0 61 54 108q-8 -1 -22 -1q-115 0 -186 66.5t-71 183.5v392l-69 8v60h264v-56l-69 -19v-385q0 -87 37.5 -128t118.5 -41q29 0 53 4.5t33 8.5l10 5q5 5 12.5 15.5
t20 52.5t12.5 94v381l-74 8v60h239v-56l-73 -19v-372q0 -97 -44.5 -161.5t-122.5 -88.5q-6 -6 -14.5 -17.5t-19.5 -37.5t-11 -51z" />
    <glyph glyph-name="uogonek" unicode="&#x173;" horiz-adv-x="597" 
d="M478 -103q0 -46 43 -46q11 0 22.5 2.5t18.5 4.5l6 2l7 -31q-26 -27 -83 -27q-44 0 -68 21.5t-24 59.5q0 67 62 114l-54 -6l-12 11l6 50l-4 3q-75 -64 -174 -64q-77 0 -109.5 41.5t-32.5 124.5v282l-60 25v52l167 16l12 -11v-355q0 -49 16 -70.5t58 -21.5q63 0 117 54v311
l-60 25v52l168 16l11 -11v-436l61 -25v-53l-49 -5q-7 -7 -15.5 -18.5t-19 -37t-10.5 -49.5z" />
    <glyph glyph-name="Wcircumflex" unicode="&#x174;" horiz-adv-x="1042" 
d="M398 0h-118l-14 13l-191 616l-72 11v60h288v-56l-73 -14l116 -437q12 -44 16 -65h5q1 12 14 65l124 497h114l128 -497q1 -7 7.5 -30t8.5 -35h4q0 3 15 65l109 439l-69 8v60h226v-56l-68 -19l-175 -625h-117l-14 13l-117 465q-10 36 -13 62h-5q-2 -16 -13 -62zM402 763
l140 154h15l140 -154l-51 -23l-97 78l-96 -78z" />
    <glyph glyph-name="wcircumflex" unicode="&#x175;" horiz-adv-x="851" 
d="M334 0h-110l-11 11l-147 445l-61 11v57h256v-53l-65 -14l73 -264q15 -54 17 -64h4q3 24 15 64l91 326h103l89 -326q14 -50 16 -64h5q0 1 15 64l71 266l-62 8v57h211v-53l-57 -19l-139 -452h-109l-11 11l-81 286q-9 38 -13 59h-5q-2 -23 -12 -59zM298 598l141 154h15
l140 -154l-51 -24l-97 79l-96 -79z" />
    <glyph glyph-name="Ycircumflex" unicode="&#x176;" horiz-adv-x="667" 
d="M585 625l-186 -323v-234l70 -8v-60h-261v56l69 19v225l-199 332l-67 8v60h286v-56l-75 -17l116 -203q15 -23 23 -42h4q3 9 11 25t10 19l108 206l-67 8v60h229v-56zM201 763l140 154h15l140 -154l-51 -23l-96 78l-97 -78z" />
    <glyph glyph-name="ycircumflex" unicode="&#x177;" horiz-adv-x="590" 
d="M257 -20l-194 479l-58 8v57h256v-53l-66 -17l102 -265q9 -22 19 -70h5q11 46 20 70l93 270l-62 8v57h210v-53l-55 -19l-169 -452q-53 -143 -96 -191t-123 -48q-24 0 -48 3.5t-35 6.5l-12 3l18 100q43 -21 135 -21q38 47 60 127zM159 598l140 154h15l140 -154l-51 -24
l-96 79l-97 -79z" />
    <glyph glyph-name="Ydieresis" unicode="&#x178;" horiz-adv-x="667" 
d="M585 625l-186 -323v-234l70 -8v-60h-261v56l69 19v225l-199 332l-67 8v60h286v-56l-75 -17l116 -203q15 -23 23 -42h4q3 9 11 25t10 19l108 206l-67 8v60h229v-56zM184 822q0 28 16.5 44.5t42.5 16.5q27 0 43.5 -16.5t16.5 -44.5q0 -26 -16.5 -42.5t-43.5 -16.5
q-26 0 -42.5 16.5t-16.5 42.5zM381 822q0 28 16.5 44.5t42.5 16.5q27 0 44 -16.5t17 -44.5q0 -26 -17 -42.5t-44 -16.5q-26 0 -42.5 16.5t-16.5 42.5z" />
    <glyph glyph-name="Zacute" unicode="&#x179;" horiz-adv-x="582" 
d="M39 0v48l341 571h-236l-28 -110h-80l13 191h484v-48l-340 -571h250l15 110h84v-191h-503zM220 763l135 162l74 -74l-157 -111z" />
    <glyph glyph-name="zacute" unicode="&#x17a;" horiz-adv-x="502" 
d="M45 0v45l263 401h-155l-15 -88h-87v166h398v-45l-263 -401h170l15 88h86v-166h-412zM180 598l134 162l75 -74l-158 -112z" />
    <glyph glyph-name="Zdotaccent" unicode="&#x17b;" horiz-adv-x="582" 
d="M39 0v48l341 571h-236l-28 -110h-80l13 191h484v-48l-340 -571h250l15 110h84v-191h-503zM214 829q0 34 21.5 55t55.5 21q35 0 56.5 -21t21.5 -55t-21.5 -55t-56.5 -21q-34 0 -55.5 21t-21.5 55z" />
    <glyph glyph-name="zdotaccent" unicode="&#x17c;" horiz-adv-x="502" 
d="M45 0v45l263 401h-155l-15 -88h-87v166h398v-45l-263 -401h170l15 88h86v-166h-412zM173 674q0 34 21.5 55t56.5 21q34 0 55.5 -21t21.5 -55t-21.5 -55t-55.5 -21q-35 0 -56.5 21t-21.5 55z" />
    <glyph glyph-name="Zcaron" unicode="&#x17d;" horiz-adv-x="582" 
d="M39 0v48l341 571h-236l-28 -110h-80l13 191h484v-48l-340 -571h250l15 110h84v-191h-503zM284 735l-134 147l41 34l100 -82l100 82l41 -34l-133 -147h-15z" />
    <glyph glyph-name="zcaron" unicode="&#x17e;" horiz-adv-x="502" 
d="M45 0v45l263 401h-155l-15 -88h-87v166h398v-45l-263 -401h170l15 88h86v-166h-412zM245 581l-133 147l40 34l100 -82l100 82l41 -34l-133 -147h-15z" />
    <glyph glyph-name="uni018F" unicode="&#x18f;" horiz-adv-x="609" 
d="M571 348q0 -168 -79.5 -263t-213.5 -95q-139 0 -198 100t-32 265l33 23h358q-1 130 -41 189t-124 59q-27 0 -52.5 -5t-37.5 -11l-12 -5l-30 -114h-80l14 177q83 42 189 42q142 0 224 -95.5t82 -266.5zM387 98q5 8 12 23t21 69.5t17 116.5l-274 -15q-16 -105 18.5 -161
t108.5 -56q24 0 48 5.5t36 11.5z" />
    <glyph glyph-name="florin" unicode="&#x192;" horiz-adv-x="421" 
d="M44 369l12 66l72 15l13 70q23 131 78.5 185t152.5 54q22 0 44 -2.5t32 -4.5l11 -3l-27 -86q-35 18 -76 18q-13 0 -25 -2.5t-17 -4.5l-5 -2q-29 -36 -50 -152l-13 -70h145l-15 -81h-144l-65 -369q-24 -130 -79.5 -184.5t-151.5 -54.5q-22 0 -44 2.5t-32 4.5l-11 3l27 86
q34 -18 75 -18q13 0 25 2.5t18 4.5l5 2q29 36 49 152l66 369h-70z" />
    <glyph glyph-name="uni01DD" unicode="&#x1dd;" horiz-adv-x="517" 
d="M73 418l-23 63q8 6 22.5 14.5t61 23t94.5 14.5q113 0 183 -72.5t70 -196.5q0 -123 -68 -198t-177 -75q-101 0 -156 69t-43 196l35 25h284q-1 86 -40.5 127.5t-107.5 41.5q-32 0 -65.5 -8t-51.5 -16zM322 89q34 48 34 131l-215 -15q-4 -134 101 -134q21 0 41 4.5t29 8.5z
" />
    <glyph glyph-name="Aringacute" unicode="&#x1fa;" horiz-adv-x="713" 
d="M263 739q0 39 23 62.5t62 25.5l88 115l67 -74l-87 -60q32 -24 32 -69q0 -35 -20 -58l213 -613l69 -8v-60h-283v55l70 20l-43 128h-242l-45 -135l73 -8v-60h-237v56l66 19l217 602q-23 23 -23 62zM316 511l-77 -227h190l-74 227q-10 31 -18 70h-4q-10 -48 -17 -70z
M320 742q0 -39 32 -42h6l27 5q7 12 7 32q0 42 -37 42l-29 -5q-6 -12 -6 -32z" />
    <glyph glyph-name="aringacute" unicode="&#x1fb;" horiz-adv-x="541" 
d="M43 125q0 66 41 108.5t123 51.5l134 14v56q0 51 -20.5 74.5t-70.5 23.5q-21 0 -38.5 -3.5t-25.5 -7.5l-7 -4l-15 -80h-87v136q6 4 19 10.5t58 17.5t97 11q112 0 160 -47.5t48 -144.5v-233q0 -33 33 -33h34l7 -54q-31 -27 -91 -27q-76 0 -94 56q-70 -59 -164 -59
q-68 0 -104.5 35.5t-36.5 98.5zM173 649q0 39 23 62.5t62 25.5l86 113l68 -74l-84 -59q30 -25 30 -68q0 -40 -25.5 -64t-67.5 -24t-67 24t-25 64zM154 140q0 -66 72 -66q60 0 115 41v121l-167 -32q-20 -27 -20 -64zM229 651q0 -42 39 -42l27 5q7 12 7 32q0 30 -20 38h-1
l-5 2q-8 2 -12 2l-28 -5q-7 -12 -7 -32z" />
    <glyph glyph-name="AEacute" unicode="&#x1fc;" horiz-adv-x="829" 
d="M782 0h-433v55l69 20l-16 128h-183l-52 -135l73 -8v-60h-237v56l66 19l245 625h454l14 -184h-80l-29 103h-206l32 -223h77l15 79h63v-240h-63l-15 79h-67l35 -233h142l29 106h80zM334 511l-89 -227h151l-37 301h-4q-6 -31 -21 -74zM326 763l135 162l74 -74l-157 -111z
" />
    <glyph glyph-name="aeacute" unicode="&#x1fd;" horiz-adv-x="783" 
d="M710 105l23 -62q-8 -6 -22 -14.5t-58.5 -23t-88.5 -14.5q-118 0 -185 84q-79 -84 -194 -84q-69 0 -105.5 35t-36.5 99q0 67 41.5 108.5t122.5 51.5l117 14q4 43 18 81q-5 38 -27 55.5t-65 17.5q-21 0 -38.5 -3.5t-25.5 -7.5l-7 -4l-15 -80h-87v136q6 4 19 10.5t58 17.5
t97 11q112 0 162 -50q61 50 143 50q97 0 149.5 -69t41.5 -197l-35 -24h-264q1 -86 37.5 -127.5t100.5 -41.5q29 0 60 8t48 16zM154 140q0 -66 72 -66q64 0 124 49q-24 51 -28 111l-148 -30q-20 -27 -20 -64zM480 434q-32 -47 -32 -130l194 15q4 133 -92 133
q-18 0 -35.5 -4.5t-26.5 -9.5zM351 598l135 162l74 -74l-158 -112z" />
    <glyph glyph-name="Oslashacute" unicode="&#x1fe;" horiz-adv-x="656" 
d="M56 13l56 81q-73 96 -73 257q0 168 79.5 263.5t210.5 95.5q98 0 168 -55l41 60l63 -29l-56 -81q73 -97 73 -255q0 -169 -79 -264.5t-210 -95.5q-97 0 -168 54l-41 -59zM171 350q0 -88 15 -147l253 367q-39 55 -115 55q-28 0 -53.5 -6.5t-36.5 -12.5l-11 -7
q-6 -7 -14.5 -22.5t-23 -79t-14.5 -147.5zM486 349q0 89 -15 147l-253 -368q39 -54 117 -54q28 0 52.5 6.5t34.5 13.5l11 6q2 3 5.5 8t13 26t16.5 47t12.5 71t5.5 97zM257 763l135 162l74 -74l-158 -111z" />
    <glyph glyph-name="oslashacute" unicode="&#x1ff;" horiz-adv-x="556" 
d="M46 -1l51 70q-61 72 -61 193q0 127 66 199t176 72q75 0 133 -36l37 50l62 -24l-51 -69q61 -72 61 -192q0 -127 -65.5 -199t-175.5 -72q-79 0 -134 36l-36 -50zM158 264q0 -60 10 -99l189 258q-30 33 -82 33q-21 0 -42 -5t-31 -9l-10 -5q-4 -5 -9.5 -16t-15 -56t-9.5 -101
zM398 259q0 59 -10 98l-189 -256q30 -33 84 -33q21 0 41.5 4.5t29.5 9.5l10 4q4 5 9.5 16.5t15 56t9.5 100.5zM208 598l134 162l75 -74l-158 -112z" />
    <glyph glyph-name="Scommaaccent" unicode="&#x218;" horiz-adv-x="543" 
d="M382 174q0 21 -7.5 38t-17.5 27.5t-30 21.5t-34 16.5t-42 15.5t-42 16q-77 30 -120 78t-43 133q0 190 231 190q56 0 103.5 -11t66.5 -23l19 -11v-171h-84l-15 109q-31 23 -92 23q-23 0 -46.5 -4t-35.5 -8l-12 -4q-19 -29 -19 -74q0 -19 4 -35t15 -29t19 -21t28 -17.5
t28.5 -13.5t35 -13.5t33.5 -12.5q85 -33 129 -79t44 -128q0 -197 -255 -197q-61 0 -110.5 11t-68.5 22l-20 11v173h80l22 -109q36 -22 109 -22q28 0 54.5 4t38.5 8l13 4q21 38 21 82zM216 -259l-16 22q7 5 16.5 14t25.5 33.5t16 45.5q-20 1 -31.5 15t-11.5 35
q0 23 14.5 37.5t37.5 14.5q52 0 52 -66q0 -28 -10.5 -54t-25.5 -43t-30.5 -29.5t-26.5 -18.5z" />
    <glyph glyph-name="scommaaccent" unicode="&#x219;" horiz-adv-x="470" 
d="M328 132q0 41 -52 63q-16 7 -77 26q-77 25 -114 59t-37 105q0 148 186 148q49 0 91 -9.5t60 -19.5l18 -9v-134h-86l-15 80q-25 15 -71 15q-18 0 -35.5 -3t-25.5 -6l-9 -3q-12 -20 -12 -45q0 -35 28.5 -53t93.5 -39q80 -26 118.5 -59t38.5 -103q0 -155 -205 -155
q-52 0 -96 9t-62 19l-18 9v135h87l15 -80q29 -13 82 -13q23 0 43.5 2.5t29.5 5.5l9 3q15 24 15 52zM188 -259l-16 22q7 5 16.5 14t25.5 33.5t16 45.5q-20 1 -31.5 15t-11.5 35q0 23 14.5 37.5t37.5 14.5q52 0 52 -66q0 -28 -10.5 -54t-25.5 -43t-30.5 -29.5t-26.5 -18.5z
" />
    <glyph glyph-name="uni021A" unicode="&#x21a;" horiz-adv-x="629" 
d="M376 68l69 -8v-60h-261v56l70 19v544h-123l-28 -120h-80l13 201h558l13 -201h-80l-28 120h-123v-551zM263 -259l-16 22q7 5 16.5 14t25.5 33.5t15 45.5q-20 1 -31.5 15t-11.5 35q0 23 14.5 37.5t37.5 14.5q53 0 53 -66q0 -45 -26 -82.5t-52 -53.5z" />
    <glyph glyph-name="uni021B" unicode="&#x21b;" horiz-adv-x="381" 
d="M22 442v67l60 15l18 106h101v-106h145v-82h-145v-294q0 -73 64 -73q17 0 37 5t32 10l11 5l13 -61q-5 -5 -15 -12t-44.5 -19t-72.5 -12q-144 0 -144 154v297h-60zM170 -259l-16 22q7 5 17 14t26 33.5t15 45.5q-20 1 -31.5 15t-11.5 35q0 23 14.5 37.5t37.5 14.5
q53 0 53 -66q0 -28 -10.5 -54t-26 -43t-31 -29.5t-26.5 -18.5z" />
    <glyph glyph-name="dotlessj" unicode="&#x237;" horiz-adv-x="284" 
d="M30 464v52l168 16l11 -11v-521q0 -130 -46.5 -184.5t-143.5 -54.5q-23 0 -46 2.5t-35 4.5l-11 3l13 92q37 -22 83 -22q11 0 22 1.5t17 3.5l5 2q23 36 23 152v439z" />
    <glyph glyph-name="circumflex" unicode="&#x2c6;" horiz-adv-x="395" 
d="M49 598l141 154h15l140 -154l-51 -24l-97 79l-96 -79z" />
    <glyph glyph-name="caron" unicode="&#x2c7;" horiz-adv-x="395" 
d="M190 581l-133 147l40 34l100 -82l100 82l41 -34l-133 -147h-15z" />
    <glyph glyph-name="breve" unicode="&#x2d8;" horiz-adv-x="395" 
d="M297 727l39 -15q-1 -5 -3.5 -12t-12.5 -26.5t-24.5 -34t-41 -26.5t-58.5 -12t-59 11t-41.5 26.5t-24.5 31.5t-13 27l-4 11l59 20q3 -7 8.5 -16.5t29.5 -26t56 -16.5q31 0 53.5 14.5t29.5 28.5z" />
    <glyph glyph-name="dotaccent" unicode="&#x2d9;" horiz-adv-x="292" 
d="M67 674q0 34 21.5 55t55.5 21q35 0 56.5 -21t21.5 -55t-21.5 -55t-56.5 -21q-34 0 -55.5 21t-21.5 55z" />
    <glyph glyph-name="ring" unicode="&#x2da;" horiz-adv-x="564" 
d="M200 665q0 40 25 64t66 24q42 0 68 -24t26 -64t-26 -64t-68 -24q-41 0 -66 24t-25 64zM256 667q0 -41 39 -41l27 4q7 12 7 32q0 42 -38 42l-28 -5q-7 -11 -7 -32z" />
    <glyph glyph-name="ogonek" unicode="&#x2db;" horiz-adv-x="338" 
d="M160 -108q0 -46 42 -46q11 0 23 2t19 4l6 3l6 -31q-25 -27 -82 -27q-44 0 -68 21.5t-24 59.5q0 21 7.5 41.5t18 34.5t21.5 25t19 16l7 5h53q-5 -5 -13 -15t-21.5 -38t-13.5 -55z" />
    <glyph glyph-name="tilde" unicode="&#x2dc;" horiz-adv-x="479" 
d="M98 609l-28 31q2 3 6.5 9t17.5 20.5t27.5 26t35.5 20.5t41 9q25 0 64 -19.5t63 -19.5l57 41l27 -31l-6 -9q-4 -6 -17.5 -20.5t-27.5 -25.5t-34.5 -20t-40.5 -9q-24 0 -64 19.5t-63 19.5z" />
    <glyph glyph-name="hungarumlaut" unicode="&#x2dd;" horiz-adv-x="482" 
d="M58 598l111 162l74 -61l-134 -125zM225 598l111 162l74 -61l-134 -125z" />
    <glyph glyph-name="uni0400" unicode="&#x400;" horiz-adv-x="594" 
d="M547 0h-509v56l69 19v557l-69 8v60h496l13 -184h-80l-28 103h-210v-223h102l15 79h67v-240h-67l-15 79h-102v-233h222l29 106h80zM154 851l74 74l135 -162l-51 -23z" />
    <glyph glyph-name="afii10023" unicode="&#x401;" horiz-adv-x="594" 
d="M547 0h-509v56l69 19v557l-69 8v60h496l13 -184h-80l-28 103h-210v-223h102l15 79h67v-240h-67l-15 79h-102v-233h222l29 106h80zM142 827q0 27 17 44t43 17t43 -17t17 -44q0 -26 -17 -42.5t-43 -16.5t-43 16.5t-17 42.5zM339 827q0 27 16.5 44t43.5 17t43.5 -17
t16.5 -44q0 -26 -17 -42.5t-43 -16.5t-43 16.5t-17 42.5z" />
    <glyph glyph-name="afii10051" unicode="&#x402;" horiz-adv-x="784" 
d="M618 175v43q0 57 -27 83t-89 26q-33 0 -64.5 -7t-46.5 -14l-15 -7v-231l69 -8v-60h-261v56l70 19v544h-123l-28 -120h-80l13 201h558l13 -201h-80l-28 120h-123v-240q63 30 155 30q100 0 154.5 -45.5t54.5 -134.5v-63q0 -86 -41.5 -131t-120.5 -45q-25 0 -48.5 4.5
t-33.5 9.5l-11 5l9 78q22 -13 58 -13q12 0 24 2t18 4l7 1q17 32 17 94z" />
    <glyph glyph-name="afii10052" unicode="&#x403;" horiz-adv-x="560" 
d="M214 763l134 162l74 -74l-157 -111zM229 69l83 -4v-65h-274v56l69 19v557l-69 8v60h486l14 -201h-80l-29 120h-200v-550z" />
    <glyph glyph-name="afii10053" unicode="&#x404;" horiz-adv-x="585" 
d="M466 494l-30 109q-39 22 -103 22q-32 0 -59 -6.5t-38 -13.5l-12 -7q-5 -6 -13 -18.5t-22.5 -64.5t-18.5 -119h155l15 79h66v-240h-66l-15 79h-155q10 -240 169 -240q24 0 49 5t38 11l12 5l30 114h80l-14 -177q-83 -42 -189 -42q-143 0 -224.5 95t-81.5 266
q0 170 81.5 264.5t226.5 94.5q48 0 94.5 -10.5t68.5 -21.5l22 -10l14 -174h-80z" />
    <glyph glyph-name="afii10054" unicode="&#x405;" horiz-adv-x="543" 
d="M382 174q0 21 -7.5 38t-17.5 27.5t-30 21.5t-34 16.5t-42 15.5t-42 16q-77 30 -120 78t-43 133q0 190 231 190q56 0 103.5 -11t66.5 -23l19 -11v-171h-84l-15 109q-31 23 -92 23q-23 0 -46.5 -4t-35.5 -8l-12 -4q-19 -29 -19 -74q0 -19 4 -35t15 -29t19 -21t28 -17.5
t28.5 -13.5t35 -13.5t33.5 -12.5q85 -33 129 -79t44 -128q0 -197 -255 -197q-61 0 -110.5 11t-68.5 22l-20 11v173h80l22 -109q36 -22 109 -22q28 0 54.5 4t38.5 8l13 4q21 38 21 82z" />
    <glyph glyph-name="afii10055" unicode="&#x406;" horiz-adv-x="337" 
d="M229 68l70 -8v-60h-261v56l69 19v557l-69 8v60h261v-56l-70 -19v-557z" />
    <glyph glyph-name="afii10056" unicode="&#x407;" horiz-adv-x="337" 
d="M17 827q0 28 16.5 44.5t42.5 16.5q27 0 44 -16.5t17 -44.5q0 -26 -17 -42.5t-44 -16.5q-26 0 -42.5 16.5t-16.5 42.5zM201 827q0 28 16.5 44.5t42.5 16.5q27 0 44 -16.5t17 -44.5q0 -26 -17 -42.5t-44 -16.5q-26 0 -42.5 16.5t-16.5 42.5zM229 68l69 -8v-60h-261v56
l70 19v557l-70 8v60h261v-56l-69 -19v-557z" />
    <glyph glyph-name="afii10057" unicode="&#x408;" horiz-adv-x="446" 
d="M344 625v-437q0 -92 -52 -145t-147 -53q-29 0 -57 5t-41 11l-13 5l12 81q33 -18 85 -18q16 0 33.5 2t26.5 4l9 3q22 37 22 121v426l-83 5v65h275v-56z" />
    <glyph glyph-name="afii10058" unicode="&#x409;" horiz-adv-x="1012" 
d="M500 619h-194q0 -193 -10.5 -317.5t-34.5 -192.5t-54.5 -93.5t-78.5 -25.5q-23 0 -48 4.5t-39 9.5l-14 5l14 101q47 -24 120 -24q2 3 6 10t14 44t17.5 90.5t13.5 160t6 241.5l-70 8v60h543v-56l-69 -19v-221h117q108 0 173.5 -53t65.5 -149t-65.5 -149t-174.5 -53h-308
v56l70 19v544zM711 322h-89v-241h95q22 0 44.5 2.5t33.5 4.5l11 3q4 3 10.5 10.5t17.5 36t11 63.5q0 64 -32.5 92.5t-101.5 28.5z" />
    <glyph glyph-name="afii10059" unicode="&#x40a;" horiz-adv-x="1009" 
d="M497 632l-70 8v60h261v-56l-69 -19v-221h117q108 0 173 -53t65 -149t-65 -149t-174 -53h-308v56l70 19v247h-268v-254l70 -8v-60h-261v56l69 19v557l-69 8v60h261v-56l-70 -19v-222h268v229zM708 322h-89v-241h95q22 0 44.5 2.5t33.5 4.5l11 3q4 3 10.5 10.5t17.5 36
t11 63.5q0 63 -33 92t-101 29z" />
    <glyph glyph-name="afii10060" unicode="&#x40b;" horiz-adv-x="824" 
d="M376 68l69 -8v-60h-261v56l70 19v544h-123l-28 -120h-80l13 201h558l13 -201h-80l-28 120h-123v-240q62 30 152 30q98 0 151.5 -45.5t53.5 -134.5v-161l70 -8v-60h-261v56l69 19v143q0 57 -26.5 83t-85.5 26q-33 0 -63.5 -7t-45.5 -14l-14 -7v-231z" />
    <glyph glyph-name="afii10061" unicode="&#x40c;" horiz-adv-x="665" 
d="M268 763l134 162l74 -74l-157 -111zM229 68l70 -8v-60h-261v56l69 19v557l-69 8v60h261v-56l-70 -19v-237l75 15l164 229l-67 8v60h234v-56l-68 -19l-176 -246l194 -311l68 -8v-60h-170l-196 321h-58v-253z" />
    <glyph glyph-name="uni040D" unicode="&#x40d;" horiz-adv-x="729" 
d="M228 851l75 74l134 -162l-51 -23zM229 68l70 -8v-60h-261v56l69 19v557l-69 8v60h261v-56l-70 -19v-400l271 390v17l-70 8v60h261v-56l-69 -19v-557l69 -8v-60h-261v56l70 19v394l-271 -383v-18z" />
    <glyph glyph-name="afii10062" unicode="&#x40e;" horiz-adv-x="675" 
d="M346 753q-41 0 -73 12.5t-47.5 30.5t-25 35.5t-11.5 30.5l-2 12l81 7q8 -70 78 -70t78 70l81 -7q0 -5 -2 -13t-11.5 -29t-25 -37t-47.5 -29t-73 -13zM293 176l-221 456l-69 8v60h281v-56l-73 -17l126 -273q14 -30 23 -69h4q10 38 22 69l121 278l-69 8v60h224v-56l-66 -19
l-185 -404q-67 -145 -107.5 -187.5t-120.5 -42.5q-30 0 -56.5 4t-38.5 8l-11 4l19 107q52 -33 144 -33q25 26 53 95z" />
    <glyph glyph-name="afii10145" unicode="&#x40f;" horiz-adv-x="729" 
d="M314 0h-276v56l69 19v557l-69 8v60h261v-56l-70 -19v-544h271v551l-70 8v60h261v-56l-69 -19v-557l69 -8v-60h-275l-11 -153h-80z" />
    <glyph glyph-name="afii10017" unicode="&#x410;" horiz-adv-x="713" 
d="M294 700h118l14 -13l215 -619l69 -8v-60h-283v55l70 20l-43 128h-242l-45 -135l73 -8v-60h-237v56l66 19zM316 511l-77 -227h190l-74 227q-10 31 -18 70h-4q-10 -48 -17 -70z" />
    <glyph glyph-name="afii10018" unicode="&#x411;" horiz-adv-x="619" 
d="M107 632l-69 8v60h486l14 -201h-80l-29 120h-200v-215h118q108 0 173 -53t65 -149t-65 -149t-174 -53h-308v56l69 19v557zM318 322h-89v-241h96q22 0 44.5 2.5t33.5 4.5l11 3q4 3 10.5 10.5t17.5 36t11 63.5q0 64 -33 92.5t-102 28.5z" />
    <glyph glyph-name="afii10019" unicode="&#x412;" horiz-adv-x="624" 
d="M347 0h-309v56l69 19v558l-69 8v59h286q108 0 174 -49.5t66 -135.5q0 -51 -24.5 -91t-64.5 -60q-8 -2 -16 -2v-3q8 0 16 -2q51 -21 80.5 -64t29.5 -101q0 -89 -65.5 -140.5t-172.5 -51.5zM318 316h-89v-234h96q23 0 46 3t34 5l11 3q4 3 10 9.5t16.5 33.5t10.5 62
q0 62 -33 90t-102 28zM297 619h-68v-222h74q23 0 46 2.5t34 4.5l11 3q4 3 10 9.5t16.5 32t10.5 57.5q0 59 -33 86t-101 27z" />
    <glyph glyph-name="afii10020" unicode="&#x413;" horiz-adv-x="560" 
d="M229 69l83 -4v-65h-274v56l69 19v557l-69 8v60h486l14 -201h-80l-29 120h-200v-550z" />
    <glyph glyph-name="afii10021" unicode="&#x414;" horiz-adv-x="719" 
d="M584 0h-448l-23 -153h-80v234h88q6 9 13.5 24.5t20 58.5t21.5 99t16 153.5t7 215.5l-70 8v60h549v-56l-70 -19v-544h78v-234h-80zM486 619h-199q0 -384 -73 -538h272v538z" />
    <glyph glyph-name="afii10022" unicode="&#x415;" horiz-adv-x="594" 
d="M547 0h-509v56l69 19v557l-69 8v60h496l13 -184h-80l-28 103h-210v-223h102l15 79h67v-240h-67l-15 79h-102v-233h222l29 106h80z" />
    <glyph glyph-name="afii10024" unicode="&#x416;" horiz-adv-x="959" 
d="M418 388v244l-69 8v60h261v-56l-70 -19v-237l74 15l152 229l-67 8v60h234v-56l-68 -19l-165 -246l179 -311l68 -8v-60h-170l-180 321h-57v-253l70 -8v-60h-261v56l69 19v246h-56l-180 -321h-171v60l68 8l180 311l-165 246l-68 19v56h234v-60l-67 -8l152 -229z" />
    <glyph glyph-name="afii10025" unicode="&#x417;" horiz-adv-x="562" 
d="M258 75q25 0 49.5 3t36.5 6l12 3q4 3 9.5 10t15 34.5t9.5 61.5q0 64 -32.5 93.5t-101.5 29.5h-66l-11 11v70h61q27 0 52.5 3.5t37.5 7.5l13 4q26 27 26 97q0 117 -117 117q-26 0 -51.5 -5t-38.5 -11l-13 -5l-30 -114h-80l14 177q84 42 203 42q117 0 181 -50.5t64 -142.5
q0 -53 -23.5 -92.5t-65.5 -60.5q-6 -2 -16 -2v-3q8 0 16 -2q50 -21 80.5 -65t30.5 -102q0 -93 -74.5 -146.5t-195.5 -53.5q-53 0 -103.5 10.5t-74.5 21.5l-24 10l-14 174h80l30 -111q38 -20 111 -20z" />
    <glyph glyph-name="afii10026" unicode="&#x418;" horiz-adv-x="729" 
d="M229 68l70 -8v-60h-261v56l69 19v557l-69 8v60h261v-56l-70 -19v-400l271 390v17l-70 8v60h261v-56l-69 -19v-557l69 -8v-60h-261v56l70 19v394l-271 -383v-18z" />
    <glyph glyph-name="afii10027" unicode="&#x419;" horiz-adv-x="729" 
d="M365 753q-41 0 -73 12.5t-47.5 30.5t-25 35.5t-11.5 30.5l-2 12l80 7q4 -29 22.5 -49.5t56.5 -20.5t56 20.5t22 49.5l80 -7q0 -5 -2 -13t-11.5 -29t-25 -37t-47 -29t-72.5 -13zM229 68l70 -8v-60h-261v56l69 19v557l-69 8v60h261v-56l-70 -19v-400l271 390v17l-70 8v60
h261v-56l-69 -19v-557l69 -8v-60h-261v56l70 19v394l-271 -383v-18z" />
    <glyph glyph-name="afii10028" unicode="&#x41a;" horiz-adv-x="665" 
d="M229 68l70 -8v-60h-261v56l69 19v557l-69 8v60h261v-56l-70 -19v-237l75 15l164 229l-67 8v60h234v-56l-68 -19l-176 -246l194 -311l68 -8v-60h-170l-196 321h-58v-253z" />
    <glyph glyph-name="afii10029" unicode="&#x41b;" horiz-adv-x="716" 
d="M487 619h-195q0 -201 -11.5 -328.5t-36.5 -192t-55.5 -86.5t-77.5 -22q-24 0 -47.5 4.5t-35.5 9.5l-11 5l14 101q45 -25 117 -25q2 3 6 10t13.5 44t17 90.5t13.5 160t6 242.5l-69 8v60h543v-56l-69 -19v-557l69 -8v-60h-261v56l70 19v544z" />
    <glyph glyph-name="afii10030" unicode="&#x41c;" horiz-adv-x="896" 
d="M179 68l74 -8l-1 -60h-237v56l73 19l47 557l-73 8v60h224l149 -436q14 -47 17 -64h5q5 34 16 67l148 433h213v-56l-69 -19l46 -557l70 -8v-60h-262v56l70 19l-36 434q-2 22 -2 42h-4q-2 -21 -9 -42l-144 -431h-106l-14 14l-146 417q-8 20 -8 42h-4q0 -6 -0.5 -21
t-0.5 -21z" />
    <glyph glyph-name="afii10031" unicode="&#x41d;" horiz-adv-x="729" 
d="M229 68l70 -8v-60h-261v56l69 19v557l-69 8v60h261v-56l-70 -19v-229h271v236l-70 8v60h261v-56l-69 -19v-557l69 -8v-60h-261v56l70 19v239h-271v-246z" />
    <glyph glyph-name="afii10032" unicode="&#x41e;" horiz-adv-x="656" 
d="M38 351q0 168 79.5 263.5t210.5 95.5t210 -95.5t79 -264.5t-79 -264.5t-209 -95.5q-132 0 -211.5 96t-79.5 265zM171 350q0 -143 39.5 -209.5t123.5 -66.5q28 0 53 6.5t35 13.5l11 6q6 7 14.5 22.5t23 79.5t14.5 147q0 144 -40 210t-122 66q-28 0 -53 -6.5t-36 -12.5
l-12 -7q-2 -2 -5.5 -7.5t-12.5 -26t-15.5 -46.5t-12 -71t-5.5 -98z" />
    <glyph glyph-name="afii10033" unicode="&#x41f;" horiz-adv-x="729" 
d="M229 68l70 -8v-60h-261v56l69 19v557l-69 8v60h653v-56l-69 -19v-557l69 -8v-60h-261v56l70 19v544h-271v-551z" />
    <glyph glyph-name="afii10034" unicode="&#x420;" horiz-adv-x="613" 
d="M229 69l83 -4v-65h-274v56l69 19v557l-69 8v60h293q109 0 174 -54.5t65 -152.5t-65 -152.5t-173 -54.5h-103v-217zM304 619h-75v-251h81q22 0 44.5 2.5t33.5 5.5l11 2q4 4 10.5 11.5t17.5 37.5t11 66q0 66 -33 96t-101 30z" />
    <glyph glyph-name="afii10035" unicode="&#x421;" horiz-adv-x="585" 
d="M466 494l-30 109q-39 22 -103 22q-32 0 -59 -6.5t-38 -13.5l-12 -7q-2 -2 -5.5 -7.5t-13 -26t-16.5 -46t-12.5 -71t-5.5 -97.5q0 -141 41 -208.5t127 -67.5q24 0 49 5t38 11l12 5l30 114h80l-14 -177q-83 -42 -189 -42q-143 0 -224.5 95t-81.5 266q0 170 81.5 264.5
t226.5 94.5q48 0 94.5 -10.5t68.5 -21.5l22 -10l14 -174h-80z" />
    <glyph glyph-name="afii10036" unicode="&#x422;" horiz-adv-x="629" 
d="M376 68l69 -8v-60h-261v56l70 19v544h-123l-28 -120h-80l13 201h558l13 -201h-80l-28 120h-123v-551z" />
    <glyph glyph-name="afii10037" unicode="&#x423;" horiz-adv-x="665" 
d="M293 176l-221 456l-69 8v60h281v-56l-73 -17l126 -273q14 -30 23 -69h4q10 38 22 69l121 278l-69 8v60h224v-56l-66 -19l-185 -404q-67 -145 -107.5 -187.5t-120.5 -42.5q-30 0 -56.5 4t-38.5 8l-11 4l19 107q52 -33 144 -33q25 26 53 95z" />
    <glyph glyph-name="afii10038" unicode="&#x424;" horiz-adv-x="771" 
d="M36 351q0 118 67 171t222 61v49l-70 8v60h261v-56l-69 -19v-42q155 -8 222 -61t67 -172t-67 -172.5t-222 -61.5v-48l69 -8v-60h-261v56l70 19v41q-155 8 -222 62t-67 173zM611 349q0 73 -37.5 107.5t-126.5 41.5v-299q34 2 63 6t41 7l12 3q5 4 13 12.5t21.5 43t13.5 78.5
zM162 350q0 -72 37 -107t126 -42v298q-33 -2 -62.5 -5.5t-42.5 -6.5l-12 -3q-5 -4 -12.5 -12.5t-20.5 -43t-13 -78.5z" />
    <glyph glyph-name="afii10039" unicode="&#x425;" horiz-adv-x="687" 
d="M591 625l-170 -283l188 -274l67 -8v-60h-288v56l76 17l-119 191q-1 2 -10 15.5t-13 21.5h-4q-5 -11 -21 -38l-123 -195l68 -8v-60h-231v56l71 19l185 290l-177 267l-67 8v60h289v-56l-83 -17l118 -185q14 -22 22 -38h3q8 18 20 39l106 189l-67 8v60h230v-56z" />
    <glyph glyph-name="afii10040" unicode="&#x426;" horiz-adv-x="724" 
d="M589 0h-551v56l69 19v557l-69 8v60h261v-56l-70 -19v-544h262v551l-69 8v60h261v-56l-70 -19v-544h78v-234h-80z" />
    <glyph glyph-name="afii10041" unicode="&#x427;" horiz-adv-x="685" 
d="M213 625v-149q0 -58 27 -84t89 -26q33 0 64.5 7t46.5 14l15 7v238l-69 8v60h261v-56l-70 -19v-557l70 -8v-60h-261v56l69 19v239q-63 -30 -155 -30q-100 0 -154.5 45.5t-54.5 134.5v168l-70 8v60h261v-56z" />
    <glyph glyph-name="afii10042" unicode="&#x428;" horiz-adv-x="1046" 
d="M817 632l-70 8v60h261v-56l-69 -19v-557l69 -8v-60h-970v56l69 19v557l-69 8v60h261v-56l-70 -19v-544h233v551l-70 8v60h262v-56l-70 -19v-544h233v551z" />
    <glyph glyph-name="afii10043" unicode="&#x429;" horiz-adv-x="1049" 
d="M914 0h-876v56l69 19v557l-69 8v60h261v-56l-70 -19v-544h233v551l-70 8v60h262v-56l-70 -19v-544h233v551l-70 8v60h261v-56l-69 -19v-544h77v-234h-80z" />
    <glyph glyph-name="afii10044" unicode="&#x42a;" horiz-adv-x="759" 
d="M178 56l69 19v544h-116l-28 -120h-80l13 201h403v-56l-70 -19v-221h118q108 0 173 -53t65 -149t-65 -149t-174 -53h-308v56zM458 322h-89v-241h96q22 0 44.5 2.5t33.5 4.5l11 3q4 3 10.5 10.5t17.5 36t11 63.5q0 64 -33 92.5t-102 28.5z" />
    <glyph glyph-name="afii10045" unicode="&#x42b;" horiz-adv-x="912" 
d="M107 632l-69 8v60h261v-56l-70 -19v-221h118q108 0 173 -53t65 -149t-65 -149t-174 -53h-308v56l69 19v557zM318 322h-89v-241h96q22 0 44.5 2.5t33.5 4.5l11 3q4 3 10.5 10.5t17.5 36t11 63.5q0 64 -33 92.5t-102 28.5zM805 68l69 -8v-60h-261v56l70 19v557l-70 8v60
h261v-56l-69 -19v-557z" />
    <glyph glyph-name="afii10046" unicode="&#x42c;" horiz-adv-x="619" 
d="M107 632l-69 8v60h261v-56l-70 -19v-221h118q108 0 173 -53t65 -149t-65 -149t-174 -53h-308v56l69 19v557zM318 322h-89v-241h96q22 0 44.5 2.5t33.5 4.5l11 3q4 3 10.5 10.5t17.5 36t11 63.5q0 64 -33 92.5t-102 28.5z" />
    <glyph glyph-name="afii10047" unicode="&#x42d;" horiz-adv-x="585" 
d="M119 206l30 -109q39 -22 103 -22q32 0 59 6.5t39 13.5l11 7q5 6 13 19.5t23 68t18 124.5h-129l-15 -79h-66v240h66l15 -79h129q-13 230 -169 230q-24 0 -49 -5t-37 -11l-13 -5l-30 -114h-80l14 177q83 42 189 42q143 0 224.5 -95t81.5 -266q0 -170 -81.5 -264.5
t-226.5 -94.5q-48 0 -94 10.5t-68 21.5l-23 10l-14 174h80z" />
    <glyph glyph-name="afii10048" unicode="&#x42e;" horiz-adv-x="935" 
d="M229 68l70 -8v-60h-261v56l69 19v557l-69 8v60h261v-56l-70 -19v-229h119q10 148 84.5 231t190.5 83q124 0 199.5 -95.5t75.5 -264.5t-75.5 -264.5t-199.5 -95.5q-118 0 -192.5 85.5t-82.5 238.5h-119v-246zM479 348q0 -141 36.5 -207.5t113.5 -66.5q24 0 46.5 6t32.5 12
l10 6q5 7 13 23t21.5 81t13.5 149q0 143 -36 208.5t-112 65.5q-24 0 -47 -6t-34 -12l-11 -6q-5 -7 -13 -22.5t-21 -80.5t-13 -150z" />
    <glyph glyph-name="afii10049" unicode="&#x42f;" horiz-adv-x="630" 
d="M522 68l70 -8v-60h-261v56l69 19v231h-83l-142 -306h-164v60l68 8l124 246q-74 18 -116 67t-42 121q0 91 65.5 144.5t173.5 53.5h308v-56l-70 -19v-557zM311 388h89v231h-95q-22 0 -44.5 -2.5t-33.5 -4.5l-11 -3q-4 -3 -10.5 -10t-17.5 -34t-11 -60q0 -61 33 -89t101 -28
z" />
    <glyph glyph-name="afii10065" unicode="&#x430;" horiz-adv-x="541" 
d="M43 125q0 66 41 108.5t123 51.5l134 14v56q0 51 -20.5 74.5t-70.5 23.5q-21 0 -38.5 -3.5t-25.5 -7.5l-7 -4l-15 -80h-87v136q6 4 19 10.5t58 17.5t97 11q112 0 160 -47.5t48 -144.5v-233q0 -33 33 -33h34l7 -54q-31 -27 -91 -27q-76 0 -94 56q-70 -59 -164 -59
q-68 0 -104.5 35.5t-36.5 98.5zM154 140q0 -66 72 -66q60 0 115 41v121l-167 -32q-20 -27 -20 -64z" />
    <glyph glyph-name="afii10066" unicode="&#x431;" horiz-adv-x="563" 
d="M162 575q-20 -44 -21 -137h2q61 90 168 90q90 0 153 -69t63 -199q0 -128 -64.5 -198.5t-182.5 -70.5q-57 0 -99 18.5t-74 60.5t-48 115t-16 177q0 55 5 100.5t12.5 79.5t22 60.5t28 44t35.5 31t40 21t46.5 14t49.5 9t54.5 7t56.5 8.5q18 12 26 30l57 -26q-10 -38 -40 -62
t-68.5 -34.5t-77.5 -18t-75 -19.5t-53 -32zM289 452q-68 0 -114 -57q-5 -27 -5 -81q0 -131 32.5 -187t92.5 -56q18 0 35.5 4.5t25.5 8.5l9 4q4 5 10 16.5t16 55.5t10 100q0 192 -112 192z" />
    <glyph glyph-name="afii10067" unicode="&#x432;" horiz-adv-x="557" 
d="M37 0v53l60 19v387l-60 8v57h270q87 0 138 -35.5t51 -98.5q0 -77 -67 -114q91 -37 91 -124q0 -72 -55.5 -112t-148.5 -40h-279zM309 235h-93v-161h93q23 0 42 3t27 5l7 3q14 19 14 63q0 46 -21 66.5t-69 20.5zM300 449h-84v-140h84q20 0 37 2.5t24 4.5l7 3q13 16 13 54
q0 39 -19.5 57.5t-61.5 18.5z" />
    <glyph glyph-name="afii10068" unicode="&#x433;" horiz-adv-x="475" 
d="M349 449h-133v-383l90 -4v-62h-269v53l60 19v387l-60 8v57h411v-166h-84z" />
    <glyph glyph-name="afii10069" unicode="&#x434;" horiz-adv-x="607" 
d="M475 0h-347l-22 -133h-80v207h75q3 2 7 8t14.5 34t19 66.5t15 112t6.5 164.5l-61 8v57h465v-53l-60 -19v-378h70v-207h-80zM247 449q0 -267 -51 -375h192v375h-141z" />
    <glyph glyph-name="afii10070" unicode="&#x435;" horiz-adv-x="517" 
d="M444 105l23 -62q-8 -6 -22.5 -14.5t-61 -23t-94.5 -14.5q-112 0 -182.5 72.5t-70.5 196.5q0 122 68 197.5t177 75.5q102 0 156.5 -69t42.5 -197l-34 -24h-285q1 -86 40.5 -127.5t107.5 -41.5q32 0 65.5 8t51.5 16zM196 434q-35 -47 -35 -130l215 15q4 133 -101 133
q-21 0 -40.5 -4.5t-28.5 -9.5z" />
    <glyph glyph-name="afii10072" unicode="&#x436;" horiz-adv-x="807" 
d="M198 283l-121 169l-60 19v53h217v-57l-52 -8l105 -145l57 -10v155l-60 8v57h239v-53l-60 -19v-148l57 10l106 145l-53 8v57h217v-53l-60 -19l-121 -169l130 -219l57 -8v-56h-146l-138 230h-49v-166l60 -8v-56h-239v53l60 19v158h-49l-138 -230h-146v56l57 8z" />
    <glyph glyph-name="afii10073" unicode="&#x437;" horiz-adv-x="496" 
d="M235 71q25 0 46 2.5t30 5.5l9 3q18 20 18 65q0 86 -90 86h-59l-11 11v63h61q20 0 37.5 2.5t24.5 4.5l7 3q12 20 12 54q0 82 -96 82q-20 0 -36 -3.5t-22 -6.5l-6 -3l-15 -82h-87v137q7 4 20.5 10.5t60 17t98.5 10.5q198 0 198 -137q0 -84 -68 -122q91 -37 91 -132
q0 -151 -224 -151q-56 0 -102 9.5t-64 18.5l-17 9v137h87l15 -79q21 -15 82 -15z" />
    <glyph glyph-name="afii10074" unicode="&#x438;" horiz-adv-x="628" 
d="M276 471l-60 -19v-226q0 -25 -5 -45h5q7 22 24 45l172 220v13l-60 8v57h239v-53l-60 -19v-388l60 -8v-56h-239v53l60 19v226q0 27 4 44h-4q-10 -27 -23 -44l-173 -220v-14l60 -8v-56h-239v53l60 19v387l-60 8v57h239v-53z" />
    <glyph glyph-name="afii10075" unicode="&#x439;" horiz-adv-x="628" 
d="M313 600q-41 0 -73 12.5t-47.5 30t-25 35t-11.5 30.5l-2 12l81 8q9 -71 78 -71t78 71l81 -8q0 -5 -2 -13t-11.5 -28.5t-25 -36.5t-47.5 -29t-73 -13zM276 471l-60 -19v-226q0 -25 -5 -45h5q7 22 24 45l172 220v13l-60 8v57h239v-53l-60 -19v-388l60 -8v-56h-239v53l60 19
v226q0 27 4 44h-4q-10 -27 -23 -44l-173 -220v-14l60 -8v-56h-239v53l60 19v387l-60 8v57h239v-53z" />
    <glyph glyph-name="afii10076" unicode="&#x43a;" horiz-adv-x="573" 
d="M209 64l60 -8v-56h-239v53l60 19v387l-60 8v57h239v-53l-60 -19v-148l67 10l114 145l-56 8v57h216v-53l-59 -19l-131 -169l145 -219l57 -8v-56h-148l-153 230h-52v-166z" />
    <glyph glyph-name="afii10077" unicode="&#x43b;" horiz-adv-x="599" 
d="M163 459l-61 8v57h460v-53l-60 -19v-388l60 -8v-56h-239v53l60 19v377h-136q0 -244 -41.5 -351t-128.5 -107q-15 0 -32 2t-27 5l-9 2l13 98q26 -18 87 -18q2 3 5.5 9.5t13 35t16.5 66.5t13 109.5t6 158.5z" />
    <glyph glyph-name="afii10078" unicode="&#x43c;" horiz-adv-x="724" 
d="M679 471l-61 -19l32 -388l60 -8v-56h-239v53l60 19l-21 267q-4 41 0 69h-6q-5 -38 -14 -69l-88 -292h-104l-11 11l-91 281q-11 42 -12 69h-6q1 -11 -2 -69l-20 -275l60 -8v-56h-201v53l60 19l28 387l-60 8v57h202l98 -291q13 -40 18 -74h5q6 37 16 74l98 291h199v-53z
" />
    <glyph glyph-name="afii10079" unicode="&#x43d;" horiz-adv-x="628" 
d="M276 471l-60 -19v-145h196v152l-60 8v57h239v-53l-60 -19v-388l60 -8v-56h-239v53l60 19v157h-196v-165l60 -8v-56h-239v53l60 19v387l-60 8v57h239v-53z" />
    <glyph glyph-name="afii10080" unicode="&#x43e;" horiz-adv-x="556" 
d="M36 262q0 127 66 199t176 72t176 -72t66 -199t-65.5 -199t-175.5 -72t-176.5 72.5t-66.5 198.5zM162 264q0 -99 29.5 -146t91.5 -47q20 0 39.5 4.5t28.5 8.5l9 4q4 5 10 16.5t15.5 55.5t9.5 99q0 100 -29.5 146.5t-90.5 46.5q-20 0 -40 -4t-29 -8l-10 -4
q-4 -5 -9.5 -16.5t-15 -55.5t-9.5 -100z" />
    <glyph glyph-name="afii10081" unicode="&#x43f;" horiz-adv-x="628" 
d="M97 459l-60 8v57h554v-53l-60 -19v-388l60 -8v-56h-239v53l60 19v377h-196v-385l60 -8v-56h-239v53l60 19v387z" />
    <glyph glyph-name="afii10082" unicode="&#x440;" horiz-adv-x="577" 
d="M25 464v52l164 16l11 -11l-5 -49l4 -4q68 65 151 65q84 0 137 -70t53 -188q0 -134 -66 -209t-175 -75q-52 0 -95 17v-172l91 -4v-62h-270v53l60 19v597zM414 248q0 105 -26.5 152.5t-81.5 47.5q-62 0 -102 -53v-297q30 -27 94 -27q24 0 45 4.5t29 8.5l9 5q33 51 33 159z
" />
    <glyph glyph-name="afii10083" unicode="&#x441;" horiz-adv-x="496" 
d="M365 358l-15 80q-23 14 -71 14q-24 0 -45.5 -5t-30.5 -9l-9 -5q-33 -49 -33 -155q0 -115 37 -159.5t103 -44.5q34 0 68 8t51 16l17 7l23 -62q-8 -6 -22.5 -14.5t-60.5 -23t-93 -14.5q-111 0 -179.5 73t-68.5 198q0 121 66 196t187 75q43 0 83.5 -9.5t59.5 -19.5l20 -9
v-137h-87z" />
    <glyph glyph-name="afii10084" unicode="&#x442;" horiz-adv-x="541" 
d="M417 449h-87v-385l60 -8v-56h-239v53l60 19v377h-87l-15 -91h-83v166h489v-166h-83z" />
    <glyph glyph-name="afii10085" unicode="&#x443;" horiz-adv-x="590" 
d="M257 -20l-194 479l-58 8v57h256v-53l-66 -17l102 -265q9 -22 19 -70h5q11 46 20 70l93 270l-62 8v57h210v-53l-55 -19l-169 -452q-53 -143 -96 -191t-123 -48q-24 0 -48 3.5t-35 6.5l-12 3l18 100q43 -21 135 -21q38 47 60 127z" />
    <glyph glyph-name="afii10086" unicode="&#x444;" horiz-adv-x="773" 
d="M494 -9q-23 0 -48 5v-182l61 -8v-56h-240v60l60 19v166q-20 -4 -48 -4q-110 0 -176.5 72.5t-66.5 198.5q0 127 66 199t178 72q27 0 47 -4v136l-60 25v53l168 16l11 -11v-221q22 6 49 6q110 0 176 -72.5t66 -199.5t-66 -198.5t-177 -71.5zM491 452q-25 0 -45 -5v-364
q21 -12 53 -12q21 0 40.5 4.5t28.5 8.5l9 4q4 5 10 16.5t15.5 55.5t9.5 99q0 100 -30 146.5t-91 46.5zM162 264q0 -99 29.5 -146t91.5 -47q24 0 44 5v364q-21 12 -51 12q-21 0 -41 -4t-29 -8l-10 -4q-4 -5 -9.5 -16.5t-15 -55.5t-9.5 -100z" />
    <glyph glyph-name="afii10087" unicode="&#x445;" horiz-adv-x="578" 
d="M490 452l-127 -197l144 -191l56 -8v-56h-259v53l68 17l-77 111q-19 29 -22 34h-4q-9 -18 -22 -36l-79 -115l59 -8v-56h-210v53l60 19l138 202l-135 185l-56 8v57h259v-53l-68 -17l71 -107q14 -20 23 -36h3q10 22 19 37l69 111l-60 8v57h211v-53z" />
    <glyph glyph-name="afii10088" unicode="&#x446;" horiz-adv-x="628" 
d="M496 0h-459v53l60 19v387l-60 8v57h239v-53l-60 -19v-378h193v385l-61 8v57h239v-53l-60 -19v-378h71v-207h-80z" />
    <glyph glyph-name="afii10089" unicode="&#x447;" horiz-adv-x="597" 
d="M561 471l-61 -19v-388l61 -8v-56h-240v53l61 19v158q-78 -39 -155 -39q-148 0 -148 155v113l-61 8v57h240v-53l-61 -19v-101q0 -43 18 -60t62 -17q63 0 105 25v160l-60 8v57h239v-53z" />
    <glyph glyph-name="afii10090" unicode="&#x448;" horiz-adv-x="889" 
d="M792 64l60 -8v-56h-815v53l60 19v387l-60 8v57h236v-53l-57 -19v-378h169v385l-57 8v57h233v-53l-57 -19v-378h169v385l-57 8v57h236v-53l-60 -19v-388z" />
    <glyph glyph-name="afii10091" unicode="&#x449;" horiz-adv-x="893" 
d="M761 0h-724v53l60 19v387l-60 8v57h236v-53l-57 -19v-378h169v385l-57 8v57h233v-53l-57 -19v-378h169v385l-57 8v57h236v-53l-60 -19v-378h70v-207h-80z" />
    <glyph glyph-name="afii10092" unicode="&#x44a;" horiz-adv-x="654" 
d="M26 524h361v-53l-60 -19v-138h87q94 0 149.5 -42t55.5 -114q0 -73 -56 -115.5t-149 -42.5h-266v53l60 19v377h-84l-15 -91h-83v166zM407 240h-80v-166h80q24 0 43.5 3t27.5 5l7 3q15 21 15 65q0 46 -22 68t-71 22z" />
    <glyph glyph-name="afii10093" unicode="&#x44b;" horiz-adv-x="802" 
d="M37 0v53l60 19v387l-60 8v57h239v-53l-60 -19v-138h86q94 0 149.5 -42t55.5 -114q0 -74 -56 -116t-149 -42h-265zM295 240h-79v-166h79q24 0 43.5 3t27.5 5l8 3q15 21 15 65q0 46 -22.5 68t-71.5 22zM765 471l-60 -19v-388l60 -8v-56h-239v53l60 19v387l-60 8v57h239v-53
z" />
    <glyph glyph-name="afii10094" unicode="&#x44c;" horiz-adv-x="542" 
d="M37 0v53l60 19v387l-60 8v57h239v-53l-60 -19v-138h86q94 0 149.5 -42t55.5 -114q0 -74 -56 -116t-149 -42h-265zM295 240h-79v-166h79q24 0 43.5 3t27.5 5l8 3q15 21 15 65q0 46 -22.5 68t-71.5 22z" />
    <glyph glyph-name="afii10095" unicode="&#x44d;" horiz-adv-x="500" 
d="M176 231v74h164q-14 148 -129 148q-17 0 -32.5 -3.5t-22.5 -6.5l-6 -3l-15 -82h-87v137q67 38 171 38q119 0 182 -65.5t63 -193.5q0 -133 -65.5 -208t-187.5 -75q-43 0 -84 9.5t-60 18.5l-19 9v137h87l15 -79q25 -15 71 -15q24 0 45.5 4.5t31.5 9.5l10 5q30 41 34 141
h-166z" />
    <glyph glyph-name="afii10096" unicode="&#x44e;" horiz-adv-x="795" 
d="M276 471l-60 -19v-145h82q11 106 73 166t157 60q106 0 169 -72t63 -199t-63 -199t-168 -72q-98 0 -161 63.5t-71 174.5h-81v-165l60 -8v-56h-239v53l60 19v387l-60 8v57h239v-53zM421 266q0 -101 27.5 -148t86.5 -47q18 0 35.5 4.5t25.5 8.5l8 4q31 49 31 170
q0 102 -27 148t-85 46q-18 0 -36 -4t-27 -8l-8 -4q-31 -49 -31 -170z" />
    <glyph glyph-name="afii10097" unicode="&#x44f;" horiz-adv-x="559" 
d="M22 56l57 8l83 171q-112 34 -112 138q0 70 56 110.5t149 40.5h267v-53l-60 -19v-388l60 -8v-56h-239v53l60 19v151h-81l-96 -223h-144v56zM168 379q0 -42 22 -62t72 -20h81v152h-81q-24 0 -43.5 -2.5t-27.5 -4.5l-8 -3q-15 -18 -15 -60z" />
    <glyph glyph-name="uni0450" unicode="&#x450;" horiz-adv-x="517" 
d="M444 105l23 -62q-8 -6 -22.5 -14.5t-61 -23t-94.5 -14.5q-112 0 -182.5 72.5t-70.5 196.5q0 122 68 197.5t177 75.5q102 0 156.5 -69t42.5 -197l-34 -24h-285q1 -86 40.5 -127.5t107.5 -41.5q32 0 65.5 8t51.5 16zM196 434q-35 -47 -35 -130l215 15q4 133 -101 133
q-21 0 -40.5 -4.5t-28.5 -9.5zM112 686l74 74l134 -162l-51 -24z" />
    <glyph glyph-name="afii10071" unicode="&#x451;" horiz-adv-x="517" 
d="M110 667q0 27 16.5 43.5t42.5 16.5q27 0 44 -16.5t17 -43.5q0 -26 -17 -43t-44 -17q-26 0 -42.5 17t-16.5 43zM307 667q0 27 16.5 43.5t42.5 16.5q27 0 44 -16.5t17 -43.5q0 -26 -17 -43t-44 -17q-26 0 -42.5 17t-16.5 43zM444 105l23 -62q-8 -6 -22.5 -14.5t-61 -23
t-94.5 -14.5q-112 0 -182.5 72.5t-70.5 196.5q0 122 68 197.5t177 75.5q102 0 156.5 -69t42.5 -197l-34 -24h-285q1 -86 40.5 -127.5t107.5 -41.5q32 0 65.5 8t51.5 16zM196 434q-35 -47 -35 -130l215 15q4 133 -101 133q-21 0 -40.5 -4.5t-28.5 -9.5z" />
    <glyph glyph-name="afii10099" unicode="&#x452;" horiz-adv-x="606" 
d="M30 593v60l67 14l18 83h94v-83h145v-74h-145v-69l-5 -43l3 -2q72 54 171 54q79 0 112.5 -41.5t33.5 -124.5v-367q0 -130 -46.5 -184.5t-143.5 -54.5q-23 0 -46 2.5t-34 4.5l-12 3l14 92q37 -22 82 -22q11 0 22 1.5t16 3.5l6 2q23 36 23 152v358q0 50 -17 71t-62 21
q-64 0 -117 -41v-345l61 -8v-56h-240v53l60 19v521h-60z" />
    <glyph glyph-name="afii10100" unicode="&#x453;" horiz-adv-x="475" 
d="M172 598l135 162l74 -74l-157 -112zM349 449h-133v-383l90 -4v-62h-269v53l60 19v387l-60 8v57h411v-166h-84z" />
    <glyph glyph-name="afii10101" unicode="&#x454;" horiz-adv-x="496" 
d="M365 358l-15 80q-23 14 -70 14q-24 0 -46 -5t-32 -9l-10 -5q-28 -40 -33 -128h211v-74h-210q8 -88 45.5 -122.5t97.5 -34.5q32 0 65.5 8t51.5 16l17 7l23 -62q-8 -6 -22.5 -14.5t-60.5 -23t-92 -14.5q-112 0 -180.5 72.5t-68.5 198.5q0 122 66 196.5t188 74.5
q42 0 82.5 -9.5t59.5 -19.5l20 -9v-137h-87z" />
    <glyph glyph-name="afii10102" unicode="&#x455;" horiz-adv-x="470" 
d="M328 132q0 41 -52 63q-16 7 -77 26q-77 25 -114 59t-37 105q0 148 186 148q49 0 91 -9.5t60 -19.5l18 -9v-134h-86l-15 80q-25 15 -71 15q-18 0 -35.5 -3t-25.5 -6l-9 -3q-12 -20 -12 -45q0 -35 28.5 -53t93.5 -39q80 -26 118.5 -59t38.5 -103q0 -155 -205 -155
q-52 0 -96 9t-62 19l-18 9v135h87l15 -80q29 -13 82 -13q23 0 43.5 2.5t29.5 5.5l9 3q15 24 15 52z" />
    <glyph glyph-name="afii10103" unicode="&#x456;" horiz-adv-x="298" 
d="M33 464v52l168 16l11 -11v-457l61 -8v-56h-240v53l61 19v367zM67 682q0 34 21.5 55t55.5 21q35 0 56.5 -21t21.5 -55t-21.5 -55t-56.5 -21q-34 0 -55.5 21t-21.5 55z" />
    <glyph glyph-name="afii10104" unicode="&#x457;" horiz-adv-x="298" 
d="M-15 667q0 27 17 43.5t43 16.5t43 -16.5t17 -43.5q0 -26 -17 -43t-43 -17t-43 17t-17 43zM182 667q0 27 17 43.5t43 16.5t43 -16.5t17 -43.5q0 -26 -17 -43t-43 -17t-43 17t-17 43zM33 464v52l168 16l11 -11v-457l61 -8v-56h-240v53l61 19v367z" />
    <glyph glyph-name="afii10105" unicode="&#x458;" horiz-adv-x="284" 
d="M63 682q0 34 22 55t56 21q35 0 56.5 -21t21.5 -55t-21.5 -55t-56.5 -21q-34 0 -56 21t-22 55zM30 464v52l168 16l11 -11v-521q0 -130 -46.5 -184.5t-143.5 -54.5q-23 0 -46 2.5t-35 4.5l-11 3l13 92q37 -22 83 -22q11 0 22 1.5t17 3.5l5 2q23 36 23 152v439z" />
    <glyph glyph-name="afii10106" unicode="&#x459;" horiz-adv-x="819" 
d="M588 0h-265v53l60 19v377h-136q0 -244 -41.5 -351t-128.5 -107q-15 0 -32 2t-27 5l-9 2l13 98q26 -18 87 -18q2 3 5.5 9.5t13 35t16.5 66.5t13 109.5t6 158.5l-61 8v57h460v-53l-60 -19v-138h86q94 0 148 -42t54 -115q0 -74 -54.5 -115.5t-147.5 -41.5zM582 240h-80v-166
h80q22 0 41 3t27 5l7 3q15 22 15 65q0 90 -90 90z" />
    <glyph glyph-name="afii10107" unicode="&#x45a;" horiz-adv-x="848" 
d="M617 0h-265v53l60 19v168h-196v-176l60 -8v-56h-239v53l60 19v387l-60 8v57h239v-53l-60 -19v-138h196v145l-60 8v57h239v-53l-60 -19v-138h86q94 0 148 -42t54 -115q0 -74 -54.5 -115.5t-147.5 -41.5zM610 240h-79v-166h79q23 0 42 3t26 5l8 3q15 22 15 65q0 90 -91 90z
" />
    <glyph glyph-name="afii10108" unicode="&#x45b;" horiz-adv-x="606" 
d="M30 593v60l67 14l18 83h94v-83h145v-74h-145v-69l-5 -43l3 -2q72 54 171 54q79 0 112.5 -41.5t33.5 -124.5v-303l60 -8v-56h-240v53l61 19v286q0 50 -17 71t-62 21q-64 0 -117 -41v-345l61 -8v-56h-240v53l60 19v521h-60z" />
    <glyph glyph-name="afii10109" unicode="&#x45c;" horiz-adv-x="573" 
d="M209 64l60 -8v-56h-239v53l60 19v387l-60 8v57h239v-53l-60 -19v-148l67 10l114 145l-56 8v57h216v-53l-59 -19l-131 -169l145 -219l57 -8v-56h-148l-153 230h-52v-166zM224 598l135 162l74 -74l-158 -112z" />
    <glyph glyph-name="uni045D" unicode="&#x45d;" horiz-adv-x="628" 
d="M184 686l74 74l135 -162l-51 -24zM276 471l-60 -19v-226q0 -25 -5 -45h5q7 22 24 45l172 220v13l-60 8v57h239v-53l-60 -19v-388l60 -8v-56h-239v53l60 19v226q0 27 4 44h-4q-10 -27 -23 -44l-173 -220v-14l60 -8v-56h-239v53l60 19v387l-60 8v57h239v-53z" />
    <glyph glyph-name="afii10110" unicode="&#x45e;" horiz-adv-x="590" 
d="M299 600q-41 0 -72.5 12.5t-47 30t-25 35t-11.5 30.5l-2 12l80 8q9 -71 78 -71q70 0 79 71l80 -8q0 -5 -2 -13t-11.5 -28.5t-25 -36.5t-47.5 -29t-73 -13zM257 -20l-194 479l-58 8v57h256v-53l-66 -17l102 -265q9 -22 19 -70h5q11 46 20 70l93 270l-62 8v57h210v-53
l-55 -19l-169 -452q-53 -143 -96 -191t-123 -48q-24 0 -48 3.5t-35 6.5l-12 3l18 100q43 -21 135 -21q38 47 60 127z" />
    <glyph glyph-name="afii10193" unicode="&#x45f;" horiz-adv-x="628" 
d="M263 0h-226v53l60 19v387l-60 8v57h239v-53l-60 -19v-378h196v385l-60 8v57h239v-53l-60 -19v-388l60 -8v-56h-226l-11 -133h-80z" />
    <glyph glyph-name="afii10050" unicode="&#x490;" horiz-adv-x="522" 
d="M388 700l28 119h80l-13 -200h-254v-550l83 -4v-65h-274v56l69 19v557l-69 8v60h350z" />
    <glyph glyph-name="afii10098" unicode="&#x491;" horiz-adv-x="438" 
d="M216 449v-383l90 -4v-62h-269v53l60 19v387l-60 8v57h275l15 101h84v-176h-195z" />
    <glyph glyph-name="uni04D8" unicode="&#x4d8;" horiz-adv-x="609" 
d="M571 348q0 -168 -79.5 -263t-213.5 -95q-139 0 -198 100t-32 265l33 23h358q-1 130 -41 189t-124 59q-27 0 -52.5 -5t-37.5 -11l-12 -5l-30 -114h-80l14 177q83 42 189 42q142 0 224 -95.5t82 -266.5zM387 98q5 8 12 23t21 69.5t17 116.5l-274 -15q-16 -105 18.5 -161
t108.5 -56q24 0 48 5.5t36 11.5z" />
    <glyph glyph-name="afii10846" unicode="&#x4d9;" horiz-adv-x="517" 
d="M73 418l-23 63q8 6 22.5 14.5t61 23t94.5 14.5q113 0 183 -72.5t70 -196.5q0 -123 -68 -198t-177 -75q-101 0 -156 69t-43 196l35 25h284q-1 86 -40.5 127.5t-107.5 41.5q-32 0 -65.5 -8t-51.5 -16zM322 89q34 48 34 131l-215 -15q-4 -134 101 -134q21 0 41 4.5t29 8.5z
" />
    <glyph glyph-name="Wgrave" unicode="&#x1e80;" horiz-adv-x="1042" 
d="M398 0h-118l-14 13l-191 616l-72 11v60h288v-56l-73 -14l116 -437q12 -44 16 -65h5q1 12 14 65l124 497h114l128 -497q1 -7 7.5 -30t8.5 -35h4q0 3 15 65l109 439l-69 8v60h226v-56l-68 -19l-175 -625h-117l-14 13l-117 465q-10 36 -13 62h-5q-2 -16 -13 -62zM411 851
l75 74l134 -162l-51 -23z" />
    <glyph glyph-name="wgrave" unicode="&#x1e81;" horiz-adv-x="851" 
d="M334 0h-110l-11 11l-147 445l-61 11v57h256v-53l-65 -14l73 -264q15 -54 17 -64h4q3 24 15 64l91 326h103l89 -326q14 -50 16 -64h5q0 1 15 64l71 266l-62 8v57h211v-53l-57 -19l-139 -452h-109l-11 11l-81 286q-9 38 -13 59h-5q-2 -23 -12 -59zM310 686l74 74l134 -162
l-51 -24z" />
    <glyph glyph-name="Wacute" unicode="&#x1e82;" horiz-adv-x="1042" 
d="M398 0h-118l-14 13l-191 616l-72 11v60h288v-56l-73 -14l116 -437q12 -44 16 -65h5q1 12 14 65l124 497h114l128 -497q1 -7 7.5 -30t8.5 -35h4q0 3 15 65l109 439l-69 8v60h226v-56l-68 -19l-175 -625h-117l-14 13l-117 465q-10 36 -13 62h-5q-2 -16 -13 -62zM478 763
l135 162l74 -74l-158 -111z" />
    <glyph glyph-name="wacute" unicode="&#x1e83;" horiz-adv-x="851" 
d="M334 0h-110l-11 11l-147 445l-61 11v57h256v-53l-65 -14l73 -264q15 -54 17 -64h4q3 24 15 64l91 326h103l89 -326q14 -50 16 -64h5q0 1 15 64l71 266l-62 8v57h211v-53l-57 -19l-139 -452h-109l-11 11l-81 286q-9 38 -13 59h-5q-2 -23 -12 -59zM378 598l134 162l74 -74
l-157 -112z" />
    <glyph glyph-name="Wdieresis" unicode="&#x1e84;" horiz-adv-x="1042" 
d="M398 0h-118l-14 13l-191 616l-72 11v60h288v-56l-73 -14l116 -437q12 -44 16 -65h5q1 12 14 65l124 497h114l128 -497q1 -7 7.5 -30t8.5 -35h4q0 3 15 65l109 439l-69 8v60h226v-56l-68 -19l-175 -625h-117l-14 13l-117 465q-10 36 -13 62h-5q-2 -16 -13 -62zM391 827
q0 28 16.5 44.5t42.5 16.5q27 0 44 -16.5t17 -44.5q0 -26 -17 -42.5t-44 -16.5q-26 0 -42.5 16.5t-16.5 42.5zM588 827q0 27 17 44t43 17t43 -17t17 -44q0 -26 -17 -42.5t-43 -16.5t-43 16.5t-17 42.5z" />
    <glyph glyph-name="wdieresis" unicode="&#x1e85;" horiz-adv-x="851" 
d="M334 0h-110l-11 11l-147 445l-61 11v57h256v-53l-65 -14l73 -264q15 -54 17 -64h4q3 24 15 64l91 326h103l89 -326q14 -50 16 -64h5q0 1 15 64l71 266l-62 8v57h211v-53l-57 -19l-139 -452h-109l-11 11l-81 286q-9 38 -13 59h-5q-2 -23 -12 -59zM290 667q0 27 16.5 43.5
t42.5 16.5q27 0 43.5 -16.5t16.5 -43.5q0 -26 -16.5 -43t-43.5 -17q-26 0 -42.5 17t-16.5 43zM487 667q0 27 16.5 43.5t42.5 16.5q27 0 43.5 -16.5t16.5 -43.5q0 -26 -16.5 -43t-43.5 -17q-26 0 -42.5 17t-16.5 43z" />
    <glyph glyph-name="Ygrave" unicode="&#x1ef2;" horiz-adv-x="667" 
d="M585 625l-186 -323v-234l70 -8v-60h-261v56l69 19v225l-199 332l-67 8v60h286v-56l-75 -17l116 -203q15 -23 23 -42h4q3 9 11 25t10 19l108 206l-67 8v60h229v-56zM199 851l74 74l135 -162l-51 -23z" />
    <glyph glyph-name="ygrave" unicode="&#x1ef3;" horiz-adv-x="590" 
d="M257 -20l-194 479l-58 8v57h256v-53l-66 -17l102 -265q9 -22 19 -70h5q11 46 20 70l93 270l-62 8v57h210v-53l-55 -19l-169 -452q-53 -143 -96 -191t-123 -48q-24 0 -48 3.5t-35 6.5l-12 3l18 100q43 -21 135 -21q38 47 60 127zM164 686l74 74l135 -162l-51 -24z" />
    <glyph glyph-name="endash" unicode="&#x2013;" horiz-adv-x="503" 
d="M55 273v74h393v-74h-393z" />
    <glyph glyph-name="emdash" unicode="&#x2014;" horiz-adv-x="753" 
d="M55 273v74h643v-74h-643z" />
    <glyph glyph-name="quoteleft" unicode="&#x2018;" horiz-adv-x="227" 
d="M173 733l20 -27q-8 -6 -19.5 -17t-31 -40t-18.5 -54q24 -3 38 -20t14 -42q0 -29 -17.5 -47t-46.5 -18t-47.5 20t-18.5 62q0 34 13 65.5t32 52t37.5 36t31.5 22.5z" />
    <glyph glyph-name="quoteright" unicode="&#x2019;" horiz-adv-x="227" 
d="M58 466l-20 27q8 6 19.5 17t30.5 40t19 54q-25 3 -39 20t-14 42q0 29 18 47t47 18t47 -20t18 -62q0 -34 -13 -65.5t-31.5 -52t-37 -36t-31.5 -22.5z" />
    <glyph glyph-name="quotesinglbase" unicode="&#x201a;" horiz-adv-x="227" 
d="M53 -65l-20 27q8 6 19.5 17t30.5 40t19 54q-25 3 -39 20t-14 42q0 29 18 47t47 18t47 -20t18 -62q0 -34 -13 -65.5t-31.5 -52t-37 -36t-31.5 -22.5z" />
    <glyph glyph-name="quotedblleft" unicode="&#x201c;" horiz-adv-x="395" 
d="M173 733l20 -27q-8 -6 -19.5 -17t-31 -40t-18.5 -54q24 -3 38 -20t14 -42q0 -29 -17.5 -47t-46.5 -18t-47.5 20t-18.5 62q0 34 13 65.5t32 52t37.5 36t31.5 22.5zM340 733l21 -27q-3 -2 -7.5 -6t-17 -16.5t-21.5 -25t-16.5 -30t-7.5 -33.5q25 -3 39 -20t14 -42
q0 -29 -18 -47t-47 -18t-47 20t-18 62q0 34 13 65.5t31.5 52t37 36t31.5 22.5z" />
    <glyph glyph-name="quotedblright" unicode="&#x201d;" horiz-adv-x="395" 
d="M58 466l-20 27q8 6 19.5 17t30.5 40t19 54q-25 3 -39 20t-14 42q0 29 18 47t47 18t47 -20t18 -62q0 -34 -13 -65.5t-31.5 -52t-37 -36t-31.5 -22.5zM225 466l-20 27q8 6 19.5 17t31 40t18.5 54q-24 3 -38 20t-14 42q0 29 17.5 47t46.5 18t47.5 -20t18.5 -62
q0 -34 -13 -65.5t-32 -52t-37.5 -36t-31.5 -22.5z" />
    <glyph glyph-name="quotedblbase" unicode="&#x201e;" horiz-adv-x="395" 
d="M53 -65l-20 27q8 6 19.5 17t30.5 40t19 54q-25 3 -39 20t-14 42q0 29 18 47t47 18t47 -20t18 -62q0 -34 -13 -65.5t-31.5 -52t-37 -36t-31.5 -22.5zM220 -65l-20 27q8 6 19.5 17t31 40t18.5 54q-24 3 -38 20t-14 42q0 29 17.5 47t46.5 18t47.5 -20t18.5 -62
q0 -34 -13 -65.5t-31.5 -52t-37.5 -36t-32 -22.5z" />
    <glyph glyph-name="dagger" unicode="&#x2020;" horiz-adv-x="517" 
d="M207 700h103l-15 -187l184 14v-102l-184 14l15 -243l-15 -296h-73l-15 296l15 243l-184 -14v102l184 -14z" />
    <glyph glyph-name="daggerdbl" unicode="&#x2021;" horiz-adv-x="518" 
d="M207 700h103l-15 -187l184 14v-102l-184 14l15 -134l-15 -138l184 15v-103l-184 15l15 -194h-103l15 194l-184 -15v103l184 -15l-15 138l15 134l-184 -14v102l184 -14z" />
    <glyph glyph-name="bullet" unicode="&#x2022;" horiz-adv-x="339" 
d="M75 300q0 43 26.5 69t68.5 26t68 -26t26 -69t-26.5 -69.5t-67.5 -26.5q-42 0 -68.5 26.5t-26.5 69.5z" />
    <glyph glyph-name="ellipsis" unicode="&#x2026;" horiz-adv-x="702" 
d="M45 65q0 33 20 53.5t52 20.5q33 0 53 -20.5t20 -53.5q0 -32 -20.5 -52.5t-52.5 -20.5t-52 20.5t-20 52.5zM278 65q0 33 20 53.5t53 20.5q32 0 52 -20.5t20 -53.5q0 -32 -20 -52.5t-52 -20.5t-52.5 20.5t-20.5 52.5zM511 65q0 33 20.5 53.5t52.5 20.5t52.5 -20.5
t20.5 -53.5q0 -32 -20.5 -52.5t-52.5 -20.5t-52.5 20.5t-20.5 52.5z" />
    <glyph glyph-name="perthousand" unicode="&#x2030;" horiz-adv-x="1195" 
d="M228 0h-90l463 700h90zM46 526q0 85 44.5 133.5t117.5 48.5q74 0 118.5 -48.5t44.5 -134.5t-44.5 -134.5t-117.5 -48.5q-74 0 -118.5 49t-44.5 135zM137 526q0 -117 75 -117q12 0 23.5 2.5t16.5 4.5l6 2q21 30 21 105q0 118 -73 118q-12 0 -23.5 -2.5t-17.5 -4.5l-6 -3
q-22 -29 -22 -105zM458 176q0 85 44.5 133.5t118.5 48.5q73 0 118 -48.5t45 -134.5q0 -85 -44.5 -134t-117.5 -49q-74 0 -119 49t-45 135zM550 176q0 -117 74 -117q12 0 23.5 2.5t16.5 4.5l6 2q21 30 21 105q0 118 -72 118q-12 0 -24 -2.5t-18 -4.5l-6 -3q-21 -29 -21 -105z
M823 176q0 85 44.5 133.5t118.5 48.5q73 0 118 -48.5t45 -134.5q0 -85 -44.5 -134t-117.5 -49q-74 0 -119 49t-45 135zM915 176q0 -117 74 -117q12 0 23.5 2.5t17.5 4.5l6 2q21 30 21 105q0 118 -73 118q-12 0 -23.5 -2.5t-17.5 -4.5l-6 -3q-22 -29 -22 -105z" />
    <glyph glyph-name="guilsinglleft" unicode="&#x2039;" horiz-adv-x="310" 
d="M225 126l-183 167v14l183 167l31 -37l-115 -137l115 -137z" />
    <glyph glyph-name="guilsinglright" unicode="&#x203a;" horiz-adv-x="310" 
d="M85 474l184 -167v-14l-184 -167l-30 37l115 137l-115 137z" />
    <glyph glyph-name="fraction" unicode="&#x2044;" horiz-adv-x="778" 
d="M141 0h-90l587 700h90z" />
    <glyph glyph-name="Euro" unicode="&#x20ac;" horiz-adv-x="648" 
d="M41 393v74h73q25 117 102 180t194 63q48 0 94.5 -10.5t69.5 -21.5l22 -10l13 -174h-80l-29 109q-39 22 -104 22q-31 0 -58.5 -6.5t-39.5 -13.5l-11 -7q-30 -37 -44 -131h202v-74h-209q-1 -14 -1 -43q0 -30 1 -43h209v-74h-201q29 -159 158 -159q24 0 49 5t38 11l13 5
l29 114h80l-13 -177q-84 -42 -190 -42q-115 0 -191.5 63t-101.5 180h-74v74h63q-1 14 -1 44q0 28 1 42h-63z" />
    <glyph glyph-name="uni20B4" unicode="&#x20b4;" horiz-adv-x="486" 
d="M31 254v68h425v-68h-259q-25 -34 -25 -78q0 -52 32.5 -77t83.5 -25q32 0 64.5 8t49.5 16l16 7l22 -62q-7 -6 -21 -14.5t-59.5 -23t-94.5 -14.5q-97 0 -158 50t-61 132q0 46 20 81h-35zM31 391v67h261q23 34 23 74q0 94 -107 94q-32 0 -65 -8t-49 -16l-17 -7l-23 62
q7 6 21 14.5t60 23t95 14.5q94 0 152 -47.5t58 -127.5q0 -40 -18 -76h34v-67h-425z" />
    <glyph glyph-name="afii61352" unicode="&#x2116;" horiz-adv-x="1130" 
d="M199 68l73 -8v-60h-238v56l73 19v557l-73 8v60h190l281 -428q17 -26 26 -52l3 1q-2 18 -2 51v360l-73 8v60h237v-56l-73 -19v-625h-85l-312 476q-21 33 -26 52l-4 -1q3 -27 3 -51v-408zM733 506q0 94 49 147.5t131 53.5t131 -53.5t49 -148.5t-49 -148.5t-131 -53.5
t-131 54t-49 149zM830 506q0 -73 20.5 -107t65.5 -34q15 0 29.5 3t20.5 6l7 3q24 34 24 126q0 74 -21 108t-66 34q-15 0 -29 -3t-21 -6l-7 -3q-23 -33 -23 -127z" />
    <glyph glyph-name="trademark" unicode="&#x2122;" horiz-adv-x="968" 
d="M510 343l45 -5v-38h-149v35l44 13l30 309l-45 4v39h144l88 -238q9 -23 11 -39h3q5 26 11 41l88 236h136v-36l-43 -12l30 -309l42 -5v-38h-165v35l42 13l-21 229q-2 14 -2 25h-3q0 -6 -5 -26l-86 -232h-69l-8 8l-88 225q-5 15 -5 26h-3v-26zM248 343l41 -5v-38h-163v35
l41 13v299h-71l-18 -66h-52l9 119h347l8 -119h-52l-18 66h-72v-304z" />
    <glyph glyph-name="arrowleft" unicode="&#x2190;" horiz-adv-x="619" 
d="M565 316v-68h-396l106 -123l-30 -37l-204 186v15l204 187l30 -37l-106 -123h396z" />
    <glyph glyph-name="arrowup" unicode="&#x2191;" horiz-adv-x="481" 
d="M274 0h-67v396l-123 -106l-38 30l187 204h15l187 -204l-38 -30l-123 106v-396z" />
    <glyph glyph-name="arrowright" unicode="&#x2192;" horiz-adv-x="619" 
d="M55 233v68h395l-106 123l31 37l203 -187v-15l-203 -186l-31 37l106 123h-395z" />
    <glyph glyph-name="arrowdown" unicode="&#x2193;" horiz-adv-x="481" 
d="M207 524h67v-397l123 107l38 -30l-187 -204h-15l-187 204l38 30l123 -106v396z" />
    <glyph glyph-name="uni2196" unicode="&#x2196;" horiz-adv-x="481" 
d="M450 115l-47 -47l-280 279l-12 -161l-48 -6l-12 276l11 11l276 -12l-6 -48l-160 -13z" />
    <glyph glyph-name="uni2197" unicode="&#x2197;" horiz-adv-x="481" 
d="M78 68l-47 47l278 279l-160 13l-6 48l276 12l11 -11l-12 -276l-48 6l-12 161z" />
    <glyph glyph-name="uni2198" unicode="&#x2198;" horiz-adv-x="481" 
d="M31 419l47 48l280 -280l12 162l48 6l12 -277l-11 -10l-276 12l6 47l161 12z" />
    <glyph glyph-name="uni2199" unicode="&#x2199;" horiz-adv-x="481" 
d="M403 464l47 -47l-278 -280l160 -12l6 -48l-276 -12l-11 11l12 276l48 -6l12 -162z" />
    <glyph glyph-name="minus" unicode="&#x2212;" horiz-adv-x="503" 
d="M58 303v74h387v-74h-387z" />
    <glyph glyph-name="approxequal" unicode="&#x2248;" horiz-adv-x="503" 
d="M58 375v79q43 49 95 49q34 0 98 -28t99 -28q50 0 95 50v-79q-42 -49 -95 -49q-33 0 -96.5 28t-98.5 28q-50 0 -97 -50zM350 175q-33 0 -96.5 28t-98.5 28q-51 0 -97 -50v79q43 49 95 49q34 0 97.5 -28t98.5 -28q51 0 96 51v-79q-43 -50 -95 -50z" />
    <glyph glyph-name="notequal" unicode="&#x2260;" horiz-adv-x="503" 
d="M445 206h-211l-48 -113h-78l48 113h-98v74h129l51 120h-180v74h211l49 113h78l-48 -113h97v-74h-129l-51 -120h180v-74z" />
    <glyph glyph-name="lessequal" unicode="&#x2264;" horiz-adv-x="503" 
d="M58 454l387 165v-83l-277 -119l277 -119v-83l-387 165v74zM445 98h-387v74h387v-74z" />
    <glyph glyph-name="greaterequal" unicode="&#x2265;" horiz-adv-x="503" 
d="M445 454v-74l-387 -165v83l277 119l-277 119v83zM445 98h-387v74h387v-74z" />
    <glyph glyph-name="commaaccent" unicode="&#xf6c3;" horiz-adv-x="236" 
d="M67 -259l-16 22q7 5 16.5 14t25.5 33.5t16 45.5q-20 1 -31.5 15t-11.5 35q0 23 14.5 37.5t37.5 14.5q52 0 52 -66q0 -45 -26 -82.5t-52 -53.5z" />
    <glyph glyph-name="zerooldstyle" unicode="&#xf730;" horiz-adv-x="580" 
d="M44 301q0 145 67.5 227t178.5 82t178.5 -82.5t67.5 -227.5t-67 -227.5t-178 -82.5q-112 0 -179.5 82.5t-67.5 228.5zM173 300q0 -117 29.5 -171.5t91.5 -54.5q20 0 39 5t27 11l9 5q4 6 10.5 18.5t17 65t10.5 119.5q0 118 -29.5 172.5t-89.5 54.5q-21 0 -40 -5.5
t-28 -10.5l-9 -5q-4 -6 -10.5 -18.5t-17 -65t-10.5 -120.5z" />
    <glyph glyph-name="oneoldstyle" unicode="&#xf731;" horiz-adv-x="443" 
d="M54 490v60q124 17 229 59l11 -11v-523l105 -8v-67h-337v67l114 19v404h-122z" />
    <glyph glyph-name="twooldstyle" unicode="&#xf732;" horiz-adv-x="550" 
d="M489 471q0 -51 -32 -98t-74.5 -80.5t-113.5 -91t-122 -110.5h243l28 100h80l-13 -191h-442v91q54 60 120 119.5t104.5 90.5t65.5 70t27 81q0 74 -103 74q-30 0 -54.5 -6t-34.5 -12l-9 -7l-29 -104h-80l13 168q7 5 21.5 12.5t66 20t112.5 12.5q226 0 226 -139z" />
    <glyph glyph-name="threeoldstyle" unicode="&#xf733;" horiz-adv-x="545" 
d="M494 106q0 -106 -69 -160.5t-188 -54.5q-57 0 -106.5 11.5t-70.5 23.5l-22 12l21 68q61 -34 164 -34q28 0 55.5 3.5t41.5 6.5l13 4q4 3 9 10.5t14 37t9 67.5q0 73 -29 106t-93 33h-42l-11 11v63q20 6 60.5 58t71.5 101l30 49h-189l-28 -109h-80l13 187h404v-78
q-86 -128 -167 -209v-7q189 -30 189 -200z" />
    <glyph glyph-name="fouroldstyle" unicode="&#xf734;" horiz-adv-x="583" 
d="M458 600v-428h85v-87h-82v-192h-118v190h-308v48l298 469h125zM151 174h196v310z" />
    <glyph glyph-name="fiveoldstyle" unicode="&#xf735;" horiz-adv-x="523" 
d="M479 113q0 -222 -252 -222q-59 0 -109 11.5t-70 23.5l-20 12l21 68q59 -34 159 -34q26 0 53.5 3t41.5 7l14 3q32 38 32 117q0 83 -49 119t-164 36h-60l-11 11l39 332h343v-91h-263l-22 -173q56 -1 100.5 -7.5t86.5 -21.5t69.5 -39.5t44 -63.5t16.5 -91z" />
    <glyph glyph-name="sixoldstyle" unicode="&#xf736;" horiz-adv-x="565" 
d="M469 653l-21 -63q-53 18 -125 18q-37 0 -64.5 -6t-36.5 -12l-10 -7q-4 -6 -10 -18t-17 -63t-15 -117q54 36 140 36q99 0 155 -52t56 -153q0 -104 -60 -164.5t-168 -60.5q-249 0 -249 344q0 354 262 354q43 0 84 -9t60 -18zM287 341q-66 0 -118 -26q0 -129 29.5 -186.5
t100.5 -57.5q18 0 36 3.5t27 7.5l8 3q29 33 29 121q0 74 -26 104.5t-86 30.5z" />
    <glyph glyph-name="sevenoldstyle" unicode="&#xf737;" horiz-adv-x="528" 
d="M285 -100h-129q15 98 48 194.5t98.5 244t80.5 183.5h-234l-28 -109h-80l13 187h437v-48q-18 -52 -74 -197t-87.5 -249.5t-44.5 -205.5z" />
    <glyph glyph-name="eightoldstyle" unicode="&#xf738;" horiz-adv-x="564" 
d="M46 149q0 117 116 184q-98 56 -98 169q0 84 54 136t170 52q98 0 150 -39t52 -116q0 -114 -106 -175q130 -58 130 -180q0 -89 -61 -139.5t-185 -50.5q-222 0 -222 159zM400 171q0 22 -7 39t-15.5 27.5t-28 21t-31.5 15t-41 14t-42 14.5h-1q-75 -56 -75 -129
q0 -48 34.5 -72.5t91.5 -24.5q25 0 49 4.5t36 9.5l11 4q19 33 19 77zM179 517q0 -23 7.5 -41.5t17.5 -30.5t29.5 -23.5t34.5 -17.5t41 -15q75 55 75 129q0 44 -28 66t-78 22q-23 0 -44 -4.5t-30 -9.5l-9 -4q-16 -30 -16 -71z" />
    <glyph glyph-name="nineoldstyle" unicode="&#xf739;" horiz-adv-x="565" 
d="M71 -69l21 68q52 -27 141 -27q37 0 66.5 6t40.5 12l10 7q4 6 10.5 19.5t19 70t15.5 130.5q-53 -35 -140 -35q-99 0 -154.5 50.5t-55.5 151.5q0 105 59.5 165t167.5 60q249 0 249 -351q0 -184 -68.5 -275.5t-210.5 -91.5q-49 0 -92 10t-61 20zM277 262q63 0 119 25
q-2 128 -30.5 185t-97.5 57q-20 0 -37.5 -3.5t-25.5 -7.5l-8 -4q-30 -31 -30 -121q0 -71 26 -101t84 -30z" />
    <glyph glyph-name="A.smcp" horiz-adv-x="627" 
d="M256 560h108l12 -12l181 -487l58 -7v-54h-246v49l57 19l-34 89h-201l-36 -96l61 -7v-54h-204v50l54 18zM276 391l-60 -161h153l-59 161q-6 16 -14 61h-5q-7 -40 -15 -61z" />
    <glyph glyph-name="Aacute.smcp" horiz-adv-x="627" 
d="M256 560h108l12 -12l181 -487l58 -7v-54h-246v49l57 19l-34 89h-201l-36 -96l61 -7v-54h-204v50l54 18zM276 391l-60 -161h153l-59 161q-6 16 -14 61h-5q-7 -40 -15 -61zM249 611l116 135l67 -67l-136 -89z" />
    <glyph glyph-name="Abreve.smcp" horiz-adv-x="627" 
d="M256 560h108l12 -12l181 -487l58 -7v-54h-246v49l57 19l-34 89h-201l-36 -96l61 -7v-54h-204v50l54 18zM276 391l-60 -161h153l-59 161q-6 16 -14 61h-5q-7 -40 -15 -61zM400 707l36 -13q-1 -4 -3 -10t-11 -22t-21.5 -28t-35.5 -22t-52 -10q-28 0 -50.5 9t-35.5 22
t-22 26.5t-12 22.5l-3 9l54 18q2 -5 7 -13t25.5 -21t47.5 -13q26 0 45 11t25 23z" />
    <glyph glyph-name="Acircumflex.smcp" horiz-adv-x="627" 
d="M256 560h108l12 -12l181 -487l58 -7v-54h-246v49l57 19l-34 89h-201l-36 -96l61 -7v-54h-204v50l54 18zM276 391l-60 -161h153l-59 161q-6 16 -14 61h-5q-7 -40 -15 -61zM186 611l120 128h14l121 -128l-47 -21l-81 61l-81 -61z" />
    <glyph glyph-name="Agrave.smcp" horiz-adv-x="627" 
d="M256 560h108l12 -12l181 -487l58 -7v-54h-246v49l57 19l-34 89h-201l-36 -96l61 -7v-54h-204v50l54 18zM276 391l-60 -161h153l-59 161q-6 16 -14 61h-5q-7 -40 -15 -61zM183 679l67 67l115 -135l-46 -21z" />
    <glyph glyph-name="Adieresis.smcp" horiz-adv-x="627" 
d="M256 560h108l12 -12l181 -487l58 -7v-54h-246v49l57 19l-34 89h-201l-36 -96l61 -7v-54h-204v50l54 18zM276 391l-60 -161h153l-59 161q-6 16 -14 61h-5q-7 -40 -15 -61zM175 664q0 24 15 38.5t38 14.5q24 0 39 -14.5t15 -38.5q0 -23 -15 -37.5t-39 -14.5q-23 0 -38 14.5
t-15 37.5zM344 664q0 24 15 38.5t38 14.5q24 0 39 -14.5t15 -38.5q0 -23 -15 -37.5t-39 -14.5q-23 0 -38 14.5t-15 37.5z" />
    <glyph glyph-name="Amacron.smcp" horiz-adv-x="627" 
d="M256 560h108l12 -12l181 -487l58 -7v-54h-246v49l57 19l-34 89h-201l-36 -96l61 -7v-54h-204v50l54 18zM276 391l-60 -161h153l-59 161q-6 16 -14 61h-5q-7 -40 -15 -61zM189 614v67h248v-67h-248z" />
    <glyph glyph-name="Aogonek.smcp" horiz-adv-x="627" 
d="M537 -85q0 -36 35 -36q8 0 18 1.5t16 3.5l5 2l6 -29q-21 -22 -71 -22q-38 0 -59 17.5t-21 49.5q0 27 15.5 51.5t31.5 35.5l16 11h-160v49l57 19l-34 89h-201l-36 -96l61 -7v-54h-204v50l54 18l190 492h108l12 -12l181 -487l58 -7v-54h-39q-39 -39 -39 -85zM276 391
l-60 -161h153l-59 161q-6 16 -14 61h-5q-7 -40 -15 -61z" />
    <glyph glyph-name="Aring.smcp" horiz-adv-x="627" 
d="M256 560h108l12 -12l181 -487l58 -7v-54h-246v49l57 19l-34 89h-201l-36 -96l61 -7v-54h-204v50l54 18zM276 391l-60 -161h153l-59 161q-6 16 -14 61h-5q-7 -40 -15 -61zM233 665q0 33 21.5 53t57.5 20t58 -20t22 -53t-22 -52.5t-58 -19.5t-57.5 19.5t-21.5 52.5z
M283 667q0 -32 32 -32l22 4q5 10 5 24q0 32 -30 32l-23 -4q-6 -9 -6 -24z" />
    <glyph glyph-name="Atilde.smcp" horiz-adv-x="627" 
d="M256 560h108l12 -12l181 -487l58 -7v-54h-246v49l57 19l-34 89h-201l-36 -96l61 -7v-54h-204v50l54 18zM276 391l-60 -161h153l-59 161q-6 16 -14 61h-5q-7 -40 -15 -61zM192 609l-26 28q5 8 15 20t39.5 32.5t58.5 20.5q21 0 54.5 -15.5t53.5 -15.5l48 33l25 -27
q-5 -8 -14.5 -20t-38.5 -32.5t-57 -20.5q-21 0 -55.5 15.5t-53.5 15.5z" />
    <glyph glyph-name="AE.smcp" horiz-adv-x="726" 
d="M679 0h-376v49l57 19l-12 89h-151l-42 -96l61 -7v-54h-204v50l54 18l207 492h394l12 -153h-74l-25 80h-167l25 -166h61l13 62h58v-198h-58l-13 62h-51l27 -174h116l25 83h74zM291 391l-70 -161h122l-29 225h-4q-5 -30 -19 -64z" />
    <glyph glyph-name="AEacute.smcp" horiz-adv-x="726" 
d="M679 0h-376v49l57 19l-12 89h-151l-42 -96l61 -7v-54h-204v50l54 18l207 492h394l12 -153h-74l-25 80h-167l25 -166h61l13 62h58v-198h-58l-13 62h-51l27 -174h116l25 83h74zM291 391l-70 -161h122l-29 225h-4q-5 -30 -19 -64zM284 611l115 135l67 -67l-136 -89z" />
    <glyph glyph-name="B.smcp" horiz-adv-x="551" 
d="M307 0h-266v50l58 18v432l-58 7v53h247q93 0 149 -39.5t56 -110.5q0 -39 -20 -70t-53 -48q-4 -2 -14 -2v-3q8 0 14 -2q90 -38 90 -130q0 -72 -55.5 -113.5t-147.5 -41.5zM280 248h-69v-174h75q19 0 38 2t28 4l9 2q29 19 29 78q0 48 -26.5 68t-83.5 20zM263 487h-52v-166
h57q20 0 38.5 1.5t27.5 3.5l9 2q29 20 29 75q0 44 -26.5 64t-82.5 20z" />
    <glyph glyph-name="C.smcp" horiz-adv-x="515" 
d="M401 392l-26 83q-31 17 -84 17q-26 0 -48 -5t-31 -10l-10 -5q-5 -5 -11.5 -16.5t-18 -61t-11.5 -114.5q0 -111 32.5 -162t102.5 -51q20 0 40 4t30 8l11 4l26 88h73l-11 -146q-73 -33 -164 -33q-122 0 -191 76t-69 213q0 136 69.5 211.5t192.5 75.5q41 0 80.5 -8t58.5 -16
l20 -9l12 -143h-73z" />
    <glyph glyph-name="Cacute.smcp" horiz-adv-x="515" 
d="M401 392l-26 83q-31 17 -84 17q-26 0 -48 -5t-31 -10l-10 -5q-5 -5 -11.5 -16.5t-18 -61t-11.5 -114.5q0 -111 32.5 -162t102.5 -51q20 0 40 4t30 8l11 4l26 88h73l-11 -146q-73 -33 -164 -33q-122 0 -191 76t-69 213q0 136 69.5 211.5t192.5 75.5q41 0 80.5 -8t58.5 -16
l20 -9l12 -143h-73zM232 611l115 135l67 -67l-136 -89z" />
    <glyph glyph-name="Ccaron.smcp" horiz-adv-x="515" 
d="M401 392l-26 83q-31 17 -84 17q-26 0 -48 -5t-31 -10l-10 -5q-5 -5 -11.5 -16.5t-18 -61t-11.5 -114.5q0 -111 32.5 -162t102.5 -51q20 0 40 4t30 8l11 4l26 88h73l-11 -146q-73 -33 -164 -33q-122 0 -191 76t-69 213q0 136 69.5 211.5t192.5 75.5q41 0 80.5 -8t58.5 -16
l20 -9l12 -143h-73zM284 590l-114 122l37 30l84 -63l84 63l38 -30l-115 -122h-14z" />
    <glyph glyph-name="Ccedilla.smcp" horiz-adv-x="515" 
d="M258 -70l8 64q-106 11 -165.5 85.5t-59.5 201.5q0 136 69.5 211.5t192.5 75.5q41 0 80.5 -8t58.5 -16l20 -9l12 -143h-73l-26 83q-31 17 -84 17q-26 0 -48 -5t-31 -10l-10 -5q-5 -5 -11.5 -16.5t-18 -61t-11.5 -114.5q0 -111 32.5 -162t102.5 -51q20 0 40 4t30 8l11 4
l26 88h73l-11 -146q-67 -30 -152 -33l-6 -40q3 0 7 -0.5t15 -4t19.5 -9t15.5 -16.5t7 -26q0 -29 -27 -46t-74 -17q-16 0 -30.5 2t-21.5 4l-6 2l11 48q15 -12 44 -12l28 3q3 9 3 18q0 13 -10 21t-20 9z" />
    <glyph glyph-name="Ccircumflex.smcp" horiz-adv-x="515" 
d="M401 392l-26 83q-31 17 -84 17q-26 0 -48 -5t-31 -10l-10 -5q-5 -5 -11.5 -16.5t-18 -61t-11.5 -114.5q0 -111 32.5 -162t102.5 -51q20 0 40 4t30 8l11 4l26 88h73l-11 -146q-73 -33 -164 -33q-122 0 -191 76t-69 213q0 136 69.5 211.5t192.5 75.5q41 0 80.5 -8t58.5 -16
l20 -9l12 -143h-73zM167 611l121 128h13l121 -128l-46 -21l-82 61l-81 -61z" />
    <glyph glyph-name="Cdotaccent.smcp" horiz-adv-x="515" 
d="M401 392l-26 83q-31 17 -84 17q-26 0 -48 -5t-31 -10l-10 -5q-5 -5 -11.5 -16.5t-18 -61t-11.5 -114.5q0 -111 32.5 -162t102.5 -51q20 0 40 4t30 8l11 4l26 88h73l-11 -146q-73 -33 -164 -33q-122 0 -191 76t-69 213q0 136 69.5 211.5t192.5 75.5q41 0 80.5 -8t58.5 -16
l20 -9l12 -143h-73zM219 665q0 30 19.5 48.5t50.5 18.5t50 -18.5t19 -48.5t-19 -48.5t-50 -18.5t-50.5 18.5t-19.5 48.5z" />
    <glyph glyph-name="D.smcp" horiz-adv-x="582" 
d="M294 0h-253v50l58 18v431l-58 7v54h253q112 0 179.5 -74t67.5 -206t-67.5 -206t-179.5 -74zM284 487h-73v-414h78q24 0 44.5 4t29.5 8l9 4q5 5 13 16.5t21.5 62t13.5 118.5q0 107 -33 154t-103 47z" />
    <glyph glyph-name="Dcaron.smcp" horiz-adv-x="582" 
d="M294 0h-253v50l58 18v431l-58 7v54h253q112 0 179.5 -74t67.5 -206t-67.5 -206t-179.5 -74zM284 487h-73v-414h78q24 0 44.5 4t29.5 8l9 4q5 5 13 16.5t21.5 62t13.5 118.5q0 107 -33 154t-103 47zM265 590l-115 122l37 30l85 -63l84 63l37 -30l-114 -122h-14z" />
    <glyph glyph-name="Dcroat.smcp" horiz-adv-x="583" 
d="M42 248v60l58 14v177l-58 7v54h253q112 0 179.5 -74t67.5 -206t-67.5 -206t-179.5 -74h-253v50l58 18v180h-58zM285 487h-73v-166h106v-73h-106v-175h79q24 0 44.5 4t29.5 8l9 4q5 5 13 16.5t21 62t13 118.5q0 107 -33 154t-103 47z" />
    <glyph glyph-name="Eth.smcp" horiz-adv-x="583" 
d="M42 248v60l58 14v177l-58 7v54h253q112 0 179.5 -74t67.5 -206t-67.5 -206t-179.5 -74h-253v50l58 18v180h-58zM285 487h-73v-166h106v-73h-106v-175h79q24 0 44.5 4t29.5 8l9 4q5 5 13 16.5t21 62t13 118.5q0 107 -33 154t-103 47z" />
    <glyph glyph-name="Thorn.smcp" horiz-adv-x="544" 
d="M211 62l69 -4v-58h-239v50l58 18v431l-58 7v54h227v-50l-57 -18v-44h83q93 0 149 -42t56 -118t-56 -118t-148 -42h-84v-66zM269 375h-58v-173h64q18 0 36.5 2t27.5 4l9 1q30 22 30 79q0 47 -26 67t-83 20z" />
    <glyph glyph-name="E.smcp" horiz-adv-x="524" 
d="M477 0h-436v50l58 18v431l-58 7v54h424l12 -153h-73l-25 80h-168v-166h77l13 62h60v-198h-60l-13 62h-77v-174h179l25 83h73z" />
    <glyph glyph-name="Eacute.smcp" horiz-adv-x="524" 
d="M477 0h-436v50l58 18v431l-58 7v54h424l12 -153h-73l-25 80h-168v-166h77l13 62h60v-198h-60l-13 62h-77v-174h179l25 83h73zM198 611l116 135l67 -67l-136 -89z" />
    <glyph glyph-name="Ebreve.smcp" horiz-adv-x="524" 
d="M477 0h-436v50l58 18v431l-58 7v54h424l12 -153h-73l-25 80h-168v-166h77l13 62h60v-198h-60l-13 62h-77v-174h179l25 83h73zM358 707l36 -13q-1 -4 -3 -10t-11.5 -22t-21.5 -28t-35.5 -22t-51.5 -10t-51 9t-36 22t-21.5 26.5t-11.5 22.5l-3 9l53 18q2 -5 7 -13t25.5 -21
t47.5 -13q17 0 31 4.5t22 11t14 13.5t8 11z" />
    <glyph glyph-name="Ecaron.smcp" horiz-adv-x="524" 
d="M477 0h-436v50l58 18v431l-58 7v54h424l12 -153h-73l-25 80h-168v-166h77l13 62h60v-198h-60l-13 62h-77v-174h179l25 83h73zM263 590l-115 122l37 30l84 -63l85 63l37 -30l-115 -122h-13z" />
    <glyph glyph-name="Ecircumflex.smcp" horiz-adv-x="524" 
d="M477 0h-436v50l58 18v431l-58 7v54h424l12 -153h-73l-25 80h-168v-166h77l13 62h60v-198h-60l-13 62h-77v-174h179l25 83h73zM134 611l121 128h13l122 -128l-47 -21l-81 61l-82 -61z" />
    <glyph glyph-name="Edieresis.smcp" horiz-adv-x="524" 
d="M477 0h-436v50l58 18v431l-58 7v54h424l12 -153h-73l-25 80h-168v-166h77l13 62h60v-198h-60l-13 62h-77v-174h179l25 83h73zM127 664q0 24 15 38.5t38 14.5q24 0 39 -14.5t15 -38.5q0 -23 -15 -37.5t-39 -14.5q-23 0 -38 14.5t-15 37.5zM296 664q0 24 15 38.5t38 14.5
q24 0 39 -14.5t15 -38.5q0 -23 -15 -37.5t-39 -14.5q-23 0 -38 14.5t-15 37.5z" />
    <glyph glyph-name="Edotaccent.smcp" horiz-adv-x="524" 
d="M477 0h-436v50l58 18v431l-58 7v54h424l12 -153h-73l-25 80h-168v-166h77l13 62h60v-198h-60l-13 62h-77v-174h179l25 83h73zM200 664q0 31 19.5 49t51.5 18q30 0 49.5 -18.5t19.5 -48.5t-19.5 -48.5t-49.5 -18.5q-32 0 -51.5 18.5t-19.5 48.5z" />
    <glyph glyph-name="Egrave.smcp" horiz-adv-x="524" 
d="M477 0h-436v50l58 18v431l-58 7v54h424l12 -153h-73l-25 80h-168v-166h77l13 62h60v-198h-60l-13 62h-77v-174h179l25 83h73zM138 679l67 67l115 -135l-46 -21z" />
    <glyph glyph-name="Emacron.smcp" horiz-adv-x="524" 
d="M477 0h-436v50l58 18v431l-58 7v54h424l12 -153h-73l-25 80h-168v-166h77l13 62h60v-198h-60l-13 62h-77v-174h179l25 83h73zM146 614v67h247v-67h-247z" />
    <glyph glyph-name="Eogonek.smcp" horiz-adv-x="525" 
d="M407 -85q0 -36 35 -36q9 0 19 1.5t15 3.5l6 2l6 -29q-23 -22 -72 -22q-79 0 -79 67q0 27 15.5 51.5t31.5 35.5l15 11h-358v50l58 18v431l-58 7v54h424l12 -153h-73l-25 80h-168v-166h77l13 62h60v-198h-60l-13 62h-77v-174h179l25 83h73l-11 -156h-31q-39 -39 -39 -85z
" />
    <glyph glyph-name="F.smcp" horiz-adv-x="502" 
d="M280 0h-239v50l58 18v431l-58 7v54h420l13 -156h-74l-24 83h-165v-173h77l13 62h61v-197h-61l-13 62h-77v-179l69 -4v-58z" />
    <glyph glyph-name="G.smcp" horiz-adv-x="549" 
d="M473 231v-204q-69 -35 -166 -35q-127 0 -196.5 75.5t-69.5 212.5q0 138 69.5 213t192.5 75q41 0 80.5 -8t58.5 -16l20 -9l12 -143h-73l-26 83q-31 17 -84 17q-26 0 -48 -5t-31 -10l-10 -5q-5 -5 -11.5 -16.5t-18 -61t-11.5 -114.5q0 -111 32.5 -162t102.5 -51q45 0 78 14
v156l-69 7v53h223v-49z" />
    <glyph glyph-name="Gbreve.smcp" horiz-adv-x="549" 
d="M473 231v-204q-69 -35 -166 -35q-127 0 -196.5 75.5t-69.5 212.5q0 138 69.5 213t192.5 75q41 0 80.5 -8t58.5 -16l20 -9l12 -143h-73l-26 83q-31 17 -84 17q-26 0 -48 -5t-31 -10l-10 -5q-5 -5 -11.5 -16.5t-18 -61t-11.5 -114.5q0 -111 32.5 -162t102.5 -51q45 0 78 14
v156l-69 7v53h223v-49zM375 707l35 -13q-1 -4 -3 -10t-11 -22t-21.5 -28t-35.5 -22t-51 -10t-51 9t-36 22t-22 26.5t-12 22.5l-3 9l55 18q2 -5 7 -13t25 -21t47 -13q17 0 31 4.5t22 11t14 13.5t8 11z" />
    <glyph glyph-name="Gcircumflex.smcp" horiz-adv-x="549" 
d="M473 231v-204q-69 -35 -166 -35q-127 0 -196.5 75.5t-69.5 212.5q0 138 69.5 213t192.5 75q41 0 80.5 -8t58.5 -16l20 -9l12 -143h-73l-26 83q-31 17 -84 17q-26 0 -48 -5t-31 -10l-10 -5q-5 -5 -11.5 -16.5t-18 -61t-11.5 -114.5q0 -111 32.5 -162t102.5 -51q45 0 78 14
v156l-69 7v53h223v-49zM167 611l121 128h13l121 -128l-47 -21l-81 61l-81 -61z" />
    <glyph glyph-name="Gcommaaccent.smcp" horiz-adv-x="549" 
d="M473 231v-204q-69 -35 -166 -35q-127 0 -196.5 75.5t-69.5 212.5q0 138 69.5 213t192.5 75q41 0 80.5 -8t58.5 -16l20 -9l12 -143h-73l-26 83q-31 17 -84 17q-26 0 -48 -5t-31 -10l-10 -5q-5 -5 -11.5 -16.5t-18 -61t-11.5 -114.5q0 -111 32.5 -162t102.5 -51q45 0 78 14
v156l-69 7v53h223v-49zM261 -208l-14 19q6 4 14 11t21.5 26.5t13.5 35.5q-18 1 -28 13t-10 30q0 19 13 31.5t33 12.5q46 0 46 -56q0 -23 -9 -44t-22 -35t-26.5 -24.5t-22.5 -15.5z" />
    <glyph glyph-name="Gdotaccent.smcp" horiz-adv-x="549" 
d="M473 231v-204q-69 -35 -166 -35q-127 0 -196.5 75.5t-69.5 212.5q0 138 69.5 213t192.5 75q41 0 80.5 -8t58.5 -16l20 -9l12 -143h-73l-26 83q-31 17 -84 17q-26 0 -48 -5t-31 -10l-10 -5q-5 -5 -11.5 -16.5t-18 -61t-11.5 -114.5q0 -111 32.5 -162t102.5 -51q45 0 78 14
v156l-69 7v53h223v-49zM223 664q0 30 19.5 48.5t50.5 18.5t50.5 -18.5t19.5 -48.5t-19.5 -48.5t-50.5 -18.5t-50.5 18.5t-19.5 48.5z" />
    <glyph glyph-name="H.smcp" horiz-adv-x="638" 
d="M211 61l57 -7v-54h-227v50l58 18v431l-58 7v54h227v-50l-57 -18v-171h218v178l-58 7v54h226v-50l-57 -18v-431l57 -7v-54h-226v50l58 18v179h-218v-186z" />
    <glyph glyph-name="Hbar.smcp" horiz-adv-x="638" 
d="M41 383v66h58v50l-58 7v54h227v-50l-57 -18v-43h218v50l-58 7v54h226v-50l-57 -18v-43h57v-66h-57v-322l57 -7v-54h-226v50l58 18v179h-218v-186l57 -7v-54h-227v50l58 18v315h-58zM211 321h218v62h-218v-62z" />
    <glyph glyph-name="Hcircumflex.smcp" horiz-adv-x="638" 
d="M211 61l57 -7v-54h-227v50l58 18v431l-58 7v54h227v-50l-57 -18v-171h218v178l-58 7v54h226v-50l-57 -18v-431l57 -7v-54h-226v50l58 18v179h-218v-186zM192 611l120 128h14l121 -128l-47 -21l-81 61l-81 -61z" />
    <glyph glyph-name="I.smcp" horiz-adv-x="309" 
d="M211 61l57 -7v-54h-227v50l58 18v431l-58 7v54h227v-50l-57 -18v-431z" />
    <glyph glyph-name="Iacute.smcp" horiz-adv-x="309" 
d="M210 61l58 -7v-54h-228v50l58 18v431l-58 7v54h228v-50l-58 -18v-431zM84 611l116 135l67 -67l-136 -89z" />
    <glyph glyph-name="Ibreve.smcp" horiz-adv-x="309" 
d="M210 61l58 -7v-54h-227v50l58 18v431l-58 7v54h227v-50l-58 -18v-431zM242 707l36 -13q-1 -4 -3 -10t-11.5 -22t-21.5 -28t-35.5 -22t-51.5 -10t-51 9t-36 22t-21.5 26.5t-11.5 22.5l-3 9l53 18q2 -5 7.5 -13t26 -21t46.5 -13q17 0 31 4.5t22 11t14 13.5t8 11z" />
    <glyph glyph-name="Icircumflex.smcp" horiz-adv-x="310" 
d="M210 61l58 -7v-54h-227v50l57 18v431l-57 7v54h227v-50l-58 -18v-431zM27 611l122 128h13l120 -128l-46 -21l-81 61l-81 -61z" />
    <glyph glyph-name="Idieresis.smcp" horiz-adv-x="310" 
d="M210 61l58 -7v-54h-227v50l57 18v431l-57 7v54h227v-50l-58 -18v-431zM17 664q0 24 15 38.5t38 14.5q24 0 39 -14.5t15 -38.5q0 -23 -15 -37.5t-39 -14.5q-23 0 -38 15t-15 37zM186 664q0 24 15 38.5t38 14.5q24 0 39 -14.5t15 -38.5q0 -23 -15 -37.5t-39 -14.5
q-23 0 -38 15t-15 37z" />
    <glyph glyph-name="Idotaccent.smcp" horiz-adv-x="309" 
d="M211 61l57 -7v-54h-227v50l58 18v431l-58 7v54h227v-50l-57 -18v-431zM85 664q0 31 19 49t50 18t50.5 -18.5t19.5 -48.5t-19.5 -48.5t-50.5 -18.5t-50 18.5t-19 48.5z" />
    <glyph glyph-name="Igrave.smcp" horiz-adv-x="309" 
d="M210 61l58 -7v-54h-228v50l58 18v431l-58 7v54h228v-50l-58 -18v-431zM31 679l67 67l116 -135l-48 -21z" />
    <glyph glyph-name="Imacron.smcp" horiz-adv-x="309" 
d="M211 61l57 -7v-54h-227v50l58 18v431l-58 7v54h227v-50l-57 -18v-431zM31 614v67h248v-67h-248z" />
    <glyph glyph-name="Iogonek.smcp" horiz-adv-x="309" 
d="M190 -85q0 -36 35 -36q8 0 18 1.5t15 3.5l6 2l6 -29q-21 -22 -71 -22q-38 0 -59 17.5t-21 49.5q0 27 15.5 51.5t31.5 35.5l16 11h-141v50l58 18v431l-58 7v54h227v-50l-57 -18v-431l57 -7v-54h-39q-39 -39 -39 -85z" />
    <glyph glyph-name="Itilde.smcp" horiz-adv-x="310" 
d="M211 61l57 -7v-54h-227v50l58 18v431l-58 7v54h227v-50l-57 -18v-431zM33 617l-25 28q2 3 5.5 8t15.5 17.5t24 22t30.5 17.5t36.5 8q22 0 56 -15.5t53 -15.5l49 33l25 -27q-2 -3 -5.5 -8t-15.5 -17.5t-24 -22t-30 -17.5t-36 -8q-22 0 -56 15.5t-52 15.5z" />
    <glyph glyph-name="IJ.smcp" horiz-adv-x="598" 
d="M499 492v-536q0 -76 -45 -120t-128 -44q-25 0 -48.5 4t-35.5 8l-11 4l11 74q27 -15 71 -15q13 0 27.5 1.5t21.5 3.5l8 2q18 28 18 97v528l-58 7v54h227v-50zM211 61l57 -7v-54h-227v50l58 18v431l-58 7v54h227v-50l-57 -18v-431z" />
    <glyph glyph-name="J.smcp" horiz-adv-x="399" 
d="M304 492v-336q0 -76 -44.5 -120t-127.5 -44q-25 0 -49 4t-35 8l-12 4l11 74q27 -15 71 -15q14 0 28 1.5t22 3.5l7 2q18 28 18 97v327l-69 4v58h238v-50z" />
    <glyph glyph-name="Jcircumflex.smcp" horiz-adv-x="399" 
d="M304 492v-336q0 -76 -44.5 -120t-127.5 -44q-25 0 -49 4t-35 8l-12 4l11 74q27 -15 71 -15q14 0 28 1.5t22 3.5l7 2q18 28 18 97v327l-69 4v58h238v-50zM116 611l121 128h14l120 -128l-46 -21l-81 61l-81 -61z" />
    <glyph glyph-name="K.smcp" horiz-adv-x="587" 
d="M211 61l57 -7v-54h-227v50l58 18v431l-58 7v54h227v-50l-57 -18v-179l60 13l135 173l-55 7v54h202v-50l-57 -18l-146 -186l162 -245l56 -7v-54h-151l-162 253h-44v-192z" />
    <glyph glyph-name="Kcommaaccent.smcp" horiz-adv-x="587" 
d="M211 61l57 -7v-54h-227v50l58 18v431l-58 7v54h227v-50l-57 -18v-179l60 13l135 173l-55 7v54h202v-50l-57 -18l-146 -186l162 -245l56 -7v-54h-151l-162 253h-44v-192zM271 -208l-15 19q6 4 14.5 11t22 26.5t12.5 35.5q-17 1 -27 13t-10 30q0 19 13 31.5t33 12.5
q46 0 46 -56q0 -23 -9 -44t-22 -35t-26.5 -24.5t-22.5 -15.5z" />
    <glyph glyph-name="L.smcp" horiz-adv-x="506" 
d="M468 0h-427v50l58 18v431l-58 7v54h227v-50l-57 -18v-419h170l26 86h73z" />
    <glyph glyph-name="Lacute.smcp" horiz-adv-x="506" 
d="M468 0h-427v50l58 18v431l-58 7v54h227v-50l-57 -18v-419h170l26 86h73zM95 611l115 135l67 -67l-135 -89z" />
    <glyph glyph-name="Lcaron.smcp" horiz-adv-x="506" 
d="M468 0h-427v50l58 18v431l-58 7v54h227v-50l-57 -18v-419h170l26 86h73zM347 344l-19 24q7 5 17 13.5t26.5 32t16.5 43.5q-21 3 -33.5 18t-12.5 37q0 25 15.5 40.5t41.5 15.5q25 0 41.5 -17t16.5 -53q0 -29 -11.5 -55.5t-27.5 -44t-32 -30t-28 -18.5z" />
    <glyph glyph-name="Lcommaaccent.smcp" horiz-adv-x="506" 
d="M468 0h-427v50l58 18v431l-58 7v54h227v-50l-57 -18v-419h170l26 86h73zM236 -208l-15 19q6 4 14 11t21.5 26.5t13.5 35.5q-17 1 -27 13t-10 30q0 19 13 31.5t33 12.5q46 0 46 -56q0 -36 -22.5 -67t-44.5 -44z" />
    <glyph glyph-name="Ldot.smcp" horiz-adv-x="506" 
d="M468 0h-427v50l58 18v431l-58 7v54h227v-50l-57 -18v-419h170l26 86h73zM341 288q0 28 18 46t47 18t47.5 -18t18.5 -46q0 -29 -18.5 -46.5t-47.5 -17.5t-47 17.5t-18 46.5z" />
    <glyph glyph-name="Lslash.smcp" horiz-adv-x="510" 
d="M325 302l-111 -53v-176h171l25 86h73l-11 -159h-427v50l57 18v128l-46 -21l-27 61l73 34v229l-57 7v54h226v-50l-57 -18v-168l84 40z" />
    <glyph glyph-name="M.smcp" horiz-adv-x="784" 
d="M165 61l61 -7v-54h-205v50l61 18l41 431l-61 7v54h199l120 -333q11 -33 15 -55h4q6 32 14 58l119 330h189v-50l-57 -18l40 -431l58 -7v-54h-228v50l57 17l-29 321q-3 27 -3 35h-3q0 -14 -7 -35l-116 -326h-97l-12 11l-118 315q-7 19 -7 35h-4q0 -25 -1 -35z" />
    <glyph glyph-name="N.smcp" horiz-adv-x="639" 
d="M182 61l60 -7v-54h-204v50l61 18v431l-61 7v54h167l229 -313q15 -21 22 -44l4 1q-2 14 -2 43v252l-61 7v54h205v-50l-61 -18v-492h-78l-257 358q-17 24 -23 45l-3 -1q2 -30 2 -44v-297z" />
    <glyph glyph-name="Nacute.smcp" horiz-adv-x="639" 
d="M182 61l60 -7v-54h-204v50l61 18v431l-61 7v54h167l229 -313q15 -21 22 -44l4 1q-2 14 -2 43v252l-61 7v54h205v-50l-61 -18v-492h-78l-257 358q-17 24 -23 45l-3 -1q2 -30 2 -44v-297zM258 611l115 135l67 -67l-135 -89z" />
    <glyph glyph-name="Ncaron.smcp" horiz-adv-x="639" 
d="M182 61l60 -7v-54h-204v50l61 18v431l-61 7v54h167l229 -313q15 -21 22 -44l4 1q-2 14 -2 43v252l-61 7v54h205v-50l-61 -18v-492h-78l-257 358q-17 24 -23 45l-3 -1q2 -30 2 -44v-297zM313 590l-114 122l36 30l85 -63l84 63l37 -30l-114 -122h-14z" />
    <glyph glyph-name="Ncommaaccent.smcp" horiz-adv-x="639" 
d="M182 61l60 -7v-54h-204v50l61 18v431l-61 7v54h167l229 -313q15 -21 22 -44l4 1q-2 14 -2 43v252l-61 7v54h205v-50l-61 -18v-492h-78l-257 358q-17 24 -23 45l-3 -1q2 -30 2 -44v-297zM292 -208l-15 19q6 4 14 11t21.5 26.5t12.5 35.5q-17 1 -27 13t-10 30q0 19 13 31.5
t33 12.5q47 0 47 -56q0 -36 -22.5 -67t-44.5 -44z" />
    <glyph glyph-name="Ntilde.smcp" horiz-adv-x="637" 
d="M182 61l60 -7v-54h-204v50l61 18v431l-61 7v54h167l229 -313q15 -21 22 -44l4 1q-2 14 -2 43v252l-61 7v54h205v-50l-61 -18v-492h-78l-257 358q-17 24 -23 45l-3 -1q2 -30 2 -44v-297zM193 609l-25 28q2 3 5.5 8t15.5 17.5t24 22t30.5 17.5t36.5 8q22 0 55.5 -15.5
t52.5 -15.5l50 33l24 -27q-5 -8 -14.5 -20t-38.5 -32.5t-57 -20.5q-22 0 -56 15.5t-53 15.5z" />
    <glyph glyph-name="Eng.smcp" horiz-adv-x="639" 
d="M182 61l60 -7v-54h-204v50l61 18v431l-61 7v54h167l229 -313q15 -21 22 -44l4 1q-2 14 -2 43v252l-61 7v54h205v-50l-61 -18v-536q0 -76 -41.5 -120t-118.5 -44q-25 0 -49 4t-36 8l-11 4l11 74q28 -15 71 -15q14 0 28 1.5t21 3.5l8 2q18 28 18 97v58l-236 329
q-17 24 -23 45l-3 -1q2 -30 2 -44v-297z" />
    <glyph glyph-name="O.smcp" horiz-adv-x="576" 
d="M40 281q0 135 68 211t180 76t179.5 -76t67.5 -212t-67.5 -212t-179.5 -76t-180 76.5t-68 212.5zM161 280q0 -112 31.5 -162.5t100.5 -50.5q24 0 44 5t29 10l8 5q4 5 11 17t18 61.5t11 113.5q0 114 -31 163.5t-99 49.5q-24 0 -44.5 -5t-29.5 -10l-9 -5q-4 -5 -11 -16.5
t-18 -61t-11 -114.5z" />
    <glyph glyph-name="Oacute.smcp" horiz-adv-x="576" 
d="M42 281q0 135 67.5 211t179.5 76t179.5 -76t67.5 -212t-67 -212t-179 -76q-113 0 -180.5 76.5t-67.5 212.5zM162 280q0 -112 31.5 -162.5t101.5 -50.5q23 0 43 5t28 10l9 5q5 5 11.5 17t18 61.5t11.5 113.5q0 114 -31.5 163.5t-99.5 49.5q-24 0 -44.5 -5t-29.5 -10l-9 -5
q-4 -5 -11 -16.5t-18 -61t-11 -114.5zM218 611l115 135l68 -67l-136 -89z" />
    <glyph glyph-name="Obreve.smcp" horiz-adv-x="576" 
d="M40 281q0 135 68 211t180 76t179.5 -76t67.5 -212t-67.5 -212t-179.5 -76t-180 76.5t-68 212.5zM161 280q0 -112 31.5 -162.5t100.5 -50.5q24 0 44 5t29 10l8 5q4 5 11 17t18 61.5t11 113.5q0 114 -31 163.5t-99 49.5q-24 0 -44.5 -5t-29.5 -10l-9 -5q-4 -5 -11 -16.5
t-18 -61t-11 -114.5zM375 707l35 -13q-1 -4 -3 -10t-11 -22t-21.5 -28t-35.5 -22t-51 -10t-50.5 9t-35.5 22t-22 26.5t-12 22.5l-3 9l54 18q2 -5 7 -13t25.5 -21t47.5 -13q16 0 30 4.5t22 11t14 13.5t8 11z" />
    <glyph glyph-name="Ocircumflex.smcp" horiz-adv-x="576" 
d="M42 281q0 135 67.5 211t179.5 76t179.5 -76t67.5 -212t-67 -212t-179 -76q-113 0 -180.5 76.5t-67.5 212.5zM162 280q0 -112 31.5 -162.5t101.5 -50.5q23 0 43 5t28 10l9 5q5 5 11.5 17t18 61.5t11.5 113.5q0 114 -31.5 163.5t-99.5 49.5q-24 0 -44.5 -5t-29.5 -10l-9 -5
q-4 -5 -11 -16.5t-18 -61t-11 -114.5zM161 611l120 128h14l121 -128l-47 -21l-81 61l-81 -61z" />
    <glyph glyph-name="Odieresis.smcp" horiz-adv-x="576" 
d="M42 281q0 135 67.5 211t179.5 76t179.5 -76t67.5 -212t-67 -212t-179 -76q-113 0 -180.5 76.5t-67.5 212.5zM162 280q0 -112 31.5 -162.5t101.5 -50.5q23 0 43 5t28 10l9 5q5 5 11.5 17t18 61.5t11.5 113.5q0 114 -31.5 163.5t-99.5 49.5q-24 0 -44.5 -5t-29.5 -10l-9 -5
q-4 -5 -11 -16.5t-18 -61t-11 -114.5zM150 664q0 24 15 38.5t38 14.5q24 0 39 -14.5t15 -38.5q0 -23 -15 -37.5t-39 -14.5q-23 0 -38 14.5t-15 37.5zM319 664q0 24 15 38.5t38 14.5q24 0 39 -14.5t15 -38.5q0 -23 -15 -37.5t-39 -14.5q-23 0 -38 14.5t-15 37.5z" />
    <glyph glyph-name="Ograve.smcp" horiz-adv-x="576" 
d="M42 281q0 135 67.5 211t179.5 76t179.5 -76t67.5 -212t-67 -212t-179 -76q-113 0 -180.5 76.5t-67.5 212.5zM162 280q0 -112 31.5 -162.5t101.5 -50.5q23 0 43 5t28 10l9 5q5 5 11.5 17t18 61.5t11.5 113.5q0 114 -31.5 163.5t-99.5 49.5q-24 0 -44.5 -5t-29.5 -10l-9 -5
q-4 -5 -11 -16.5t-18 -61t-11 -114.5zM165 679l66 67l115 -135l-46 -21z" />
    <glyph glyph-name="Ohungarumlaut.smcp" horiz-adv-x="576" 
d="M40 281q0 135 68 211t180 76t179.5 -76t67.5 -212t-67.5 -212t-179.5 -76t-180 76.5t-68 212.5zM161 280q0 -112 31.5 -162.5t100.5 -50.5q24 0 44 5t29 10l8 5q4 5 11 17t18 61.5t11 113.5q0 114 -31 163.5t-99 49.5q-24 0 -44.5 -5t-29.5 -10l-9 -5q-4 -5 -11 -16.5
t-18 -61t-11 -114.5zM152 611l95 135l67 -54l-115 -102zM296 611l94 135l67 -54l-115 -102z" />
    <glyph glyph-name="Omacron.smcp" horiz-adv-x="576" 
d="M40 281q0 135 68 211t180 76t179.5 -76t67.5 -212t-67.5 -212t-179.5 -76t-180 76.5t-68 212.5zM161 280q0 -112 31.5 -162.5t100.5 -50.5q24 0 44 5t29 10l8 5q4 5 11 17t18 61.5t11 113.5q0 114 -31 163.5t-99 49.5q-24 0 -44.5 -5t-29.5 -10l-9 -5q-4 -5 -11 -16.5
t-18 -61t-11 -114.5zM164 614v67h248v-67h-248z" />
    <glyph glyph-name="Oslash.smcp" horiz-adv-x="576" 
d="M56 14l46 63q-61 77 -61 204q0 135 67.5 211t179.5 76q81 0 142 -42l33 45l58 -25l-46 -63q61 -77 61 -203q0 -136 -67.5 -212t-179.5 -76q-85 0 -143 42l-33 -45zM415 279q0 60 -10 108l-206 -280q31 -40 95 -40q24 0 44 5t28 10l9 5q4 5 11 17t18 61.5t11 113.5z
M161 280q0 -66 10 -109l205 282q-30 39 -91 39q-24 0 -45 -5t-30 -10l-9 -5q-4 -5 -11 -16.5t-18 -61t-11 -114.5z" />
    <glyph glyph-name="Oslashacute.smcp" horiz-adv-x="576" 
d="M56 14l46 63q-61 77 -61 204q0 135 67.5 211t179.5 76q81 0 142 -42l33 45l58 -25l-46 -63q61 -77 61 -203q0 -136 -67.5 -212t-179.5 -76q-85 0 -143 42l-33 -45zM415 279q0 60 -10 108l-206 -280q31 -40 95 -40q24 0 44 5t28 10l9 5q4 5 11 17t18 61.5t11 113.5z
M161 280q0 -66 10 -109l205 282q-30 39 -91 39q-24 0 -45 -5t-30 -10l-9 -5q-4 -5 -11 -16.5t-18 -61t-11 -114.5zM226 611l115 135l68 -67l-136 -89z" />
    <glyph glyph-name="Otilde.smcp" horiz-adv-x="576" 
d="M42 281q0 135 67.5 211t179.5 76t179.5 -76t67.5 -212t-67 -212t-179 -76q-113 0 -180.5 76.5t-67.5 212.5zM162 280q0 -112 31.5 -162.5t101.5 -50.5q23 0 43 5t28 10l9 5q5 5 11.5 17t18 61.5t11.5 113.5q0 114 -31.5 163.5t-99.5 49.5q-24 0 -44.5 -5t-29.5 -10l-9 -5
q-4 -5 -11 -16.5t-18 -61t-11 -114.5zM166 609l-25 28q2 3 5.5 8t15.5 17.5t24 22t30.5 17.5t36.5 8q22 0 55.5 -15.5t52.5 -15.5l49 33l25 -27q-5 -8 -14.5 -20t-38.5 -32.5t-57 -20.5q-21 0 -56 15.5t-53 15.5z" />
    <glyph glyph-name="OE.smcp" horiz-adv-x="773" 
d="M725 0h-363q-28 -8 -68 -8q-115 0 -184 76.5t-69 212.5q0 135 69 211t184 76q40 0 69 -8h350l12 -153h-73l-25 80h-153v-166h65l13 62h60v-198h-60l-13 62h-65v-174h164l25 83h74zM301 67q17 0 31.5 3.5t21.5 7.5t8 4v380q-25 30 -72 30q-24 0 -45.5 -5t-31.5 -10l-10 -5
q-2 -2 -4.5 -6t-10 -19.5t-13 -35.5t-10 -55.5t-4.5 -77.5q0 -111 33.5 -161t106.5 -50z" />
    <glyph glyph-name="P.smcp" horiz-adv-x="544" 
d="M211 62l69 -4v-58h-239v50l58 18v431l-58 7v54h253q93 0 149 -44.5t56 -123.5t-56 -122.5t-148 -43.5h-84v-164zM269 487h-58v-188h64q18 0 36.5 2t27.5 4l9 2q30 23 30 85q0 50 -26 72.5t-83 22.5z" />
    <glyph glyph-name="Q.smcp" horiz-adv-x="577" 
d="M41 281q0 135 67.5 211t179.5 76t180 -76t68 -211q0 -102 -40 -171.5t-111 -97.5v-2q40 -19 90 -33t79 -18l30 -4l-21 -95q-6 0 -16 2t-40.5 10.5t-61 21.5t-72 39t-77.5 60q-5 -1 -14 -1q-109 0 -175 77.5t-66 211.5zM161 278q0 -111 32 -161t102 -50q23 0 43 5t28 10
l9 5q4 5 11 16.5t18 61.5t11 116q0 113 -31.5 162t-99.5 49q-23 0 -44 -5t-30 -10l-9 -5q-4 -5 -11 -16.5t-18 -61.5t-11 -116z" />
    <glyph glyph-name="R.smcp" 
d="M211 61l57 -7v-54h-227v50l58 18v431l-58 7v54h253q93 0 149 -43.5t56 -121.5q0 -57 -33 -96.5t-91 -55.5l120 -182l58 -7v-54h-154l-134 233h-54v-172zM269 487h-58v-180h64q18 0 36.5 1.5t27.5 3.5l9 2q30 22 30 82q0 49 -26 70t-83 21z" />
    <glyph glyph-name="Racute.smcp" 
d="M211 61l57 -7v-54h-227v50l58 18v431l-58 7v54h253q93 0 149 -43.5t56 -121.5q0 -57 -33 -96.5t-91 -55.5l120 -182l58 -7v-54h-154l-134 233h-54v-172zM269 487h-58v-180h64q18 0 36.5 1.5t27.5 3.5l9 2q30 22 30 82q0 49 -26 70t-83 21zM212 611l115 135l67 -67
l-135 -89z" />
    <glyph glyph-name="Rcaron.smcp" 
d="M211 61l57 -7v-54h-227v50l58 18v431l-58 7v54h253q93 0 149 -43.5t56 -121.5q0 -57 -33 -96.5t-91 -55.5l120 -182l58 -7v-54h-154l-134 233h-54v-172zM269 487h-58v-180h64q18 0 36.5 1.5t27.5 3.5l9 2q30 22 30 82q0 49 -26 70t-83 21zM270 590l-114 122l37 30l84 -63
l84 63l37 -30l-115 -122h-13z" />
    <glyph glyph-name="Rcommaaccent.smcp" 
d="M211 61l57 -7v-54h-227v50l58 18v431l-58 7v54h253q93 0 149 -43.5t56 -121.5q0 -57 -33 -96.5t-91 -55.5l120 -182l58 -7v-54h-154l-134 233h-54v-172zM269 487h-58v-180h64q18 0 36.5 1.5t27.5 3.5l9 2q30 22 30 82q0 49 -26 70t-83 21zM265 -208l-15 19q6 4 14 11
t21.5 26.5t13.5 35.5q-18 1 -28 13t-10 30q0 19 13 31.5t33 12.5q47 0 47 -56q0 -23 -9 -44t-22 -35t-26.5 -24.5t-22.5 -15.5z" />
    <glyph glyph-name="S.smcp" horiz-adv-x="482" 
d="M330 139q0 19 -7 32.5t-24.5 24t-30.5 16.5t-42.5 15.5t-42.5 14.5q-136 51 -136 171q0 155 200 155q48 0 88 -8.5t57 -17.5l16 -8v-142h-77l-13 85q-24 16 -74 16q-18 0 -37 -2.5t-29 -5.5l-10 -3q-15 -22 -15 -54q0 -15 3.5 -27t12 -21.5t15.5 -16t23 -13.5t24.5 -10.5
t29 -10.5t28.5 -10q71 -27 108.5 -64.5t37.5 -102.5q0 -161 -220 -161q-52 0 -94.5 8.5t-58.5 17.5l-17 9v143h73l19 -85q30 -15 89 -15q24 0 45.5 2.5t31.5 5.5l10 3q17 29 17 59z" />
    <glyph glyph-name="Sacute.smcp" horiz-adv-x="482" 
d="M330 139q0 19 -7 32.5t-24.5 24t-30.5 16.5t-42.5 15.5t-42.5 14.5q-136 51 -136 171q0 155 200 155q48 0 88 -8.5t57 -17.5l16 -8v-142h-77l-13 85q-24 16 -74 16q-18 0 -37 -2.5t-29 -5.5l-10 -3q-15 -22 -15 -54q0 -15 3.5 -27t12 -21.5t15.5 -16t23 -13.5t24.5 -10.5
t29 -10.5t28.5 -10q71 -27 108.5 -64.5t37.5 -102.5q0 -161 -220 -161q-52 0 -94.5 8.5t-58.5 17.5l-17 9v143h73l19 -85q30 -15 89 -15q24 0 45.5 2.5t31.5 5.5l10 3q17 29 17 59zM179 611l115 135l68 -67l-136 -89z" />
    <glyph glyph-name="Scaron.smcp" horiz-adv-x="482" 
d="M330 139q0 19 -7 32.5t-24.5 24t-30.5 16.5t-42.5 15.5t-42.5 14.5q-136 51 -136 171q0 155 200 155q48 0 88 -8.5t57 -17.5l16 -8v-142h-77l-13 85q-24 16 -74 16q-18 0 -37 -2.5t-29 -5.5l-10 -3q-15 -22 -15 -54q0 -15 3.5 -27t12 -21.5t15.5 -16t23 -13.5t24.5 -10.5
t29 -10.5t28.5 -10q71 -27 108.5 -64.5t37.5 -102.5q0 -161 -220 -161q-52 0 -94.5 8.5t-58.5 17.5l-17 9v143h73l19 -85q30 -15 89 -15q24 0 45.5 2.5t31.5 5.5l10 3q17 29 17 59zM230 590l-114 122l37 30l84 -63l85 63l36 -30l-114 -122h-14z" />
    <glyph glyph-name="Scedilla.smcp" horiz-adv-x="482" 
d="M199 -70l8 61q-50 1 -90.5 9.5t-56.5 17.5l-15 8v143h73l19 -85q30 -15 89 -15q24 0 45.5 2.5t31.5 5.5l10 3q17 29 17 59q0 19 -7 32.5t-24.5 24t-30.5 16.5t-42.5 15.5t-42.5 14.5q-136 51 -136 171q0 155 200 155q48 0 88 -8.5t57 -17.5l16 -8v-142h-77l-13 85
q-24 16 -74 16q-18 0 -37 -2.5t-29 -5.5l-10 -3q-15 -22 -15 -54q0 -15 3.5 -27t12 -21.5t15.5 -16t23 -13.5t24.5 -10.5t29 -10.5t28.5 -10q71 -27 108.5 -64.5t37.5 -102.5q0 -146 -180 -159l-6 -41q7 0 17.5 -2t28 -16t17.5 -38q0 -29 -26.5 -46t-74.5 -17q-16 0 -30 2
t-21 4l-6 2l10 48q15 -12 44 -12l28 3q3 9 3 18q0 13 -10 21t-20 9z" />
    <glyph glyph-name="Scircumflex.smcp" horiz-adv-x="482" 
d="M330 139q0 19 -7 32.5t-24.5 24t-30.5 16.5t-42.5 15.5t-42.5 14.5q-136 51 -136 171q0 155 200 155q48 0 88 -8.5t57 -17.5l16 -8v-142h-77l-13 85q-24 16 -74 16q-18 0 -37 -2.5t-29 -5.5l-10 -3q-15 -22 -15 -54q0 -15 3.5 -27t12 -21.5t15.5 -16t23 -13.5t24.5 -10.5
t29 -10.5t28.5 -10q71 -27 108.5 -64.5t37.5 -102.5q0 -161 -220 -161q-52 0 -94.5 8.5t-58.5 17.5l-17 9v143h73l19 -85q30 -15 89 -15q24 0 45.5 2.5t31.5 5.5l10 3q17 29 17 59zM114 611l120 128h13l122 -128l-47 -21l-81 61l-81 -61z" />
    <glyph glyph-name="Scommaaccent.smcp" horiz-adv-x="482" 
d="M330 139q0 19 -7 32.5t-24.5 24t-30.5 16.5t-42.5 15.5t-42.5 14.5q-136 51 -136 171q0 155 200 155q48 0 88 -8.5t57 -17.5l16 -8v-142h-77l-13 85q-24 16 -74 16q-18 0 -37 -2.5t-29 -5.5l-10 -3q-15 -22 -15 -54q0 -15 3.5 -27t12 -21.5t15.5 -16t23 -13.5t24.5 -10.5
t29 -10.5t28.5 -10q71 -27 108.5 -64.5t37.5 -102.5q0 -161 -220 -161q-52 0 -94.5 8.5t-58.5 17.5l-17 9v143h73l19 -85q30 -15 89 -15q24 0 45.5 2.5t31.5 5.5l10 3q17 29 17 59zM193 -208l-14 19q6 4 14 11t21.5 26.5t13.5 35.5q-18 1 -27.5 13t-9.5 30q0 19 13 31.5
t33 12.5q46 0 46 -56q0 -36 -22.5 -67t-44.5 -44z" />
    <glyph glyph-name="T.smcp" horiz-adv-x="554" 
d="M333 61l58 -7v-54h-227v50l58 18v419h-97l-25 -94h-73l12 167h478l11 -167h-73l-25 94h-97v-426z" />
    <glyph glyph-name="Tbar.smcp" horiz-adv-x="554" 
d="M128 258v67h94v162h-97l-25 -94h-73l12 167h478l11 -167h-73l-25 94h-97v-162h94v-67h-94v-197l58 -7v-54h-227v50l58 18v190h-94z" />
    <glyph glyph-name="Tcaron.smcp" horiz-adv-x="554" 
d="M333 61l58 -7v-54h-227v50l58 18v419h-97l-25 -94h-73l12 167h478l11 -167h-73l-25 94h-97v-426zM270 590l-114 122l36 30l85 -63l84 63l37 -30l-114 -122h-14z" />
    <glyph glyph-name="Tcommaaccent.smcp" horiz-adv-x="554" 
d="M333 61l58 -7v-54h-227v50l58 18v419h-97l-25 -94h-73l12 167h478l11 -167h-73l-25 94h-97v-426zM233 -208l-15 19q6 4 14 11t21.5 26.5t13.5 35.5q-18 1 -27.5 13t-9.5 30q0 20 12.5 32t33.5 12q46 0 46 -56q0 -23 -9 -44t-22 -35t-26.5 -24.5t-22.5 -15.5z" />
    <glyph glyph-name="uni021A.smcp" horiz-adv-x="554" 
d="M333 61l58 -7v-54h-227v50l58 18v419h-97l-25 -94h-73l12 167h478l11 -167h-73l-25 94h-97v-426zM233 -208l-15 19q6 4 14 11t21.5 26.5t13.5 35.5q-18 1 -27.5 13t-9.5 30q0 20 12.5 32t33.5 12q46 0 46 -56q0 -23 -9 -44t-22 -35t-26.5 -24.5t-22.5 -15.5z" />
    <glyph glyph-name="U.smcp" horiz-adv-x="630" 
d="M535 492v-286q0 -101 -60 -157.5t-161 -56.5q-99 0 -159 53.5t-60 148.5v305l-58 7v54h230v-50l-58 -18v-299q0 -68 30 -98t98 -30q25 0 45 3.5t28 6.5l7 3q4 4 10 12t15.5 40.5t9.5 74.5v294l-61 7v54h205v-50z" />
    <glyph glyph-name="Uacute.smcp" horiz-adv-x="630" 
d="M535 492v-286q0 -101 -60 -157.5t-161 -56.5q-99 0 -159 53.5t-60 148.5v305l-58 7v54h230v-50l-58 -18v-299q0 -68 30 -98t98 -30q25 0 45 3.5t28 6.5l7 3q4 4 10 12t15.5 40.5t9.5 74.5v294l-61 7v54h205v-50zM251 611l115 135l68 -67l-136 -89z" />
    <glyph glyph-name="Ubreve.smcp" horiz-adv-x="630" 
d="M535 492v-286q0 -101 -60 -157.5t-161 -56.5q-99 0 -159 53.5t-60 148.5v305l-58 7v54h230v-50l-58 -18v-299q0 -68 30 -98t98 -30q25 0 45 3.5t28 6.5l7 3q4 4 10 12t15.5 40.5t9.5 74.5v294l-61 7v54h205v-50zM408 707l36 -13q-1 -4 -3 -10t-11 -22t-21.5 -28
t-35.5 -22t-51 -10t-51 9t-36 22t-22 26.5t-12 22.5l-3 9l54 18q2 -5 7 -13t25.5 -21t47.5 -13q26 0 45 11t25 23z" />
    <glyph glyph-name="Ucircumflex.smcp" horiz-adv-x="630" 
d="M535 492v-286q0 -101 -60 -157.5t-161 -56.5q-99 0 -159 53.5t-60 148.5v305l-58 7v54h230v-50l-58 -18v-299q0 -68 30 -98t98 -30q25 0 45 3.5t28 6.5l7 3q4 4 10 12t15.5 40.5t9.5 74.5v294l-61 7v54h205v-50zM193 611l121 128h13l122 -128l-47 -21l-81 61l-81 -61z
" />
    <glyph glyph-name="Udieresis.smcp" horiz-adv-x="630" 
d="M535 492v-286q0 -101 -60 -157.5t-161 -56.5q-99 0 -159 53.5t-60 148.5v305l-58 7v54h230v-50l-58 -18v-299q0 -68 30 -98t98 -30q25 0 45 3.5t28 6.5l7 3q4 4 10 12t15.5 40.5t9.5 74.5v294l-61 7v54h205v-50zM184 664q0 24 15 38.5t38 14.5t38 -14.5t15 -38.5
q0 -23 -15 -37.5t-38 -14.5t-38 14.5t-15 37.5zM353 664q0 24 14.5 38.5t37.5 14.5q24 0 39 -14.5t15 -38.5q0 -23 -15 -37.5t-39 -14.5q-23 0 -37.5 15t-14.5 37z" />
    <glyph glyph-name="Ugrave.smcp" horiz-adv-x="630" 
d="M535 492v-286q0 -101 -60 -157.5t-161 -56.5q-99 0 -159 53.5t-60 148.5v305l-58 7v54h230v-50l-58 -18v-299q0 -68 30 -98t98 -30q25 0 45 3.5t28 6.5l7 3q4 4 10 12t15.5 40.5t9.5 74.5v294l-61 7v54h205v-50zM197 679l67 67l115 -135l-46 -21z" />
    <glyph glyph-name="Uhungarumlaut.smcp" horiz-adv-x="630" 
d="M535 492v-286q0 -101 -60 -157.5t-161 -56.5q-99 0 -159 53.5t-60 148.5v305l-58 7v54h230v-50l-58 -18v-299q0 -68 30 -98t98 -30q25 0 45 3.5t28 6.5l7 3q4 4 10 12t15.5 40.5t9.5 74.5v294l-61 7v54h205v-50zM192 611l94 135l68 -54l-116 -102zM335 611l95 135l67 -54
l-115 -102z" />
    <glyph glyph-name="Umacron.smcp" horiz-adv-x="630" 
d="M535 492v-286q0 -101 -60 -157.5t-161 -56.5q-99 0 -159 53.5t-60 148.5v305l-58 7v54h230v-50l-58 -18v-299q0 -68 30 -98t98 -30q25 0 45 3.5t28 6.5l7 3q4 4 10 12t15.5 40.5t9.5 74.5v294l-61 7v54h205v-50zM191 614v67h248v-67h-248z" />
    <glyph glyph-name="Uogonek.smcp" horiz-adv-x="630" 
d="M356 -81q0 -36 36 -36q8 0 17.5 1.5t14.5 3.5l6 2l7 -29q-22 -22 -72 -22q-79 0 -79 67q0 47 47 87q-6 -1 -19 -1q-99 0 -159 53.5t-60 148.5v305l-58 7v54h230v-50l-58 -18v-299q0 -68 30 -98t98 -30q25 0 45 3.5t28 6.5l7 3q4 4 10 12t15.5 40.5t9.5 74.5v294l-61 7v54
h205v-50l-61 -18v-286q0 -79 -37 -131t-103 -72q-39 -39 -39 -84z" />
    <glyph glyph-name="Uring.smcp" horiz-adv-x="630" 
d="M535 492v-286q0 -101 -60 -157.5t-161 -56.5q-99 0 -159 53.5t-60 148.5v305l-58 7v54h230v-50l-58 -18v-299q0 -68 30 -98t98 -30q25 0 45 3.5t28 6.5l7 3q4 4 10 12t15.5 40.5t9.5 74.5v294l-61 7v54h205v-50zM241 663q0 33 21.5 53t57.5 20t58.5 -20t22.5 -53
t-22.5 -53t-58.5 -20t-57.5 20t-21.5 53zM291 664q0 -31 32 -31l22 4q5 9 5 24q0 32 -30 32l-23 -4q-6 -9 -6 -25z" />
    <glyph glyph-name="Utilde.smcp" horiz-adv-x="630" 
d="M535 492v-286q0 -101 -60 -157.5t-161 -56.5q-99 0 -159 53.5t-60 148.5v305l-58 7v54h230v-50l-58 -18v-299q0 -68 30 -98t98 -30q25 0 45 3.5t28 6.5l7 3q4 4 10 12t15.5 40.5t9.5 74.5v294l-61 7v54h205v-50zM194 611l-26 28q2 3 5.5 8t15.5 17.5t24 22t30.5 17.5
t36.5 8q22 0 55.5 -15.5t52.5 -15.5l49 33l25 -27q-2 -3 -5.5 -8t-15.5 -17.5t-24 -22t-30 -17.5t-36 -8q-21 0 -55 15.5t-53 15.5z" />
    <glyph glyph-name="V.smcp" horiz-adv-x="615" 
d="M369 0h-108l-12 12l-180 487l-57 7v54h249v-50l-60 -16l114 -325q8 -21 15 -61h5q7 39 14 61l110 330l-57 7v54h201v-50l-55 -18z" />
    <glyph glyph-name="W.smcp" horiz-adv-x="907" 
d="M353 0h-108l-12 12l-161 484l-60 10v54h251v-50l-61 -12l94 -327q1 -7 6.5 -26t7.5 -29h4q1 9 3 19.5t5 21t4 14.5l102 381h104l105 -381q1 -6 6 -25.5t7 -29.5h4q2 11 7 31.5t6 23.5l87 328l-56 7v54h194v-50l-57 -18l-146 -492h-108l-12 12l-95 350q0 1 -5 21.5
t-6 31.5h-4q-1 -10 -11 -53z" />
    <glyph glyph-name="Wacute.smcp" horiz-adv-x="907" 
d="M353 0h-108l-12 12l-161 484l-60 10v54h251v-50l-61 -12l94 -327q1 -7 6.5 -26t7.5 -29h4q1 9 3 19.5t5 21t4 14.5l102 381h104l105 -381q1 -6 6 -25.5t7 -29.5h4q2 11 7 31.5t6 23.5l87 328l-56 7v54h194v-50l-57 -18l-146 -492h-108l-12 12l-95 350q0 1 -5 21.5
t-6 31.5h-4q-1 -10 -11 -53zM417 611l115 135l68 -67l-136 -89z" />
    <glyph glyph-name="Wcircumflex.smcp" horiz-adv-x="907" 
d="M353 0h-108l-12 12l-161 484l-60 10v54h251v-50l-61 -12l94 -327q1 -7 6.5 -26t7.5 -29h4q1 9 3 19.5t5 21t4 14.5l102 381h104l105 -381q1 -6 6 -25.5t7 -29.5h4q2 11 7 31.5t6 23.5l87 328l-56 7v54h194v-50l-57 -18l-146 -492h-108l-12 12l-95 350q0 1 -5 21.5
t-6 31.5h-4q-1 -10 -11 -53zM352 611l121 128h13l121 -128l-47 -21l-81 61l-81 -61z" />
    </font>
</defs>
</svg>
