<?xml version="1.0" standalone="no"?>
<!DOCTYPE svg PUBLIC "-//W3C//DTD SVG 1.1//EN" "http://www.w3.org/Graphics/SVG/1.1/DTD/svg11.dtd" >
<svg xmlns="http://www.w3.org/2000/svg" xmlns:xlink="http://www.w3.org/1999/xlink" version="1.1">
<metadata>
Created by FontForge 20161013 at Fri Mar  6 19:05:35 2015
 By ,,,
Copyright (c) 2015 by Andriy Konstantynov. All rights reserved.
</metadata>
<defs>
<font id="DiariaPro-BoldItalic" horiz-adv-x="570" >
  <font-face 
    font-family="DiariaPro-BoldItalic"
    font-weight="400"
    font-style="italic"
    font-stretch="normal"
    units-per-em="1000"
    panose-1="2 13 0 3 3 2 0 0 0 0"
    ascent="761"
    descent="-239"
    x-height="534"
    cap-height="700"
    bbox="-166 -261 1183 971"
    underline-thickness="50"
    underline-position="-150"
    slope="-11"
    unicode-range="U+0020-FB04"
  />
<missing-glyph horiz-adv-x="246" 
 />
    <glyph glyph-name="ff" unicode="ff" horiz-adv-x="684" 
d="M160 -210l31 97q35 -18 75 -18q12 0 24 2t18 4l5 2q19 25 37 123l77 433h-172l-77 -433q-23 -130 -81.5 -185t-159.5 -55q-23 0 -45.5 2.5t-33.5 5.5l-11 2l30 97q36 -18 76 -18q12 0 22.5 2t14.5 4l5 2q26 32 45 143l77 433h-65l13 76l69 17q23 125 76 169.5t156 44.5
q26 0 49.5 -2.5t34.5 -5.5l10 -2l-30 -97q-37 18 -76 18q-12 0 -23.5 -2t-17.5 -4l-6 -2q-17 -18 -35 -117h172q23 130 80 182t159 52q24 0 46.5 -2.5t33.5 -5.5l11 -2l-31 -97q-36 18 -76 18q-12 0 -22 -2t-15 -4l-4 -2q-25 -26 -45 -137h136l-17 -93h-136l-77 -433
q-22 -126 -76.5 -173t-155.5 -47q-27 0 -50.5 2.5t-34.5 5.5z" />
    <glyph glyph-name="fi" unicode="fi" horiz-adv-x="603" 
d="M271 526h220q49 0 63.5 -15.5t7.5 -50.5l-67 -347q-5 -27 24 -21q20 4 46 20l8 -63q-6 -6 -18 -15.5t-51 -25.5t-80 -16q-47 0 -64.5 21.5t-7.5 73.5l61 313q5 24 -5 28.5t-64 4.5h-90l-76 -433q-23 -130 -81.5 -185t-159.5 -55q-23 0 -45.5 2.5t-33.5 5.5l-11 2l30 97
q36 -18 76 -18q12 0 22.5 2t14.5 4l5 2q25 30 45 143l76 433h-65l13 76l69 17q42 234 278 234q82 0 130 -28t48 -76q0 -32 -22 -51t-60 -19q-26 0 -38 10t-14.5 24t-6.5 27.5t-21.5 23.5t-52.5 10q-18 0 -33.5 -2.5t-21.5 -4.5l-6 -3q-22 -30 -42 -145z" />
    <glyph glyph-name="fl" unicode="fl" horiz-adv-x="613" 
d="M-5 -143q26 33 45 143l76 433h-65l13 76l69 17q23 129 80.5 181.5t158.5 52.5q55 0 92 -10q38 8 81 8q50 0 64.5 -19t7.5 -56l-111 -570q-5 -27 24 -21q20 4 46 20l8 -63q-6 -6 -18 -15.5t-51 -25.5t-80 -16q-47 0 -64.5 21.5t-7.5 73.5l112 568q-44 16 -99 16
q-20 0 -36.5 -3t-23.5 -6l-6 -3q-20 -22 -39 -133h120l-17 -93h-120l-76 -433q-23 -130 -81.5 -185t-159.5 -55q-23 0 -45.5 2.5t-33.5 5.5l-11 2l30 97q36 -18 76 -18q12 0 22.5 2t14.5 4z" />
    <glyph glyph-name="ffi" unicode="ffi" horiz-adv-x="912" 
d="M581 526h221q49 0 63 -16t7 -50l-68 -347q-5 -27 24 -21q20 4 46 20l8 -63q-6 -6 -18 -15.5t-51 -25.5t-80 -16q-47 0 -64.5 21.5t-7.5 73.5l61 304q5 26 -6 34t-59 8h-93l-77 -433q-23 -128 -77.5 -174t-157.5 -46q-24 0 -46.5 2.5t-33.5 5.5l-11 2l30 97q36 -18 76 -18
q12 0 23.5 2t17.5 4l6 2q17 21 35 123l77 433h-171l-77 -433q-23 -130 -81.5 -185t-159.5 -55q-23 0 -45.5 2.5t-33.5 5.5l-11 2l30 97q36 -18 76 -18q12 0 22.5 2t14.5 4l5 2q26 32 45 143l77 433h-65l13 76l69 17q23 125 76 169.5t156 44.5q26 0 49.5 -2.5t34.5 -5.5
l10 -2l-30 -97q-37 18 -76 18q-12 0 -23.5 -2t-17.5 -4l-6 -2q-17 -18 -35 -117h171q23 125 93.5 179.5t183.5 54.5q82 0 130 -28t48 -76q0 -32 -22 -51t-61 -19q-25 0 -37 10t-14.5 24t-6.5 27.5t-22 23.5t-52 10q-18 0 -33 -2.5t-21 -4.5l-6 -3q-21 -28 -42 -145z" />
    <glyph glyph-name="ffl" unicode="ffl" horiz-adv-x="914" 
d="M313 -131q18 33 36 131l77 433h-171l-77 -433q-23 -130 -81.5 -185t-159.5 -55q-23 0 -45.5 2.5t-33.5 5.5l-11 2l30 97q36 -18 76 -18q12 0 22.5 2t14.5 4l5 2q25 30 45 143l77 433h-65l13 76l69 17q23 125 76 169.5t156 44.5q26 0 49.5 -2.5t34.5 -5.5l10 -2l-30 -97
q-37 18 -76 18q-12 0 -23.5 -2t-17.5 -4l-6 -2q-17 -19 -35 -117h171q24 129 80.5 181.5t156.5 52.5q52 0 89 -10q38 8 77 8q50 0 64.5 -19t7.5 -56l-111 -570q-6 -28 26 -20q20 5 44 19l8 -63q-6 -6 -18 -15.5t-51 -25.5t-80 -16q-47 0 -64.5 21.5t-7.5 73.5l111 567
q-35 17 -90 17q-20 0 -35.5 -3t-21.5 -6l-5 -3q-23 -22 -42 -133h124l-17 -93h-124l-77 -433q-23 -127 -78 -178t-156 -51q-25 0 -48.5 2.5t-34.5 4.5l-10 3l30 98q36 -18 76 -18q12 0 23.5 2t17.5 4z" />
    <glyph glyph-name="f_f_j" unicode="ffj" horiz-adv-x="923" 
d="M581 526h231q49 0 63 -15.5t8 -50.5l-83 -420q-26 -130 -84.5 -185t-159.5 -55q-24 0 -46.5 2.5t-33.5 5.5l-11 2l32 97q36 -18 76 -18q12 0 22.5 2t14.5 4l5 2q26 32 48 143l69 351q5 27 -5.5 34.5t-58.5 7.5h-104l-77 -433q-23 -128 -77.5 -174t-157.5 -46
q-24 0 -46.5 2.5t-33.5 5.5l-11 2l30 97q36 -18 76 -18q12 0 23.5 2t17.5 4l6 2q17 21 35 123l77 433h-171l-77 -433q-23 -130 -81.5 -185t-159.5 -55q-23 0 -45.5 2.5t-33.5 5.5l-11 2l30 97q36 -18 76 -18q12 0 22.5 2t14.5 4l5 2q26 32 45 143l77 433h-65l13 76l69 17
q23 125 76 169.5t156 44.5q26 0 49.5 -2.5t34.5 -5.5l10 -2l-30 -97q-37 18 -76 18q-12 0 -23.5 -2t-17.5 -4l-6 -2q-17 -18 -35 -117h171q23 125 93.5 179.5t183.5 54.5q82 0 130 -28t48 -76q0 -32 -22 -51t-61 -19q-25 0 -37 10t-14.5 24t-6.5 27.5t-22 23.5t-52 10
q-18 0 -33 -2.5t-21 -4.5l-6 -3q-21 -28 -42 -145z" />
    <glyph glyph-name="f_j" unicode="fj" horiz-adv-x="614" 
d="M51 433l13 76l69 17q42 234 278 234q82 0 130 -28t48 -76q0 -32 -22 -51t-60 -19q-26 0 -38 10t-14.5 24t-6.5 27.5t-21.5 23.5t-52.5 10q-18 0 -33.5 -2.5t-21.5 -4.5l-6 -3q-22 -30 -42 -145h231q48 0 62.5 -15.5t8.5 -50.5l-82 -424q-26 -130 -85 -185t-160 -55
q-24 0 -46.5 2.5t-33.5 5.5l-10 2l32 97q35 -18 75 -18q12 0 22.5 2t14.5 4l5 2q26 32 48 143l71 364q4 24 -6 28.5t-64 4.5h-100l-76 -433q-23 -130 -81.5 -185t-159.5 -55q-23 0 -45.5 2.5t-33.5 5.5l-11 2l30 97q36 -18 76 -18q12 0 22.5 2t14.5 4l5 2q25 30 45 143
l76 433h-65z" />
    <glyph glyph-name="afii10104_afii10104" unicode="&#x457;&#x457;" horiz-adv-x="601" 
d="M72 654q0 34 23.5 56.5t56.5 22.5q25 0 39.5 -14.5t14.5 -39.5q0 -33 -23.5 -55.5t-56.5 -22.5q-25 0 -39.5 14.5t-14.5 38.5zM312 654q0 34 23.5 56.5t56.5 22.5q25 0 39.5 -14.5t14.5 -39.5q0 -33 -23.5 -55.5t-56.5 -22.5q-25 0 -39.5 14.5t-14.5 38.5zM51 453l11 63
q79 18 133 18q48 0 63 -19t8 -55l-67 -347q-6 -28 26 -20q20 5 44 19l8 -63q-6 -6 -18 -15.5t-51.5 -25.5t-80.5 -16q-46 0 -63.5 21.5t-7.5 73.5l64 332q5 25 -3.5 29.5t-65.5 4.5zM549 654q0 34 23.5 56.5t56.5 22.5q25 0 40 -14.5t15 -39.5q0 -33 -23.5 -55.5
t-57.5 -22.5q-25 0 -39.5 14.5t-14.5 38.5zM351 453l12 63q79 18 132 18q48 0 63 -19t8 -55l-67 -347q-5 -27 24 -21q20 4 46 20l8 -63q-6 -6 -18 -15.5t-51 -25.5t-80 -16q-47 0 -64.5 21.5t-7.5 73.5l65 332q5 26 -4 30t-66 4z" />
    <glyph glyph-name=".notdef" horiz-adv-x="246" 
 />
    <glyph glyph-name=".null" horiz-adv-x="0" 
 />
    <glyph glyph-name="nonmarkingreturn" horiz-adv-x="333" 
 />
    <glyph glyph-name="space" unicode=" " horiz-adv-x="246" 
 />
    <glyph glyph-name="exclam" unicode="!" horiz-adv-x="306" 
d="M41 58q0 42 28.5 69t70.5 27q31 0 49 -18t18 -49q0 -41 -29 -68.5t-70 -27.5q-31 0 -49 18.5t-18 48.5zM97 213l46 307l35 180h139l-35 -180l-73 -307h-112z" />
    <glyph glyph-name="quotedbl" unicode="&#x22;" horiz-adv-x="424" 
d="M110 411l52 269h122l-77 -269h-97zM281 411l52 269h122l-78 -269h-96z" />
    <glyph glyph-name="numbersign" unicode="#" horiz-adv-x="587" 
d="M85 516h99l34 184h95l-34 -184h131l34 184h95l-34 -184h75v-85h-91l-31 -162h84v-85h-100l-34 -184h-94l34 184h-132l-34 -184h-94l34 184h-74v85h90l30 162h-83v85zM263 431l-31 -162h132l30 162h-131z" />
    <glyph glyph-name="dollar" unicode="$" horiz-adv-x="544" 
d="M174 -75l13 64q-60 1 -105.5 12t-61.5 21l-16 11l35 179h93l3 -107q23 -14 73 -18l43 200q-12 4 -34 14q-122 53 -122 178q0 42 11.5 78.5t38 70.5t76.5 56t119 26l9 40h68l-9 -40q48 -3 85.5 -14t51.5 -20l14 -9l-35 -177h-96l4 106q-15 11 -44 16l-43 -203
q10 -5 25 -10q68 -30 101.5 -69.5t33.5 -105.5q0 -41 -12 -77t-39 -69.5t-77.5 -56.5t-120.5 -29l-14 -67h-68zM365 190q0 44 -52 71l-36 -172l58 12q30 46 30 89zM235 516q0 -50 47 -79l38 175l-57 -11q-28 -37 -28 -85z" />
    <glyph glyph-name="percent" unicode="%" horiz-adv-x="828" 
d="M192 0h-102l599 700h102zM95 489q0 96 59 158t147 62q64 0 100 -37.5t36 -109.5q0 -97 -59 -159t-146 -62q-64 0 -100.5 38t-36.5 110zM199 487q0 -37 12 -53.5t38 -16.5q11 0 22 2.5t17 4.5l5 2q40 55 40 139q0 68 -48 68q-11 0 -22 -2.5t-17 -4.5l-6 -3
q-5 -6 -11.5 -17t-18 -46.5t-11.5 -72.5zM444 139q0 96 58.5 158t146.5 62q65 0 101 -37.5t36 -109.5q0 -97 -59 -159t-146 -62q-64 0 -100.5 38t-36.5 110zM547 137q0 -70 51 -70q11 0 21.5 2.5t16.5 4.5l5 2q5 6 11.5 17.5t18 48t11.5 73.5q0 68 -48 68q-11 0 -22.5 -2.5
t-17.5 -4.5l-5 -3q-5 -6 -12 -17t-18.5 -46.5t-11.5 -72.5z" />
    <glyph glyph-name="ampersand" unicode="&#x26;" horiz-adv-x="686" 
d="M622 293q-18 -75 -88 -157l45 -63l51 -9l-13 -64h-156l-44 63q-88 -74 -210 -74q-86 0 -133.5 40.5t-47.5 116.5q0 80 48 132.5t133 97.5q-39 72 -39 136q0 87 61 140.5t162 53.5q152 0 152 -128q0 -39 -13.5 -70.5t-41.5 -55.5t-54 -40t-66 -35l122 -176q27 43 36 92
l5 26l-53 9l13 64h202l-12 -60l-55 -21zM265 88q58 0 113 32l-132 193q-81 -55 -81 -132q0 -93 100 -93zM296 533q0 -43 32 -95q50 28 76.5 56.5t26.5 65.5q0 52 -58 52q-15 0 -29 -3t-21 -6l-7 -3q-20 -26 -20 -67z" />
    <glyph glyph-name="quotesingle" unicode="'" horiz-adv-x="253" 
d="M110 411l52 269h122l-77 -269h-97z" />
    <glyph glyph-name="parenleft" unicode="(" horiz-adv-x="312" 
d="M47 212q0 78 17.5 150t46 125.5t62.5 100.5t68.5 78t63 53.5t45.5 32.5l18 11l17 -30q-8 -9 -22.5 -26t-50.5 -74t-63.5 -119t-50 -159t-22.5 -196q0 -77 12.5 -138t25.5 -84l12 -23l-29 -30q-6 3 -16 9t-36 32t-46 59.5t-36 94t-16 133.5z" />
    <glyph glyph-name="parenright" unicode=")" horiz-adv-x="312" 
d="M310 435q0 -78 -18 -150t-46 -125.5t-62.5 -100.5t-69 -78t-62.5 -53.5t-46 -33.5l-18 -10l-16 30q8 9 22.5 26t50 74t63 119t50 159t22.5 196q0 76 -12 137.5t-24 84.5l-13 23l28 30q6 -3 16.5 -9t36.5 -32t45.5 -59.5t36 -94t16.5 -133.5z" />
    <glyph glyph-name="asterisk" unicode="*" horiz-adv-x="488" 
d="M288 430l-100 -133l-78 68l124 110l-143 30l57 108l124 -65l11 152h114l-48 -152l149 65l15 -108l-154 -29l81 -111l-104 -68z" />
    <glyph glyph-name="plus" unicode="+" horiz-adv-x="503" 
d="M75 298v84h154v154h85v-154h153v-84h-153v-154h-85v154h-154z" />
    <glyph glyph-name="comma" unicode="," horiz-adv-x="245" 
d="M-16 -158l-19 32q10 7 25.5 19.5t43.5 45t33 59.5q-24 3 -37 19.5t-13 41.5q0 40 27.5 66.5t68.5 26.5q64 0 64 -76q0 -43 -20 -83t-48.5 -66t-56.5 -46t-48 -29z" />
    <glyph glyph-name="hyphen" unicode="-" horiz-adv-x="356" 
d="M64 259l18 93h249l-18 -93h-249z" />
    <glyph glyph-name="period" unicode="." horiz-adv-x="245" 
d="M13 58q0 41 28.5 68.5t69.5 27.5q31 0 49.5 -18t18.5 -49q0 -41 -29 -68.5t-69 -27.5q-31 0 -49.5 18t-18.5 49z" />
    <glyph glyph-name="slash" unicode="/" horiz-adv-x="415" 
d="M38 -100h-96l473 850h97z" />
    <glyph glyph-name="zero" unicode="0" horiz-adv-x="578" 
d="M50 256q0 186 95.5 310.5t232.5 124.5q94 0 146 -67t52 -199q0 -186 -95.5 -311t-231.5 -125q-95 0 -147 67.5t-52 199.5zM192 224q0 -73 19 -105.5t60 -32.5q18 0 35 6t26 12l8 5q4 6 10 17t22.5 46.5t29 73.5t22.5 95t10 113q0 74 -18 107t-58 33q-18 0 -36 -6t-27 -12
l-9 -6q-4 -6 -10 -18t-22.5 -49t-29 -75.5t-22.5 -94.5t-10 -109z" />
    <glyph glyph-name="one" unicode="1" horiz-adv-x="449" 
d="M115 557l15 69q132 19 255 64l11 -13l-116 -592l101 -9l-14 -76h-353l15 76l116 22l89 459h-119z" />
    <glyph glyph-name="two" unicode="2" horiz-adv-x="552" 
d="M563 549q0 -50 -22 -92t-66 -82t-91.5 -74.5t-118 -89t-125.5 -106.5h217l50 95h92l-53 -200h-447l20 105q74 78 158.5 150t128 106.5t74 78t30.5 91.5q0 32 -16.5 47.5t-60.5 15.5q-26 0 -48.5 -5.5t-32.5 -10.5l-9 -6l-51 -100h-92l48 174q8 5 24.5 12.5t71.5 20
t117 12.5q105 0 153.5 -35.5t48.5 -106.5z" />
    <glyph glyph-name="three" unicode="3" horiz-adv-x="546" 
d="M500 221q0 -106 -85 -168.5t-221 -62.5q-58 0 -107 12t-69 24l-19 11l39 78q56 -32 157 -32q26 0 52.5 2.5t40.5 5.5l13 3q5 5 13.5 14.5t22 43t13.5 71.5q0 47 -21.5 68t-69.5 21h-42l-10 12l15 72q22 6 69 55t83 95l37 45h-165l-51 -107h-93l52 196h413l-17 -89
q-103 -120 -199 -200l-1 -6q150 -30 150 -164z" />
    <glyph glyph-name="four" unicode="4" horiz-adv-x="582" 
d="M556 680l-81 -412h81l-19 -100h-78l-17 -91l75 -9l-13 -68h-292l12 60l81 22l16 84h-301l11 55l380 459h145zM177 271h170l53 271z" />
    <glyph glyph-name="five" unicode="5" horiz-adv-x="522" 
d="M487 230q0 -112 -80.5 -176t-221.5 -64q-61 0 -110 12t-67 24l-18 11l38 78q53 -32 152 -32q25 0 51 2.5t39 5.5l14 3q5 6 13.5 16.5t22 43.5t13.5 66q0 58 -41.5 83t-136.5 25h-61l-9 13l105 339h350l-21 -105h-257l-51 -156q139 -4 207.5 -46t68.5 -143z" />
    <glyph glyph-name="six" unicode="6" horiz-adv-x="563" 
d="M557 652l-38 -72q-50 17 -120 17q-36 0 -63.5 -6t-37.5 -12l-10 -6q-51 -70 -81 -186q59 39 144 39q84 0 132 -41.5t48 -128.5q0 -113 -76.5 -189.5t-202.5 -76.5q-104 0 -154.5 61.5t-50.5 197.5q0 88 21 166t62.5 140t109.5 98.5t155 36.5q45 0 85.5 -9.5t58.5 -18.5z
M308 333q-52 0 -116 -23q-6 -42 -6 -89q0 -74 19.5 -106.5t67.5 -32.5q16 0 32 3t24 6l8 3q6 7 14.5 19.5t22.5 53t14 82.5q0 46 -18.5 65t-61.5 19z" />
    <glyph glyph-name="seven" unicode="7" horiz-adv-x="527" 
d="M257 0h-153q32 94 86 189.5t137.5 221t116.5 180.5h-210l-51 -107h-93l52 196h443l-11 -55q-30 -57 -108 -191.5t-128 -234.5t-81 -199z" />
    <glyph glyph-name="eight" unicode="8" horiz-adv-x="562" 
d="M23 126q0 123 149 203q-65 48 -65 136q0 94 67 160t204 66q181 0 181 -132q0 -39 -14 -73t-38 -58t-44 -39t-42 -27q94 -50 94 -150q0 -98 -74 -160.5t-217 -62.5q-201 0 -201 137zM379 189q0 16 -6 29t-12.5 21t-23.5 17t-26 12.5t-33.5 12t-33.5 11.5q-84 -61 -84 -130
q0 -75 100 -75q22 0 44 4t34 8l11 4q30 40 30 86zM246 495q0 -39 24 -59.5t73 -39.5q87 60 87 134q0 65 -79 65q-20 0 -39.5 -4t-28.5 -8l-9 -4q-28 -38 -28 -84z" />
    <glyph glyph-name="nine" unicode="9" horiz-adv-x="563" 
d="M30 31l39 78q47 -26 134 -26q36 0 65.5 5.5t40.5 11.5l11 6q54 71 84 189q-53 -37 -144 -37q-179 0 -179 167q0 112 76.5 188.5t202.5 76.5q104 0 154.5 -61.5t50.5 -198.5q0 -89 -21 -166t-63.5 -139.5t-114.5 -98.5t-167 -36q-52 0 -94 10t-59 20zM304 350q60 0 115 23
q6 56 6 88q0 73 -18.5 105t-66.5 32q-16 0 -32 -3.5t-24 -6.5l-8 -4q-6 -6 -14.5 -18t-23 -51.5t-14.5 -81.5q0 -46 18.5 -64.5t61.5 -18.5z" />
    <glyph glyph-name="colon" unicode=":" horiz-adv-x="257" 
d="M19 58q0 41 28.5 68.5t69.5 27.5q31 0 49.5 -18t18.5 -49q0 -41 -29 -68.5t-70 -27.5q-31 0 -49 18.5t-18 48.5zM92 439q0 42 28.5 69t70.5 27q31 0 49 -18t18 -48q0 -41 -29 -69t-70 -28q-31 0 -49 18.5t-18 48.5z" />
    <glyph glyph-name="semicolon" unicode=";" horiz-adv-x="257" 
d="M-10 -158l-19 32q10 7 25.5 19.5t43.5 45t33 59.5q-24 3 -37 19.5t-13 41.5q0 40 27.5 66.5t68.5 26.5q63 0 63 -76q0 -43 -20 -82.5t-48 -66t-56 -46.5t-48 -29zM92 440q0 40 29 67.5t69 27.5q32 0 50.5 -18t18.5 -49q0 -40 -29.5 -68t-69.5 -28q-32 0 -50 18t-18 50z
" />
    <glyph glyph-name="less" unicode="&#x3c;" horiz-adv-x="503" 
d="M60 382l393 165v-94l-266 -113l266 -113v-94l-393 165v84z" />
    <glyph glyph-name="equal" unicode="=" horiz-adv-x="503" 
d="M71 480h393v-84h-393v84zM464 199h-393v85h393v-85z" />
    <glyph glyph-name="greater" unicode="&#x3e;" horiz-adv-x="503" 
d="M468 382v-84l-393 -165v94l266 113l-266 113v94z" />
    <glyph glyph-name="question" unicode="?" horiz-adv-x="500" 
d="M129 59q0 40 29 67.5t69 27.5q31 0 49.5 -18t18.5 -49q0 -41 -29 -68.5t-69 -27.5q-31 0 -49.5 18.5t-18.5 49.5zM184 213l20 159q92 53 130.5 93t38.5 91q0 29 -14.5 43.5t-50.5 14.5q-23 0 -43 -5.5t-29 -10.5l-8 -6l-50 -100h-92l48 174q8 5 23 12.5t66 20t107 12.5
q195 0 195 -137q0 -65 -46 -116.5t-143 -111.5l-40 -133h-112z" />
    <glyph glyph-name="at" unicode="@" horiz-adv-x="799" 
d="M436 249q29 48 45 139l12 68q-16 6 -37 6q-13 0 -26 -2.5t-20 -5.5l-6 -2q-37 -62 -37 -158q0 -31 7 -44t25 -13q9 0 18.5 3t14.5 6zM486 253h-5q-16 -44 -50 -65t-74 -21q-47 0 -70.5 28.5t-23.5 92.5q0 107 59.5 175t158.5 68q29 0 61 -6t50 -12l17 -6l-46 -232
q-4 -18 2 -25t24 -7q13 0 28 2.5t23 5.5l9 3q5 8 12.5 23.5t20.5 66.5t13 107q0 98 -47 144.5t-166 46.5q-53 0 -100 -8.5t-68 -17.5l-20 -9q-5 -5 -13.5 -15t-30.5 -43t-38.5 -70t-30 -96t-13.5 -120q0 -111 52.5 -158.5t181.5 -47.5q72 0 134 12.5t88 24.5l27 12l19 -38
l-7 -5q-7 -5 -19 -11.5t-29 -15t-41 -17t-51.5 -15.5t-64 -11t-75.5 -4q-323 0 -323 284q0 188 129.5 313t325.5 125q137 0 211.5 -64.5t74.5 -181.5q0 -124 -76.5 -209.5t-170.5 -85.5q-34 0 -57 16t-13 57z" />
    <glyph glyph-name="A" unicode="A" horiz-adv-x="717" 
d="M380 700h137l13 -15l92 -608l64 -9l-14 -68h-295l11 62l70 23l-14 110h-229l-63 -118l69 -9l-14 -68h-246l12 64l65 21zM367 486l-104 -198h171l-25 198q-4 32 -4 77h-5q-19 -51 -33 -77z" />
    <glyph glyph-name="B" unicode="B" horiz-adv-x="628" 
d="M310 0h-316l12 64l69 21l106 539l-64 9l13 67h294q95 0 152.5 -42.5t57.5 -117.5q0 -55 -31 -101.5t-82 -73.5q-9 -3 -18 -3v-3q10 0 16 -3q74 -37 74 -133q0 -101 -78.5 -162t-204.5 -61zM336 309h-75l-42 -215h83q22 0 43.5 2t32.5 4l10 3q6 4 15 13t24 41t15 69
q0 45 -24.5 64t-81.5 19zM374 607h-55l-40 -205h62q22 0 43.5 2t31.5 4l11 3q6 4 14.5 12.5t23 38.5t14.5 64q0 44 -24.5 62.5t-80.5 18.5z" />
    <glyph glyph-name="C" unicode="C" horiz-adv-x="581" 
d="M509 490l-11 103q-33 21 -93 21q-29 0 -54.5 -6t-36.5 -12l-12 -7q-4 -5 -11 -15t-25.5 -43.5t-32 -70t-25 -93.5t-11.5 -116q0 -86 27.5 -125.5t88.5 -39.5q21 0 44 4.5t35 9.5l13 4l52 110h93l-49 -184q-96 -41 -201 -41q-121 0 -185.5 72t-64.5 214q0 190 107.5 313
t281.5 123q49 0 95 -10.5t67 -20.5l21 -10l-21 -180h-92z" />
    <glyph glyph-name="D" unicode="D" horiz-adv-x="662" 
d="M294 0h-300l12 64l69 21l106 538l-64 9l13 68h299q111 0 173.5 -70.5t62.5 -206.5q0 -184 -106.5 -303.5t-264.5 -119.5zM399 607h-80l-100 -514h87q27 0 51.5 5t35.5 10l11 5q5 5 12.5 13.5t26.5 40t34 66.5t27 92.5t12 118.5q0 84 -27 123.5t-90 39.5z" />
    <glyph glyph-name="E" unicode="E" horiz-adv-x="592" 
d="M509 0h-515l12 64l69 21l106 538l-64 9l13 68h501l-23 -192h-93l-10 99h-186l-40 -206h80l31 78h76l-48 -248h-76l-2 78h-79l-42 -216h198l51 103h94z" />
    <glyph glyph-name="F" unicode="F" horiz-adv-x="566" 
d="M281 0h-287l12 64l69 21l106 538l-64 9l13 68h498l-24 -196h-92l-10 103h-183l-42 -214h82l31 77h76l-48 -247h-76l-1 77h-81l-44 -221l79 -5z" />
    <glyph glyph-name="G" unicode="G" horiz-adv-x="623" 
d="M561 288l-50 -254q-10 -5 -28.5 -12.5t-73 -20t-105.5 -12.5q-125 0 -190 71.5t-65 214.5q0 190 107 313t282 123q49 0 95 -10.5t67 -20.5l22 -10l-22 -180h-92l-11 103q-32 21 -92 21q-29 0 -55 -6t-38 -12l-11 -7q-4 -5 -11 -15t-25 -43.5t-32 -70t-25 -93.5t-11 -116
q0 -86 27.5 -126t87.5 -40q42 0 87 18l38 194l-78 8l13 67h268l-11 -63z" />
    <glyph glyph-name="H" unicode="H" horiz-adv-x="727" 
d="M215 77l65 -9l-13 -68h-273l12 64l69 21l106 538l-64 9l13 68h273l-13 -64l-69 -21l-42 -214h242l43 222l-64 9l13 68h273l-13 -64l-69 -21l-105 -538l64 -9l-13 -68h-273l13 64l69 21l43 224h-241z" />
    <glyph glyph-name="I" unicode="I" horiz-adv-x="344" 
d="M215 77l65 -9l-13 -68h-273l12 64l69 21l106 538l-64 9l13 68h273l-13 -64l-69 -21z" />
    <glyph glyph-name="J" unicode="J" horiz-adv-x="446" 
d="M427 615l-81 -418q-19 -97 -84 -152.5t-165 -55.5q-30 0 -57.5 5t-39.5 10l-13 6l32 93q28 -18 79 -18q16 0 32.5 2.5t25.5 4.5l9 2q26 35 43 122l79 405l-79 5l15 74h287l-13 -64z" />
    <glyph glyph-name="K" unicode="K" horiz-adv-x="670" 
d="M215 77l65 -9l-13 -68h-273l12 64l69 21l106 538l-64 9l13 68h273l-13 -64l-69 -21l-44 -222l72 16l194 214l-61 9l13 68h241l-13 -64l-68 -21l-212 -232l125 -306l64 -9l-14 -68h-184l-124 315h-48z" />
    <glyph glyph-name="L" unicode="L" horiz-adv-x="571" 
d="M499 0h-505l12 64l69 21l106 538l-64 9l13 68h273l-13 -64l-69 -21l-102 -522h189l52 107h93z" />
    <glyph glyph-name="M" unicode="M" horiz-adv-x="902" 
d="M161 77l69 -9l-15 -68h-245l13 64l73 21l154 538l-68 9l13 68h244l53 -413q5 -42 5 -70h5q9 29 31 74l212 409h231l-12 -64l-69 -21l-58 -538l65 -9l-13 -68h-273l12 64l70 21l42 397l5 44h-3q-4 -19 -18 -44l-206 -405h-123l-12 15l-55 390q-3 27 0 45h-4
q-4 -25 -10 -45z" />
    <glyph glyph-name="N" unicode="N" horiz-adv-x="728" 
d="M179 77l68 -9l-13 -68h-244l11 64l74 21l105 538l-68 9l14 68h204l182 -387q12 -29 16 -56l4 1q0 3 8 55l61 310l-68 9l13 68h245l-13 -64l-74 -21l-119 -615h-98l-208 440q-15 31 -17 55l-4 -1q-3 -27 -9 -54z" />
    <glyph glyph-name="O" unicode="O" horiz-adv-x="653" 
d="M49 272q0 190 107 314.5t264 124.5q112 0 174 -71.5t62 -211.5q0 -190 -106.5 -314.5t-263.5 -124.5q-113 0 -175 72t-62 211zM196 249q0 -86 27 -124.5t88 -38.5q25 0 48.5 6t34.5 12l10 6q4 5 11 15t25.5 43t32 70t25 94.5t11.5 117.5q0 88 -26.5 126t-85.5 38
q-25 0 -49.5 -6t-35.5 -12l-12 -7q-4 -5 -11 -15t-25 -43.5t-32 -70.5t-25 -94.5t-11 -116.5z" />
    <glyph glyph-name="P" unicode="P" horiz-adv-x="619" 
d="M216 79l79 -5l-14 -74h-287l12 64l69 21l106 538l-64 9l13 68h302q96 0 151.5 -47t55.5 -132q0 -106 -82 -173t-206 -67h-96zM382 607h-63l-45 -232h70q21 0 42 2.5t32 4.5l10 2q6 5 15.5 15.5t25.5 45.5t16 74q0 48 -24 68t-79 20z" />
    <glyph glyph-name="Q" unicode="Q" horiz-adv-x="654" 
d="M49 273q0 189 107 313.5t263 124.5q113 0 175.5 -71.5t62.5 -206.5q0 -146 -69 -260t-183 -157v-3q44 -24 98.5 -41t86.5 -22l33 -5l-51 -121q-6 1 -17.5 2.5t-45.5 12.5t-67 27t-76 49t-78 75q-2 0 -6 -0.5t-7 -0.5q-106 0 -166 73.5t-60 210.5zM197 249
q0 -86 27 -124.5t88 -38.5q25 0 48.5 6t33.5 12l11 6q4 5 11 15t25 43.5t32 70.5t25 94.5t11 116.5q0 88 -26.5 126t-84.5 38q-25 0 -49.5 -6t-36.5 -12l-11 -7q-4 -5 -11 -15t-25 -44t-32 -71t-25 -94t-11 -116z" />
    <glyph glyph-name="R" unicode="R" horiz-adv-x="651" 
d="M215 77l65 -9l-13 -68h-273l12 64l69 21l106 538l-64 9l13 68h302q96 0 152 -45.5t56 -129.5q0 -81 -51 -139.5t-136 -81.5l96 -227l64 -9l-13 -68h-189l-97 291h-57zM382 607h-63l-43 -222h70q21 0 42 2.5t32 4.5l10 2q6 5 15.5 14t25 42t15.5 71q0 46 -24 66t-80 20z
" />
    <glyph glyph-name="S" unicode="S" horiz-adv-x="544" 
d="M365 190q0 19 -8 33.5t-25 25.5t-32 18t-41.5 17t-41.5 17q-59 26 -90.5 67.5t-31.5 111.5q0 44 13 82t43 73t87 55.5t136 20.5q59 0 105 -11t63 -22l17 -11l-35 -177h-96l4 106q-23 19 -77 19q-20 0 -42 -3.5t-35 -6.5l-12 -3q-31 -38 -31 -87q0 -17 6.5 -32t13 -23.5
t24 -19t25.5 -14.5t33.5 -14t32.5 -13q68 -30 101.5 -69.5t33.5 -106.5q0 -44 -14.5 -83t-47.5 -74.5t-95.5 -56t-149.5 -20.5q-63 0 -111.5 11t-65.5 22l-17 11l35 179h93l3 -107q29 -18 96 -18q27 0 52 3.5t37 7.5l12 3q33 45 33 89z" />
    <glyph glyph-name="T" unicode="T" horiz-adv-x="627" 
d="M358 77l64 -9l-14 -68h-273l13 64l70 21l101 522h-103l-53 -117h-93l55 210h567l-27 -210h-92l-8 117h-104z" />
    <glyph glyph-name="U" unicode="U" horiz-adv-x="715" 
d="M697 615l-70 -357q-24 -127 -109 -198t-203 -71q-117 0 -176.5 68t-36.5 186l74 380l-64 9l13 68h277l-12 -64l-70 -21l-73 -374q-16 -86 10 -122.5t102 -36.5q29 0 52.5 4t32.5 8l10 5q5 5 13.5 15.5t26.5 51t28 90.5l71 367l-68 9l13 68h245l-12 -64z" />
    <glyph glyph-name="V" unicode="V" horiz-adv-x="702" 
d="M388 0h-138l-11 15l-91 608l-64 9l14 68h300l-13 -64l-74 -19l50 -403q2 -24 2 -77h5q24 59 33 77l201 409l-64 9l14 68h242l-12 -64l-66 -21z" />
    <glyph glyph-name="W" unicode="W" horiz-adv-x="1046" 
d="M369 0h-137l-12 15l-70 604l-66 13l14 68h302l-13 -64l-74 -15l25 -405q3 -60 3 -69h5q6 20 28 69l207 474h132l26 -474q3 -54 3 -69h5q5 14 15.5 39.5t12.5 29.5l175 407l-63 9l14 68h233l-12 -64l-68 -21l-290 -615h-137l-11 15l-22 436q-2 39 -1 65h-4q-3 -11 -27 -65
z" />
    <glyph glyph-name="X" unicode="X" horiz-adv-x="687" 
d="M675 615l-218 -275l130 -263l62 -9l-13 -68h-303l12 64l77 19l-71 171q-15 34 -16 39h-4q-12 -20 -31 -41l-142 -175l62 -9l-14 -68h-238l12 64l72 21l232 282l-121 256l-61 9l13 68h303l-13 -64l-85 -19l75 -167l7 -15q6 -15 8 -25h4q12 21 28 42l126 171l-61 9l13 68
h238l-13 -64z" />
    <glyph glyph-name="Y" unicode="Y" horiz-adv-x="667" 
d="M668 615l-243 -318l-43 -220l65 -9l-14 -68h-273l13 64l70 21l41 210l-132 328l-61 9l13 68h300l-12 -64l-77 -19l68 -182q14 -44 14 -45h4q6 10 17.5 26t14.5 21l130 186l-61 9l13 68h238l-13 -64z" />
    <glyph glyph-name="Z" unicode="Z" horiz-adv-x="579" 
d="M-8 0l11 55l426 552h-199l-52 -107h-93l53 200h491l-11 -55l-426 -552h215l37 107h97l-39 -200h-510z" />
    <glyph glyph-name="bracketleft" unicode="[" horiz-adv-x="351" 
d="M420 750l-16 -85h-106l-141 -723h106l-16 -84h-231l173 892h231z" />
    <glyph glyph-name="backslash" unicode="\" horiz-adv-x="415" 
d="M346 -100h-85l-143 850h85z" />
    <glyph glyph-name="bracketright" unicode="]" horiz-adv-x="351" 
d="M-30 -142l16 84h106l141 723h-106l16 85h231l-173 -892h-231z" />
    <glyph glyph-name="asciicircum" unicode="^" horiz-adv-x="433" 
d="M102 523l204 186h17l132 -186l-49 -34l-113 108l-155 -108z" />
    <glyph glyph-name="underscore" unicode="_" horiz-adv-x="503" 
d="M-38 -142v84h500v-84h-500z" />
    <glyph glyph-name="grave" unicode="`" horiz-adv-x="415" 
d="M170 679l101 85l104 -169l-63 -26z" />
    <glyph glyph-name="a" unicode="a" horiz-adv-x="564" 
d="M30 169q0 158 87 263t234 105q42 0 87.5 -9t69.5 -18l25 -9l-76 -388q-6 -30 26 -21q20 5 44 20l8 -63q-6 -6 -16.5 -15.5t-44.5 -25t-68 -15.5q-24 0 -36 8.5t-16.5 35.5t8.5 76l2 10h-7q-24 -65 -76 -99t-115 -34q-69 0 -102.5 42.5t-33.5 136.5zM288 103q44 72 71 212
l22 119q-30 10 -65 10q-22 0 -42 -5t-29 -9l-9 -5q-3 -4 -7.5 -11.5t-16.5 -33t-21 -52.5t-16.5 -69t-7.5 -85q0 -50 12 -71t42 -21q16 0 33 5t26 11z" />
    <glyph glyph-name="b" unicode="b" horiz-adv-x="558" 
d="M540 357q0 -156 -87.5 -261.5t-234.5 -105.5q-43 0 -88.5 8.5t-69.5 17.5l-24 9l120 617q5 26 -3.5 30t-65.5 4l11 63q79 19 133 19q48 0 62.5 -19.5t7.5 -55.5l-13 -71q-5 -27 -23 -83.5t-23 -79.5h6q16 34 63.5 61t100.5 27q128 0 128 -180zM211 211l-24 -119
q33 -10 66 -10q22 0 42 5t29 9l9 5q8 11 19.5 31.5t31 86t19.5 133.5q0 51 -12.5 71.5t-43.5 20.5q-16 0 -32.5 -5t-24.5 -10l-8 -5q-45 -73 -71 -213z" />
    <glyph glyph-name="c" unicode="c" horiz-adv-x="493" 
d="M368 355l-2 78q-11 11 -50 11q-21 0 -40 -4t-28 -8l-8 -4q-7 -8 -17 -24t-27 -70.5t-17 -114.5q0 -72 24.5 -103t77.5 -31q28 0 60.5 7.5t50.5 15.5l19 7l11 -72q-9 -6 -25 -15t-65 -23.5t-97 -14.5q-98 0 -149.5 55.5t-51.5 157.5q0 137 85 235.5t220 98.5
q46 0 85 -11.5t55 -23.5l16 -12l-26 -135h-101z" />
    <glyph glyph-name="d" unicode="d" horiz-adv-x="569" 
d="M28 167q0 155 88.5 262.5t222.5 107.5q37 0 67 -8l22 113q4 26 -4.5 30t-64.5 4l11 63q79 19 133 19q48 0 62.5 -19.5t7.5 -55.5l-111 -569q-6 -30 26 -21q20 5 44 20l8 -64q-6 -6 -16.5 -15.5t-44.5 -25t-68 -15.5q-24 0 -36 8.5t-16.5 35.5t8.5 76l2 10h-7
q-22 -63 -73.5 -98t-119.5 -35q-70 0 -105.5 42t-35.5 135zM294 103q43 72 70 212l22 111q-33 18 -72 18q-19 0 -38 -5t-28 -9l-10 -5q-3 -4 -7.5 -11.5t-17 -33t-22 -52.5t-17 -68.5t-7.5 -83.5q0 -52 13 -73t43 -21q17 0 34.5 5t26.5 11z" />
    <glyph glyph-name="e" unicode="e" horiz-adv-x="485" 
d="M489 414q0 -88 -80 -142t-230 -57q1 -68 25.5 -99t75.5 -31q28 0 60.5 7.5t51.5 15.5l19 7l11 -72q-9 -6 -25 -15t-65.5 -23.5t-97.5 -14.5q-98 0 -149 57.5t-51 159.5q0 137 85.5 233.5t220.5 96.5q149 0 149 -123zM238 429q-40 -49 -54 -138q85 4 125.5 32t40.5 73
q0 48 -48 48q-14 0 -30 -4t-25 -8z" />
    <glyph glyph-name="f" unicode="f" horiz-adv-x="375" 
d="M51 433l13 76l69 17q23 130 80.5 182t160.5 52q23 0 45.5 -2.5t33.5 -5.5l11 -2l-30 -97q-37 18 -76 18q-12 0 -22.5 -2t-15.5 -4l-5 -2q-25 -26 -44 -137h136l-17 -93h-136l-76 -433q-23 -130 -81.5 -185t-159.5 -55q-23 0 -45.5 2.5t-33.5 5.5l-11 2l30 97
q36 -18 76 -18q12 0 22.5 2t14.5 4l5 2q26 33 45 143l76 433h-65z" />
    <glyph glyph-name="g" unicode="g" horiz-adv-x="543" 
d="M30 169q0 158 86.5 263t233.5 105q42 0 87.5 -9t70.5 -18l24 -9l-101 -519q-23 -117 -88.5 -169.5t-189.5 -52.5q-43 0 -81.5 5.5t-55.5 10.5l-16 6l21 105q60 -31 147 -31q26 0 51 4t37 8l12 3q33 48 55 165l8 41h-7q-17 -34 -65.5 -60.5t-101.5 -26.5q-127 0 -127 179z
M289 101q43 74 70 214l21 119q-30 10 -66 10q-22 0 -42 -5t-29 -9l-9 -5q-3 -4 -7.5 -11.5t-16 -33t-20.5 -52.5t-16 -69t-7 -85q0 -51 12 -71.5t43 -20.5q16 0 33 5t25 9z" />
    <glyph glyph-name="h" unicode="h" horiz-adv-x="597" 
d="M559 112l8 -63q-6 -6 -18 -15.5t-51 -25.5t-80 -16q-47 0 -64.5 21.5t-7.5 73.5l51 253q11 57 2.5 80.5t-42.5 23.5q-18 0 -37 -5t-28 -10l-10 -5q-44 -73 -71 -213l-41 -211h-138l125 642q5 26 -4 30t-66 4l12 63q79 19 132 19q48 0 63 -19t8 -56l-14 -71
q-5 -26 -23 -82t-23 -81h6q17 36 75.5 62t115.5 26q68 0 92 -48.5t0 -166.5l-42 -209q-5 -27 24 -21q20 4 46 20z" />
    <glyph glyph-name="i" unicode="i" horiz-adv-x="307" 
d="M52 452l11 64q80 18 133 18q48 0 63 -19t8 -55l-68 -347q-6 -28 26 -20q20 5 44 19l8 -63q-6 -6 -18 -15.5t-51.5 -25.5t-80.5 -16q-46 0 -63.5 21.5t-7.5 73.5l66 331q5 25 -4 29.5t-66 4.5zM138 665q0 42 30.5 70.5t74.5 28.5q34 0 53.5 -19t19.5 -52q0 -42 -31 -70.5
t-74 -28.5q-34 0 -53.5 19t-19.5 52z" />
    <glyph glyph-name="j" unicode="j" horiz-adv-x="284" 
d="M138 663q0 44 30.5 72.5t74.5 28.5q33 0 53 -19t20 -50q0 -44 -30.5 -72.5t-75.5 -28.5q-33 0 -52.5 19t-19.5 50zM52 452l11 64q80 18 133 18q48 0 63 -19t8 -55l-90 -460q-26 -130 -85 -185t-160 -55q-23 0 -45.5 2.5t-33.5 5.5l-11 2l32 97q36 -18 76 -18q12 0 22.5 2
t15.5 4l4 2q26 33 48 143l82 418q4 26 -4.5 30t-65.5 4z" />
    <glyph glyph-name="k" unicode="k" horiz-adv-x="561" 
d="M524 107l8 -63q-6 -6 -16 -14.5t-41 -23t-62 -14.5q-80 0 -118 96l-76 169l-49 -257h-138l125 642q5 26 -4 30t-66 4l12 63q79 19 132 19q48 0 63 -19t8 -56l-78 -401q23 8 47.5 18.5t56 28.5t51.5 42.5t20 49.5q0 19 -14 26.5t-51 8.5l10 60q65 18 111 18q38 0 55 -17
t16 -56t-21.5 -75t-52 -62t-53 -40t-41.5 -24l75 -144q11 -20 33.5 -22.5t39.5 5.5z" />
    <glyph glyph-name="l" unicode="l" horiz-adv-x="298" 
d="M87 676l11 63q79 19 133 19q48 0 63 -19t8 -56l-111 -570q-6 -28 26 -20q20 5 44 19l8 -63q-6 -6 -18 -15.5t-51.5 -25.5t-80.5 -16q-46 0 -63.5 21.5t-7.5 73.5l109 555q5 26 -4 30t-66 4z" />
    <glyph glyph-name="m" unicode="m" horiz-adv-x="888" 
d="M467 0h-138l69 340q11 56 2.5 80t-41.5 24q-17 0 -34.5 -5t-26.5 -10l-8 -5q-44 -71 -70 -208l-41 -216h-138l81 418q4 26 -4.5 30t-65.5 4l11 64q49 18 107 18q43 0 53 -20t-4 -86l-6 -25h8q25 62 85 98t126 36q94 0 106 -91q33 42 83 66.5t102 24.5q75 0 98.5 -51
t0.5 -164l-41 -209q-6 -29 27 -20q19 5 42 19l8 -63q-6 -6 -18 -15.5t-51 -25.5t-80 -16q-47 0 -64.5 21.5t-7.5 73.5l51 253q11 56 2.5 80t-41.5 24q-17 0 -34 -5t-26 -10l-9 -5q-39 -59 -69 -207z" />
    <glyph glyph-name="n" unicode="n" horiz-adv-x="606" 
d="M568 112l8 -63q-6 -6 -18 -15.5t-51 -25.5t-80 -16q-47 0 -64.5 21.5t-7.5 73.5l51 253q11 56 2 80t-43 24q-18 0 -36.5 -5t-28.5 -10l-10 -5q-45 -73 -70 -213l-41 -211h-138l81 418q4 26 -4.5 30t-65.5 4l11 64q49 18 107 18q43 0 53 -20t-4 -86l-6 -25h8
q27 62 88.5 98t129.5 36q75 0 99 -51t2 -164l-40 -201q-4 -22 13 -24t36 7z" />
    <glyph glyph-name="o" unicode="o" horiz-adv-x="542" 
d="M34 196q0 149 88.5 245t223.5 96q183 0 183 -202q0 -150 -88.5 -247.5t-222.5 -97.5q-184 0 -184 206zM176 203q0 -121 77 -121q16 0 33 4t26 8l9 3q3 3 7.5 9.5t15.5 28t20 45.5t16 62.5t7 79.5q0 122 -77 122q-15 0 -32 -3.5t-27 -6.5l-10 -4q-7 -10 -18 -29t-29 -78
t-18 -120z" />
    <glyph glyph-name="p" unicode="p" horiz-adv-x="574" 
d="M12 -149l110 566q4 26 -4.5 30t-65.5 4l11 65q49 18 107 18q43 0 53 -20t-4 -86l-6 -25h7q23 61 76 97.5t120 36.5q69 0 104 -42t35 -135q0 -156 -88.5 -263t-222.5 -107q-34 0 -67 7l-30 -154l84 -9l-13 -64h-278l12 60zM220 211l-22 -112q34 -17 72 -17q19 0 38 5t28 9
l10 5q8 11 19.5 31.5t31 85.5t19.5 132q0 52 -12.5 73t-44.5 21q-16 0 -33.5 -5t-27.5 -9l-9 -5q-43 -74 -69 -214z" />
    <glyph glyph-name="q" unicode="q" horiz-adv-x="544" 
d="M30 169q0 157 87 262.5t234 105.5q42 0 87.5 -9t69.5 -18l25 -9l-129 -658l54 -9l-12 -64h-249l12 60l60 21l11 55q5 28 24 91t23 80h-7q-17 -34 -63.5 -60.5t-99.5 -26.5q-127 0 -127 179zM289 101q43 74 70 214l22 119q-30 10 -65 10q-22 0 -42 -5t-29 -9l-9 -5
q-3 -4 -7.5 -11.5t-16.5 -33t-21 -52.5t-16.5 -69t-7.5 -85q0 -51 12 -71.5t43 -20.5q16 0 33 5t25 9z" />
    <glyph glyph-name="r" unicode="r" horiz-adv-x="419" 
d="M440 535l-23 -123q-24 4 -46 4q-24 0 -46.5 -6t-33.5 -12l-11 -5q-33 -42 -60 -182l-41 -211h-138l81 418q4 26 -4.5 30t-65.5 4l11 64q49 18 107 18q43 0 53 -20t-4 -86l-9 -39h5q21 67 75 107.5t116 40.5z" />
    <glyph glyph-name="s" unicode="s" horiz-adv-x="478" 
d="M309 140q0 30 -23 46.5t-69 30.5q-30 8 -49.5 16.5t-42.5 24.5t-34.5 41t-11.5 60q0 73 55 125.5t172 52.5q34 0 62.5 -5t45.5 -11.5t29.5 -13.5t16.5 -12l5 -5l-25 -132h-100l-2 79q-15 12 -54 12q-15 0 -31.5 -2.5t-26.5 -4.5l-9 -2q-16 -22 -16 -50q0 -32 24.5 -49
t76.5 -32q29 -8 47.5 -16t40 -23t32 -39t10.5 -58q0 -77 -60 -130.5t-187 -53.5q-58 0 -100 12t-55 23l-13 12l26 133h101l1 -79q18 -11 66 -11q19 0 39.5 2t31.5 4l10 2q17 25 17 53z" />
    <glyph glyph-name="t" unicode="t" horiz-adv-x="393" 
d="M62 433l15 76l59 17l40 100h116l-19 -100h136l-18 -93h-136l-56 -281q-12 -68 42 -68q18 0 39.5 7.5t33.5 14.5l13 8l8 -65q-6 -7 -17 -16.5t-51.5 -26t-86.5 -16.5q-148 0 -118 161l55 282h-55z" />
    <glyph glyph-name="u" unicode="u" horiz-adv-x="602" 
d="M52 452l11 64q79 18 133 18q48 0 63 -19t8 -55l-54 -274q-11 -58 -2.5 -81t41.5 -23q17 0 35.5 5t28.5 9l10 5q45 74 70 214l42 211h137l-80 -413q-6 -31 26 -21q20 5 43 20l8 -63q-6 -6 -16.5 -15.5t-44 -25t-68.5 -15.5q-36 0 -46.5 22t2.5 98l2 10h-8
q-25 -60 -84 -96.5t-129 -36.5q-75 0 -99 50.5t-2 164.5l43 213q5 25 -4 29.5t-66 4.5z" />
    <glyph glyph-name="v" unicode="v" horiz-adv-x="569" 
d="M373 456l10 60q54 18 102 18q81 0 81 -76q0 -68 -62 -182.5t-124 -195.5l-61 -80h-139l-64 418q-4 25 -14.5 29.5t-67.5 4.5l9 64q54 18 108 18q92 0 101 -74l44 -368q141 250 141 329q0 19 -14 26.5t-50 8.5z" />
    <glyph glyph-name="w" unicode="w" horiz-adv-x="844" 
d="M641 456l11 60q52 18 100 18q81 0 81 -77q0 -42 -22.5 -105t-55 -122t-65 -112t-54.5 -86l-23 -32h-120l-47 296q-22 -69 -52 -143t-49 -113l-19 -40h-144l-66 418q-4 25 -14.5 29.5t-67.5 4.5l9 64q49 18 102 18q94 0 104 -74l45 -344q113 258 113 410h119l66 -408
q114 228 114 300q0 22 -14 29.5t-51 8.5z" />
    <glyph glyph-name="x" unicode="x" horiz-adv-x="544" 
d="M496 107l9 -63q-5 -6 -15 -14.5t-40 -23t-59 -14.5q-71 0 -100 77l-42 115q-56 -108 -104.5 -151t-107.5 -43q-16 0 -29 2.5t-18 5.5l-6 2l19 109q17 -21 49 -21l32 4q55 60 128 192l-49 136q-7 19 -17 22t-59 3l-6 60q37 27 100 27q84 0 111 -75l32 -89q50 94 93 131.5
t96 37.5q16 0 29.5 -2.5t19.5 -4.5l6 -3l-20 -110q-16 21 -48 21l-32 -4q-42 -53 -107 -168l56 -153q7 -19 26.5 -20.5t36.5 6.5z" />
    <glyph glyph-name="y" unicode="y" horiz-adv-x="569" 
d="M-85 -229l21 108q34 -30 103 -30q15 0 30.5 2t22.5 4l8 2q37 33 88 110l-73 451q-2 12 -4 16.5t-5 9.5t-14 6t-21.5 1.5t-38.5 0.5l12 64q50 18 104 18q89 0 97 -74l44 -366q60 97 103.5 190.5t43.5 134.5q0 21 -14.5 28.5t-50.5 8.5l10 60q54 18 102 18q81 0 81 -71
q0 -59 -61 -191t-179 -285q-101 -132 -169.5 -179.5t-143.5 -47.5q-28 0 -52 3t-34 5z" />
    <glyph glyph-name="z" unicode="z" horiz-adv-x="500" 
d="M491 476l-317 -372q44 -16 85 -16q15 0 29 2.5t21 5.5l7 2q13 26 25 77h119q-24 -121 -44 -153t-75 -32q-50 0 -124 15.5t-87 15.5q-31 0 -59 -31q-36 0 -47.5 11.5t-11.5 48.5l326 384q-36 14 -70 14q-12 0 -27.5 -2t-24.5 -4l-10 -3q-16 -32 -29 -88h-115
q24 121 43.5 153.5t77.5 32.5q43 0 112 -12.5t81 -12.5q30 0 55 25q39 0 49.5 -11.5t10.5 -49.5z" />
    <glyph glyph-name="braceleft" unicode="{" horiz-adv-x="383" 
d="M86 39l34 122q28 100 -77 100l16 85q103 0 116 100l14 123q11 100 67 140.5t196 40.5l-16 -85q-60 0 -87 -22.5t-33 -73.5l-14 -123q-11 -99 -105 -142q77 -43 50 -143l-34 -122q-14 -52 4.5 -74.5t78.5 -22.5l-17 -84q-140 0 -180.5 40.5t-12.5 140.5z" />
    <glyph glyph-name="bar" unicode="|" horiz-adv-x="251" 
d="M182 -100h-85v850h85v-850z" />
    <glyph glyph-name="braceright" unicode="}" horiz-adv-x="383" 
d="M247 161l-14 -122q-11 -101 -67 -141t-196 -40l16 84q60 0 87.5 23t32.5 74l14 122q10 98 105 143q-77 45 -50 142l34 123q14 51 -4 73.5t-78 22.5l16 85q140 0 180.5 -40.5t12.5 -140.5l-33 -123q-14 -51 5 -75.5t72 -24.5l-17 -85q-104 0 -116 -100z" />
    <glyph glyph-name="asciitilde" unicode="~" horiz-adv-x="501" 
d="M81 239l-25 35q4 5 11 13t28.5 28t42.5 35.5t48.5 28t50.5 12.5q31 0 76 -28.5t62 -28.5l89 64l25 -35q-4 -5 -11 -12.5t-28.5 -27.5t-42 -35.5t-47.5 -28t-50 -12.5q-30 0 -75.5 28.5t-61.5 28.5z" />
    <glyph glyph-name="exclamdown" unicode="&#xa1;" horiz-adv-x="306" 
d="M248 407l-47 -307l-35 -180h-138l35 180l72 307h113zM301 562q0 -42 -28.5 -69t-70.5 -27q-31 0 -49 18t-18 49q0 41 29 68.5t70 27.5q31 0 49 -18.5t18 -48.5z" />
    <glyph glyph-name="cent" unicode="&#xa2;" horiz-adv-x="486" 
d="M476 355h-93l-1 78q-11 5 -29 9l-75 -357q32 0 66 7.5t52 15.5l17 7l12 -72q-73 -46 -167 -52l-12 -58h-69l13 62q-74 13 -115 68t-41 146q0 123 73.5 216.5t197.5 108.5l9 42h68l-9 -40q37 -3 70 -12t47 -16l15 -8zM179 210q0 -82 34 -108l72 338l-42 -13
q-7 -10 -17.5 -27.5t-28.5 -74t-18 -115.5z" />
    <glyph glyph-name="sterling" unicode="&#xa3;" 
d="M123 494q0 46 10.5 82t36 68t76 49.5t123.5 17.5q59 0 106.5 -11.5t66.5 -22.5l18 -11l-20 -174h-92l-11 100q-19 24 -82 24q-20 0 -39.5 -3t-29.5 -7l-9 -3q-28 -34 -28 -96q0 -16 3 -33.5t8 -39.5t7 -35h126l-18 -93h-114q-20 -67 -127 -201h232l50 95h92l-53 -200
h-455l12 56q13 22 42.5 74t39.5 70.5t23 49.5t17 56h-70l15 77l53 14q-9 63 -9 97z" />
    <glyph glyph-name="yen" unicode="&#xa5;" horiz-adv-x="667" 
d="M148 278l14 77h101l-111 268l-61 9l13 68h303l-13 -64l-76 -19l69 -174q6 -16 14 -46h4q6 10 17.5 27t14.5 21l128 178l-61 9l13 68h236l-13 -64l-72 -21l-202 -260h102l-14 -77h-133l-11 -59h132l-14 -77h-133l-13 -65l65 -9l-14 -68h-273l13 64l70 21l11 57h-133l15 77
h133l11 59h-132z" />
    <glyph glyph-name="brokenbar" unicode="&#xa6;" horiz-adv-x="251" 
d="M182 750v-350h-85v350h85zM182 -100h-85v350h85v-350z" />
    <glyph glyph-name="section" unicode="&#xa7;" horiz-adv-x="479" 
d="M468 330q0 -105 -85 -154q35 -33 35 -99q0 -24 -3.5 -45t-18 -48.5t-39 -47t-70 -33.5t-106.5 -14q-52 0 -95.5 9.5t-61.5 18.5l-17 9l28 141h101l3 -78q24 -12 65 -12q18 0 35.5 3t26.5 6l8 3q21 24 21 51q0 19 -15 33.5t-31 22t-51 19.5q-7 3 -11 4q-73 26 -105 58
t-32 93q0 106 89 155q-29 31 -29 91q0 90 57 142t171 52q48 0 89 -9t57 -19l17 -9l-27 -141h-101l-1 79q-20 11 -56 11q-16 0 -32 -3t-24 -5l-7 -3q-19 -26 -19 -53q0 -34 47 -56q12 -6 41 -18l11 -4q72 -28 103.5 -57.5t31.5 -92.5zM173 312q-1 -12 1 -21t8.5 -16.5
t11.5 -12t18.5 -10.5t21 -9t26.5 -9.5t28 -9.5l21 -8q38 41 38 81q0 9 -2 16t-8.5 13.5t-11 10.5t-17.5 9.5t-20.5 8t-27 9.5t-30.5 11l-22 8q-33 -33 -35 -71z" />
    <glyph glyph-name="dieresis" unicode="&#xa8;" horiz-adv-x="413" 
d="M129 654q0 34 23 56.5t56 22.5q25 0 40 -14.5t15 -39.5q0 -33 -23.5 -55.5t-56.5 -22.5q-25 0 -39.5 14.5t-14.5 38.5zM329 654q0 34 23.5 56.5t56.5 22.5q25 0 40 -14.5t15 -39.5q0 -33 -23.5 -55.5t-57.5 -22.5q-25 0 -39.5 14.5t-14.5 38.5z" />
    <glyph glyph-name="copyright" unicode="&#xa9;" horiz-adv-x="760" 
d="M51 286q0 179 122 299t299 120q135 0 212 -76.5t77 -214.5q0 -179 -121.5 -299t-297.5 -120q-136 0 -213.5 76.5t-77.5 214.5zM129 302q0 -111 62 -171t172 -60q38 0 78 7t61 14l21 7q7 4 17.5 12.5t38 37t48.5 60.5t38.5 83.5t17.5 106.5q0 110 -62 170t-172 60
q-39 0 -79.5 -7.5t-61.5 -15.5l-22 -7q-6 -4 -17 -12t-38 -35.5t-47.5 -59.5t-37.5 -83.5t-17 -106.5zM498 420l-7 54q-19 9 -53 9q-16 0 -30.5 -3t-21.5 -6l-6 -3q-6 -7 -15 -20t-24 -57.5t-15 -93.5q0 -45 15 -65t51 -20q12 0 25 2.5t19 4.5l7 2l30 55h53l-28 -98
q-55 -22 -114 -22q-70 0 -107 38.5t-37 114.5q0 100 59.5 163.5t157.5 63.5q28 0 54.5 -5.5t38.5 -11.5l12 -5l-10 -97h-54z" />
    <glyph glyph-name="ordfeminine" unicode="&#xaa;" horiz-adv-x="406" 
d="M73 469q0 112 62.5 185.5t166.5 73.5q31 0 64 -6t50 -12l18 -7l-52 -266q-3 -19 16 -15q13 2 32 14l5 -50q-4 -5 -12 -11.5t-32.5 -18t-50.5 -11.5q-28 0 -37 15.5t2 71.5h-4q-17 -46 -52.5 -68t-78.5 -22q-97 0 -97 127zM253 427q29 49 46 144l15 78q-19 7 -39 7
q-14 0 -26.5 -3t-18.5 -7l-6 -3q-5 -8 -12 -22t-18.5 -58.5t-11.5 -89.5q0 -33 7 -46t26 -13q10 0 19.5 3t13.5 7z" />
    <glyph glyph-name="guillemotleft" unicode="&#xab;" horiz-adv-x="481" 
d="M208 123l-154 169l4 16l218 169l26 -43l-135 -134l84 -134zM381 123l-154 169l4 16l219 169l25 -43l-135 -134l84 -134z" />
    <glyph glyph-name="registered" unicode="&#xae;" horiz-adv-x="760" 
d="M51 286q0 178 122 298.5t299 120.5q136 0 212.5 -76.5t76.5 -214.5q0 -179 -121.5 -299t-297.5 -120q-136 0 -213.5 77t-77.5 214zM129 302q0 -111 62 -171t172 -60q38 0 78 7t61 14l21 7q7 4 17.5 12.5t38 37t48.5 60.5t38.5 83.5t17.5 106.5q0 110 -62 170t-172 60
q-39 0 -79.5 -7.5t-61.5 -15.5l-22 -7q-6 -4 -17 -12t-38 -35.5t-47.5 -59.5t-37.5 -83.5t-17 -106.5zM337 213l37 -4l-8 -40h-158l7 37l41 12l54 278l-37 4l7 39h174q56 0 88.5 -25t32.5 -70q0 -41 -28 -71.5t-75 -43.5l56 -116l36 -4l-8 -40h-108l-60 152h-30zM425 486
h-36l-21 -111h40l47 5q31 17 31 61q0 25 -14 35t-47 10z" />
    <glyph glyph-name="macron" unicode="&#xaf;" horiz-adv-x="413" 
d="M128 618l16 84h298l-16 -84h-298z" />
    <glyph glyph-name="degree" unicode="&#xb0;" horiz-adv-x="366" 
d="M87 546q13 63 60 101t112 38q66 0 99 -38t21 -101q-13 -64 -61 -101.5t-114 -37.5q-65 0 -97.5 38t-19.5 101zM176 550q-13 -70 48 -70q10 0 21 2t17 4l7 2q16 20 22 53q13 70 -47 70q-12 0 -24 -2t-18 -4l-6 -2q-14 -20 -20 -53z" />
    <glyph glyph-name="plusminus" unicode="&#xb1;" horiz-adv-x="503" 
d="M74 394v85h154v153h85v-153h154v-85h-154v-154h-85v154h-154zM74 104v85h393v-85h-393z" />
    <glyph glyph-name="twosuperior" unicode="&#xb2;" horiz-adv-x="353" 
d="M390 626q0 -33 -21.5 -61.5t-50 -47t-79.5 -53.5t-89 -68h115l29 48h62l-31 -118h-266l13 70q52 53 111.5 97.5t81.5 66t22 47.5q0 35 -39 35q-12 0 -22.5 -2.5t-15.5 -5.5l-4 -2l-29 -51h-63l29 102q44 24 125 24q65 0 93.5 -20t28.5 -61z" />
    <glyph glyph-name="threesuperior" unicode="&#xb3;" horiz-adv-x="353" 
d="M356 451q0 -62 -49 -97t-130 -35q-35 0 -64.5 6.5t-41.5 13.5l-12 7l26 52q33 -17 91 -17l57 5q21 24 21 61q0 24 -11 33.5t-35 9.5l-30 -2q0 5 1 11q0 12 3 24t6 18l3 6q12 3 36 26.5t41 45.5l18 22h-79l-31 -57h-62l31 116h245l-11 -59q-52 -59 -106 -102
q83 -14 83 -88z" />
    <glyph glyph-name="acute" unicode="&#xb4;" horiz-adv-x="415" 
d="M192 595l169 169l69 -85l-185 -110z" />
    <glyph glyph-name="paragraph" unicode="&#xb6;" horiz-adv-x="646" 
d="M401 -100l138 707h-96l-137 -707h-85l74 381q-95 0 -150.5 45t-55.5 126q0 114 81 181t207 67h330l-13 -68l-67 -9l-141 -723h-85z" />
    <glyph glyph-name="periodcentered" unicode="&#xb7;" horiz-adv-x="237" 
d="M62 345q0 41 28.5 68.5t69.5 27.5q31 0 49.5 -18t18.5 -48q0 -41 -29 -68.5t-70 -27.5q-31 0 -49 18t-18 48z" />
    <glyph glyph-name="cedilla" unicode="&#xb8;" horiz-adv-x="343" 
d="M79 -87l29 97h60l-21 -70q3 0 7 -0.5t15 -3.5t19.5 -8.5t15.5 -17.5t7 -28q0 -41 -37.5 -66t-102.5 -25q-19 0 -35.5 2.5t-23.5 4.5l-7 2l24 62q15 -15 50 -15l29 3q10 16 10 31q0 13 -10 21t-20 10z" />
    <glyph glyph-name="onesuperior" unicode="&#xb9;" horiz-adv-x="353" 
d="M132 620l10 46q115 20 176 40l7 -8l-61 -317l74 -5l-10 -50h-250l10 50l85 14l44 230h-85z" />
    <glyph glyph-name="ordmasculine" unicode="&#xba;" horiz-adv-x="390" 
d="M76 486q0 107 63.5 174.5t161.5 67.5q65 0 97 -33.5t32 -107.5q0 -107 -63 -176t-160 -69q-131 0 -131 144zM189 492q0 -78 46 -78q10 0 21 2.5t16 5.5l6 2q4 6 10.5 18t17.5 52t11 84q0 40 -9.5 59t-34.5 19q-10 0 -21 -2.5t-18 -5.5l-6 -2q-39 -63 -39 -154z" />
    <glyph glyph-name="guillemotright" unicode="&#xbb;" horiz-adv-x="481" 
d="M136 477l154 -169l-3 -16l-219 -169l-26 43l135 134l-83 134zM310 477l153 -169l-3 -16l-219 -169l-26 43l135 134l-82 134z" />
    <glyph glyph-name="onequarter" unicode="&#xbc;" horiz-adv-x="820" 
d="M216 0h-102l586 700h102zM452 88l8 36l202 250h97l-42 -218h42l-12 -67h-43l-7 -38l41 -6l-9 -45h-175l8 39l43 15l7 34h-160zM132 620l10 46q118 21 176 40l8 -8l-62 -317l75 -5l-11 -50h-250l11 50l84 14l44 230h-85zM552 158h78l24 126z" />
    <glyph glyph-name="onehalf" unicode="&#xbd;" horiz-adv-x="831" 
d="M132 620l10 46q118 21 176 40l8 -8l-62 -317l75 -5l-11 -50h-250l11 50l84 14l44 230h-85zM216 0h-102l586 700h102zM810 301q0 -34 -22 -62.5t-51 -47.5t-79 -53.5t-87 -66.5h113l29 47h63l-32 -118h-266l14 71q46 46 93 83.5t69.5 52.5t37 35.5t14.5 46.5
q0 10 -10 18.5t-30 8.5q-11 0 -21 -2.5t-15 -5.5l-5 -2l-29 -50h-62l29 101q44 24 124 24q123 0 123 -80z" />
    <glyph glyph-name="threequarters" unicode="&#xbe;" horiz-adv-x="820" 
d="M216 0h-102l586 700h102zM452 88l7 36l202 250h98l-43 -218h43l-12 -67h-43l-7 -38l41 -6l-9 -45h-175l8 39l43 15l6 34h-159zM356 451q0 -63 -49 -97.5t-130 -34.5q-35 0 -64.5 6.5t-41.5 13.5l-12 7l25 52q34 -17 92 -17l57 5q21 24 21 61q0 24 -11 33.5t-35 9.5
l-30 -2q1 5 1 11q0 12 2.5 24t5.5 18l3 6q13 3 37 26.5t41 45.5l18 22h-79l-31 -57h-62l31 116h245l-11 -59q-53 -59 -107 -102v-1q43 -8 63.5 -28.5t20.5 -58.5zM552 158h77l25 126z" />
    <glyph glyph-name="questiondown" unicode="&#xbf;" horiz-adv-x="500" 
d="M407 561q0 -40 -28.5 -67t-68.5 -27q-32 0 -50 18t-18 49q0 40 28.5 67.5t69.5 27.5q32 0 50 -18.5t17 -49.5zM352 407l-19 -159q-92 -53 -130.5 -93t-38.5 -91q0 -29 14.5 -43.5t50.5 -14.5q23 0 42.5 5.5t28.5 10.5l8 6l50 100h93l-48 -174q-8 -5 -23.5 -12.5
t-66.5 -19.5t-107 -12q-195 0 -195 136q0 64 46 116t144 112l39 133h112z" />
    <glyph glyph-name="Agrave" unicode="&#xc0;" horiz-adv-x="717" 
d="M380 700h137l13 -15l92 -608l64 -9l-14 -68h-295l11 62l70 23l-14 110h-229l-63 -118l69 -9l-14 -68h-246l12 64l65 21zM367 486l-104 -198h171l-25 198q-4 32 -4 77h-5q-19 -51 -33 -77zM324 849l101 84l104 -169l-63 -26z" />
    <glyph glyph-name="Aacute" unicode="&#xc1;" horiz-adv-x="717" 
d="M380 700h137l13 -15l92 -608l64 -9l-14 -68h-295l11 62l70 23l-14 110h-229l-63 -118l69 -9l-14 -68h-246l12 64l65 21zM367 486l-104 -198h171l-25 198q-4 32 -4 77h-5q-19 -51 -33 -77zM374 764l169 169l69 -84l-185 -111z" />
    <glyph glyph-name="Acircumflex" unicode="&#xc2;" horiz-adv-x="717" 
d="M380 700h137l13 -15l92 -608l64 -9l-14 -68h-295l11 62l70 23l-14 110h-229l-63 -118l69 -9l-14 -68h-246l12 64l65 21zM367 486l-104 -198h171l-25 198q-4 32 -4 77h-5q-19 -51 -33 -77zM304 764l175 161h17l113 -161l-64 -26l-79 75l-109 -75z" />
    <glyph glyph-name="Atilde" unicode="&#xc3;" horiz-adv-x="717" 
d="M380 700h137l13 -15l92 -608l64 -9l-14 -68h-295l11 62l70 23l-14 110h-229l-63 -118l69 -9l-14 -68h-246l12 64l65 21zM367 486l-104 -198h171l-25 198q-4 32 -4 77h-5q-19 -51 -33 -77zM309 763l-26 35q3 4 8.5 10t23 22t35 28.5t42 22.5t46.5 10q26 0 62 -19.5
t58 -19.5l67 41l24 -35q-3 -4 -8.5 -10t-23 -21.5t-34.5 -27.5t-41 -22t-45 -10q-26 0 -63.5 19.5t-58.5 19.5z" />
    <glyph glyph-name="Adieresis" unicode="&#xc4;" horiz-adv-x="717" 
d="M380 700h137l13 -15l92 -608l64 -9l-14 -68h-295l11 62l70 23l-14 110h-229l-63 -118l69 -9l-14 -68h-246l12 64l65 21zM367 486l-104 -198h171l-25 198q-4 32 -4 77h-5q-19 -51 -33 -77zM299 815q0 34 23.5 56.5t56.5 22.5q25 0 40 -14.5t15 -39.5q0 -33 -23.5 -55.5
t-57.5 -22.5q-24 0 -39 15t-15 38zM500 815q0 34 23.5 56.5t56.5 22.5q25 0 40 -14.5t15 -39.5q0 -33 -23.5 -55.5t-57.5 -22.5q-24 0 -39 15t-15 38z" />
    <glyph glyph-name="Aring" unicode="&#xc5;" horiz-adv-x="717" 
d="M380 700h137l13 -15l92 -608l64 -9l-14 -68h-295l11 62l70 23l-14 110h-229l-63 -118l69 -9l-14 -68h-246l12 64l65 21zM367 486l-104 -198h171l-25 198q-4 32 -4 77h-5q-19 -51 -33 -77zM381 816q0 46 32 76t81 30q38 0 60 -20t22 -55q0 -46 -33 -76t-81 -30
q-38 0 -59.5 19.5t-21.5 55.5zM444 824q0 -29 29 -29l27 4q12 17 12 40q0 29 -28 29l-27 -4q-13 -18 -13 -40z" />
    <glyph glyph-name="AE" unicode="&#xc6;" horiz-adv-x="834" 
d="M751 0h-452l12 62l70 23l9 110h-171l-69 -118l68 -9l-13 -68h-244l12 64l65 21l362 615h473l-24 -192h-92l-11 99h-187l-12 -206h65l31 78h72l-48 -248h-72l-2 78h-53l-12 -216h131l51 103h93zM382 486l-115 -198h135l24 279h-5q-15 -40 -39 -81z" />
    <glyph glyph-name="Ccedilla" unicode="&#xc7;" horiz-adv-x="581" 
d="M244 -87l22 78q-216 19 -216 284q0 190 107.5 313t281.5 123q49 0 95 -10.5t67 -20.5l21 -10l-21 -180h-92l-11 103q-33 21 -93 21q-29 0 -54.5 -6t-36.5 -12l-12 -7q-4 -5 -11 -15t-25.5 -43.5t-32 -70t-25 -93.5t-11.5 -116q0 -86 27.5 -125.5t88.5 -39.5q21 0 44 4.5
t35 9.5l13 4l52 110h93l-49 -184q-81 -34 -175 -40l-15 -50q3 0 7 -0.5t15 -3.5t19.5 -8.5t15.5 -17.5t7 -28q0 -41 -37.5 -66t-102.5 -25q-18 0 -34.5 2.5t-24.5 4.5l-7 2l25 62q15 -15 49 -15l29 3q10 16 10 31q0 13 -9.5 21t-18.5 10z" />
    <glyph glyph-name="Egrave" unicode="&#xc8;" horiz-adv-x="592" 
d="M509 0h-515l12 64l69 21l106 538l-64 9l13 68h501l-23 -192h-93l-10 99h-186l-40 -206h80l31 78h76l-48 -248h-76l-2 78h-79l-42 -216h198l51 103h94zM268 849l101 84l104 -169l-63 -26z" />
    <glyph glyph-name="Eacute" unicode="&#xc9;" horiz-adv-x="592" 
d="M509 0h-515l12 64l69 21l106 538l-64 9l13 68h501l-23 -192h-93l-10 99h-186l-40 -206h80l31 78h76l-48 -248h-76l-2 78h-79l-42 -216h198l51 103h94zM339 764l170 169l69 -84l-185 -111z" />
    <glyph glyph-name="Ecircumflex" unicode="&#xca;" horiz-adv-x="592" 
d="M509 0h-515l12 64l69 21l106 538l-64 9l13 68h501l-23 -192h-93l-10 99h-186l-40 -206h80l31 78h76l-48 -248h-76l-2 78h-79l-42 -216h198l51 103h94zM255 764l175 161h17l114 -161l-64 -26l-80 75l-108 -75z" />
    <glyph glyph-name="Edieresis" unicode="&#xcb;" horiz-adv-x="592" 
d="M509 0h-515l12 64l69 21l106 538l-64 9l13 68h501l-23 -192h-93l-10 99h-186l-40 -206h80l31 78h76l-48 -248h-76l-2 78h-79l-42 -216h198l51 103h94zM243 815q0 34 23 56.5t56 22.5q25 0 40 -14.5t15 -39.5q0 -33 -23.5 -55.5t-56.5 -22.5q-25 0 -39.5 15t-14.5 38z
M443 815q0 34 23.5 56.5t56.5 22.5q25 0 40 -14.5t15 -39.5q0 -33 -23.5 -55.5t-57.5 -22.5q-24 0 -39 15t-15 38z" />
    <glyph glyph-name="Igrave" unicode="&#xcc;" horiz-adv-x="344" 
d="M215 77l65 -9l-13 -68h-273l12 64l69 21l106 538l-64 9l13 68h273l-13 -64l-69 -21zM138 849l100 84l104 -169l-63 -26z" />
    <glyph glyph-name="Iacute" unicode="&#xcd;" horiz-adv-x="344" 
d="M215 77l65 -9l-13 -68h-273l12 64l69 21l106 538l-64 9l13 68h273l-13 -64l-69 -21zM203 764l170 169l68 -84l-184 -111z" />
    <glyph glyph-name="Icircumflex" unicode="&#xce;" horiz-adv-x="344" 
d="M215 77l65 -9l-13 -68h-273l12 64l69 21l106 538l-64 9l13 68h273l-13 -64l-69 -21zM118 764l176 161h17l113 -161l-64 -26l-79 75l-109 -75z" />
    <glyph glyph-name="Idieresis" unicode="&#xcf;" horiz-adv-x="344" 
d="M215 77l65 -9l-13 -68h-273l12 64l69 21l106 538l-64 9l13 68h273l-13 -64l-69 -21zM119 815q0 34 23 56.5t56 22.5q25 0 40 -14.5t15 -39.5q0 -33 -23.5 -55.5t-56.5 -22.5q-25 0 -39.5 15t-14.5 38zM319 815q0 34 23.5 56.5t56.5 22.5q25 0 40 -14.5t15 -39.5
q0 -33 -23.5 -55.5t-57.5 -22.5q-24 0 -39 15t-15 38z" />
    <glyph glyph-name="Eth" unicode="&#xd0;" horiz-adv-x="663" 
d="M54 309l16 76l69 18l43 220l-64 9l13 68h299q111 0 173.5 -70.5t62.5 -207.5q0 -183 -106.5 -302.5t-264.5 -119.5h-300l12 64l69 21l44 224h-66zM400 607h-80l-40 -205h120l-19 -93h-119l-42 -216h87q27 0 51.5 5t35.5 10l10 5q5 5 12.5 13.5t27 40t34.5 66.5t27 92.5
t12 118.5q0 84 -27 123.5t-90 39.5z" />
    <glyph glyph-name="Ntilde" unicode="&#xd1;" horiz-adv-x="728" 
d="M179 77l68 -9l-13 -68h-244l11 64l74 21l105 538l-68 9l14 68h204l182 -387q12 -29 16 -56l4 1q0 3 8 55l61 310l-68 9l13 68h245l-13 -64l-74 -21l-119 -615h-98l-208 440q-15 31 -17 55l-4 -1q-3 -27 -9 -54zM314 763l-25 35q3 4 8.5 10t23 22t35 28.5t42 22.5t46.5 10
q26 0 62 -19.5t58 -19.5l66 41l25 -35q-3 -4 -8.5 -10t-23 -21.5t-34.5 -27.5t-41 -22t-46 -10q-26 0 -63 19.5t-58 19.5z" />
    <glyph glyph-name="Ograve" unicode="&#xd2;" horiz-adv-x="653" 
d="M49 272q0 190 107 314.5t264 124.5q112 0 174 -71.5t62 -211.5q0 -190 -106.5 -314.5t-263.5 -124.5q-113 0 -175 72t-62 211zM196 249q0 -86 27 -124.5t88 -38.5q25 0 48.5 6t34.5 12l10 6q4 5 11 15t25.5 43t32 70t25 94.5t11.5 117.5q0 88 -26.5 126t-85.5 38
q-25 0 -49.5 -6t-35.5 -12l-12 -7q-4 -5 -11 -15t-25 -43.5t-32 -70.5t-25 -94.5t-11 -116.5zM287 849l101 84l104 -169l-63 -26z" />
    <glyph glyph-name="Oacute" unicode="&#xd3;" horiz-adv-x="653" 
d="M49 272q0 190 107 314.5t264 124.5q112 0 174 -71.5t62 -211.5q0 -190 -106.5 -314.5t-263.5 -124.5q-113 0 -175 72t-62 211zM196 249q0 -86 27 -124.5t88 -38.5q25 0 48.5 6t34.5 12l10 6q4 5 11 15t25.5 43t32 70t25 94.5t11.5 117.5q0 88 -26.5 126t-85.5 38
q-25 0 -49.5 -6t-35.5 -12l-12 -7q-4 -5 -11 -15t-25 -43.5t-32 -70.5t-25 -94.5t-11 -116.5zM358 764l170 169l68 -84l-185 -111z" />
    <glyph glyph-name="Ocircumflex" unicode="&#xd4;" horiz-adv-x="653" 
d="M49 272q0 190 107 314.5t264 124.5q112 0 174 -71.5t62 -211.5q0 -190 -106.5 -314.5t-263.5 -124.5q-113 0 -175 72t-62 211zM196 249q0 -86 27 -124.5t88 -38.5q25 0 48.5 6t34.5 12l10 6q4 5 11 15t25.5 43t32 70t25 94.5t11.5 117.5q0 88 -26.5 126t-85.5 38
q-25 0 -49.5 -6t-35.5 -12l-12 -7q-4 -5 -11 -15t-25 -43.5t-32 -70.5t-25 -94.5t-11 -116.5zM271 764l175 161h17l113 -161l-64 -26l-79 75l-109 -75z" />
    <glyph glyph-name="Otilde" unicode="&#xd5;" horiz-adv-x="653" 
d="M49 272q0 190 107 314.5t264 124.5q112 0 174 -71.5t62 -211.5q0 -190 -106.5 -314.5t-263.5 -124.5q-113 0 -175 72t-62 211zM196 249q0 -86 27 -124.5t88 -38.5q25 0 48.5 6t34.5 12l10 6q4 5 11 15t25.5 43t32 70t25 94.5t11.5 117.5q0 88 -26.5 126t-85.5 38
q-25 0 -49.5 -6t-35.5 -12l-12 -7q-4 -5 -11 -15t-25 -43.5t-32 -70.5t-25 -94.5t-11 -116.5zM285 763l-25 35q3 4 8.5 10t23 22t35 28.5t42 22.5t46.5 10q26 0 62 -19.5t58 -19.5l66 41l25 -35q-3 -4 -8.5 -10t-23 -21.5t-34.5 -27.5t-41 -22t-46 -10q-25 0 -62.5 19.5
t-58.5 19.5z" />
    <glyph glyph-name="Odieresis" unicode="&#xd6;" horiz-adv-x="653" 
d="M49 272q0 190 107 314.5t264 124.5q112 0 174 -71.5t62 -211.5q0 -190 -106.5 -314.5t-263.5 -124.5q-113 0 -175 72t-62 211zM196 249q0 -86 27 -124.5t88 -38.5q25 0 48.5 6t34.5 12l10 6q4 5 11 15t25.5 43t32 70t25 94.5t11.5 117.5q0 88 -26.5 126t-85.5 38
q-25 0 -49.5 -6t-35.5 -12l-12 -7q-4 -5 -11 -15t-25 -43.5t-32 -70.5t-25 -94.5t-11 -116.5zM268 815q0 34 23 56.5t56 22.5q25 0 40 -14.5t15 -39.5q0 -33 -23.5 -55.5t-56.5 -22.5q-24 0 -39 15t-15 38zM468 815q0 34 23.5 56.5t56.5 22.5q25 0 40 -14.5t15 -39.5
q0 -33 -23.5 -55.5t-57.5 -22.5q-24 0 -39 15t-15 38z" />
    <glyph glyph-name="multiply" unicode="&#xd7;" horiz-adv-x="503" 
d="M144 151l-60 60l128 129l-128 129l60 60l128 -129l129 129l60 -60l-129 -129l129 -129l-60 -60l-129 129z" />
    <glyph glyph-name="Oslash" unicode="&#xd8;" horiz-adv-x="654" 
d="M14 17l72 82q-37 68 -37 174q0 189 107 313.5t264 124.5q97 0 156 -53l50 56l66 -32l-72 -81q37 -69 37 -173q0 -190 -107 -314.5t-263 -124.5q-97 0 -158 53l-49 -56zM509 451q0 15 -1 22l-293 -334q25 -53 96 -53q26 0 49.5 6t33.5 12l11 6q4 5 11 15t25 43t32 70
t25 95t11 118zM197 248v-22l294 335q-25 53 -93 53q-26 0 -50 -6t-36 -12l-11 -7q-4 -5 -11 -15t-25 -43.5t-32 -70.5t-25 -94.5t-11 -117.5z" />
    <glyph glyph-name="Ugrave" unicode="&#xd9;" horiz-adv-x="715" 
d="M697 615l-70 -357q-24 -127 -109 -198t-203 -71q-117 0 -176.5 68t-36.5 186l74 380l-64 9l13 68h277l-12 -64l-70 -21l-73 -374q-16 -86 10 -122.5t102 -36.5q29 0 52.5 4t32.5 8l10 5q5 5 13.5 15.5t26.5 51t28 90.5l71 367l-68 9l13 68h245l-12 -64zM337 849l101 84
l104 -169l-63 -26z" />
    <glyph glyph-name="Uacute" unicode="&#xda;" horiz-adv-x="715" 
d="M697 615l-70 -357q-24 -127 -109 -198t-203 -71q-117 0 -176.5 68t-36.5 186l74 380l-64 9l13 68h277l-12 -64l-70 -21l-73 -374q-16 -86 10 -122.5t102 -36.5q29 0 52.5 4t32.5 8l10 5q5 5 13.5 15.5t26.5 51t28 90.5l71 367l-68 9l13 68h245l-12 -64zM421 764l170 169
l68 -84l-184 -111z" />
    <glyph glyph-name="Ucircumflex" unicode="&#xdb;" horiz-adv-x="715" 
d="M697 615l-70 -357q-24 -127 -109 -198t-203 -71q-117 0 -176.5 68t-36.5 186l74 380l-64 9l13 68h277l-12 -64l-70 -21l-73 -374q-16 -86 10 -122.5t102 -36.5q29 0 52.5 4t32.5 8l10 5q5 5 13.5 15.5t26.5 51t28 90.5l71 367l-68 9l13 68h245l-12 -64zM326 764l175 161
h17l114 -161l-64 -26l-80 75l-108 -75z" />
    <glyph glyph-name="Udieresis" unicode="&#xdc;" horiz-adv-x="715" 
d="M697 615l-70 -357q-24 -127 -109 -198t-203 -71q-117 0 -176.5 68t-36.5 186l74 380l-64 9l13 68h277l-12 -64l-70 -21l-73 -374q-16 -86 10 -122.5t102 -36.5q29 0 52.5 4t32.5 8l10 5q5 5 13.5 15.5t26.5 51t28 90.5l71 367l-68 9l13 68h245l-12 -64zM323 815
q0 34 23 56.5t56 22.5q25 0 40 -14.5t15 -39.5q0 -33 -23.5 -55.5t-56.5 -22.5q-25 0 -39.5 15t-14.5 38zM523 815q0 34 23.5 56.5t56.5 22.5q25 0 40 -14.5t15 -39.5q0 -33 -23.5 -55.5t-57.5 -22.5q-25 0 -39.5 15t-14.5 38z" />
    <glyph glyph-name="Yacute" unicode="&#xdd;" horiz-adv-x="667" 
d="M668 615l-243 -318l-43 -220l65 -9l-14 -68h-273l13 64l70 21l41 210l-132 328l-61 9l13 68h300l-12 -64l-77 -19l68 -182q14 -44 14 -45h4q6 10 17.5 26t14.5 21l130 186l-61 9l13 68h238l-13 -64zM394 764l170 169l69 -84l-185 -111z" />
    <glyph glyph-name="Thorn" unicode="&#xde;" horiz-adv-x="619" 
d="M216 79l79 -5l-14 -74h-287l12 64l69 21l106 538l-64 9l13 68h273l-13 -64l-69 -21l-12 -54h96q94 0 151 -45.5t57 -128.5q0 -100 -81 -163.5t-204 -63.5h-96zM354 468h-62l-42 -215h70q22 0 43 2.5t31 4.5l10 2q6 5 15.5 14t25 40.5t15.5 67.5q0 45 -25 64.5t-81 19.5z
" />
    <glyph glyph-name="germandbls" unicode="&#xdf;" horiz-adv-x="661" 
d="M365 90q19 -11 60 -11q18 0 34 2.5t23 4.5l6 3q17 28 17 56q0 26 -18 40.5t-60 33.5q-68 31 -95.5 86.5t-5.5 163.5q136 54 136 143q0 64 -66 64q-20 0 -40 -5t-30 -10l-11 -5q-26 -38 -41 -113l-105 -543q-25 -130 -84 -185t-161 -55q-23 0 -45.5 2.5t-33.5 5.5l-11 2
l32 97q36 -18 76 -18q12 0 22.5 2t15.5 4l4 2q26 33 48 143l105 542q20 106 94.5 162t194.5 56q91 0 129.5 -32.5t38.5 -94.5q0 -124 -164 -201q-7 -36 13.5 -63.5t66.5 -52.5q6 -3 28.5 -14.5t29 -16t22 -16.5t21 -22.5t11 -28.5t5.5 -40q0 -81 -59 -135t-175 -54
q-45 0 -84.5 8.5t-56.5 17.5l-16 9l27 144h101z" />
    <glyph glyph-name="agrave" unicode="&#xe0;" horiz-adv-x="564" 
d="M30 169q0 158 87 263t234 105q42 0 87.5 -9t69.5 -18l25 -9l-76 -388q-6 -30 26 -21q20 5 44 20l8 -63q-6 -6 -16.5 -15.5t-44.5 -25t-68 -15.5q-24 0 -36 8.5t-16.5 35.5t8.5 76l2 10h-7q-24 -65 -76 -99t-115 -34q-69 0 -102.5 42.5t-33.5 136.5zM288 103q44 72 71 212
l22 119q-30 10 -65 10q-22 0 -42 -5t-29 -9l-9 -5q-3 -4 -7.5 -11.5t-16.5 -33t-21 -52.5t-16.5 -69t-7.5 -85q0 -50 12 -71t42 -21q16 0 33 5t26 11zM202 679l101 85l103 -169l-63 -26z" />
    <glyph glyph-name="aacute" unicode="&#xe1;" horiz-adv-x="564" 
d="M30 169q0 158 87 263t234 105q42 0 87.5 -9t69.5 -18l25 -9l-76 -388q-6 -30 26 -21q20 5 44 20l8 -63q-6 -6 -16.5 -15.5t-44.5 -25t-68 -15.5q-24 0 -36 8.5t-16.5 35.5t8.5 76l2 10h-7q-24 -65 -76 -99t-115 -34q-69 0 -102.5 42.5t-33.5 136.5zM288 103q44 72 71 212
l22 119q-30 10 -65 10q-22 0 -42 -5t-29 -9l-9 -5q-3 -4 -7.5 -11.5t-16.5 -33t-21 -52.5t-16.5 -69t-7.5 -85q0 -50 12 -71t42 -21q16 0 33 5t26 11zM271 595l169 169l69 -85l-185 -110z" />
    <glyph glyph-name="acircumflex" unicode="&#xe2;" horiz-adv-x="564" 
d="M30 169q0 158 87 263t234 105q42 0 87.5 -9t69.5 -18l25 -9l-76 -388q-6 -30 26 -21q20 5 44 20l8 -63q-6 -6 -16.5 -15.5t-44.5 -25t-68 -15.5q-24 0 -36 8.5t-16.5 35.5t8.5 76l2 10h-7q-24 -65 -76 -99t-115 -34q-69 0 -102.5 42.5t-33.5 136.5zM288 103q44 72 71 212
l22 119q-30 10 -65 10q-22 0 -42 -5t-29 -9l-9 -5q-3 -4 -7.5 -11.5t-16.5 -33t-21 -52.5t-16.5 -69t-7.5 -85q0 -50 12 -71t42 -21q16 0 33 5t26 11zM206 595l175 160h17l113 -160l-64 -26l-79 75l-109 -75z" />
    <glyph glyph-name="atilde" unicode="&#xe3;" horiz-adv-x="564" 
d="M30 169q0 158 87 263t234 105q42 0 87.5 -9t69.5 -18l25 -9l-76 -388q-6 -30 26 -21q20 5 44 20l8 -63q-6 -6 -16.5 -15.5t-44.5 -25t-68 -15.5q-24 0 -36 8.5t-16.5 35.5t8.5 76l2 10h-7q-24 -65 -76 -99t-115 -34q-69 0 -102.5 42.5t-33.5 136.5zM288 103q44 72 71 212
l22 119q-30 10 -65 10q-22 0 -42 -5t-29 -9l-9 -5q-3 -4 -7.5 -11.5t-16.5 -33t-21 -52.5t-16.5 -69t-7.5 -85q0 -50 12 -71t42 -21q16 0 33 5t26 11zM205 602l-25 35q3 4 8.5 10t23 22t35 28.5t42 22.5t46.5 10q26 0 62 -19.5t58 -19.5l66 41l25 -35q-3 -4 -8.5 -10
t-23 -21.5t-34.5 -27.5t-41 -22t-46 -10q-25 0 -62.5 19t-58.5 19z" />
    <glyph glyph-name="adieresis" unicode="&#xe4;" horiz-adv-x="564" 
d="M30 169q0 158 87 263t234 105q42 0 87.5 -9t69.5 -18l25 -9l-76 -388q-6 -30 26 -21q20 5 44 20l8 -63q-6 -6 -16.5 -15.5t-44.5 -25t-68 -15.5q-24 0 -36 8.5t-16.5 35.5t8.5 76l2 10h-7q-24 -65 -76 -99t-115 -34q-69 0 -102.5 42.5t-33.5 136.5zM288 103q44 72 71 212
l22 119q-30 10 -65 10q-22 0 -42 -5t-29 -9l-9 -5q-3 -4 -7.5 -11.5t-16.5 -33t-21 -52.5t-16.5 -69t-7.5 -85q0 -50 12 -71t42 -21q16 0 33 5t26 11zM394 654q0 34 23.5 56.5t56.5 22.5q25 0 40 -14.5t15 -39.5q0 -33 -23.5 -55.5t-57.5 -22.5q-24 0 -39 14.5t-15 38.5z
M194 654q0 34 23 56.5t56 22.5q25 0 40 -14.5t15 -39.5q0 -33 -23.5 -55.5t-56.5 -22.5q-25 0 -39.5 14.5t-14.5 38.5z" />
    <glyph glyph-name="aring" unicode="&#xe5;" horiz-adv-x="564" 
d="M30 169q0 158 87 263t234 105q42 0 87.5 -9t69.5 -18l25 -9l-76 -388q-6 -30 26 -21q20 5 44 20l8 -63q-6 -6 -16.5 -15.5t-44.5 -25t-68 -15.5q-24 0 -36 8.5t-16.5 35.5t8.5 76l2 10h-7q-24 -65 -76 -99t-115 -34q-69 0 -102.5 42.5t-33.5 136.5zM288 103q44 72 71 212
l22 119q-30 10 -65 10q-22 0 -42 -5t-29 -9l-9 -5q-3 -4 -7.5 -11.5t-16.5 -33t-21 -52.5t-16.5 -69t-7.5 -85q0 -50 12 -71t42 -21q16 0 33 5t26 11zM267 647q0 46 32.5 76t81.5 30q38 0 60 -20t22 -56q0 -45 -33.5 -75.5t-81.5 -30.5q-38 0 -59.5 20t-21.5 56zM331 655
q0 -30 28 -30l28 5q12 17 12 39q0 30 -29 30l-27 -5q-12 -17 -12 -39z" />
    <glyph glyph-name="ae" unicode="&#xe6;" horiz-adv-x="740" 
d="M-6 107q0 71 53.5 123.5t149.5 60.5l105 8q12 46 35 86q0 60 -69 60q-17 0 -31.5 -3t-20.5 -6l-7 -3l-31 -78h-101l28 143q7 4 21 10.5t61 17.5t99 11q108 0 152 -45q72 45 159 45q149 0 149 -123q0 -87 -79 -136.5t-231 -51.5v-2q0 -73 24.5 -106t77.5 -33q27 0 60 8.5
t52 16.5l19 9l10 -76q-9 -6 -25 -15t-65 -23.5t-98 -14.5q-120 0 -170 84q-97 -84 -203 -84q-59 0 -91.5 31t-32.5 86zM128 131q0 -46 53 -46q56 0 117 49q-7 31 -7 72v19l-136 -25q-27 -33 -27 -69zM495 429q-36 -45 -52 -127q164 6 164 94q0 48 -48 48q-14 0 -30 -4
t-25 -8z" />
    <glyph glyph-name="ccedilla" unicode="&#xe7;" horiz-adv-x="493" 
d="M180 -87l23 79q-83 9 -126 63.5t-43 147.5q0 137 85 235.5t220 98.5q46 0 85 -11.5t55 -23.5l16 -12l-26 -135h-101l-2 78q-11 11 -50 11q-21 0 -40 -4t-28 -8l-8 -4q-7 -8 -17 -24t-27 -70.5t-17 -114.5q0 -72 24.5 -103t77.5 -31q28 0 60.5 7.5t50.5 15.5l19 7l11 -72
q-66 -43 -159 -51l-15 -52q3 0 7 -0.5t15 -3.5t19.5 -8.5t15.5 -17.5t7 -28q0 -41 -37.5 -66t-102.5 -25q-19 0 -35.5 2.5t-24.5 4.5l-7 2l25 62q15 -15 49 -15l30 3q9 16 9 31q0 13 -9.5 21t-18.5 10z" />
    <glyph glyph-name="egrave" unicode="&#xe8;" horiz-adv-x="485" 
d="M489 414q0 -88 -80 -142t-230 -57q1 -68 25.5 -99t75.5 -31q28 0 60.5 7.5t51.5 15.5l19 7l11 -72q-9 -6 -25 -15t-65.5 -23.5t-97.5 -14.5q-98 0 -149 57.5t-51 159.5q0 137 85.5 233.5t220.5 96.5q149 0 149 -123zM169 679l100 85l104 -169l-63 -26zM238 429
q-40 -49 -54 -138q85 4 125.5 32t40.5 73q0 48 -48 48q-14 0 -30 -4t-25 -8z" />
    <glyph glyph-name="eacute" unicode="&#xe9;" horiz-adv-x="485" 
d="M489 414q0 -88 -80 -142t-230 -57q1 -68 25.5 -99t75.5 -31q28 0 60.5 7.5t51.5 15.5l19 7l11 -72q-9 -6 -25 -15t-65.5 -23.5t-97.5 -14.5q-98 0 -149 57.5t-51 159.5q0 137 85.5 233.5t220.5 96.5q149 0 149 -123zM232 595l170 169l69 -85l-185 -110zM238 429
q-40 -49 -54 -138q85 4 125.5 32t40.5 73q0 48 -48 48q-14 0 -30 -4t-25 -8z" />
    <glyph glyph-name="ecircumflex" unicode="&#xea;" horiz-adv-x="485" 
d="M489 414q0 -88 -80 -142t-230 -57q1 -68 25.5 -99t75.5 -31q28 0 60.5 7.5t51.5 15.5l19 7l11 -72q-9 -6 -25 -15t-65.5 -23.5t-97.5 -14.5q-98 0 -149 57.5t-51 159.5q0 137 85.5 233.5t220.5 96.5q149 0 149 -123zM179 595l176 160h17l113 -160l-64 -26l-79 75
l-109 -75zM238 429q-40 -49 -54 -138q85 4 125.5 32t40.5 73q0 48 -48 48q-14 0 -30 -4t-25 -8z" />
    <glyph glyph-name="edieresis" unicode="&#xeb;" horiz-adv-x="485" 
d="M489 414q0 -88 -80 -142t-230 -57q1 -68 25.5 -99t75.5 -31q28 0 60.5 7.5t51.5 15.5l19 7l11 -72q-9 -6 -25 -15t-65.5 -23.5t-97.5 -14.5q-98 0 -149 57.5t-51 159.5q0 137 85.5 233.5t220.5 96.5q149 0 149 -123zM238 429q-40 -49 -54 -138q85 4 125.5 32t40.5 73
q0 48 -48 48q-14 0 -30 -4t-25 -8zM374 654q0 34 23.5 56.5t56.5 22.5q25 0 40 -14.5t15 -39.5q0 -33 -23.5 -55.5t-57.5 -22.5q-25 0 -39.5 14.5t-14.5 38.5zM174 654q0 34 23 56.5t56 22.5q25 0 40 -14.5t15 -39.5q0 -33 -23.5 -55.5t-56.5 -22.5q-25 0 -39.5 14.5
t-14.5 38.5z" />
    <glyph glyph-name="igrave" unicode="&#xec;" horiz-adv-x="307" 
d="M71 679l101 85l104 -169l-63 -26zM51 453l11 63q79 18 133 18q48 0 63 -19t8 -55l-67 -347q-6 -28 26 -20q20 5 44 19l8 -63q-6 -6 -18 -15.5t-51.5 -25.5t-80.5 -16q-46 0 -63.5 21.5t-7.5 73.5l64 332q5 25 -3.5 29.5t-65.5 4.5z" />
    <glyph glyph-name="iacute" unicode="&#xed;" horiz-adv-x="307" 
d="M134 595l170 169l68 -85l-185 -110zM51 453l11 63q79 18 133 18q48 0 63 -19t8 -55l-67 -347q-6 -28 26 -20q20 5 44 19l8 -63q-6 -6 -18 -15.5t-51.5 -25.5t-80.5 -16q-46 0 -63.5 21.5t-7.5 73.5l64 332q5 25 -3.5 29.5t-65.5 4.5z" />
    <glyph glyph-name="icircumflex" unicode="&#xee;" horiz-adv-x="307" 
d="M51 453l11 63q79 18 133 18q48 0 63 -19t8 -55l-67 -347q-6 -28 26 -20q20 5 44 19l8 -63q-6 -6 -18 -15.5t-51.5 -25.5t-80.5 -16q-46 0 -63.5 21.5t-7.5 73.5l64 332q5 25 -3.5 29.5t-65.5 4.5zM45 595l175 160h17l114 -160l-64 -26l-80 75l-108 -75z" />
    <glyph glyph-name="idieresis" unicode="&#xef;" horiz-adv-x="307" 
d="M58 654q0 34 23.5 56.5t56.5 22.5q25 0 40 -14.5t15 -39.5q0 -33 -23.5 -55.5t-57.5 -22.5q-24 0 -39 14.5t-15 38.5zM259 654q0 34 23.5 56.5t56.5 22.5q25 0 40 -14.5t15 -39.5q0 -33 -23.5 -55.5t-57.5 -22.5q-25 0 -39.5 14.5t-14.5 38.5zM51 453l11 63q79 18 133 18
q48 0 63 -19t8 -55l-67 -347q-6 -28 26 -20q20 5 44 19l8 -63q-6 -6 -18 -15.5t-51.5 -25.5t-80.5 -16q-46 0 -63.5 21.5t-7.5 73.5l64 332q5 25 -3.5 29.5t-65.5 4.5z" />
    <glyph glyph-name="eth" unicode="&#xf0;" horiz-adv-x="538" 
d="M481 698l-74 -36q121 -115 121 -304q0 -159 -80 -263.5t-227 -104.5q-97 0 -142.5 50t-45.5 152q0 155 89 250t203 95q12 0 30 -2q-16 42 -45 80l-109 -53l-21 61l86 41q-17 15 -34.5 26t-26.5 15l-9 4l36 50q56 -12 120 -54l109 53zM386 360q0 37 -4 65q-27 19 -70 19
q-19 0 -37 -4t-27 -8l-9 -4q-7 -11 -17.5 -30.5t-28.5 -80t-18 -120.5q0 -57 18 -86t61 -29q16 0 32 4t24 8l9 4q3 4 7.5 11.5t16 32.5t20.5 53.5t16 73t7 91.5z" />
    <glyph glyph-name="ntilde" unicode="&#xf1;" horiz-adv-x="606" 
d="M568 112l8 -63q-6 -6 -18 -15.5t-51 -25.5t-80 -16q-47 0 -64.5 21.5t-7.5 73.5l51 253q11 56 2 80t-43 24q-18 0 -36.5 -5t-28.5 -10l-10 -5q-45 -73 -70 -213l-41 -211h-138l81 418q4 26 -4.5 30t-65.5 4l11 64q49 18 107 18q43 0 53 -20t-4 -86l-6 -25h8
q27 62 88.5 98t129.5 36q75 0 99 -51t2 -164l-40 -201q-4 -22 13 -24t36 7zM197 602l-26 35q3 4 8.5 10t23 22t35 28.5t42 22.5t46.5 10q26 0 62 -19.5t58 -19.5l67 41l24 -35q-3 -4 -8.5 -10t-23 -21.5t-34.5 -27.5t-41 -22t-45 -10q-26 0 -63.5 19t-58.5 19z" />
    <glyph glyph-name="ograve" unicode="&#xf2;" horiz-adv-x="542" 
d="M34 196q0 149 88.5 245t223.5 96q183 0 183 -202q0 -150 -88.5 -247.5t-222.5 -97.5q-184 0 -184 206zM176 203q0 -121 77 -121q16 0 33 4t26 8l9 3q3 3 7.5 9.5t15.5 28t20 45.5t16 62.5t7 79.5q0 122 -77 122q-15 0 -32 -3.5t-27 -6.5l-10 -4q-7 -10 -18 -29t-29 -78
t-18 -120zM191 679l101 85l103 -169l-63 -26z" />
    <glyph glyph-name="oacute" unicode="&#xf3;" horiz-adv-x="542" 
d="M34 196q0 149 88.5 245t223.5 96q183 0 183 -202q0 -150 -88.5 -247.5t-222.5 -97.5q-184 0 -184 206zM176 203q0 -121 77 -121q16 0 33 4t26 8l9 3q3 3 7.5 9.5t15.5 28t20 45.5t16 62.5t7 79.5q0 122 -77 122q-15 0 -32 -3.5t-27 -6.5l-10 -4q-7 -10 -18 -29t-29 -78
t-18 -120zM252 595l170 169l68 -85l-184 -110z" />
    <glyph glyph-name="ocircumflex" unicode="&#xf4;" horiz-adv-x="542" 
d="M34 196q0 149 88.5 245t223.5 96q183 0 183 -202q0 -150 -88.5 -247.5t-222.5 -97.5q-184 0 -184 206zM176 203q0 -121 77 -121q16 0 33 4t26 8l9 3q3 3 7.5 9.5t15.5 28t20 45.5t16 62.5t7 79.5q0 122 -77 122q-15 0 -32 -3.5t-27 -6.5l-10 -4q-7 -10 -18 -29t-29 -78
t-18 -120zM194 595l175 160h17l113 -160l-64 -26l-79 75l-109 -75z" />
    <glyph glyph-name="otilde" unicode="&#xf5;" horiz-adv-x="542" 
d="M34 196q0 149 88.5 245t223.5 96q183 0 183 -202q0 -150 -88.5 -247.5t-222.5 -97.5q-184 0 -184 206zM176 203q0 -121 77 -121q16 0 33 4t26 8l9 3q3 3 7.5 9.5t15.5 28t20 45.5t16 62.5t7 79.5q0 122 -77 122q-15 0 -32 -3.5t-27 -6.5l-10 -4q-7 -10 -18 -29t-29 -78
t-18 -120zM181 602l-26 35q3 4 8.5 10t23 22t35 28.5t42 22.5t46.5 10q26 0 62.5 -19.5t58.5 -19.5l66 41l24 -35q-3 -4 -8.5 -10t-23 -21.5t-34.5 -27.5t-41 -22t-45 -10q-26 0 -63.5 19t-58.5 19z" />
    <glyph glyph-name="odieresis" unicode="&#xf6;" horiz-adv-x="542" 
d="M34 196q0 149 88.5 245t223.5 96q183 0 183 -202q0 -150 -88.5 -247.5t-222.5 -97.5q-184 0 -184 206zM176 203q0 -121 77 -121q16 0 33 4t26 8l9 3q3 3 7.5 9.5t15.5 28t20 45.5t16 62.5t7 79.5q0 122 -77 122q-15 0 -32 -3.5t-27 -6.5l-10 -4q-7 -10 -18 -29t-29 -78
t-18 -120zM179 654q0 34 23 56.5t56 22.5q25 0 40 -14.5t15 -39.5q0 -33 -23.5 -55.5t-56.5 -22.5q-25 0 -39.5 14.5t-14.5 38.5zM379 654q0 34 23.5 56.5t56.5 22.5q25 0 40 -14.5t15 -39.5q0 -33 -23.5 -55.5t-57.5 -22.5q-25 0 -39.5 14.5t-14.5 38.5z" />
    <glyph glyph-name="divide" unicode="&#xf7;" horiz-adv-x="503" 
d="M75 298v84h393v-84h-393zM195 504q0 33 20.5 53t53.5 20t53.5 -20t20.5 -53t-20.5 -53t-53.5 -20t-53.5 20t-20.5 53zM269 101q-33 0 -53.5 20t-20.5 53t20.5 53t53.5 20t53.5 -20t20.5 -53t-20.5 -53t-53.5 -20z" />
    <glyph glyph-name="oslash" unicode="&#xf8;" horiz-adv-x="542" 
d="M34 195q0 150 88.5 246t223.5 96q77 0 121 -35l37 40l65 -26l-61 -66q21 -45 21 -115q0 -151 -88.5 -248t-223.5 -97q-71 0 -112 28l-38 -40l-66 25l60 64q-27 48 -27 128zM176 203v-13l198 212q-19 42 -64 42q-15 0 -32 -3.5t-27 -6.5l-10 -4q-7 -10 -18 -29t-29 -78
t-18 -120zM321 97q7 9 18 26t29.5 75t18.5 122l-193 -207q19 -31 59 -31q16 0 33 4t26 8z" />
    <glyph glyph-name="ugrave" unicode="&#xf9;" horiz-adv-x="602" 
d="M52 452l11 64q79 18 133 18q48 0 63 -19t8 -55l-54 -274q-11 -58 -2.5 -81t41.5 -23q17 0 35.5 5t28.5 9l10 5q45 74 70 214l42 211h137l-80 -413q-6 -31 26 -21q20 5 43 20l8 -63q-6 -6 -16.5 -15.5t-44 -25t-68.5 -15.5q-36 0 -46.5 22t2.5 98l2 10h-8
q-25 -60 -84 -96.5t-129 -36.5q-75 0 -99 50.5t-2 164.5l43 213q5 25 -4 29.5t-66 4.5zM220 679l101 85l104 -169l-63 -26z" />
    <glyph glyph-name="uacute" unicode="&#xfa;" horiz-adv-x="602" 
d="M52 452l11 64q79 18 133 18q48 0 63 -19t8 -55l-54 -274q-11 -58 -2.5 -81t41.5 -23q17 0 35.5 5t28.5 9l10 5q45 74 70 214l42 211h137l-80 -413q-6 -31 26 -21q20 5 43 20l8 -63q-6 -6 -16.5 -15.5t-44 -25t-68.5 -15.5q-36 0 -46.5 22t2.5 98l2 10h-8
q-25 -60 -84 -96.5t-129 -36.5q-75 0 -99 50.5t-2 164.5l43 213q5 25 -4 29.5t-66 4.5zM282 595l169 169l69 -85l-185 -110z" />
    <glyph glyph-name="ucircumflex" unicode="&#xfb;" horiz-adv-x="602" 
d="M52 452l11 64q79 18 133 18q48 0 63 -19t8 -55l-54 -274q-11 -58 -2.5 -81t41.5 -23q17 0 35.5 5t28.5 9l10 5q45 74 70 214l42 211h137l-80 -413q-6 -31 26 -21q20 5 43 20l8 -63q-6 -6 -16.5 -15.5t-44 -25t-68.5 -15.5q-36 0 -46.5 22t2.5 98l2 10h-8
q-25 -60 -84 -96.5t-129 -36.5q-75 0 -99 50.5t-2 164.5l43 213q5 25 -4 29.5t-66 4.5zM210 595l175 160h17l114 -160l-64 -26l-79 75l-109 -75z" />
    <glyph glyph-name="udieresis" unicode="&#xfc;" horiz-adv-x="602" 
d="M52 452l11 64q79 18 133 18q48 0 63 -19t8 -55l-54 -274q-11 -58 -2.5 -81t41.5 -23q17 0 35.5 5t28.5 9l10 5q45 74 70 214l42 211h137l-80 -413q-6 -31 26 -21q20 5 43 20l8 -63q-6 -6 -16.5 -15.5t-44 -25t-68.5 -15.5q-36 0 -46.5 22t2.5 98l2 10h-8
q-25 -60 -84 -96.5t-129 -36.5q-75 0 -99 50.5t-2 164.5l43 213q5 25 -4 29.5t-66 4.5zM200 654q0 34 23.5 56.5t56.5 22.5q25 0 40 -14.5t15 -39.5q0 -33 -23.5 -55.5t-57.5 -22.5q-25 0 -39.5 14.5t-14.5 38.5zM401 654q0 34 23.5 56.5t56.5 22.5q25 0 39.5 -14.5
t14.5 -39.5q0 -33 -23.5 -55.5t-56.5 -22.5q-25 0 -39.5 14.5t-14.5 38.5z" />
    <glyph glyph-name="yacute" unicode="&#xfd;" horiz-adv-x="569" 
d="M-85 -229l21 108q34 -30 103 -30q15 0 30.5 2t22.5 4l8 2q37 33 88 110l-73 451q-2 12 -4 16.5t-5 9.5t-14 6t-21.5 1.5t-38.5 0.5l12 64q50 18 104 18q89 0 97 -74l44 -366q60 97 103.5 190.5t43.5 134.5q0 21 -14.5 28.5t-50.5 8.5l10 60q54 18 102 18q81 0 81 -71
q0 -59 -61 -191t-179 -285q-101 -132 -169.5 -179.5t-143.5 -47.5q-28 0 -52 3t-34 5zM253 595l170 169l68 -85l-184 -110z" />
    <glyph glyph-name="thorn" unicode="&#xfe;" horiz-adv-x="565" 
d="M87 676l11 63q79 19 133 19q48 0 62.5 -19.5t7.5 -55.5l-14 -71q-5 -26 -23 -82t-23 -81h6q16 34 63.5 61t100.5 27q128 0 128 -180q0 -157 -87 -262t-234 -105q-27 0 -51 3l-29 -150l84 -9l-13 -64h-279l12 60l60 21l154 791q5 26 -3.5 30t-65.5 4zM281 424
q-45 -73 -71 -213l-23 -118q26 -11 66 -11q22 0 42 5t29 9l9 5q3 4 7.5 11.5t16.5 33t21 52.5t16.5 69t7.5 85q0 51 -12 71.5t-43 20.5q-16 0 -32.5 -5t-24.5 -10z" />
    <glyph glyph-name="ydieresis" unicode="&#xff;" horiz-adv-x="569" 
d="M-85 -229l21 108q34 -30 103 -30q15 0 30.5 2t22.5 4l8 2q37 33 88 110l-73 451q-2 12 -4 16.5t-5 9.5t-14 6t-21.5 1.5t-38.5 0.5l12 64q50 18 104 18q89 0 97 -74l44 -366q60 97 103.5 190.5t43.5 134.5q0 21 -14.5 28.5t-50.5 8.5l10 60q54 18 102 18q81 0 81 -71
q0 -59 -61 -191t-179 -285q-101 -132 -169.5 -179.5t-143.5 -47.5q-28 0 -52 3t-34 5zM378 654q0 34 23.5 56.5t56.5 22.5q25 0 40 -14.5t15 -39.5q0 -33 -23.5 -55.5t-57.5 -22.5q-24 0 -39 14.5t-15 38.5zM178 654q0 34 23.5 56.5t56.5 22.5q25 0 39.5 -14.5t14.5 -39.5
q0 -33 -23.5 -55.5t-56.5 -22.5q-25 0 -39.5 14.5t-14.5 38.5z" />
    <glyph glyph-name="Amacron" unicode="&#x100;" horiz-adv-x="717" 
d="M380 700h137l13 -15l92 -608l64 -9l-14 -68h-295l11 62l70 23l-14 110h-229l-63 -118l69 -9l-14 -68h-246l12 64l65 21zM367 486l-104 -198h171l-25 198q-4 32 -4 77h-5q-19 -51 -33 -77zM307 759l16 84h298l-16 -84h-298z" />
    <glyph glyph-name="amacron" unicode="&#x101;" horiz-adv-x="564" 
d="M30 169q0 158 87 263t234 105q42 0 87.5 -9t69.5 -18l25 -9l-76 -388q-6 -30 26 -21q20 5 44 20l8 -63q-6 -6 -16.5 -15.5t-44.5 -25t-68 -15.5q-24 0 -36 8.5t-16.5 35.5t8.5 76l2 10h-7q-24 -65 -76 -99t-115 -34q-69 0 -102.5 42.5t-33.5 136.5zM288 103q44 72 71 212
l22 119q-30 10 -65 10q-22 0 -42 -5t-29 -9l-9 -5q-3 -4 -7.5 -11.5t-16.5 -33t-21 -52.5t-16.5 -69t-7.5 -85q0 -50 12 -71t42 -21q16 0 33 5t26 11zM218 618l16 84h298l-16 -84h-298z" />
    <glyph glyph-name="Abreve" unicode="&#x102;" horiz-adv-x="717" 
d="M380 700h137l13 -15l92 -608l64 -9l-14 -68h-295l11 62l70 23l-14 110h-229l-63 -118l69 -9l-14 -68h-246l12 64l65 21zM367 486l-104 -198h171l-25 198q-4 32 -4 77h-5q-19 -51 -33 -77zM578 885l41 -17q-2 -5 -6 -12.5t-19 -27.5t-32.5 -35.5t-48 -28t-64.5 -12.5
t-59 11.5t-37.5 28t-19.5 33t-9 27.5l-1 12l71 22q1 -2 2 -6t7 -14t14.5 -17.5t24 -13.5t35.5 -6q30 0 55.5 14t35.5 28z" />
    <glyph glyph-name="abreve" unicode="&#x103;" horiz-adv-x="564" 
d="M30 169q0 158 87 263t234 105q42 0 87.5 -9t69.5 -18l25 -9l-76 -388q-6 -30 26 -21q20 5 44 20l8 -63q-6 -6 -16.5 -15.5t-44.5 -25t-68 -15.5q-24 0 -36 8.5t-16.5 35.5t8.5 76l2 10h-7q-24 -65 -76 -99t-115 -34q-69 0 -102.5 42.5t-33.5 136.5zM288 103q44 72 71 212
l22 119q-30 10 -65 10q-22 0 -42 -5t-29 -9l-9 -5q-3 -4 -7.5 -11.5t-16.5 -33t-21 -52.5t-16.5 -69t-7.5 -85q0 -50 12 -71t42 -21q16 0 33 5t26 11zM493 732l41 -17q-2 -5 -6 -12.5t-19 -27.5t-32.5 -35.5t-47.5 -28t-64 -12.5t-59 11.5t-37.5 28t-20 33t-8.5 28.5l-2 11
l71 22q1 -2 2 -6t7 -14t14.5 -17.5t24 -13.5t35.5 -6q31 0 56 14t35 28z" />
    <glyph glyph-name="Aogonek" unicode="&#x104;" horiz-adv-x="717" 
d="M564 -118q0 -33 34 -33q9 0 20.5 2t18.5 4l7 2v-36q-32 -28 -90 -28q-82 0 -82 69q0 37 25 71.5t50 50.5l25 16h-195l11 62l70 23l-14 110h-229l-63 -118l69 -9l-14 -68h-246l12 64l65 21l342 615h137l13 -15l92 -608l64 -9l-14 -68h-42q-7 -7 -18 -18.5t-29.5 -42.5
t-18.5 -57zM367 486l-104 -198h171l-25 198q-4 32 -4 77h-5q-19 -51 -33 -77z" />
    <glyph glyph-name="aogonek" unicode="&#x105;" horiz-adv-x="564" 
d="M30 169q0 158 87 263t234 105q42 0 87.5 -9t69.5 -18l25 -9l-76 -388q-6 -30 26 -21q20 5 44 20l8 -63q-35 -36 -87 -50q-9 -8 -21.5 -22t-27.5 -42.5t-15 -52.5q0 -33 34 -33q9 0 20 2t18 4l7 2l1 -36q-33 -28 -90 -28q-83 0 -83 69q0 74 92 134q-22 6 -27.5 30.5
t6.5 86.5l2 10h-7q-24 -65 -76 -99t-115 -34q-69 0 -102.5 42.5t-33.5 136.5zM288 103q44 72 71 212l22 119q-30 10 -65 10q-22 0 -42 -5t-29 -9l-9 -5q-3 -4 -7.5 -11.5t-16.5 -33t-21 -52.5t-16.5 -69t-7.5 -85q0 -50 12 -71t42 -21q16 0 33 5t26 11z" />
    <glyph glyph-name="Cacute" unicode="&#x106;" horiz-adv-x="581" 
d="M509 490l-11 103q-33 21 -93 21q-29 0 -54.5 -6t-36.5 -12l-12 -7q-4 -5 -11 -15t-25.5 -43.5t-32 -70t-25 -93.5t-11.5 -116q0 -86 27.5 -125.5t88.5 -39.5q21 0 44 4.5t35 9.5l13 4l52 110h93l-49 -184q-96 -41 -201 -41q-121 0 -185.5 72t-64.5 214q0 190 107.5 313
t281.5 123q49 0 95 -10.5t67 -20.5l21 -10l-21 -180h-92zM336 764l169 169l69 -84l-185 -111z" />
    <glyph glyph-name="cacute" unicode="&#x107;" horiz-adv-x="493" 
d="M368 355l-2 78q-11 11 -50 11q-21 0 -40 -4t-28 -8l-8 -4q-7 -8 -17 -24t-27 -70.5t-17 -114.5q0 -72 24.5 -103t77.5 -31q28 0 60.5 7.5t50.5 15.5l19 7l11 -72q-9 -6 -25 -15t-65 -23.5t-97 -14.5q-98 0 -149.5 55.5t-51.5 157.5q0 137 85 235.5t220 98.5
q46 0 85 -11.5t55 -23.5l16 -12l-26 -135h-101zM251 595l169 169l69 -85l-185 -110z" />
    <glyph glyph-name="Ccircumflex" unicode="&#x108;" horiz-adv-x="581" 
d="M509 490l-11 103q-33 21 -93 21q-29 0 -54.5 -6t-36.5 -12l-12 -7q-4 -5 -11 -15t-25.5 -43.5t-32 -70t-25 -93.5t-11.5 -116q0 -86 27.5 -125.5t88.5 -39.5q21 0 44 4.5t35 9.5l13 4l52 110h93l-49 -184q-96 -41 -201 -41q-121 0 -185.5 72t-64.5 214q0 190 107.5 313
t281.5 123q49 0 95 -10.5t67 -20.5l21 -10l-21 -180h-92zM291 764l176 161h17l113 -161l-64 -26l-79 75l-109 -75z" />
    <glyph glyph-name="ccircumflex" unicode="&#x109;" horiz-adv-x="493" 
d="M368 355l-2 78q-11 11 -50 11q-21 0 -40 -4t-28 -8l-8 -4q-7 -8 -17 -24t-27 -70.5t-17 -114.5q0 -72 24.5 -103t77.5 -31q28 0 60.5 7.5t50.5 15.5l19 7l11 -72q-9 -6 -25 -15t-65 -23.5t-97 -14.5q-98 0 -149.5 55.5t-51.5 157.5q0 137 85 235.5t220 98.5
q46 0 85 -11.5t55 -23.5l16 -12l-26 -135h-101zM200 595l175 160h17l113 -160l-64 -26l-79 75l-109 -75z" />
    <glyph glyph-name="Cdotaccent" unicode="&#x10a;" horiz-adv-x="581" 
d="M509 490l-11 103q-33 21 -93 21q-29 0 -54.5 -6t-36.5 -12l-12 -7q-4 -5 -11 -15t-25.5 -43.5t-32 -70t-25 -93.5t-11.5 -116q0 -86 27.5 -125.5t88.5 -39.5q21 0 44 4.5t35 9.5l13 4l52 110h93l-49 -184q-96 -41 -201 -41q-121 0 -185.5 72t-64.5 214q0 190 107.5 313
t281.5 123q49 0 95 -10.5t67 -20.5l21 -10l-21 -180h-92zM360 816q0 44 30.5 72t74.5 28q33 0 52.5 -18.5t19.5 -50.5q0 -44 -30.5 -72.5t-74.5 -28.5q-33 0 -52.5 19t-19.5 51z" />
    <glyph glyph-name="cdotaccent" unicode="&#x10b;" horiz-adv-x="493" 
d="M368 355l-2 78q-11 11 -50 11q-21 0 -40 -4t-28 -8l-8 -4q-7 -8 -17 -24t-27 -70.5t-17 -114.5q0 -72 24.5 -103t77.5 -31q28 0 60.5 7.5t50.5 15.5l19 7l11 -72q-9 -6 -25 -15t-65 -23.5t-97 -14.5q-98 0 -149.5 55.5t-51.5 157.5q0 137 85 235.5t220 98.5
q46 0 85 -11.5t55 -23.5l16 -12l-26 -135h-101zM274 658q0 44 30.5 72.5t74.5 28.5q33 0 53 -19t20 -50q0 -44 -30.5 -72.5t-74.5 -28.5q-33 0 -53 19t-20 50z" />
    <glyph glyph-name="Ccaron" unicode="&#x10c;" horiz-adv-x="581" 
d="M509 490l-11 103q-33 21 -93 21q-29 0 -54.5 -6t-36.5 -12l-12 -7q-4 -5 -11 -15t-25.5 -43.5t-32 -70t-25 -93.5t-11.5 -116q0 -86 27.5 -125.5t88.5 -39.5q21 0 44 4.5t35 9.5l13 4l52 110h93l-49 -184q-96 -41 -201 -41q-121 0 -185.5 72t-64.5 214q0 190 107.5 313
t281.5 123q49 0 95 -10.5t67 -20.5l21 -10l-21 -180h-92zM418 738l-107 152l54 39l83 -80l113 80l39 -39l-165 -152h-17z" />
    <glyph glyph-name="ccaron" unicode="&#x10d;" horiz-adv-x="493" 
d="M368 355l-2 78q-11 11 -50 11q-21 0 -40 -4t-28 -8l-8 -4q-7 -8 -17 -24t-27 -70.5t-17 -114.5q0 -72 24.5 -103t77.5 -31q28 0 60.5 7.5t50.5 15.5l19 7l11 -72q-9 -6 -25 -15t-65 -23.5t-97 -14.5q-98 0 -149.5 55.5t-51.5 157.5q0 137 85 235.5t220 98.5
q46 0 85 -11.5t55 -23.5l16 -12l-26 -135h-101zM324 577l-107 152l54 38l82 -79l114 79l39 -38l-165 -152h-17z" />
    <glyph glyph-name="Dcaron" unicode="&#x10e;" horiz-adv-x="662" 
d="M294 0h-300l12 64l69 21l106 538l-64 9l13 68h299q111 0 173.5 -70.5t62.5 -206.5q0 -184 -106.5 -303.5t-264.5 -119.5zM399 607h-80l-100 -514h87q27 0 51.5 5t35.5 10l11 5q5 5 12.5 13.5t26.5 40t34 66.5t27 92.5t12 118.5q0 84 -27 123.5t-90 39.5zM379 738
l-107 152l54 39l83 -80l113 80l39 -39l-165 -152h-17z" />
    <glyph glyph-name="dcaron" unicode="&#x10f;" horiz-adv-x="722" 
d="M28 167q0 155 88.5 262.5t222.5 107.5q37 0 67 -8l22 113q4 26 -4.5 30t-64.5 4l11 63q79 19 133 19q48 0 62.5 -19.5t7.5 -55.5l-111 -569q-6 -30 26 -21q20 5 44 20l8 -64q-6 -6 -16.5 -15.5t-44.5 -25t-68 -15.5q-24 0 -36 8.5t-16.5 35.5t8.5 76l2 10h-7
q-22 -63 -73.5 -98t-119.5 -35q-70 0 -105.5 42t-35.5 135zM294 103q43 72 70 212l22 111q-33 18 -72 18q-19 0 -38 -5t-28 -9l-10 -5q-3 -4 -7.5 -11.5t-17 -33t-22 -52.5t-17 -68.5t-7.5 -83.5q0 -52 13 -73t43 -21q17 0 34.5 5t26.5 11zM596 480l-17 30q9 6 23 17t40 41
t30 54q-21 3 -33 18t-12 38q0 35 25 59.5t61 24.5q58 0 58 -69q0 -39 -18 -75t-43.5 -60t-51.5 -42.5t-44 -27.5z" />
    <glyph glyph-name="Dcroat" unicode="&#x110;" horiz-adv-x="663" 
d="M54 309l16 76l69 18l43 220l-64 9l13 68h299q111 0 173.5 -70.5t62.5 -207.5q0 -183 -106.5 -302.5t-264.5 -119.5h-300l12 64l69 21l44 224h-66zM400 607h-80l-40 -205h120l-19 -93h-119l-42 -216h87q27 0 51.5 5t35.5 10l10 5q5 5 12.5 13.5t27 40t34.5 66.5t27 92.5
t12 118.5q0 84 -27 123.5t-90 39.5z" />
    <glyph glyph-name="dcroat" unicode="&#x111;" horiz-adv-x="569" 
d="M360 684l10 55q79 19 133 19q48 0 62.5 -19.5t7.5 -55.5l-8 -42h52l-12 -68h-54l-89 -459q-6 -30 26 -21q20 5 44 20l8 -64q-6 -6 -16.5 -15.5t-44.5 -25t-68 -15.5q-24 0 -36 8.5t-16.5 35.5t8.5 76l2 10h-7q-22 -63 -73.5 -98t-119.5 -35q-70 0 -105.5 42t-35.5 135
q0 155 88.5 262.5t222.5 107.5q37 0 67 -8l9 44h-129l13 68h129l2 9q4 26 -4.5 30t-65.5 4zM294 103q43 72 70 212l22 111q-33 18 -72 18q-19 0 -38 -5t-28 -9l-10 -5q-3 -4 -7.5 -11.5t-17 -33t-22 -52.5t-17 -68.5t-7.5 -83.5q0 -52 13 -73t43 -21q17 0 34.5 5t26.5 11z
" />
    <glyph glyph-name="Emacron" unicode="&#x112;" horiz-adv-x="592" 
d="M509 0h-515l12 64l69 21l106 538l-64 9l13 68h501l-23 -192h-93l-10 99h-186l-40 -206h80l31 78h76l-48 -248h-76l-2 78h-79l-42 -216h198l51 103h94zM247 759l16 84h298l-16 -84h-298z" />
    <glyph glyph-name="emacron" unicode="&#x113;" horiz-adv-x="485" 
d="M489 414q0 -88 -80 -142t-230 -57q1 -68 25.5 -99t75.5 -31q28 0 60.5 7.5t51.5 15.5l19 7l11 -72q-9 -6 -25 -15t-65.5 -23.5t-97.5 -14.5q-98 0 -149 57.5t-51 159.5q0 137 85.5 233.5t220.5 96.5q149 0 149 -123zM181 618l16 84h298l-16 -84h-298zM238 429
q-40 -49 -54 -138q85 4 125.5 32t40.5 73q0 48 -48 48q-14 0 -30 -4t-25 -8z" />
    <glyph glyph-name="Ebreve" unicode="&#x114;" horiz-adv-x="592" 
d="M509 0h-515l12 64l69 21l106 538l-64 9l13 68h501l-23 -192h-93l-10 99h-186l-40 -206h80l31 78h76l-48 -248h-76l-2 78h-79l-42 -216h198l51 103h94zM520 885l41 -17q-2 -5 -6 -12.5t-19 -27.5t-32.5 -35.5t-48 -28t-64.5 -12.5t-59 11.5t-37.5 28t-19.5 33t-9 27.5
l-1 12l71 22q1 -2 2 -6t7 -14t14.5 -17.5t24 -13.5t35.5 -6q30 0 55.5 14t35.5 28z" />
    <glyph glyph-name="ebreve" unicode="&#x115;" horiz-adv-x="485" 
d="M489 414q0 -88 -80 -142t-230 -57q1 -68 25.5 -99t75.5 -31q28 0 60.5 7.5t51.5 15.5l19 7l11 -72q-9 -6 -25 -15t-65.5 -23.5t-97.5 -14.5q-98 0 -149 57.5t-51 159.5q0 137 85.5 233.5t220.5 96.5q149 0 149 -123zM472 732l41 -17q-2 -5 -6 -12.5t-19 -27.5
t-32.5 -35.5t-47.5 -28t-64 -12.5t-59 11.5t-37.5 28t-20 33t-9.5 28.5l-1 11l71 22q1 -2 2 -6t7 -14t14.5 -17.5t24 -13.5t35.5 -6q31 0 56 14t35 28zM238 429q-40 -49 -54 -138q85 4 125.5 32t40.5 73q0 48 -48 48q-14 0 -30 -4t-25 -8z" />
    <glyph glyph-name="Edotaccent" unicode="&#x116;" horiz-adv-x="592" 
d="M509 0h-515l12 64l69 21l106 538l-64 9l13 68h501l-23 -192h-93l-10 99h-186l-40 -206h80l31 78h76l-48 -248h-76l-2 78h-79l-42 -216h198l51 103h94zM329 816q0 44 30.5 72t74.5 28q33 0 52.5 -18.5t19.5 -50.5q0 -44 -30.5 -72.5t-74.5 -28.5q-33 0 -52.5 19t-19.5 51z
" />
    <glyph glyph-name="edotaccent" unicode="&#x117;" horiz-adv-x="485" 
d="M489 414q0 -88 -80 -142t-230 -57q1 -68 25.5 -99t75.5 -31q28 0 60.5 7.5t51.5 15.5l19 7l11 -72q-9 -6 -25 -15t-65.5 -23.5t-97.5 -14.5q-98 0 -149 57.5t-51 159.5q0 137 85.5 233.5t220.5 96.5q149 0 149 -123zM264 658q0 44 30.5 72.5t74.5 28.5q33 0 52.5 -19
t19.5 -50q0 -44 -30.5 -72.5t-74.5 -28.5q-33 0 -52.5 19t-19.5 50zM238 429q-40 -49 -54 -138q85 4 125.5 32t40.5 73q0 48 -48 48q-14 0 -30 -4t-25 -8z" />
    <glyph glyph-name="Eogonek" unicode="&#x118;" horiz-adv-x="592" 
d="M397 -118q0 -33 34 -33q9 0 20.5 2t18.5 4l7 2v-36q-32 -28 -89 -28q-83 0 -83 69q0 37 25 71.5t50 50.5l25 16h-411l12 64l69 21l106 538l-64 9l13 68h501l-23 -192h-93l-10 99h-186l-40 -206h80l31 78h76l-48 -248h-76l-2 78h-79l-42 -216h198l51 103h94l-53 -196h-45
q-8 -7 -19 -18.5t-29.5 -42.5t-18.5 -57z" />
    <glyph glyph-name="eogonek" unicode="&#x119;" horiz-adv-x="485" 
d="M345 -80q0 -34 34 -34q9 0 20 2t18 4l7 3l1 -36q-33 -28 -90 -28q-82 0 -82 69q0 51 46 97q-35 -7 -65 -7q-98 0 -149 57.5t-51 159.5q0 137 85.5 233.5t220.5 96.5q149 0 149 -123q0 -88 -80 -142t-230 -57q1 -68 25.5 -99t75.5 -31q28 0 60.5 7.5t51.5 15.5l19 7
l11 -72q-7 -5 -16 -10q-61 -57 -61 -113zM238 429q-40 -49 -54 -138q85 4 125.5 32t40.5 73q0 48 -48 48q-14 0 -30 -4t-25 -8z" />
    <glyph glyph-name="Ecaron" unicode="&#x11a;" horiz-adv-x="592" 
d="M509 0h-515l12 64l69 21l106 538l-64 9l13 68h501l-23 -192h-93l-10 99h-186l-40 -206h80l31 78h76l-48 -248h-76l-2 78h-79l-42 -216h198l51 103h94zM389 738l-107 152l54 39l83 -80l113 80l39 -39l-165 -152h-17z" />
    <glyph glyph-name="ecaron" unicode="&#x11b;" horiz-adv-x="485" 
d="M489 414q0 -88 -80 -142t-230 -57q1 -68 25.5 -99t75.5 -31q28 0 60.5 7.5t51.5 15.5l19 7l11 -72q-9 -6 -25 -15t-65.5 -23.5t-97.5 -14.5q-98 0 -149 57.5t-51 159.5q0 137 85.5 233.5t220.5 96.5q149 0 149 -123zM315 577l-107 152l54 38l82 -79l114 79l39 -38
l-165 -152h-17zM238 429q-40 -49 -54 -138q85 4 125.5 32t40.5 73q0 48 -48 48q-14 0 -30 -4t-25 -8z" />
    <glyph glyph-name="Gcircumflex" unicode="&#x11c;" horiz-adv-x="623" 
d="M561 288l-50 -254q-10 -5 -28.5 -12.5t-73 -20t-105.5 -12.5q-125 0 -190 71.5t-65 214.5q0 190 107 313t282 123q49 0 95 -10.5t67 -20.5l22 -10l-22 -180h-92l-11 103q-32 21 -92 21q-29 0 -55 -6t-38 -12l-11 -7q-4 -5 -11 -15t-25 -43.5t-32 -70t-25 -93.5t-11 -116
q0 -86 27.5 -126t87.5 -40q42 0 87 18l38 194l-78 8l13 67h268l-11 -63zM279 764l175 161h17l113 -161l-64 -26l-79 75l-109 -75z" />
    <glyph glyph-name="gcircumflex" unicode="&#x11d;" horiz-adv-x="543" 
d="M30 169q0 158 86.5 263t233.5 105q42 0 87.5 -9t70.5 -18l24 -9l-101 -519q-23 -117 -88.5 -169.5t-189.5 -52.5q-43 0 -81.5 5.5t-55.5 10.5l-16 6l21 105q60 -31 147 -31q26 0 51 4t37 8l12 3q33 48 55 165l8 41h-7q-17 -34 -65.5 -60.5t-101.5 -26.5q-127 0 -127 179z
M289 101q43 74 70 214l21 119q-30 10 -66 10q-22 0 -42 -5t-29 -9l-9 -5q-3 -4 -7.5 -11.5t-16 -33t-20.5 -52.5t-16 -69t-7 -85q0 -51 12 -71.5t43 -20.5q16 0 33 5t25 9zM208 595l175 160h17l113 -160l-64 -26l-79 75l-109 -75z" />
    <glyph glyph-name="Gbreve" unicode="&#x11e;" horiz-adv-x="623" 
d="M561 288l-50 -254q-10 -5 -28.5 -12.5t-73 -20t-105.5 -12.5q-125 0 -190 71.5t-65 214.5q0 190 107 313t282 123q49 0 95 -10.5t67 -20.5l22 -10l-22 -180h-92l-11 103q-32 21 -92 21q-29 0 -55 -6t-38 -12l-11 -7q-4 -5 -11 -15t-25 -43.5t-32 -70t-25 -93.5t-11 -116
q0 -86 27.5 -126t87.5 -40q42 0 87 18l38 194l-78 8l13 67h268l-11 -63zM548 885l41 -17q-2 -5 -6 -12.5t-19 -27.5t-32.5 -35.5t-47.5 -28t-64 -12.5t-59 11.5t-37.5 28t-20 33t-9.5 27.5l-1 12l71 22q1 -2 2 -6t7 -14t14.5 -17.5t24 -13.5t35.5 -6q30 0 55.5 14t35.5 28z
" />
    <glyph glyph-name="gbreve" unicode="&#x11f;" horiz-adv-x="543" 
d="M30 169q0 158 86.5 263t233.5 105q42 0 87.5 -9t70.5 -18l24 -9l-101 -519q-23 -117 -88.5 -169.5t-189.5 -52.5q-43 0 -81.5 5.5t-55.5 10.5l-16 6l21 105q60 -31 147 -31q26 0 51 4t37 8l12 3q33 48 55 165l8 41h-7q-17 -34 -65.5 -60.5t-101.5 -26.5q-127 0 -127 179z
M289 101q43 74 70 214l21 119q-30 10 -66 10q-22 0 -42 -5t-29 -9l-9 -5q-3 -4 -7.5 -11.5t-16 -33t-20.5 -52.5t-16 -69t-7 -85q0 -51 12 -71.5t43 -20.5q16 0 33 5t25 9zM474 732l42 -17q-2 -5 -6 -12.5t-19 -27.5t-32.5 -35.5t-48 -28t-64.5 -12.5t-59 11.5t-37.5 28
t-20 33t-9.5 28.5l-1 11l72 22q0 -2 1.5 -6t7.5 -14t14 -17.5t23.5 -13.5t35.5 -6q31 0 56 14t35 28z" />
    <glyph glyph-name="Gdotaccent" unicode="&#x120;" horiz-adv-x="623" 
d="M561 288l-50 -254q-10 -5 -28.5 -12.5t-73 -20t-105.5 -12.5q-125 0 -190 71.5t-65 214.5q0 190 107 313t282 123q49 0 95 -10.5t67 -20.5l22 -10l-22 -180h-92l-11 103q-32 21 -92 21q-29 0 -55 -6t-38 -12l-11 -7q-4 -5 -11 -15t-25 -43.5t-32 -70t-25 -93.5t-11 -116
q0 -86 27.5 -126t87.5 -40q42 0 87 18l38 194l-78 8l13 67h268l-11 -63zM342 816q0 44 30.5 72t74.5 28q33 0 53 -19t20 -50q0 -44 -30.5 -72.5t-74.5 -28.5q-34 0 -53.5 19t-19.5 51z" />
    <glyph glyph-name="gdotaccent" unicode="&#x121;" horiz-adv-x="543" 
d="M30 169q0 158 86.5 263t233.5 105q42 0 87.5 -9t70.5 -18l24 -9l-101 -519q-23 -117 -88.5 -169.5t-189.5 -52.5q-43 0 -81.5 5.5t-55.5 10.5l-16 6l21 105q60 -31 147 -31q26 0 51 4t37 8l12 3q33 48 55 165l8 41h-7q-17 -34 -65.5 -60.5t-101.5 -26.5q-127 0 -127 179z
M289 101q43 74 70 214l21 119q-30 10 -66 10q-22 0 -42 -5t-29 -9l-9 -5q-3 -4 -7.5 -11.5t-16 -33t-20.5 -52.5t-16 -69t-7 -85q0 -51 12 -71.5t43 -20.5q16 0 33 5t25 9zM265 658q0 44 30.5 72.5t74.5 28.5q33 0 52.5 -19t19.5 -50q0 -44 -30.5 -72.5t-74.5 -28.5
q-33 0 -52.5 19t-19.5 50z" />
    <glyph glyph-name="Gcommaaccent" unicode="&#x122;" horiz-adv-x="623" 
d="M561 288l-50 -254q-10 -5 -28.5 -12.5t-73 -20t-105.5 -12.5q-125 0 -190 71.5t-65 214.5q0 190 107 313t282 123q49 0 95 -10.5t67 -20.5l22 -10l-22 -180h-92l-11 103q-32 21 -92 21q-29 0 -55 -6t-38 -12l-11 -7q-4 -5 -11 -15t-25 -43.5t-32 -70t-25 -93.5t-11 -116
q0 -86 27.5 -126t87.5 -40q42 0 87 18l38 194l-78 8l13 67h268l-11 -63zM215 -260l-13 24q8 5 19 14t31.5 33t24.5 44q-36 3 -36 43q0 28 20 47.5t49 19.5q45 0 45 -52q0 -32 -14.5 -61.5t-35 -49t-41 -34t-34.5 -21.5z" />
    <glyph glyph-name="gcommaaccent" unicode="&#x123;" horiz-adv-x="543" 
d="M30 169q0 158 86.5 263t233.5 105q42 0 87.5 -9t70.5 -18l24 -9l-101 -519q-23 -117 -88.5 -169.5t-189.5 -52.5q-43 0 -81.5 5.5t-55.5 10.5l-16 6l21 105q60 -31 147 -31q26 0 51 4t37 8l12 3q33 48 55 165l8 41h-7q-17 -34 -65.5 -60.5t-101.5 -26.5q-127 0 -127 179z
M289 101q43 74 70 214l21 119q-30 10 -66 10q-22 0 -42 -5t-29 -9l-9 -5q-3 -4 -7.5 -11.5t-16 -33t-20.5 -52.5t-16 -69t-7 -85q0 -51 12 -71.5t43 -20.5q16 0 33 5t25 9zM433 798l13 -23q-8 -5 -19 -14t-31.5 -33t-24.5 -44q36 -4 36 -43q0 -29 -20 -48t-49 -19
q-45 0 -45 51q0 32 14.5 62t35 49t41 34t34.5 22z" />
    <glyph glyph-name="Hcircumflex" unicode="&#x124;" horiz-adv-x="727" 
d="M215 77l65 -9l-13 -68h-273l12 64l69 21l106 538l-64 9l13 68h273l-13 -64l-69 -21l-42 -214h242l43 222l-64 9l13 68h273l-13 -64l-69 -21l-105 -538l64 -9l-13 -68h-273l13 64l69 21l43 224h-241zM313 764l175 161h17l114 -161l-64 -26l-80 75l-108 -75z" />
    <glyph glyph-name="hcircumflex" unicode="&#x125;" horiz-adv-x="597" 
d="M559 112l8 -63q-6 -6 -18 -15.5t-51 -25.5t-80 -16q-47 0 -64.5 21.5t-7.5 73.5l51 253q11 57 2.5 80.5t-42.5 23.5q-18 0 -37 -5t-28 -10l-10 -5q-44 -73 -71 -213l-41 -211h-138l125 642q5 26 -4 30t-66 4l12 63q79 19 132 19q48 0 63 -19t8 -56l-14 -71
q-5 -26 -23 -82t-23 -81h6q17 36 75.5 62t115.5 26q68 0 92 -48.5t0 -166.5l-42 -209q-5 -27 24 -21q20 4 46 20zM67 802l176 161h17l113 -161l-64 -26l-79 75l-109 -75z" />
    <glyph glyph-name="Hbar" unicode="&#x126;" horiz-adv-x="727" 
d="M87 474l16 84h65l13 65l-64 9l13 68h273l-13 -64l-69 -21l-11 -57h241l13 65l-64 9l13 68h273l-13 -64l-69 -21l-11 -57h66l-16 -84h-67l-77 -397l64 -9l-13 -68h-273l13 64l69 21l43 224h-241l-46 -232l65 -9l-13 -68h-273l12 64l69 21l76 389h-64zM279 401h242l14 73
h-242z" />
    <glyph glyph-name="hbar" unicode="&#x127;" horiz-adv-x="597" 
d="M91 587l14 68l67 17l35 78h110l-16 -78h144l-17 -85h-148l-5 -24q-4 -19 -16 -56.5t-17 -57.5h6q17 36 75.5 62t114.5 26q69 0 93 -49t0 -166l-42 -209q-5 -27 24 -21q20 4 46 20l8 -63q-6 -6 -18 -15.5t-51 -25.5t-80 -16q-47 0 -64.5 21.5t-7.5 73.5l51 253
q11 57 2.5 80.5t-42.5 23.5q-18 0 -37 -5t-28 -10l-10 -5q-44 -73 -71 -213l-41 -211h-138l115 587h-56z" />
    <glyph glyph-name="Itilde" unicode="&#x128;" horiz-adv-x="344" 
d="M215 77l65 -9l-13 -68h-273l12 64l69 21l106 538l-64 9l13 68h273l-13 -64l-69 -21zM125 763l-26 35q3 4 8.5 10t23 22t35 28.5t42 22.5t46.5 10q26 0 62 -19.5t58 -19.5l67 41l24 -35q-3 -4 -8.5 -10t-23 -21.5t-34.5 -27.5t-41 -22t-45 -10q-26 0 -63.5 19.5
t-58.5 19.5z" />
    <glyph glyph-name="itilde" unicode="&#x129;" horiz-adv-x="307" 
d="M55 602l-26 35q3 4 8.5 10t23 22t35 28.5t42 22.5t46.5 10q26 0 62.5 -19.5t58.5 -19.5l66 41l24 -35q-3 -4 -8.5 -10t-23 -21.5t-34.5 -27.5t-41 -22t-45 -10q-26 0 -63.5 19t-58.5 19zM51 453l11 63q79 18 133 18q48 0 63 -19t8 -55l-67 -347q-6 -28 26 -20q20 5 44 19
l8 -63q-6 -6 -18 -15.5t-51.5 -25.5t-80.5 -16q-46 0 -63.5 21.5t-7.5 73.5l64 332q5 25 -3.5 29.5t-65.5 4.5z" />
    <glyph glyph-name="Imacron" unicode="&#x12a;" horiz-adv-x="344" 
d="M215 77l65 -9l-13 -68h-273l12 64l69 21l106 538l-64 9l13 68h273l-13 -64l-69 -21zM121 759l16 84h298l-16 -84h-298z" />
    <glyph glyph-name="imacron" unicode="&#x12b;" horiz-adv-x="307" 
d="M50 618l16 84h298l-16 -84h-298zM51 453l11 63q79 18 133 18q48 0 63 -19t8 -55l-67 -347q-6 -28 26 -20q20 5 44 19l8 -63q-6 -6 -18 -15.5t-51.5 -25.5t-80.5 -16q-46 0 -63.5 21.5t-7.5 73.5l64 332q5 25 -3.5 29.5t-65.5 4.5z" />
    <glyph glyph-name="Ibreve" unicode="&#x12c;" horiz-adv-x="344" 
d="M215 77l65 -9l-13 -68h-273l12 64l69 21l106 538l-64 9l13 68h273l-13 -64l-69 -21zM399 885l41 -17q-2 -5 -6 -12.5t-19 -27.5t-32.5 -35.5t-47.5 -28t-64 -12.5t-59 11.5t-37.5 28t-20 33t-8.5 27.5l-2 12l71 22q1 -2 2 -6t7 -14t14.5 -17.5t24 -13.5t35.5 -6
q30 0 55.5 14t35.5 28z" />
    <glyph glyph-name="ibreve" unicode="&#x12d;" horiz-adv-x="307" 
d="M331 732l41 -17q-2 -5 -6 -12.5t-19 -27.5t-32.5 -35.5t-48 -28t-64.5 -12.5t-59 11.5t-37.5 28t-19.5 33t-8 28.5l-2 11l71 22q1 -2 2 -6t7 -14t14.5 -17.5t24 -13.5t35.5 -6q30 0 55.5 14t35.5 28zM51 453l11 63q79 18 133 18q48 0 63 -19t8 -55l-67 -347
q-6 -28 26 -20q20 5 44 19l8 -63q-6 -6 -18 -15.5t-51.5 -25.5t-80.5 -16q-46 0 -63.5 21.5t-7.5 73.5l64 332q5 25 -3.5 29.5t-65.5 4.5z" />
    <glyph glyph-name="Iogonek" unicode="&#x12e;" horiz-adv-x="344" 
d="M159 -118q0 -33 34 -33q9 0 20.5 2t18.5 4l7 2v-36q-32 -28 -89 -28q-83 0 -83 69q0 37 25 71.5t50 50.5l25 16h-173l12 64l69 21l106 538l-64 9l13 68h273l-13 -64l-69 -21l-106 -538l65 -9l-13 -68h-41q-8 -7 -19 -18.5t-29.5 -42.5t-18.5 -57z" />
    <glyph glyph-name="iogonek" unicode="&#x12f;" horiz-adv-x="307" 
d="M149 -106q0 -33 34 -33q9 0 20.5 2t18.5 4l7 2v-36q-32 -28 -90 -28q-82 0 -82 69q0 62 70 118q-46 0 -63.5 21.5t-7.5 73.5l66 331q5 25 -4 29.5t-66 4.5l11 64q80 18 133 18q48 0 63 -19t8 -55l-68 -347q-6 -28 26 -20q20 5 44 19l8 -63q-25 -24 -67 -41
q-61 -61 -61 -114zM138 665q0 42 30.5 70.5t74.5 28.5q34 0 53.5 -19t19.5 -52q0 -42 -31 -70.5t-74 -28.5q-34 0 -53.5 19t-19.5 52z" />
    <glyph glyph-name="Idotaccent" unicode="&#x130;" horiz-adv-x="344" 
d="M215 77l65 -9l-13 -68h-273l12 64l69 21l106 538l-64 9l13 68h273l-13 -64l-69 -21zM202 816q0 44 31 72t75 28q33 0 52.5 -18.5t19.5 -50.5q0 -44 -30.5 -72.5t-74.5 -28.5q-33 0 -53 19t-20 51z" />
    <glyph glyph-name="dotlessi" unicode="&#x131;" horiz-adv-x="307" 
d="M51 453l11 63q79 18 133 18q48 0 63 -19t8 -55l-67 -347q-6 -28 26 -20q20 5 44 19l8 -63q-6 -6 -18 -15.5t-51.5 -25.5t-80.5 -16q-46 0 -63.5 21.5t-7.5 73.5l64 332q5 25 -3.5 29.5t-65.5 4.5z" />
    <glyph glyph-name="IJ" unicode="&#x132;" horiz-adv-x="682" 
d="M664 615l-131 -668q-18 -97 -83 -152.5t-165 -55.5q-30 0 -57.5 5.5t-39.5 10.5l-13 5l32 93q28 -18 79 -18q16 0 32.5 2.5t25.5 4.5l9 2q26 35 43 122l129 657l-64 9l12 68h273l-12 -64zM215 77l65 -9l-13 -68h-273l12 64l69 21l106 538l-64 9l13 68h273l-13 -64
l-69 -21z" />
    <glyph glyph-name="ij" unicode="&#x133;" horiz-adv-x="591" 
d="M52 452l11 64q80 18 133 18q48 0 63 -19t8 -55l-68 -347q-6 -28 26 -20q20 5 44 19l8 -63q-6 -6 -18 -15.5t-51.5 -25.5t-80.5 -16q-46 0 -63.5 21.5t-7.5 73.5l66 331q5 25 -4 29.5t-66 4.5zM138 665q0 42 30.5 70.5t74.5 28.5q34 0 53.5 -19t19.5 -52q0 -42 -31 -70.5
t-74 -28.5q-34 0 -53.5 19t-19.5 52zM445 663q0 44 30.5 72.5t74.5 28.5q33 0 52.5 -19t19.5 -50q0 -44 -30 -72.5t-75 -28.5q-33 0 -52.5 19t-19.5 50zM359 452l11 64q79 18 133 18q48 0 63 -19t8 -55l-90 -460q-26 -130 -85 -185t-160 -55q-23 0 -45.5 2.5t-33.5 5.5
l-11 2l32 97q35 -18 75 -18q12 0 22.5 2t15.5 4l4 2q27 33 48 143l82 418q5 25 -3.5 29.5t-65.5 4.5z" />
    <glyph glyph-name="Jcircumflex" unicode="&#x134;" horiz-adv-x="446" 
d="M427 615l-81 -418q-19 -97 -84 -152.5t-165 -55.5q-30 0 -57.5 5t-39.5 10l-13 6l32 93q28 -18 79 -18q16 0 32.5 2.5t25.5 4.5l9 2q26 35 43 122l79 405l-79 5l15 74h287l-13 -64zM218 764l175 161h17l113 -161l-64 -26l-79 75l-109 -75z" />
    <glyph glyph-name="jcircumflex" unicode="&#x135;" horiz-adv-x="284" 
d="M53 456l10 60q80 18 133 18q48 0 63 -19t8 -55l-90 -460q-26 -130 -85 -185t-160 -55q-23 0 -45.5 2.5t-33.5 5.5l-11 2l32 97q36 -18 76 -18q12 0 22.5 2t15.5 4l4 2q26 33 48 143l83 422q5 26 -4 30t-66 4zM47 595l175 160h17l113 -160l-64 -26l-79 75l-109 -75z" />
    <glyph glyph-name="Kcommaaccent" unicode="&#x136;" horiz-adv-x="670" 
d="M215 77l65 -9l-13 -68h-273l12 64l69 21l106 538l-64 9l13 68h273l-13 -64l-69 -21l-44 -222l72 16l194 214l-61 9l13 68h241l-13 -64l-68 -21l-212 -232l125 -306l64 -9l-14 -68h-184l-124 315h-48zM241 -260l-14 24q8 5 19 14t31.5 33t24.5 44q-17 1 -26.5 13t-9.5 30
q0 28 20 47.5t49 19.5q45 0 45 -52q0 -32 -14.5 -61.5t-35 -49t-40.5 -34t-34 -21.5z" />
    <glyph glyph-name="kcommaaccent" unicode="&#x137;" horiz-adv-x="561" 
d="M524 107l8 -63q-6 -6 -16 -14.5t-41 -23t-62 -14.5q-80 0 -118 96l-76 169l-49 -257h-138l125 642q5 26 -4 30t-66 4l12 63q79 19 132 19q48 0 63 -19t8 -56l-78 -401q23 8 47.5 18.5t56 28.5t51.5 42.5t20 49.5q0 19 -14 26.5t-51 8.5l10 60q65 18 111 18q38 0 55 -17
t16 -56t-21.5 -75t-52 -62t-53 -40t-41.5 -24l75 -144q11 -20 33.5 -22.5t39.5 5.5zM171 -260l-14 24q8 5 19 14t31.5 33t24.5 44q-36 3 -36 43q0 28 20 47.5t49 19.5q45 0 45 -52q0 -32 -14.5 -61.5t-34.5 -49t-40.5 -34t-34.5 -21.5z" />
    <glyph glyph-name="Lacute" unicode="&#x139;" horiz-adv-x="571" 
d="M499 0h-505l12 64l69 21l106 538l-64 9l13 68h273l-13 -64l-69 -21l-102 -522h189l52 107h93zM196 764l170 169l68 -84l-184 -111z" />
    <glyph glyph-name="lacute" unicode="&#x13a;" horiz-adv-x="298" 
d="M87 676l11 63q79 19 133 19q48 0 63 -19t8 -56l-111 -570q-6 -28 26 -20q20 5 44 19l8 -63q-6 -6 -18 -15.5t-51.5 -25.5t-80.5 -16q-46 0 -63.5 21.5t-7.5 73.5l109 555q5 26 -4 30t-66 4zM152 802l169 169l69 -84l-185 -111z" />
    <glyph glyph-name="Lcommaaccent" unicode="&#x13b;" horiz-adv-x="571" 
d="M499 0h-505l12 64l69 21l106 538l-64 9l13 68h273l-13 -64l-69 -21l-102 -522h189l52 107h93zM195 -260l-13 24q8 5 19 14t31.5 33t24.5 44q-36 3 -36 43q0 28 20 47.5t49 19.5q45 0 45 -52q0 -32 -14.5 -61.5t-35 -49t-41 -34t-34.5 -21.5z" />
    <glyph glyph-name="lcommaaccent" unicode="&#x13c;" horiz-adv-x="298" 
d="M87 676l11 63q79 19 133 19q48 0 63 -19t8 -56l-111 -570q-6 -28 26 -20q20 5 44 19l8 -63q-6 -6 -18 -15.5t-51.5 -25.5t-80.5 -16q-46 0 -63.5 21.5t-7.5 73.5l109 555q5 26 -4 30t-66 4zM32 -260l-14 24q8 5 19 14t31.5 33t24.5 44q-36 3 -36 43q0 28 20 47.5t49 19.5
q45 0 45 -52q0 -32 -14.5 -61.5t-34.5 -49t-40.5 -34t-35.5 -21.5z" />
    <glyph glyph-name="Lcaron" unicode="&#x13d;" horiz-adv-x="571" 
d="M499 0h-505l12 64l69 21l106 538l-64 9l13 68h273l-13 -64l-69 -21l-102 -522h189l52 107h93zM426 430l-17 30q9 6 23 17t40 41t30 54q-21 3 -33 18t-12 38q0 35 25 59.5t62 24.5q57 0 57 -69q0 -39 -18 -75t-43.5 -60t-51.5 -42.5t-44 -27.5z" />
    <glyph glyph-name="lcaron" unicode="&#x13e;" horiz-adv-x="451" 
d="M87 676l11 63q79 19 133 19q48 0 63 -19t8 -56l-111 -570q-6 -28 26 -20q20 5 44 19l8 -63q-6 -6 -18 -15.5t-51.5 -25.5t-80.5 -16q-46 0 -63.5 21.5t-7.5 73.5l109 555q5 26 -4 30t-66 4zM327 480l-17 30q9 6 23 17t39.5 41t29.5 54q-21 3 -33 18t-12 38
q0 35 25.5 59.5t61.5 24.5q57 0 57 -69q0 -39 -18 -75t-43.5 -60t-51 -42.5t-43.5 -27.5z" />
    <glyph glyph-name="Ldot" unicode="&#x13f;" horiz-adv-x="571" 
d="M499 0h-505l12 64l69 21l106 538l-64 9l13 68h273l-13 -64l-69 -21l-102 -522h189l52 107h93zM408 345q0 41 28.5 68.5t69.5 27.5q31 0 49 -18t18 -48q0 -41 -28.5 -68.5t-69.5 -27.5q-31 0 -49 18t-18 48z" />
    <glyph glyph-name="Lslash" unicode="&#x141;" horiz-adv-x="575" 
d="M407 377l-141 -64l-43 -220h189l52 107h93l-54 -200h-505l12 64l70 21l30 157l-55 -25l-19 78l93 42l56 286l-64 9l13 68h273l-13 -64l-69 -21l-41 -207l104 47z" />
    <glyph glyph-name="lslash" unicode="&#x142;" horiz-adv-x="304" 
d="M322 376l-81 -37l-44 -226q-6 -28 26 -20q20 5 44 19l8 -63q-6 -6 -18 -15.5t-51 -25.5t-80 -16q-47 0 -64.5 21.5t-7.5 73.5l36 185l-47 -21l-15 77l80 36l55 278q5 26 -4 30t-66 4l11 63q80 19 133 19q48 0 63 -19t8 -56l-49 -251l48 22z" />
    <glyph glyph-name="Nacute" unicode="&#x143;" horiz-adv-x="728" 
d="M179 77l68 -9l-13 -68h-244l11 64l74 21l105 538l-68 9l14 68h204l182 -387q12 -29 16 -56l4 1q0 3 8 55l61 310l-68 9l13 68h245l-13 -64l-74 -21l-119 -615h-98l-208 440q-15 31 -17 55l-4 -1q-3 -27 -9 -54zM393 764l170 169l69 -84l-185 -111z" />
    <glyph glyph-name="nacute" unicode="&#x144;" horiz-adv-x="606" 
d="M568 112l8 -63q-6 -6 -18 -15.5t-51 -25.5t-80 -16q-47 0 -64.5 21.5t-7.5 73.5l51 253q11 56 2 80t-43 24q-18 0 -36.5 -5t-28.5 -10l-10 -5q-45 -73 -70 -213l-41 -211h-138l81 418q4 26 -4.5 30t-65.5 4l11 64q49 18 107 18q43 0 53 -20t-4 -86l-6 -25h8
q27 62 88.5 98t129.5 36q75 0 99 -51t2 -164l-40 -201q-4 -22 13 -24t36 7zM264 595l170 169l68 -85l-184 -110z" />
    <glyph glyph-name="Ncommaaccent" unicode="&#x145;" horiz-adv-x="728" 
d="M179 77l68 -9l-13 -68h-244l11 64l74 21l105 538l-68 9l14 68h204l182 -387q12 -29 16 -56l4 1q0 3 8 55l61 310l-68 9l13 68h245l-13 -64l-74 -21l-119 -615h-98l-208 440q-15 31 -17 55l-4 -1q-3 -27 -9 -54zM246 -260l-14 24q8 5 19 14t31.5 33t24.5 44
q-17 1 -26.5 13t-9.5 30q0 28 20 47.5t49 19.5q45 0 45 -52q0 -32 -14.5 -61.5t-34.5 -49t-40.5 -34t-35.5 -21.5z" />
    <glyph glyph-name="ncommaaccent" unicode="&#x146;" horiz-adv-x="606" 
d="M568 112l8 -63q-6 -6 -18 -15.5t-51 -25.5t-80 -16q-47 0 -64.5 21.5t-7.5 73.5l51 253q11 56 2 80t-43 24q-18 0 -36.5 -5t-28.5 -10l-10 -5q-45 -73 -70 -213l-41 -211h-138l81 418q4 26 -4.5 30t-65.5 4l11 64q49 18 107 18q43 0 53 -20t-4 -86l-6 -25h8
q27 62 88.5 98t129.5 36q75 0 99 -51t2 -164l-40 -201q-4 -22 13 -24t36 7zM175 -260l-13 24q8 5 19 14t31.5 33t24.5 44q-36 3 -36 43q0 28 20 47.5t48 19.5q46 0 46 -52q0 -32 -14.5 -61.5t-35 -49t-41 -34t-34.5 -21.5z" />
    <glyph glyph-name="Ncaron" unicode="&#x147;" horiz-adv-x="728" 
d="M179 77l68 -9l-13 -68h-244l11 64l74 21l105 538l-68 9l14 68h204l182 -387q12 -29 16 -56l4 1q0 3 8 55l61 310l-68 9l13 68h245l-13 -64l-74 -21l-119 -615h-98l-208 440q-15 31 -17 55l-4 -1q-3 -27 -9 -54zM439 738l-106 152l54 39l82 -80l114 80l39 -39l-166 -152
h-17z" />
    <glyph glyph-name="ncaron" unicode="&#x148;" horiz-adv-x="606" 
d="M568 112l8 -63q-6 -6 -18 -15.5t-51 -25.5t-80 -16q-47 0 -64.5 21.5t-7.5 73.5l51 253q11 56 2 80t-43 24q-18 0 -36.5 -5t-28.5 -10l-10 -5q-45 -73 -70 -213l-41 -211h-138l81 418q4 26 -4.5 30t-65.5 4l11 64q49 18 107 18q43 0 53 -20t-4 -86l-6 -25h8
q27 62 88.5 98t129.5 36q75 0 99 -51t2 -164l-40 -201q-4 -22 13 -24t36 7zM338 577l-106 152l54 38l82 -79l114 79l39 -38l-166 -152h-17z" />
    <glyph glyph-name="Eng" unicode="&#x14a;" horiz-adv-x="728" 
d="M179 77l68 -9l-13 -68h-244l11 64l74 21l105 538l-68 9l14 68h204l182 -387q12 -29 16 -56l4 1q0 3 8 55l61 310l-68 9l13 68h245l-13 -64l-74 -21l-119 -615l-10 -53q-19 -97 -82.5 -152.5t-160.5 -55.5q-29 0 -56 5.5t-40 10.5l-12 5l32 93q28 -18 79 -18
q16 0 32.5 2.5t25.5 4.5l9 2q27 35 43 122l17 86l-183 388q-15 31 -17 55l-4 -1q-3 -27 -9 -54z" />
    <glyph glyph-name="eng" unicode="&#x14b;" horiz-adv-x="584" 
d="M355 87l51 253q11 56 2 80t-43 24q-18 0 -36.5 -5t-28.5 -10l-10 -5q-45 -73 -70 -213l-41 -211h-138l81 418q4 26 -4.5 30t-65.5 4l11 64q49 18 107 18q43 0 53 -20t-4 -86l-6 -25h8q27 62 88.5 98t129.5 36q75 0 99 -51t2 -164l-40 -201l-25 -121q-26 -130 -84.5 -185
t-159.5 -55q-24 0 -46.5 2.5t-33.5 5.5l-11 2l33 97q35 -18 75 -18q12 0 22.5 2t15.5 4l4 2q27 33 48 143z" />
    <glyph glyph-name="Omacron" unicode="&#x14c;" horiz-adv-x="653" 
d="M49 272q0 190 107 314.5t264 124.5q112 0 174 -71.5t62 -211.5q0 -190 -106.5 -314.5t-263.5 -124.5q-113 0 -175 72t-62 211zM196 249q0 -86 27 -124.5t88 -38.5q25 0 48.5 6t34.5 12l10 6q4 5 11 15t25.5 43t32 70t25 94.5t11.5 117.5q0 88 -26.5 126t-85.5 38
q-25 0 -49.5 -6t-35.5 -12l-12 -7q-4 -5 -11 -15t-25 -43.5t-32 -70.5t-25 -94.5t-11 -116.5zM275 759l17 84h298l-17 -84h-298z" />
    <glyph glyph-name="omacron" unicode="&#x14d;" horiz-adv-x="542" 
d="M34 196q0 149 88.5 245t223.5 96q183 0 183 -202q0 -150 -88.5 -247.5t-222.5 -97.5q-184 0 -184 206zM176 203q0 -121 77 -121q16 0 33 4t26 8l9 3q3 3 7.5 9.5t15.5 28t20 45.5t16 62.5t7 79.5q0 122 -77 122q-15 0 -32 -3.5t-27 -6.5l-10 -4q-7 -10 -18 -29t-29 -78
t-18 -120zM197 618l16 84h298l-16 -84h-298z" />
    <glyph glyph-name="Obreve" unicode="&#x14e;" horiz-adv-x="653" 
d="M49 272q0 190 107 314.5t264 124.5q112 0 174 -71.5t62 -211.5q0 -190 -106.5 -314.5t-263.5 -124.5q-113 0 -175 72t-62 211zM196 249q0 -86 27 -124.5t88 -38.5q25 0 48.5 6t34.5 12l10 6q4 5 11 15t25.5 43t32 70t25 94.5t11.5 117.5q0 88 -26.5 126t-85.5 38
q-25 0 -49.5 -6t-35.5 -12l-12 -7q-4 -5 -11 -15t-25 -43.5t-32 -70.5t-25 -94.5t-11 -116.5zM556 885l42 -17q-2 -5 -6 -12.5t-19 -27.5t-32.5 -35.5t-48 -28t-64.5 -12.5t-59 11.5t-37.5 28t-20 33t-9.5 27.5l-1 12l72 22q1 -2 2 -6t7 -14t14.5 -17.5t24 -13.5t35.5 -6
q30 0 55 14t35 28z" />
    <glyph glyph-name="obreve" unicode="&#x14f;" horiz-adv-x="542" 
d="M34 196q0 149 88.5 245t223.5 96q183 0 183 -202q0 -150 -88.5 -247.5t-222.5 -97.5q-184 0 -184 206zM176 203q0 -121 77 -121q16 0 33 4t26 8l9 3q3 3 7.5 9.5t15.5 28t20 45.5t16 62.5t7 79.5q0 122 -77 122q-15 0 -32 -3.5t-27 -6.5l-10 -4q-7 -10 -18 -29t-29 -78
t-18 -120zM466 732l41 -17q-2 -5 -6 -12.5t-19 -27.5t-32.5 -35.5t-48 -28t-64.5 -12.5t-59 11.5t-37.5 28t-19.5 33t-9 28.5l-1 11l71 22q1 -2 2 -6t7 -14t14.5 -17.5t24 -13.5t35.5 -6q30 0 55.5 14t35.5 28z" />
    <glyph glyph-name="Ohungarumlaut" unicode="&#x150;" horiz-adv-x="653" 
d="M49 272q0 190 107 314.5t264 124.5q112 0 174 -71.5t62 -211.5q0 -190 -106.5 -314.5t-263.5 -124.5q-113 0 -175 72t-62 211zM196 249q0 -86 27 -124.5t88 -38.5q25 0 48.5 6t34.5 12l10 6q4 5 11 15t25.5 43t32 70t25 94.5t11.5 117.5q0 88 -26.5 126t-85.5 38
q-25 0 -49.5 -6t-35.5 -12l-12 -7q-4 -5 -11 -15t-25 -43.5t-32 -70.5t-25 -94.5t-11 -116.5zM272 764l111 169l84 -68l-136 -127zM442 764l111 169l84 -68l-136 -127z" />
    <glyph glyph-name="ohungarumlaut" unicode="&#x151;" horiz-adv-x="542" 
d="M34 196q0 149 88.5 245t223.5 96q183 0 183 -202q0 -150 -88.5 -247.5t-222.5 -97.5q-184 0 -184 206zM176 203q0 -121 77 -121q16 0 33 4t26 8l9 3q3 3 7.5 9.5t15.5 28t20 45.5t16 62.5t7 79.5q0 122 -77 122q-15 0 -32 -3.5t-27 -6.5l-10 -4q-7 -10 -18 -29t-29 -78
t-18 -120zM206 595l111 169l85 -68l-137 -127zM377 595l110 169l85 -68l-137 -127z" />
    <glyph glyph-name="OE" unicode="&#x152;" horiz-adv-x="891" 
d="M808 0h-435q-42 -11 -84 -11q-113 0 -176 73t-63 213q0 190 108 313t269 123q44 0 82 -11h421l-23 -192h-93l-10 99h-171l-40 -206h67l31 78h76l-48 -248h-76l-2 78h-67l-42 -216h185l50 103h94zM317 86q21 0 39 4.5t28 9.5l9 4l92 472q-23 38 -81 38q-27 0 -52.5 -6
t-37.5 -12l-11 -7q-4 -5 -11.5 -15t-25.5 -44t-32 -70.5t-25.5 -93.5t-11.5 -116q0 -86 28.5 -125t91.5 -39z" />
    <glyph glyph-name="oe" unicode="&#x153;" horiz-adv-x="821" 
d="M34 194q0 151 86.5 247t220.5 96q103 0 144 -69q80 69 191 69q149 0 149 -123q0 -88 -80 -142t-230 -57q1 -68 26 -99t76 -31q27 0 59.5 7.5t51.5 15.5l19 7l11 -72q-9 -6 -25 -15t-65.5 -23.5t-97.5 -14.5q-112 0 -161 74q-79 -74 -196 -74q-179 0 -179 204zM176 203
q0 -121 74 -121q14 0 30 4t25 8l9 3q3 3 7 9t14.5 27t19 45t15 62t6.5 79q0 125 -73 125q-14 0 -30 -3.5t-25 -6.5l-10 -4q-7 -10 -17.5 -29t-27.5 -78t-17 -120zM573 429q-39 -49 -53 -138q85 3 125.5 31.5t40.5 73.5q0 48 -48 48q-14 0 -30.5 -4t-25.5 -8z" />
    <glyph glyph-name="Racute" unicode="&#x154;" horiz-adv-x="651" 
d="M215 77l65 -9l-13 -68h-273l12 64l69 21l106 538l-64 9l13 68h302q96 0 152 -45.5t56 -129.5q0 -81 -51 -139.5t-136 -81.5l96 -227l64 -9l-13 -68h-189l-97 291h-57zM382 607h-63l-43 -222h70q21 0 42 2.5t32 4.5l10 2q6 5 15.5 14t25 42t15.5 71q0 46 -24 66t-80 20z
M313 764l170 169l69 -84l-185 -111z" />
    <glyph glyph-name="racute" unicode="&#x155;" horiz-adv-x="419" 
d="M440 535l-23 -123q-24 4 -46 4q-24 0 -46.5 -6t-33.5 -12l-11 -5q-33 -42 -60 -182l-41 -211h-138l81 418q4 26 -4.5 30t-65.5 4l11 64q49 18 107 18q43 0 53 -20t-4 -86l-9 -39h5q21 67 75 107.5t116 40.5zM209 595l169 169l69 -85l-185 -110z" />
    <glyph glyph-name="Rcommaaccent" unicode="&#x156;" horiz-adv-x="651" 
d="M215 77l65 -9l-13 -68h-273l12 64l69 21l106 538l-64 9l13 68h302q96 0 152 -45.5t56 -129.5q0 -81 -51 -139.5t-136 -81.5l96 -227l64 -9l-13 -68h-189l-97 291h-57zM382 607h-63l-43 -222h70q21 0 42 2.5t32 4.5l10 2q6 5 15.5 14t25 42t15.5 71q0 46 -24 66t-80 20z
M237 -260l-14 24q8 5 19.5 14t32 33t23.5 44q-17 1 -26.5 13t-9.5 30q0 28 20.5 47.5t48.5 19.5q46 0 46 -52q0 -32 -14.5 -61.5t-35 -49t-41 -34t-34.5 -21.5z" />
    <glyph glyph-name="rcommaaccent" unicode="&#x157;" horiz-adv-x="419" 
d="M440 535l-23 -123q-24 4 -46 4q-24 0 -46.5 -6t-33.5 -12l-11 -5q-33 -42 -60 -182l-41 -211h-138l81 418q4 26 -4.5 30t-65.5 4l11 64q49 18 107 18q43 0 53 -20t-4 -86l-9 -39h5q21 67 75 107.5t116 40.5zM20 -260l-13 24q8 5 19 14t31.5 33t24.5 44q-36 3 -36 43
q0 28 20 47.5t49 19.5q45 0 45 -52q0 -32 -14.5 -61.5t-35 -49t-41 -34t-35.5 -21.5z" />
    <glyph glyph-name="Rcaron" unicode="&#x158;" horiz-adv-x="651" 
d="M215 77l65 -9l-13 -68h-273l12 64l69 21l106 538l-64 9l13 68h302q96 0 152 -45.5t56 -129.5q0 -81 -51 -139.5t-136 -81.5l96 -227l64 -9l-13 -68h-189l-97 291h-57zM382 607h-63l-43 -222h70q21 0 42 2.5t32 4.5l10 2q6 5 15.5 14t25 42t15.5 71q0 46 -24 66t-80 20z
M379 738l-107 152l54 39l82 -80l114 80l39 -39l-165 -152h-17z" />
    <glyph glyph-name="rcaron" unicode="&#x159;" horiz-adv-x="419" 
d="M440 535l-23 -123q-24 4 -46 4q-24 0 -46.5 -6t-33.5 -12l-11 -5q-33 -42 -60 -182l-41 -211h-138l81 418q4 26 -4.5 30t-65.5 4l11 64q49 18 107 18q43 0 53 -20t-4 -86l-9 -39h5q21 67 75 107.5t116 40.5zM260 577l-107 152l55 38l82 -79l114 79l38 -38l-165 -152h-17z
" />
    <glyph glyph-name="Sacute" unicode="&#x15a;" horiz-adv-x="544" 
d="M365 190q0 19 -8 33.5t-25 25.5t-32 18t-41.5 17t-41.5 17q-59 26 -90.5 67.5t-31.5 111.5q0 44 13 82t43 73t87 55.5t136 20.5q59 0 105 -11t63 -22l17 -11l-35 -177h-96l4 106q-23 19 -77 19q-20 0 -42 -3.5t-35 -6.5l-12 -3q-31 -38 -31 -87q0 -17 6.5 -32t13 -23.5
t24 -19t25.5 -14.5t33.5 -14t32.5 -13q68 -30 101.5 -69.5t33.5 -106.5q0 -44 -14.5 -83t-47.5 -74.5t-95.5 -56t-149.5 -20.5q-63 0 -111.5 11t-65.5 22l-17 11l35 179h93l3 -107q29 -18 96 -18q27 0 52 3.5t37 7.5l12 3q33 45 33 89zM266 764l169 169l69 -84l-185 -111z
" />
    <glyph glyph-name="sacute" unicode="&#x15b;" horiz-adv-x="478" 
d="M309 140q0 30 -23 46.5t-69 30.5q-30 8 -49.5 16.5t-42.5 24.5t-34.5 41t-11.5 60q0 73 55 125.5t172 52.5q34 0 62.5 -5t45.5 -11.5t29.5 -13.5t16.5 -12l5 -5l-25 -132h-100l-2 79q-15 12 -54 12q-15 0 -31.5 -2.5t-26.5 -4.5l-9 -2q-16 -22 -16 -50q0 -32 24.5 -49
t76.5 -32q29 -8 47.5 -16t40 -23t32 -39t10.5 -58q0 -77 -60 -130.5t-187 -53.5q-58 0 -100 12t-55 23l-13 12l26 133h101l1 -79q18 -11 66 -11q19 0 39.5 2t31.5 4l10 2q17 25 17 53zM208 595l170 169l68 -85l-184 -110z" />
    <glyph glyph-name="Scircumflex" unicode="&#x15c;" horiz-adv-x="544" 
d="M365 190q0 19 -8 33.5t-25 25.5t-32 18t-41.5 17t-41.5 17q-59 26 -90.5 67.5t-31.5 111.5q0 44 13 82t43 73t87 55.5t136 20.5q59 0 105 -11t63 -22l17 -11l-35 -177h-96l4 106q-23 19 -77 19q-20 0 -42 -3.5t-35 -6.5l-12 -3q-31 -38 -31 -87q0 -17 6.5 -32t13 -23.5
t24 -19t25.5 -14.5t33.5 -14t32.5 -13q68 -30 101.5 -69.5t33.5 -106.5q0 -44 -14.5 -83t-47.5 -74.5t-95.5 -56t-149.5 -20.5q-63 0 -111.5 11t-65.5 22l-17 11l35 179h93l3 -107q29 -18 96 -18q27 0 52 3.5t37 7.5l12 3q33 45 33 89zM228 764l175 161h17l114 -161l-64 -26
l-80 75l-108 -75z" />
    <glyph glyph-name="scircumflex" unicode="&#x15d;" horiz-adv-x="478" 
d="M309 140q0 30 -23 46.5t-69 30.5q-30 8 -49.5 16.5t-42.5 24.5t-34.5 41t-11.5 60q0 73 55 125.5t172 52.5q34 0 62.5 -5t45.5 -11.5t29.5 -13.5t16.5 -12l5 -5l-25 -132h-100l-2 79q-15 12 -54 12q-15 0 -31.5 -2.5t-26.5 -4.5l-9 -2q-16 -22 -16 -50q0 -32 24.5 -49
t76.5 -32q29 -8 47.5 -16t40 -23t32 -39t10.5 -58q0 -77 -60 -130.5t-187 -53.5q-58 0 -100 12t-55 23l-13 12l26 133h101l1 -79q18 -11 66 -11q19 0 39.5 2t31.5 4l10 2q17 25 17 53zM164 595l175 160h17l113 -160l-64 -26l-79 75l-109 -75z" />
    <glyph glyph-name="Scedilla" unicode="&#x15e;" horiz-adv-x="544" 
d="M180 -87l22 76h-4q-63 0 -111.5 11t-65.5 22l-17 11l35 179h93l3 -107q29 -18 96 -18q27 0 52 3.5t37 7.5l12 3q33 45 33 89q0 19 -8 33.5t-25 25.5t-32 18t-41.5 17t-41.5 17q-59 26 -90.5 67.5t-31.5 111.5q0 44 13 82t43 73t87 55.5t136 20.5q59 0 105 -11t63 -22
l17 -11l-35 -177h-96l4 106q-23 19 -77 19q-20 0 -42 -3.5t-35 -6.5l-12 -3q-31 -38 -31 -87q0 -17 6.5 -32t13 -23.5t24 -19t25.5 -14.5t33.5 -14t32.5 -13q68 -30 101.5 -69.5t33.5 -106.5q0 -40 -11.5 -75.5t-38 -68.5t-75.5 -56t-117 -30l-16 -53q3 0 7 -0.5t15 -3.5
t19.5 -8.5t15.5 -17.5t7 -28q0 -41 -37.5 -66t-102.5 -25q-18 0 -34.5 2.5t-24.5 4.5l-7 2l25 62q15 -15 49 -15l29 3q10 16 10 31q0 13 -9.5 21t-18.5 10z" />
    <glyph glyph-name="scedilla" unicode="&#x15f;" horiz-adv-x="478" 
d="M143 -87l23 77q-51 2 -88.5 13.5t-49.5 22.5l-11 10l26 133h101l1 -79q18 -11 66 -11q19 0 39.5 2t31.5 4l10 2q17 25 17 53q0 30 -23 46.5t-69 30.5q-30 8 -49.5 16.5t-42.5 24.5t-34.5 41t-11.5 60q0 73 55 125.5t172 52.5q34 0 62.5 -5t45.5 -11.5t29.5 -13.5
t16.5 -12l5 -5l-25 -132h-100l-2 79q-15 12 -54 12q-15 0 -31.5 -2.5t-26.5 -4.5l-9 -2q-16 -22 -16 -50q0 -32 24.5 -49t76.5 -32q29 -8 47.5 -16t40 -23t32 -39t10.5 -58q0 -70 -50 -121.5t-155 -60.5l-16 -51q3 0 7 -0.5t15 -3.5t19.5 -8.5t15.5 -17.5t7 -28
q0 -41 -37.5 -66t-102.5 -25q-19 0 -35.5 2.5t-23.5 4.5l-7 2l24 62q16 -15 50 -15l29 3q10 16 10 31q0 13 -10 21t-20 10z" />
    <glyph glyph-name="Scaron" unicode="&#x160;" horiz-adv-x="544" 
d="M365 190q0 19 -8 33.5t-25 25.5t-32 18t-41.5 17t-41.5 17q-59 26 -90.5 67.5t-31.5 111.5q0 44 13 82t43 73t87 55.5t136 20.5q59 0 105 -11t63 -22l17 -11l-35 -177h-96l4 106q-23 19 -77 19q-20 0 -42 -3.5t-35 -6.5l-12 -3q-31 -38 -31 -87q0 -17 6.5 -32t13 -23.5
t24 -19t25.5 -14.5t33.5 -14t32.5 -13q68 -30 101.5 -69.5t33.5 -106.5q0 -44 -14.5 -83t-47.5 -74.5t-95.5 -56t-149.5 -20.5q-63 0 -111.5 11t-65.5 22l-17 11l35 179h93l3 -107q29 -18 96 -18q27 0 52 3.5t37 7.5l12 3q33 45 33 89zM357 738l-107 152l54 39l82 -80
l114 80l39 -39l-165 -152h-17z" />
    <glyph glyph-name="scaron" unicode="&#x161;" horiz-adv-x="478" 
d="M309 140q0 30 -23 46.5t-69 30.5q-30 8 -49.5 16.5t-42.5 24.5t-34.5 41t-11.5 60q0 73 55 125.5t172 52.5q34 0 62.5 -5t45.5 -11.5t29.5 -13.5t16.5 -12l5 -5l-25 -132h-100l-2 79q-15 12 -54 12q-15 0 -31.5 -2.5t-26.5 -4.5l-9 -2q-16 -22 -16 -50q0 -32 24.5 -49
t76.5 -32q29 -8 47.5 -16t40 -23t32 -39t10.5 -58q0 -77 -60 -130.5t-187 -53.5q-58 0 -100 12t-55 23l-13 12l26 133h101l1 -79q18 -11 66 -11q19 0 39.5 2t31.5 4l10 2q17 25 17 53zM301 577l-107 152l54 38l83 -79l114 79l38 -38l-165 -152h-17z" />
    <glyph glyph-name="Tcommaaccent" unicode="&#x162;" horiz-adv-x="627" 
d="M358 77l64 -9l-14 -68h-273l13 64l70 21l101 522h-103l-53 -117h-93l55 210h567l-27 -210h-92l-8 117h-104zM177 -260l-13 24q8 5 19 14t31.5 33t23.5 44q-35 3 -35 43q0 28 20 47.5t48 19.5q46 0 46 -52q0 -32 -14.5 -61.5t-35 -49t-41 -34t-34.5 -21.5z" />
    <glyph glyph-name="tcommaaccent" unicode="&#x163;" horiz-adv-x="393" 
d="M62 433l15 76l59 17l40 100h116l-19 -100h136l-18 -93h-136l-56 -281q-12 -68 42 -68q18 0 39.5 7.5t33.5 14.5l13 8l8 -65q-6 -7 -17 -16.5t-51.5 -26t-86.5 -16.5q-148 0 -118 161l55 282h-55zM80 -260l-14 24q8 5 19.5 14t32 33t23.5 44q-35 3 -35 43q0 28 20 47.5
t48 19.5q46 0 46 -52q0 -32 -14.5 -61.5t-35 -49t-41 -34t-35.5 -21.5z" />
    <glyph glyph-name="Tcaron" unicode="&#x164;" horiz-adv-x="627" 
d="M358 77l64 -9l-14 -68h-273l13 64l70 21l101 522h-103l-53 -117h-93l55 210h567l-27 -210h-92l-8 117h-104zM397 739l-107 153l54 38l83 -79l113 79l39 -38l-165 -153h-17z" />
    <glyph glyph-name="tcaron" unicode="&#x165;" horiz-adv-x="393" 
d="M62 433l15 76l59 17l40 100h116l-19 -100h136l-18 -93h-136l-56 -281q-12 -68 42 -68q18 0 39.5 7.5t33.5 14.5l13 8l8 -65q-6 -7 -17 -16.5t-51.5 -26t-86.5 -16.5q-148 0 -118 161l55 282h-55zM333 553l-12 22q7 5 17.5 13t29.5 30.5t22 40.5q-33 6 -33 42
q0 25 18.5 43t44.5 18q42 0 42 -50q0 -29 -13.5 -56t-32 -45t-37.5 -31.5t-33 -19.5z" />
    <glyph glyph-name="Tbar" unicode="&#x166;" horiz-adv-x="627" 
d="M156 321l16 85h108l39 201h-103l-53 -117h-93l55 210h567l-27 -210h-92l-8 117h-104l-39 -201h109l-17 -85h-109l-47 -244l64 -9l-14 -68h-273l13 64l70 21l45 236h-107z" />
    <glyph glyph-name="tbar" unicode="&#x167;" horiz-adv-x="393" 
d="M62 433l15 76l59 17l40 100h116l-19 -100h136l-18 -93h-136l-16 -77h136l-16 -85h-137l-23 -119q-12 -68 42 -68q18 0 39.5 7.5t33.5 14.5l13 8l8 -65q-6 -7 -17 -16.5t-51.5 -26t-86.5 -16.5q-148 0 -118 161l23 120h-55l16 85h56l15 77h-55z" />
    <glyph glyph-name="Utilde" unicode="&#x168;" horiz-adv-x="715" 
d="M697 615l-70 -357q-24 -127 -109 -198t-203 -71q-117 0 -176.5 68t-36.5 186l74 380l-64 9l13 68h277l-12 -64l-70 -21l-73 -374q-16 -86 10 -122.5t102 -36.5q29 0 52.5 4t32.5 8l10 5q5 5 13.5 15.5t26.5 51t28 90.5l71 367l-68 9l13 68h245l-12 -64zM324 763l-26 35
q3 4 8.5 10t23 22t35 28.5t42 22.5t46.5 10q26 0 62.5 -19.5t58.5 -19.5l66 41l24 -35q-3 -4 -8.5 -10t-23 -21.5t-34.5 -27.5t-41 -22t-45 -10q-26 0 -63.5 19.5t-58.5 19.5z" />
    <glyph glyph-name="utilde" unicode="&#x169;" horiz-adv-x="602" 
d="M52 452l11 64q79 18 133 18q48 0 63 -19t8 -55l-54 -274q-11 -58 -2.5 -81t41.5 -23q17 0 35.5 5t28.5 9l10 5q45 74 70 214l42 211h137l-80 -413q-6 -31 26 -21q20 5 43 20l8 -63q-6 -6 -16.5 -15.5t-44 -25t-68.5 -15.5q-36 0 -46.5 22t2.5 98l2 10h-8
q-25 -60 -84 -96.5t-129 -36.5q-75 0 -99 50.5t-2 164.5l43 213q5 25 -4 29.5t-66 4.5zM212 602l-25 35q3 4 8.5 10t23 22t35 28.5t42 22.5t46.5 10q26 0 62 -19.5t58 -19.5l66 41l25 -35q-3 -4 -8.5 -10t-23 -21.5t-34.5 -27.5t-41 -22t-46 -10q-25 0 -62.5 19t-58.5 19z
" />
    <glyph glyph-name="Umacron" unicode="&#x16a;" horiz-adv-x="715" 
d="M697 615l-70 -357q-24 -127 -109 -198t-203 -71q-117 0 -176.5 68t-36.5 186l74 380l-64 9l13 68h277l-12 -64l-70 -21l-73 -374q-16 -86 10 -122.5t102 -36.5q29 0 52.5 4t32.5 8l10 5q5 5 13.5 15.5t26.5 51t28 90.5l71 367l-68 9l13 68h245l-12 -64zM311 759l16 84
h298l-16 -84h-298z" />
    <glyph glyph-name="umacron" unicode="&#x16b;" horiz-adv-x="602" 
d="M52 452l11 64q79 18 133 18q48 0 63 -19t8 -55l-54 -274q-11 -58 -2.5 -81t41.5 -23q17 0 35.5 5t28.5 9l10 5q45 74 70 214l42 211h137l-80 -413q-6 -31 26 -21q20 5 43 20l8 -63q-6 -6 -16.5 -15.5t-44 -25t-68.5 -15.5q-36 0 -46.5 22t2.5 98l2 10h-8
q-25 -60 -84 -96.5t-129 -36.5q-75 0 -99 50.5t-2 164.5l43 213q5 25 -4 29.5t-66 4.5zM206 618l17 84h298l-16 -84h-299z" />
    <glyph glyph-name="Ubreve" unicode="&#x16c;" horiz-adv-x="715" 
d="M697 615l-70 -357q-24 -127 -109 -198t-203 -71q-117 0 -176.5 68t-36.5 186l74 380l-64 9l13 68h277l-12 -64l-70 -21l-73 -374q-16 -86 10 -122.5t102 -36.5q29 0 52.5 4t32.5 8l10 5q5 5 13.5 15.5t26.5 51t28 90.5l71 367l-68 9l13 68h245l-12 -64zM585 885l41 -17
q-2 -5 -6 -12.5t-19 -27.5t-32.5 -35.5t-47.5 -28t-64 -12.5t-59 11.5t-37.5 28t-20 33t-8.5 27.5l-2 12l71 22q1 -2 2 -6t7 -14t14.5 -17.5t24 -13.5t35.5 -6q31 0 56 14t35 28z" />
    <glyph glyph-name="ubreve" unicode="&#x16d;" horiz-adv-x="602" 
d="M52 452l11 64q79 18 133 18q48 0 63 -19t8 -55l-54 -274q-11 -58 -2.5 -81t41.5 -23q17 0 35.5 5t28.5 9l10 5q45 74 70 214l42 211h137l-80 -413q-6 -31 26 -21q20 5 43 20l8 -63q-6 -6 -16.5 -15.5t-44 -25t-68.5 -15.5q-36 0 -46.5 22t2.5 98l2 10h-8
q-25 -60 -84 -96.5t-129 -36.5q-75 0 -99 50.5t-2 164.5l43 213q5 25 -4 29.5t-66 4.5zM480 732l42 -17q-2 -5 -6 -12.5t-19 -27.5t-32.5 -35.5t-48 -28t-64.5 -12.5t-59 11.5t-37.5 28t-20 33t-9.5 28.5l-1 11l72 22q1 -2 2 -6t7 -14t14 -17.5t24 -13.5t35 -6q31 0 56 14
t35 28z" />
    <glyph glyph-name="Uring" unicode="&#x16e;" horiz-adv-x="715" 
d="M697 615l-70 -357q-24 -127 -109 -198t-203 -71q-117 0 -176.5 68t-36.5 186l74 380l-64 9l13 68h277l-12 -64l-70 -21l-73 -374q-16 -86 10 -122.5t102 -36.5q29 0 52.5 4t32.5 8l10 5q5 5 13.5 15.5t26.5 51t28 90.5l71 367l-68 9l13 68h245l-12 -64zM375 816
q0 46 32.5 76t81.5 30q38 0 60 -20t22 -55q0 -46 -33 -76t-82 -30q-38 0 -59.5 19.5t-21.5 55.5zM439 824q0 -29 29 -29l27 4q12 17 12 40q0 29 -28 29l-28 -4q-12 -18 -12 -40z" />
    <glyph glyph-name="uring" unicode="&#x16f;" horiz-adv-x="602" 
d="M52 452l11 64q79 18 133 18q48 0 63 -19t8 -55l-54 -274q-11 -58 -2.5 -81t41.5 -23q17 0 35.5 5t28.5 9l10 5q45 74 70 214l42 211h137l-80 -413q-6 -31 26 -21q20 5 43 20l8 -63q-6 -6 -16.5 -15.5t-44 -25t-68.5 -15.5q-36 0 -46.5 22t2.5 98l2 10h-8
q-25 -60 -84 -96.5t-129 -36.5q-75 0 -99 50.5t-2 164.5l43 213q5 25 -4 29.5t-66 4.5zM261 647q0 46 32.5 76t81.5 30q38 0 60 -20t22 -56q0 -45 -33.5 -75.5t-81.5 -30.5q-38 0 -59.5 20t-21.5 56zM325 655q0 -30 28 -30l28 5q12 17 12 39q0 30 -29 30l-27 -5
q-12 -17 -12 -39z" />
    <glyph glyph-name="Uhungarumlaut" unicode="&#x170;" horiz-adv-x="715" 
d="M697 615l-70 -357q-24 -127 -109 -198t-203 -71q-117 0 -176.5 68t-36.5 186l74 380l-64 9l13 68h277l-12 -64l-70 -21l-73 -374q-16 -86 10 -122.5t102 -36.5q29 0 52.5 4t32.5 8l10 5q5 5 13.5 15.5t26.5 51t28 90.5l71 367l-68 9l13 68h245l-12 -64zM319 764l111 169
l84 -68l-136 -127zM489 764l111 169l85 -68l-137 -127z" />
    <glyph glyph-name="uhungarumlaut" unicode="&#x171;" horiz-adv-x="602" 
d="M52 452l11 64q79 18 133 18q48 0 63 -19t8 -55l-54 -274q-11 -58 -2.5 -81t41.5 -23q17 0 35.5 5t28.5 9l10 5q45 74 70 214l42 211h137l-80 -413q-6 -31 26 -21q20 5 43 20l8 -63q-6 -6 -16.5 -15.5t-44 -25t-68.5 -15.5q-36 0 -46.5 22t2.5 98l2 10h-8
q-25 -60 -84 -96.5t-129 -36.5q-75 0 -99 50.5t-2 164.5l43 213q5 25 -4 29.5t-66 4.5zM388 595l111 169l85 -68l-137 -127zM218 595l111 169l84 -68l-136 -127z" />
    <glyph glyph-name="Uogonek" unicode="&#x172;" horiz-adv-x="715" 
d="M348 -113q0 -33 34 -33q9 0 20 2t18 4l7 2l1 -36q-33 -28 -90 -28q-83 0 -83 69q0 66 76 122h-16q-117 0 -176.5 68t-36.5 186l74 380l-64 9l13 68h277l-12 -64l-70 -21l-73 -374q-16 -86 10 -122.5t102 -36.5q29 0 52.5 4t32.5 8l10 5q5 5 13.5 15.5t26.5 51t28 90.5
l71 367l-68 9l13 68h245l-12 -64l-74 -21l-70 -357q-19 -100 -76 -165.5t-140 -90.5q-17 -14 -40 -47.5t-23 -67.5z" />
    <glyph glyph-name="uogonek" unicode="&#x173;" horiz-adv-x="602" 
d="M52 452l11 64q79 18 133 18q48 0 63 -19t8 -55l-54 -274q-11 -58 -2.5 -81t41.5 -23q17 0 35.5 5t28.5 9l10 5q45 74 70 214l42 211h137l-80 -413q-6 -31 26 -21q20 5 43 20l8 -63q-11 -12 -28 -23q-58 -58 -58 -111q0 -33 34 -33q9 0 20 2t18 4l7 2l1 -35
q-33 -28 -90 -28q-83 0 -83 68q0 51 47 98q-34 1 -44 23.5t3 96.5l2 10h-8q-25 -60 -84 -96.5t-129 -36.5q-75 0 -99 50.5t-2 164.5l43 213q5 25 -4 29.5t-66 4.5z" />
    <glyph glyph-name="Wcircumflex" unicode="&#x174;" horiz-adv-x="1046" 
d="M369 0h-137l-12 15l-70 604l-66 13l14 68h302l-13 -64l-74 -15l25 -405q3 -60 3 -69h5q6 20 28 69l207 474h132l26 -474q3 -54 3 -69h5q5 14 15.5 39.5t12.5 29.5l175 407l-63 9l14 68h233l-12 -64l-68 -21l-290 -615h-137l-11 15l-22 436q-2 39 -1 65h-4q-3 -11 -27 -65
zM496 764l176 161h17l113 -161l-64 -26l-79 75l-109 -75z" />
    <glyph glyph-name="wcircumflex" unicode="&#x175;" horiz-adv-x="844" 
d="M641 456l11 60q52 18 100 18q81 0 81 -77q0 -42 -22.5 -105t-55 -122t-65 -112t-54.5 -86l-23 -32h-120l-47 296q-22 -69 -52 -143t-49 -113l-19 -40h-144l-66 418q-4 25 -14.5 29.5t-67.5 4.5l9 64q49 18 102 18q94 0 104 -74l45 -344q113 258 113 410h119l66 -408
q114 228 114 300q0 22 -14 29.5t-51 8.5zM330 595l175 160h17l114 -160l-64 -26l-79 75l-109 -75z" />
    <glyph glyph-name="Ycircumflex" unicode="&#x176;" horiz-adv-x="667" 
d="M668 615l-243 -318l-43 -220l65 -9l-14 -68h-273l13 64l70 21l41 210l-132 328l-61 9l13 68h300l-12 -64l-77 -19l68 -182q14 -44 14 -45h4q6 10 17.5 26t14.5 21l130 186l-61 9l13 68h238l-13 -64zM292 764l176 161h16l114 -161l-64 -26l-79 75l-109 -75z" />
    <glyph glyph-name="ycircumflex" unicode="&#x177;" horiz-adv-x="569" 
d="M-85 -229l21 108q34 -30 103 -30q15 0 30.5 2t22.5 4l8 2q37 33 88 110l-73 451q-2 12 -4 16.5t-5 9.5t-14 6t-21.5 1.5t-38.5 0.5l12 64q50 18 104 18q89 0 97 -74l44 -366q60 97 103.5 190.5t43.5 134.5q0 21 -14.5 28.5t-50.5 8.5l10 60q54 18 102 18q81 0 81 -71
q0 -59 -61 -191t-179 -285q-101 -132 -169.5 -179.5t-143.5 -47.5q-28 0 -52 3t-34 5zM191 595l175 160h17l114 -160l-64 -26l-79 75l-109 -75z" />
    <glyph glyph-name="Ydieresis" unicode="&#x178;" horiz-adv-x="667" 
d="M668 615l-243 -318l-43 -220l65 -9l-14 -68h-273l13 64l70 21l41 210l-132 328l-61 9l13 68h300l-12 -64l-77 -19l68 -182q14 -44 14 -45h4q6 10 17.5 26t14.5 21l130 186l-61 9l13 68h238l-13 -64zM314 810q0 35 23 57t57 22q25 0 39.5 -14.5t14.5 -39.5
q0 -33 -23.5 -55.5t-56.5 -22.5q-24 0 -39 14.5t-15 38.5zM515 810q0 35 23 57t56 22q25 0 40 -14.5t15 -39.5q0 -33 -23.5 -55.5t-56.5 -22.5q-25 0 -39.5 14.5t-14.5 38.5z" />
    <glyph glyph-name="Zacute" unicode="&#x179;" horiz-adv-x="579" 
d="M-8 0l11 55l426 552h-199l-52 -107h-93l53 200h491l-11 -55l-426 -552h215l37 107h97l-39 -200h-510zM287 764l169 169l69 -84l-185 -111z" />
    <glyph glyph-name="zacute" unicode="&#x17a;" horiz-adv-x="500" 
d="M491 476l-317 -372q44 -16 85 -16q15 0 29 2.5t21 5.5l7 2q13 26 25 77h119q-24 -121 -44 -153t-75 -32q-50 0 -124 15.5t-87 15.5q-31 0 -59 -31q-36 0 -47.5 11.5t-11.5 48.5l326 384q-36 14 -70 14q-12 0 -27.5 -2t-24.5 -4l-10 -3q-16 -32 -29 -88h-115
q24 121 43.5 153.5t77.5 32.5q43 0 112 -12.5t81 -12.5q30 0 55 25q39 0 49.5 -11.5t10.5 -49.5zM211 595l170 169l69 -85l-185 -110z" />
    <glyph glyph-name="Zdotaccent" unicode="&#x17b;" horiz-adv-x="579" 
d="M-8 0l11 55l426 552h-199l-52 -107h-93l53 200h491l-11 -55l-426 -552h215l37 107h97l-39 -200h-510zM303 816q0 44 30.5 72t74.5 28q33 0 53 -19t20 -50q0 -44 -30.5 -72.5t-74.5 -28.5q-34 0 -53.5 19t-19.5 51z" />
    <glyph glyph-name="zdotaccent" unicode="&#x17c;" horiz-adv-x="500" 
d="M491 476l-317 -372q44 -16 85 -16q15 0 29 2.5t21 5.5l7 2q13 26 25 77h119q-24 -121 -44 -153t-75 -32q-50 0 -124 15.5t-87 15.5q-31 0 -59 -31q-36 0 -47.5 11.5t-11.5 48.5l326 384q-36 14 -70 14q-12 0 -27.5 -2t-24.5 -4l-10 -3q-16 -32 -29 -88h-115
q24 121 43.5 153.5t77.5 32.5q43 0 112 -12.5t81 -12.5q30 0 55 25q39 0 49.5 -11.5t10.5 -49.5zM224 658q0 44 30.5 72.5t74.5 28.5q33 0 53 -19t20 -50q0 -44 -31 -72.5t-75 -28.5q-33 0 -52.5 19t-19.5 50z" />
    <glyph glyph-name="Zcaron" unicode="&#x17d;" horiz-adv-x="579" 
d="M-8 0l11 55l426 552h-199l-52 -107h-93l53 200h491l-11 -55l-426 -552h215l37 107h97l-39 -200h-510zM371 738l-107 152l55 39l82 -80l114 80l38 -39l-165 -152h-17z" />
    <glyph glyph-name="zcaron" unicode="&#x17e;" horiz-adv-x="500" 
d="M491 476l-317 -372q44 -16 85 -16q15 0 29 2.5t21 5.5l7 2q13 26 25 77h119q-24 -121 -44 -153t-75 -32q-50 0 -124 15.5t-87 15.5q-31 0 -59 -31q-36 0 -47.5 11.5t-11.5 48.5l326 384q-36 14 -70 14q-12 0 -27.5 -2t-24.5 -4l-10 -3q-16 -32 -29 -88h-115
q24 121 43.5 153.5t77.5 32.5q43 0 112 -12.5t81 -12.5q30 0 55 25q39 0 49.5 -11.5t10.5 -49.5zM289 577l-107 152l54 38l83 -79l113 79l39 -38l-165 -152h-17z" />
    <glyph glyph-name="uni018F" unicode="&#x18f;" horiz-adv-x="607" 
d="M603 429q0 -191 -106.5 -315.5t-270.5 -124.5q-73 0 -120.5 27.5t-66 77t-12.5 115.5t36 145l41 25h344q22 114 -6 174.5t-102 60.5q-21 0 -44 -4.5t-36 -9.5l-12 -4l-52 -110h-93l49 184q95 41 202 41q121 0 185 -71.5t64 -210.5zM350 108q6 7 16.5 21.5t33.5 65
t35 107.5l-254 -16q-33 -100 -12.5 -150t89.5 -50q23 0 46 5.5t34 10.5z" />
    <glyph glyph-name="florin" unicode="&#x192;" horiz-adv-x="375" 
d="M39 357l13 76l68 17l13 70q23 130 81 185t160 55q23 0 45.5 -2.5t33.5 -5.5l11 -2l-30 -97q-37 18 -76 18q-12 0 -22.5 -2t-15.5 -4l-4 -2q-26 -33 -45 -143l-13 -70h137l-17 -93h-136l-64 -357q-23 -130 -81.5 -185t-159.5 -55q-23 0 -45.5 2.5t-33.5 5.5l-11 2l30 97
q36 -18 76 -18q12 0 22.5 2t14.5 4l5 2q26 33 45 143l64 357h-65z" />
    <glyph glyph-name="uni01DD" unicode="&#x1dd;" horiz-adv-x="509" 
d="M101 411l-12 72q9 6 26 15t67.5 24t100.5 15q94 0 149 -50.5t55 -157.5q0 -136 -85 -237.5t-216 -101.5q-105 0 -148 70.5t-5 198.5l44 27h268q27 155 -107 155q-30 0 -64 -7.5t-54 -15.5zM282 99q34 43 48 118l-189 -17q-29 -118 65 -118q20 0 39 4t28 8z" />
    <glyph glyph-name="Aringacute" unicode="&#x1fa;" horiz-adv-x="717" 
d="M366 722q0 41 27 70t69 35l87 120l77 -85l-84 -57q20 -20 20 -53q0 -43 -31 -74l91 -601l64 -9l-14 -68h-295l11 62l70 23l-14 110h-229l-63 -118l69 -9l-14 -68h-246l12 64l65 21l334 601q-6 15 -6 36zM367 486l-104 -198h171l-25 198q-4 32 -4 77h-5q-19 -51 -33 -77z
M430 730q0 -29 25 -30h4l27 5q12 17 12 39q0 30 -28 30l-28 -5q-12 -17 -12 -39z" />
    <glyph glyph-name="aringacute" unicode="&#x1fb;" horiz-adv-x="542" 
d="M30 169q0 158 87 263t234 105q42 0 87.5 -9t69.5 -18l25 -9l-76 -388q-6 -30 26 -21q20 5 44 20l8 -63q-6 -6 -16.5 -15.5t-44.5 -25t-68 -15.5q-24 0 -36 8.5t-16.5 35.5t8.5 76l2 10h-7q-24 -65 -76 -99t-115 -34q-69 0 -102.5 42.5t-33.5 136.5zM288 103q44 72 71 212
l22 119q-30 10 -65 10q-22 0 -42 -5t-29 -9l-9 -5q-3 -4 -7.5 -11.5t-16.5 -33t-21 -52.5t-16.5 -69t-7.5 -85q0 -50 12 -71t42 -21q16 0 33 5t26 11zM258 635q0 42 28.5 71.5t72.5 33.5l86 118l76 -85l-84 -57q17 -20 17 -50q0 -46 -33 -76t-82 -30q-38 0 -59.5 19.5
t-21.5 55.5zM322 643q0 -29 29 -29l27 4q12 17 12 40q0 29 -28 29l-28 -4q-12 -18 -12 -40z" />
    <glyph glyph-name="AEacute" unicode="&#x1fc;" horiz-adv-x="834" 
d="M751 0h-452l12 62l70 23l9 110h-171l-69 -118l68 -9l-13 -68h-244l12 64l65 21l362 615h473l-24 -192h-92l-11 99h-187l-12 -206h65l31 78h72l-48 -248h-72l-2 78h-53l-12 -216h131l51 103h93zM382 486l-115 -198h135l24 279h-5q-15 -40 -39 -81zM430 764l169 169l69 -84
l-185 -111z" />
    <glyph glyph-name="aeacute" unicode="&#x1fd;" horiz-adv-x="740" 
d="M-6 107q0 71 53.5 123.5t149.5 60.5l105 8q12 46 35 86q0 60 -69 60q-17 0 -31.5 -3t-20.5 -6l-7 -3l-31 -78h-101l28 143q7 4 21 10.5t61 17.5t99 11q108 0 152 -45q72 45 159 45q149 0 149 -123q0 -87 -79 -136.5t-231 -51.5v-2q0 -73 24.5 -106t77.5 -33q27 0 60 8.5
t52 16.5l19 9l10 -76q-9 -6 -25 -15t-65 -23.5t-98 -14.5q-120 0 -170 84q-97 -84 -203 -84q-59 0 -91.5 31t-32.5 86zM391 595l170 169l68 -85l-184 -110zM128 131q0 -46 53 -46q56 0 117 49q-7 31 -7 72v19l-136 -25q-27 -33 -27 -69zM495 429q-36 -45 -52 -127
q164 6 164 94q0 48 -48 48q-14 0 -30 -4t-25 -8z" />
    <glyph glyph-name="Oslashacute" unicode="&#x1fe;" horiz-adv-x="653" 
d="M14 17l72 82q-37 68 -37 174q0 189 107 313.5t264 124.5q97 0 156 -53l50 56l66 -32l-72 -81q37 -69 37 -173q0 -190 -107 -314.5t-263 -124.5q-97 0 -158 53l-49 -56zM509 451q0 15 -1 22l-293 -334q25 -53 96 -53q26 0 49.5 6t33.5 12l11 6q4 5 11 15t25 43t32 70
t25 95t11 118zM197 248v-22l294 335q-25 53 -93 53q-26 0 -50 -6t-36 -12l-11 -7q-4 -5 -11 -15t-25 -43.5t-32 -70.5t-25 -94.5t-11 -117.5zM322 764l170 169l68 -84l-185 -111z" />
    <glyph glyph-name="oslashacute" unicode="&#x1ff;" horiz-adv-x="542" 
d="M34 195q0 150 88.5 246t223.5 96q77 0 121 -35l37 40l65 -26l-61 -66q21 -45 21 -115q0 -151 -88.5 -248t-223.5 -97q-71 0 -112 28l-38 -40l-66 25l60 64q-27 48 -27 128zM176 203v-13l198 212q-19 42 -64 42q-15 0 -32 -3.5t-27 -6.5l-10 -4q-7 -10 -18 -29t-29 -78
t-18 -120zM321 97q7 9 18 26t29.5 75t18.5 122l-193 -207q19 -31 59 -31q16 0 33 4t26 8zM245 595l170 169l69 -85l-185 -110z" />
    <glyph glyph-name="Scommaaccent" unicode="&#x218;" horiz-adv-x="544" 
d="M365 190q0 19 -8 33.5t-25 25.5t-32 18t-41.5 17t-41.5 17q-59 26 -90.5 67.5t-31.5 111.5q0 44 13 82t43 73t87 55.5t136 20.5q59 0 105 -11t63 -22l17 -11l-35 -177h-96l4 106q-23 19 -77 19q-20 0 -42 -3.5t-35 -6.5l-12 -3q-31 -38 -31 -87q0 -17 6.5 -32t13 -23.5
t24 -19t25.5 -14.5t33.5 -14t32.5 -13q68 -30 101.5 -69.5t33.5 -106.5q0 -44 -14.5 -83t-47.5 -74.5t-95.5 -56t-149.5 -20.5q-63 0 -111.5 11t-65.5 22l-17 11l35 179h93l3 -107q29 -18 96 -18q27 0 52 3.5t37 7.5l12 3q33 45 33 89zM139 -260l-14 24q8 5 19.5 14t32 33
t23.5 44q-17 1 -26.5 13t-9.5 30q0 28 20.5 47.5t48.5 19.5q46 0 46 -52q0 -32 -14.5 -61.5t-35 -49t-41 -34t-34.5 -21.5z" />
    <glyph glyph-name="scommaaccent" unicode="&#x219;" horiz-adv-x="478" 
d="M309 140q0 30 -23 46.5t-69 30.5q-30 8 -49.5 16.5t-42.5 24.5t-34.5 41t-11.5 60q0 73 55 125.5t172 52.5q34 0 62.5 -5t45.5 -11.5t29.5 -13.5t16.5 -12l5 -5l-25 -132h-100l-2 79q-15 12 -54 12q-15 0 -31.5 -2.5t-26.5 -4.5l-9 -2q-16 -22 -16 -50q0 -32 24.5 -49
t76.5 -32q29 -8 47.5 -16t40 -23t32 -39t10.5 -58q0 -77 -60 -130.5t-187 -53.5q-58 0 -100 12t-55 23l-13 12l26 133h101l1 -79q18 -11 66 -11q19 0 39.5 2t31.5 4l10 2q17 25 17 53zM111 -260l-14 24q8 5 19 14t31.5 33t24.5 44q-17 1 -26.5 13t-9.5 30q0 28 20.5 47.5
t48.5 19.5q45 0 45 -52q0 -32 -14.5 -61.5t-35 -49t-40.5 -34t-34 -21.5z" />
    <glyph glyph-name="uni021A" unicode="&#x21a;" horiz-adv-x="627" 
d="M358 77l64 -9l-14 -68h-273l13 64l70 21l101 522h-103l-53 -117h-93l55 210h567l-27 -210h-92l-8 117h-104zM177 -260l-13 24q8 5 19 14t31.5 33t23.5 44q-35 3 -35 43q0 28 20 47.5t48 19.5q46 0 46 -52q0 -32 -14.5 -61.5t-35 -49t-41 -34t-34.5 -21.5z" />
    <glyph glyph-name="uni021B" unicode="&#x21b;" horiz-adv-x="393" 
d="M62 433l15 76l59 17l40 100h116l-19 -100h136l-18 -93h-136l-56 -281q-12 -68 42 -68q18 0 39.5 7.5t33.5 14.5l13 8l8 -65q-6 -7 -17 -16.5t-51.5 -26t-86.5 -16.5q-148 0 -118 161l55 282h-55zM80 -260l-14 24q8 5 19.5 14t32 33t23.5 44q-35 3 -35 43q0 28 20 47.5
t48 19.5q46 0 46 -52q0 -32 -14.5 -61.5t-35 -49t-41 -34t-35.5 -21.5z" />
    <glyph glyph-name="dotlessj" unicode="&#x237;" horiz-adv-x="284" 
d="M53 456l10 60q80 18 133 18q48 0 63 -19t8 -55l-90 -460q-26 -130 -85 -185t-160 -55q-23 0 -45.5 2.5t-33.5 5.5l-11 2l32 97q36 -18 76 -18q12 0 22.5 2t15.5 4l4 2q26 33 48 143l83 422q5 26 -4 30t-66 4z" />
    <glyph glyph-name="circumflex" unicode="&#x2c6;" horiz-adv-x="407" 
d="M127 595l175 160h17l113 -160l-64 -26l-79 75l-109 -75z" />
    <glyph glyph-name="caron" unicode="&#x2c7;" horiz-adv-x="407" 
d="M267 577l-106 152l54 38l82 -79l114 79l39 -38l-166 -152h-17z" />
    <glyph glyph-name="breve" unicode="&#x2d8;" horiz-adv-x="407" 
d="M396 732l41 -17q-2 -5 -6 -12.5t-19 -27.5t-32.5 -35.5t-47.5 -28t-64 -12.5t-59 11.5t-37.5 28t-20 33t-9.5 28.5l-1 11l71 22q1 -2 2 -6t7 -14t14.5 -17.5t24 -13.5t35.5 -6q31 0 56 14t35 28z" />
    <glyph glyph-name="dotaccent" unicode="&#x2d9;" horiz-adv-x="294" 
d="M138 658q0 44 30.5 72.5t74.5 28.5q33 0 53 -19t20 -50q0 -44 -30.5 -72.5t-74.5 -28.5q-33 0 -53 19t-20 50z" />
    <glyph glyph-name="ring" unicode="&#x2da;" horiz-adv-x="564" 
d="M284 647q0 46 32 76t81 30q38 0 60 -20t22 -56q0 -45 -33 -75.5t-81 -30.5q-38 0 -59.5 20t-21.5 56zM348 655q0 -30 28 -30l27 5q12 17 12 39q0 30 -28 30l-27 -5q-12 -17 -12 -39z" />
    <glyph glyph-name="ogonek" unicode="&#x2db;" horiz-adv-x="343" 
d="M97 -118q0 -33 34 -33q9 0 20.5 2t18.5 4l7 2v-36q-32 -28 -89 -28q-83 0 -83 69q0 37 25 71.5t50 50.5l25 16h59q-8 -7 -19 -18.5t-29.5 -42.5t-18.5 -57z" />
    <glyph glyph-name="tilde" unicode="&#x2dc;" horiz-adv-x="485" 
d="M175 602l-26 35q3 4 8.5 10t23 22t35 28.5t42 22.5t46.5 10q26 0 62 -19.5t58 -19.5l67 41l24 -35q-3 -4 -8.5 -10t-23 -21.5t-34.5 -27.5t-41 -22t-45 -10q-26 0 -63.5 19t-58.5 19z" />
    <glyph glyph-name="hungarumlaut" unicode="&#x2dd;" horiz-adv-x="493" 
d="M5 595l111 169l85 -68l-137 -127zM176 595l110 169l85 -68l-137 -127z" />
    <glyph glyph-name="uni0400" unicode="&#x400;" horiz-adv-x="592" 
d="M509 0h-515l12 64l69 21l106 538l-64 9l13 68h501l-23 -192h-93l-10 99h-186l-40 -206h80l31 78h76l-48 -248h-76l-2 78h-79l-42 -216h198l51 103h94zM268 849l101 84l104 -169l-63 -26z" />
    <glyph glyph-name="afii10023" unicode="&#x401;" horiz-adv-x="592" 
d="M509 0h-515l12 64l69 21l106 538l-64 9l13 68h501l-23 -192h-93l-10 99h-186l-40 -206h80l31 78h76l-48 -248h-76l-2 78h-79l-42 -216h198l51 103h94zM243 815q0 34 23 56.5t56 22.5q25 0 40 -14.5t15 -39.5q0 -33 -23.5 -55.5t-56.5 -22.5q-25 0 -39.5 15t-14.5 38z
M443 815q0 34 23.5 56.5t56.5 22.5q25 0 40 -14.5t15 -39.5q0 -33 -23.5 -55.5t-57.5 -22.5q-24 0 -39 15t-15 38z" />
    <glyph glyph-name="afii10051" unicode="&#x402;" horiz-adv-x="779" 
d="M595 181l7 36q11 53 -8.5 77t-76.5 24q-32 0 -61.5 -6t-43.5 -12l-13 -7l-41 -216l64 -9l-14 -68h-273l13 64l70 21l101 522h-104l-53 -117h-92l55 210h567l-27 -210h-93l-8 117h-103l-44 -223q64 28 151 28q98 0 146.5 -46.5t31.5 -134.5l-12 -60q-17 -90 -68.5 -136
t-131.5 -46q-25 0 -47 4t-32 9l-10 4l27 91q18 -12 49 -12l43 6q18 28 31 90z" />
    <glyph glyph-name="afii10052" unicode="&#x403;" horiz-adv-x="561" 
d="M313 764l169 169l68 -84l-184 -111zM216 79l79 -5l-15 -74h-287l13 64l69 21l105 538l-63 9l12 68h495l-26 -210h-93l-8 117h-178z" />
    <glyph glyph-name="afii10053" unicode="&#x404;" horiz-adv-x="581" 
d="M508 490l-10 103q-34 21 -93 21q-29 0 -55 -6t-38 -12l-11 -7q-56 -72 -87 -188h135l31 78h76l-47 -248h-77l-1 78h-133q-3 -28 -3 -59q0 -85 28 -124.5t89 -39.5q22 0 45 4.5t35 9.5l13 4l52 110h92l-49 -184q-96 -41 -200 -41q-119 0 -185 72t-66 216q0 188 107.5 311
t282.5 123q49 0 95 -10.5t67 -20.5l21 -10l-21 -180h-93z" />
    <glyph glyph-name="afii10054" unicode="&#x405;" horiz-adv-x="544" 
d="M365 190q0 19 -8 33.5t-25 25.5t-32 18t-41.5 17t-41.5 17q-59 26 -90.5 67.5t-31.5 111.5q0 44 13 82t43 73t87 55.5t136 20.5q59 0 105 -11t63 -22l17 -11l-35 -177h-96l4 106q-23 19 -77 19q-20 0 -42 -3.5t-35 -6.5l-12 -3q-31 -38 -31 -87q0 -17 6.5 -32t13 -23.5
t24 -19t25.5 -14.5t33.5 -14t32.5 -13q68 -30 101.5 -69.5t33.5 -106.5q0 -44 -14.5 -83t-47.5 -74.5t-95.5 -56t-149.5 -20.5q-63 0 -111.5 11t-65.5 22l-17 11l35 179h93l3 -107q29 -18 96 -18q27 0 52 3.5t37 7.5l12 3q33 45 33 89z" />
    <glyph glyph-name="afii10055" unicode="&#x406;" horiz-adv-x="343" 
d="M215 77l65 -9l-14 -68h-273l13 64l69 21l105 538l-63 9l12 68h273l-13 -64l-69 -21z" />
    <glyph glyph-name="afii10056" unicode="&#x407;" horiz-adv-x="344" 
d="M125 815q0 34 23 56.5t56 22.5q25 0 40 -14.5t15 -39.5q0 -33 -23.5 -55.5t-56.5 -22.5q-25 0 -39.5 15t-14.5 38zM313 815q0 34 23.5 56.5t56.5 22.5q25 0 40 -14.5t15 -39.5q0 -33 -23.5 -55.5t-57.5 -22.5q-24 0 -39 15t-15 38zM215 77l65 -9l-13 -68h-273l12 64
l69 21l106 538l-64 9l13 68h273l-13 -64l-69 -21z" />
    <glyph glyph-name="afii10057" unicode="&#x408;" horiz-adv-x="446" 
d="M427 615l-81 -418q-19 -97 -84 -152.5t-165 -55.5q-30 0 -57.5 5t-39.5 10l-13 6l32 93q28 -18 79 -18q16 0 32.5 2.5t25.5 4.5l9 2q26 35 43 122l79 405l-79 5l15 74h287l-13 -64z" />
    <glyph glyph-name="afii10058" unicode="&#x409;" horiz-adv-x="1006" 
d="M560 607h-173q-49 -251 -97.5 -388.5t-95 -183.5t-111.5 -46q-23 0 -48 4.5t-39 8.5l-14 5l39 118q42 -27 112 -27q3 3 8 10t21 42.5t33 87.5t43 154t51 231l-64 9l13 68h547l-11 -64l-70 -21l-41 -206h109q94 0 150.5 -44t56.5 -130q0 -105 -81.5 -170t-205.5 -65h-315
l12 64l70 21zM721 315h-75l-44 -222h83q22 0 43 2.5t32 4.5l10 2q6 5 15.5 14.5t25 43t15.5 70.5q0 45 -25 65t-80 20z" />
    <glyph glyph-name="afii10059" unicode="&#x40a;" horiz-adv-x="1004" 
d="M562 623l-64 9l13 68h273l-13 -64l-69 -21l-41 -206h109q94 0 150.5 -44.5t56.5 -130.5q0 -104 -81.5 -169t-205.5 -65h-315l12 64l69 21l45 230h-239l-47 -238l65 -9l-14 -68h-273l13 64l69 21l105 538l-63 9l12 68h273l-13 -64l-69 -21l-40 -207h240zM718 315h-75
l-43 -222h83q21 0 42.5 2.5t32.5 4.5l10 2q6 5 15.5 14.5t25 43t15.5 70.5q0 46 -25 65.5t-81 19.5z" />
    <glyph glyph-name="afii10060" unicode="&#x40b;" horiz-adv-x="820" 
d="M358 77l64 -9l-14 -68h-273l13 64l70 21l101 522h-104l-53 -117h-92l55 210h567l-27 -210h-93l-8 117h-103l-44 -223q63 28 148 28q95 0 142.5 -46.5t30.5 -134.5l-30 -154l64 -9l-14 -68h-272l12 64l70 21l26 132q11 54 -8 77.5t-73 23.5q-31 0 -59.5 -6t-41.5 -12
l-13 -7z" />
    <glyph glyph-name="afii10061" unicode="&#x40c;" horiz-adv-x="670" 
d="M370 764l170 169l68 -84l-184 -111zM215 77l65 -9l-14 -68h-273l13 64l69 21l105 538l-63 9l12 68h273l-13 -64l-69 -21l-43 -222l69 16l195 214l-59 9l13 68h241l-13 -64l-69 -21l-211 -232l125 -306l63 -9l-13 -68h-183l-123 315h-50z" />
    <glyph glyph-name="uni040D" unicode="&#x40d;" horiz-adv-x="727" 
d="M342 849l102 84l104 -169l-64 -26zM215 77l65 -9l-14 -68h-273l13 64l69 21l105 538l-63 9l12 68h273l-13 -64l-69 -21l-70 -360l310 350l4 18l-64 9l13 68h272l-12 -64l-69 -21l-106 -538l65 -9l-14 -68h-272l12 64l69 21l69 353l-308 -342z" />
    <glyph glyph-name="afii10062" unicode="&#x40e;" horiz-adv-x="677" 
d="M452 752q-43 0 -73.5 13t-43 32t-19 38t-6.5 32l1 13l94 9q-7 -72 60 -72q65 0 88 72l90 -9q-1 -5 -4.5 -13.5t-18 -31t-33.5 -39t-55 -30.5t-80 -14zM279 171l-132 452l-63 9l12 68h296l-12 -64l-75 -19l64 -244q9 -33 10 -75h5q21 47 38 75l154 250l-62 9l13 68h229
l-12 -64l-66 -21l-253 -391q-95 -146 -146.5 -190t-135.5 -44q-32 0 -60 4.5t-40 9.5l-12 4l45 121q50 -36 143 -36q27 21 60 78z" />
    <glyph glyph-name="afii10145" unicode="&#x40f;" horiz-adv-x="727" 
d="M263 0h-270l13 64l69 21l105 538l-63 9l12 68h273l-13 -64l-69 -21l-102 -522h242l104 530l-64 9l13 68h272l-12 -64l-69 -21l-106 -538l65 -9l-14 -68h-269l-41 -152h-93z" />
    <glyph glyph-name="afii10017" unicode="&#x410;" horiz-adv-x="717" 
d="M380 700h137l13 -15l92 -608l64 -9l-14 -68h-295l11 62l70 23l-14 110h-229l-63 -118l69 -9l-14 -68h-246l12 64l65 21zM367 486l-104 -198h171l-25 198q-4 32 -4 77h-5q-19 -51 -33 -77z" />
    <glyph glyph-name="afii10018" unicode="&#x411;" horiz-adv-x="623" 
d="M180 623l-63 9l12 68h495l-26 -210h-93l-8 117h-178l-39 -198h109q94 0 150.5 -44.5t56.5 -130.5q0 -104 -81.5 -169t-205.5 -65h-316l13 64l69 21zM337 315h-75l-44 -222h83q22 0 43 2.5t32 4.5l10 2q6 5 15.5 14.5t25 43t15.5 70.5q0 46 -24.5 65.5t-80.5 19.5z" />
    <glyph glyph-name="afii10019" unicode="&#x412;" horiz-adv-x="628" 
d="M310 0h-316l12 64l69 21l106 539l-64 9l13 67h294q95 0 152.5 -42.5t57.5 -117.5q0 -55 -31 -101.5t-82 -73.5q-9 -3 -18 -3v-3q10 0 16 -3q74 -37 74 -133q0 -101 -78.5 -162t-204.5 -61zM336 309h-75l-42 -215h83q22 0 43.5 2t32.5 4l10 3q6 4 15 13t24 41t15 69
q0 45 -24.5 64t-81.5 19zM374 607h-55l-40 -205h62q22 0 43.5 2t31.5 4l11 3q6 4 14.5 12.5t23 38.5t14.5 64q0 44 -24.5 62.5t-80.5 18.5z" />
    <glyph glyph-name="afii10020" unicode="&#x413;" horiz-adv-x="561" 
d="M216 79l79 -5l-15 -74h-287l13 64l69 21l105 538l-63 9l12 68h495l-26 -210h-93l-8 117h-178z" />
    <glyph glyph-name="afii10021" unicode="&#x414;" horiz-adv-x="721" 
d="M532 0h-427l-54 -152h-93l48 245h87q9 10 19 25.5t30.5 58t40.5 96.5t45 146.5t46 203.5l-63 9l12 68h552l-12 -64l-70 -21l-101 -522h76l-48 -245h-93zM550 607h-178q-68 -349 -170 -514h248z" />
    <glyph glyph-name="afii10022" unicode="&#x415;" horiz-adv-x="592" 
d="M509 0h-515l12 64l69 21l106 538l-64 9l13 68h501l-23 -192h-93l-10 99h-186l-40 -206h80l31 78h76l-48 -248h-76l-2 78h-79l-42 -216h198l51 103h94z" />
    <glyph glyph-name="afii10024" unicode="&#x416;" horiz-adv-x="965" 
d="M526 77l64 -9l-13 -68h-273l13 64l69 21l44 230h-45l-231 -315h-187l14 68l66 9l229 306l-109 232l-61 21l12 64h241l-12 -68l-66 -9l98 -214l66 -16l46 230l-64 9l13 68h273l-13 -64l-69 -21l-43 -222l68 16l183 214l-58 9l12 68h241l-13 -64l-68 -21l-200 -232
l110 -306l64 -9l-14 -68h-182l-109 315h-49z" />
    <glyph glyph-name="afii10025" unicode="&#x417;" horiz-adv-x="562" 
d="M232 86q23 0 46 3t34 5l11 3q6 5 14.5 15t22.5 43t14 69q0 46 -24 65.5t-80 19.5h-64l-10 13l15 80h63q24 0 47.5 3t34.5 6l12 3q5 4 12.5 12.5t20 39.5t12.5 67q0 43 -20 62t-65 19q-24 0 -48 -4.5t-36 -9.5l-13 -4l-53 -110h-93l50 184q97 41 213 41q103 0 161.5 -42.5
t58.5 -121.5q0 -56 -30 -105t-84 -77q-9 -3 -18 -3v-3q8 0 17 -3q73 -37 73 -134q0 -105 -89.5 -169t-227.5 -64q-54 0 -104 10.5t-73 20.5l-23 10l21 180h92l10 -105q33 -19 100 -19z" />
    <glyph glyph-name="afii10026" unicode="&#x418;" horiz-adv-x="727" 
d="M215 77l65 -9l-14 -68h-273l13 64l69 21l105 538l-63 9l12 68h273l-13 -64l-69 -21l-70 -360l310 350l4 18l-64 9l13 68h272l-12 -64l-69 -21l-106 -538l65 -9l-14 -68h-272l12 64l69 21l69 353l-308 -342z" />
    <glyph glyph-name="afii10027" unicode="&#x419;" horiz-adv-x="727" 
d="M468 752q-44 0 -74.5 13t-43 32t-19 38t-5.5 32v13l94 9q-5 -72 60 -72t88 72l91 -9q-1 -5 -4.5 -13.5t-18 -31t-34 -39t-55.5 -30.5t-79 -14zM215 77l65 -9l-14 -68h-273l13 64l69 21l105 538l-63 9l12 68h273l-13 -64l-69 -21l-70 -360l310 350l4 18l-64 9l13 68h272
l-12 -64l-69 -21l-106 -538l65 -9l-14 -68h-272l12 64l69 21l69 353l-308 -342z" />
    <glyph glyph-name="afii10028" unicode="&#x41a;" horiz-adv-x="670" 
d="M215 77l65 -9l-13 -68h-273l12 64l69 21l106 538l-64 9l13 68h273l-13 -64l-69 -21l-44 -222l70 16l194 214l-59 9l13 68h241l-13 -64l-68 -21l-212 -232l125 -306l64 -9l-14 -68h-182l-124 315h-50z" />
    <glyph glyph-name="afii10029" unicode="&#x41b;" horiz-adv-x="719" 
d="M553 607h-174q-38 -197 -74 -321.5t-74.5 -188.5t-75 -86t-86.5 -22q-24 0 -47.5 4.5t-34.5 8.5l-11 5l40 118q40 -27 108 -27q3 3 8 10t21.5 42.5t33.5 87.5t43 154t51 231l-64 9l13 68h548l-12 -64l-70 -21l-105 -538l64 -9l-13 -68h-273l12 64l70 21z" />
    <glyph glyph-name="afii10030" unicode="&#x41c;" horiz-adv-x="902" 
d="M161 77l69 -9l-15 -68h-245l13 64l73 21l154 538l-68 9l13 68h244l53 -413q5 -42 5 -70h5q9 29 31 74l212 409h231l-12 -64l-69 -21l-58 -538l65 -9l-13 -68h-273l12 64l70 21l42 397l5 44h-3q-4 -19 -18 -44l-206 -405h-123l-12 15l-55 390q-3 27 0 45h-4
q-4 -25 -10 -45z" />
    <glyph glyph-name="afii10031" unicode="&#x41d;" horiz-adv-x="727" 
d="M215 77l65 -9l-13 -68h-273l12 64l69 21l106 538l-64 9l13 68h273l-13 -64l-69 -21l-42 -214h242l43 222l-64 9l13 68h273l-13 -64l-69 -21l-105 -538l64 -9l-13 -68h-273l13 64l69 21l43 224h-241z" />
    <glyph glyph-name="afii10032" unicode="&#x41e;" horiz-adv-x="653" 
d="M49 272q0 190 107 314.5t264 124.5q112 0 174 -71.5t62 -211.5q0 -190 -106.5 -314.5t-263.5 -124.5q-113 0 -175 72t-62 211zM196 249q0 -86 27 -124.5t88 -38.5q25 0 48.5 6t34.5 12l10 6q4 5 11 15t25.5 43t32 70t25 94.5t11.5 117.5q0 88 -26.5 126t-85.5 38
q-25 0 -49.5 -6t-35.5 -12l-12 -7q-4 -5 -11 -15t-25 -43.5t-32 -70.5t-25 -94.5t-11 -116.5z" />
    <glyph glyph-name="afii10033" unicode="&#x41f;" horiz-adv-x="727" 
d="M215 77l65 -9l-14 -68h-273l13 64l69 21l105 538l-63 9l12 68h656l-12 -64l-69 -21l-106 -538l65 -9l-14 -68h-272l12 64l69 21l102 522h-241z" />
    <glyph glyph-name="afii10034" unicode="&#x420;" horiz-adv-x="619" 
d="M216 79l79 -5l-14 -74h-287l12 64l69 21l106 538l-64 9l13 68h302q95 0 151 -46.5t56 -132.5q0 -106 -82 -173t-206 -67h-96zM382 607h-63l-45 -232h70q21 0 42 2.5t32 4.5l10 2q6 5 15.5 15.5t25.5 45.5t16 74q0 48 -24 68t-79 20z" />
    <glyph glyph-name="afii10035" unicode="&#x421;" horiz-adv-x="581" 
d="M509 490l-11 103q-33 21 -93 21q-29 0 -54.5 -6t-36.5 -12l-12 -7q-4 -5 -11 -15t-25.5 -43.5t-32 -70t-25 -93.5t-11.5 -116q0 -86 27.5 -125.5t88.5 -39.5q21 0 44 4.5t35 9.5l13 4l52 110h93l-49 -184q-96 -41 -201 -41q-121 0 -185.5 72t-64.5 214q0 190 107.5 313
t281.5 123q49 0 95 -10.5t67 -20.5l21 -10l-21 -180h-92z" />
    <glyph glyph-name="afii10036" unicode="&#x422;" horiz-adv-x="627" 
d="M358 77l64 -9l-14 -68h-273l13 64l70 21l101 522h-103l-53 -117h-93l55 210h567l-27 -210h-92l-8 117h-104z" />
    <glyph glyph-name="afii10037" unicode="&#x423;" horiz-adv-x="665" 
d="M279 171l-132 452l-63 9l12 68h296l-12 -64l-75 -19l64 -244q9 -33 10 -75h5q21 47 38 75l154 250l-62 9l13 68h229l-12 -64l-66 -21l-253 -391q-95 -146 -146.5 -190t-135.5 -44q-32 0 -60 4.5t-40 9.5l-12 4l45 121q50 -36 143 -36q27 21 60 78z" />
    <glyph glyph-name="afii10038" unicode="&#x424;" horiz-adv-x="779" 
d="M50 322q0 123 75 186t264 72l9 43l-64 9l13 68h273l-13 -64l-69 -21l-7 -35q75 -4 124.5 -18t77 -40t38 -59t10.5 -81q0 -124 -75.5 -189t-264.5 -74l-8 -42l64 -9l-13 -68h-273l13 64l69 21l7 35q-100 6 -155.5 31t-75 65t-19.5 106zM198 323q0 -50 27 -75t94 -32
l52 269q-31 -2 -58 -5.5t-39 -5.5l-11 -3q-7 -6 -18 -17.5t-29 -50t-18 -80.5zM633 376q0 51 -27.5 76t-93.5 32l-52 -270q32 2 58.5 5.5t37.5 6.5l11 3q7 6 18 17t29.5 49.5t18.5 80.5z" />
    <glyph glyph-name="afii10039" unicode="&#x425;" horiz-adv-x="687" 
d="M675 615l-218 -275l130 -263l62 -9l-13 -68h-303l12 64l77 19l-71 171q-15 34 -16 39h-4q-12 -20 -31 -41l-142 -175l62 -9l-14 -68h-238l12 64l72 21l232 282l-121 256l-61 9l13 68h303l-13 -64l-85 -19l75 -167l7 -15q6 -15 8 -25h4q12 21 28 42l126 171l-61 9l13 68
h238l-13 -64z" />
    <glyph glyph-name="afii10040" unicode="&#x426;" horiz-adv-x="722" 
d="M533 0h-540l13 64l69 21l105 538l-63 9l12 68h273l-13 -64l-69 -21l-102 -522h233l104 530l-64 9l12 68h273l-12 -64l-69 -21l-103 -522h76l-47 -245h-93z" />
    <glyph glyph-name="afii10041" unicode="&#x427;" horiz-adv-x="686" 
d="M304 615l-27 -140q-11 -54 9 -77.5t77 -23.5q31 0 60.5 6t42.5 12l14 7l43 224l-64 9l14 68h273l-13 -64l-70 -21l-105 -538l64 -9l-13 -68h-273l13 64l70 21l43 223q-64 -28 -151 -28q-98 0 -146.5 46t-31.5 135l32 162l-64 9l13 68h273l-13 -64z" />
    <glyph glyph-name="afii10042" unicode="&#x428;" horiz-adv-x="1045" 
d="M882 623l-64 9l13 68h273l-13 -64l-69 -21l-106 -538l65 -9l-13 -68h-975l13 64l69 21l105 538l-63 9l12 68h273l-13 -64l-69 -21l-102 -522h209l104 530l-64 9l13 68h273l-13 -64l-69 -21l-102 -522h209z" />
    <glyph glyph-name="afii10043" unicode="&#x429;" horiz-adv-x="1049" 
d="M860 0h-867l13 64l69 21l105 538l-63 9l12 68h273l-13 -64l-69 -21l-102 -522h209l104 530l-64 9l13 68h273l-13 -64l-69 -21l-102 -522h209l104 530l-64 9l13 68h273l-13 -64l-69 -21l-103 -522h76l-47 -245h-93z" />
    <glyph glyph-name="afii10044" unicode="&#x42a;" horiz-adv-x="761" 
d="M144 64l70 21l101 522h-100l-53 -117h-92l55 210h416l-13 -64l-70 -21l-40 -206h109q94 0 151 -44.5t57 -130.5q0 -104 -82 -169t-206 -65h-316zM476 315h-76l-43 -222h83q22 0 43 2.5t31 4.5l10 2q6 5 15.5 14.5t25.5 43t16 70.5q0 45 -25 65t-80 20z" />
    <glyph glyph-name="afii10045" unicode="&#x42b;" horiz-adv-x="921" 
d="M180 623l-63 9l12 68h273l-13 -64l-69 -21l-40 -206h109q94 0 150.5 -44.5t56.5 -130.5q0 -104 -81.5 -169t-205.5 -65h-316l13 64l69 21zM337 315h-75l-44 -222h83q22 0 43 2.5t32 4.5l10 2q6 5 15.5 14.5t25 43t15.5 70.5q0 46 -24.5 65.5t-80.5 19.5zM792 77l65 -9
l-14 -68h-273l13 64l69 21l106 538l-64 9l12 68h273l-12 -64l-70 -21z" />
    <glyph glyph-name="afii10046" unicode="&#x42c;" horiz-adv-x="623" 
d="M180 623l-63 9l12 68h273l-13 -64l-69 -21l-40 -206h109q94 0 150.5 -44.5t56.5 -130.5q0 -104 -81.5 -169t-205.5 -65h-316l13 64l69 21zM337 315h-75l-44 -222h83q22 0 43 2.5t32 4.5l10 2q6 5 15.5 14.5t25 43t15.5 70.5q0 46 -24.5 65.5t-80.5 19.5z" />
    <glyph glyph-name="afii10047" unicode="&#x42d;" horiz-adv-x="581" 
d="M125 210l10 -103q33 -21 93 -21q29 0 54.5 6t37.5 12l11 7q7 8 17.5 24t34.5 67.5t38 106.5h-113l-31 -78h-77l49 248h77v-78h110q2 32 2 49q0 85 -28 124.5t-89 39.5q-22 0 -45 -4.5t-36 -9.5l-12 -4l-53 -110h-92l50 184q96 41 200 41q119 0 185 -72t66 -216
q0 -188 -107.5 -311t-282.5 -123q-49 0 -95 10.5t-67 20.5l-21 10l21 180h93z" />
    <glyph glyph-name="afii10048" unicode="&#x42e;" horiz-adv-x="939" 
d="M364 271q0 25 1 38h-105l-45 -232l65 -9l-14 -68h-273l13 64l69 21l105 538l-63 9l12 68h273l-13 -64l-69 -21l-41 -214h100q32 139 125.5 224.5t214.5 85.5q106 0 166.5 -70.5t60.5 -209.5q0 -189 -103.5 -315.5t-252.5 -126.5q-105 0 -165.5 71.5t-60.5 210.5zM511 239
q0 -80 24.5 -116.5t77.5 -36.5q21 0 42 5t31 11l10 5q4 6 11 17.5t25 48.5t31.5 75.5t24.5 97t11 115.5q0 81 -23.5 117t-75.5 36q-21 0 -43 -5.5t-33 -10.5l-11 -6q-4 -6 -11 -17.5t-24.5 -48.5t-31 -76t-24.5 -96.5t-11 -114.5z" />
    <glyph glyph-name="afii10049" unicode="&#x42f;" horiz-adv-x="634" 
d="M506 77l64 -9l-13 -68h-273l13 64l69 21l42 216h-70l-194 -301h-177l14 68l66 9l163 236q-56 18 -87.5 57t-31.5 97q0 104 81.5 168.5t204.5 64.5h316l-13 -64l-69 -21zM351 395h75l42 212h-83q-22 0 -43 -2.5t-32 -4.5l-10 -2q-6 -4 -15 -12.5t-24 -40.5t-15 -70
q0 -42 25.5 -61t79.5 -19z" />
    <glyph glyph-name="afii10065" unicode="&#x430;" horiz-adv-x="564" 
d="M30 169q0 158 87 263t234 105q42 0 87.5 -9t69.5 -18l25 -9l-76 -388q-6 -30 26 -21q20 5 44 20l8 -63q-6 -6 -16.5 -15.5t-44.5 -25t-68 -15.5q-24 0 -36 8.5t-16.5 35.5t8.5 76l2 10h-7q-24 -65 -76 -99t-115 -34q-69 0 -102.5 42.5t-33.5 136.5zM288 103q44 72 71 212
l22 119q-30 10 -65 10q-22 0 -42 -5t-29 -9l-9 -5q-3 -4 -7.5 -11.5t-16.5 -33t-21 -52.5t-16.5 -69t-7.5 -85q0 -50 12 -71t42 -21q16 0 33 5t26 11z" />
    <glyph glyph-name="afii10066" unicode="&#x431;" horiz-adv-x="562" 
d="M233 574q-28 -42 -47 -131l3 1q79 87 180 87q74 0 123.5 -49.5t49.5 -148.5q0 -85 -35.5 -162t-109 -129t-168.5 -52q-188 0 -188 211q0 74 16 164q10 56 24 102t29.5 80.5t36 61.5t39 45t44.5 32t46.5 21t49.5 13t50 8.5t52 6.5t51 7q20 11 30 26l59 -30
q-23 -49 -70.5 -76.5t-94 -35t-97 -20t-73.5 -32.5zM327 444q-61 0 -110 -49q-35 -97 -35 -193q0 -64 19 -92t62 -28q16 0 33 4t26 8l8 4q8 13 20 37t31.5 90t19.5 124q0 95 -74 95z" />
    <glyph glyph-name="afii10067" unicode="&#x432;" horiz-adv-x="519" 
d="M42 186q0 144 90.5 247.5t224.5 103.5q73 0 110 -32t37 -87q0 -89 -95 -142q78 -25 78 -100q0 -76 -71.5 -131t-180.5 -55q-193 0 -193 196zM348 166q0 63 -70 68q-44 -8 -93 -9v-24q0 -65 19.5 -92t62.5 -27q14 0 29 3t22 5l8 3q22 35 22 73zM253 429q-38 -47 -58 -130
q81 4 125 30.5t44 70.5t-45 44q-13 0 -29.5 -4t-26.5 -8z" />
    <glyph glyph-name="afii10068" unicode="&#x433;" horiz-adv-x="455" 
d="M32 129q0 47 27 81t66 53.5t77.5 36t65.5 38.5t27 51q0 25 -18.5 40.5t-54.5 15.5q-25 0 -54.5 -7.5t-46.5 -15.5l-17 -7l-11 68q8 6 22.5 15t61.5 23.5t95 14.5q83 0 125.5 -37t42.5 -96q0 -45 -27 -79t-66 -53.5t-78 -37t-66 -40.5t-27 -52q0 -26 21 -43t62 -17
q27 0 59 7.5t50 15.5l19 7l11 -68q-9 -6 -24.5 -15t-65 -23.5t-100.5 -14.5q-86 0 -131 38.5t-45 100.5z" />
    <glyph glyph-name="afii10069" unicode="&#x434;" horiz-adv-x="535" 
d="M139 708l22 51q8 0 21 -1t50.5 -8.5t72 -21t76.5 -43t72.5 -69.5t51 -105.5t20.5 -146.5q0 -164 -79.5 -269t-227.5 -105q-97 0 -141 50t-44 154q0 152 79.5 243.5t193.5 91.5q28 0 58 -7q-17 50 -46.5 88t-59.5 55.5t-57.5 28.5t-44.5 12zM387 367q0 2 -3 56
q-30 21 -73 21q-19 0 -37 -4t-27 -8l-9 -4q-7 -10 -17.5 -29.5t-28 -81t-17.5 -125.5q0 -55 17 -82.5t59 -27.5q16 0 32.5 4t24.5 8l8 4q3 4 7.5 11.5t17 33t22 54.5t17 75t7.5 95z" />
    <glyph glyph-name="afii10070" unicode="&#x435;" horiz-adv-x="485" 
d="M489 414q0 -88 -80 -142t-230 -57q1 -68 25.5 -99t75.5 -31q28 0 60.5 7.5t51.5 15.5l19 7l11 -72q-9 -6 -25 -15t-65.5 -23.5t-97.5 -14.5q-98 0 -149 57.5t-51 159.5q0 137 85.5 233.5t220.5 96.5q149 0 149 -123zM238 429q-40 -49 -54 -138q85 4 125.5 32t40.5 73
q0 48 -48 48q-14 0 -30 -4t-25 -8z" />
    <glyph glyph-name="afii10072" unicode="&#x436;" horiz-adv-x="815" 
d="M-17 44l34 61q2 -2 5.5 -4t14 -6.5t20 -5.5t21 5t20.5 19l130 204q-9 38 -19 67.5t-16 39.5l-6 10q-16 4 -33 4q-16 0 -31 -5t-22 -11l-7 -5l22 110q22 10 62 10q64 0 97 -46.5t47 -175.5h36l43 210l130 1l-42 -211h36q65 123 122.5 172.5t116.5 49.5q15 0 28.5 -2.5
t19.5 -4.5l6 -3l-20 -110q-15 21 -50 21l-34 -4q-40 -35 -100 -131l65 -192q7 -20 26.5 -21.5t36.5 6.5l16 9l9 -61q-5 -6 -15 -14.5t-40 -23t-61 -14.5q-78 0 -99 77l-47 158h-33l-45 -227h-132l46 227h-34l-93 -158q-23 -43 -61 -60t-74 -17q-32 0 -56 13t-32 26z" />
    <glyph glyph-name="afii10073" unicode="&#x437;" horiz-adv-x="500" 
d="M212 82q24 0 43.5 2.5t26.5 5.5l8 2q29 28 29 77q0 31 -16.5 45t-52.5 14h-55l-10 13l14 72h59q19 0 35 2.5t23 4.5l6 2q21 28 21 66q0 57 -73 57q-16 0 -30 -2.5t-20 -4.5l-5 -3l-33 -80h-100l28 145q76 37 189 37q89 0 136 -30.5t47 -87.5q0 -44 -26.5 -83.5
t-66.5 -60.5q69 -33 69 -110q0 -82 -64.5 -128.5t-199.5 -46.5q-59 0 -104 9t-61 19l-16 9l28 144h100l2 -78q13 -11 69 -11z" />
    <glyph glyph-name="afii10074" unicode="&#x438;" horiz-adv-x="602" 
d="M52 452l11 64q79 18 133 18q48 0 63 -19t8 -55l-54 -274q-11 -58 -2.5 -81t41.5 -23q17 0 35.5 5t28.5 9l10 5q45 74 70 214l42 211h137l-80 -413q-6 -31 26 -21q20 5 43 20l8 -63q-6 -6 -16.5 -15.5t-44 -25t-68.5 -15.5q-36 0 -46.5 22t2.5 98l2 10h-8
q-25 -60 -84 -96.5t-129 -36.5q-75 0 -99 50.5t-2 164.5l43 213q5 25 -4 29.5t-66 4.5z" />
    <glyph glyph-name="afii10075" unicode="&#x439;" horiz-adv-x="602" 
d="M52 452l11 64q79 18 133 18q48 0 63 -19t8 -55l-54 -274q-11 -58 -2.5 -81t41.5 -23q17 0 35.5 5t28.5 9l10 5q45 74 70 214l42 211h137l-80 -413q-6 -31 26 -21q20 5 43 20l8 -63q-6 -6 -16.5 -15.5t-44 -25t-68.5 -15.5q-36 0 -46.5 22t2.5 98l2 10h-8
q-25 -60 -84 -96.5t-129 -36.5q-75 0 -99 50.5t-2 164.5l43 213q5 25 -4 29.5t-66 4.5zM349 596q-40 0 -69.5 13.5t-42.5 32t-20.5 37.5t-8.5 33v13l94 8q0 -34 12.5 -52.5t47.5 -18.5q65 0 88 71l90 -8q-1 -5 -4.5 -14t-18 -31t-33.5 -39t-55 -31t-80 -14z" />
    <glyph glyph-name="afii10076" unicode="&#x43a;" horiz-adv-x="562" 
d="M520 107l9 -63q-5 -6 -15 -14.5t-39.5 -23t-59.5 -14.5q-75 0 -102 77l-62 158h-30l-45 -227h-138l84 418q5 25 -4 29.5t-66 4.5l11 64q80 18 133 18q48 0 63 -19t8 -55l-29 -145h34q64 123 122.5 172.5t117.5 49.5q15 0 29 -2.5t20 -4.5l6 -3l-20 -110q-16 21 -50 21
l-34 -4q-42 -35 -101 -129l79 -192q8 -19 27.5 -20.5t35.5 6.5z" />
    <glyph glyph-name="afii10077" unicode="&#x43b;" horiz-adv-x="602" 
d="M351 87l70 354h-113q-48 -243 -110.5 -347t-151.5 -104q-15 0 -32.5 2.5t-27.5 5.5l-10 2l35 110q23 -19 82 -19q3 3 7.5 9t18 33.5t27 64.5t32.5 105t35 151l-55 8l12 64h404l-79 -413q-6 -28 26 -20q20 5 44 19l8 -63q-6 -6 -18 -15.5t-51.5 -25.5t-80.5 -16
q-46 0 -64 21.5t-8 73.5z" />
    <glyph glyph-name="afii10078" unicode="&#x43c;" horiz-adv-x="772" 
d="M531 87l27 240q5 42 13 73h-6q-19 -57 -26 -73l-130 -279h-119l-10 12l-25 267q-4 45 1 73h-5l-15 -73q-46 -201 -81 -269t-104 -68q-15 0 -31.5 2.5t-25.5 5.5l-9 2l34 113q0 -1 5 -4t19.5 -6.5t34.5 -3.5q3 3 9.5 16t31.5 102t56 237l-54 8l13 64h219l31 -268
q4 -57 3 -81h5q15 44 33 81l133 268h158l-45 -415q0 -22 16.5 -22t36.5 11l20 12l9 -63q-6 -6 -18 -15.5t-51.5 -25.5t-80.5 -16q-45 0 -61 21t-11 74z" />
    <glyph glyph-name="afii10079" unicode="&#x43d;" horiz-adv-x="606" 
d="M443 526h136l-81 -413q-5 -27 24 -21q20 4 46 20l8 -63q-6 -6 -18 -15.5t-51 -25.5t-80 -16q-47 0 -64.5 21.5t-7.5 73.5l27 135h-162l-44 -222h-138l84 418q5 25 -4 29.5t-66 4.5l11 64q80 18 133 18q48 0 63 -19t8 -55l-30 -150h162z" />
    <glyph glyph-name="afii10080" unicode="&#x43e;" horiz-adv-x="542" 
d="M34 196q0 149 88.5 245t223.5 96q183 0 183 -202q0 -150 -88.5 -247.5t-222.5 -97.5q-184 0 -184 206zM176 203q0 -121 77 -121q16 0 33 4t26 8l9 3q3 3 7.5 9.5t15.5 28t20 45.5t16 62.5t7 79.5q0 122 -77 122q-15 0 -32 -3.5t-27 -6.5l-10 -4q-7 -10 -18 -29t-29 -78
t-18 -120z" />
    <glyph glyph-name="afii10081" unicode="&#x43f;" horiz-adv-x="606" 
d="M568 112l8 -63q-6 -6 -18 -15.5t-51 -25.5t-80 -16q-47 0 -64.5 21.5t-7.5 73.5l51 253q11 56 2 80t-43 24q-18 0 -36.5 -5t-28.5 -10l-10 -5q-45 -73 -70 -213l-41 -211h-138l81 418q4 26 -4.5 30t-65.5 4l11 64q49 18 107 18q43 0 53 -20t-4 -86l-6 -25h8
q27 62 88.5 98t129.5 36q75 0 99 -51t2 -164l-40 -201q-4 -22 13 -24t36 7z" />
    <glyph glyph-name="afii10082" unicode="&#x440;" horiz-adv-x="574" 
d="M12 -149l110 566q4 26 -4.5 30t-65.5 4l11 65q49 18 107 18q43 0 53 -20t-4 -86l-6 -25h7q23 61 76 97.5t120 36.5q69 0 104 -42t35 -135q0 -156 -88.5 -263t-222.5 -107q-34 0 -67 7l-30 -154l84 -9l-13 -64h-278l12 60zM220 211l-22 -112q34 -17 72 -17q19 0 38 5t28 9
l10 5q8 11 19.5 31.5t31 85.5t19.5 132q0 52 -12.5 73t-44.5 21q-16 0 -33.5 -5t-27.5 -9l-9 -5q-43 -74 -69 -214z" />
    <glyph glyph-name="afii10083" unicode="&#x441;" horiz-adv-x="493" 
d="M368 355l-2 78q-11 11 -50 11q-21 0 -40 -4t-28 -8l-8 -4q-7 -8 -17 -24t-27 -70.5t-17 -114.5q0 -72 24.5 -103t77.5 -31q28 0 60.5 7.5t50.5 15.5l19 7l11 -72q-9 -6 -25 -15t-65 -23.5t-97 -14.5q-98 0 -149.5 55.5t-51.5 157.5q0 137 85 235.5t220 98.5
q46 0 85 -11.5t55 -23.5l16 -12l-26 -135h-101z" />
    <glyph glyph-name="afii10084" unicode="&#x442;" horiz-adv-x="888" 
d="M467 0h-138l69 340q11 56 2.5 80t-41.5 24q-17 0 -34.5 -5t-26.5 -10l-8 -5q-44 -71 -70 -208l-41 -216h-138l81 418q4 26 -4.5 30t-65.5 4l11 64q49 18 107 18q43 0 53 -20t-4 -86l-6 -25h8q25 62 85 98t126 36q94 0 106 -91q33 42 83 66.5t102 24.5q75 0 98.5 -51
t0.5 -164l-41 -209q-6 -29 27 -20q19 5 42 19l8 -63q-6 -6 -18 -15.5t-51 -25.5t-80 -16q-47 0 -64.5 21.5t-7.5 73.5l51 253q11 56 2.5 80t-41.5 24q-17 0 -34 -5t-26 -10l-9 -5q-39 -59 -69 -207z" />
    <glyph glyph-name="afii10085" unicode="&#x443;" horiz-adv-x="569" 
d="M-85 -229l21 108q34 -30 103 -30q15 0 30.5 2t22.5 4l8 2q37 33 88 110l-73 451q-2 12 -4 16.5t-5 9.5t-14 6t-21.5 1.5t-38.5 0.5l12 64q50 18 104 18q89 0 97 -74l44 -366q60 97 103.5 190.5t43.5 134.5q0 21 -14.5 28.5t-50.5 8.5l10 60q54 18 102 18q81 0 81 -71
q0 -59 -61 -191t-179 -285q-101 -132 -169.5 -179.5t-143.5 -47.5q-28 0 -52 3t-34 5z" />
    <glyph glyph-name="afii10086" unicode="&#x444;" horiz-adv-x="771" 
d="M30 167q0 157 80.5 263.5t211.5 106.5q25 0 52 -5l21 110q5 26 -3 30t-66 4l11 63q79 19 133 19q48 0 63 -19.5t8 -55.5l-14 -71q-4 -20 -21.5 -73.5t-24.5 -89.5h6q14 34 57 61t92 27q116 0 116 -177q0 -157 -81 -263.5t-212 -106.5q-27 0 -52 5l-30 -152l54 -9l-12 -64
h-249l12 60l60 21l11 55q6 31 24.5 94t22.5 77h-7q-14 -34 -56.5 -60.5t-90.5 -26.5q-116 0 -116 177zM273 101q31 64 54 186l5 28l23 119q-27 10 -56 10q-19 0 -36 -5t-25 -9l-7 -5q-7 -11 -17.5 -32t-28.5 -87t-18 -135q0 -48 10.5 -68.5t36.5 -20.5q14 0 28.5 5t22.5 9z
M450 211l-24 -119q22 -10 55 -10q19 0 36.5 5t25.5 9l8 5q7 11 17.5 31.5t28 86.5t17.5 135q0 50 -10 70t-37 20q-14 0 -28.5 -5t-21.5 -10l-7 -5q-37 -73 -60 -213z" />
    <glyph glyph-name="afii10087" unicode="&#x445;" horiz-adv-x="544" 
d="M496 107l9 -63q-5 -6 -15 -14.5t-40 -23t-59 -14.5q-71 0 -100 77l-42 115q-56 -108 -104.5 -151t-107.5 -43q-16 0 -29 2.5t-18 5.5l-6 2l19 109q17 -21 49 -21l32 4q55 60 128 192l-49 136q-7 19 -17 22t-59 3l-6 60q37 27 100 27q84 0 111 -75l32 -89q50 94 93 131.5
t96 37.5q16 0 29.5 -2.5t19.5 -4.5l6 -3l-20 -110q-16 21 -48 21l-32 -4q-42 -53 -107 -168l56 -153q7 -19 26.5 -20.5t36.5 6.5z" />
    <glyph glyph-name="afii10088" unicode="&#x446;" horiz-adv-x="618" 
d="M52 452l11 64q79 18 133 18q48 0 63 -19t8 -55l-54 -274q-11 -58 -2.5 -81t41.5 -23q17 0 35.5 5t28.5 9l10 5q45 74 70 214l42 211h137l-80 -413q-3 -17 4.5 -22t21.5 0.5t24 10t17 9.5q1 0 2 1l43 -9q-19 -31 -26 -63t-7 -56.5t-4 -50t-24.5 -53t-60.5 -55.5l-43 9
q19 30 26.5 57.5t8.5 60.5t3 45q-24 -4 -37 -4q-36 0 -46.5 22t2.5 98l2 10h-8q-25 -60 -84 -96.5t-129 -36.5q-75 0 -99 50.5t-2 164.5l43 213q5 25 -4 29.5t-66 4.5z" />
    <glyph glyph-name="afii10089" unicode="&#x447;" horiz-adv-x="574" 
d="M325 87l27 137q-76 -37 -148 -37q-70 0 -99.5 40.5t-13.5 119.5l15 71q5 25 -4 29.5t-66 4.5l11 64q79 18 133 18q48 0 62.5 -19t7.5 -55l-20 -106q-7 -41 4 -56.5t48 -15.5q48 0 85 20l44 224h137l-80 -413q-5 -27 24 -21q20 4 46 20l8 -63q-6 -6 -18 -15.5t-51 -25.5
t-80 -16q-47 0 -64.5 21.5t-7.5 73.5z" />
    <glyph glyph-name="afii10090" unicode="&#x448;" horiz-adv-x="888" 
d="M436 526h137l-68 -340q-11 -56 -2.5 -80t41.5 -24q17 0 34.5 5t25.5 10l9 5q44 72 69 208l7 -141l-6 146l42 211h137l-80 -413q-6 -30 26 -21q20 5 44 20l8 -63q-6 -6 -16.5 -15.5t-44.5 -25t-68 -15.5q-35 0 -45.5 23.5t0.5 96.5l2 10h-7q-25 -62 -84.5 -97.5
t-125.5 -35.5q-49 0 -74.5 22t-31.5 68q-34 -42 -83.5 -66t-101.5 -24q-74 0 -98 51t-2 164l44 214q5 25 -3.5 29.5t-65.5 4.5l11 63q79 19 133 19q48 0 62.5 -19.5t7.5 -55.5l-54 -274q-12 -56 -3 -80t42 -24q17 0 34 5t26 10l9 5q38 59 69 207z" />
    <glyph glyph-name="afii10091" unicode="&#x449;" horiz-adv-x="904" 
d="M55 453l11 63q79 19 133 19q48 0 62.5 -19.5t7.5 -55.5l-54 -274q-12 -56 -3 -80t42 -24q17 0 34 5t26 10l9 5q38 59 69 207l44 217h137l-68 -340q-11 -56 -2.5 -80t41.5 -24q17 0 34.5 5t25.5 10l9 5q44 72 69 208l7 -141l-6 146l42 211h137l-80 -413q-3 -17 4.5 -22
t23 1t23.5 10t17 9q1 0 2 1l42 -9q-23 -37 -29.5 -77.5t-4.5 -68t-18 -63t-69 -69.5l-44 9q19 30 26.5 57.5t8.5 60.5t3 45q-24 -4 -36 -4q-35 0 -45.5 23.5t0.5 96.5l2 10h-7q-25 -62 -84.5 -97.5t-125.5 -35.5q-49 0 -74.5 22t-31.5 68q-34 -42 -83.5 -66t-101.5 -24
q-74 0 -98 51t-2 164l44 214q5 25 -3.5 29.5t-65.5 4.5z" />
    <glyph glyph-name="afii10092" unicode="&#x44a;" horiz-adv-x="562" 
d="M41 416l-29 31q2 3 5 8.5t14 20t23.5 25t32.5 19.5t41 9q22 0 64 -13t59 -13l44 23h62q-62 -101 -97 -216q51 18 114 18q161 0 161 -134q0 -87 -64 -145.5t-180 -58.5q-195 0 -195 183q0 129 91 247h-5q-21 0 -54 11.5t-48 11.5zM318 243q-36 0 -76 -10q-5 -26 -5 -61
q0 -47 17 -68.5t59 -21.5q16 0 31 2.5t22 5.5l7 2q24 37 24 83q0 36 -19 52t-60 16z" />
    <glyph glyph-name="afii10093" unicode="&#x44b;" horiz-adv-x="799" 
d="M50 452l11 64q79 18 133 18q48 0 63 -19t8 -55l-30 -149q44 17 106 17q161 0 161 -135q0 -87 -65 -145t-186 -58q-217 0 -178 197l46 231q5 25 -3.5 29.5t-65.5 4.5zM545 452l11 64q79 18 133 18q48 0 62.5 -19t7.5 -55l-68 -347q-5 -27 24 -21q20 4 46 20l8 -63
q-6 -6 -18 -15.5t-51 -25.5t-80 -16q-47 0 -64.5 21.5t-7.5 73.5l66 331q5 25 -3.5 29.5t-65.5 4.5zM285 243q-28 0 -65 -8l-11 -57q-10 -50 5 -73t63 -23q17 0 33 2.5t23 5.5l7 2q24 37 24 83q0 36 -19 52t-60 16z" />
    <glyph glyph-name="afii10094" unicode="&#x44c;" horiz-adv-x="529" 
d="M50 452l11 64q79 18 133 18q48 0 63 -19t8 -55l-30 -149q44 17 105 17q162 0 162 -135q0 -87 -65 -145t-186 -58q-217 0 -178 197l46 231q5 25 -3.5 29.5t-65.5 4.5zM285 243q-28 0 -65 -8l-11 -57q-10 -50 5 -73t63 -23q17 0 33 2.5t23 5.5l7 2q24 37 24 83q0 36 -19 52
t-60 16z" />
    <glyph glyph-name="afii10095" unicode="&#x44d;" horiz-adv-x="496" 
d="M176 226l17 85h152v13q0 67 -22.5 94t-65.5 27q-14 0 -26.5 -2.5t-18.5 -4.5l-6 -3l-32 -80h-101l29 145q77 37 179 37q207 0 207 -208q0 -143 -86.5 -241t-234.5 -98q-44 0 -83.5 9t-56.5 19l-17 9l28 144h100l2 -78q17 -11 56 -11q21 0 42 4t31 8l10 5q35 51 54 127
h-157z" />
    <glyph glyph-name="afii10096" unicode="&#x44e;" horiz-adv-x="779" 
d="M299 194q0 18 1 28h-80l-44 -222h-138l84 418q5 25 -4 29.5t-66 4.5l11 64q80 18 133 18q48 0 63 -19t8 -55l-30 -150h77q29 104 104.5 165.5t176.5 61.5q172 0 172 -202q0 -150 -83.5 -247.5t-210.5 -97.5q-174 0 -174 204zM440 204q0 -122 67 -122q12 0 26.5 4t22.5 8
l8 3q7 9 17.5 26.5t27.5 76.5t17 124q0 120 -65 120q-12 0 -27 -3.5t-24 -6.5l-9 -4q-7 -9 -17 -27t-27 -77t-17 -122z" />
    <glyph glyph-name="afii10097" unicode="&#x44f;" horiz-adv-x="562" 
d="M312 87l26 133h-64q-49 -132 -97 -181t-120 -49q-20 0 -38.5 2.5t-26.5 5.5l-9 2l36 110q21 -19 70 -19q29 23 77 143q-89 31 -89 119q0 77 69 125t176 48h213l-79 -413q-6 -29 27 -20q19 5 42 19l8 -63q-6 -6 -18 -15.5t-51 -25.5t-80 -16q-47 0 -64.5 21.5t-7.5 73.5z
M215 361q0 -29 17 -42.5t55 -13.5h68l27 136h-69q-22 0 -40.5 -2.5t-25.5 -4.5l-7 -2q-25 -27 -25 -71z" />
    <glyph glyph-name="uni0450" unicode="&#x450;" horiz-adv-x="485" 
d="M489 414q0 -88 -80 -142t-230 -57q1 -68 25.5 -99t75.5 -31q28 0 60.5 7.5t51.5 15.5l19 7l11 -72q-9 -6 -25 -15t-65.5 -23.5t-97.5 -14.5q-98 0 -149 57.5t-51 159.5q0 137 85.5 233.5t220.5 96.5q149 0 149 -123zM169 679l100 85l104 -169l-63 -26zM238 429
q-40 -49 -54 -138q85 4 125.5 32t40.5 73q0 48 -48 48q-14 0 -30 -4t-25 -8z" />
    <glyph glyph-name="afii10071" unicode="&#x451;" horiz-adv-x="485" 
d="M489 414q0 -88 -80 -142t-230 -57q1 -68 25.5 -99t75.5 -31q28 0 60.5 7.5t51.5 15.5l19 7l11 -72q-9 -6 -25 -15t-65.5 -23.5t-97.5 -14.5q-98 0 -149 57.5t-51 159.5q0 137 85.5 233.5t220.5 96.5q149 0 149 -123zM238 429q-40 -49 -54 -138q85 4 125.5 32t40.5 73
q0 48 -48 48q-14 0 -30 -4t-25 -8zM374 654q0 34 23.5 56.5t56.5 22.5q25 0 40 -14.5t15 -39.5q0 -33 -23.5 -55.5t-57.5 -22.5q-25 0 -39.5 14.5t-14.5 38.5zM174 654q0 34 23 56.5t56 22.5q25 0 40 -14.5t15 -39.5q0 -33 -23.5 -55.5t-56.5 -22.5q-25 0 -39.5 14.5
t-14.5 38.5z" />
    <glyph glyph-name="afii10099" unicode="&#x452;" horiz-adv-x="576" 
d="M329 0l68 340q11 57 2.5 80.5t-42.5 23.5q-18 0 -37 -5t-28 -10l-10 -5q-44 -73 -71 -213l-41 -211h-138l115 587h-56l14 68l67 17l35 78h110l-16 -78h144l-17 -85h-148l-5 -24q-4 -19 -16 -56.5t-17 -57.5h6q17 36 75.5 62t114.5 26q69 0 93 -49t0 -167l-64 -321
q-26 -130 -85 -185t-160 -55q-23 0 -45.5 2.5t-33.5 5.5l-11 2l32 97q35 -18 75 -18q12 0 22.5 2t14.5 4l5 2q27 33 48 143z" />
    <glyph glyph-name="afii10100" unicode="&#x453;" horiz-adv-x="466" 
d="M199 595l170 169l68 -85l-185 -110zM43 129q0 47 27 81t65.5 53.5t77.5 36t66 38.5t27 51q0 25 -18 40.5t-55 15.5q-25 0 -54.5 -7.5t-46.5 -15.5l-17 -7l-11 68q8 6 22.5 15t61.5 23.5t95 14.5q83 0 125.5 -37t42.5 -96q0 -45 -27 -79t-65.5 -53.5t-77.5 -37t-66 -40.5
t-27 -52q0 -27 20.5 -43.5t61.5 -16.5q27 0 59.5 7.5t50.5 15.5l19 7l11 -68q-9 -6 -24.5 -15t-65.5 -23.5t-100 -14.5q-87 0 -132 38.5t-45 100.5z" />
    <glyph glyph-name="afii10101" unicode="&#x454;" horiz-adv-x="493" 
d="M368 355l-2 78q-11 11 -50 11q-21 0 -40 -4t-28 -8l-8 -4q-34 -43 -51 -118h204l-16 -84h-198v-7q0 -72 24.5 -103t77.5 -31q28 0 60.5 7.5t50.5 15.5l19 7l11 -72q-9 -6 -25 -15t-65 -23.5t-97 -14.5q-98 0 -149.5 55.5t-51.5 157.5q0 137 85 235.5t220 98.5
q46 0 85 -11.5t55 -23.5l16 -12l-26 -135h-101z" />
    <glyph glyph-name="afii10102" unicode="&#x455;" horiz-adv-x="478" 
d="M309 140q0 30 -23 46.5t-69 30.5q-30 8 -49.5 16.5t-42.5 24.5t-34.5 41t-11.5 60q0 73 55 125.5t172 52.5q34 0 62.5 -5t45.5 -11.5t29.5 -13.5t16.5 -12l5 -5l-25 -132h-100l-2 79q-15 12 -54 12q-15 0 -31.5 -2.5t-26.5 -4.5l-9 -2q-16 -22 -16 -50q0 -32 24.5 -49
t76.5 -32q29 -8 47.5 -16t40 -23t32 -39t10.5 -58q0 -77 -60 -130.5t-187 -53.5q-58 0 -100 12t-55 23l-13 12l26 133h101l1 -79q18 -11 66 -11q19 0 39.5 2t31.5 4l10 2q17 25 17 53z" />
    <glyph glyph-name="afii10103" unicode="&#x456;" horiz-adv-x="307" 
d="M52 452l11 64q80 18 133 18q48 0 63 -19t8 -55l-68 -347q-6 -28 26 -20q20 5 44 19l8 -63q-6 -6 -18 -15.5t-51.5 -25.5t-80.5 -16q-46 0 -63.5 21.5t-7.5 73.5l66 331q5 25 -4 29.5t-66 4.5zM138 665q0 42 30.5 70.5t74.5 28.5q34 0 53.5 -19t19.5 -52q0 -42 -31 -70.5
t-74 -28.5q-34 0 -53.5 19t-19.5 52z" />
    <glyph glyph-name="afii10104" unicode="&#x457;" horiz-adv-x="307" 
d="M72 654q0 34 23.5 56.5t56.5 22.5q25 0 39.5 -14.5t14.5 -39.5q0 -33 -23.5 -55.5t-56.5 -22.5q-25 0 -39.5 14.5t-14.5 38.5zM249 654q0 34 23.5 56.5t56.5 22.5q25 0 39.5 -14.5t14.5 -39.5q0 -33 -23.5 -55.5t-56.5 -22.5q-25 0 -39.5 14.5t-14.5 38.5zM51 453l11 63
q79 18 133 18q48 0 63 -19t8 -55l-67 -347q-6 -28 26 -20q20 5 44 19l8 -63q-6 -6 -18 -15.5t-51.5 -25.5t-80.5 -16q-46 0 -63.5 21.5t-7.5 73.5l64 332q5 25 -3.5 29.5t-65.5 4.5z" />
    <glyph glyph-name="afii10105" unicode="&#x458;" horiz-adv-x="284" 
d="M138 663q0 44 30.5 72.5t74.5 28.5q33 0 53 -19t20 -50q0 -44 -30.5 -72.5t-75.5 -28.5q-33 0 -52.5 19t-19.5 50zM52 452l11 64q80 18 133 18q48 0 63 -19t8 -55l-90 -460q-26 -130 -85 -185t-160 -55q-23 0 -45.5 2.5t-33.5 5.5l-11 2l32 97q36 -18 76 -18q12 0 22.5 2
t15.5 4l4 2q26 33 48 143l82 418q4 26 -4.5 30t-65.5 4z" />
    <glyph glyph-name="afii10106" unicode="&#x459;" horiz-adv-x="827" 
d="M371 187l50 254h-113q-48 -243 -110.5 -347t-151.5 -104q-15 0 -32.5 2.5t-27.5 5.5l-10 2l35 110q23 -19 82 -19q3 3 7.5 9t18 33.5t27 64.5t32.5 105t35 151l-55 8l12 64h404l-42 -215q44 17 106 17q162 0 162 -135q0 -87 -65 -145t-186 -58q-217 0 -178 197zM583 243
q-28 0 -65 -8l-11 -57q-9 -50 5.5 -73t62.5 -23q17 0 33 2.5t23 5.5l7 2q24 37 24 83q0 36 -19 52t-60 16z" />
    <glyph glyph-name="afii10107" unicode="&#x45a;" horiz-adv-x="824" 
d="M368 187l7 35h-155l-44 -222h-138l84 418q5 25 -4 29.5t-66 4.5l11 64q80 18 133 18q48 0 63 -19t8 -55l-30 -150h155l44 216h136l-42 -215q41 17 105 17q162 0 162 -135q0 -87 -65 -145t-186 -58q-217 0 -178 197zM580 243q-37 0 -65 -8l-11 -57q-9 -50 5.5 -73
t62.5 -23q17 0 33 2.5t23 5.5l7 2q24 37 24 83q0 36 -19 52t-60 16z" />
    <glyph glyph-name="afii10108" unicode="&#x45b;" horiz-adv-x="597" 
d="M32 0l115 587h-56l14 68l67 17l35 78h110l-16 -78h144l-17 -85h-148l-5 -24q-4 -19 -16 -56.5t-17 -57.5h6q17 36 75.5 62t114.5 26q69 0 93 -49t0 -166l-42 -209q-5 -27 24 -21q20 4 46 20l8 -63q-6 -6 -18 -15.5t-51 -25.5t-80 -16q-47 0 -64.5 21.5t-7.5 73.5l51 253
q11 57 2.5 80.5t-42.5 23.5q-18 0 -37 -5t-28 -10l-10 -5q-44 -73 -71 -213l-41 -211h-138z" />
    <glyph glyph-name="afii10109" unicode="&#x45c;" horiz-adv-x="562" 
d="M520 107l9 -63q-5 -6 -15 -14.5t-39.5 -23t-59.5 -14.5q-75 0 -102 77l-62 158h-30l-45 -227h-138l84 418q5 25 -4 29.5t-66 4.5l11 64q80 18 133 18q48 0 63 -19t8 -55l-29 -145h34q64 123 122.5 172.5t117.5 49.5q15 0 29 -2.5t20 -4.5l6 -3l-20 -110q-16 21 -50 21
l-34 -4q-42 -35 -101 -129l79 -192q8 -19 27.5 -20.5t35.5 6.5zM261 595l170 169l68 -85l-184 -110z" />
    <glyph glyph-name="uni045D" unicode="&#x45d;" horiz-adv-x="602" 
d="M52 452l11 64q79 18 133 18q48 0 63 -19t8 -55l-54 -274q-11 -58 -2.5 -81t41.5 -23q17 0 35.5 5t28.5 9l10 5q45 74 70 214l42 211h137l-80 -413q-6 -31 26 -21q20 5 43 20l8 -63q-6 -6 -16.5 -15.5t-44 -25t-68.5 -15.5q-36 0 -46.5 22t2.5 98l2 10h-8
q-25 -60 -84 -96.5t-129 -36.5q-75 0 -99 50.5t-2 164.5l43 213q5 25 -4 29.5t-66 4.5zM205 679l100 85l104 -169l-63 -26z" />
    <glyph glyph-name="afii10110" unicode="&#x45e;" horiz-adv-x="569" 
d="M-85 -229l21 108q34 -30 103 -30q15 0 30.5 2t22.5 4l8 2q37 33 88 110l-73 451q-2 12 -4 16.5t-5 9.5t-14 6t-21.5 1.5t-38.5 0.5l12 64q50 18 104 18q89 0 97 -74l44 -366q60 97 103.5 190.5t43.5 134.5q0 21 -14.5 28.5t-50.5 8.5l10 60q54 18 102 18q81 0 81 -71
q0 -59 -61 -191t-179 -285q-101 -132 -169.5 -179.5t-143.5 -47.5q-28 0 -52 3t-34 5zM320 596q-40 0 -69.5 13.5t-42.5 32t-20.5 37.5t-7.5 33l-1 13l94 8q0 -34 12.5 -52.5t47.5 -18.5q65 0 88 71l90 -8q-1 -5 -4.5 -14t-18 -31t-33.5 -39t-55 -31t-80 -14z" />
    <glyph glyph-name="afii10193" unicode="&#x45f;" horiz-adv-x="602" 
d="M52 452l11 64q79 18 133 18q48 0 63 -19t8 -55l-54 -274q-11 -58 -2.5 -81t41.5 -23q17 0 35.5 5t28.5 9l10 5q45 74 70 214l42 211h137l-80 -413q-6 -31 26 -21q20 5 43 20l8 -63q-6 -6 -16.5 -15.5t-44 -25t-68.5 -15.5q-36 0 -46.5 22t2.5 98l2 10h-8q-18 -43 -53 -73
q-13 -29 -16.5 -61.5t-3.5 -53t-20 -49.5t-66 -61l-43 9q21 33 28 62t7.5 56.5t5.5 43.5q-26 -6 -52 -6q-75 0 -99 50.5t-2 164.5l43 213q5 25 -4 29.5t-66 4.5z" />
    <glyph glyph-name="afii10050" unicode="&#x490;" horiz-adv-x="521" 
d="M471 700l54 117h92l-54 -210h-244l-103 -528l79 -5l-15 -74h-287l13 64l69 21l105 538l-63 9l12 68h342z" />
    <glyph glyph-name="afii10098" unicode="&#x491;" horiz-adv-x="470" 
d="M505 629l-37 -188h-152q-22 -143 -47 -234.5t-58 -138t-67 -62.5t-83 -16q-23 0 -44 2.5t-31 5.5l-10 2l35 110q23 -19 82 -19q5 8 14 30.5t34 133.5t47 271h178l39 103h100z" />
    <glyph glyph-name="uni04D8" unicode="&#x4d8;" horiz-adv-x="607" 
d="M603 428q0 -190 -106.5 -314.5t-269.5 -124.5q-98 0 -149.5 48.5t-51.5 129.5t37 187l41 25h344q22 114 -6 174.5t-102 60.5q-21 0 -44 -4.5t-36 -9.5l-12 -4l-52 -110h-93l49 184q96 41 202 41q121 0 185 -71.5t64 -211.5zM350 108q6 7 16.5 21.5t33.5 65t35 107.5
l-254 -16q-33 -100 -12.5 -150t89.5 -50q23 0 46 5.5t34 10.5z" />
    <glyph glyph-name="afii10846" unicode="&#x4d9;" horiz-adv-x="509" 
d="M109 411l-11 72q9 6 25.5 15t67 24t100.5 15q94 0 149.5 -50.5t55.5 -157.5q0 -136 -85.5 -237.5t-216.5 -101.5q-105 0 -148 70.5t-5 198.5l44 27h268q27 155 -107 155q-30 0 -64 -7.5t-54 -15.5zM290 99q34 43 48 118l-189 -17q-29 -118 65 -118q20 0 39 4t28 8z" />
    <glyph glyph-name="Wgrave" unicode="&#x1e80;" horiz-adv-x="1046" 
d="M369 0h-137l-12 15l-70 604l-66 13l14 68h302l-13 -64l-74 -15l25 -405q3 -60 3 -69h5q6 20 28 69l207 474h132l26 -474q3 -54 3 -69h5q5 14 15.5 39.5t12.5 29.5l175 407l-63 9l14 68h233l-12 -64l-68 -21l-290 -615h-137l-11 15l-22 436q-2 39 -1 65h-4q-3 -11 -27 -65
zM506 849l101 84l104 -169l-64 -26z" />
    <glyph glyph-name="wgrave" unicode="&#x1e81;" horiz-adv-x="844" 
d="M641 456l11 60q52 18 100 18q81 0 81 -77q0 -42 -22.5 -105t-55 -122t-65 -112t-54.5 -86l-23 -32h-120l-47 296q-22 -69 -52 -143t-49 -113l-19 -40h-144l-66 418q-4 25 -14.5 29.5t-67.5 4.5l9 64q49 18 102 18q94 0 104 -74l45 -344q113 258 113 410h119l66 -408
q114 228 114 300q0 22 -14 29.5t-51 8.5zM339 679l101 85l104 -169l-63 -26z" />
    <glyph glyph-name="Wacute" unicode="&#x1e82;" horiz-adv-x="1046" 
d="M369 0h-137l-12 15l-70 604l-66 13l14 68h302l-13 -64l-74 -15l25 -405q3 -60 3 -69h5q6 20 28 69l207 474h132l26 -474q3 -54 3 -69h5q5 14 15.5 39.5t12.5 29.5l175 407l-63 9l14 68h233l-12 -64l-68 -21l-290 -615h-137l-11 15l-22 436q-2 39 -1 65h-4q-3 -11 -27 -65
zM581 764l169 169l69 -84l-185 -111z" />
    <glyph glyph-name="wacute" unicode="&#x1e83;" horiz-adv-x="844" 
d="M641 456l11 60q52 18 100 18q81 0 81 -77q0 -42 -22.5 -105t-55 -122t-65 -112t-54.5 -86l-23 -32h-120l-47 296q-22 -69 -52 -143t-49 -113l-19 -40h-144l-66 418q-4 25 -14.5 29.5t-67.5 4.5l9 64q49 18 102 18q94 0 104 -74l45 -344q113 258 113 410h119l66 -408
q114 228 114 300q0 22 -14 29.5t-51 8.5zM382 595l169 169l69 -85l-185 -110z" />
    <glyph glyph-name="Wdieresis" unicode="&#x1e84;" horiz-adv-x="1046" 
d="M369 0h-137l-12 15l-70 604l-66 13l14 68h302l-13 -64l-74 -15l25 -405q3 -60 3 -69h5q6 20 28 69l207 474h132l26 -474q3 -54 3 -69h5q5 14 15.5 39.5t12.5 29.5l175 407l-63 9l14 68h233l-12 -64l-68 -21l-290 -615h-137l-11 15l-22 436q-2 39 -1 65h-4q-3 -11 -27 -65
zM499 815q0 34 23.5 56.5t56.5 22.5q25 0 40 -14.5t15 -39.5q0 -33 -23.5 -55.5t-57.5 -22.5q-25 0 -39.5 15t-14.5 38zM700 815q0 34 23.5 56.5t56.5 22.5q25 0 40 -14.5t15 -39.5q0 -33 -24 -55.5t-57 -22.5q-24 0 -39 15t-15 38z" />
    <glyph glyph-name="wdieresis" unicode="&#x1e85;" horiz-adv-x="844" 
d="M641 456l11 60q52 18 100 18q81 0 81 -77q0 -42 -22.5 -105t-55 -122t-65 -112t-54.5 -86l-23 -32h-120l-47 296q-22 -69 -52 -143t-49 -113l-19 -40h-144l-66 418q-4 25 -14.5 29.5t-67.5 4.5l9 64q49 18 102 18q94 0 104 -74l45 -344q113 258 113 410h119l66 -408
q114 228 114 300q0 22 -14 29.5t-51 8.5zM523 654q0 34 23.5 56.5t56.5 22.5q25 0 40 -14.5t15 -39.5q0 -33 -23.5 -55.5t-57.5 -22.5q-24 0 -39 14.5t-15 38.5zM323 654q0 34 23 56.5t56 22.5q25 0 40 -14.5t15 -39.5q0 -33 -23.5 -55.5t-56.5 -22.5q-25 0 -39.5 14.5
t-14.5 38.5z" />
    <glyph glyph-name="Ygrave" unicode="&#x1ef2;" horiz-adv-x="667" 
d="M668 615l-243 -318l-43 -220l65 -9l-14 -68h-273l13 64l70 21l41 210l-132 328l-61 9l13 68h300l-12 -64l-77 -19l68 -182q14 -44 14 -45h4q6 10 17.5 26t14.5 21l130 186l-61 9l13 68h238l-13 -64zM304 849l101 84l104 -169l-63 -26z" />
    <glyph glyph-name="ygrave" unicode="&#x1ef3;" horiz-adv-x="569" 
d="M-85 -229l21 108q34 -30 103 -30q15 0 30.5 2t22.5 4l8 2q37 33 88 110l-73 451q-2 12 -4 16.5t-5 9.5t-14 6t-21.5 1.5t-38.5 0.5l12 64q50 18 104 18q89 0 97 -74l44 -366q60 97 103.5 190.5t43.5 134.5q0 21 -14.5 28.5t-50.5 8.5l10 60q54 18 102 18q81 0 81 -71
q0 -59 -61 -191t-179 -285q-101 -132 -169.5 -179.5t-143.5 -47.5q-28 0 -52 3t-34 5zM163 679l101 85l104 -169l-63 -26z" />
    <glyph glyph-name="endash" unicode="&#x2013;" horiz-adv-x="503" 
d="M66 268l16 84h396l-16 -84h-396z" />
    <glyph glyph-name="emdash" unicode="&#x2014;" horiz-adv-x="753" 
d="M66 268l16 84h646l-16 -84h-646z" />
    <glyph glyph-name="quoteleft" unicode="&#x2018;" horiz-adv-x="235" 
d="M282 733l17 -30q-9 -7 -23 -18t-40 -40.5t-30 -53.5q45 -6 45 -56q0 -36 -25 -60t-61 -24q-58 0 -58 69q0 39 18 75t43.5 60t51.5 42.5t44 26.5z" />
    <glyph glyph-name="quoteright" unicode="&#x2019;" horiz-adv-x="235" 
d="M107 450l-17 30q9 6 23 17t39.5 41t29.5 54q-44 6 -44 56q0 35 25 59.5t61 24.5q58 0 58 -69q0 -39 -18 -75t-43.5 -60t-51.5 -42.5t-44 -27.5z" />
    <glyph glyph-name="quotesinglbase" unicode="&#x201a;" horiz-adv-x="235" 
d="M1 -67l-16 30q3 2 9 6.5t20.5 17.5t26.5 25.5t22.5 30.5t13.5 33q-45 6 -45 56q0 35 25.5 59t61.5 24q57 0 57 -68q0 -39 -18 -75.5t-43.5 -60.5t-51.5 -42.5t-44 -26.5z" />
    <glyph glyph-name="quotedblleft" unicode="&#x201c;" horiz-adv-x="411" 
d="M282 733l17 -30q-9 -7 -23 -18t-40 -40.5t-30 -53.5q45 -6 45 -56q0 -36 -25 -60t-61 -24q-58 0 -58 69q0 39 18 75t43.5 60t51.5 42.5t44 26.5zM458 733l17 -30q-3 -2 -9 -6.5t-20.5 -17.5t-26.5 -25.5t-22.5 -30t-13.5 -32.5q21 -3 33 -18t12 -38q0 -36 -25.5 -60
t-61.5 -24q-57 0 -57 69q0 39 18 75t43.5 60t51 42.5t43.5 26.5z" />
    <glyph glyph-name="quotedblright" unicode="&#x201d;" horiz-adv-x="411" 
d="M107 450l-17 30q9 6 23 17t39.5 41t29.5 54q-44 6 -44 56q0 35 25 59.5t61 24.5q58 0 58 -69q0 -39 -18 -75t-43.5 -60t-51.5 -42.5t-44 -27.5zM283 450l-16 30q9 6 23 17t39.5 41t29.5 54q-21 3 -33 18t-12 38q0 35 25.5 59.5t61.5 24.5q57 0 57 -69q0 -39 -18 -75
t-44 -60t-51.5 -42.5t-43.5 -27.5z" />
    <glyph glyph-name="quotedblbase" unicode="&#x201e;" horiz-adv-x="411" 
d="M1 -67l-16 30q3 2 9 6.5t20.5 17.5t26.5 25.5t22.5 30.5t13.5 33q-45 6 -45 56q0 35 25.5 59t61.5 24q57 0 57 -68q0 -39 -18 -75.5t-43.5 -60.5t-51.5 -42.5t-44 -26.5zM178 -67l-17 30q3 2 9 6.5t20.5 17.5t26.5 25.5t23 30.5t14 33q-45 6 -45 56q0 35 25 59t61 24
q58 0 58 -68q0 -39 -18 -75.5t-43.5 -60.5t-51.5 -42.5t-44 -26.5z" />
    <glyph glyph-name="dagger" unicode="&#x2020;" horiz-adv-x="528" 
d="M301 700h118l-53 -188l190 16l-23 -117l-183 16l-29 -233l-74 -294h-84l40 294l63 233l-190 -16l22 117l183 -16z" />
    <glyph glyph-name="daggerdbl" unicode="&#x2021;" horiz-adv-x="529" 
d="M301 700h118l-53 -188l189 16l-22 -117l-183 16l-8 -124l-42 -127l190 17l-22 -118l-183 17l-21 -192h-118l54 192l-190 -17l23 118l183 -17l9 127l41 124l-190 -16l22 117l184 -16z" />
    <glyph glyph-name="bullet" unicode="&#x2022;" horiz-adv-x="345" 
d="M87 281q0 53 35.5 86.5t88.5 33.5q38 0 60.5 -22.5t22.5 -59.5q0 -52 -35.5 -87t-86.5 -35q-39 0 -62 23t-23 61z" />
    <glyph glyph-name="ellipsis" unicode="&#x2026;" horiz-adv-x="728" 
d="M13 58q0 41 28.5 68.5t69.5 27.5q31 0 49.5 -18t18.5 -49q0 -41 -29 -68.5t-70 -27.5q-31 0 -49 18t-18 49zM255 58q0 41 28.5 68.5t69.5 27.5q31 0 49 -18t18 -49q0 -41 -28.5 -68.5t-69.5 -27.5q-31 0 -49 18.5t-18 48.5zM496 58q0 41 29 68.5t70 27.5q31 0 49 -18
t18 -49q0 -41 -28.5 -68.5t-70.5 -27.5q-31 0 -49 18t-18 49z" />
    <glyph glyph-name="perthousand" unicode="&#x2030;" horiz-adv-x="1196" 
d="M194 0h-102l599 700h102zM97 490q0 95 59 157t146 62q65 0 101 -37.5t36 -109.5q0 -97 -59 -159t-145 -62q-65 0 -101.5 38.5t-36.5 110.5zM200 487q0 -70 52 -70q11 0 21.5 2.5t16.5 4.5l5 2q40 55 40 138q0 37 -11.5 53t-37.5 16q-11 0 -22 -2.5t-16 -4.5l-6 -3
q-5 -6 -12 -17t-18.5 -46.5t-11.5 -72.5zM446 140q0 95 58.5 157t145.5 62q65 0 101.5 -38t36.5 -110q0 -96 -59 -158t-145 -62q-65 0 -101.5 38t-36.5 111zM549 137q0 -37 12 -53.5t40 -16.5q11 0 21.5 2.5t15.5 4.5l6 2q40 55 40 138q0 37 -11.5 53t-37.5 16
q-11 0 -22.5 -2.5t-16.5 -4.5l-6 -3q-5 -6 -11.5 -17t-18 -46.5t-11.5 -72.5zM813 140q0 95 59 157t145 62q65 0 101.5 -38t36.5 -110q0 -96 -59 -158t-145 -62q-65 0 -101.5 38.5t-36.5 110.5zM916 137q0 -37 12 -53.5t40 -16.5q11 0 21.5 2.5t16.5 4.5l5 2q40 55 40 138
q0 37 -11.5 53t-37.5 16q-11 0 -22 -2.5t-17 -4.5l-6 -3q-5 -6 -11.5 -17t-18 -46.5t-11.5 -72.5z" />
    <glyph glyph-name="guilsinglleft" unicode="&#x2039;" horiz-adv-x="307" 
d="M208 123l-154 169l4 16l218 169l26 -43l-135 -134l84 -134z" />
    <glyph glyph-name="guilsinglright" unicode="&#x203a;" horiz-adv-x="307" 
d="M136 477l154 -169l-3 -16l-219 -169l-26 43l135 134l-83 134z" />
    <glyph glyph-name="fraction" unicode="&#x2044;" horiz-adv-x="779" 
d="M157 0h-102l587 700h102z" />
    <glyph glyph-name="Euro" unicode="&#x20ac;" horiz-adv-x="645" 
d="M73 388l17 84h60q45 110 137.5 174.5t215.5 64.5q49 0 95 -10.5t68 -20.5l21 -10l-22 -180h-92l-11 103q-33 21 -92 21q-29 0 -55 -6t-37 -12l-12 -7q-35 -45 -64 -117h194l-17 -84h-203q-8 -37 -12 -76h201l-17 -84h-187q4 -74 31.5 -108t84.5 -34q21 0 44 4.5t35 9.5
l13 4l53 110h92l-49 -184q-96 -41 -201 -41q-227 0 -248 239h-74l16 84h57q1 32 10 76h-52z" />
    <glyph glyph-name="uni20B4" unicode="&#x20b4;" horiz-adv-x="487" 
d="M33 250l14 76h435l-14 -76h-254q-38 -43 -38 -90q0 -75 91 -75q31 0 65 7.5t52 15.5l19 7l11 -72q-9 -6 -25 -15t-65.5 -23.5t-98.5 -14.5q-86 0 -141 42t-55 116q0 55 34 102h-30zM59 386l15 76h256q34 39 34 84q0 69 -85 69q-32 0 -65.5 -7.5t-51.5 -15.5l-18 -7
l-13 72q9 6 25.5 15t66 23.5t98.5 14.5q85 0 137.5 -40t52.5 -111q0 -51 -31 -97h29l-15 -76h-435z" />
    <glyph glyph-name="afii61352" unicode="&#x2116;" horiz-adv-x="1133" 
d="M179 77l68 -9l-13 -68h-244l11 64l74 21l105 538l-68 9l14 68h204l182 -387q12 -29 16 -56l4 1q0 3 8 55l61 310l-68 9l13 68h245l-13 -64l-74 -21l-119 -615h-98l-208 440q-15 31 -17 55l-4 -1q-3 -27 -9 -54zM783 466q0 106 64.5 174t161.5 68q73 0 112.5 -41.5
t39.5 -122.5q0 -106 -64.5 -174t-161.5 -68q-72 0 -112 41.5t-40 122.5zM891 455q0 -44 14 -63.5t46 -19.5q13 0 26.5 3t20.5 7l6 3q5 8 13.5 22.5t22 59t13.5 89.5q0 44 -14 63t-45 19q-13 0 -27 -3t-21 -7l-7 -3q-5 -8 -13 -22.5t-21.5 -59t-13.5 -88.5z" />
    <glyph glyph-name="trademark" unicode="&#x2122;" horiz-adv-x="970" 
d="M540 348l43 -5l-8 -43h-154l8 40l45 14l89 298l-42 4l8 44h155l37 -225q4 -27 3 -42h3q9 26 20 45l122 222h147l-8 -40l-43 -14l-28 -298l39 -5l-8 -43h-172l8 40l42 14l19 207l3 27h-2q-9 -24 -11 -28l-118 -217h-80l-7 9l-37 209q-3 16 0 27h-3q-6 -25 -7 -27zM280 348
l39 -5l-9 -43h-170l7 40l42 14l56 286h-60l-32 -65h-59l33 125h352l-15 -125h-60l-7 65h-60z" />
    <glyph glyph-name="arrowleft" unicode="&#x2190;" horiz-adv-x="617" 
d="M564 321v-76h-383l97 -116l-34 -42l-207 188v17l207 188l34 -43l-97 -116h383z" />
    <glyph glyph-name="arrowup" unicode="&#x2191;" horiz-adv-x="481" 
d="M279 0h-77v383l-116 -97l-42 34l188 206h17l188 -206l-43 -34l-115 96v-382z" />
    <glyph glyph-name="arrowright" unicode="&#x2192;" horiz-adv-x="617" 
d="M54 230v76h382l-97 116l35 43l206 -188v-17l-206 -188l-35 42l97 116h-382z" />
    <glyph glyph-name="arrowdown" unicode="&#x2193;" horiz-adv-x="481" 
d="M202 526h77v-382l115 96l43 -34l-188 -206h-17l-188 206l42 34l116 -97v383z" />
    <glyph glyph-name="uni2196" unicode="&#x2196;" horiz-adv-x="481" 
d="M454 120l-54 -54l-271 269l-13 -148l-54 -7l-13 279l12 12l279 -13l-7 -54l-149 -14z" />
    <glyph glyph-name="uni2197" unicode="&#x2197;" horiz-adv-x="481" 
d="M81 66l-54 54l269 270l-149 14l-6 54l279 13l12 -12l-13 -279l-54 7l-14 148z" />
    <glyph glyph-name="uni2198" unicode="&#x2198;" horiz-adv-x="481" 
d="M27 417l54 54l270 -270l14 150l54 6l13 -279l-12 -12l-279 13l6 54l149 13z" />
    <glyph glyph-name="uni2199" unicode="&#x2199;" horiz-adv-x="481" 
d="M400 469l54 -53l-270 -271l149 -14l7 -54l-279 -12l-12 12l13 279l54 -7l13 -150z" />
    <glyph glyph-name="minus" unicode="&#x2212;" horiz-adv-x="503" 
d="M76 298v84h393v-84h-393z" />
    <glyph glyph-name="approxequal" unicode="&#x2248;" horiz-adv-x="503" 
d="M75 369v90q46 50 98 50q34 0 98.5 -28t99.5 -28q50 0 97 52v-90q-44 -51 -97 -51q-34 0 -97.5 28t-98.5 28q-52 0 -100 -51zM371 168q-34 0 -97.5 28t-98.5 28q-52 0 -100 -51v90q46 50 98 50q34 0 98 -28t99 -28q51 0 98 52v-90q-44 -51 -97 -51z" />
    <glyph glyph-name="notequal" unicode="&#x2260;" horiz-adv-x="503" 
d="M468 199h-211l-48 -111h-89l48 111h-93v85h128l48 112h-176v84h212l48 112h89l-48 -112h92v-84h-128l-47 -112h175v-85z" />
    <glyph glyph-name="lessequal" unicode="&#x2264;" horiz-adv-x="503" 
d="M73 463l392 165v-95l-266 -113l266 -112v-95l-392 165v85zM465 93h-392v84h392v-84z" />
    <glyph glyph-name="greaterequal" unicode="&#x2265;" horiz-adv-x="503" 
d="M471 463v-85l-392 -165v95l265 112l-265 113v95zM471 93h-392v84h392v-84z" />
    <glyph glyph-name="commaaccent" unicode="&#xf6c3;" horiz-adv-x="245" 
d="M-29 -260l-14 24q8 5 19 14t31.5 33t24.5 44q-17 1 -26.5 13t-9.5 30q0 28 20 47.5t49 19.5q45 0 45 -52q0 -32 -14.5 -61.5t-34.5 -49t-40.5 -34t-34.5 -21.5z" />
    <glyph glyph-name="zerooldstyle" unicode="&#xf730;" horiz-adv-x="578" 
d="M45 234q0 162 92 269.5t225 107.5q95 0 149.5 -62t54.5 -183q0 -162 -91.5 -269.5t-224.5 -107.5q-95 0 -150 62t-55 183zM189 209q0 -64 20 -93.5t62 -29.5q18 0 35 5t25 9l8 5q3 5 8.5 14.5t20 39.5t25 61.5t19.5 78t9 91.5q0 65 -19 94.5t-59 29.5q-18 0 -36 -5
t-27 -10l-9 -5q-3 -5 -8.5 -14.5t-20 -40t-25 -62t-19.5 -78t-9 -90.5z" />
    <glyph glyph-name="oneoldstyle" unicode="&#xf731;" horiz-adv-x="449" 
d="M100 477l14 69q131 18 256 64l10 -13l-100 -512l101 -9l-14 -76h-353l15 76l116 22l74 379h-119z" />
    <glyph glyph-name="twooldstyle" unicode="&#xf732;" horiz-adv-x="552" 
d="M546 484q0 -42 -21 -78t-63 -69.5t-87 -63.5t-112.5 -77t-120.5 -91h215l50 95h92l-53 -200h-447l20 105q84 77 189 151.5t144 113t39 89.5q0 28 -16.5 41.5t-59.5 13.5q-27 0 -50.5 -5.5t-32.5 -10.5l-10 -6l-50 -100h-92l48 174q8 5 24 12.5t71.5 20t119.5 12.5
q203 0 203 -127z" />
    <glyph glyph-name="threeoldstyle" unicode="&#xf733;" horiz-adv-x="546" 
d="M484 134q0 -112 -86.5 -178t-223.5 -66q-57 0 -105.5 12t-68.5 24l-20 11l39 78q57 -32 156 -32q27 0 53.5 3t39.5 6l14 3q6 6 14.5 16.5t23 48t14.5 78.5q0 50 -21.5 72t-68.5 22h-42l-10 12l15 72q22 6 69 55t84 95l36 45h-165l-52 -107h-93l53 196h413l-17 -89
q-103 -121 -199 -201l-1 -5q149 -32 149 -171z" />
    <glyph glyph-name="fouroldstyle" unicode="&#xf734;" horiz-adv-x="582" 
d="M541 600l-82 -418h81l-20 -100h-77l-37 -190h-137l36 188h-301l11 55l381 465h145zM162 185h169l53 275z" />
    <glyph glyph-name="fiveoldstyle" unicode="&#xf735;" horiz-adv-x="522" 
d="M470 142q0 -118 -81 -185t-224 -67q-60 0 -108.5 12t-66.5 24l-19 11l38 78q54 -32 151 -32q26 0 52.5 3t39.5 6l14 3q6 7 14 18.5t22 48t14 72.5q0 61 -41 87.5t-135 26.5h-61l-9 13l105 339h350l-21 -105h-257l-51 -156q139 -5 206.5 -48.5t67.5 -148.5z" />
    <glyph glyph-name="sixoldstyle" unicode="&#xf736;" horiz-adv-x="563" 
d="M557 652l-38 -72q-50 17 -120 17q-36 0 -63.5 -6t-37.5 -12l-10 -6q-47 -76 -77 -183q59 36 140 36q84 0 132 -41.5t48 -128.5q0 -113 -76.5 -189.5t-202.5 -76.5q-104 0 -154.5 61.5t-50.5 197.5q0 88 21 166t62.5 140t109.5 98.5t155 36.5q45 0 85.5 -9.5t58.5 -18.5z
M308 333q-59 0 -114 -23q-8 -48 -8 -95q0 -69 20.5 -101t67.5 -32q15 0 31 3t24 6l8 3q6 7 14.5 19.5t22.5 53t14 82.5q0 46 -18.5 65t-61.5 19z" />
    <glyph glyph-name="sevenoldstyle" unicode="&#xf737;" horiz-adv-x="527" 
d="M237 -100h-152q32 94 84 190t144 239t115 182h-210l-51 -107h-93l52 196h443l-11 -55q-22 -42 -107.5 -193t-134 -252t-79.5 -200z" />
    <glyph glyph-name="eightoldstyle" unicode="&#xf738;" horiz-adv-x="562" 
d="M23 126q0 123 149 203q-65 48 -65 136q0 94 67 160t204 66q181 0 181 -132q0 -39 -14 -73t-38 -58t-44 -39t-42 -27q94 -50 94 -150q0 -98 -74 -160.5t-217 -62.5q-201 0 -201 137zM379 189q0 16 -6 29t-12.5 21t-23.5 17t-26 12.5t-33.5 12t-33.5 11.5q-84 -61 -84 -130
q0 -75 100 -75q22 0 44 4t34 8l11 4q30 40 30 86zM246 495q0 -39 24 -59.5t73 -39.5q87 60 87 134q0 65 -79 65q-20 0 -39.5 -4t-28.5 -8l-9 -4q-28 -38 -28 -84z" />
    <glyph glyph-name="nineoldstyle" unicode="&#xf739;" horiz-adv-x="563" 
d="M11 -69l39 78q47 -26 134 -26q36 0 65.5 6t40.5 12l11 6q53 86 85 206q-56 -35 -141 -35q-179 0 -179 167q0 112 76 188.5t202 76.5q104 0 154 -62.5t50 -202.5q0 -91 -21 -170.5t-63.5 -144.5t-115.5 -102.5t-169 -37.5q-52 0 -94 10t-58 20zM289 270q52 0 114 22
q7 53 7 92q0 71 -20 102.5t-66 31.5q-16 0 -32 -3.5t-24 -6.5l-7 -4q-6 -6 -14.5 -18.5t-23 -51.5t-14.5 -81q0 -46 18.5 -64.5t61.5 -18.5z" />
    <glyph glyph-name="A.smcp" horiz-adv-x="630" 
d="M315 560h126l10 -13l84 -478l54 -8l-12 -61h-261l11 56l60 21l-14 73h-189l-46 -81l54 -8l-11 -61h-212l11 57l54 20zM305 369l-77 -135h135l-22 135q-3 16 -3 67h-4q-15 -41 -29 -67z" />
    <glyph glyph-name="Aacute.smcp" horiz-adv-x="630" 
d="M315 560h126l10 -13l84 -478l54 -8l-12 -61h-261l11 56l60 21l-14 73h-189l-46 -81l54 -8l-11 -61h-212l11 57l54 20zM305 369l-77 -135h135l-22 135q-3 16 -3 67h-4q-15 -41 -29 -67zM323 612l146 141l61 -76l-157 -88z" />
    <glyph glyph-name="Abreve.smcp" horiz-adv-x="630" 
d="M315 560h126l10 -13l84 -478l54 -8l-12 -61h-261l11 56l60 21l-14 73h-189l-46 -81l54 -8l-11 -61h-212l11 57l54 20zM305 369l-77 -135h135l-22 135q-3 16 -3 67h-4q-15 -41 -29 -67zM499 713l38 -16q-2 -4 -5.5 -10.5t-16.5 -23t-28.5 -29t-41.5 -23t-56 -10.5
q-46 0 -73.5 23.5t-31.5 46.5l-5 23l64 20q1 -2 2 -5t6.5 -10.5t12.5 -13.5t20.5 -11t30.5 -5q25 0 46 11t29 22z" />
    <glyph glyph-name="Acircumflex.smcp" horiz-adv-x="630" 
d="M315 560h126l10 -13l84 -478l54 -8l-12 -61h-261l11 56l60 21l-14 73h-189l-46 -81l54 -8l-11 -61h-212l11 57l54 20zM305 369l-77 -135h135l-22 135q-3 16 -3 67h-4q-15 -41 -29 -67zM260 612l150 134h15l99 -134l-58 -23l-68 57l-90 -57z" />
    <glyph glyph-name="Agrave.smcp" horiz-adv-x="630" 
d="M315 560h126l10 -13l84 -478l54 -8l-12 -61h-261l11 56l60 21l-14 73h-189l-46 -81l54 -8l-11 -61h-212l11 57l54 20zM305 369l-77 -135h135l-22 135q-3 16 -3 67h-4q-15 -41 -29 -67zM266 677l92 76l89 -141l-57 -23z" />
    <glyph glyph-name="Adieresis.smcp" horiz-adv-x="630" 
d="M315 560h126l10 -13l84 -478l54 -8l-12 -61h-261l11 56l60 21l-14 73h-189l-46 -81l54 -8l-11 -61h-212l11 57l54 20zM305 369l-77 -135h135l-22 135q-3 16 -3 67h-4q-15 -41 -29 -67zM256 658q0 29 20.5 48t50.5 19q23 0 36 -12.5t13 -34.5q0 -29 -20.5 -48.5
t-50.5 -19.5q-22 0 -35.5 13.5t-13.5 34.5zM428 658q0 29 20.5 48t50.5 19q23 0 36.5 -12.5t13.5 -34.5q0 -29 -21 -48.5t-51 -19.5q-22 0 -35.5 13.5t-13.5 34.5z" />
    <glyph glyph-name="Amacron.smcp" horiz-adv-x="630" 
d="M315 560h126l10 -13l84 -478l54 -8l-12 -61h-261l11 56l60 21l-14 73h-189l-46 -81l54 -8l-11 -61h-212l11 57l54 20zM305 369l-77 -135h135l-22 135q-3 16 -3 67h-4q-15 -41 -29 -67zM261 610l16 76h258l-15 -76h-259z" />
    <glyph glyph-name="Aogonek.smcp" horiz-adv-x="630" 
d="M484 -95q0 -24 27 -24l39 6v-32q-26 -23 -78 -23q-72 0 -72 55q0 31 21 59.5t42 41.5l21 12h-168l11 56l60 21l-14 73h-189l-46 -81l54 -8l-11 -61h-212l11 57l54 20l281 483h126l10 -13l84 -478l54 -8l-12 -61h-40q-6 -5 -15 -14.5t-23.5 -34.5t-14.5 -46zM305 369
l-77 -135h135l-22 135q-3 16 -3 67h-4q-15 -41 -29 -67z" />
    <glyph glyph-name="Aring.smcp" horiz-adv-x="630" 
d="M315 560h126l10 -13l84 -478l54 -8l-12 -61h-261l11 56l60 21l-14 73h-189l-46 -81l54 -8l-11 -61h-212l11 57l54 20zM305 369l-77 -135h135l-22 135q-3 16 -3 67h-4q-15 -41 -29 -67zM317 652q0 40 27.5 64.5t71.5 24.5q32 0 51 -17t19 -45q0 -39 -28.5 -63.5
t-71.5 -24.5q-32 0 -50.5 16.5t-18.5 44.5zM374 660q0 -22 24 -22l21 4q9 14 9 30q0 21 -22 21l-22 -3q-10 -12 -10 -30z" />
    <glyph glyph-name="Atilde.smcp" horiz-adv-x="630" 
d="M315 560h126l10 -13l84 -478l54 -8l-12 -61h-261l11 56l60 21l-14 73h-189l-46 -81l54 -8l-11 -61h-212l11 57l54 20zM305 369l-77 -135h135l-22 135q-3 16 -3 67h-4q-15 -41 -29 -67zM266 607l-23 31q8 9 21 22.5t48.5 35.5t66.5 22q23 0 54 -16t49 -16l55 34l23 -31
q-7 -9 -20 -22t-48 -35t-65 -22q-22 0 -54.5 15.5t-50.5 15.5z" />
    <glyph glyph-name="AE.smcp" horiz-adv-x="730" 
d="M646 0h-392l11 56l57 21l6 73h-138l-52 -81l54 -8l-11 -61h-212l11 57l54 20l298 483h411l-19 -160h-85l-11 76h-150l-9 -150h51l26 60h66l-41 -204h-65l-3 60h-39l-8 -158h106l42 80h86zM317 369l-84 -135h106l16 206h-3q-14 -37 -35 -71z" />
    <glyph glyph-name="AEacute.smcp" horiz-adv-x="730" 
d="M646 0h-392l11 56l57 21l6 73h-138l-52 -81l54 -8l-11 -61h-212l11 57l54 20l298 483h411l-19 -160h-85l-11 76h-150l-9 -150h51l26 60h66l-41 -204h-65l-3 60h-39l-8 -158h106l42 80h86zM317 369l-84 -135h106l16 206h-3q-14 -37 -35 -71zM352 612l145 141l62 -76
l-157 -88z" />
    <glyph glyph-name="B.smcp" horiz-adv-x="554" 
d="M269 0h-272l11 57l58 20l80 415l-52 8l12 60h254q81 0 131 -34t50 -97q0 -85 -91 -137q-6 -2 -15 -2v-3q10 0 14 -2q60 -33 60 -106q0 -81 -67 -130t-173 -49zM285 243h-58l-31 -158h65q18 0 35.5 1.5t25.5 3.5l9 1q4 3 11 9.5t18 29.5t11 51q0 34 -19.5 48t-66.5 14z
M314 476h-41l-29 -150h47q18 0 35.5 1.5t25.5 2.5l9 2q4 3 10.5 9t17.5 27.5t11 47.5q0 33 -20 46.5t-66 13.5z" />
    <glyph glyph-name="C.smcp" horiz-adv-x="512" 
d="M425 388l-11 79q-27 15 -76 15q-24 0 -44.5 -5t-29.5 -9l-9 -5q-3 -4 -8.5 -12.5t-19.5 -36t-24.5 -56.5t-19 -72.5t-8.5 -86.5q0 -63 22 -92.5t71 -29.5q17 0 35.5 3.5t28.5 7.5l11 3l43 85h85l-42 -153q-84 -32 -172 -32q-103 0 -160 58t-57 176q0 150 90.5 247
t237.5 97q42 0 81.5 -8t58.5 -16l18 -8l-16 -149h-85z" />
    <glyph glyph-name="Cacute.smcp" horiz-adv-x="512" 
d="M425 388l-11 79q-27 15 -76 15q-24 0 -44.5 -5t-29.5 -9l-9 -5q-3 -4 -8.5 -12.5t-19.5 -36t-24.5 -56.5t-19 -72.5t-8.5 -86.5q0 -63 22 -92.5t71 -29.5q17 0 35.5 3.5t28.5 7.5l11 3l43 85h85l-42 -153q-84 -32 -172 -32q-103 0 -160 58t-57 176q0 150 90.5 247
t237.5 97q42 0 81.5 -8t58.5 -16l18 -8l-16 -149h-85zM303 612l145 141l61 -76l-158 -88z" />
    <glyph glyph-name="Ccaron.smcp" horiz-adv-x="512" 
d="M425 388l-11 79q-27 15 -76 15q-24 0 -44.5 -5t-29.5 -9l-9 -5q-3 -4 -8.5 -12.5t-19.5 -36t-24.5 -56.5t-19 -72.5t-8.5 -86.5q0 -63 22 -92.5t71 -29.5q17 0 35.5 3.5t28.5 7.5l11 3l43 85h85l-42 -153q-84 -32 -172 -32q-103 0 -160 58t-57 176q0 150 90.5 247
t237.5 97q42 0 81.5 -8t58.5 -16l18 -8l-16 -149h-85zM352 589l-91 126l48 34l71 -61l94 61l36 -34l-142 -126h-16z" />
    <glyph glyph-name="Ccedilla.smcp" horiz-adv-x="512" 
d="M197 -70l20 63q-85 10 -131 68t-46 164q0 150 90.5 247t237.5 97q42 0 81.5 -8t58.5 -16l18 -8l-16 -149h-85l-11 79q-27 15 -76 15q-24 0 -44.5 -5t-29.5 -9l-9 -5q-3 -4 -8.5 -12.5t-19.5 -36t-24.5 -56.5t-19 -72.5t-8.5 -86.5q0 -63 22 -92.5t71 -29.5q17 0 35.5 3.5
t28.5 7.5l11 3l43 85h85l-42 -153q-76 -29 -159 -32l-13 -38q2 0 6 -0.5t13.5 -3t17 -7t13.5 -14.5t6 -23q0 -33 -33 -53.5t-89 -20.5q-16 0 -30.5 1.5t-20.5 3.5l-6 2l22 54q12 -12 42 -12l24 3q7 11 7 21q0 11 -8 17.5t-16 7.5z" />
    <glyph glyph-name="Ccircumflex.smcp" horiz-adv-x="512" 
d="M425 388l-11 79q-27 15 -76 15q-24 0 -44.5 -5t-29.5 -9l-9 -5q-3 -4 -8.5 -12.5t-19.5 -36t-24.5 -56.5t-19 -72.5t-8.5 -86.5q0 -63 22 -92.5t71 -29.5q17 0 35.5 3.5t28.5 7.5l11 3l43 85h85l-42 -153q-84 -32 -172 -32q-103 0 -160 58t-57 176q0 150 90.5 247
t237.5 97q42 0 81.5 -8t58.5 -16l18 -8l-16 -149h-85zM236 612l150 134h16l98 -134l-57 -23l-68 57l-90 -57z" />
    <glyph glyph-name="Cdotaccent.smcp" horiz-adv-x="512" 
d="M425 388l-11 79q-27 15 -76 15q-24 0 -44.5 -5t-29.5 -9l-9 -5q-3 -4 -8.5 -12.5t-19.5 -36t-24.5 -56.5t-19 -72.5t-8.5 -86.5q0 -63 22 -92.5t71 -29.5q17 0 35.5 3.5t28.5 7.5l11 3l43 85h85l-42 -153q-84 -32 -172 -32q-103 0 -160 58t-57 176q0 150 90.5 247
t237.5 97q42 0 81.5 -8t58.5 -16l18 -8l-16 -149h-85zM293 654q0 38 28 63t66 25q31 0 48.5 -17t17.5 -46q0 -37 -27 -62.5t-66 -25.5q-31 0 -49 17.5t-18 45.5z" />
    <glyph glyph-name="D.smcp" horiz-adv-x="583" 
d="M254 0h-257l11 57l58 20l80 414l-52 8l12 61h257q93 0 148 -57t55 -169q0 -146 -89 -240t-223 -94zM335 476h-62l-77 -392h69q23 0 42.5 4t28.5 8l8 3q4 4 9.5 10.5t20.5 30.5t26.5 51t21 71t9.5 91q0 65 -21.5 94t-74.5 29z" />
    <glyph glyph-name="Dcaron.smcp" horiz-adv-x="583" 
d="M254 0h-257l11 57l58 20l80 414l-52 8l12 61h257q93 0 148 -57t55 -169q0 -146 -89 -240t-223 -94zM335 476h-62l-77 -392h69q23 0 42.5 4t28.5 8l8 3q4 4 9.5 10.5t20.5 30.5t26.5 51t21 71t9.5 91q0 65 -21.5 94t-74.5 29zM336 589l-93 126l49 34l70 -61l95 61l35 -34
l-141 -126h-15z" />
    <glyph glyph-name="Dcroat.smcp" horiz-adv-x="583" 
d="M44 243l14 68l57 15l32 165l-52 8l12 61h256q94 0 149 -57t55 -169q0 -146 -89.5 -240t-223.5 -94h-256l11 57l57 20l32 166h-54zM336 476h-62l-29 -150h97l-17 -83h-97l-31 -159h68q23 0 43 4t28 8l9 3q3 4 9 10.5t21 30.5t26 51t20.5 71t9.5 91q0 66 -21.5 94.5
t-73.5 28.5z" />
    <glyph glyph-name="Eth.smcp" horiz-adv-x="583" 
d="M44 243l14 68l57 15l32 165l-52 8l12 61h256q94 0 149 -57t55 -169q0 -146 -89.5 -240t-223.5 -94h-256l11 57l57 20l32 166h-54zM336 476h-62l-29 -150h97l-17 -83h-97l-31 -159h68q23 0 43 4t28 8l9 3q3 4 9 10.5t21 30.5t26 51t20.5 71t9.5 91q0 66 -21.5 94.5
t-73.5 28.5z" />
    <glyph glyph-name="Thorn.smcp" horiz-adv-x="549" 
d="M194 70l65 -4l-12 -66h-250l11 57l58 20l80 414l-52 8l12 61h237l-11 -57l-58 -20l-6 -33h78q81 0 130 -36t49 -105q0 -82 -68.5 -132.5t-173.5 -50.5h-78zM300 366h-48l-30 -155h54q18 0 35.5 1.5t26.5 3.5l8 1q4 3 11 9.5t18 29.5t11 50q0 33 -19.5 46.5t-66.5 13.5z
" />
    <glyph glyph-name="E.smcp" horiz-adv-x="523" 
d="M438 0h-441l11 57l58 20l80 414l-52 8l12 61h428l-18 -160h-84l-12 76h-147l-29 -150h57l26 60h69l-40 -204h-69l-3 60h-57l-31 -158h159l42 80h85z" />
    <glyph glyph-name="Eacute.smcp" horiz-adv-x="523" 
d="M438 0h-441l11 57l58 20l80 414l-52 8l12 61h428l-18 -160h-84l-12 76h-147l-29 -150h57l26 60h69l-40 -204h-69l-3 60h-57l-31 -158h159l42 80h85zM269 612l146 141l61 -76l-158 -88z" />
    <glyph glyph-name="Ebreve.smcp" horiz-adv-x="523" 
d="M438 0h-441l11 57l58 20l80 414l-52 8l12 61h428l-18 -160h-84l-12 76h-147l-29 -150h57l26 60h69l-40 -204h-69l-3 60h-57l-31 -158h159l42 80h85zM454 713l38 -16q-2 -4 -5.5 -10.5t-16 -23t-28 -29t-42 -23t-55.5 -10.5q-47 0 -74.5 23.5t-32.5 46.5l-4 23l64 20
q1 -5 5 -12.5t22 -20t44 -12.5t47.5 11t29.5 22z" />
    <glyph glyph-name="Ecaron.smcp" horiz-adv-x="523" 
d="M438 0h-441l11 57l58 20l80 414l-52 8l12 61h428l-18 -160h-84l-12 76h-147l-29 -150h57l26 60h69l-40 -204h-69l-3 60h-57l-31 -158h159l42 80h85zM333 589l-92 126l49 34l70 -61l95 61l35 -34l-141 -126h-16z" />
    <glyph glyph-name="Ecircumflex.smcp" horiz-adv-x="523" 
d="M438 0h-441l11 57l58 20l80 414l-52 8l12 61h428l-18 -160h-84l-12 76h-147l-29 -150h57l26 60h69l-40 -204h-69l-3 60h-57l-31 -158h159l42 80h85zM206 612l150 134h15l99 -134l-58 -23l-68 57l-90 -57z" />
    <glyph glyph-name="Edieresis.smcp" horiz-adv-x="523" 
d="M438 0h-441l11 57l58 20l80 414l-52 8l12 61h428l-18 -160h-84l-12 76h-147l-29 -150h57l26 60h69l-40 -204h-69l-3 60h-57l-31 -158h159l42 80h85zM206 658q0 29 20.5 48t50.5 19q22 0 35.5 -12.5t13.5 -33.5q0 -30 -20.5 -49.5t-51.5 -19.5q-22 0 -35 13.5t-13 34.5z
M378 658q0 29 20.5 48t50.5 19q23 0 36 -12.5t13 -33.5q0 -30 -20 -49.5t-51 -19.5q-22 0 -35.5 13.5t-13.5 34.5z" />
    <glyph glyph-name="Edotaccent.smcp" horiz-adv-x="523" 
d="M438 0h-441l11 57l58 20l80 414l-52 8l12 61h428l-18 -160h-84l-12 76h-147l-29 -150h57l26 60h69l-40 -204h-69l-3 60h-57l-31 -158h159l42 80h85zM276 653q0 38 27.5 63t67.5 25q30 0 48 -17t18 -45q0 -38 -28 -63.5t-67 -25.5q-30 0 -48 17.5t-18 45.5z" />
    <glyph glyph-name="Egrave.smcp" horiz-adv-x="523" 
d="M438 0h-441l11 57l58 20l80 414l-52 8l12 61h428l-18 -160h-84l-12 76h-147l-29 -150h57l26 60h69l-40 -204h-69l-3 60h-57l-31 -158h159l42 80h85zM220 677l92 76l89 -141l-58 -23z" />
    <glyph glyph-name="Emacron.smcp" horiz-adv-x="523" 
d="M438 0h-441l11 57l58 20l80 414l-52 8l12 61h428l-18 -160h-84l-12 76h-147l-29 -150h57l26 60h69l-40 -204h-69l-3 60h-57l-31 -158h159l42 80h85zM216 610l15 76h258l-15 -76h-258z" />
    <glyph glyph-name="Eogonek.smcp" horiz-adv-x="523" 
d="M355 -95q0 -24 26 -24l39 6l1 -32q-27 -23 -79 -23q-71 0 -71 55q0 31 21 59.5t42 41.5l21 12h-358l11 57l58 20l80 414l-52 8l12 61h428l-18 -160h-84l-12 76h-147l-29 -150h57l26 60h69l-40 -204h-69l-3 60h-57l-31 -158h159l42 80h85l-44 -164h-31q-6 -5 -14.5 -14.5
t-23 -34.5t-14.5 -46z" />
    <glyph glyph-name="F.smcp" horiz-adv-x="501" 
d="M247 0h-250l11 57l58 20l80 414l-52 8l12 61h427l-19 -164h-85l-10 80h-146l-31 -157h60l26 60h70l-40 -204h-70l-1 60h-61l-32 -165l65 -4z" />
    <glyph glyph-name="G.smcp" horiz-adv-x="549" 
d="M477 226l-39 -200q-78 -35 -176 -35q-107 0 -164.5 58t-57.5 176q0 151 89.5 247.5t237.5 96.5q42 0 81.5 -8t58.5 -16l19 -8l-17 -149h-84l-12 79q-27 15 -76 15q-24 0 -44.5 -5t-29.5 -9l-9 -5q-3 -5 -8.5 -13t-19.5 -35.5t-24.5 -56.5t-19 -72.5t-8.5 -86.5
q0 -65 22.5 -93.5t72.5 -28.5q37 0 67 12l28 145l-64 8l12 60h233l-11 -56z" />
    <glyph glyph-name="Gbreve.smcp" horiz-adv-x="549" 
d="M477 226l-39 -200q-78 -35 -176 -35q-107 0 -164.5 58t-57.5 176q0 151 89.5 247.5t237.5 96.5q42 0 81.5 -8t58.5 -16l19 -8l-17 -149h-84l-12 79q-27 15 -76 15q-24 0 -44.5 -5t-29.5 -9l-9 -5q-3 -5 -8.5 -13t-19.5 -35.5t-24.5 -56.5t-19 -72.5t-8.5 -86.5
q0 -65 22.5 -93.5t72.5 -28.5q37 0 67 12l28 145l-64 8l12 60h233l-11 -56zM469 713l38 -16q-2 -4 -5.5 -10.5t-16 -23t-28 -29t-42 -23t-55.5 -10.5q-46 0 -74 23.5t-33 46.5l-5 23l66 20q0 -2 1.5 -5t6.5 -10.5t12 -13.5t20 -11t30 -5q26 0 47 11t29 22z" />
    <glyph glyph-name="Gcircumflex.smcp" horiz-adv-x="549" 
d="M477 226l-39 -200q-78 -35 -176 -35q-107 0 -164.5 58t-57.5 176q0 151 89.5 247.5t237.5 96.5q42 0 81.5 -8t58.5 -16l19 -8l-17 -149h-84l-12 79q-27 15 -76 15q-24 0 -44.5 -5t-29.5 -9l-9 -5q-3 -5 -8.5 -13t-19.5 -35.5t-24.5 -56.5t-19 -72.5t-8.5 -86.5
q0 -65 22.5 -93.5t72.5 -28.5q37 0 67 12l28 145l-64 8l12 60h233l-11 -56zM236 612l150 134h16l98 -134l-58 -23l-67 57l-90 -57z" />
    <glyph glyph-name="Gcommaaccent.smcp" horiz-adv-x="549" 
d="M477 226l-39 -200q-78 -35 -176 -35q-107 0 -164.5 58t-57.5 176q0 151 89.5 247.5t237.5 96.5q42 0 81.5 -8t58.5 -16l19 -8l-17 -149h-84l-12 79q-27 15 -76 15q-24 0 -44.5 -5t-29.5 -9l-9 -5q-3 -5 -8.5 -13t-19.5 -35.5t-24.5 -56.5t-19 -72.5t-8.5 -86.5
q0 -65 22.5 -93.5t72.5 -28.5q37 0 67 12l28 145l-64 8l12 60h233l-11 -56zM177 -209l-13 21q57 37 63 72q-32 3 -32 37q0 23 17.5 40t42.5 17q40 0 40 -47q0 -40 -29.5 -75t-59.5 -50z" />
    <glyph glyph-name="Gdotaccent.smcp" horiz-adv-x="549" 
d="M477 226l-39 -200q-78 -35 -176 -35q-107 0 -164.5 58t-57.5 176q0 151 89.5 247.5t237.5 96.5q42 0 81.5 -8t58.5 -16l19 -8l-17 -149h-84l-12 79q-27 15 -76 15q-24 0 -44.5 -5t-29.5 -9l-9 -5q-3 -5 -8.5 -13t-19.5 -35.5t-24.5 -56.5t-19 -72.5t-8.5 -86.5
q0 -65 22.5 -93.5t72.5 -28.5q37 0 67 12l28 145l-64 8l12 60h233l-11 -56zM297 654q0 37 28 62t67 25q31 0 48.5 -17t17.5 -45q0 -38 -28 -63.5t-66 -25.5q-31 0 -49 17.5t-18 46.5z" />
    <glyph glyph-name="H.smcp" horiz-adv-x="637" 
d="M194 69l52 -8l-12 -61h-237l11 57l58 20l80 414l-52 8l12 61h237l-11 -57l-58 -20l-30 -157h192l32 165l-52 8l12 61h236l-11 -57l-58 -20l-80 -414l52 -8l-12 -61h-236l11 57l57 20l32 165h-192z" />
    <glyph glyph-name="Hbar.smcp" horiz-adv-x="637" 
d="M70 378l16 76h53l7 37l-52 8l12 61h237l-11 -57l-58 -20l-6 -29h193l7 37l-52 8l12 61h236l-11 -57l-58 -20l-6 -29h55l-15 -76h-55l-59 -309l52 -8l-12 -61h-236l11 57l57 20l32 165h-192l-33 -173l52 -8l-12 -61h-237l11 57l58 20l58 301h-54zM244 326h192l10 52h-192z
" />
    <glyph glyph-name="Hcircumflex.smcp" horiz-adv-x="637" 
d="M194 69l52 -8l-12 -61h-237l11 57l58 20l80 414l-52 8l12 61h237l-11 -57l-58 -20l-30 -157h192l32 165l-52 8l12 61h236l-11 -57l-58 -20l-80 -414l52 -8l-12 -61h-236l11 57l57 20l32 165h-192zM263 612l151 134h15l98 -134l-58 -23l-68 57l-89 -57z" />
    <glyph glyph-name="I.smcp" horiz-adv-x="316" 
d="M194 69l52 -8l-12 -61h-237l11 57l58 20l80 414l-52 8l12 61h237l-11 -57l-58 -20z" />
    </font>
</defs>
</svg>
