<?xml version="1.0" standalone="no"?>
<!DOCTYPE svg PUBLIC "-//W3C//DTD SVG 1.1//EN" "http://www.w3.org/Graphics/SVG/1.1/DTD/svg11.dtd" >
<svg xmlns="http://www.w3.org/2000/svg" xmlns:xlink="http://www.w3.org/1999/xlink" version="1.1">
<metadata>
Created by FontForge 20161013 at Fri Mar  6 19:06:39 2015
 By ,,,
Copyright (c) 2015 by Andriy Konstantynov. All rights reserved.
</metadata>
<defs>
<font id="DiariaPro-MediumItalic" horiz-adv-x="571" >
  <font-face 
    font-family="DiariaPro-MediumItalic"
    font-weight="400"
    font-style="italic"
    font-stretch="normal"
    units-per-em="1000"
    panose-1="2 13 0 3 3 2 0 0 0 0"
    ascent="761"
    descent="-239"
    x-height="528"
    cap-height="700"
    bbox="-167 -259 1159 954"
    underline-thickness="50"
    underline-position="-150"
    slope="-11"
    unicode-range="U+0020-FB04"
  />
<missing-glyph horiz-adv-x="253" 
 />
    <glyph glyph-name="ff" unicode="ff" horiz-adv-x="667" 
d="M157 -209l25 77q32 -18 74 -18q14 0 28.5 2.5t21.5 5.5l8 2q23 28 43 140l80 450h-200l-80 -450q-23 -131 -77 -185t-145 -54q-21 0 -42.5 2.5t-32.5 4.5l-10 3l25 77q33 -18 75 -18q14 0 27 2.5t19 5.5l6 2q31 39 53 160l80 450h-73l10 59l76 12q23 127 72.5 172.5
t141.5 45.5q24 0 46 -2.5t32 -4.5l10 -3l-24 -77q-33 18 -76 18q-14 0 -28 -2.5t-21 -5.5l-7 -2q-24 -26 -44 -139h200q24 132 77.5 185t144.5 53q21 0 42 -2.5t32 -4.5l10 -3l-24 -77q-33 18 -75 18q-14 0 -27 -2.5t-18 -5.5l-6 -2q-33 -37 -54 -159h150l-13 -71h-150
l-79 -450q-23 -127 -73.5 -173t-140.5 -46q-25 0 -47 2.5t-32 4.5z" />
    <glyph glyph-name="fi" unicode="fi" horiz-adv-x="587" 
d="M250 521h226q38 0 51 -12.5t8 -41.5l-73 -375q-6 -30 26 -22q22 5 50 23l6 -48q-6 -6 -16.5 -14.5t-44.5 -23t-68 -14.5q-77 0 -60 79l68 348q4 22 -6.5 26t-67.5 4h-112l-80 -450q-23 -131 -77 -185t-145 -54q-21 0 -42.5 2.5t-32.5 4.5l-10 3l25 77q33 -18 75 -18
q14 0 27 2.5t19 5.5l6 2q31 38 53 160l79 450h-73l11 59l75 12q24 130 87.5 184t168.5 54q77 0 119.5 -24.5t42.5 -65.5q0 -27 -18.5 -43t-48.5 -16q-22 0 -32 9t-12.5 22t-7.5 25.5t-23.5 21.5t-52.5 9q-20 0 -37 -3t-24 -6l-7 -3q-30 -39 -52 -164z" />
    <glyph glyph-name="fl" unicode="fl" horiz-adv-x="597" 
d="M2 -160q31 40 53 160l79 450h-73l11 59l75 12q24 131 77.5 184.5t143.5 53.5q45 0 85 -10q37 7 77 7q39 0 52.5 -15.5t7.5 -45.5l-118 -603q-6 -30 26 -22q22 5 50 23l7 -48q-6 -6 -17 -14.5t-44.5 -23t-67.5 -14.5q-38 0 -53.5 18.5t-7.5 60.5l118 601q-47 17 -111 17
q-24 0 -42 -3t-24 -7l-6 -3q-29 -35 -50 -156h133l-13 -71h-133l-80 -450q-23 -131 -77 -185t-145 -54q-21 0 -42.5 2.5t-32.5 4.5l-10 3l25 77q33 -18 75 -18q14 0 27 2.5t19 5.5z" />
    <glyph glyph-name="ffi" unicode="ffi" horiz-adv-x="888" 
d="M552 521h225q39 0 52 -12.5t7 -41.5l-73 -375q-6 -30 26 -22q22 5 50 23l7 -48q-6 -6 -17 -14.5t-45 -23t-68 -14.5q-38 0 -53 18.5t-7 60.5l67 343q5 22 -6 28.5t-58 6.5h-120l-80 -450q-23 -128 -73.5 -173.5t-142.5 -45.5q-23 0 -44.5 2.5t-31.5 4.5l-10 3l24 77
q33 -18 75 -18q14 0 28.5 2.5t21.5 5.5l8 2q21 25 42 140l80 450h-199l-80 -450q-23 -131 -77 -185t-145 -54q-21 0 -42.5 2.5t-32.5 4.5l-10 3l25 77q33 -18 75 -18q14 0 27 2.5t19 5.5l6 2q31 39 53 160l80 450h-73l10 59l76 12q23 127 72.5 172.5t141.5 45.5
q24 0 46 -2.5t32 -4.5l10 -3l-24 -77q-33 18 -76 18q-14 0 -28 -2.5t-22 -5.5l-7 -2q-23 -26 -43 -139h199q23 130 86.5 184t168.5 54q77 0 119.5 -24.5t42.5 -65.5q0 -27 -18.5 -43t-49.5 -16q-21 0 -31 9t-12.5 22t-7.5 25.5t-23 21.5t-52 9q-20 0 -37 -3t-24 -6l-7 -3
q-30 -38 -52 -164z" />
    <glyph glyph-name="ffl" unicode="ffl" horiz-adv-x="893" 
d="M313 -146q23 34 43 146l80 450h-199l-80 -450q-23 -131 -77 -185t-145 -54q-21 0 -42.5 2.5t-32.5 4.5l-10 3l25 77q33 -18 75 -18q14 0 27 2.5t19 5.5l6 2q31 38 53 160l80 450h-73l10 59l76 12q23 127 72.5 172.5t141.5 45.5q24 0 46 -2.5t32 -4.5l10 -3l-24 -77
q-33 18 -76 18q-14 0 -28 -2.5t-21 -5.5l-7 -2q-24 -27 -44 -139h199q23 131 77 184.5t144 53.5q41 0 81 -10q37 7 74 7q72 0 61 -61l-118 -603q-6 -30 26 -22q22 5 50 23l7 -48q-6 -6 -17 -14.5t-45 -23t-68 -14.5q-38 0 -53 18.5t-7 60.5l118 600q-42 18 -106 18
q-24 0 -41 -3t-22 -7l-6 -3q-31 -34 -52 -156h142l-13 -71h-142l-80 -450q-23 -128 -73.5 -176t-141.5 -48q-24 0 -46 2.5t-32 5.5l-10 2l25 76q32 -17 75 -17q14 0 28 2.5t22 4.5z" />
    <glyph glyph-name="f_f_j" unicode="ffj" horiz-adv-x="900" 
d="M552 521h236q39 0 52 -12.5t8 -41.5l-84 -427q-25 -130 -80 -184.5t-147 -54.5q-21 0 -42 2.5t-31 4.5l-11 3l26 77q32 -18 75 -18q14 0 27 2.5t19 5.5l6 2q32 38 55 159l74 376q4 22 -7 28.5t-58 6.5h-131l-80 -450q-23 -128 -73.5 -173.5t-142.5 -45.5q-23 0 -44.5 2.5
t-31.5 4.5l-10 3l24 77q33 -18 75 -18q14 0 28.5 2.5t21.5 5.5l8 2q21 25 42 140l80 450h-199l-80 -450q-23 -131 -77 -185t-145 -54q-21 0 -42.5 2.5t-32.5 4.5l-10 3l25 77q33 -18 75 -18q14 0 27 2.5t19 5.5l6 2q31 39 53 160l80 450h-73l10 59l76 12q23 127 72.5 172.5
t141.5 45.5q24 0 46 -2.5t32 -4.5l10 -3l-24 -77q-33 18 -76 18q-14 0 -28 -2.5t-22 -5.5l-7 -2q-23 -26 -43 -139h199q23 130 86.5 184t168.5 54q77 0 119.5 -24.5t42.5 -65.5q0 -27 -18.5 -43t-49.5 -16q-21 0 -31 9t-12.5 22t-7.5 25.5t-23 21.5t-52 9q-20 0 -37 -3
t-24 -6l-7 -3q-30 -38 -52 -164z" />
    <glyph glyph-name="f_j" unicode="fj" horiz-adv-x="598" 
d="M61 450l11 59l75 12q24 130 87.5 184t168.5 54q77 0 119.5 -24.5t42.5 -65.5q0 -27 -18.5 -43t-48.5 -16q-22 0 -32 9t-12.5 22t-7.5 25.5t-23.5 21.5t-52.5 9q-20 0 -37 -3t-24 -6l-7 -3q-30 -39 -52 -164h237q39 0 52 -12.5t7 -41.5l-85 -435q-26 -131 -80.5 -185
t-146.5 -54q-21 0 -42 2.5t-32 4.5l-10 3l26 76q32 -17 75 -17q14 0 27 2t19 4l6 3q31 39 55 160l76 389q4 22 -6.5 26t-66.5 4h-124l-80 -450q-22 -130 -76 -184.5t-146 -54.5q-21 0 -42.5 2.5t-32.5 4.5l-10 3l25 77q33 -18 75 -18q14 0 27 2.5t19 5.5l6 2q31 38 53 160
l79 450h-73z" />
    <glyph glyph-name="afii10104_afii10104" unicode="&#x457;&#x457;" horiz-adv-x="592" 
d="M82 657q0 28 19 47t47 19q22 0 34 -12.5t12 -32.5q0 -28 -19.5 -46.5t-47.5 -18.5q-21 0 -33 12t-12 32zM314 657q0 28 19.5 47t47.5 19q21 0 33.5 -12.5t12.5 -32.5q0 -28 -19.5 -46.5t-48.5 -18.5q-20 0 -32.5 12t-12.5 32zM64 464l8 48q71 16 115 16q71 0 60 -61
l-74 -375q-6 -30 26 -22q22 5 50 23l7 -48q-6 -6 -17 -14.5t-44.5 -23t-67.5 -14.5q-38 0 -53.5 18.5t-7.5 60.5l72 362q4 22 -5.5 26t-68.5 4zM546 657q0 28 19.5 47t47.5 19q21 0 33 -12.5t12 -32.5q0 -28 -19 -46.5t-48 -18.5q-20 0 -32.5 12t-12.5 32zM360 464l8 48
q71 16 115 16q72 0 59 -61l-73 -375q-6 -30 26 -22q22 5 50 23l7 -48q-6 -6 -17 -14.5t-44.5 -23t-67.5 -14.5q-38 0 -53.5 18.5t-7.5 60.5l71 362q5 22 -4.5 26t-68.5 4z" />
    <glyph glyph-name=".notdef" horiz-adv-x="253" 
 />
    <glyph glyph-name=".null" horiz-adv-x="0" 
 />
    <glyph glyph-name="nonmarkingreturn" horiz-adv-x="333" 
 />
    <glyph glyph-name="space" unicode=" " horiz-adv-x="253" 
 />
    <glyph glyph-name="exclam" unicode="!" horiz-adv-x="302" 
d="M48 47q0 34 23.5 56.5t56.5 22.5q25 0 40 -15t15 -39q0 -34 -23.5 -56.5t-57.5 -22.5q-25 0 -39.5 14.5t-14.5 39.5zM103 204l50 316l35 180h105l-35 -180l-71 -316h-84z" />
    <glyph glyph-name="quotedbl" unicode="&#x22;" horiz-adv-x="404" 
d="M121 426l49 254h94l-70 -254h-73zM279 426l50 254h93l-70 -254h-73z" />
    <glyph glyph-name="numbersign" unicode="#" horiz-adv-x="605" 
d="M97 511h106l36 189h72l-36 -189h155l36 189h73l-36 -189h89v-65h-101l-36 -192h95v-65h-107l-35 -189h-72l35 189h-155l-35 -189h-72l35 189h-88v65h100l35 192h-94v65zM263 446l-35 -192h155l35 192h-155z" />
    <glyph glyph-name="dollar" unicode="$" horiz-adv-x="543" 
d="M175 -75l14 65q-58 1 -103 12.5t-62 23.5l-16 11l33 166h69l-1 -112q29 -21 96 -24l51 239q-16 6 -24 10q-63 26 -97 65t-34 106q0 41 11.5 76.5t37.5 68t75 53t116 23.5l9 42h53l-9 -42q48 -3 85.5 -14.5t51.5 -21.5l14 -10l-33 -164h-72l7 111q-22 18 -69 24l-50 -237
q2 -1 8.5 -3.5t10.5 -3.5q68 -28 103.5 -66t35.5 -105q0 -41 -12 -76.5t-38 -68.5t-75.5 -54.5t-118.5 -26.5l-14 -67h-53zM382 193q0 34 -20.5 55.5t-57.5 37.5l-46 -218q22 2 42.5 6t30.5 7l10 3q41 52 41 109zM207 516q0 -65 72 -99l46 217q-20 -2 -40.5 -6t-30.5 -7
l-10 -3q-37 -44 -37 -102z" />
    <glyph glyph-name="percent" unicode="%" horiz-adv-x="826" 
d="M176 0h-79l599 700h79zM101 487q0 96 57 158t142 62q61 0 96 -37.5t35 -105.5q0 -97 -57.5 -159t-142.5 -62q-61 0 -95.5 38t-34.5 106zM180 488q0 -86 66 -86q12 0 24.5 2.5t19.5 5.5l7 2q6 6 15 18.5t24 52t15 81.5q0 84 -64 84q-12 0 -25 -3t-20 -5l-8 -3
q-6 -6 -15 -17.5t-24 -50.5t-15 -81zM442 137q0 96 57 158t142 62q61 0 95.5 -37.5t34.5 -105.5q0 -97 -57.5 -159t-141.5 -62q-61 0 -95.5 38t-34.5 106zM521 138q0 -86 65 -86q12 0 25 2.5t20 5.5l7 2q6 6 15 18.5t24 52t15 81.5q0 84 -64 84q-12 0 -25 -3t-21 -5l-7 -3
q-6 -6 -15 -17.5t-24 -50.5t-15 -81z" />
    <glyph glyph-name="ampersand" unicode="&#x26;" horiz-adv-x="687" 
d="M609 300q-19 -87 -97 -175l47 -68l59 -7l-11 -50h-135l-47 69q-87 -78 -213 -78q-87 0 -133.5 40t-46.5 117q0 83 49 135.5t137 98.5q-40 72 -40 136q0 84 58 135.5t151 51.5q140 0 140 -121q0 -39 -14.5 -70.5t-45 -56.5t-56.5 -40t-71 -37l140 -207q42 55 56 127l5 31
l-60 7l10 51h194l-9 -48l-62 -16zM255 67q77 0 143 43l-150 224q-53 -31 -82.5 -69t-29.5 -92q0 -106 119 -106zM275 533q0 -48 34 -106q65 34 99 66t34 77q0 63 -71 63q-18 0 -35.5 -3.5t-25.5 -7.5l-9 -4q-26 -30 -26 -85z" />
    <glyph glyph-name="quotesingle" unicode="'" horiz-adv-x="246" 
d="M121 426l49 254h94l-70 -254h-73z" />
    <glyph glyph-name="parenleft" unicode="(" horiz-adv-x="302" 
d="M52 202q0 77 16.5 150t43 127t58.5 101.5t64 79.5t58.5 55.5t43.5 34.5l16 10l12 -23q-9 -9 -23.5 -26t-51.5 -74t-65.5 -119.5t-51.5 -159.5t-23 -197q0 -50 5.5 -94.5t13.5 -72t16.5 -47.5t13.5 -29l6 -8l-22 -22q-5 3 -14 9t-31.5 31t-39.5 57t-31 90t-14 127z" />
    <glyph glyph-name="parenright" unicode=")" horiz-adv-x="302" 
d="M291 445q0 -77 -16.5 -149.5t-43 -126.5t-58.5 -101.5t-64.5 -79.5t-59 -55.5t-43.5 -34.5l-16 -10l-12 22q9 9 23.5 26t51.5 74t65.5 119.5t51.5 159.5t23 197q0 50 -5.5 94.5t-13.5 72t-16.5 47.5t-13.5 28l-6 9l22 23q5 -3 14 -9t31.5 -31t40 -57t31.5 -90.5
t14 -127.5z" />
    <glyph glyph-name="asterisk" unicode="*" horiz-adv-x="476" 
d="M285 456l-105 -133l-61 51l125 116l-143 35l43 82l129 -61l15 154h88l-45 -154l153 61l11 -82l-156 -35l79 -116l-81 -51z" />
    <glyph glyph-name="plus" unicode="+" horiz-adv-x="502" 
d="M79 307v66h158v158h66v-158h159v-66h-159v-158h-66v158h-158z" />
    <glyph glyph-name="comma" unicode="," horiz-adv-x="229" 
d="M-19 -146l-14 27q10 6 24 17t40.5 42t30.5 58q-43 3 -43 51q0 32 22.5 54t55.5 22q52 0 52 -64q0 -38 -17.5 -73t-42 -58.5t-49 -41.5t-42.5 -26z" />
    <glyph glyph-name="hyphen" unicode="-" horiz-adv-x="345" 
d="M66 271l14 72h234l-14 -72h-234z" />
    <glyph glyph-name="period" unicode="." horiz-adv-x="228" 
d="M16 48q0 33 23 55.5t56 22.5q25 0 40 -15t15 -40q0 -33 -23 -55.5t-56 -22.5q-26 0 -40.5 14.5t-14.5 40.5z" />
    <glyph glyph-name="slash" unicode="/" horiz-adv-x="406" 
d="M21 -100h-75l473 850h75z" />
    <glyph glyph-name="zero" unicode="0" horiz-adv-x="581" 
d="M55 254q0 183 93.5 309t224.5 126q91 0 140.5 -67t49.5 -196q0 -184 -93 -309.5t-224 -125.5q-91 0 -141 67.5t-50 195.5zM162 233q0 -168 99 -168q20 0 41.5 6.5t32.5 12.5l11 7q5 6 12 16.5t26.5 46.5t34 74.5t26.5 98t12 119.5q0 168 -98 168q-20 0 -42 -6.5
t-33 -13.5l-12 -6q-4 -6 -11.5 -17t-26.5 -48t-33.5 -76t-26.5 -97.5t-12 -116.5z" />
    <glyph glyph-name="one" unicode="1" horiz-adv-x="439" 
d="M123 581l11 53q124 16 226 54l9 -10l-120 -612l105 -7l-11 -59h-323l11 59l118 17l98 505h-124z" />
    <glyph glyph-name="two" unicode="2" horiz-adv-x="549" 
d="M549 550q0 -50 -24.5 -95t-71.5 -87.5t-97.5 -80.5t-122.5 -95.5t-127 -111.5h260l47 103h70l-49 -183h-436l16 80q60 64 130 125t117.5 98.5t89.5 76t63 76.5t21 81q0 38 -22.5 58t-77.5 20q-32 0 -60 -6.5t-39 -12.5l-12 -7l-49 -107h-70l44 161q8 5 23.5 12.5t69 20.5
t112.5 13q195 0 195 -139z" />
    <glyph glyph-name="three" unicode="3" horiz-adv-x="545" 
d="M485 225q0 -108 -83.5 -171t-214.5 -63q-56 0 -102.5 12t-64.5 24l-18 12l30 59q53 -35 158 -35q28 0 57.5 3.5t44.5 7.5l16 3q3 2 7 6t15 17.5t19.5 29t15.5 41t7 53.5q0 54 -26 78t-85 24h-43l-8 10l11 56q21 5 74.5 60t96.5 108l43 52h-208l-49 -112h-69l47 180h396
l-13 -68q-119 -142 -216 -223l-1 -4q163 -22 163 -160z" />
    <glyph glyph-name="four" unicode="4" horiz-adv-x="585" 
d="M537 680l-84 -429h88l-14 -76h-87l-22 -115l84 -7l-10 -53h-275l10 48l90 16l21 109h-313l8 42l394 465h110zM145 253h211l64 325z" />
    <glyph glyph-name="five" unicode="5" horiz-adv-x="523" 
d="M471 229q0 -111 -79.5 -174.5t-214.5 -63.5q-58 0 -104.5 12t-64.5 24l-17 12l31 59q52 -35 152 -35q27 0 56.5 3.5t45.5 6.5l15 3q7 6 18 17.5t29 49t18 78.5q0 65 -46.5 94t-152.5 29h-59l-8 10l102 326h337l-15 -80h-268l-60 -186q143 -3 214 -43t71 -142z" />
    <glyph glyph-name="six" unicode="6" horiz-adv-x="567" 
d="M546 654l-29 -55q-50 18 -123 18q-38 0 -68.5 -6.5t-41.5 -12.5l-11 -6q-8 -9 -20 -26t-39 -74t-41 -119q71 45 167 45q84 0 131 -40.5t47 -125.5q0 -110 -75 -185.5t-195 -75.5q-100 0 -148 61.5t-48 192.5q0 85 20 162t59.5 141.5t107 102.5t154.5 38q42 0 80.5 -8.5
t55.5 -17.5zM308 347q-69 0 -146 -31q-6 -42 -6 -91q0 -85 24.5 -123.5t84.5 -38.5q20 0 40 3.5t31 7.5l10 4q7 7 18 20.5t29 57t18 90.5q0 54 -24.5 77.5t-78.5 23.5z" />
    <glyph glyph-name="seven" unicode="7" horiz-adv-x="528" 
d="M231 0h-115q36 99 90 197t140.5 230t118.5 185h-253l-49 -112h-69l48 180h431l-8 -42q-33 -60 -114 -195t-133.5 -237.5t-86.5 -205.5z" />
    <glyph glyph-name="eight" unicode="8" horiz-adv-x="565" 
d="M29 128q0 130 164 209q-77 46 -77 137q0 89 63 152t192 63q177 0 177 -130q0 -40 -16 -75.5t-42 -60.5t-47.5 -39.5t-44.5 -26.5q49 -23 76.5 -57t27.5 -92q0 -93 -70.5 -155.5t-207.5 -62.5q-195 0 -195 138zM400 191q0 15 -3.5 28t-12.5 23t-16 17t-24 14.5t-25.5 11.5
t-31 12t-31.5 11l-7 2q-118 -67 -118 -155t120 -88q27 0 54 4.5t41 9.5l13 5q41 49 41 105zM219 497q0 -25 8.5 -43t29.5 -32t35 -20.5t47 -19.5q113 67 113 154q0 79 -101 79q-25 0 -49 -4.5t-36 -9.5l-11 -5q-36 -45 -36 -99z" />
    <glyph glyph-name="nine" unicode="9" horiz-adv-x="566" 
d="M34 31l30 60q45 -28 136 -28q38 0 69.5 6.5t44.5 12.5l12 6q8 9 20.5 26t40.5 74.5t43 120.5q-64 -44 -166 -44q-177 0 -177 163q0 110 74.5 185.5t195.5 75.5q100 0 147.5 -61t47.5 -192q0 -87 -20 -164.5t-61.5 -141.5t-112 -101.5t-163.5 -37.5q-49 0 -89 10t-56 20z
M296 336q70 0 145 30q6 44 6 92q0 84 -24 122t-83 38q-20 0 -40 -4t-30 -8l-10 -4q-7 -7 -18 -20t-29.5 -56.5t-18.5 -90.5q0 -53 24 -76t78 -23z" />
    <glyph glyph-name="colon" unicode=":" horiz-adv-x="243" 
d="M23 47q0 34 23 56.5t57 22.5q25 0 39.5 -15t14.5 -39q0 -34 -23.5 -56.5t-56.5 -22.5q-25 0 -39.5 14.5t-14.5 39.5zM101 450q0 34 23 56t57 22q25 0 39.5 -14.5t14.5 -39.5q0 -33 -23 -55.5t-56 -22.5q-25 0 -40 14.5t-15 39.5z" />
    <glyph glyph-name="semicolon" unicode=";" horiz-adv-x="243" 
d="M-12 -146l-14 27q10 6 24 17t40.5 42t30.5 58q-43 3 -43 51q0 32 22.5 54t55.5 22q53 0 53 -64q0 -38 -17.5 -73t-42.5 -58t-49.5 -41t-41.5 -27zM101 451q0 33 23.5 55t56.5 22q26 0 40.5 -14.5t14.5 -39.5q0 -33 -23.5 -55.5t-56.5 -22.5q-26 0 -40.5 15t-14.5 40z" />
    <glyph glyph-name="less" unicode="&#x3c;" horiz-adv-x="502" 
d="M65 373l383 165v-73l-287 -125l287 -125v-73l-383 165v66z" />
    <glyph glyph-name="equal" unicode="=" horiz-adv-x="502" 
d="M76 468h383v-65h-383v65zM459 211h-383v66h383v-66z" />
    <glyph glyph-name="greater" unicode="&#x3e;" horiz-adv-x="502" 
d="M463 373v-66l-383 -165v73l287 125l-287 125v73z" />
    <glyph glyph-name="question" unicode="?" horiz-adv-x="493" 
d="M133 48q0 33 23.5 55.5t56.5 22.5q25 0 40 -15t15 -40q0 -33 -23 -55.5t-56 -22.5q-26 0 -41 14.5t-15 40.5zM187 204l22 157q96 57 139 101.5t43 99.5q0 73 -86 73q-28 0 -52.5 -6.5t-34.5 -12.5l-11 -7l-49 -107h-69l44 161q8 5 22 12.5t63 20.5t102 13
q94 0 139.5 -35.5t45.5 -97.5q0 -67 -48.5 -120t-147.5 -113l-38 -139h-84z" />
    <glyph glyph-name="at" unicode="@" horiz-adv-x="803" 
d="M444 239q35 50 52 146l15 81q-24 9 -51 9q-16 0 -31 -2.5t-23 -5.5l-7 -3q-6 -8 -14 -22t-22 -59t-14 -92q0 -37 10 -52.5t33 -15.5q12 0 25 4t20 8zM494 261h-4q-15 -43 -50.5 -68t-78.5 -25q-46 0 -68.5 28t-22.5 90q0 105 56.5 174.5t153.5 69.5q28 0 57.5 -6
t45.5 -12l16 -6l-47 -241q-4 -22 3 -30t30 -8q15 0 33 3.5t28 6.5l10 3q6 8 15 23.5t24.5 68t15.5 110.5q0 107 -54 159.5t-172 52.5q-50 0 -96.5 -8t-68.5 -16l-22 -9q-6 -5 -16 -14.5t-35 -43.5t-44 -71t-35 -97t-16 -123q0 -120 59.5 -173.5t190.5 -53.5q64 0 122.5 10.5
t85.5 21.5l27 11l14 -28q-1 0 -16 -8.5t-27.5 -14.5t-37.5 -15.5t-49.5 -16t-59.5 -11t-72 -4.5q-156 0 -238 73.5t-82 214.5q0 184 126 308t314 124q134 0 208.5 -67.5t74.5 -187.5q0 -121 -70.5 -203t-162.5 -82q-35 0 -56.5 16.5t-12.5 55.5z" />
    <glyph glyph-name="A" unicode="A" horiz-adv-x="710" 
d="M390 700h102l10 -12l97 -628l72 -7l-11 -53h-268l10 49l76 18l-20 142h-253l-80 -149l74 -7l-10 -53h-232l10 50l72 17zM377 532l-136 -252h208l-35 252q-4 40 -4 65h-5q-16 -41 -28 -65z" />
    <glyph glyph-name="B" unicode="B" horiz-adv-x="621" 
d="M296 0h-303l10 50l76 17l112 574l-72 7l10 52h280q92 0 148.5 -42t56.5 -114q0 -58 -37.5 -108t-91.5 -72q-10 -2 -16 -2v-3q8 0 14 -2q39 -14 64 -50t25 -89q0 -97 -77.5 -157.5t-198.5 -60.5zM334 321h-100l-48 -249h106q24 0 48.5 3t37.5 6l13 3q3 2 7.5 5.5t16 16
t20.5 27.5t16.5 38.5t7.5 49.5q0 100 -125 100zM372 629h-78l-46 -236h84q24 0 49 2.5t37 5.5l13 3l8 5q4 3 15.5 15t20.5 25.5t16 36t7 46.5q0 97 -126 97z" />
    <glyph glyph-name="C" unicode="C" horiz-adv-x="588" 
d="M525 498l-6 113q-37 23 -105 23q-33 0 -64 -7t-46 -14l-14 -7q-5 -5 -13.5 -15t-30 -43.5t-38 -71t-30 -96t-13.5 -120.5q0 -195 144 -195q25 0 52 5.5t42 11.5l15 5l51 117h69l-45 -171q-90 -42 -192 -42q-118 0 -182.5 72.5t-64.5 212.5q0 187 108 310t279 123
q48 0 91.5 -10.5t62.5 -21.5l19 -11l-20 -168h-69z" />
    <glyph glyph-name="D" unicode="D" horiz-adv-x="660" 
d="M284 0h-291l10 50l76 17l112 573l-72 7l10 53h291q107 0 168 -70.5t61 -205.5q0 -183 -105 -303.5t-260 -120.5zM397 629h-103l-109 -558h109q29 0 57 5.5t41 11.5l14 6l14 14q9 9 32 41.5t40 69.5t31.5 96t14.5 123q0 191 -141 191z" />
    <glyph glyph-name="E" unicode="E" horiz-adv-x="596" 
d="M497 0h-504l10 50l76 17l112 573l-72 7l10 53h491l-21 -177h-70l-6 106h-229l-46 -238h120l30 81h58l-46 -234h-58l2 81h-121l-48 -248h242l48 109h70z" />
    <glyph glyph-name="F" unicode="F" horiz-adv-x="569" 
d="M257 0h-264l10 50l76 17l112 573l-72 7l10 53h485l-22 -180h-70l-5 109h-223l-48 -246h118l29 82h58l-45 -234h-58l2 81h-118l-48 -251l84 -4z" />
    <glyph glyph-name="G" unicode="G" horiz-adv-x="623" 
d="M552 296l-50 -261q-88 -44 -197 -44q-122 0 -186.5 72t-64.5 213q0 187 107.5 310t278.5 123q49 0 92 -10.5t62 -21.5l19 -11l-19 -168h-70l-6 113q-36 23 -104 23q-33 0 -64 -7t-46 -14l-14 -7q-5 -5 -13.5 -15t-30 -43.5t-38 -71t-30 -96.5t-13.5 -121q0 -194 144 -194
q50 0 109 22l41 216l-84 7l10 53h249l-10 -50z" />
    <glyph glyph-name="H" unicode="H" horiz-adv-x="731" 
d="M183 60l72 -7l-11 -53h-251l10 50l76 17l112 573l-72 7l10 53h251l-9 -50l-76 -17l-47 -242h294l49 249l-72 7l10 53h252l-10 -50l-76 -17l-112 -573l72 -7l-10 -53h-252l10 50l76 17l49 252h-295z" />
    <glyph glyph-name="I" unicode="I" horiz-adv-x="331" 
d="M183 60l72 -7l-11 -53h-251l10 50l76 17l112 573l-72 7l10 53h251l-9 -50l-76 -17z" />
    <glyph glyph-name="J" unicode="J" horiz-adv-x="447" 
d="M415 633l-88 -452q-17 -88 -76.5 -139t-150.5 -51q-29 0 -55.5 5.5t-38.5 11.5l-11 5l26 70q28 -18 81 -18q17 0 36 2.5t29 4.5l10 3q31 37 48 120l86 443l-85 4l11 58h264l-9 -50z" />
    <glyph glyph-name="K" unicode="K" horiz-adv-x="660" 
d="M183 60l72 -7l-11 -53h-251l10 50l76 17l112 573l-72 7l10 53h251l-9 -50l-76 -17l-48 -249l82 13l221 243l-69 7l10 53h228l-10 -50l-73 -17l-236 -257l141 -316l70 -7l-10 -53h-159l-142 326h-65z" />
    <glyph glyph-name="L" unicode="L" horiz-adv-x="574" 
d="M487 0h-494l10 50l76 17l112 573l-72 7l10 53h251l-9 -50l-76 -17l-110 -562h232l49 112h69z" />
    <glyph glyph-name="M" unicode="M" horiz-adv-x="891" 
d="M139 60l75 -7l-11 -53h-232l10 50l78 17l158 573l-74 7l10 53h207l73 -456q5 -33 5 -59h4q15 38 28 62l249 453h198l-10 -50l-76 -17l-66 -573l72 -7l-11 -53h-251l10 50l76 17l55 464l5 40h-4q-4 -18 -16 -40l-246 -452h-91l-11 13l-75 439q-2 20 0 41h-3q-1 -7 -9 -41z
" />
    <glyph glyph-name="N" unicode="N" horiz-adv-x="733" 
d="M157 60l74 -7l-9 -53h-232l10 50l79 17l111 573l-75 7l11 53h177l211 -462q9 -18 16 -49l3 1q1 13 7 48l78 402l-75 7l11 53h232l-11 -50l-79 -17l-122 -633h-75l-231 499q-11 24 -15 49l-3 -1l-7 -48z" />
    <glyph glyph-name="O" unicode="O" horiz-adv-x="659" 
d="M53 272q0 187 105.5 312t258.5 125q109 0 170 -71.5t61 -208.5q0 -187 -105.5 -312.5t-257.5 -125.5q-110 0 -171 72t-61 209zM164 257q0 -192 138 -192q28 0 55 6.5t41 12.5l13 7q5 5 13.5 15t30.5 44t38.5 72t30 98t13.5 123q0 191 -137 191q-28 0 -56 -7t-42 -13
l-14 -7q-5 -5 -13.5 -15t-30 -44t-37.5 -71.5t-29.5 -97.5t-13.5 -122z" />
    <glyph glyph-name="P" unicode="P" horiz-adv-x="608" 
d="M184 61l84 -4l-11 -57h-264l10 50l76 17l112 573l-72 7l10 53h286q94 0 147.5 -45.5t53.5 -129.5q0 -104 -79.5 -169.5t-201.5 -65.5h-107zM378 629h-84l-52 -267h89q23 0 47 3t36 5l13 3q8 6 20.5 17.5t33 50t20.5 82.5q0 106 -123 106z" />
    <glyph glyph-name="Q" unicode="Q" horiz-adv-x="659" 
d="M54 273q0 186 105 311t257 125q110 0 171.5 -72t61.5 -205q0 -147 -71.5 -263t-188.5 -156v-3q43 -27 100.5 -46t92.5 -25l36 -6l-39 -92q-6 1 -17.5 2.5t-45.5 12t-66 25t-74 44.5t-76 68q-16 -2 -24 -2q-103 0 -162.5 73.5t-59.5 208.5zM165 258q0 -193 139 -193
q27 0 53.5 6.5t40.5 12.5l13 7q5 5 13.5 15t30.5 44.5t39 72.5t30.5 98t13.5 123q0 190 -137 190q-28 0 -56 -7t-43 -13l-14 -7q-5 -5 -13.5 -15t-29.5 -44.5t-37 -72t-29.5 -96.5t-13.5 -121z" />
    <glyph glyph-name="R" unicode="R" horiz-adv-x="642" 
d="M183 60l72 -7l-11 -53h-251l10 50l76 17l112 573l-72 7l10 53h286q93 0 147 -45t54 -127t-54 -140.5t-143 -79.5l104 -248l70 -7l-10 -53h-162l-105 299h-86zM378 629h-84l-50 -258h89q23 0 47 2.5t36 5.5l13 3q3 2 8 6t17.5 17t22 28.5t17.5 40t8 51.5q0 104 -124 104z
" />
    <glyph glyph-name="S" unicode="S" horiz-adv-x="543" 
d="M382 194q0 18 -7 33t-15 24.5t-26 20t-29.5 15.5t-36.5 14.5t-36 14.5q-63 27 -97 65.5t-34 107.5q0 41 12.5 77.5t41 70t82 53t127.5 19.5q58 0 103 -11.5t61 -23.5l17 -12l-33 -164h-72l7 111q-28 26 -97 26q-24 0 -50 -4t-40 -8l-14 -4q-39 -45 -39 -104
q0 -14 3.5 -26.5t8 -21.5t15 -18.5t17 -14.5t22 -13t22.5 -11t26.5 -10.5t25.5 -10.5q70 -29 104.5 -66.5t34.5 -106.5q0 -42 -13.5 -79.5t-44.5 -72t-90 -54.5t-140 -20q-61 0 -108.5 12t-64.5 24l-17 11l33 166h69l-1 -112q34 -24 114 -24q29 0 58 4t43 8l15 4
q43 53 43 111z" />
    <glyph glyph-name="T" unicode="T" horiz-adv-x="631" 
d="M334 60l72 -7l-11 -53h-251l10 50l76 17l109 562h-139l-50 -122h-70l51 193h550l-24 -193h-70l-3 122h-140z" />
    <glyph glyph-name="U" unicode="U" horiz-adv-x="722" 
d="M692 633l-75 -384q-24 -121 -106.5 -189.5t-195.5 -68.5t-171.5 66.5t-36.5 180.5l79 402l-72 7l11 53h254l-10 -50l-76 -17l-77 -395q-35 -176 132 -176q28 0 54 4.5t38 9.5l12 4q7 6 18 17t34 54.5t33 96.5l76 392l-75 7l10 53h232l-9 -50z" />
    <glyph glyph-name="V" unicode="V" horiz-adv-x="697" 
d="M360 0h-102l-9 12l-95 628l-71 7l10 53h271l-10 -50l-79 -15l62 -467q4 -27 4 -65h5q16 41 28 65l242 472l-72 7l10 53h230l-10 -50l-73 -17z" />
    <glyph glyph-name="W" unicode="W" horiz-adv-x="1039" 
d="M340 0h-102l-9 12l-73 625l-73 10l10 53h273l-10 -50l-79 -12l38 -465q0 -1 2 -25t2 -37h4q3 9 26 62l232 517h99l35 -517q0 -1 2 -25.5t2 -36.5h4q13 34 27 62l210 467l-71 7l10 53h223l-9 -50l-75 -17l-302 -633h-101l-10 12l-32 490q-3 41 -1 58h-5q-1 -2 -23 -58z
" />
    <glyph glyph-name="X" unicode="X" horiz-adv-x="687" 
d="M663 633l-232 -289l139 -284l69 -7l-11 -53h-273l10 50l81 15l-91 208q-2 4 -5 11t-5.5 12.5t-4.5 11.5h-4q-4 -6 -8.5 -12.5t-10 -13.5t-8.5 -11l-176 -211l70 -7l-11 -53h-226l10 50l76 17l250 297l-128 276l-69 7l10 53h274l-10 -50l-87 -15l88 -200q12 -26 15 -37h3
q2 3 25 38l158 204l-69 7l10 53h226l-9 -50z" />
    <glyph glyph-name="Y" unicode="Y" horiz-adv-x="667" 
d="M658 633l-254 -328l-47 -245l71 -7l-11 -53h-251l10 50l77 17l46 236l-138 337l-69 7l11 53h271l-10 -50l-82 -15l86 -220q12 -31 14 -40h4q11 16 29 41l163 224l-70 7l11 53h226l-10 -50z" />
    <glyph glyph-name="Z" unicode="Z" horiz-adv-x="585" 
d="M-3 0l8 42l465 587h-258l-48 -112h-70l49 183h478l-8 -42l-466 -587h274l35 112h73l-36 -183h-496z" />
    <glyph glyph-name="bracketleft" unicode="[" horiz-adv-x="348" 
d="M408 750l-13 -66h-113l-146 -751h113l-13 -66h-207l172 883h207z" />
    <glyph glyph-name="backslash" unicode="\" horiz-adv-x="406" 
d="M326 -100h-66l-144 850h67z" />
    <glyph glyph-name="bracketright" unicode="]" horiz-adv-x="348" 
d="M-24 -133l13 66h113l146 751h-113l13 66h207l-172 -883h-207z" />
    <glyph glyph-name="asciicircum" unicode="^" horiz-adv-x="445" 
d="M110 526l201 182h14l130 -182l-39 -27l-115 121l-163 -121z" />
    <glyph glyph-name="underscore" unicode="_" horiz-adv-x="502" 
d="M-41 -133v66h500v-66h-500z" />
    <glyph glyph-name="grave" unicode="`" horiz-adv-x="391" 
d="M172 691l77 65l103 -155l-49 -22z" />
    <glyph glyph-name="a" unicode="a" horiz-adv-x="563" 
d="M37 166q0 153 83.5 258.5t225.5 105.5q40 0 82.5 -8.5t65.5 -17.5l22 -8l-79 -404q-6 -31 28 -22q21 6 48 23l7 -48q-6 -6 -15.5 -14.5t-40 -22.5t-59.5 -14q-31 0 -41 18.5t0 77.5l10 46h-6q-22 -66 -75.5 -105.5t-122.5 -39.5q-68 0 -100.5 42t-32.5 133zM298 89
q51 77 79 223l26 133q-39 14 -84 14q-26 0 -49.5 -5t-33.5 -10l-11 -5l-9 -12q-6 -8 -20.5 -34t-26 -55t-20.5 -74.5t-9 -92.5q0 -59 16 -83.5t53 -24.5q21 0 43 6.5t34 12.5z" />
    <glyph glyph-name="b" unicode="b" horiz-adv-x="555" 
d="M527 356q0 -154 -84 -259.5t-228 -105.5q-40 0 -82 8.5t-65 16.5l-22 9l124 637q4 22 -3 26q-11 4 -71 4l9 49q70 15 115 15q70 0 59 -61l-20 -108q-6 -29 -22 -86t-21 -83h5q15 42 66 77t114 35q64 0 95 -42t31 -132zM187 210l-28 -135q42 -12 84 -12q26 0 49.5 5
t33.5 10l11 5l9 12q6 8 21 34t26 55t20.5 74.5t9.5 92.5q0 58 -15.5 83t-54.5 25q-20 0 -42 -6.5t-33 -13.5l-12 -7q-6 -9 -15 -25.5t-30.5 -74t-33.5 -122.5z" />
    <glyph glyph-name="c" unicode="c" horiz-adv-x="494" 
d="M387 361l2 80q-20 18 -72 18q-24 0 -46 -4.5t-33 -8.5l-10 -5q-3 -3 -8.5 -9t-19 -27.5t-23.5 -45.5t-18.5 -63t-8.5 -80q0 -80 30.5 -116t90.5 -36q30 0 63.5 8t52.5 16l19 9l9 -55q-9 -6 -24.5 -14.5t-62 -22.5t-91.5 -14q-94 0 -145.5 55.5t-51.5 157.5
q0 133 82.5 229.5t213.5 96.5q44 0 82 -11t54 -23l15 -11l-25 -124h-75z" />
    <glyph glyph-name="d" unicode="d" horiz-adv-x="567" 
d="M36 163q0 153 84.5 260t215.5 107q46 0 86 -14l29 146q5 22 -4.5 26t-69.5 4l9 49q70 15 115 15q70 0 59 -61l-118 -603q-6 -31 28 -22q21 7 48 24l7 -49q-6 -6 -15.5 -14.5t-40 -22.5t-59.5 -14q-31 0 -41 18.5t0 77.5l10 46h-6q-22 -64 -75.5 -104.5t-125.5 -40.5
q-69 0 -102.5 41t-33.5 131zM304 89q50 77 78 223l24 124q-43 23 -91 23q-21 0 -43 -5t-34 -10l-11 -5q-4 -4 -9.5 -12t-20.5 -34t-26.5 -55t-21 -74t-9.5 -92q0 -59 16.5 -84t54.5 -25q21 0 44.5 6.5t36.5 12.5z" />
    <glyph glyph-name="e" unicode="e" horiz-adv-x="485" 
d="M477 414q0 -86 -83.5 -138.5t-243.5 -54.5v-1q0 -156 121 -156q29 0 63 8t53 16l19 9l9 -55q-9 -6 -24 -14.5t-62 -22.5t-93 -14q-94 0 -144.5 56.5t-50.5 157.5q0 134 82.5 229.5t212.5 95.5q141 0 141 -116zM227 443q-6 -7 -16 -19.5t-29.5 -54.5t-27.5 -89
q110 2 163.5 34t53.5 86q0 59 -65 59q-17 0 -36.5 -4t-31.5 -8z" />
    <glyph glyph-name="f" unicode="f" horiz-adv-x="365" 
d="M61 450l11 59l75 12q24 131 77.5 184.5t145.5 53.5q21 0 42 -2.5t32 -4.5l10 -3l-24 -77q-33 18 -76 18q-14 0 -26.5 -2.5t-18.5 -5.5l-6 -2q-32 -38 -53 -159h150l-13 -71h-150l-80 -450q-23 -131 -77 -185t-145 -54q-21 0 -42.5 2.5t-32.5 4.5l-10 3l25 77
q33 -18 75 -18q14 0 27 2.5t19 5.5l6 2q31 40 53 160l79 450h-73z" />
    <glyph glyph-name="g" unicode="g" horiz-adv-x="539" 
d="M37 165q0 154 83 259.5t226 105.5q40 0 82.5 -8.5t65.5 -17.5l22 -8l-99 -506q-22 -116 -86 -172.5t-181 -56.5q-40 0 -77 6t-53 12l-17 6l16 82q61 -32 144 -32q26 0 52 4t39 8l14 4q5 6 12.5 17.5t26 58t29.5 104.5l14 72h-4q-16 -42 -68.5 -77t-115.5 -35
q-125 0 -125 174zM299 88q50 78 78 224l25 133q-36 14 -83 14q-26 0 -49.5 -5t-33.5 -10l-11 -5l-9 -12q-6 -8 -20.5 -34t-26 -55t-20.5 -74.5t-9 -92.5q0 -59 16 -83.5t54 -24.5q20 0 42.5 6.5t34.5 12.5z" />
    <glyph glyph-name="h" unicode="h" horiz-adv-x="595" 
d="M545 93l7 -48q-6 -6 -16.5 -14.5t-44.5 -23t-68 -14.5q-77 0 -60 79l51 263q13 73 2 98.5t-52 25.5q-25 0 -50 -6.5t-38 -13.5l-12 -7q-50 -76 -79 -222l-40 -210h-104l130 662q4 22 -5.5 26t-68.5 4l8 49q71 15 116 15q70 0 59 -61l-22 -108q-6 -32 -22.5 -91t-21.5 -78
h6q16 43 75 77.5t128 34.5q70 0 92.5 -46.5t-0.5 -162.5l-45 -229q-6 -31 28 -22q21 7 47 23z" />
    <glyph glyph-name="i" unicode="i" horiz-adv-x="299" 
d="M64 463l9 49q70 16 115 16q70 0 59 -61l-74 -375q-6 -30 26 -22q22 5 50 23l7 -48q-6 -6 -17 -14.5t-44.5 -23t-67.5 -14.5q-38 0 -53.5 18.5t-7.5 60.5l72 362q4 22 -5 25.5t-69 3.5zM153 673q0 34 24.5 57.5t59.5 23.5q27 0 42.5 -15.5t15.5 -41.5q0 -34 -24.5 -57
t-59.5 -23q-27 0 -42.5 15t-15.5 41z" />
    <glyph glyph-name="j" unicode="j" horiz-adv-x="279" 
d="M153 672q0 36 24 59t60 23q27 0 42.5 -15.5t15.5 -40.5q0 -35 -24 -58t-60 -23q-27 0 -42.5 15t-15.5 40zM64 463l9 49q70 16 115 16q70 0 59 -61l-91 -467q-26 -131 -81 -185t-146 -54q-21 0 -42 2.5t-31 4.5l-11 3l26 77q32 -18 74 -18q14 0 27.5 2.5t19.5 5.5l6 2
q32 40 55 160l85 434q4 22 -5 25.5t-69 3.5z" />
    <glyph glyph-name="k" unicode="k" horiz-adv-x="546" 
d="M498 88l7 -48q-5 -5 -14.5 -12.5t-36.5 -20.5t-53 -13q-65 0 -105 81l-101 185l-50 -260h-104l130 662q4 22 -5.5 26t-68.5 4l8 49q71 15 116 15q70 0 59 -61l-81 -416q27 9 55 21t65.5 32t61 47t23.5 55q0 18 -14 25t-56 7l8 47q61 14 98 14q32 0 46.5 -15t13.5 -48
q-1 -32 -18.5 -63.5t-41 -53t-55 -41.5t-50.5 -29.5t-36 -16.5l104 -167q13 -21 36.5 -22t40.5 8z" />
    <glyph glyph-name="l" unicode="l" horiz-adv-x="286" 
d="M96 692l9 49q71 15 115 15q70 0 59 -61l-117 -603q-6 -31 28 -22q21 7 47 23l7 -48q-6 -6 -17 -14.5t-44.5 -23t-67.5 -14.5q-76 0 -61 79l116 590q4 22 -3 26q-11 4 -71 4z" />
    <glyph glyph-name="m" unicode="m" horiz-adv-x="891" 
d="M451 0h-102l66 335q13 72 2.5 98t-50.5 26q-24 0 -47 -6.5t-34 -12.5l-11 -7q-48 -74 -75 -212l-44 -221h-102l84 434q4 22 -5 25.5t-69 3.5l9 49q49 16 96 16q34 0 44 -15t0 -68l-13 -59h6q23 62 81.5 103t131.5 41q54 0 77.5 -26t25.5 -82q31 47 82.5 77.5t112.5 30.5
q72 0 94 -48t0 -161l-45 -229q-6 -30 26 -22q22 5 50 23l7 -48q-6 -6 -17 -14.5t-45 -23t-68 -14.5q-38 0 -53 18.5t-7 60.5l52 263q13 72 2.5 98t-50.5 26q-24 0 -46.5 -6.5t-33.5 -12.5l-11 -7q-5 -7 -14 -22t-29.5 -70t-33.5 -121z" />
    <glyph glyph-name="n" unicode="n" horiz-adv-x="607" 
d="M558 93l6 -48q-6 -6 -16.5 -14.5t-44.5 -23t-68 -14.5q-77 0 -60 79l51 263q14 72 3 98t-54 26q-25 0 -49.5 -6.5t-37.5 -13.5l-12 -7q-6 -9 -15 -25.5t-30.5 -74t-33.5 -122.5l-41 -210h-102l84 434q4 22 -5 25.5t-69 3.5l9 49q49 16 96 16q34 0 44 -15t0 -68l-13 -59h6
q24 63 85 103.5t138 40.5q75 0 97.5 -48t0.5 -161l-44 -224q-6 -30 27 -24q21 5 48 20z" />
    <glyph glyph-name="o" unicode="o" horiz-adv-x="540" 
d="M41 197q0 144 85.5 238.5t210.5 94.5q87 0 133 -51.5t46 -152.5q0 -144 -84.5 -239.5t-210.5 -95.5q-88 0 -134 52.5t-46 153.5zM148 204q0 -141 100 -141q17 0 36.5 3.5t30.5 7.5l11 4q3 3 9 9.5t20 29.5t25 48t20 66t9 84q0 144 -99 144q-16 0 -36 -4t-32 -8l-11 -4
q-3 -4 -9 -11t-20 -30.5t-25 -49.5t-20 -66.5t-9 -81.5z" />
    <glyph glyph-name="p" unicode="p" horiz-adv-x="574" 
d="M21 -166l117 599q4 23 -5 26.5t-69 3.5l9 49q49 16 96 16q34 0 44 -15t0 -68l-13 -59h6q21 62 75.5 103t127.5 41q68 0 101.5 -41t33.5 -131q0 -153 -84.5 -260t-216.5 -107q-43 0 -86 13l-35 -177l92 -7l-10 -50h-259l10 47zM197 210l-24 -125q44 -22 91 -22q21 0 43 5
t33 10l12 5q4 4 9.5 12t20.5 34t26.5 55t21 74t9.5 91q0 60 -16.5 85t-55.5 25q-21 0 -44 -6.5t-35 -12.5l-13 -7q-50 -77 -78 -223z" />
    <glyph glyph-name="q" unicode="q" horiz-adv-x="540" 
d="M37 165q0 154 83 259.5t227 105.5q40 0 82 -8.5t65 -17.5l22 -8l-131 -669l62 -7l-10 -50h-228l9 47l66 17l19 95q6 31 24.5 99.5t19.5 74.5h-4q-17 -42 -68 -77t-113 -35q-125 0 -125 174zM299 88q50 78 78 224l26 133q-39 14 -84 14q-26 0 -49.5 -5t-33.5 -10l-11 -5
l-9 -12q-6 -8 -20.5 -34t-26 -55t-20.5 -74.5t-9 -92.5q0 -59 16 -83.5t54 -24.5q20 0 42 6.5t34 12.5z" />
    <glyph glyph-name="r" unicode="r" horiz-adv-x="416" 
d="M435 528l-18 -95q-22 5 -47 5q-27 0 -53 -7t-39 -14l-12 -7q-41 -55 -69 -200l-41 -210h-102l84 434q4 22 -5 25.5t-69 3.5l9 49q49 16 96 16q35 0 44.5 -15t-0.5 -68l-15 -69h5q19 66 72 110t123 44z" />
    <glyph glyph-name="s" unicode="s" horiz-adv-x="480" 
d="M327 142q0 19 -7 32.5t-24 23.5t-31 15.5t-40 14.5q-30 9 -48 16.5t-41 23t-34 39.5t-11 57q0 68 51 117t160 49q32 0 59 -4.5t43 -11.5t28 -13.5t16 -10.5l5 -5l-23 -122h-75l2 81q-20 18 -72 18q-18 0 -37.5 -2.5t-30.5 -5.5l-11 -2q-24 -30 -24 -66q0 -19 7 -33
t24 -24t32 -16t43 -15q31 -9 48.5 -16.5t39.5 -22t32.5 -38t10.5 -55.5q0 -73 -56 -124t-175 -51q-34 0 -63 4.5t-46.5 11t-30 13.5t-16.5 12l-5 4l25 123h75l-2 -81q23 -18 83 -18q21 0 44 2.5t36 5.5l12 2q27 34 27 72z" />
    <glyph glyph-name="t" unicode="t" horiz-adv-x="390" 
d="M68 450l12 59l66 12l34 100h87l-19 -100h150l-14 -71h-150l-60 -309q-16 -77 50 -77q20 0 43 7.5t36 14.5l13 8l7 -49q-5 -6 -16 -15t-48 -24t-79 -15q-138 0 -109 149l60 310h-63z" />
    <glyph glyph-name="u" unicode="u" horiz-adv-x="604" 
d="M64 463l8 49q71 16 116 16q71 0 58 -61l-54 -281q-13 -74 -2 -98.5t51 -24.5q25 0 50 6.5t37 12.5l12 6q6 9 15.5 26t30.5 75t33 123l41 209h103l-84 -429q-6 -31 28 -22q21 6 48 23l7 -48q-6 -6 -16 -14.5t-40 -22.5t-59 -14q-31 0 -41 18.5t0 77.5l10 46h-6
q-23 -61 -82.5 -103t-137.5 -42q-75 0 -97.5 48.5t-0.5 160.5l45 234q5 22 -4 25.5t-69 3.5z" />
    <glyph glyph-name="v" unicode="v" horiz-adv-x="561" 
d="M379 466l9 46q53 15 91 15q68 0 68 -65q0 -41 -26 -104t-62.5 -123t-73.5 -114.5t-63 -87.5l-25 -33h-104l-73 434q-4 22 -14.5 25.5t-71.5 3.5l8 49q50 16 95 16q76 0 84 -61l58 -400q170 277 170 367q0 18 -14 24.5t-56 7.5z" />
    <glyph glyph-name="w" unicode="w" horiz-adv-x="827" 
d="M644 466l8 46q52 15 91 15q67 0 67 -66q0 -41 -22.5 -103.5t-54 -122.5t-63.5 -114t-54 -87l-23 -34h-91l-59 345q-23 -74 -58 -160.5t-59 -135.5l-24 -49h-108l-74 434q-4 22 -14.5 25.5t-71.5 3.5l8 49q47 16 91 16q77 0 85 -61l58 -381q134 289 134 435h91l75 -434
q138 261 138 345q0 20 -14 26.5t-56 7.5z" />
    <glyph glyph-name="x" unicode="x" horiz-adv-x="543" 
d="M488 88l7 -48q-5 -5 -13.5 -12.5t-35 -20.5t-51.5 -13q-60 0 -84 63l-55 145q-60 -113 -113 -162t-108 -49q-14 0 -26.5 2.5t-18.5 4.5l-5 3l16 86q16 -20 49 -20l34 4q69 70 144 206l-59 158q-7 18 -17 21t-62 3l-5 46q37 21 88 21q68 0 92 -61l47 -126
q55 104 101.5 147.5t97.5 43.5q14 0 27 -2.5t18 -5.5l6 -2l-15 -85q-17 20 -49 20l-35 -6q-53 -63 -123 -186l65 -171q8 -20 28.5 -21t37.5 8z" />
    <glyph glyph-name="y" unicode="y" horiz-adv-x="561" 
d="M-86 -227l16 84q32 -27 95 -27q17 0 32.5 2.5t22.5 5.5l8 2q45 41 112 137l-79 457q-4 22 -14.5 25.5t-71.5 3.5l10 49q48 16 93 16q73 0 80 -61l57 -398q77 115 126 219.5t49 144.5q0 19 -15 25.5t-56 7.5l9 46q53 15 91 15q68 0 68 -62t-71.5 -201.5t-173.5 -272.5
q-96 -126 -164.5 -178t-140.5 -52q-24 0 -44.5 3t-29.5 6z" />
    <glyph glyph-name="z" unicode="z" horiz-adv-x="504" 
d="M484 483l-342 -395q81 -21 129 -21q14 0 27.5 2t19.5 4l7 2q15 27 28 83h90q-22 -113 -38 -140t-64 -27q-50 0 -126 16.5t-92 16.5q-37 0 -65 -33q-29 0 -38.5 9.5t-9.5 37.5l348 403q-73 20 -114 20q-11 0 -25 -2t-22 -4l-8 -2q-17 -30 -31 -89h-86q21 110 37.5 138
t65.5 28q45 0 115 -13.5t84 -13.5q33 0 62 27q30 0 39 -9t9 -38z" />
    <glyph glyph-name="braceleft" unicode="{" horiz-adv-x="377" 
d="M93 24l39 152q14 51 -6.5 75.5t-77.5 24.5l13 65q110 0 122 100l20 152q10 88 59 122.5t174 34.5l-12 -66q-65 0 -92.5 -20.5t-32.5 -70.5l-20 -152q-11 -96 -102 -133q76 -37 51 -132l-40 -152q-14 -50 5.5 -70.5t83.5 -20.5l-13 -66q-124 0 -159.5 35t-11.5 122z" />
    <glyph glyph-name="bar" unicode="|" horiz-adv-x="259" 
d="M175 -100h-65v850h65v-850z" />
    <glyph glyph-name="braceright" unicode="}" horiz-adv-x="377" 
d="M228 176l-19 -152q-10 -88 -59 -122.5t-174 -34.5l13 66q65 0 91.5 20.5t32.5 70.5l20 152q11 95 101 133q-75 38 -50 132l40 152q13 50 -5.5 70.5t-83.5 20.5l13 66q124 0 160 -35t12 -122l-39 -152q-27 -100 83 -100l-13 -65q-111 0 -123 -100z" />
    <glyph glyph-name="asciitilde" unicode="~" horiz-adv-x="492" 
d="M82 254l-20 28q10 12 27 29t60 46t75 29q27 0 72 -29.5t66 -29.5l89 64l19 -28q-10 -12 -27 -29t-59.5 -45.5t-73.5 -28.5q-27 0 -72 29.5t-65 29.5z" />
    <glyph glyph-name="exclamdown" unicode="&#xa1;" horiz-adv-x="302" 
d="M231 416l-51 -316l-35 -180h-105l35 180l72 316h84zM284 573q0 -34 -23.5 -56.5t-56.5 -22.5q-25 0 -40 15t-15 39q0 34 23.5 56.5t57.5 22.5q25 0 39.5 -14.5t14.5 -39.5z" />
    <glyph glyph-name="cent" unicode="&#xa2;" horiz-adv-x="495" 
d="M475 361h-69l1 80q-20 12 -55 16l-84 -393h2q33 0 68.5 8t53.5 16l19 9l9 -55q-74 -47 -167 -51l-13 -60h-53l13 64q-74 11 -116.5 66.5t-42.5 146.5q0 123 74 215.5t198 104.5l9 43h54l-9 -42q37 -2 70.5 -11.5t48.5 -17.5l15 -9zM150 210q0 -112 67 -138l81 385
q-18 -2 -34.5 -6.5t-23.5 -8.5l-8 -3q-3 -3 -8.5 -9.5t-20 -29t-25 -47t-19.5 -63.5t-9 -80z" />
    <glyph glyph-name="sterling" unicode="&#xa3;" 
d="M128 493q0 46 10 81.5t34.5 67.5t73 49.5t119.5 17.5q57 0 102.5 -11.5t62.5 -23.5l17 -11l-19 -161h-69l-7 107q-25 27 -100 27q-24 0 -47 -3.5t-34 -6.5l-11 -4q-4 -4 -10 -13t-16 -41t-10 -69q0 -16 2 -34t6 -42.5t6 -36.5h142l-14 -71h-130q-14 -83 -133 -235h272
l47 103h70l-49 -183h-441l9 46q8 13 28.5 47t27 45t21.5 37t20 38.5t13.5 32.5t12 36t5.5 33h-73l11 58l61 12q-10 80 -10 108z" />
    <glyph glyph-name="yen" unicode="&#xa5;" horiz-adv-x="667" 
d="M146 281l11 60h129l-125 299l-69 7l11 53h272l-10 -50l-80 -15l86 -214l14 -41h4q10 17 29 42l162 218l-70 7l11 53h224l-10 -50l-77 -17l-230 -292h131l-11 -60h-149l-15 -77h148l-11 -60h-148l-16 -84l71 -7l-11 -53h-251l10 50l77 17l15 77h-148l11 60h148l15 77h-148
z" />
    <glyph glyph-name="brokenbar" unicode="&#xa6;" horiz-adv-x="259" 
d="M175 750v-350h-65v350h65zM175 -100h-65v350h65v-350z" />
    <glyph glyph-name="section" unicode="&#xa7;" horiz-adv-x="478" 
d="M451 323q0 -49 -24.5 -89.5t-68.5 -63.5q43 -34 43 -101q0 -23 -4.5 -44.5t-19 -47t-37.5 -43.5t-65.5 -30.5t-97.5 -12.5q-50 0 -91.5 9.5t-57.5 19.5l-17 9l25 128h74v-81q28 -17 83 -17q22 0 44 3.5t33 7.5l10 3q28 31 28 69q0 15 -7 27.5t-15 20t-27.5 17t-30 13.5
t-36.5 13q-73 25 -105.5 54.5t-32.5 88.5q0 50 25.5 91t71.5 64q-36 33 -36 95q0 82 53.5 132.5t161.5 50.5q47 0 86 -9.5t54 -19.5l16 -10l-25 -128h-75l2 81q-25 17 -74 17q-20 0 -40 -3.5t-30 -6.5l-9 -4q-27 -32 -27 -70q0 -18 7 -31.5t25 -24t32 -16.5t44 -17
q37 -14 56 -23.5t40.5 -26t30 -39t8.5 -55.5zM147 312q-1 -12 1 -22t4.5 -17t11.5 -14t14 -11.5t19 -10t21 -8t25.5 -8.5t25.5 -9q24 -8 35 -13q56 45 56 100q0 9 -1.5 16t-5.5 13t-7.5 10.5t-11.5 9.5t-13.5 8t-17.5 7.5t-19 7t-22.5 8t-24.5 8.5q-34 13 -36 14
q-47 -37 -54 -89z" />
    <glyph glyph-name="dieresis" unicode="&#xa8;" horiz-adv-x="426" 
d="M147 657q0 28 19.5 47t47.5 19q21 0 33.5 -12.5t12.5 -32.5q0 -28 -19.5 -46.5t-48.5 -18.5q-20 0 -32.5 12t-12.5 32zM341 657q0 28 19.5 47t47.5 19q21 0 33.5 -12.5t12.5 -32.5q0 -28 -19.5 -46.5t-48.5 -18.5q-20 0 -32.5 12t-12.5 32z" />
    <glyph glyph-name="copyright" unicode="&#xa9;" horiz-adv-x="779" 
d="M56 286q0 179 121.5 299t297.5 120q135 0 213 -76.5t78 -214.5q0 -178 -121.5 -298.5t-297.5 -120.5q-136 0 -213.5 76.5t-77.5 214.5zM117 298q0 -117 65.5 -180.5t178.5 -63.5q39 0 81.5 7.5t65.5 14.5l22 8q7 4 19 12.5t42 38.5t52.5 64t41.5 89t19 114
q0 116 -65.5 180t-179.5 64q-40 0 -83 -8t-66 -16l-22 -8q-7 -4 -18.5 -12.5t-41 -38t-52 -63t-41 -88.5t-18.5 -114zM517 429l-5 60q-22 13 -62 13q-20 0 -38.5 -4t-26.5 -8l-8 -3q-3 -3 -7.5 -8t-16.5 -22.5t-21 -37t-16.5 -51t-7.5 -65.5q0 -107 86 -107q15 0 31 3t25 6
l8 3l30 63h41l-27 -96q-53 -22 -113 -22q-71 0 -110 40t-39 118q0 103 62.5 168.5t163.5 65.5q28 0 54 -5.5t38 -11.5l11 -6l-11 -93h-41z" />
    <glyph glyph-name="ordfeminine" unicode="&#xaa;" horiz-adv-x="405" 
d="M79 467q0 108 59.5 182t160.5 74q29 0 59.5 -6t47.5 -12l16 -6l-55 -278q-4 -21 19 -16q14 4 33 16l5 -39q-35 -37 -85 -37q-51 0 -30 75l5 21h-4q-17 -46 -54 -71.5t-82 -25.5q-48 0 -71.5 29.5t-23.5 93.5zM260 417q35 52 53 152l18 89q-27 9 -53 9q-17 0 -32.5 -3.5
t-22.5 -7.5l-7 -3q-6 -8 -15 -22.5t-24 -62t-15 -97.5q0 -39 9.5 -55t34.5 -16q13 0 26.5 4t20.5 8z" />
    <glyph glyph-name="guillemotleft" unicode="&#xab;" horiz-adv-x="482" 
d="M209 128l-150 165l3 14l214 165l20 -33l-147 -139l93 -139zM379 128l-149 165l3 14l213 165l21 -33l-147 -139l93 -139z" />
    <glyph glyph-name="registered" unicode="&#xae;" horiz-adv-x="779" 
d="M56 287q0 178 121.5 298t297.5 120q136 0 213.5 -77t77.5 -214q0 -178 -122 -298.5t-297 -120.5q-136 0 -213.5 77t-77.5 215zM117 298q0 -117 65.5 -180.5t178.5 -63.5q39 0 81.5 7.5t65.5 14.5l22 8q7 4 19 12.5t42 38.5t52.5 64t41.5 89t19 114q0 116 -65.5 180
t-179.5 64q-40 0 -83 -8t-66 -16l-22 -8q-7 -4 -18.5 -12.5t-41 -38t-52 -63t-41 -88.5t-18.5 -114zM327 199l43 -4l-7 -31h-150l6 29l45 10l60 310l-43 4l6 31h171q57 0 89.5 -25t32.5 -71q0 -45 -31 -77t-83 -43l64 -133l41 -4l-6 -31h-97l-66 163h-50zM435 506h-49
l-26 -136h53l56 6q5 2 12 7.5t18.5 24t11.5 41.5q0 57 -76 57z" />
    <glyph glyph-name="macron" unicode="&#xaf;" horiz-adv-x="426" 
d="M147 627l12 66h277l-13 -66h-276z" />
    <glyph glyph-name="degree" unicode="&#xb0;" horiz-adv-x="361" 
d="M94 553q11 60 55 95.5t105 35.5q62 0 93 -35.5t20 -95.5q-12 -60 -57 -95.5t-107 -35.5q-61 0 -91 35.5t-18 95.5zM162 557q-13 -78 58 -78q12 0 25 2.5t21 4.5l7 2q18 22 26 60q7 38 -8 58.5t-49 20.5q-12 0 -26 -2.5t-22 -4.5l-7 -3q-17 -22 -25 -60z" />
    <glyph glyph-name="plusminus" unicode="&#xb1;" horiz-adv-x="502" 
d="M78 399v65h158v159h66v-159h158v-65h-158v-159h-66v159h-158zM78 109v65h382v-65h-382z" />
    <glyph glyph-name="twosuperior" unicode="&#xb2;" horiz-adv-x="352" 
d="M382 627q0 -43 -32.5 -76.5t-104 -82t-114.5 -87.5h140l28 52h48l-29 -107h-259l11 55q49 50 113 98.5t91.5 75.5t27.5 58q0 42 -52 42q-16 0 -30 -3.5t-20 -6.5l-6 -3l-28 -55h-48l27 94q41 24 120 24q117 0 117 -78z" />
    <glyph glyph-name="threesuperior" unicode="&#xb3;" horiz-adv-x="352" 
d="M349 451q0 -62 -47.5 -96.5t-124.5 -34.5q-34 0 -62 7t-39 13l-12 7l20 41q32 -19 92 -19q16 0 31.5 1.5t23.5 3.5l8 2q32 25 32 72q0 27 -14 39t-44 12l-30 -1q0 3 1 9q0 10 2 19.5t4 13.5l2 4q13 3 41 30.5t49 53.5l22 26h-106l-29 -60h-48l28 106h236l-9 -46
q-62 -71 -118 -115q43 -6 67 -25.5t24 -62.5z" />
    <glyph glyph-name="acute" unicode="&#xb4;" horiz-adv-x="391" 
d="M189 601l163 155l52 -65l-175 -112z" />
    <glyph glyph-name="paragraph" unicode="&#xb6;" horiz-adv-x="632" 
d="M393 -100l141 729h-106l-142 -729h-65l75 390q-92 0 -146 44t-54 123q0 112 78.5 177.5t201.5 65.5h310l-9 -53l-75 -7l-143 -740h-66z" />
    <glyph glyph-name="periodcentered" unicode="&#xb7;" horiz-adv-x="223" 
d="M69 348q0 34 23 56t56 22q25 0 40 -14.5t15 -39.5q0 -33 -23.5 -55.5t-56.5 -22.5q-25 0 -39.5 14.5t-14.5 39.5z" />
    <glyph glyph-name="cedilla" unicode="&#xb8;" horiz-adv-x="334" 
d="M80 -88l29 98h49l-23 -74q2 0 6.5 -0.5t15 -4t18.5 -8.5t14.5 -16.5t6.5 -26.5q0 -38 -34.5 -61t-91.5 -23q-18 0 -34 2.5t-23 5.5l-7 2l21 49q17 -15 51 -15l35 4q11 18 11 35q0 13 -11 21.5t-22 9.5z" />
    <glyph glyph-name="onesuperior" unicode="&#xb9;" horiz-adv-x="352" 
d="M141 634l7 36q98 15 158 35l6 -7l-64 -329l77 -4l-8 -39h-232l8 39l85 11l50 258h-87z" />
    <glyph glyph-name="ordmasculine" unicode="&#xba;" horiz-adv-x="388" 
d="M82 488q0 102 60.5 168.5t151.5 66.5q126 0 126 -142q0 -102 -60.5 -169.5t-150.5 -67.5q-127 0 -127 144zM168 493q0 -93 62 -93q12 0 25 2.5t20 5.5l7 2q6 6 15 18.5t23.5 55t14.5 89.5q0 94 -63 94q-11 0 -24 -2.5t-20 -5.5l-8 -3q-6 -7 -14.5 -20.5t-23 -56
t-14.5 -86.5z" />
    <glyph glyph-name="guillemotright" unicode="&#xbb;" horiz-adv-x="482" 
d="M136 472l149 -165l-3 -14l-213 -165l-21 33l147 139l-92 139zM306 472l150 -165l-3 -14l-214 -165l-20 33l147 139l-93 139z" />
    <glyph glyph-name="onequarter" unicode="&#xbc;" horiz-adv-x="806" 
d="M442 92l6 29l212 253h75l-45 -228h49l-10 -53h-47l-10 -52l45 -5l-7 -36h-164l6 31l49 12l9 49h-168zM189 0h-79l586 700h79zM141 634l7 36q98 15 158 35l6 -7l-64 -329l77 -4l-8 -39h-232l8 39l85 11l50 258h-87zM520 147h104l32 160z" />
    <glyph glyph-name="onehalf" unicode="&#xbd;" horiz-adv-x="813" 
d="M141 634l7 36q98 15 158 35l6 -7l-64 -329l77 -4l-8 -39h-232l8 39l85 11l50 258h-87zM189 0h-79l586 700h79zM783 301q0 -43 -33 -77t-104.5 -82.5t-112.5 -86.5h139l28 53h48l-29 -108h-258l10 55q52 53 117 101t90.5 74t25.5 62q0 37 -54 37q-15 0 -28.5 -3t-19.5 -6
l-6 -3l-29 -56h-48l27 94q42 25 119 25q118 0 118 -79z" />
    <glyph glyph-name="threequarters" unicode="&#xbe;" horiz-adv-x="806" 
d="M442 92l5 29l213 253h75l-45 -228h48l-10 -53h-47l-10 -52l46 -5l-7 -36h-165l7 31l48 12l10 49h-168zM189 0h-79l586 700h79zM349 451q0 -62 -48 -96.5t-126 -34.5q-34 0 -61.5 7t-38.5 13l-11 7l20 41q32 -19 92 -19q16 0 31.5 1.5t23.5 3.5l8 2q32 25 32 72
q0 27 -14 39t-44 12l-30 -1q0 4 1 9q0 9 2 18.5t4 14.5l2 4q12 3 40 30.5t50 53.5l22 26h-106l-29 -60h-48l28 106h236l-9 -46q-63 -71 -118 -115v-1q47 -7 69 -27t22 -60zM520 147h104l31 159z" />
    <glyph glyph-name="questiondown" unicode="&#xbf;" horiz-adv-x="493" 
d="M387 571q-1 -33 -24.5 -54.5t-55.5 -21.5q-25 0 -40 14.5t-15 40.5q0 33 23.5 55.5t56.5 22.5q26 0 41 -15.5t14 -41.5zM332 417l-21 -157q-96 -57 -139 -101.5t-43 -99.5q0 -73 86 -73q28 0 52 6.5t35 13.5l10 6l50 107h69l-44 -161q-8 -5 -22.5 -12.5t-63.5 -20.5
t-102 -13q-91 0 -137.5 35t-46.5 98q0 66 48.5 120t147.5 113l37 139h84z" />
    <glyph glyph-name="Agrave" unicode="&#xc0;" horiz-adv-x="710" 
d="M390 700h102l10 -12l97 -628l72 -7l-11 -53h-268l10 49l76 18l-20 142h-253l-80 -149l74 -7l-10 -53h-232l10 50l72 17zM377 532l-136 -252h208l-35 252q-4 40 -4 65h-5q-16 -41 -28 -65zM331 853l77 65l103 -155l-49 -22z" />
    <glyph glyph-name="Aacute" unicode="&#xc1;" horiz-adv-x="710" 
d="M390 700h102l10 -12l97 -628l72 -7l-11 -53h-268l10 49l76 18l-20 142h-253l-80 -149l74 -7l-10 -53h-232l10 50l72 17zM377 532l-136 -252h208l-35 252q-4 40 -4 65h-5q-16 -41 -28 -65zM374 763l163 155l53 -65l-175 -112z" />
    <glyph glyph-name="Acircumflex" unicode="&#xc2;" horiz-adv-x="710" 
d="M390 700h102l10 -12l97 -628l72 -7l-11 -53h-268l10 49l76 18l-20 142h-253l-80 -149l74 -7l-10 -53h-232l10 50l72 17zM377 532l-136 -252h208l-35 252q-4 40 -4 65h-5q-16 -41 -28 -65zM305 763l166 148h13l108 -148l-49 -22l-83 82l-115 -82z" />
    <glyph glyph-name="Atilde" unicode="&#xc3;" horiz-adv-x="710" 
d="M390 700h102l10 -12l97 -628l72 -7l-11 -53h-268l10 49l76 18l-20 142h-253l-80 -149l74 -7l-10 -53h-232l10 50l72 17zM377 532l-136 -252h208l-35 252q-4 40 -4 65h-5q-16 -41 -28 -65zM308 771l-20 28q8 9 21 22t49 35t66 22q24 0 59 -19.5t60 -19.5l65 41l19 -28
q-8 -9 -21 -22t-48.5 -34.5t-65.5 -21.5q-24 0 -59 19.5t-59 19.5z" />
    <glyph glyph-name="Adieresis" unicode="&#xc4;" horiz-adv-x="710" 
d="M390 700h102l10 -12l97 -628l72 -7l-11 -53h-268l10 49l76 18l-20 142h-253l-80 -149l74 -7l-10 -53h-232l10 50l72 17zM377 532l-136 -252h208l-35 252q-4 40 -4 65h-5q-16 -41 -28 -65zM305 813q0 29 19.5 47.5t47.5 18.5q21 0 33 -12.5t12 -32.5q0 -28 -19 -46.5
t-48 -18.5q-21 0 -33 12t-12 32zM499 813q0 29 19.5 47.5t47.5 18.5q21 0 33 -12.5t12 -32.5q0 -28 -19.5 -46.5t-47.5 -18.5q-21 0 -33 12t-12 32z" />
    <glyph glyph-name="Aring" unicode="&#xc5;" horiz-adv-x="710" 
d="M390 700h102l10 -12l97 -628l72 -7l-11 -53h-268l10 49l76 18l-20 142h-253l-80 -149l74 -7l-10 -53h-232l10 50l72 17zM377 532l-136 -252h208l-35 252q-4 40 -4 65h-5q-16 -41 -28 -65zM377 815q0 43 30.5 71.5t75.5 28.5q36 0 56.5 -19t20.5 -53q0 -42 -31 -70.5
t-76 -28.5q-35 0 -55.5 18.5t-20.5 52.5zM429 822q0 -34 34 -34l31 5q15 19 15 44q0 34 -34 34l-32 -5q-14 -19 -14 -44z" />
    <glyph glyph-name="AE" unicode="&#xc6;" horiz-adv-x="825" 
d="M726 0h-418l10 49l76 18l8 142h-192l-87 -149l75 -7l-11 -53h-230l10 50l72 17l371 633h439l-21 -177h-70l-6 106h-223l-11 -238h88l30 81h55l-46 -234h-55l2 81h-78l-11 -248h153l48 109h70zM393 532l-147 -252h164l20 320h-4q-10 -26 -33 -68z" />
    <glyph glyph-name="Ccedilla" unicode="&#xc7;" horiz-adv-x="588" 
d="M249 -88l23 80q-105 8 -161.5 80.5t-56.5 203.5q0 187 108 310t279 123q48 0 91.5 -10.5t62.5 -21.5l19 -11l-20 -168h-69l-6 113q-37 23 -105 23q-33 0 -64 -7t-46 -14l-14 -7q-5 -5 -13.5 -15t-30 -43.5t-38 -71t-30 -96t-13.5 -120.5q0 -195 144 -195q25 0 52 5.5
t42 11.5l15 5l51 117h69l-45 -171q-79 -36 -173 -41l-16 -56q2 0 6.5 -0.5t15 -4t18.5 -8.5t14.5 -16.5t6.5 -26.5q0 -38 -34.5 -61t-91.5 -23q-18 0 -34 2.5t-23 5.5l-7 2l21 49q16 -15 51 -15l34 4q11 18 11 35q0 13 -11 21.5t-21 9.5z" />
    <glyph glyph-name="Egrave" unicode="&#xc8;" horiz-adv-x="596" 
d="M497 0h-504l10 50l76 17l112 573l-72 7l10 53h491l-21 -177h-70l-6 106h-229l-46 -238h120l30 81h58l-46 -234h-58l2 81h-121l-48 -248h242l48 109h70zM276 853l78 65l102 -155l-48 -22z" />
    <glyph glyph-name="Eacute" unicode="&#xc9;" horiz-adv-x="596" 
d="M497 0h-504l10 50l76 17l112 573l-72 7l10 53h491l-21 -177h-70l-6 106h-229l-46 -238h120l30 81h58l-46 -234h-58l2 81h-121l-48 -248h242l48 109h70zM349 763l163 155l52 -65l-175 -112z" />
    <glyph glyph-name="Ecircumflex" unicode="&#xca;" horiz-adv-x="596" 
d="M497 0h-504l10 50l76 17l112 573l-72 7l10 53h491l-21 -177h-70l-6 106h-229l-46 -238h120l30 81h58l-46 -234h-58l2 81h-121l-48 -248h242l48 109h70zM260 763l166 148h13l108 -148l-49 -22l-82 82l-116 -82z" />
    <glyph glyph-name="Edieresis" unicode="&#xcb;" horiz-adv-x="596" 
d="M497 0h-504l10 50l76 17l112 573l-72 7l10 53h491l-21 -177h-70l-6 106h-229l-46 -238h120l30 81h58l-46 -234h-58l2 81h-121l-48 -248h242l48 109h70zM255 813q0 29 19.5 47.5t47.5 18.5q21 0 33 -12.5t12 -32.5q0 -28 -19 -46.5t-48 -18.5q-21 0 -33 12t-12 32z
M449 813q0 29 19.5 47.5t47.5 18.5q21 0 33 -12.5t12 -32.5q0 -28 -19 -46.5t-48 -18.5q-21 0 -33 12t-12 32z" />
    <glyph glyph-name="Igrave" unicode="&#xcc;" horiz-adv-x="331" 
d="M183 60l72 -7l-11 -53h-251l10 50l76 17l112 573l-72 7l10 53h251l-9 -50l-76 -17zM141 853l78 65l102 -155l-48 -22z" />
    <glyph glyph-name="Iacute" unicode="&#xcd;" horiz-adv-x="331" 
d="M183 60l72 -7l-11 -53h-251l10 50l76 17l112 573l-72 7l10 53h251l-9 -50l-76 -17zM196 763l163 155l53 -65l-176 -112z" />
    <glyph glyph-name="Icircumflex" unicode="&#xce;" horiz-adv-x="331" 
d="M183 60l72 -7l-11 -53h-251l10 50l76 17l112 573l-72 7l10 53h251l-9 -50l-76 -17zM117 763l166 148h13l109 -148l-49 -22l-83 82l-115 -82z" />
    <glyph glyph-name="Idieresis" unicode="&#xcf;" horiz-adv-x="331" 
d="M183 60l72 -7l-11 -53h-251l10 50l76 17l112 573l-72 7l10 53h251l-9 -50l-76 -17zM121 813q0 29 19.5 47.5t47.5 18.5q21 0 33 -12.5t12 -32.5q0 -28 -19.5 -46.5t-47.5 -18.5q-21 0 -33 12t-12 32zM315 813q0 29 19.5 47.5t47.5 18.5q21 0 33 -12.5t12 -32.5
q0 -28 -19.5 -46.5t-47.5 -18.5q-21 0 -33 12t-12 32z" />
    <glyph glyph-name="Eth" unicode="&#xd0;" horiz-adv-x="662" 
d="M58 321l11 59l76 13l48 247l-72 7l10 53h291q107 0 168 -72t61 -206q0 -182 -105 -302t-260 -120h-291l10 50l76 17l49 254h-72zM399 629h-103l-46 -236h139l-14 -72h-139l-49 -250h109q29 0 57 5.5t41 11.5l14 6l14 14q9 9 32 41.5t40 69.5t31.5 96t14.5 123
q0 191 -141 191z" />
    <glyph glyph-name="Ntilde" unicode="&#xd1;" horiz-adv-x="733" 
d="M157 60l74 -7l-9 -53h-232l10 50l79 17l111 573l-75 7l11 53h177l211 -462q9 -18 16 -49l3 1q1 13 7 48l78 402l-75 7l11 53h232l-11 -50l-79 -17l-122 -633h-75l-231 499q-11 24 -15 49l-3 -1l-7 -48zM322 771l-20 28q8 9 21 22t49 35t66 22q24 0 59 -19.5t59 -19.5
l66 41l18 -28q-8 -9 -20.5 -22t-48 -34.5t-65.5 -21.5q-24 0 -59 19.5t-59 19.5z" />
    <glyph glyph-name="Ograve" unicode="&#xd2;" horiz-adv-x="659" 
d="M53 272q0 187 105.5 312t258.5 125q109 0 170 -71.5t61 -208.5q0 -187 -105.5 -312.5t-257.5 -125.5q-110 0 -171 72t-61 209zM164 257q0 -192 138 -192q28 0 55 6.5t41 12.5l13 7q5 5 13.5 15t30.5 44t38.5 72t30 98t13.5 123q0 191 -137 191q-28 0 -56 -7t-42 -13
l-14 -7q-5 -5 -13.5 -15t-30 -44t-37.5 -71.5t-29.5 -97.5t-13.5 -122zM303 853l78 65l102 -155l-48 -22z" />
    <glyph glyph-name="Oacute" unicode="&#xd3;" horiz-adv-x="659" 
d="M53 272q0 187 105.5 312t258.5 125q109 0 170 -71.5t61 -208.5q0 -187 -105.5 -312.5t-257.5 -125.5q-110 0 -171 72t-61 209zM164 257q0 -192 138 -192q28 0 55 6.5t41 12.5l13 7q5 5 13.5 15t30.5 44t38.5 72t30 98t13.5 123q0 191 -137 191q-28 0 -56 -7t-42 -13
l-14 -7q-5 -5 -13.5 -15t-30 -44t-37.5 -71.5t-29.5 -97.5t-13.5 -122zM361 763l163 155l53 -65l-175 -112z" />
    <glyph glyph-name="Ocircumflex" unicode="&#xd4;" horiz-adv-x="659" 
d="M53 272q0 187 105.5 312t258.5 125q109 0 170 -71.5t61 -208.5q0 -187 -105.5 -312.5t-257.5 -125.5q-110 0 -171 72t-61 209zM164 257q0 -192 138 -192q28 0 55 6.5t41 12.5l13 7q5 5 13.5 15t30.5 44t38.5 72t30 98t13.5 123q0 191 -137 191q-28 0 -56 -7t-42 -13
l-14 -7q-5 -5 -13.5 -15t-30 -44t-37.5 -71.5t-29.5 -97.5t-13.5 -122zM279 763l166 148h13l108 -148l-49 -22l-82 82l-116 -82z" />
    <glyph glyph-name="Otilde" unicode="&#xd5;" horiz-adv-x="659" 
d="M53 272q0 187 105.5 312t258.5 125q109 0 170 -71.5t61 -208.5q0 -187 -105.5 -312.5t-257.5 -125.5q-110 0 -171 72t-61 209zM164 257q0 -192 138 -192q28 0 55 6.5t41 12.5l13 7q5 5 13.5 15t30.5 44t38.5 72t30 98t13.5 123q0 191 -137 191q-28 0 -56 -7t-42 -13
l-14 -7q-5 -5 -13.5 -15t-30 -44t-37.5 -71.5t-29.5 -97.5t-13.5 -122zM291 771l-20 28q8 9 21 22t49 35t66 22q24 0 59 -19.5t59 -19.5l66 41l18 -28q-8 -9 -20.5 -22t-48 -34.5t-65.5 -21.5q-23 0 -59 19.5t-59 19.5z" />
    <glyph glyph-name="Odieresis" unicode="&#xd6;" horiz-adv-x="659" 
d="M53 272q0 187 105.5 312t258.5 125q109 0 170 -71.5t61 -208.5q0 -187 -105.5 -312.5t-257.5 -125.5q-110 0 -171 72t-61 209zM164 257q0 -192 138 -192q28 0 55 6.5t41 12.5l13 7q5 5 13.5 15t30.5 44t38.5 72t30 98t13.5 123q0 191 -137 191q-28 0 -56 -7t-42 -13
l-14 -7q-5 -5 -13.5 -15t-30 -44t-37.5 -71.5t-29.5 -97.5t-13.5 -122zM280 813q0 29 19.5 47.5t47.5 18.5q21 0 33 -12.5t12 -32.5q0 -28 -19 -46.5t-48 -18.5q-21 0 -33 12t-12 32zM474 813q0 29 19.5 47.5t47.5 18.5q21 0 33 -12.5t12 -32.5q0 -28 -19 -46.5t-48 -18.5
q-21 0 -33 12t-12 32z" />
    <glyph glyph-name="multiply" unicode="&#xd7;" horiz-adv-x="502" 
d="M141 161l-46 47l131 132l-131 132l46 47l132 -132l132 132l47 -47l-132 -132l132 -132l-47 -47l-132 132z" />
    <glyph glyph-name="Oslash" unicode="&#xd8;" horiz-adv-x="659" 
d="M14 9l78 88q-38 68 -38 176q0 186 105.5 311t257.5 125q101 0 160 -61l59 67l52 -25l-77 -88q38 -70 38 -174q0 -186 -106 -311.5t-257 -125.5q-101 0 -161 61l-59 -67zM538 444q0 39 -6 69l-342 -388q34 -60 113 -60q27 0 54 6.5t41 12.5l13 7q5 5 13.5 15t30.5 44
t39 72t30.5 98t13.5 124zM165 256q0 -35 5 -70l342 388q-34 60 -111 60q-28 0 -56 -7t-42 -13l-14 -7q-5 -5 -13.5 -15t-30 -44t-37.5 -72t-29.5 -97.5t-13.5 -122.5z" />
    <glyph glyph-name="Ugrave" unicode="&#xd9;" horiz-adv-x="722" 
d="M692 633l-75 -384q-24 -121 -106.5 -189.5t-195.5 -68.5t-171.5 66.5t-36.5 180.5l79 402l-72 7l11 53h254l-10 -50l-76 -17l-77 -395q-35 -176 132 -176q28 0 54 4.5t38 9.5l12 4q7 6 18 17t34 54.5t33 96.5l76 392l-75 7l10 53h232l-9 -50zM344 853l78 65l102 -155
l-48 -22z" />
    <glyph glyph-name="Uacute" unicode="&#xda;" horiz-adv-x="722" 
d="M692 633l-75 -384q-24 -121 -106.5 -189.5t-195.5 -68.5t-171.5 66.5t-36.5 180.5l79 402l-72 7l11 53h254l-10 -50l-76 -17l-77 -395q-35 -176 132 -176q28 0 54 4.5t38 9.5l12 4q7 6 18 17t34 54.5t33 96.5l76 392l-75 7l10 53h232l-9 -50zM426 763l163 155l53 -65
l-175 -112z" />
    <glyph glyph-name="Ucircumflex" unicode="&#xdb;" horiz-adv-x="722" 
d="M692 633l-75 -384q-24 -121 -106.5 -189.5t-195.5 -68.5t-171.5 66.5t-36.5 180.5l79 402l-72 7l11 53h254l-10 -50l-76 -17l-77 -395q-35 -176 132 -176q28 0 54 4.5t38 9.5l12 4q7 6 18 17t34 54.5t33 96.5l76 392l-75 7l10 53h232l-9 -50zM326 763l166 148h13
l108 -148l-49 -22l-82 82l-116 -82z" />
    <glyph glyph-name="Udieresis" unicode="&#xdc;" horiz-adv-x="722" 
d="M692 633l-75 -384q-24 -121 -106.5 -189.5t-195.5 -68.5t-171.5 66.5t-36.5 180.5l79 402l-72 7l11 53h254l-10 -50l-76 -17l-77 -395q-35 -176 132 -176q28 0 54 4.5t38 9.5l12 4q7 6 18 17t34 54.5t33 96.5l76 392l-75 7l10 53h232l-9 -50zM331 813q0 29 19.5 47.5
t47.5 18.5q21 0 33 -12.5t12 -32.5q0 -28 -19 -46.5t-48 -18.5q-20 0 -32.5 12t-12.5 32zM525 813q0 29 19.5 47.5t47.5 18.5q21 0 33 -12.5t12 -32.5q0 -28 -19 -46.5t-48 -18.5q-20 0 -32.5 12t-12.5 32z" />
    <glyph glyph-name="Yacute" unicode="&#xdd;" horiz-adv-x="667" 
d="M658 633l-254 -328l-47 -245l71 -7l-11 -53h-251l10 50l77 17l46 236l-138 337l-69 7l11 53h271l-10 -50l-82 -15l86 -220q12 -31 14 -40h4q11 16 29 41l163 224l-70 7l11 53h226l-10 -50zM393 763l163 155l52 -65l-175 -112z" />
    <glyph glyph-name="Thorn" unicode="&#xde;" horiz-adv-x="608" 
d="M184 61l84 -4l-11 -57h-264l10 50l76 17l112 573l-72 7l10 53h251l-9 -50l-76 -17l-15 -76h107q92 0 147 -44.5t55 -125.5q0 -99 -79 -161.5t-199 -62.5h-108zM350 486h-84l-49 -251h89q23 0 47.5 2.5t36.5 4.5l13 3q3 2 8 6t17 17t21.5 28t17.5 39t8 50q0 101 -125 101z
" />
    <glyph glyph-name="germandbls" unicode="&#xdf;" horiz-adv-x="642" 
d="M325 76q22 -16 76 -16q21 0 40.5 3t28.5 6l10 3q26 35 26 75q0 23 -13.5 40t-29 25.5t-46.5 21.5q-65 29 -93 80.5t-9 146.5q78 32 117.5 70.5t39.5 89.5q0 73 -79 73q-23 0 -46.5 -6t-36.5 -12l-12 -6q-31 -39 -47 -118l-107 -552q-25 -130 -80 -184.5t-147 -54.5
q-21 0 -42 2.5t-31 4.5l-11 3l26 77q32 -18 74 -18q14 0 27.5 2.5t19.5 5.5l6 2q32 40 55 160l107 551q20 101 91.5 154.5t177.5 53.5q155 0 155 -123q0 -67 -46 -115.5t-133 -89.5q-14 -74 89 -125q4 -2 21.5 -10.5t22 -11t19 -11t18.5 -14t13.5 -15.5t12.5 -19.5t6 -23.5
t3 -30q0 -76 -55.5 -128t-165.5 -52q-44 0 -82 9t-53 18l-16 9l25 130h75z" />
    <glyph glyph-name="agrave" unicode="&#xe0;" horiz-adv-x="563" 
d="M37 166q0 153 83.5 258.5t225.5 105.5q40 0 82.5 -8.5t65.5 -17.5l22 -8l-79 -404q-6 -31 28 -22q21 6 48 23l7 -48q-6 -6 -15.5 -14.5t-40 -22.5t-59.5 -14q-31 0 -41 18.5t0 77.5l10 46h-6q-22 -66 -75.5 -105.5t-122.5 -39.5q-68 0 -100.5 42t-32.5 133zM298 89
q51 77 79 223l26 133q-39 14 -84 14q-26 0 -49.5 -5t-33.5 -10l-11 -5l-9 -12q-6 -8 -20.5 -34t-26 -55t-20.5 -74.5t-9 -92.5q0 -59 16 -83.5t53 -24.5q21 0 43 6.5t34 12.5zM216 691l77 65l103 -155l-49 -22z" />
    <glyph glyph-name="aacute" unicode="&#xe1;" horiz-adv-x="563" 
d="M37 166q0 153 83.5 258.5t225.5 105.5q40 0 82.5 -8.5t65.5 -17.5l22 -8l-79 -404q-6 -31 28 -22q21 6 48 23l7 -48q-6 -6 -15.5 -14.5t-40 -22.5t-59.5 -14q-31 0 -41 18.5t0 77.5l10 46h-6q-22 -66 -75.5 -105.5t-122.5 -39.5q-68 0 -100.5 42t-32.5 133zM298 89
q51 77 79 223l26 133q-39 14 -84 14q-26 0 -49.5 -5t-33.5 -10l-11 -5l-9 -12q-6 -8 -20.5 -34t-26 -55t-20.5 -74.5t-9 -92.5q0 -59 16 -83.5t53 -24.5q21 0 43 6.5t34 12.5zM291 601l163 155l52 -65l-175 -112z" />
    <glyph glyph-name="acircumflex" unicode="&#xe2;" horiz-adv-x="563" 
d="M37 166q0 153 83.5 258.5t225.5 105.5q40 0 82.5 -8.5t65.5 -17.5l22 -8l-79 -404q-6 -31 28 -22q21 6 48 23l7 -48q-6 -6 -15.5 -14.5t-40 -22.5t-59.5 -14q-31 0 -41 18.5t0 77.5l10 46h-6q-22 -66 -75.5 -105.5t-122.5 -39.5q-68 0 -100.5 42t-32.5 133zM298 89
q51 77 79 223l26 133q-39 14 -84 14q-26 0 -49.5 -5t-33.5 -10l-11 -5l-9 -12q-6 -8 -20.5 -34t-26 -55t-20.5 -74.5t-9 -92.5q0 -59 16 -83.5t53 -24.5q21 0 43 6.5t34 12.5zM209 601l166 148h13l108 -148l-49 -22l-82 82l-116 -82z" />
    <glyph glyph-name="atilde" unicode="&#xe3;" horiz-adv-x="563" 
d="M37 166q0 153 83.5 258.5t225.5 105.5q40 0 82.5 -8.5t65.5 -17.5l22 -8l-79 -404q-6 -31 28 -22q21 6 48 23l7 -48q-6 -6 -15.5 -14.5t-40 -22.5t-59.5 -14q-31 0 -41 18.5t0 77.5l10 46h-6q-22 -66 -75.5 -105.5t-122.5 -39.5q-68 0 -100.5 42t-32.5 133zM298 89
q51 77 79 223l26 133q-39 14 -84 14q-26 0 -49.5 -5t-33.5 -10l-11 -5l-9 -12q-6 -8 -20.5 -34t-26 -55t-20.5 -74.5t-9 -92.5q0 -59 16 -83.5t53 -24.5q21 0 43 6.5t34 12.5zM211 615l-20 27q8 9 21 22t49 35t66 22q24 0 59 -19t59 -19l66 41l18 -28q-8 -9 -20.5 -22
t-48 -34.5t-65.5 -21.5q-23 0 -59 19t-59 19z" />
    <glyph glyph-name="adieresis" unicode="&#xe4;" horiz-adv-x="563" 
d="M37 166q0 153 83.5 258.5t225.5 105.5q40 0 82.5 -8.5t65.5 -17.5l22 -8l-79 -404q-6 -31 28 -22q21 6 48 23l7 -48q-6 -6 -15.5 -14.5t-40 -22.5t-59.5 -14q-31 0 -41 18.5t0 77.5l10 46h-6q-22 -66 -75.5 -105.5t-122.5 -39.5q-68 0 -100.5 42t-32.5 133zM298 89
q51 77 79 223l26 133q-39 14 -84 14q-26 0 -49.5 -5t-33.5 -10l-11 -5l-9 -12q-6 -8 -20.5 -34t-26 -55t-20.5 -74.5t-9 -92.5q0 -59 16 -83.5t53 -24.5q21 0 43 6.5t34 12.5zM400 657q0 28 19.5 47t47.5 19q21 0 33 -12.5t12 -32.5q0 -28 -19 -46.5t-48 -18.5q-21 0 -33 12
t-12 32zM206 657q0 28 19.5 47t47.5 19q21 0 33 -12.5t12 -32.5q0 -28 -19 -46.5t-48 -18.5q-21 0 -33 12t-12 32z" />
    <glyph glyph-name="aring" unicode="&#xe5;" horiz-adv-x="563" 
d="M37 166q0 153 83.5 258.5t225.5 105.5q40 0 82.5 -8.5t65.5 -17.5l22 -8l-79 -404q-6 -31 28 -22q21 6 48 23l7 -48q-6 -6 -15.5 -14.5t-40 -22.5t-59.5 -14q-31 0 -41 18.5t0 77.5l10 46h-6q-22 -66 -75.5 -105.5t-122.5 -39.5q-68 0 -100.5 42t-32.5 133zM298 89
q51 77 79 223l26 133q-39 14 -84 14q-26 0 -49.5 -5t-33.5 -10l-11 -5l-9 -12q-6 -8 -20.5 -34t-26 -55t-20.5 -74.5t-9 -92.5q0 -59 16 -83.5t53 -24.5q21 0 43 6.5t34 12.5zM272 653q0 43 30 71.5t76 28.5q36 0 56.5 -19t20.5 -53q0 -42 -31 -70.5t-76 -28.5
q-35 0 -55.5 18.5t-20.5 52.5zM323 660q0 -34 35 -34l31 5q15 19 15 44q0 34 -34 34l-32 -5q-15 -19 -15 -44z" />
    <glyph glyph-name="ae" unicode="&#xe6;" horiz-adv-x="746" 
d="M-1 102q0 67 50 117.5t144 59.5l120 10q12 56 41 103q0 67 -83 67q-23 0 -44 -4.5t-31 -8.5l-9 -5l-29 -80h-75l25 129q7 4 21 11t60.5 18t95.5 11q109 0 148 -53q74 53 166 53q141 0 141 -116q0 -85 -82 -132.5t-245 -48.5v-14q0 -155 122 -155q29 0 62.5 9t52.5 18
l20 9l8 -58q-9 -6 -24 -14.5t-62 -22.5t-93 -14q-117 0 -166 83q-18 -15 -41.5 -31t-72.5 -34t-96 -18q-60 0 -92 29.5t-32 81.5zM99 120q0 -56 68 -56q75 0 146 56q-10 36 -10 83q0 21 1 31l-164 -27q-41 -37 -41 -87zM490 443q-6 -6 -15 -17.5t-28.5 -50.5t-27.5 -83
q215 4 215 108q0 59 -65 59q-17 0 -36.5 -4t-30.5 -8z" />
    <glyph glyph-name="ccedilla" unicode="&#xe7;" horiz-adv-x="494" 
d="M187 -88l23 81q-82 8 -126 62.5t-44 148.5q0 133 82.5 229.5t213.5 96.5q44 0 82 -11t54 -23l15 -11l-25 -124h-75l2 80q-20 18 -72 18q-24 0 -46 -4.5t-33 -8.5l-10 -5q-3 -3 -8.5 -9t-19 -27.5t-23.5 -45.5t-18.5 -63t-8.5 -80q0 -80 30.5 -116t90.5 -36q30 0 63.5 8
t52.5 16l19 9l9 -55q-67 -43 -157 -50l-16 -56q2 0 6.5 -0.5t15 -4t18.5 -8.5t14.5 -16.5t6.5 -26.5q0 -38 -34.5 -61t-91.5 -23q-18 0 -34 2.5t-23 5.5l-7 2l21 49q16 -15 51 -15l34 4q11 18 11 35q0 13 -11 21.5t-21 9.5z" />
    <glyph glyph-name="egrave" unicode="&#xe8;" horiz-adv-x="485" 
d="M477 414q0 -86 -83.5 -138.5t-243.5 -54.5v-1q0 -156 121 -156q29 0 63 8t53 16l19 9l9 -55q-9 -6 -24 -14.5t-62 -22.5t-93 -14q-94 0 -144.5 56.5t-50.5 157.5q0 134 82.5 229.5t212.5 95.5q141 0 141 -116zM227 443q-6 -7 -16 -19.5t-29.5 -54.5t-27.5 -89
q110 2 163.5 34t53.5 86q0 59 -65 59q-17 0 -36.5 -4t-31.5 -8zM182 691l78 65l102 -155l-48 -22z" />
    <glyph glyph-name="eacute" unicode="&#xe9;" horiz-adv-x="485" 
d="M477 414q0 -86 -83.5 -138.5t-243.5 -54.5v-1q0 -156 121 -156q29 0 63 8t53 16l19 9l9 -55q-9 -6 -24 -14.5t-62 -22.5t-93 -14q-94 0 -144.5 56.5t-50.5 157.5q0 134 82.5 229.5t212.5 95.5q141 0 141 -116zM227 443q-6 -7 -16 -19.5t-29.5 -54.5t-27.5 -89
q110 2 163.5 34t53.5 86q0 59 -65 59q-17 0 -36.5 -4t-31.5 -8zM246 601l163 155l52 -65l-175 -112z" />
    <glyph glyph-name="ecircumflex" unicode="&#xea;" horiz-adv-x="485" 
d="M477 414q0 -86 -83.5 -138.5t-243.5 -54.5v-1q0 -156 121 -156q29 0 63 8t53 16l19 9l9 -55q-9 -6 -24 -14.5t-62 -22.5t-93 -14q-94 0 -144.5 56.5t-50.5 157.5q0 134 82.5 229.5t212.5 95.5q141 0 141 -116zM227 443q-6 -7 -16 -19.5t-29.5 -54.5t-27.5 -89
q110 2 163.5 34t53.5 86q0 59 -65 59q-17 0 -36.5 -4t-31.5 -8zM185 601l166 148h13l108 -148l-49 -22l-83 82l-115 -82z" />
    <glyph glyph-name="edieresis" unicode="&#xeb;" horiz-adv-x="485" 
d="M477 414q0 -86 -83.5 -138.5t-243.5 -54.5v-1q0 -156 121 -156q29 0 63 8t53 16l19 9l9 -55q-9 -6 -24 -14.5t-62 -22.5t-93 -14q-94 0 -144.5 56.5t-50.5 157.5q0 134 82.5 229.5t212.5 95.5q141 0 141 -116zM227 443q-6 -7 -16 -19.5t-29.5 -54.5t-27.5 -89
q110 2 163.5 34t53.5 86q0 59 -65 59q-17 0 -36.5 -4t-31.5 -8zM183 657q0 28 19.5 47t47.5 19q21 0 33.5 -12.5t12.5 -32.5q0 -28 -19.5 -46.5t-48.5 -18.5q-20 0 -32.5 12t-12.5 32zM377 657q0 28 19.5 47t47.5 19q21 0 33.5 -12.5t12.5 -32.5q0 -28 -19.5 -46.5
t-48.5 -18.5q-20 0 -32.5 12t-12.5 32z" />
    <glyph glyph-name="igrave" unicode="&#xec;" horiz-adv-x="299" 
d="M80 691l77 65l103 -155l-49 -22zM64 464l8 48q71 16 115 16q71 0 60 -61l-74 -375q-6 -30 26 -22q22 5 50 23l7 -48q-6 -6 -17 -14.5t-44.5 -23t-67.5 -14.5q-38 0 -53.5 18.5t-7.5 60.5l72 362q4 22 -5.5 26t-68.5 4z" />
    <glyph glyph-name="iacute" unicode="&#xed;" horiz-adv-x="299" 
d="M140 601l163 155l53 -65l-175 -112zM64 464l8 48q71 16 115 16q71 0 60 -61l-74 -375q-6 -30 26 -22q22 5 50 23l7 -48q-6 -6 -17 -14.5t-44.5 -23t-67.5 -14.5q-38 0 -53.5 18.5t-7.5 60.5l72 362q4 22 -5.5 26t-68.5 4z" />
    <glyph glyph-name="icircumflex" unicode="&#xee;" horiz-adv-x="299" 
d="M64 464l8 48q71 16 115 16q71 0 60 -61l-74 -375q-6 -30 26 -22q22 5 50 23l7 -48q-6 -6 -17 -14.5t-44.5 -23t-67.5 -14.5q-38 0 -53.5 18.5t-7.5 60.5l72 362q4 22 -5.5 26t-68.5 4zM50 601l166 148h13l108 -148l-49 -22l-82 82l-116 -82z" />
    <glyph glyph-name="idieresis" unicode="&#xef;" horiz-adv-x="299" 
d="M68 657q0 28 19.5 47t47.5 19q21 0 33 -12.5t12 -32.5q0 -28 -19.5 -46.5t-47.5 -18.5q-21 0 -33 12t-12 32zM262 657q0 28 19.5 47t47.5 19q21 0 33 -12.5t12 -32.5q0 -28 -19.5 -46.5t-47.5 -18.5q-21 0 -33 12t-12 32zM64 464l8 48q71 16 115 16q71 0 60 -61l-74 -375
q-6 -30 26 -22q22 5 50 23l7 -48q-6 -6 -17 -14.5t-44.5 -23t-67.5 -14.5q-38 0 -53.5 18.5t-7.5 60.5l72 362q4 22 -5.5 26t-68.5 4z" />
    <glyph glyph-name="eth" unicode="&#xf0;" horiz-adv-x="540" 
d="M485 708l-86 -43q121 -115 121 -307q0 -160 -79 -263.5t-217 -103.5q-183 0 -183 205q0 148 85 241t199 93q34 0 61 -8q-23 64 -60 107l-114 -56l-17 48l95 47q-19 16 -38 29t-29 17l-10 5l29 39q54 -14 114 -58l113 56zM413 358q0 34 -5 71q-33 30 -93 30
q-21 0 -42.5 -4.5t-32.5 -8.5l-11 -4q-3 -4 -8.5 -11t-20 -31t-25 -50.5t-19.5 -67t-9 -82.5q0 -137 101 -137q18 0 38 4t30 8l11 4q3 4 9 11.5t21 34t26 56t20.5 77.5t9.5 100z" />
    <glyph glyph-name="ntilde" unicode="&#xf1;" horiz-adv-x="607" 
d="M558 93l6 -48q-6 -6 -16.5 -14.5t-44.5 -23t-68 -14.5q-77 0 -60 79l51 263q14 72 3 98t-54 26q-25 0 -49.5 -6.5t-37.5 -13.5l-12 -7q-6 -9 -15 -25.5t-30.5 -74t-33.5 -122.5l-41 -210h-102l84 434q4 22 -5 25.5t-69 3.5l9 49q49 16 96 16q34 0 44 -15t0 -68l-13 -59h6
q24 63 85 103.5t138 40.5q75 0 97.5 -48t0.5 -161l-44 -224q-6 -30 27 -24q21 5 48 20zM205 615l-20 27q8 9 21 22t49 35t66 22q24 0 59 -19t60 -19l65 41l18 -28q-8 -9 -20.5 -22t-48 -34.5t-65.5 -21.5q-23 0 -59 19t-59 19z" />
    <glyph glyph-name="ograve" unicode="&#xf2;" horiz-adv-x="540" 
d="M41 197q0 144 85.5 238.5t210.5 94.5q87 0 133 -51.5t46 -152.5q0 -144 -84.5 -239.5t-210.5 -95.5q-88 0 -134 52.5t-46 153.5zM148 204q0 -141 100 -141q17 0 36.5 3.5t30.5 7.5l11 4q3 3 9 9.5t20 29.5t25 48t20 66t9 84q0 144 -99 144q-16 0 -36 -4t-32 -8l-11 -4
q-3 -4 -9 -11t-20 -30.5t-25 -49.5t-20 -66.5t-9 -81.5zM205 691l77 65l103 -155l-49 -22z" />
    <glyph glyph-name="oacute" unicode="&#xf3;" horiz-adv-x="540" 
d="M41 197q0 144 85.5 238.5t210.5 94.5q87 0 133 -51.5t46 -152.5q0 -144 -84.5 -239.5t-210.5 -95.5q-88 0 -134 52.5t-46 153.5zM148 204q0 -141 100 -141q17 0 36.5 3.5t30.5 7.5l11 4q3 3 9 9.5t20 29.5t25 48t20 66t9 84q0 144 -99 144q-16 0 -36 -4t-32 -8l-11 -4
q-3 -4 -9 -11t-20 -30.5t-25 -49.5t-20 -66.5t-9 -81.5zM262 601l163 155l53 -65l-175 -112z" />
    <glyph glyph-name="ocircumflex" unicode="&#xf4;" horiz-adv-x="540" 
d="M41 197q0 144 85.5 238.5t210.5 94.5q87 0 133 -51.5t46 -152.5q0 -144 -84.5 -239.5t-210.5 -95.5q-88 0 -134 52.5t-46 153.5zM148 204q0 -141 100 -141q17 0 36.5 3.5t30.5 7.5l11 4q3 3 9 9.5t20 29.5t25 48t20 66t9 84q0 144 -99 144q-16 0 -36 -4t-32 -8l-11 -4
q-3 -4 -9 -11t-20 -30.5t-25 -49.5t-20 -66.5t-9 -81.5zM197 601l166 148h13l109 -148l-49 -22l-83 82l-115 -82z" />
    <glyph glyph-name="otilde" unicode="&#xf5;" horiz-adv-x="540" 
d="M41 197q0 144 85.5 238.5t210.5 94.5q87 0 133 -51.5t46 -152.5q0 -144 -84.5 -239.5t-210.5 -95.5q-88 0 -134 52.5t-46 153.5zM148 204q0 -141 100 -141q17 0 36.5 3.5t30.5 7.5l11 4q3 3 9 9.5t20 29.5t25 48t20 66t9 84q0 144 -99 144q-16 0 -36 -4t-32 -8l-11 -4
q-3 -4 -9 -11t-20 -30.5t-25 -49.5t-20 -66.5t-9 -81.5zM189 615l-19 27q8 9 21 22t48.5 35t66.5 22q23 0 58 -19t60 -19l65 41l19 -28q-8 -9 -20.5 -22t-48 -34.5t-65.5 -21.5q-24 0 -59 19t-59 19z" />
    <glyph glyph-name="odieresis" unicode="&#xf6;" horiz-adv-x="540" 
d="M41 197q0 144 85.5 238.5t210.5 94.5q87 0 133 -51.5t46 -152.5q0 -144 -84.5 -239.5t-210.5 -95.5q-88 0 -134 52.5t-46 153.5zM148 204q0 -141 100 -141q17 0 36.5 3.5t30.5 7.5l11 4q3 3 9 9.5t20 29.5t25 48t20 66t9 84q0 144 -99 144q-16 0 -36 -4t-32 -8l-11 -4
q-3 -4 -9 -11t-20 -30.5t-25 -49.5t-20 -66.5t-9 -81.5zM189 657q0 28 19.5 47t47.5 19q21 0 33.5 -12.5t12.5 -32.5q0 -28 -19.5 -46.5t-48.5 -18.5q-20 0 -32.5 12t-12.5 32zM383 657q0 28 19.5 47t47.5 19q21 0 33.5 -12.5t12.5 -32.5q0 -28 -19.5 -46.5t-48.5 -18.5
q-20 0 -32.5 12t-12.5 32z" />
    <glyph glyph-name="divide" unicode="&#xf7;" horiz-adv-x="502" 
d="M80 307v66h383v-66h-383zM209 501q0 27 16.5 43.5t43.5 16.5t44 -16.5t17 -43.5q0 -28 -17 -44.5t-44 -16.5t-43.5 17t-16.5 44zM269 115q-27 0 -43.5 16.5t-16.5 43.5t16.5 44t43.5 17t44 -16.5t17 -44.5q0 -27 -17 -43.5t-44 -16.5z" />
    <glyph glyph-name="oslash" unicode="&#xf8;" horiz-adv-x="540" 
d="M41 196q0 145 85.5 239.5t211.5 94.5q76 0 122 -41l51 55l51 -21l-70 -76q24 -47 24 -120q0 -146 -85 -241t-211 -95q-74 0 -116 35l-46 -50l-50 20l62 68q-29 50 -29 132zM148 204q0 -31 4 -51l238 259q-25 47 -80 47q-16 0 -36 -4t-32 -8l-11 -4q-3 -4 -9 -11
t-20 -30.5t-25 -49.5t-20 -66.5t-9 -81.5zM409 315q0 15 -2 39l-235 -254q26 -37 76 -37q17 0 36.5 3.5t30.5 7.5l11 4q3 3 9 9.5t20 29.5t25 48t20 66t9 84z" />
    <glyph glyph-name="ugrave" unicode="&#xf9;" horiz-adv-x="604" 
d="M64 463l8 49q71 16 116 16q71 0 58 -61l-54 -281q-13 -74 -2 -98.5t51 -24.5q25 0 50 6.5t37 12.5l12 6q6 9 15.5 26t30.5 75t33 123l41 209h103l-84 -429q-6 -31 28 -22q21 6 48 23l7 -48q-6 -6 -16 -14.5t-40 -22.5t-59 -14q-31 0 -41 18.5t0 77.5l10 46h-6
q-23 -61 -82.5 -103t-137.5 -42q-75 0 -97.5 48.5t-0.5 160.5l45 234q5 22 -4 25.5t-69 3.5zM236 691l78 65l102 -155l-48 -22z" />
    <glyph glyph-name="uacute" unicode="&#xfa;" horiz-adv-x="604" 
d="M64 463l8 49q71 16 116 16q71 0 58 -61l-54 -281q-13 -74 -2 -98.5t51 -24.5q25 0 50 6.5t37 12.5l12 6q6 9 15.5 26t30.5 75t33 123l41 209h103l-84 -429q-6 -31 28 -22q21 6 48 23l7 -48q-6 -6 -16 -14.5t-40 -22.5t-59 -14q-31 0 -41 18.5t0 77.5l10 46h-6
q-23 -61 -82.5 -103t-137.5 -42q-75 0 -97.5 48.5t-0.5 160.5l45 234q5 22 -4 25.5t-69 3.5zM294 601l163 155l53 -65l-176 -112z" />
    <glyph glyph-name="ucircumflex" unicode="&#xfb;" horiz-adv-x="604" 
d="M64 463l8 49q71 16 116 16q71 0 58 -61l-54 -281q-13 -74 -2 -98.5t51 -24.5q25 0 50 6.5t37 12.5l12 6q6 9 15.5 26t30.5 75t33 123l41 209h103l-84 -429q-6 -31 28 -22q21 6 48 23l7 -48q-6 -6 -16 -14.5t-40 -22.5t-59 -14q-31 0 -41 18.5t0 77.5l10 46h-6
q-23 -61 -82.5 -103t-137.5 -42q-75 0 -97.5 48.5t-0.5 160.5l45 234q5 22 -4 25.5t-69 3.5zM218 601l166 148h13l108 -148l-49 -22l-83 82l-115 -82z" />
    <glyph glyph-name="udieresis" unicode="&#xfc;" horiz-adv-x="604" 
d="M64 463l8 49q71 16 116 16q71 0 58 -61l-54 -281q-13 -74 -2 -98.5t51 -24.5q25 0 50 6.5t37 12.5l12 6q6 9 15.5 26t30.5 75t33 123l41 209h103l-84 -429q-6 -31 28 -22q21 6 48 23l7 -48q-6 -6 -16 -14.5t-40 -22.5t-59 -14q-31 0 -41 18.5t0 77.5l10 46h-6
q-23 -61 -82.5 -103t-137.5 -42q-75 0 -97.5 48.5t-0.5 160.5l45 234q5 22 -4 25.5t-69 3.5zM212 657q0 28 19 47t47 19q22 0 34 -12.5t12 -32.5q0 -28 -19.5 -46.5t-47.5 -18.5q-21 0 -33 12t-12 32zM406 657q0 28 19 47t47 19q21 0 33.5 -12.5t12.5 -32.5
q0 -28 -19.5 -46.5t-47.5 -18.5q-21 0 -33 12t-12 32z" />
    <glyph glyph-name="yacute" unicode="&#xfd;" horiz-adv-x="561" 
d="M-86 -227l16 84q32 -27 95 -27q17 0 32.5 2.5t22.5 5.5l8 2q45 41 112 137l-79 457q-4 22 -14.5 25.5t-71.5 3.5l10 49q48 16 93 16q73 0 80 -61l57 -398q77 115 126 219.5t49 144.5q0 19 -15 25.5t-56 7.5l9 46q53 15 91 15q68 0 68 -62t-71.5 -201.5t-173.5 -272.5
q-96 -126 -164.5 -178t-140.5 -52q-24 0 -44.5 3t-29.5 6zM257 601l163 155l53 -65l-175 -112z" />
    <glyph glyph-name="thorn" unicode="&#xfe;" horiz-adv-x="561" 
d="M96 692l9 49q70 15 115 15q70 0 59 -61l-21 -108q-6 -32 -22.5 -91t-21.5 -78h5q16 42 66.5 77t113.5 35q64 0 95 -42t31 -132q0 -154 -83 -259.5t-227 -105.5q-33 0 -72 7l-33 -171l91 -7l-10 -50h-258l9 47l67 17l161 828q4 22 -3 26q-11 4 -71 4zM264 432
q-6 -9 -15 -25.5t-30.5 -74t-33.5 -122.5l-26 -134q36 -13 84 -13q26 0 49.5 5t33.5 10l11 5l9 12q6 8 20.5 34t26 55t20.5 74.5t9 92.5q0 58 -16 83t-55 25q-20 0 -42 -6.5t-33 -13.5z" />
    <glyph glyph-name="ydieresis" unicode="&#xff;" horiz-adv-x="561" 
d="M-86 -227l16 84q32 -27 95 -27q17 0 32.5 2.5t22.5 5.5l8 2q45 41 112 137l-79 457q-4 22 -14.5 25.5t-71.5 3.5l10 49q48 16 93 16q73 0 80 -61l57 -398q77 115 126 219.5t49 144.5q0 19 -15 25.5t-56 7.5l9 46q53 15 91 15q68 0 68 -62t-71.5 -201.5t-173.5 -272.5
q-96 -126 -164.5 -178t-140.5 -52q-24 0 -44.5 3t-29.5 6zM188 657q0 28 19 47t47 19q22 0 34 -12.5t12 -32.5q0 -28 -19.5 -46.5t-47.5 -18.5q-21 0 -33 12t-12 32zM382 657q0 28 19 47t47 19q21 0 33.5 -12.5t12.5 -32.5q0 -28 -19.5 -46.5t-47.5 -18.5q-21 0 -33 12
t-12 32z" />
    <glyph glyph-name="Amacron" unicode="&#x100;" horiz-adv-x="710" 
d="M390 700h102l10 -12l97 -628l72 -7l-11 -53h-268l10 49l76 18l-20 142h-253l-80 -149l74 -7l-10 -53h-232l10 50l72 17zM377 532l-136 -252h208l-35 252q-4 40 -4 65h-5q-16 -41 -28 -65zM311 769l13 66h277l-13 -66h-277z" />
    <glyph glyph-name="amacron" unicode="&#x101;" horiz-adv-x="563" 
d="M37 166q0 153 83.5 258.5t225.5 105.5q40 0 82.5 -8.5t65.5 -17.5l22 -8l-79 -404q-6 -31 28 -22q21 6 48 23l7 -48q-6 -6 -15.5 -14.5t-40 -22.5t-59.5 -14q-31 0 -41 18.5t0 77.5l10 46h-6q-22 -66 -75.5 -105.5t-122.5 -39.5q-68 0 -100.5 42t-32.5 133zM298 89
q51 77 79 223l26 133q-39 14 -84 14q-26 0 -49.5 -5t-33.5 -10l-11 -5l-9 -12q-6 -8 -20.5 -34t-26 -55t-20.5 -74.5t-9 -92.5q0 -59 16 -83.5t53 -24.5q21 0 43 6.5t34 12.5zM226 627l13 66h277l-13 -66h-277z" />
    <glyph glyph-name="Abreve" unicode="&#x102;" horiz-adv-x="710" 
d="M390 700h102l10 -12l97 -628l72 -7l-11 -53h-268l10 49l76 18l-20 142h-253l-80 -149l74 -7l-10 -53h-232l10 50l72 17zM377 532l-136 -252h208l-35 252q-4 40 -4 65h-5q-16 -41 -28 -65zM567 873l32 -13q-2 -4 -5.5 -11.5t-17 -25.5t-30 -32t-44 -25.5t-59.5 -11.5
q-49 0 -78 26t-33 52l-5 25l56 18q0 -2 1.5 -6.5t7 -14.5t13.5 -18t24 -14.5t36 -6.5q31 0 56.5 14.5t35.5 28.5z" />
    <glyph glyph-name="abreve" unicode="&#x103;" horiz-adv-x="563" 
d="M37 166q0 153 83.5 258.5t225.5 105.5q40 0 82.5 -8.5t65.5 -17.5l22 -8l-79 -404q-6 -31 28 -22q21 6 48 23l7 -48q-6 -6 -15.5 -14.5t-40 -22.5t-59.5 -14q-31 0 -41 18.5t0 77.5l10 46h-6q-22 -66 -75.5 -105.5t-122.5 -39.5q-68 0 -100.5 42t-32.5 133zM298 89
q51 77 79 223l26 133q-39 14 -84 14q-26 0 -49.5 -5t-33.5 -10l-11 -5l-9 -12q-6 -8 -20.5 -34t-26 -55t-20.5 -74.5t-9 -92.5q0 -59 16 -83.5t53 -24.5q21 0 43 6.5t34 12.5zM482 723l32 -13q-2 -4 -5.5 -11.5t-17 -25.5t-30 -32t-44 -25.5t-59.5 -11.5q-31 0 -54.5 10.5
t-34.5 25.5t-18 30t-8 26l-1 10l55 18q0 -2 1.5 -6.5t7 -14.5t14 -18t24.5 -14.5t36 -6.5q31 0 56.5 15t35.5 29z" />
    <glyph glyph-name="Aogonek" unicode="&#x104;" horiz-adv-x="710" 
d="M545 -119q0 -37 39 -37q11 0 23 2.5t19 5.5l7 2l1 -28q-32 -26 -83 -26q-36 0 -56.5 17t-20.5 49q0 35 25 68.5t49 49.5l25 16h-181l10 49l76 18l-20 142h-253l-80 -149l74 -7l-10 -53h-232l10 50l72 17l351 633h102l10 -12l97 -628l72 -7l-11 -53h-40q-8 -7 -20.5 -18
t-33.5 -42.5t-21 -58.5zM377 532l-136 -252h208l-35 252q-4 40 -4 65h-5q-16 -41 -28 -65z" />
    <glyph glyph-name="aogonek" unicode="&#x105;" horiz-adv-x="563" 
d="M37 166q0 153 83.5 258.5t225.5 105.5q40 0 82.5 -8.5t65.5 -17.5l22 -8l-79 -404q-6 -31 28 -22q21 6 48 23l7 -48q-33 -34 -80 -46q-11 -9 -24.5 -22t-31 -41.5t-17.5 -54.5q0 -37 39 -37q11 0 23 2.5t19 5.5l7 2l1 -28q-32 -26 -83 -26q-36 0 -56.5 17t-20.5 49
q0 30 19.5 60t37.5 44.5t35 25.5q-44 8 -24 94l10 46h-6q-22 -66 -75.5 -105.5t-122.5 -39.5q-68 0 -100.5 42t-32.5 133zM298 89q51 77 79 223l26 133q-39 14 -84 14q-26 0 -49.5 -5t-33.5 -10l-11 -5l-9 -12q-6 -8 -20.5 -34t-26 -55t-20.5 -74.5t-9 -92.5q0 -59 16 -83.5
t53 -24.5q21 0 43 6.5t34 12.5z" />
    <glyph glyph-name="Cacute" unicode="&#x106;" horiz-adv-x="588" 
d="M525 498l-6 113q-37 23 -105 23q-33 0 -64 -7t-46 -14l-14 -7q-5 -5 -13.5 -15t-30 -43.5t-38 -71t-30 -96t-13.5 -120.5q0 -195 144 -195q25 0 52 5.5t42 11.5l15 5l51 117h69l-45 -171q-90 -42 -192 -42q-118 0 -182.5 72.5t-64.5 212.5q0 187 108 310t279 123
q48 0 91.5 -10.5t62.5 -21.5l19 -11l-20 -168h-69zM349 763l163 155l53 -65l-176 -112z" />
    <glyph glyph-name="cacute" unicode="&#x107;" horiz-adv-x="494" 
d="M387 361l2 80q-20 18 -72 18q-24 0 -46 -4.5t-33 -8.5l-10 -5q-3 -3 -8.5 -9t-19 -27.5t-23.5 -45.5t-18.5 -63t-8.5 -80q0 -80 30.5 -116t90.5 -36q30 0 63.5 8t52.5 16l19 9l9 -55q-9 -6 -24.5 -14.5t-62 -22.5t-91.5 -14q-94 0 -145.5 55.5t-51.5 157.5
q0 133 82.5 229.5t213.5 96.5q44 0 82 -11t54 -23l15 -11l-25 -124h-75zM271 601l163 155l52 -65l-175 -112z" />
    <glyph glyph-name="Ccircumflex" unicode="&#x108;" horiz-adv-x="588" 
d="M525 498l-6 113q-37 23 -105 23q-33 0 -64 -7t-46 -14l-14 -7q-5 -5 -13.5 -15t-30 -43.5t-38 -71t-30 -96t-13.5 -120.5q0 -195 144 -195q25 0 52 5.5t42 11.5l15 5l51 117h69l-45 -171q-90 -42 -192 -42q-118 0 -182.5 72.5t-64.5 212.5q0 187 108 310t279 123
q48 0 91.5 -10.5t62.5 -21.5l19 -11l-20 -168h-69zM296 763l166 148h13l109 -148l-49 -22l-83 82l-115 -82z" />
    <glyph glyph-name="ccircumflex" unicode="&#x109;" horiz-adv-x="494" 
d="M387 361l2 80q-20 18 -72 18q-24 0 -46 -4.5t-33 -8.5l-10 -5q-3 -3 -8.5 -9t-19 -27.5t-23.5 -45.5t-18.5 -63t-8.5 -80q0 -80 30.5 -116t90.5 -36q30 0 63.5 8t52.5 16l19 9l9 -55q-9 -6 -24.5 -14.5t-62 -22.5t-91.5 -14q-94 0 -145.5 55.5t-51.5 157.5
q0 133 82.5 229.5t213.5 96.5q44 0 82 -11t54 -23l15 -11l-25 -124h-75zM206 601l166 148h13l109 -148l-49 -22l-83 82l-115 -82z" />
    <glyph glyph-name="Cdotaccent" unicode="&#x10a;" horiz-adv-x="588" 
d="M525 498l-6 113q-37 23 -105 23q-33 0 -64 -7t-46 -14l-14 -7q-5 -5 -13.5 -15t-30 -43.5t-38 -71t-30 -96t-13.5 -120.5q0 -195 144 -195q25 0 52 5.5t42 11.5l15 5l51 117h69l-45 -171q-90 -42 -192 -42q-118 0 -182.5 72.5t-64.5 212.5q0 187 108 310t279 123
q48 0 91.5 -10.5t62.5 -21.5l19 -11l-20 -168h-69zM374 815q0 35 24.5 58t59.5 23q26 0 42 -15t16 -40q0 -35 -24.5 -58t-59.5 -23q-27 0 -42.5 15t-15.5 40z" />
    <glyph glyph-name="cdotaccent" unicode="&#x10b;" horiz-adv-x="494" 
d="M387 361l2 80q-20 18 -72 18q-24 0 -46 -4.5t-33 -8.5l-10 -5q-3 -3 -8.5 -9t-19 -27.5t-23.5 -45.5t-18.5 -63t-8.5 -80q0 -80 30.5 -116t90.5 -36q30 0 63.5 8t52.5 16l19 9l9 -55q-9 -6 -24.5 -14.5t-62 -22.5t-91.5 -14q-94 0 -145.5 55.5t-51.5 157.5
q0 133 82.5 229.5t213.5 96.5q44 0 82 -11t54 -23l15 -11l-25 -124h-75zM286 662q0 35 24 58t60 23q26 0 42 -15.5t16 -40.5q0 -35 -24.5 -58t-60.5 -23q-26 0 -41.5 15.5t-15.5 40.5z" />
    <glyph glyph-name="Ccaron" unicode="&#x10c;" horiz-adv-x="588" 
d="M525 498l-6 113q-37 23 -105 23q-33 0 -64 -7t-46 -14l-14 -7q-5 -5 -13.5 -15t-30 -43.5t-38 -71t-30 -96t-13.5 -120.5q0 -195 144 -195q25 0 52 5.5t42 11.5l15 5l51 117h69l-45 -171q-90 -42 -192 -42q-118 0 -182.5 72.5t-64.5 212.5q0 187 108 310t279 123
q48 0 91.5 -10.5t62.5 -21.5l19 -11l-20 -168h-69zM423 741l-104 143l42 30l85 -84l119 84l29 -30l-158 -143h-13z" />
    <glyph glyph-name="ccaron" unicode="&#x10d;" horiz-adv-x="494" 
d="M387 361l2 80q-20 18 -72 18q-24 0 -46 -4.5t-33 -8.5l-10 -5q-3 -3 -8.5 -9t-19 -27.5t-23.5 -45.5t-18.5 -63t-8.5 -80q0 -80 30.5 -116t90.5 -36q30 0 63.5 8t52.5 16l19 9l9 -55q-9 -6 -24.5 -14.5t-62 -22.5t-91.5 -14q-94 0 -145.5 55.5t-51.5 157.5
q0 133 82.5 229.5t213.5 96.5q44 0 82 -11t54 -23l15 -11l-25 -124h-75zM328 585l-103 142l41 31l86 -85l118 85l30 -31l-159 -142h-13z" />
    <glyph glyph-name="Dcaron" unicode="&#x10e;" horiz-adv-x="660" 
d="M284 0h-291l10 50l76 17l112 573l-72 7l10 53h291q107 0 168 -70.5t61 -205.5q0 -183 -105 -303.5t-260 -120.5zM397 629h-103l-109 -558h109q29 0 57 5.5t41 11.5l14 6l14 14q9 9 32 41.5t40 69.5t31.5 96t14.5 123q0 191 -141 191zM377 741l-103 143l41 30l85 -84
l119 84l30 -30l-159 -143h-13z" />
    <glyph glyph-name="dcaron" unicode="&#x10f;" horiz-adv-x="704" 
d="M36 163q0 153 84.5 260t215.5 107q46 0 86 -14l29 146q5 22 -4.5 26t-69.5 4l9 49q70 15 115 15q70 0 59 -61l-118 -603q-6 -31 28 -22q21 7 48 24l7 -49q-6 -6 -15.5 -14.5t-40 -22.5t-59.5 -14q-31 0 -41 18.5t0 77.5l10 46h-6q-22 -64 -75.5 -104.5t-125.5 -40.5
q-69 0 -102.5 41t-33.5 131zM304 89q50 77 78 223l24 124q-43 23 -91 23q-21 0 -43 -5t-34 -10l-11 -5q-4 -4 -9.5 -12t-20.5 -34t-26.5 -55t-21 -74t-9.5 -92q0 -59 16.5 -84t54.5 -25q21 0 44.5 6.5t36.5 12.5zM595 510l-13 25q9 6 22.5 16t37.5 39t28 54q-40 5 -40 47
q0 29 21 49t52 20q47 0 47 -58q0 -35 -16 -67.5t-39 -54t-45.5 -38.5t-38.5 -24z" />
    <glyph glyph-name="Dcroat" unicode="&#x110;" horiz-adv-x="662" 
d="M58 321l11 59l76 13l48 247l-72 7l10 53h291q107 0 168 -72t61 -206q0 -182 -105 -302t-260 -120h-291l10 50l76 17l49 254h-72zM399 629h-103l-46 -236h139l-14 -72h-139l-49 -250h109q29 0 57 5.5t41 11.5l14 6l14 14q9 9 32 41.5t40 69.5t31.5 96t14.5 123
q0 191 -141 191z" />
    <glyph glyph-name="dcroat" unicode="&#x111;" horiz-adv-x="567" 
d="M378 698l8 43q70 15 115 15q70 0 59 -61l-12 -59h63l-11 -54h-62l-96 -490q-6 -31 28 -22q21 7 48 24l7 -49q-6 -6 -15.5 -14.5t-40 -22.5t-59.5 -14q-31 0 -41 18.5t0 77.5l10 46h-6q-22 -64 -75.5 -104.5t-125.5 -40.5q-69 0 -102.5 41t-33.5 131q0 153 84.5 260
t215.5 107q46 0 86 -14l13 66h-137l10 54h137l7 32q4 22 -3 26q-11 4 -71 4zM304 89q50 77 78 223l24 124q-43 23 -91 23q-21 0 -43 -5t-34 -10l-11 -5q-4 -4 -9.5 -12t-20.5 -34t-26.5 -55t-21 -74t-9.5 -92q0 -59 16.5 -84t54.5 -25q21 0 44.5 6.5t36.5 12.5z" />
    <glyph glyph-name="Emacron" unicode="&#x112;" horiz-adv-x="596" 
d="M497 0h-504l10 50l76 17l112 573l-72 7l10 53h491l-21 -177h-70l-6 106h-229l-46 -238h120l30 81h58l-46 -234h-58l2 81h-121l-48 -248h242l48 109h70zM257 769l13 66h277l-13 -66h-277z" />
    <glyph glyph-name="emacron" unicode="&#x113;" horiz-adv-x="485" 
d="M477 414q0 -86 -83.5 -138.5t-243.5 -54.5v-1q0 -156 121 -156q29 0 63 8t53 16l19 9l9 -55q-9 -6 -24 -14.5t-62 -22.5t-93 -14q-94 0 -144.5 56.5t-50.5 157.5q0 134 82.5 229.5t212.5 95.5q141 0 141 -116zM227 443q-6 -7 -16 -19.5t-29.5 -54.5t-27.5 -89
q110 2 163.5 34t53.5 86q0 59 -65 59q-17 0 -36.5 -4t-31.5 -8zM193 627l13 66h277l-13 -66h-277z" />
    <glyph glyph-name="Ebreve" unicode="&#x114;" horiz-adv-x="596" 
d="M497 0h-504l10 50l76 17l112 573l-72 7l10 53h491l-21 -177h-70l-6 106h-229l-46 -238h120l30 81h58l-46 -234h-58l2 81h-121l-48 -248h242l48 109h70zM514 873l32 -13q-2 -4 -5.5 -11.5t-17 -25.5t-30 -32t-44 -25.5t-59.5 -11.5q-49 0 -78 26t-34 52l-4 25l56 18
q0 -2 1.5 -6.5t7 -14.5t13.5 -18t24 -14.5t36 -6.5q31 0 56.5 14.5t35.5 28.5z" />
    <glyph glyph-name="ebreve" unicode="&#x115;" horiz-adv-x="485" 
d="M477 414q0 -86 -83.5 -138.5t-243.5 -54.5v-1q0 -156 121 -156q29 0 63 8t53 16l19 9l9 -55q-9 -6 -24 -14.5t-62 -22.5t-93 -14q-94 0 -144.5 56.5t-50.5 157.5q0 134 82.5 229.5t212.5 95.5q141 0 141 -116zM227 443q-6 -7 -16 -19.5t-29.5 -54.5t-27.5 -89
q110 2 163.5 34t53.5 86q0 59 -65 59q-17 0 -36.5 -4t-31.5 -8zM467 723l32 -13q-2 -4 -5.5 -11.5t-17 -25.5t-30 -32t-44 -25.5t-59.5 -11.5q-31 0 -54.5 10.5t-34.5 25.5t-18 30t-8 26l-1 10l56 18q0 -2 1.5 -6.5t7 -14.5t13.5 -18t24 -14.5t36 -6.5q31 0 56.5 15t35.5 29
z" />
    <glyph glyph-name="Edotaccent" unicode="&#x116;" horiz-adv-x="596" 
d="M497 0h-504l10 50l76 17l112 573l-72 7l10 53h491l-21 -177h-70l-6 106h-229l-46 -238h120l30 81h58l-46 -234h-58l2 81h-121l-48 -248h242l48 109h70zM344 815q0 35 24.5 58t60.5 23q26 0 41.5 -15t15.5 -40q0 -36 -24 -58.5t-60 -22.5q-26 0 -42 15t-16 40z" />
    <glyph glyph-name="edotaccent" unicode="&#x117;" horiz-adv-x="485" 
d="M477 414q0 -86 -83.5 -138.5t-243.5 -54.5v-1q0 -156 121 -156q29 0 63 8t53 16l19 9l9 -55q-9 -6 -24 -14.5t-62 -22.5t-93 -14q-94 0 -144.5 56.5t-50.5 157.5q0 134 82.5 229.5t212.5 95.5q141 0 141 -116zM227 443q-6 -7 -16 -19.5t-29.5 -54.5t-27.5 -89
q110 2 163.5 34t53.5 86q0 59 -65 59q-17 0 -36.5 -4t-31.5 -8zM275 662q0 35 24 58t60 23q26 0 42 -15.5t16 -40.5q0 -35 -24.5 -58t-59.5 -23q-27 0 -42.5 15.5t-15.5 40.5z" />
    <glyph glyph-name="Eogonek" unicode="&#x118;" horiz-adv-x="596" 
d="M378 -119q0 -37 39 -37q11 0 23 2.5t19 5.5l7 2l1 -28q-32 -26 -83 -26q-36 0 -56.5 17t-20.5 49q0 35 24.5 68.5t48.5 49.5l25 16h-412l10 50l76 17l112 573l-72 7l10 53h491l-21 -177h-70l-6 106h-229l-46 -238h120l30 81h58l-46 -234h-58l2 81h-121l-48 -248h242
l48 109h70l-48 -180h-45q-8 -7 -20.5 -18t-33 -42.5t-20.5 -58.5z" />
    <glyph glyph-name="eogonek" unicode="&#x119;" horiz-adv-x="485" 
d="M331 -82q0 -36 39 -36q11 0 23 2.5t19 5.5l7 2l1 -28q-32 -26 -83 -26q-36 0 -57 16.5t-21 48.5q0 52 48 96q-35 -8 -71 -8q-94 0 -144.5 56.5t-50.5 157.5q0 134 82.5 229.5t212.5 95.5q141 0 141 -116q0 -86 -83.5 -138.5t-243.5 -54.5v-1q0 -156 121 -156q29 0 63 8
t53 16l19 9l9 -55q-8 -5 -17 -10q-67 -59 -67 -114zM227 443q-6 -7 -16 -19.5t-29.5 -54.5t-27.5 -89q110 2 163.5 34t53.5 86q0 59 -65 59q-17 0 -36.5 -4t-31.5 -8z" />
    <glyph glyph-name="Ecaron" unicode="&#x11a;" horiz-adv-x="596" 
d="M497 0h-504l10 50l76 17l112 573l-72 7l10 53h491l-21 -177h-70l-6 106h-229l-46 -238h120l30 81h58l-46 -234h-58l2 81h-121l-48 -248h242l48 109h70zM389 741l-104 143l42 30l85 -84l119 84l29 -30l-158 -143h-13z" />
    <glyph glyph-name="ecaron" unicode="&#x11b;" horiz-adv-x="485" 
d="M477 414q0 -86 -83.5 -138.5t-243.5 -54.5v-1q0 -156 121 -156q29 0 63 8t53 16l19 9l9 -55q-9 -6 -24 -14.5t-62 -22.5t-93 -14q-94 0 -144.5 56.5t-50.5 157.5q0 134 82.5 229.5t212.5 95.5q141 0 141 -116zM227 443q-6 -7 -16 -19.5t-29.5 -54.5t-27.5 -89
q110 2 163.5 34t53.5 86q0 59 -65 59q-17 0 -36.5 -4t-31.5 -8zM314 585l-103 142l41 31l86 -85l118 85l30 -31l-159 -142h-13z" />
    <glyph glyph-name="Gcircumflex" unicode="&#x11c;" horiz-adv-x="623" 
d="M552 296l-50 -261q-88 -44 -197 -44q-122 0 -186.5 72t-64.5 213q0 187 107.5 310t278.5 123q49 0 92 -10.5t62 -21.5l19 -11l-19 -168h-70l-6 113q-36 23 -104 23q-33 0 -64 -7t-46 -14l-14 -7q-5 -5 -13.5 -15t-30 -43.5t-38 -71t-30 -96.5t-13.5 -121q0 -194 144 -194
q50 0 109 22l41 216l-84 7l10 53h249l-10 -50zM289 763l166 148h13l109 -148l-49 -22l-83 82l-115 -82z" />
    <glyph glyph-name="gcircumflex" unicode="&#x11d;" horiz-adv-x="539" 
d="M37 165q0 154 83 259.5t226 105.5q40 0 82.5 -8.5t65.5 -17.5l22 -8l-99 -506q-22 -116 -86 -172.5t-181 -56.5q-40 0 -77 6t-53 12l-17 6l16 82q61 -32 144 -32q26 0 52 4t39 8l14 4q5 6 12.5 17.5t26 58t29.5 104.5l14 72h-4q-16 -42 -68.5 -77t-115.5 -35
q-125 0 -125 174zM299 88q50 78 78 224l25 133q-36 14 -83 14q-26 0 -49.5 -5t-33.5 -10l-11 -5l-9 -12q-6 -8 -20.5 -34t-26 -55t-20.5 -74.5t-9 -92.5q0 -59 16 -83.5t54 -24.5q20 0 42.5 6.5t34.5 12.5zM214 601l166 148h13l108 -148l-48 -22l-83 82l-115 -82z" />
    <glyph glyph-name="Gbreve" unicode="&#x11e;" horiz-adv-x="623" 
d="M552 296l-50 -261q-88 -44 -197 -44q-122 0 -186.5 72t-64.5 213q0 187 107.5 310t278.5 123q49 0 92 -10.5t62 -21.5l19 -11l-19 -168h-70l-6 113q-36 23 -104 23q-33 0 -64 -7t-46 -14l-14 -7q-5 -5 -13.5 -15t-30 -43.5t-38 -71t-30 -96.5t-13.5 -121q0 -194 144 -194
q50 0 109 22l41 216l-84 7l10 53h249l-10 -50zM545 873l32 -13q-2 -4 -5.5 -11.5t-17 -25.5t-30 -32t-44 -25.5t-59.5 -11.5q-49 0 -78 26t-33 52l-5 25l56 18q0 -2 1.5 -6.5t7 -14.5t13.5 -18t24 -14.5t36 -6.5t38 6t29 14.5t19.5 17t12.5 14.5z" />
    <glyph glyph-name="gbreve" unicode="&#x11f;" horiz-adv-x="539" 
d="M37 165q0 154 83 259.5t226 105.5q40 0 82.5 -8.5t65.5 -17.5l22 -8l-99 -506q-22 -116 -86 -172.5t-181 -56.5q-40 0 -77 6t-53 12l-17 6l16 82q61 -32 144 -32q26 0 52 4t39 8l14 4q5 6 12.5 17.5t26 58t29.5 104.5l14 72h-4q-16 -42 -68.5 -77t-115.5 -35
q-125 0 -125 174zM299 88q50 78 78 224l25 133q-36 14 -83 14q-26 0 -49.5 -5t-33.5 -10l-11 -5l-9 -12q-6 -8 -20.5 -34t-26 -55t-20.5 -74.5t-9 -92.5q0 -59 16 -83.5t54 -24.5q20 0 42.5 6.5t34.5 12.5zM471 723l31 -13q-2 -4 -5.5 -11.5t-17 -25.5t-29.5 -32t-44 -25.5
t-59 -11.5t-54.5 10.5t-34.5 25.5t-18 30t-8 26l-1 10l55 18q0 -2 1.5 -6.5t7 -14.5t13.5 -18t24 -14.5t36 -6.5q32 0 57.5 15t35.5 29z" />
    <glyph glyph-name="Gdotaccent" unicode="&#x120;" horiz-adv-x="623" 
d="M552 296l-50 -261q-88 -44 -197 -44q-122 0 -186.5 72t-64.5 213q0 187 107.5 310t278.5 123q49 0 92 -10.5t62 -21.5l19 -11l-19 -168h-70l-6 113q-36 23 -104 23q-33 0 -64 -7t-46 -14l-14 -7q-5 -5 -13.5 -15t-30 -43.5t-38 -71t-30 -96.5t-13.5 -121q0 -194 144 -194
q50 0 109 22l41 216l-84 7l10 53h249l-10 -50zM358 815q0 36 24 58.5t60 22.5q26 0 41.5 -15t15.5 -40q0 -36 -24 -58.5t-60 -22.5q-26 0 -41.5 15t-15.5 40z" />
    <glyph glyph-name="gdotaccent" unicode="&#x121;" horiz-adv-x="539" 
d="M37 165q0 154 83 259.5t226 105.5q40 0 82.5 -8.5t65.5 -17.5l22 -8l-99 -506q-22 -116 -86 -172.5t-181 -56.5q-40 0 -77 6t-53 12l-17 6l16 82q61 -32 144 -32q26 0 52 4t39 8l14 4q5 6 12.5 17.5t26 58t29.5 104.5l14 72h-4q-16 -42 -68.5 -77t-115.5 -35
q-125 0 -125 174zM299 88q50 78 78 224l25 133q-36 14 -83 14q-26 0 -49.5 -5t-33.5 -10l-11 -5l-9 -12q-6 -8 -20.5 -34t-26 -55t-20.5 -74.5t-9 -92.5q0 -59 16 -83.5t54 -24.5q20 0 42.5 6.5t34.5 12.5zM279 662q0 35 24.5 58t59.5 23q26 0 42 -15.5t16 -40.5
q0 -35 -24.5 -58t-59.5 -23q-27 0 -42.5 15.5t-15.5 40.5z" />
    <glyph glyph-name="Gcommaaccent" unicode="&#x122;" horiz-adv-x="623" 
d="M552 296l-50 -261q-88 -44 -197 -44q-122 0 -186.5 72t-64.5 213q0 187 107.5 310t278.5 123q49 0 92 -10.5t62 -21.5l19 -11l-19 -168h-70l-6 113q-36 23 -104 23q-33 0 -64 -7t-46 -14l-14 -7q-5 -5 -13.5 -15t-30 -43.5t-38 -71t-30 -96.5t-13.5 -121q0 -194 144 -194
q50 0 109 22l41 216l-84 7l10 53h249l-10 -50zM217 -258l-10 20q8 5 19.5 13.5t32 33.5t24.5 47q-34 3 -34 38q0 25 17.5 41.5t42.5 16.5q39 0 39 -45q0 -31 -13.5 -59t-33 -46.5t-38.5 -32.5t-33 -21z" />
    <glyph glyph-name="gcommaaccent" unicode="&#x123;" horiz-adv-x="539" 
d="M37 165q0 154 83 259.5t226 105.5q40 0 82.5 -8.5t65.5 -17.5l22 -8l-99 -506q-22 -116 -86 -172.5t-181 -56.5q-40 0 -77 6t-53 12l-17 6l16 82q61 -32 144 -32q26 0 52 4t39 8l14 4q5 6 12.5 17.5t26 58t29.5 104.5l14 72h-4q-16 -42 -68.5 -77t-115.5 -35
q-125 0 -125 174zM299 88q50 78 78 224l25 133q-36 14 -83 14q-26 0 -49.5 -5t-33.5 -10l-11 -5l-9 -12q-6 -8 -20.5 -34t-26 -55t-20.5 -74.5t-9 -92.5q0 -59 16 -83.5t54 -24.5q20 0 42.5 6.5t34.5 12.5zM426 794l10 -21q-8 -5 -19.5 -13.5t-32 -33.5t-24.5 -47
q16 -1 24.5 -11.5t8.5 -26.5q0 -24 -17 -40.5t-42 -16.5q-39 0 -39 45q0 30 13.5 58t32.5 47t38.5 33t32.5 21z" />
    <glyph glyph-name="Hcircumflex" unicode="&#x124;" horiz-adv-x="731" 
d="M183 60l72 -7l-11 -53h-251l10 50l76 17l112 573l-72 7l10 53h251l-9 -50l-76 -17l-47 -242h294l49 249l-72 7l10 53h252l-10 -50l-76 -17l-112 -573l72 -7l-10 -53h-252l10 50l76 17l49 252h-295zM318 763l166 148h13l108 -148l-49 -22l-82 82l-116 -82z" />
    <glyph glyph-name="hcircumflex" unicode="&#x125;" horiz-adv-x="595" 
d="M545 93l7 -48q-6 -6 -16.5 -14.5t-44.5 -23t-68 -14.5q-77 0 -60 79l51 263q13 73 2 98.5t-52 25.5q-25 0 -50 -6.5t-38 -13.5l-12 -7q-50 -76 -79 -222l-40 -210h-104l130 662q4 22 -5.5 26t-68.5 4l8 49q71 15 116 15q70 0 59 -61l-22 -108q-6 -32 -22.5 -91t-21.5 -78
h6q16 43 75 77.5t128 34.5q70 0 92.5 -46.5t-0.5 -162.5l-45 -229q-6 -31 28 -22q21 7 47 23zM68 799l166 148h13l108 -148l-49 -22l-83 82l-115 -82z" />
    <glyph glyph-name="Hbar" unicode="&#x126;" horiz-adv-x="731" 
d="M88 484l12 66h73l18 90l-72 7l10 53h251l-9 -50l-76 -17l-16 -83h294l18 90l-72 7l10 53h252l-10 -50l-76 -17l-16 -83h73l-13 -66h-73l-83 -424l72 -7l-10 -53h-252l10 50l76 17l49 252h-295l-50 -259l72 -7l-11 -53h-251l10 50l76 17l81 417h-72zM248 391h294l18 93
h-294z" />
    <glyph glyph-name="hbar" unicode="&#x127;" horiz-adv-x="595" 
d="M95 597l11 53l71 12l32 88h82l-17 -88h156l-14 -65h-158l-9 -44q-5 -26 -18 -72t-17 -63h6q16 43 75 77.5t128 34.5q70 0 92.5 -46.5t-0.5 -162.5l-45 -229q-6 -31 28 -22q21 7 47 23l7 -48q-6 -6 -16.5 -14.5t-44.5 -23t-68 -14.5q-77 0 -60 79l51 263q13 73 2 98.5
t-52 25.5q-25 0 -50 -6.5t-38 -13.5l-12 -7q-50 -76 -79 -222l-40 -210h-104l117 597h-63z" />
    <glyph glyph-name="Itilde" unicode="&#x128;" horiz-adv-x="331" 
d="M183 60l72 -7l-11 -53h-251l10 50l76 17l112 573l-72 7l10 53h251l-9 -50l-76 -17zM120 771l-19 28q8 9 21 22t48.5 35t66.5 22q23 0 58 -19.5t60 -19.5l65 41l19 -28q-8 -9 -21 -22t-48.5 -34.5t-65.5 -21.5q-23 0 -58.5 19.5t-59.5 19.5z" />
    <glyph glyph-name="itilde" unicode="&#x129;" horiz-adv-x="299" 
d="M61 615l-20 27q8 9 21 22t49 35t66 22q24 0 59 -19t59 -19l66 41l18 -28q-8 -9 -20.5 -22t-48 -34.5t-65.5 -21.5q-23 0 -59 19t-59 19zM64 464l8 48q71 16 115 16q71 0 60 -61l-74 -375q-6 -30 26 -22q22 5 50 23l7 -48q-6 -6 -17 -14.5t-44.5 -23t-67.5 -14.5
q-38 0 -53.5 18.5t-7.5 60.5l72 362q4 22 -5.5 26t-68.5 4z" />
    <glyph glyph-name="Imacron" unicode="&#x12a;" horiz-adv-x="331" 
d="M183 60l72 -7l-11 -53h-251l10 50l76 17l112 573l-72 7l10 53h251l-9 -50l-76 -17zM122 769l13 66h276l-12 -66h-277z" />
    <glyph glyph-name="imacron" unicode="&#x12b;" horiz-adv-x="299" 
d="M59 627l12 66h277l-12 -66h-277zM64 464l8 48q71 16 115 16q71 0 60 -61l-74 -375q-6 -30 26 -22q22 5 50 23l7 -48q-6 -6 -17 -14.5t-44.5 -23t-67.5 -14.5q-38 0 -53.5 18.5t-7.5 60.5l72 362q4 22 -5.5 26t-68.5 4z" />
    <glyph glyph-name="Ibreve" unicode="&#x12c;" horiz-adv-x="331" 
d="M183 60l72 -7l-11 -53h-251l10 50l76 17l112 573l-72 7l10 53h251l-9 -50l-76 -17zM386 873l32 -13q-2 -4 -5.5 -11.5t-17 -25.5t-30 -32t-44 -25.5t-59.5 -11.5q-49 0 -78 26t-34 52l-4 25l56 18q0 -2 1.5 -6.5t7 -14.5t13.5 -18t24 -14.5t36 -6.5q31 0 56.5 14.5
t35.5 28.5z" />
    <glyph glyph-name="ibreve" unicode="&#x12d;" horiz-adv-x="299" 
d="M322 723l32 -13q-2 -4 -5.5 -11.5t-17 -25.5t-29.5 -32t-44 -25.5t-59 -11.5t-55 10.5t-35 25.5t-18 30t-8 26l-1 10l56 18q0 -2 1.5 -6.5t7 -14.5t13.5 -18t24 -14.5t36 -6.5q32 0 57.5 15t34.5 29zM64 464l8 48q71 16 115 16q71 0 60 -61l-74 -375q-6 -30 26 -22
q22 5 50 23l7 -48q-6 -6 -17 -14.5t-44.5 -23t-67.5 -14.5q-38 0 -53.5 18.5t-7.5 60.5l72 362q4 22 -5.5 26t-68.5 4z" />
    <glyph glyph-name="Iogonek" unicode="&#x12e;" horiz-adv-x="331" 
d="M131 -119q0 -37 39 -37q11 0 23 2.5t19 5.5l7 2l1 -28q-32 -26 -83 -26q-36 0 -56.5 17t-20.5 49q0 22 10 44t25 37.5t29.5 28t24.5 18.5l10 6h-166l10 50l76 17l112 573l-72 7l10 53h251l-9 -50l-76 -17l-112 -573l72 -7l-11 -53h-39q-8 -7 -20.5 -18t-33 -42.5
t-20.5 -58.5z" />
    <glyph glyph-name="iogonek" unicode="&#x12f;" horiz-adv-x="299" 
d="M130 -106q0 -37 39 -37q11 0 23 2.5t19 4.5l7 3l1 -27q-32 -27 -83 -27q-36 0 -56.5 17t-20.5 49q0 62 69 114h-1q-38 0 -53.5 18.5t-7.5 60.5l72 362q4 22 -5 25.5t-69 3.5l9 49q70 16 115 16q70 0 59 -61l-74 -375q-6 -30 26 -22q22 5 50 23l7 -48q-23 -22 -57 -37
q-12 -10 -25.5 -24t-28.5 -40t-15 -50zM153 673q0 34 24.5 57.5t59.5 23.5q27 0 42.5 -15.5t15.5 -41.5q0 -34 -24.5 -57t-59.5 -23q-27 0 -42.5 15t-15.5 41z" />
    <glyph glyph-name="Idotaccent" unicode="&#x130;" horiz-adv-x="331" 
d="M183 60l72 -7l-11 -53h-251l10 50l76 17l112 573l-72 7l10 53h251l-9 -50l-76 -17zM207 815q0 36 24 58.5t60 22.5q26 0 42 -15t16 -40q0 -35 -24.5 -58t-59.5 -23q-27 0 -42.5 15t-15.5 40z" />
    <glyph glyph-name="dotlessi" unicode="&#x131;" horiz-adv-x="299" 
d="M64 464l8 48q71 16 115 16q71 0 60 -61l-74 -375q-6 -30 26 -22q22 5 50 23l7 -48q-6 -6 -17 -14.5t-44.5 -23t-67.5 -14.5q-38 0 -53.5 18.5t-7.5 60.5l72 362q4 22 -5.5 26t-68.5 4z" />
    <glyph glyph-name="IJ" unicode="&#x132;" horiz-adv-x="656" 
d="M625 633l-137 -702q-17 -88 -76.5 -139t-150.5 -51q-29 0 -55.5 5.5t-37.5 11.5l-12 5l25 70q29 -18 82 -18q17 0 35.5 2.5t28.5 4.5l10 3q32 37 49 120l135 695l-71 7l10 53h251l-10 -50zM183 60l72 -7l-11 -53h-251l10 50l76 17l112 573l-72 7l10 53h251l-9 -50
l-76 -17z" />
    <glyph glyph-name="ij" unicode="&#x133;" horiz-adv-x="577" 
d="M64 463l9 49q70 16 115 16q70 0 59 -61l-74 -375q-6 -30 26 -22q22 5 50 23l7 -48q-6 -6 -17 -14.5t-44.5 -23t-67.5 -14.5q-38 0 -53.5 18.5t-7.5 60.5l72 362q4 22 -5 25.5t-69 3.5zM153 673q0 34 24.5 57.5t59.5 23.5q27 0 42.5 -15.5t15.5 -41.5q0 -34 -24.5 -57
t-59.5 -23q-27 0 -42.5 15t-15.5 41zM452 672q0 36 24 59t60 23q27 0 42.5 -15.5t15.5 -40.5q0 -35 -24 -58t-60 -23q-27 0 -42.5 15t-15.5 40zM363 463l9 49q70 16 114 16q71 0 60 -61l-91 -467q-26 -131 -81 -185t-146 -54q-21 0 -42 2.5t-32 4.5l-10 3l25 77
q33 -18 75 -18q14 0 27.5 2.5t19.5 5.5l6 2q31 40 55 160l85 434q4 22 -5.5 25.5t-68.5 3.5z" />
    <glyph glyph-name="Jcircumflex" unicode="&#x134;" horiz-adv-x="447" 
d="M415 633l-88 -452q-17 -88 -76.5 -139t-150.5 -51q-29 0 -55.5 5.5t-38.5 11.5l-11 5l26 70q28 -18 81 -18q17 0 36 2.5t29 4.5l10 3q31 37 48 120l86 443l-85 4l11 58h264l-9 -50zM230 763l166 148h13l108 -148l-49 -22l-83 82l-115 -82z" />
    <glyph glyph-name="jcircumflex" unicode="&#x135;" horiz-adv-x="279" 
d="M65 466l8 46q70 16 115 16q70 0 59 -61l-91 -467q-26 -131 -81 -185t-146 -54q-21 0 -42 2.5t-31 4.5l-11 3l26 77q32 -18 74 -18q14 0 27.5 2.5t19.5 5.5l6 2q32 40 55 160l85 436q4 22 -4 26t-69 4zM52 601l166 148h13l109 -148l-49 -22l-83 82l-115 -82z" />
    <glyph glyph-name="Kcommaaccent" unicode="&#x136;" horiz-adv-x="660" 
d="M183 60l72 -7l-11 -53h-251l10 50l76 17l112 573l-72 7l10 53h251l-9 -50l-76 -17l-48 -249l82 13l221 243l-69 7l10 53h228l-10 -50l-73 -17l-236 -257l141 -316l70 -7l-10 -53h-159l-142 326h-65zM231 -258l-10 20q8 5 19.5 13.5t32 33.5t24.5 47q-33 3 -33 38
q0 25 17 41.5t42 16.5q40 0 40 -45q0 -31 -13.5 -59t-33 -46.5t-39 -32.5t-33.5 -21z" />
    <glyph glyph-name="kcommaaccent" unicode="&#x137;" horiz-adv-x="546" 
d="M498 88l7 -48q-5 -5 -14.5 -12.5t-36.5 -20.5t-53 -13q-65 0 -105 81l-101 185l-50 -260h-104l130 662q4 22 -5.5 26t-68.5 4l8 49q71 15 116 15q70 0 59 -61l-81 -416q27 9 55 21t65.5 32t61 47t23.5 55q0 18 -14 25t-56 7l8 47q61 14 98 14q32 0 46.5 -15t13.5 -48
q-1 -32 -18.5 -63.5t-41 -53t-55 -41.5t-50.5 -29.5t-36 -16.5l104 -167q13 -21 36.5 -22t40.5 8zM162 -258l-10 20q8 5 19.5 13.5t32.5 33.5t24 47q-33 3 -33 38q0 25 17 41.5t43 16.5q39 0 39 -45q0 -31 -13.5 -59t-33 -46.5t-39 -32.5t-32.5 -21z" />
    <glyph glyph-name="Lacute" unicode="&#x139;" horiz-adv-x="574" 
d="M487 0h-494l10 50l76 17l112 573l-72 7l10 53h251l-9 -50l-76 -17l-110 -562h232l49 112h69zM195 763l163 155l52 -65l-175 -112z" />
    <glyph glyph-name="lacute" unicode="&#x13a;" horiz-adv-x="286" 
d="M96 692l9 49q71 15 115 15q70 0 59 -61l-117 -603q-6 -31 28 -22q21 7 47 23l7 -48q-6 -6 -17 -14.5t-44.5 -23t-67.5 -14.5q-76 0 -61 79l116 590q4 22 -3 26q-11 4 -71 4zM150 799l163 155l53 -65l-176 -112z" />
    <glyph glyph-name="Lcommaaccent" unicode="&#x13b;" horiz-adv-x="574" 
d="M487 0h-494l10 50l76 17l112 573l-72 7l10 53h251l-9 -50l-76 -17l-110 -562h232l49 112h69zM191 -258l-11 20q8 5 19.5 13.5t32.5 33.5t25 47q-34 3 -34 38q0 25 17.5 41.5t42.5 16.5q39 0 39 -45q0 -31 -13.5 -59t-33 -46.5t-38.5 -32.5t-33 -21z" />
    <glyph glyph-name="lcommaaccent" unicode="&#x13c;" horiz-adv-x="286" 
d="M96 692l9 49q71 15 115 15q70 0 59 -61l-117 -603q-6 -31 28 -22q21 7 47 23l7 -48q-6 -6 -17 -14.5t-44.5 -23t-67.5 -14.5q-76 0 -61 79l116 590q4 22 -3 26q-11 4 -71 4zM23 -258l-10 20q8 5 19.5 13.5t32.5 33.5t24 47q-33 3 -33 38q0 25 17 41.5t43 16.5
q39 0 39 -45q0 -31 -13.5 -59t-33 -46.5t-39 -32.5t-33.5 -21z" />
    <glyph glyph-name="Lcaron" unicode="&#x13d;" horiz-adv-x="574" 
d="M487 0h-494l10 50l76 17l112 573l-72 7l10 53h251l-9 -50l-76 -17l-110 -562h232l49 112h69zM428 460l-13 25q9 6 22.5 16t37.5 39t28 54q-40 5 -40 47q0 29 21 49t51 20q48 0 48 -58q0 -35 -16 -67.5t-38.5 -54t-45.5 -38.5t-39 -24z" />
    <glyph glyph-name="lcaron" unicode="&#x13e;" horiz-adv-x="423" 
d="M96 692l9 49q71 15 115 15q70 0 59 -61l-117 -603q-6 -31 28 -22q21 7 47 23l7 -48q-6 -6 -17 -14.5t-44.5 -23t-67.5 -14.5q-76 0 -61 79l116 590q4 22 -3 26q-11 4 -71 4zM315 510l-13 25q9 6 22.5 16t37.5 39t28 54q-39 5 -39 47q0 29 20.5 49t51.5 20q48 0 48 -58
q0 -35 -16 -67.5t-39 -54t-46 -38.5t-39 -24z" />
    <glyph glyph-name="Ldot" unicode="&#x13f;" horiz-adv-x="574" 
d="M487 0h-494l10 50l76 17l112 573l-72 7l10 53h251l-9 -50l-76 -17l-110 -562h232l49 112h69zM416 348q0 34 23 56t57 22q25 0 40 -14.5t15 -39.5q0 -33 -23.5 -55.5t-57.5 -22.5q-25 0 -39.5 14.5t-14.5 39.5z" />
    <glyph glyph-name="Lslash" unicode="&#x141;" horiz-adv-x="577" 
d="M385 390l-148 -67l-49 -252h232l49 112h69l-48 -183h-494l10 50l75 17l39 203l-66 -30l-16 60l97 44l58 296l-71 7l10 53h251l-10 -50l-75 -17l-46 -237l118 54z" />
    <glyph glyph-name="lslash" unicode="&#x142;" horiz-adv-x="294" 
d="M303 381l-85 -39l-49 -250q-6 -30 26 -22q22 5 50 23l7 -48q-6 -6 -17 -14.5t-45 -23t-68 -14.5q-38 0 -53 18.5t-7 60.5l43 218l-60 -27l-12 60l86 39l59 300q4 22 -5.5 26t-68.5 4l9 49q70 15 114 15q71 0 60 -61l-55 -282l59 27z" />
    <glyph glyph-name="Nacute" unicode="&#x143;" horiz-adv-x="733" 
d="M157 60l74 -7l-9 -53h-232l10 50l79 17l111 573l-75 7l11 53h177l211 -462q9 -18 16 -49l3 1q1 13 7 48l78 402l-75 7l11 53h232l-11 -50l-79 -17l-122 -633h-75l-231 499q-11 24 -15 49l-3 -1l-7 -48zM393 763l163 155l52 -65l-175 -112z" />
    <glyph glyph-name="nacute" unicode="&#x144;" horiz-adv-x="607" 
d="M558 93l6 -48q-6 -6 -16.5 -14.5t-44.5 -23t-68 -14.5q-77 0 -60 79l51 263q14 72 3 98t-54 26q-25 0 -49.5 -6.5t-37.5 -13.5l-12 -7q-6 -9 -15 -25.5t-30.5 -74t-33.5 -122.5l-41 -210h-102l84 434q4 22 -5 25.5t-69 3.5l9 49q49 16 96 16q34 0 44 -15t0 -68l-13 -59h6
q24 63 85 103.5t138 40.5q75 0 97.5 -48t0.5 -161l-44 -224q-6 -30 27 -24q21 5 48 20zM276 601l163 155l52 -65l-175 -112z" />
    <glyph glyph-name="Ncommaaccent" unicode="&#x145;" horiz-adv-x="733" 
d="M157 60l74 -7l-9 -53h-232l10 50l79 17l111 573l-75 7l11 53h177l211 -462q9 -18 16 -49l3 1q1 13 7 48l78 402l-75 7l11 53h232l-11 -50l-79 -17l-122 -633h-75l-231 499q-11 24 -15 49l-3 -1l-7 -48zM242 -258l-11 20q8 5 19.5 13.5t32.5 33.5t24 47q-33 3 -33 38
q0 25 17.5 41.5t42.5 16.5q39 0 39 -45q0 -31 -13.5 -59t-32.5 -46.5t-38.5 -32.5t-32.5 -21z" />
    <glyph glyph-name="ncommaaccent" unicode="&#x146;" horiz-adv-x="607" 
d="M558 93l6 -48q-6 -6 -16.5 -14.5t-44.5 -23t-68 -14.5q-77 0 -60 79l51 263q14 72 3 98t-54 26q-25 0 -49.5 -6.5t-37.5 -13.5l-12 -7q-6 -9 -15 -25.5t-30.5 -74t-33.5 -122.5l-41 -210h-102l84 434q4 22 -5 25.5t-69 3.5l9 49q49 16 96 16q34 0 44 -15t0 -68l-13 -59h6
q24 63 85 103.5t138 40.5q75 0 97.5 -48t0.5 -161l-44 -224q-6 -30 27 -24q21 5 48 20zM178 -258l-11 20q8 5 19.5 13.5t32.5 33.5t24 47q-33 3 -33 38q0 25 17.5 41.5t42.5 16.5q39 0 39 -45q0 -31 -13.5 -59t-32.5 -46.5t-38.5 -32.5t-32.5 -21z" />
    <glyph glyph-name="Ncaron" unicode="&#x147;" horiz-adv-x="733" 
d="M157 60l74 -7l-9 -53h-232l10 50l79 17l111 573l-75 7l11 53h177l211 -462q9 -18 16 -49l3 1q1 13 7 48l78 402l-75 7l11 53h232l-11 -50l-79 -17l-122 -633h-75l-231 499q-11 24 -15 49l-3 -1l-7 -48zM439 741l-103 143l42 30l85 -84l118 84l30 -30l-158 -143h-14z" />
    <glyph glyph-name="ncaron" unicode="&#x148;" horiz-adv-x="607" 
d="M558 93l6 -48q-6 -6 -16.5 -14.5t-44.5 -23t-68 -14.5q-77 0 -60 79l51 263q14 72 3 98t-54 26q-25 0 -49.5 -6.5t-37.5 -13.5l-12 -7q-6 -9 -15 -25.5t-30.5 -74t-33.5 -122.5l-41 -210h-102l84 434q4 22 -5 25.5t-69 3.5l9 49q49 16 96 16q34 0 44 -15t0 -68l-13 -59h6
q24 63 85 103.5t138 40.5q75 0 97.5 -48t0.5 -161l-44 -224q-6 -30 27 -24q21 5 48 20zM343 585l-104 142l42 31l85 -85l119 85l29 -31l-158 -142h-13z" />
    <glyph glyph-name="Eng" unicode="&#x14a;" horiz-adv-x="733" 
d="M157 60l74 -7l-9 -53h-232l10 50l79 17l111 573l-75 7l11 53h177l211 -462q9 -18 16 -49l3 1q1 13 7 48l78 402l-75 7l11 53h232l-11 -50l-79 -17l-122 -633l-14 -69q-17 -88 -75 -139t-148 -51q-29 0 -54.5 5.5t-36.5 11.5l-12 5l25 70q29 -18 82 -18q17 0 35.5 2.5
t28.5 4.5l10 3q33 37 48 120l18 93l-213 461q-11 24 -15 49l-3 -1l-7 -48z" />
    <glyph glyph-name="eng" unicode="&#x14b;" horiz-adv-x="587" 
d="M375 72l51 263q14 72 3 98t-54 26q-25 0 -49.5 -6.5t-37.5 -13.5l-12 -7q-6 -9 -15 -25.5t-30.5 -74t-33.5 -122.5l-41 -210h-102l84 434q4 22 -5 25.5t-69 3.5l9 49q49 16 96 16q34 0 44 -15t0 -68l-13 -59h6q24 63 85 103.5t138 40.5q75 0 97.5 -48t0.5 -161l-44 -224
l-20 -97q-25 -131 -80 -185t-146 -54q-21 0 -42.5 2.5t-32.5 4.5l-10 3l26 77q33 -18 75 -18q14 0 27.5 2.5t19.5 5.5l6 2q31 40 55 160z" />
    <glyph glyph-name="Omacron" unicode="&#x14c;" horiz-adv-x="659" 
d="M53 272q0 187 105.5 312t258.5 125q109 0 170 -71.5t61 -208.5q0 -187 -105.5 -312.5t-257.5 -125.5q-110 0 -171 72t-61 209zM164 257q0 -192 138 -192q28 0 55 6.5t41 12.5l13 7q5 5 13.5 15t30.5 44t38.5 72t30 98t13.5 123q0 191 -137 191q-28 0 -56 -7t-42 -13
l-14 -7q-5 -5 -13.5 -15t-30 -44t-37.5 -71.5t-29.5 -97.5t-13.5 -122zM286 769l12 66h277l-12 -66h-277z" />
    <glyph glyph-name="omacron" unicode="&#x14d;" horiz-adv-x="540" 
d="M41 197q0 144 85.5 238.5t210.5 94.5q87 0 133 -51.5t46 -152.5q0 -144 -84.5 -239.5t-210.5 -95.5q-88 0 -134 52.5t-46 153.5zM148 204q0 -141 100 -141q17 0 36.5 3.5t30.5 7.5l11 4q3 3 9 9.5t20 29.5t25 48t20 66t9 84q0 144 -99 144q-16 0 -36 -4t-32 -8l-11 -4
q-3 -4 -9 -11t-20 -30.5t-25 -49.5t-20 -66.5t-9 -81.5zM206 627l13 66h277l-13 -66h-277z" />
    <glyph glyph-name="Obreve" unicode="&#x14e;" horiz-adv-x="659" 
d="M53 272q0 187 105.5 312t258.5 125q109 0 170 -71.5t61 -208.5q0 -187 -105.5 -312.5t-257.5 -125.5q-110 0 -171 72t-61 209zM164 257q0 -192 138 -192q28 0 55 6.5t41 12.5l13 7q5 5 13.5 15t30.5 44t38.5 72t30 98t13.5 123q0 191 -137 191q-28 0 -56 -7t-42 -13
l-14 -7q-5 -5 -13.5 -15t-30 -44t-37.5 -71.5t-29.5 -97.5t-13.5 -122zM550 873l31 -13q-2 -4 -5.5 -11.5t-17 -25.5t-29.5 -32t-44 -25.5t-59 -11.5q-49 0 -78 26t-34 52l-4 25l55 18q0 -2 1.5 -6.5t7 -14.5t13.5 -18t24 -14.5t36 -6.5q32 0 57.5 14.5t35.5 28.5z" />
    <glyph glyph-name="obreve" unicode="&#x14f;" horiz-adv-x="540" 
d="M41 197q0 144 85.5 238.5t210.5 94.5q87 0 133 -51.5t46 -152.5q0 -144 -84.5 -239.5t-210.5 -95.5q-88 0 -134 52.5t-46 153.5zM148 204q0 -141 100 -141q17 0 36.5 3.5t30.5 7.5l11 4q3 3 9 9.5t20 29.5t25 48t20 66t9 84q0 144 -99 144q-16 0 -36 -4t-32 -8l-11 -4
q-3 -4 -9 -11t-20 -30.5t-25 -49.5t-20 -66.5t-9 -81.5zM461 723l32 -13q-2 -4 -5.5 -11.5t-17 -25.5t-30 -32t-44 -25.5t-59.5 -11.5q-31 0 -54.5 10.5t-34.5 25.5t-18 30t-8 26l-1 10l56 18q0 -2 1.5 -6.5t7 -14.5t13.5 -18t24 -14.5t36 -6.5q32 0 57.5 15t35.5 29z" />
    <glyph glyph-name="Ohungarumlaut" unicode="&#x150;" horiz-adv-x="659" 
d="M53 272q0 187 105.5 312t258.5 125q109 0 170 -71.5t61 -208.5q0 -187 -105.5 -312.5t-257.5 -125.5q-110 0 -171 72t-61 209zM164 257q0 -192 138 -192q28 0 55 6.5t41 12.5l13 7q5 5 13.5 15t30.5 44t38.5 72t30 98t13.5 123q0 191 -137 191q-28 0 -56 -7t-42 -13
l-14 -7q-5 -5 -13.5 -15t-30 -44t-37.5 -71.5t-29.5 -97.5t-13.5 -122zM285 763l111 155l65 -53l-132 -124zM449 763l111 155l65 -53l-131 -124z" />
    <glyph glyph-name="ohungarumlaut" unicode="&#x151;" horiz-adv-x="540" 
d="M41 197q0 144 85.5 238.5t210.5 94.5q87 0 133 -51.5t46 -152.5q0 -144 -84.5 -239.5t-210.5 -95.5q-88 0 -134 52.5t-46 153.5zM148 204q0 -141 100 -141q17 0 36.5 3.5t30.5 7.5l11 4q3 3 9 9.5t20 29.5t25 48t20 66t9 84q0 144 -99 144q-16 0 -36 -4t-32 -8l-11 -4
q-3 -4 -9 -11t-20 -30.5t-25 -49.5t-20 -66.5t-9 -81.5zM215 601l111 155l65 -54l-132 -123zM379 601l111 155l65 -54l-132 -123z" />
    <glyph glyph-name="OE" unicode="&#x152;" horiz-adv-x="873" 
d="M774 0h-405q-37 -9 -76 -9q-111 0 -175 74.5t-64 211.5q0 185 108.5 308.5t267.5 123.5q42 0 76 -9h391l-22 -177h-69l-6 106h-203l-46 -238h98l30 81h58l-46 -234h-58l2 81h-99l-48 -248h215l49 109h69zM316 65q16 0 31 3t25 7t13 4l102 527q-24 28 -75 28q-29 0 -59 -7
t-45 -13l-15 -7q-5 -5 -13.5 -15t-31 -44t-39 -71.5t-30.5 -96.5t-14 -120q0 -195 151 -195z" />
    <glyph glyph-name="oe" unicode="&#x153;" horiz-adv-x="837" 
d="M41 195q0 147 83 241t209 94q111 0 150 -88q81 88 205 88q140 0 140 -116q0 -86 -83 -139t-244 -54v-2q0 -155 122 -155q29 0 62.5 8t52.5 16l20 9l9 -55q-9 -6 -24.5 -14.5t-62.5 -22.5t-93 -14q-121 0 -168 92q-81 -92 -204 -92q-174 0 -174 204zM148 204
q0 -141 96 -141q16 0 35 3.5t29 7.5l11 4q3 3 8.5 9.5t19.5 29t24.5 48t19 66t8.5 83.5q0 145 -96 145q-16 0 -34.5 -4t-29.5 -8l-11 -4q-3 -4 -8.5 -11t-19.5 -30.5t-24.5 -49.5t-19 -66.5t-8.5 -81.5zM579 443q-6 -7 -16 -19.5t-30 -54.5t-28 -89q111 2 164.5 34t53.5 86
q0 59 -65 59q-17 0 -36.5 -4t-31.5 -8z" />
    <glyph glyph-name="Racute" unicode="&#x154;" horiz-adv-x="642" 
d="M183 60l72 -7l-11 -53h-251l10 50l76 17l112 573l-72 7l10 53h286q93 0 147 -45t54 -127t-54 -140.5t-143 -79.5l104 -248l70 -7l-10 -53h-162l-105 299h-86zM378 629h-84l-50 -258h89q23 0 47 2.5t36 5.5l13 3q3 2 8 6t17.5 17t22 28.5t17.5 40t8 51.5q0 104 -124 104z
M317 763l163 155l52 -65l-175 -112z" />
    <glyph glyph-name="racute" unicode="&#x155;" horiz-adv-x="416" 
d="M435 528l-18 -95q-22 5 -47 5q-27 0 -53 -7t-39 -14l-12 -7q-41 -55 -69 -200l-41 -210h-102l84 434q4 22 -5 25.5t-69 3.5l9 49q49 16 96 16q35 0 44.5 -15t-0.5 -68l-15 -69h5q19 66 72 110t123 44zM222 601l163 155l53 -65l-176 -112z" />
    <glyph glyph-name="Rcommaaccent" unicode="&#x156;" horiz-adv-x="642" 
d="M183 60l72 -7l-11 -53h-251l10 50l76 17l112 573l-72 7l10 53h286q93 0 147 -45t54 -127t-54 -140.5t-143 -79.5l104 -248l70 -7l-10 -53h-162l-105 299h-86zM378 629h-84l-50 -258h89q23 0 47 2.5t36 5.5l13 3q3 2 8 6t17.5 17t22 28.5t17.5 40t8 51.5q0 104 -124 104z
M228 -258l-10 20q8 5 19.5 13.5t32 33.5t24.5 47q-33 3 -33 38q0 25 17 41.5t42 16.5q39 0 39 -45q0 -31 -13.5 -59t-32.5 -46.5t-38.5 -32.5t-32.5 -21z" />
    <glyph glyph-name="rcommaaccent" unicode="&#x157;" horiz-adv-x="416" 
d="M435 528l-18 -95q-22 5 -47 5q-27 0 -53 -7t-39 -14l-12 -7q-41 -55 -69 -200l-41 -210h-102l84 434q4 22 -5 25.5t-69 3.5l9 49q49 16 96 16q35 0 44.5 -15t-0.5 -68l-15 -69h5q19 66 72 110t123 44zM14 -258l-10 20q8 5 19.5 13.5t32 33.5t24.5 47q-33 3 -33 38
q0 25 17 41.5t42 16.5q40 0 40 -45q0 -31 -13.5 -59t-33 -46.5t-39 -32.5t-32.5 -21z" />
    <glyph glyph-name="Rcaron" unicode="&#x158;" horiz-adv-x="642" 
d="M183 60l72 -7l-11 -53h-251l10 50l76 17l112 573l-72 7l10 53h286q93 0 147 -45t54 -127t-54 -140.5t-143 -79.5l104 -248l70 -7l-10 -53h-162l-105 299h-86zM378 629h-84l-50 -258h89q23 0 47 2.5t36 5.5l13 3q3 2 8 6t17.5 17t22 28.5t17.5 40t8 51.5q0 104 -124 104z
M373 741l-103 143l41 30l85 -84l119 84l30 -30l-159 -143h-13z" />
    <glyph glyph-name="rcaron" unicode="&#x159;" horiz-adv-x="416" 
d="M435 528l-18 -95q-22 5 -47 5q-27 0 -53 -7t-39 -14l-12 -7q-41 -55 -69 -200l-41 -210h-102l84 434q4 22 -5 25.5t-69 3.5l9 49q49 16 96 16q35 0 44.5 -15t-0.5 -68l-15 -69h5q19 66 72 110t123 44zM265 585l-103 142l41 31l85 -85l119 85l30 -31l-159 -142h-13z" />
    <glyph glyph-name="Sacute" unicode="&#x15a;" horiz-adv-x="543" 
d="M382 194q0 18 -7 33t-15 24.5t-26 20t-29.5 15.5t-36.5 14.5t-36 14.5q-63 27 -97 65.5t-34 107.5q0 41 12.5 77.5t41 70t82 53t127.5 19.5q58 0 103 -11.5t61 -23.5l17 -12l-33 -164h-72l7 111q-28 26 -97 26q-24 0 -50 -4t-40 -8l-14 -4q-39 -45 -39 -104
q0 -14 3.5 -26.5t8 -21.5t15 -18.5t17 -14.5t22 -13t22.5 -11t26.5 -10.5t25.5 -10.5q70 -29 104.5 -66.5t34.5 -106.5q0 -42 -13.5 -79.5t-44.5 -72t-90 -54.5t-140 -20q-61 0 -108.5 12t-64.5 24l-17 11l33 166h69l-1 -112q34 -24 114 -24q29 0 58 4t43 8l15 4
q43 53 43 111zM274 763l163 155l53 -65l-176 -112z" />
    <glyph glyph-name="sacute" unicode="&#x15b;" horiz-adv-x="480" 
d="M327 142q0 19 -7 32.5t-24 23.5t-31 15.5t-40 14.5q-30 9 -48 16.5t-41 23t-34 39.5t-11 57q0 68 51 117t160 49q32 0 59 -4.5t43 -11.5t28 -13.5t16 -10.5l5 -5l-23 -122h-75l2 81q-20 18 -72 18q-18 0 -37.5 -2.5t-30.5 -5.5l-11 -2q-24 -30 -24 -66q0 -19 7 -33
t24 -24t32 -16t43 -15q31 -9 48.5 -16.5t39.5 -22t32.5 -38t10.5 -55.5q0 -73 -56 -124t-175 -51q-34 0 -63 4.5t-46.5 11t-30 13.5t-16.5 12l-5 4l25 123h75l-2 -81q23 -18 83 -18q21 0 44 2.5t36 5.5l12 2q27 34 27 72zM224 601l163 155l53 -65l-176 -112z" />
    <glyph glyph-name="Scircumflex" unicode="&#x15c;" horiz-adv-x="543" 
d="M382 194q0 18 -7 33t-15 24.5t-26 20t-29.5 15.5t-36.5 14.5t-36 14.5q-63 27 -97 65.5t-34 107.5q0 41 12.5 77.5t41 70t82 53t127.5 19.5q58 0 103 -11.5t61 -23.5l17 -12l-33 -164h-72l7 111q-28 26 -97 26q-24 0 -50 -4t-40 -8l-14 -4q-39 -45 -39 -104
q0 -14 3.5 -26.5t8 -21.5t15 -18.5t17 -14.5t22 -13t22.5 -11t26.5 -10.5t25.5 -10.5q70 -29 104.5 -66.5t34.5 -106.5q0 -42 -13.5 -79.5t-44.5 -72t-90 -54.5t-140 -20q-61 0 -108.5 12t-64.5 24l-17 11l33 166h69l-1 -112q34 -24 114 -24q29 0 58 4t43 8l15 4
q43 53 43 111zM228 763l166 148h13l108 -148l-49 -22l-82 82l-116 -82z" />
    <glyph glyph-name="scircumflex" unicode="&#x15d;" horiz-adv-x="480" 
d="M327 142q0 19 -7 32.5t-24 23.5t-31 15.5t-40 14.5q-30 9 -48 16.5t-41 23t-34 39.5t-11 57q0 68 51 117t160 49q32 0 59 -4.5t43 -11.5t28 -13.5t16 -10.5l5 -5l-23 -122h-75l2 81q-20 18 -72 18q-18 0 -37.5 -2.5t-30.5 -5.5l-11 -2q-24 -30 -24 -66q0 -19 7 -33
t24 -24t32 -16t43 -15q31 -9 48.5 -16.5t39.5 -22t32.5 -38t10.5 -55.5q0 -73 -56 -124t-175 -51q-34 0 -63 4.5t-46.5 11t-30 13.5t-16.5 12l-5 4l25 123h75l-2 -81q23 -18 83 -18q21 0 44 2.5t36 5.5l12 2q27 34 27 72zM171 601l166 148h13l108 -148l-49 -22l-83 82
l-115 -82z" />
    <glyph glyph-name="Scedilla" unicode="&#x15e;" horiz-adv-x="543" 
d="M180 -88l22 78h-4q-61 0 -108.5 12t-64.5 24l-17 11l33 166h69l-1 -112q34 -24 114 -24q29 0 58 4t43 8l15 4q43 53 43 111q0 18 -7 33t-15 24.5t-26 20t-29.5 15.5t-36.5 14.5t-36 14.5q-63 27 -97 65.5t-34 107.5q0 41 12.5 77.5t41 70t82 53t127.5 19.5
q58 0 103 -11.5t61 -23.5l17 -12l-33 -164h-72l7 111q-28 26 -97 26q-24 0 -50 -4t-40 -8l-14 -4q-39 -45 -39 -104q0 -14 3.5 -26.5t8 -21.5t15 -18.5t17 -14.5t22 -13t22.5 -11t26.5 -10.5t25.5 -10.5q70 -29 104.5 -66.5t34.5 -106.5q0 -84 -54.5 -147.5t-179.5 -75.5
l-17 -57q2 0 6.5 -0.5t15 -4t18.5 -8.5t14.5 -16.5t6.5 -26.5q0 -38 -34.5 -61t-91.5 -23q-18 0 -34 2.5t-23 5.5l-7 2l21 49q16 -15 51 -15l34 4q11 18 11 35q0 13 -10.5 21.5t-21.5 9.5z" />
    <glyph glyph-name="scedilla" unicode="&#x15f;" horiz-adv-x="480" 
d="M152 -88l22 79q-49 1 -86 12.5t-49 22.5l-12 10l25 123h75l-2 -81q23 -18 83 -18q21 0 44 2.5t36 5.5l12 2q27 34 27 72q0 19 -7 32.5t-24 23.5t-31 15.5t-40 14.5q-30 9 -48 16.5t-41 23t-34 39.5t-11 57q0 68 51 117t160 49q32 0 59 -4.5t43 -11.5t28 -13.5t16 -10.5
l5 -5l-23 -122h-75l2 81q-20 18 -72 18q-18 0 -37.5 -2.5t-30.5 -5.5l-11 -2q-24 -30 -24 -66q0 -19 7 -33t24 -24t32 -16t43 -15q31 -9 48.5 -16.5t39.5 -22t32.5 -38t10.5 -55.5q0 -67 -47.5 -116t-147.5 -57l-17 -57q2 0 6.5 -0.5t15 -4t18.5 -8.5t14.5 -16.5t6.5 -26.5
q0 -38 -34.5 -61t-91.5 -23q-18 0 -34 2.5t-23 5.5l-7 2l21 49q16 -15 51 -15l34 4q12 18 12 35q0 13 -11 21.5t-22 9.5z" />
    <glyph glyph-name="Scaron" unicode="&#x160;" horiz-adv-x="543" 
d="M382 194q0 18 -7 33t-15 24.5t-26 20t-29.5 15.5t-36.5 14.5t-36 14.5q-63 27 -97 65.5t-34 107.5q0 41 12.5 77.5t41 70t82 53t127.5 19.5q58 0 103 -11.5t61 -23.5l17 -12l-33 -164h-72l7 111q-28 26 -97 26q-24 0 -50 -4t-40 -8l-14 -4q-39 -45 -39 -104
q0 -14 3.5 -26.5t8 -21.5t15 -18.5t17 -14.5t22 -13t22.5 -11t26.5 -10.5t25.5 -10.5q70 -29 104.5 -66.5t34.5 -106.5q0 -42 -13.5 -79.5t-44.5 -72t-90 -54.5t-140 -20q-61 0 -108.5 12t-64.5 24l-17 11l33 166h69l-1 -112q34 -24 114 -24q29 0 58 4t43 8l15 4
q43 53 43 111zM352 741l-103 143l41 30l86 -84l118 84l30 -30l-159 -143h-13z" />
    <glyph glyph-name="scaron" unicode="&#x161;" horiz-adv-x="480" 
d="M327 142q0 19 -7 32.5t-24 23.5t-31 15.5t-40 14.5q-30 9 -48 16.5t-41 23t-34 39.5t-11 57q0 68 51 117t160 49q32 0 59 -4.5t43 -11.5t28 -13.5t16 -10.5l5 -5l-23 -122h-75l2 81q-20 18 -72 18q-18 0 -37.5 -2.5t-30.5 -5.5l-11 -2q-24 -30 -24 -66q0 -19 7 -33
t24 -24t32 -16t43 -15q31 -9 48.5 -16.5t39.5 -22t32.5 -38t10.5 -55.5q0 -73 -56 -124t-175 -51q-34 0 -63 4.5t-46.5 11t-30 13.5t-16.5 12l-5 4l25 123h75l-2 -81q23 -18 83 -18q21 0 44 2.5t36 5.5l12 2q27 34 27 72zM298 585l-103 142l41 31l86 -85l118 85l30 -31
l-159 -142h-13z" />
    <glyph glyph-name="Tcommaaccent" unicode="&#x162;" horiz-adv-x="631" 
d="M334 60l72 -7l-11 -53h-251l10 50l76 17l109 562h-139l-50 -122h-70l51 193h550l-24 -193h-70l-3 122h-140zM176 -258l-11 20q8 5 19.5 13.5t32.5 33.5t25 47q-34 3 -34 38q0 25 17.5 41.5t42.5 16.5q39 0 39 -45q0 -31 -13.5 -59t-32.5 -46.5t-38.5 -32.5t-32.5 -21z
" />
    <glyph glyph-name="tcommaaccent" unicode="&#x163;" horiz-adv-x="390" 
d="M68 450l12 59l66 12l34 100h87l-19 -100h150l-14 -71h-150l-60 -309q-16 -77 50 -77q20 0 43 7.5t36 14.5l13 8l7 -49q-5 -6 -16 -15t-48 -24t-79 -15q-138 0 -109 149l60 310h-63zM80 -258l-10 20q8 5 19.5 13.5t32 33.5t24.5 47q-34 3 -34 38q0 25 17.5 41.5t42.5 16.5
q39 0 39 -45q0 -31 -13.5 -59t-32.5 -46.5t-38.5 -32.5t-32.5 -21z" />
    <glyph glyph-name="Tcaron" unicode="&#x164;" horiz-adv-x="631" 
d="M334 60l72 -7l-11 -53h-251l10 50l76 17l109 562h-139l-50 -122h-70l51 193h550l-24 -193h-70l-3 122h-140zM398 743l-104 142l42 30l85 -84l119 84l29 -30l-158 -142h-13z" />
    <glyph glyph-name="tcaron" unicode="&#x165;" horiz-adv-x="390" 
d="M68 450l12 59l66 12l34 100h87l-19 -100h150l-14 -71h-150l-60 -309q-16 -77 50 -77q20 0 43 7.5t36 14.5l13 8l7 -49q-5 -6 -16 -15t-48 -24t-79 -15q-138 0 -109 149l60 310h-63zM327 561l-9 19q7 5 18 13t30.5 32t22.5 45q-31 3 -31 37q0 23 16 38t40 15q37 0 37 -45
q0 -28 -13 -54t-31 -43.5t-36 -30.5t-31 -19z" />
    <glyph glyph-name="Tbar" unicode="&#x166;" horiz-adv-x="631" 
d="M166 336l13 65h115l45 228h-139l-50 -122h-70l51 193h550l-24 -193h-70l-3 122h-140l-44 -228h116l-12 -65h-117l-53 -276l72 -7l-11 -53h-251l10 50l76 17l52 269h-116z" />
    <glyph glyph-name="tbar" unicode="&#x167;" horiz-adv-x="390" 
d="M68 450l12 59l66 12l34 100h87l-19 -100h150l-14 -71h-150l-20 -99h150l-12 -65h-150l-28 -145q-16 -77 50 -77q20 0 43 7.5t36 14.5l13 8l7 -49q-5 -6 -16 -15t-48 -24t-79 -15q-138 0 -109 149l28 146h-63l12 65h64l19 99h-63z" />
    <glyph glyph-name="Utilde" unicode="&#x168;" horiz-adv-x="722" 
d="M692 633l-75 -384q-24 -121 -106.5 -189.5t-195.5 -68.5t-171.5 66.5t-36.5 180.5l79 402l-72 7l11 53h254l-10 -50l-76 -17l-77 -395q-35 -176 132 -176q28 0 54 4.5t38 9.5l12 4q7 6 18 17t34 54.5t33 96.5l76 392l-75 7l10 53h232l-9 -50zM329 771l-20 28q8 9 21 22
t49 35t66 22q23 0 58 -19.5t60 -19.5l65 41l19 -28q-8 -9 -20.5 -22t-48 -34.5t-65.5 -21.5q-23 0 -59 19.5t-59 19.5z" />
    <glyph glyph-name="utilde" unicode="&#x169;" horiz-adv-x="604" 
d="M64 463l8 49q71 16 116 16q71 0 58 -61l-54 -281q-13 -74 -2 -98.5t51 -24.5q25 0 50 6.5t37 12.5l12 6q6 9 15.5 26t30.5 75t33 123l41 209h103l-84 -429q-6 -31 28 -22q21 6 48 23l7 -48q-6 -6 -16 -14.5t-40 -22.5t-59 -14q-31 0 -41 18.5t0 77.5l10 46h-6
q-23 -61 -82.5 -103t-137.5 -42q-75 0 -97.5 48.5t-0.5 160.5l45 234q5 22 -4 25.5t-69 3.5zM220 615l-19 27q8 9 21 22t48.5 35t66.5 22q23 0 58 -19t60 -19l65 41l19 -28q-8 -9 -21 -22t-48.5 -34.5t-65.5 -21.5q-24 0 -59 19t-59 19z" />
    <glyph glyph-name="Umacron" unicode="&#x16a;" horiz-adv-x="722" 
d="M692 633l-75 -384q-24 -121 -106.5 -189.5t-195.5 -68.5t-171.5 66.5t-36.5 180.5l79 402l-72 7l11 53h254l-10 -50l-76 -17l-77 -395q-35 -176 132 -176q28 0 54 4.5t38 9.5l12 4q7 6 18 17t34 54.5t33 96.5l76 392l-75 7l10 53h232l-9 -50zM323 769l12 66h277l-13 -66
h-276z" />
    <glyph glyph-name="umacron" unicode="&#x16b;" horiz-adv-x="604" 
d="M64 463l8 49q71 16 116 16q71 0 58 -61l-54 -281q-13 -74 -2 -98.5t51 -24.5q25 0 50 6.5t37 12.5l12 6q6 9 15.5 26t30.5 75t33 123l41 209h103l-84 -429q-6 -31 28 -22q21 6 48 23l7 -48q-6 -6 -16 -14.5t-40 -22.5t-59 -14q-31 0 -41 18.5t0 77.5l10 46h-6
q-23 -61 -82.5 -103t-137.5 -42q-75 0 -97.5 48.5t-0.5 160.5l45 234q5 22 -4 25.5t-69 3.5zM218 627l13 66h277l-13 -66h-277z" />
    <glyph glyph-name="Ubreve" unicode="&#x16c;" horiz-adv-x="722" 
d="M692 633l-75 -384q-24 -121 -106.5 -189.5t-195.5 -68.5t-171.5 66.5t-36.5 180.5l79 402l-72 7l11 53h254l-10 -50l-76 -17l-77 -395q-35 -176 132 -176q28 0 54 4.5t38 9.5l12 4q7 6 18 17t34 54.5t33 96.5l76 392l-75 7l10 53h232l-9 -50zM581 873l32 -13
q-2 -4 -5.5 -11.5t-17 -25.5t-30 -32t-44 -25.5t-59.5 -11.5q-49 0 -78 26t-33 52l-5 25l56 18q0 -2 1.5 -6.5t7 -14.5t13.5 -18t24 -14.5t36 -6.5q31 0 56.5 14.5t35.5 28.5z" />
    <glyph glyph-name="ubreve" unicode="&#x16d;" horiz-adv-x="604" 
d="M64 463l8 49q71 16 116 16q71 0 58 -61l-54 -281q-13 -74 -2 -98.5t51 -24.5q25 0 50 6.5t37 12.5l12 6q6 9 15.5 26t30.5 75t33 123l41 209h103l-84 -429q-6 -31 28 -22q21 6 48 23l7 -48q-6 -6 -16 -14.5t-40 -22.5t-59 -14q-31 0 -41 18.5t0 77.5l10 46h-6
q-23 -61 -82.5 -103t-137.5 -42q-75 0 -97.5 48.5t-0.5 160.5l45 234q5 22 -4 25.5t-69 3.5zM478 723l32 -13q-2 -4 -5.5 -11.5t-17 -25.5t-30 -32t-44 -25.5t-59.5 -11.5q-31 0 -54.5 10.5t-34.5 25.5t-18 30t-8 26l-1 10l56 18q0 -2 1.5 -6.5t7 -14.5t13.5 -18t24 -14.5
t36 -6.5q31 0 56.5 15t35.5 29z" />
    <glyph glyph-name="Uring" unicode="&#x16e;" horiz-adv-x="722" 
d="M692 633l-75 -384q-24 -121 -106.5 -189.5t-195.5 -68.5t-171.5 66.5t-36.5 180.5l79 402l-72 7l11 53h254l-10 -50l-76 -17l-77 -395q-35 -176 132 -176q28 0 54 4.5t38 9.5l12 4q7 6 18 17t34 54.5t33 96.5l76 392l-75 7l10 53h232l-9 -50zM379 815q0 43 30.5 71.5
t75.5 28.5q36 0 56.5 -19t20.5 -53q0 -42 -31 -70.5t-76 -28.5q-35 0 -55.5 18.5t-20.5 52.5zM431 822q0 -34 34 -34l31 5q15 19 15 44q0 34 -34 34l-32 -5q-14 -19 -14 -44z" />
    <glyph glyph-name="uring" unicode="&#x16f;" horiz-adv-x="604" 
d="M64 463l8 49q71 16 116 16q71 0 58 -61l-54 -281q-13 -74 -2 -98.5t51 -24.5q25 0 50 6.5t37 12.5l12 6q6 9 15.5 26t30.5 75t33 123l41 209h103l-84 -429q-6 -31 28 -22q21 6 48 23l7 -48q-6 -6 -16 -14.5t-40 -22.5t-59 -14q-31 0 -41 18.5t0 77.5l10 46h-6
q-23 -61 -82.5 -103t-137.5 -42q-75 0 -97.5 48.5t-0.5 160.5l45 234q5 22 -4 25.5t-69 3.5zM268 653q0 43 30.5 71.5t75.5 28.5q36 0 56.5 -19t20.5 -53q0 -42 -31 -70.5t-76 -28.5q-35 0 -55.5 18.5t-20.5 52.5zM320 660q0 -34 34 -34l31 5q15 19 15 44q0 34 -34 34
l-32 -5q-14 -19 -14 -44z" />
    <glyph glyph-name="Uhungarumlaut" unicode="&#x170;" horiz-adv-x="722" 
d="M692 633l-75 -384q-24 -121 -106.5 -189.5t-195.5 -68.5t-171.5 66.5t-36.5 180.5l79 402l-72 7l11 53h254l-10 -50l-76 -17l-77 -395q-35 -176 132 -176q28 0 54 4.5t38 9.5l12 4q7 6 18 17t34 54.5t33 96.5l76 392l-75 7l10 53h232l-9 -50zM329 763l112 155l65 -53
l-132 -124zM494 763l111 155l65 -53l-132 -124z" />
    <glyph glyph-name="uhungarumlaut" unicode="&#x171;" horiz-adv-x="604" 
d="M64 463l8 49q71 16 116 16q71 0 58 -61l-54 -281q-13 -74 -2 -98.5t51 -24.5q25 0 50 6.5t37 12.5l12 6q6 9 15.5 26t30.5 75t33 123l41 209h103l-84 -429q-6 -31 28 -22q21 6 48 23l7 -48q-6 -6 -16 -14.5t-40 -22.5t-59 -14q-31 0 -41 18.5t0 77.5l10 46h-6
q-23 -61 -82.5 -103t-137.5 -42q-75 0 -97.5 48.5t-0.5 160.5l45 234q5 22 -4 25.5t-69 3.5zM228 601l112 155l65 -54l-132 -123zM393 601l111 155l65 -54l-132 -123z" />
    <glyph glyph-name="Uogonek" unicode="&#x172;" horiz-adv-x="722" 
d="M332 -114q0 -37 39 -37q11 0 23 2.5t19 4.5l7 3l1 -28q-32 -26 -83 -26q-36 0 -56.5 17t-20.5 49q0 65 78 121q-8 -1 -24 -1q-113 0 -171.5 66.5t-36.5 180.5l79 402l-72 7l11 53h254l-10 -50l-76 -17l-77 -395q-35 -176 132 -176q28 0 54 4.5t38 9.5l12 4q7 6 18 17
t34 54.5t33 96.5l76 392l-75 7l10 53h232l-9 -50l-79 -17l-75 -384q-18 -95 -74.5 -158.5t-137.5 -87.5q-9 -7 -23.5 -21t-32 -42t-17.5 -54z" />
    <glyph glyph-name="uogonek" unicode="&#x173;" horiz-adv-x="604" 
d="M64 463l8 49q71 16 116 16q71 0 58 -61l-54 -281q-13 -74 -2 -98.5t51 -24.5q25 0 50 6.5t37 12.5l12 6q6 9 15.5 26t30.5 75t33 123l41 209h103l-84 -429q-6 -31 28 -22q21 6 48 23l7 -48q-14 -13 -33 -26q-64 -58 -64 -109q0 -37 39 -37q11 0 23 2.5t19 4.5l7 3l1 -28
q-32 -26 -83 -26q-36 0 -56.5 17t-20.5 49q0 53 52 99q-31 1 -40.5 19t0.5 77l10 46h-6q-23 -61 -82.5 -103t-137.5 -42q-75 0 -97.5 48.5t-0.5 160.5l45 234q5 22 -4 25.5t-69 3.5z" />
    <glyph glyph-name="Wcircumflex" unicode="&#x174;" horiz-adv-x="1039" 
d="M340 0h-102l-9 12l-73 625l-73 10l10 53h273l-10 -50l-79 -12l38 -465q0 -1 2 -25t2 -37h4q3 9 26 62l232 517h99l35 -517q0 -1 2 -25.5t2 -36.5h4q13 34 27 62l210 467l-71 7l10 53h223l-9 -50l-75 -17l-302 -633h-101l-10 12l-32 490q-3 41 -1 58h-5q-1 -2 -23 -58z
M491 763l165 148h14l108 -148l-49 -22l-83 82l-115 -82z" />
    <glyph glyph-name="wcircumflex" unicode="&#x175;" horiz-adv-x="827" 
d="M644 466l8 46q52 15 91 15q67 0 67 -66q0 -41 -22.5 -103.5t-54 -122.5t-63.5 -114t-54 -87l-23 -34h-91l-59 345q-23 -74 -58 -160.5t-59 -135.5l-24 -49h-108l-74 434q-4 22 -14.5 25.5t-71.5 3.5l8 49q47 16 91 16q77 0 85 -61l58 -381q134 289 134 435h91l75 -434
q138 261 138 345q0 20 -14 26.5t-56 7.5zM329 601l166 148h13l108 -148l-49 -22l-83 82l-115 -82z" />
    <glyph glyph-name="Ycircumflex" unicode="&#x176;" horiz-adv-x="667" 
d="M658 633l-254 -328l-47 -245l71 -7l-11 -53h-251l10 50l77 17l46 236l-138 337l-69 7l11 53h271l-10 -50l-82 -15l86 -220q12 -31 14 -40h4q11 16 29 41l163 224l-70 7l11 53h226l-10 -50zM294 763l165 148h13l109 -148l-49 -22l-83 82l-115 -82z" />
    <glyph glyph-name="ycircumflex" unicode="&#x177;" horiz-adv-x="561" 
d="M-86 -227l16 84q32 -27 95 -27q17 0 32.5 2.5t22.5 5.5l8 2q45 41 112 137l-79 457q-4 22 -14.5 25.5t-71.5 3.5l10 49q48 16 93 16q73 0 80 -61l57 -398q77 115 126 219.5t49 144.5q0 19 -15 25.5t-56 7.5l9 46q53 15 91 15q68 0 68 -62t-71.5 -201.5t-173.5 -272.5
q-96 -126 -164.5 -178t-140.5 -52q-24 0 -44.5 3t-29.5 6zM195 601l166 148h13l108 -148l-49 -22l-83 82l-115 -82z" />
    <glyph glyph-name="Ydieresis" unicode="&#x178;" horiz-adv-x="667" 
d="M658 633l-254 -328l-47 -245l71 -7l-11 -53h-251l10 50l77 17l46 236l-138 337l-69 7l11 53h271l-10 -50l-82 -15l86 -220q12 -31 14 -40h4q11 16 29 41l163 224l-70 7l11 53h226l-10 -50zM315 810q0 28 19.5 46.5t47.5 18.5q21 0 33.5 -12t12.5 -32q0 -28 -19.5 -46.5
t-48.5 -18.5q-20 0 -32.5 12t-12.5 32zM509 810q0 28 19.5 46.5t47.5 18.5q21 0 33.5 -12t12.5 -32q0 -28 -19.5 -46.5t-48.5 -18.5q-20 0 -32.5 12t-12.5 32z" />
    <glyph glyph-name="Zacute" unicode="&#x179;" horiz-adv-x="585" 
d="M-3 0l8 42l465 587h-258l-48 -112h-70l49 183h478l-8 -42l-466 -587h274l35 112h73l-36 -183h-496zM296 763l163 155l53 -65l-175 -112z" />
    <glyph glyph-name="zacute" unicode="&#x17a;" horiz-adv-x="504" 
d="M484 483l-342 -395q81 -21 129 -21q14 0 27.5 2t19.5 4l7 2q15 27 28 83h90q-22 -113 -38 -140t-64 -27q-50 0 -126 16.5t-92 16.5q-37 0 -65 -33q-29 0 -38.5 9.5t-9.5 37.5l348 403q-73 20 -114 20q-11 0 -25 -2t-22 -4l-8 -2q-17 -30 -31 -89h-86q21 110 37.5 138
t65.5 28q45 0 115 -13.5t84 -13.5q33 0 62 27q30 0 39 -9t9 -38zM225 601l163 155l52 -65l-175 -112z" />
    <glyph glyph-name="Zdotaccent" unicode="&#x17b;" horiz-adv-x="585" 
d="M-3 0l8 42l465 587h-258l-48 -112h-70l49 183h478l-8 -42l-466 -587h274l35 112h73l-36 -183h-496zM317 815q0 35 24.5 58t60.5 23q26 0 41.5 -15t15.5 -40q0 -35 -24.5 -58t-59.5 -23q-26 0 -42 15t-16 40z" />
    <glyph glyph-name="zdotaccent" unicode="&#x17c;" horiz-adv-x="504" 
d="M484 483l-342 -395q81 -21 129 -21q14 0 27.5 2t19.5 4l7 2q15 27 28 83h90q-22 -113 -38 -140t-64 -27q-50 0 -126 16.5t-92 16.5q-37 0 -65 -33q-29 0 -38.5 9.5t-9.5 37.5l348 403q-73 20 -114 20q-11 0 -25 -2t-22 -4l-8 -2q-17 -30 -31 -89h-86q21 110 37.5 138
t65.5 28q45 0 115 -13.5t84 -13.5q33 0 62 27q30 0 39 -9t9 -38zM238 662q0 35 24 58t60 23q26 0 42 -15.5t16 -40.5q0 -35 -24.5 -58t-59.5 -23q-27 0 -42.5 15.5t-15.5 40.5z" />
    <glyph glyph-name="Zcaron" unicode="&#x17d;" horiz-adv-x="585" 
d="M-3 0l8 42l465 587h-258l-48 -112h-70l49 183h478l-8 -42l-466 -587h274l35 112h73l-36 -183h-496zM371 741l-103 143l41 30l85 -84l119 84l30 -30l-159 -143h-13z" />
    <glyph glyph-name="zcaron" unicode="&#x17e;" horiz-adv-x="504" 
d="M484 483l-342 -395q81 -21 129 -21q14 0 27.5 2t19.5 4l7 2q15 27 28 83h90q-22 -113 -38 -140t-64 -27q-50 0 -126 16.5t-92 16.5q-37 0 -65 -33q-29 0 -38.5 9.5t-9.5 37.5l348 403q-73 20 -114 20q-11 0 -25 -2t-22 -4l-8 -2q-17 -30 -31 -89h-86q21 110 37.5 138
t65.5 28q45 0 115 -13.5t84 -13.5q33 0 62 27q30 0 39 -9t9 -38zM291 585l-104 142l42 31l85 -85l119 85l30 -31l-159 -142h-13z" />
    <glyph glyph-name="uni018F" unicode="&#x18f;" horiz-adv-x="610" 
d="M596 429q0 -189 -105.5 -313.5t-264.5 -124.5q-90 0 -139 46.5t-50.5 126t32.5 185.5l35 21h375q22 127 -14.5 196t-123.5 69q-24 0 -51.5 -5.5t-42.5 -11.5l-15 -5l-51 -117h-69l46 171q89 42 193 42q117 0 181 -72t64 -208zM360 90l8 8q6 6 20.5 26.5t27.5 44t28 61.5
t24 80l-309 -11q-37 -114 -12 -173.5t104 -59.5q26 0 53 6t42 12z" />
    <glyph glyph-name="florin" unicode="&#x192;" horiz-adv-x="365" 
d="M49 379l11 58l74 13l13 70q24 131 78 185t145 54q21 0 42 -2.5t32 -4.5l10 -3l-24 -77q-33 18 -76 18q-14 0 -26.5 -2.5t-18.5 -5.5l-6 -2q-32 -39 -53 -160l-13 -70h151l-13 -71h-150l-68 -379q-23 -131 -77 -185t-145 -54q-21 0 -42.5 2.5t-32.5 4.5l-10 3l25 77
q33 -18 75 -18q14 0 27 2.5t19 5.5l6 2q31 40 53 160l67 379h-73z" />
    <glyph glyph-name="uni01DD" unicode="&#x1dd;" horiz-adv-x="518" 
d="M108 424l-9 55q9 6 25 14.5t64.5 22.5t96.5 14q93 0 147 -51t54 -156q0 -135 -84.5 -233.5t-209.5 -98.5q-101 0 -142.5 69.5t-8.5 193.5l35 22h300q17 91 -17.5 136t-107.5 45q-32 0 -67.5 -8.5t-55.5 -16.5zM295 81q6 6 15 17t28 47.5t27 76.5l-241 -13q-17 -74 6 -110
t78 -36q21 0 42.5 4.5t33.5 8.5z" />
    <glyph glyph-name="Aringacute" unicode="&#x1fa;" horiz-adv-x="710" 
d="M364 727q0 40 26 67.5t67 31.5l89 112l59 -65l-84 -61q25 -20 25 -57q0 -51 -42 -80l95 -615l72 -7l-11 -53h-268l10 49l76 18l-20 142h-253l-80 -149l74 -7l-10 -53h-232l10 50l72 17l340 613q-15 18 -15 47zM377 532l-136 -252h208l-35 252q-4 40 -4 65h-5
q-16 -41 -28 -65zM415 733q0 -31 29 -33h10l27 5q14 19 14 44q0 34 -34 34l-31 -5q-15 -19 -15 -45z" />
    <glyph glyph-name="aringacute" unicode="&#x1fb;" horiz-adv-x="541" 
d="M37 166q0 153 83.5 258.5t225.5 105.5q40 0 82.5 -8.5t65.5 -17.5l22 -8l-79 -404q-6 -31 28 -22q21 6 48 23l7 -48q-6 -6 -15.5 -14.5t-40 -22.5t-59.5 -14q-31 0 -41 18.5t0 77.5l10 46h-6q-22 -66 -75.5 -105.5t-122.5 -39.5q-68 0 -100.5 42t-32.5 133zM298 89
q51 77 79 223l26 133q-39 14 -84 14q-26 0 -49.5 -5t-33.5 -10l-11 -5l-9 -12q-6 -8 -20.5 -34t-26 -55t-20.5 -74.5t-9 -92.5q0 -59 16 -83.5t53 -24.5q21 0 43 6.5t34 12.5zM260 633q0 40 27 68t69 31l88 111l60 -65l-85 -61q24 -19 24 -56q0 -42 -31 -70.5t-76 -28.5
q-35 0 -55.5 18.5t-20.5 52.5zM311 640q0 -34 35 -34l31 5q15 19 15 44q0 34 -34 34l-32 -5q-15 -19 -15 -44z" />
    <glyph glyph-name="AEacute" unicode="&#x1fc;" horiz-adv-x="825" 
d="M726 0h-418l10 49l76 18l8 142h-192l-87 -149l75 -7l-11 -53h-230l10 50l72 17l371 633h439l-21 -177h-70l-6 106h-223l-11 -238h88l30 81h55l-46 -234h-55l2 81h-78l-11 -248h153l48 109h70zM393 532l-147 -252h164l20 320h-4q-10 -26 -33 -68zM439 763l163 155l53 -65
l-175 -112z" />
    <glyph glyph-name="aeacute" unicode="&#x1fd;" horiz-adv-x="746" 
d="M-1 102q0 67 50 117.5t144 59.5l120 10q12 56 41 103q0 67 -83 67q-23 0 -44 -4.5t-31 -8.5l-9 -5l-29 -80h-75l25 129q7 4 21 11t60.5 18t95.5 11q109 0 148 -53q74 53 166 53q141 0 141 -116q0 -85 -82 -132.5t-245 -48.5v-14q0 -155 122 -155q29 0 62.5 9t52.5 18
l20 9l8 -58q-9 -6 -24 -14.5t-62 -22.5t-93 -14q-117 0 -166 83q-18 -15 -41.5 -31t-72.5 -34t-96 -18q-60 0 -92 29.5t-32 81.5zM99 120q0 -56 68 -56q75 0 146 56q-10 36 -10 83q0 21 1 31l-164 -27q-41 -37 -41 -87zM490 443q-6 -6 -15 -17.5t-28.5 -50.5t-27.5 -83
q215 4 215 108q0 59 -65 59q-17 0 -36.5 -4t-30.5 -8zM394 601l163 155l52 -65l-175 -112z" />
    <glyph glyph-name="Oslashacute" unicode="&#x1fe;" horiz-adv-x="659" 
d="M14 9l78 88q-38 68 -38 176q0 186 105.5 311t257.5 125q101 0 160 -61l59 67l52 -25l-77 -88q38 -70 38 -174q0 -186 -106 -311.5t-257 -125.5q-101 0 -161 61l-59 -67zM538 444q0 39 -6 69l-342 -388q34 -60 113 -60q27 0 54 6.5t41 12.5l13 7q5 5 13.5 15t30.5 44
t39 72t30.5 98t13.5 124zM165 256q0 -35 5 -70l342 388q-34 60 -111 60q-28 0 -56 -7t-42 -13l-14 -7q-5 -5 -13.5 -15t-30 -44t-37.5 -72t-29.5 -97.5t-13.5 -122.5zM329 763l163 155l53 -65l-175 -112z" />
    <glyph glyph-name="oslashacute" unicode="&#x1ff;" horiz-adv-x="540" 
d="M41 196q0 145 85.5 239.5t211.5 94.5q76 0 122 -41l51 55l51 -21l-70 -76q24 -47 24 -120q0 -146 -85 -241t-211 -95q-74 0 -116 35l-46 -50l-50 20l62 68q-29 50 -29 132zM148 204q0 -31 4 -51l238 259q-25 47 -80 47q-16 0 -36 -4t-32 -8l-11 -4q-3 -4 -9 -11
t-20 -30.5t-25 -49.5t-20 -66.5t-9 -81.5zM409 315q0 15 -2 39l-235 -254q26 -37 76 -37q17 0 36.5 3.5t30.5 7.5l11 4q3 3 9 9.5t20 29.5t25 48t20 66t9 84zM255 601l163 155l52 -65l-175 -112z" />
    <glyph glyph-name="Scommaaccent" unicode="&#x218;" horiz-adv-x="543" 
d="M382 194q0 18 -7 33t-15 24.5t-26 20t-29.5 15.5t-36.5 14.5t-36 14.5q-63 27 -97 65.5t-34 107.5q0 41 12.5 77.5t41 70t82 53t127.5 19.5q58 0 103 -11.5t61 -23.5l17 -12l-33 -164h-72l7 111q-28 26 -97 26q-24 0 -50 -4t-40 -8l-14 -4q-39 -45 -39 -104
q0 -14 3.5 -26.5t8 -21.5t15 -18.5t17 -14.5t22 -13t22.5 -11t26.5 -10.5t25.5 -10.5q70 -29 104.5 -66.5t34.5 -106.5q0 -42 -13.5 -79.5t-44.5 -72t-90 -54.5t-140 -20q-61 0 -108.5 12t-64.5 24l-17 11l33 166h69l-1 -112q34 -24 114 -24q29 0 58 4t43 8l15 4
q43 53 43 111zM130 -258l-10 20q8 5 19.5 13.5t32 33.5t24.5 47q-33 3 -33 38q0 25 17 41.5t42 16.5q39 0 39 -45q0 -31 -13.5 -59t-32.5 -46.5t-38.5 -32.5t-32.5 -21z" />
    <glyph glyph-name="scommaaccent" unicode="&#x219;" horiz-adv-x="480" 
d="M327 142q0 19 -7 32.5t-24 23.5t-31 15.5t-40 14.5q-30 9 -48 16.5t-41 23t-34 39.5t-11 57q0 68 51 117t160 49q32 0 59 -4.5t43 -11.5t28 -13.5t16 -10.5l5 -5l-23 -122h-75l2 81q-20 18 -72 18q-18 0 -37.5 -2.5t-30.5 -5.5l-11 -2q-24 -30 -24 -66q0 -19 7 -33
t24 -24t32 -16t43 -15q31 -9 48.5 -16.5t39.5 -22t32.5 -38t10.5 -55.5q0 -73 -56 -124t-175 -51q-34 0 -63 4.5t-46.5 11t-30 13.5t-16.5 12l-5 4l25 123h75l-2 -81q23 -18 83 -18q21 0 44 2.5t36 5.5l12 2q27 34 27 72zM109 -258l-10 20q8 5 19.5 13.5t32.5 33.5t24 47
q-33 3 -33 38q0 25 17 41.5t43 16.5q39 0 39 -45q0 -31 -13.5 -59t-33 -46.5t-39 -32.5t-33.5 -21z" />
    <glyph glyph-name="uni021A" unicode="&#x21a;" horiz-adv-x="631" 
d="M334 60l72 -7l-11 -53h-251l10 50l76 17l109 562h-139l-50 -122h-70l51 193h550l-24 -193h-70l-3 122h-140zM176 -258l-11 20q8 5 19.5 13.5t32.5 33.5t25 47q-34 3 -34 38q0 25 17.5 41.5t42.5 16.5q39 0 39 -45q0 -31 -13.5 -59t-32.5 -46.5t-38.5 -32.5t-32.5 -21z
" />
    <glyph glyph-name="uni021B" unicode="&#x21b;" horiz-adv-x="390" 
d="M68 450l12 59l66 12l34 100h87l-19 -100h150l-14 -71h-150l-60 -309q-16 -77 50 -77q20 0 43 7.5t36 14.5l13 8l7 -49q-5 -6 -16 -15t-48 -24t-79 -15q-138 0 -109 149l60 310h-63zM80 -258l-10 20q8 5 19.5 13.5t32 33.5t24.5 47q-34 3 -34 38q0 25 17.5 41.5t42.5 16.5
q39 0 39 -45q0 -31 -13.5 -59t-32.5 -46.5t-38.5 -32.5t-32.5 -21z" />
    <glyph glyph-name="dotlessj" unicode="&#x237;" horiz-adv-x="279" 
d="M65 466l8 46q70 16 115 16q70 0 59 -61l-91 -467q-26 -131 -81 -185t-146 -54q-21 0 -42 2.5t-31 4.5l-11 3l26 77q32 -18 74 -18q14 0 27.5 2.5t19.5 5.5l6 2q32 40 55 160l85 436q4 22 -4 26t-69 4z" />
    <glyph glyph-name="circumflex" unicode="&#x2c6;" horiz-adv-x="384" 
d="M123 601l166 148h13l109 -148l-49 -22l-83 82l-115 -82z" />
    <glyph glyph-name="caron" unicode="&#x2c7;" horiz-adv-x="384" 
d="M257 585l-103 142l42 31l85 -85l118 85l30 -31l-159 -142h-13z" />
    <glyph glyph-name="breve" unicode="&#x2d8;" horiz-adv-x="384" 
d="M382 723l32 -13q-2 -4 -5.5 -11.5t-17 -25.5t-30 -32t-44 -25.5t-59.5 -11.5q-31 0 -54.5 10.5t-34.5 25.5t-18 30t-8 26l-1 10l56 18q0 -2 1.5 -6.5t7 -14.5t13.5 -18t24 -14.5t36 -6.5q31 0 56.5 15t35.5 29z" />
    <glyph glyph-name="dotaccent" unicode="&#x2d9;" horiz-adv-x="291" 
d="M154 662q0 35 24 58t60 23q26 0 41.5 -15t15.5 -41q0 -35 -24 -58t-60 -23q-26 0 -41.5 15.5t-15.5 40.5z" />
    <glyph glyph-name="ring" unicode="&#x2da;" horiz-adv-x="563" 
d="M288 653q0 43 30.5 71.5t75.5 28.5q36 0 56.5 -19t20.5 -53q0 -42 -31 -70.5t-76 -28.5q-35 0 -55.5 18.5t-20.5 52.5zM339 660q0 -34 35 -34l31 5q15 19 15 44q0 34 -34 34l-32 -5q-15 -19 -15 -44z" />
    <glyph glyph-name="ogonek" unicode="&#x2db;" horiz-adv-x="334" 
d="M78 -119q0 -37 39 -37q11 0 23 2.5t19 5.5l7 2l1 -28q-32 -26 -83 -26q-36 0 -56.5 17t-20.5 49q0 35 24.5 68.5t48.5 49.5l25 16h47q-8 -7 -20.5 -18t-33 -42.5t-20.5 -58.5z" />
    <glyph glyph-name="tilde" unicode="&#x2dc;" horiz-adv-x="474" 
d="M175 615l-19 27q8 9 21 22t48.5 35t66.5 22q23 0 58 -19t60 -19l65 41l19 -28q-8 -9 -21 -22t-48.5 -34.5t-65.5 -21.5q-23 0 -58.5 19t-59.5 19z" />
    <glyph glyph-name="hungarumlaut" unicode="&#x2dd;" horiz-adv-x="473" 
d="M10 601l111 155l65 -54l-132 -123zM174 601l111 155l65 -54l-131 -123z" />
    <glyph glyph-name="uni0400" unicode="&#x400;" horiz-adv-x="596" 
d="M497 0h-504l10 50l76 17l112 573l-72 7l10 53h491l-21 -177h-70l-6 106h-229l-46 -238h120l30 81h58l-46 -234h-58l2 81h-121l-48 -248h242l48 109h70zM276 853l78 65l102 -155l-48 -22z" />
    <glyph glyph-name="afii10023" unicode="&#x401;" horiz-adv-x="596" 
d="M497 0h-504l10 50l76 17l112 573l-72 7l10 53h491l-21 -177h-70l-6 106h-229l-46 -238h120l30 81h58l-46 -234h-58l2 81h-121l-48 -248h242l48 109h70zM255 813q0 29 19.5 47.5t47.5 18.5q21 0 33 -12.5t12 -32.5q0 -28 -19 -46.5t-48 -18.5q-21 0 -33 12t-12 32z
M449 813q0 29 19.5 47.5t47.5 18.5q21 0 33 -12.5t12 -32.5q0 -28 -19 -46.5t-48 -18.5q-21 0 -33 12t-12 32z" />
    <glyph glyph-name="afii10051" unicode="&#x402;" horiz-adv-x="787" 
d="M619 171l9 47q12 60 -12.5 88.5t-90.5 28.5q-35 0 -71.5 -7.5t-55.5 -15.5l-18 -7l-47 -245l72 -7l-11 -53h-251l10 50l76 17l109 562h-139l-50 -122h-69l50 193h550l-24 -193h-70l-3 122h-140l-49 -254q75 32 167 32q99 0 145.5 -45.5t28.5 -133.5l-13 -65
q-16 -83 -66 -127.5t-127 -44.5q-26 0 -48.5 5t-32.5 10l-9 5l22 67q21 -13 60 -13q14 0 28.5 2t22.5 4l7 2q26 32 40 98z" />
    <glyph glyph-name="afii10052" unicode="&#x403;" horiz-adv-x="560" 
d="M321 763l163 155l52 -65l-175 -112zM183 61l84 -4l-11 -57h-264l10 50l76 17l112 573l-72 7l10 53h480l-24 -193h-70l-3 122h-218z" />
    <glyph glyph-name="afii10053" unicode="&#x404;" horiz-adv-x="588" 
d="M524 498l-6 113q-36 23 -105 23q-33 0 -64 -7t-45 -14l-15 -7q-3 -3 -8.5 -9.5t-20.5 -27.5t-28 -44.5t-28 -59.5t-25 -74h184l30 81h58l-46 -234h-57l2 81h-184q-3 -30 -3 -60q0 -194 146 -194q24 0 51 5.5t42 11.5l15 5l51 117h69l-45 -171q-90 -42 -192 -42
q-116 0 -181.5 72.5t-65.5 213.5q0 186 108 309t279 123q49 0 92 -10.5t62 -21.5l19 -11l-20 -168h-69z" />
    <glyph glyph-name="afii10054" unicode="&#x405;" horiz-adv-x="543" 
d="M382 194q0 18 -7 33t-15 24.5t-26 20t-29.5 15.5t-36.5 14.5t-36 14.5q-63 27 -97 65.5t-34 107.5q0 41 12.5 77.5t41 70t82 53t127.5 19.5q58 0 103 -11.5t61 -23.5l17 -12l-33 -164h-72l7 111q-28 26 -97 26q-24 0 -50 -4t-40 -8l-14 -4q-39 -45 -39 -104
q0 -14 3.5 -26.5t8 -21.5t15 -18.5t17 -14.5t22 -13t22.5 -11t26.5 -10.5t25.5 -10.5q70 -29 104.5 -66.5t34.5 -106.5q0 -42 -13.5 -79.5t-44.5 -72t-90 -54.5t-140 -20q-61 0 -108.5 12t-64.5 24l-17 11l33 166h69l-1 -112q34 -24 114 -24q29 0 58 4t43 8l15 4
q43 53 43 111z" />
    <glyph glyph-name="afii10055" unicode="&#x406;" horiz-adv-x="330" 
d="M182 60l72 -7l-10 -53h-252l10 50l76 17l112 573l-72 7l10 53h252l-10 -50l-76 -17z" />
    <glyph glyph-name="afii10056" unicode="&#x407;" horiz-adv-x="331" 
d="M128 813q0 29 19.5 47.5t47.5 18.5q21 0 33 -12.5t12 -32.5q0 -28 -19 -46.5t-48 -18.5q-20 0 -32.5 12t-12.5 32zM308 813q0 29 19 47.5t47 18.5q22 0 34 -12.5t12 -32.5q0 -28 -19.5 -46.5t-47.5 -18.5q-21 0 -33 12t-12 32zM183 60l72 -7l-11 -53h-251l10 50l76 17
l112 573l-72 7l10 53h251l-9 -50l-76 -17z" />
    <glyph glyph-name="afii10057" unicode="&#x408;" horiz-adv-x="447" 
d="M415 633l-88 -452q-17 -88 -76.5 -139t-150.5 -51q-29 0 -55.5 5.5t-38.5 11.5l-11 5l26 70q28 -18 81 -18q17 0 36 2.5t29 4.5l10 3q31 37 48 120l86 443l-85 4l11 58h264l-9 -50z" />
    <glyph glyph-name="afii10058" unicode="&#x409;" horiz-adv-x="1016" 
d="M588 629h-212q-50 -259 -97 -400t-92 -189.5t-108 -48.5q-22 0 -45.5 5t-35.5 10l-13 5l31 87q41 -23 117 -23q3 3 8.5 10t23 45t36 93.5t46 165.5t54.5 251l-71 7l10 53h540l-10 -50l-76 -17l-45 -233h124q91 0 146 -43.5t55 -126.5q0 -102 -79.5 -166t-200.5 -64h-302
l10 50l76 17zM735 328h-100l-50 -257h106q23 0 47 2.5t36 5.5l13 3q8 6 20 16.5t32 48t20 79.5q0 102 -124 102z" />
    <glyph glyph-name="afii10059" unicode="&#x40a;" horiz-adv-x="1012" 
d="M586 640l-72 7l10 53h251l-9 -50l-76 -17l-46 -233h124q92 0 147 -43.5t55 -127.5q0 -102 -79.5 -165.5t-200.5 -63.5h-302l10 50l76 17l51 261h-291l-52 -268l72 -7l-10 -53h-252l10 50l76 17l112 573l-72 7l10 53h252l-10 -50l-76 -17l-45 -233h290zM730 328h-100
l-50 -257h106q23 0 47.5 2.5t36.5 5.5l13 3q8 6 20 16.5t32 47.5t20 79q0 103 -125 103z" />
    <glyph glyph-name="afii10060" unicode="&#x40b;" horiz-adv-x="828" 
d="M333 60l72 -7l-11 -53h-251l10 50l76 17l109 562h-139l-50 -122h-69l50 193h550l-24 -193h-70l-3 122h-140l-49 -254q74 32 165 32q97 0 142.5 -45.5t28.5 -133.5l-33 -168l72 -7l-11 -53h-252l11 50l76 17l29 151q12 60 -12 88.5t-88 28.5q-35 0 -70.5 -7.5t-53.5 -15.5
l-18 -7z" />
    <glyph glyph-name="afii10061" unicode="&#x40c;" horiz-adv-x="660" 
d="M372 763l163 155l52 -65l-175 -112zM182 60l72 -7l-10 -53h-252l10 50l76 17l112 573l-72 7l10 53h252l-10 -50l-76 -17l-48 -249l81 13l220 243l-67 7l10 53h228l-9 -50l-74 -17l-236 -257l141 -316l71 -7l-11 -53h-157l-142 326h-67z" />
    <glyph glyph-name="uni040D" unicode="&#x40d;" horiz-adv-x="731" 
d="M354 853l78 65l103 -155l-49 -22zM182 60l72 -7l-10 -53h-252l10 50l76 17l112 573l-72 7l10 53h252l-10 -50l-76 -17l-84 -433l376 423l4 17l-71 7l9 53h252l-10 -50l-76 -17l-112 -573l72 -7l-10 -53h-252l10 50l76 17l83 428l-375 -417z" />
    <glyph glyph-name="afii10062" unicode="&#x40e;" horiz-adv-x="674" 
d="M444 754q-40 0 -68 11.5t-39.5 28.5t-18 34t-6.5 28l1 12l72 7q-2 -27 13 -48.5t55 -21.5q73 0 96 70l69 -7q-1 -5 -4 -12.5t-16.5 -27t-31 -34.5t-50.5 -27.5t-72 -12.5zM285 179l-132 461l-71 7l10 53h268l-9 -50l-81 -15l80 -296q9 -30 10 -65h4q19 42 33 65l193 301
l-70 7l10 53h220l-9 -50l-73 -17l-273 -415q-94 -144 -141.5 -185.5t-122.5 -41.5q-28 0 -52 4t-34 8l-10 4l36 94q43 -30 134 -30q33 30 80 108z" />
    <glyph glyph-name="afii10145" unicode="&#x40f;" horiz-adv-x="731" 
d="M273 0h-281l10 50l76 17l112 573l-72 7l10 53h252l-10 -50l-76 -17l-110 -562h295l111 569l-71 7l9 53h252l-10 -50l-76 -17l-112 -573l72 -7l-10 -53h-281l-40 -154h-69z" />
    <glyph glyph-name="afii10017" unicode="&#x410;" horiz-adv-x="710" 
d="M390 700h102l10 -12l97 -628l72 -7l-11 -53h-268l10 49l76 18l-20 142h-253l-80 -149l74 -7l-10 -53h-232l10 50l72 17zM377 532l-136 -252h208l-35 252q-4 40 -4 65h-5q-16 -41 -28 -65z" />
    <glyph glyph-name="afii10018" unicode="&#x411;" horiz-adv-x="616" 
d="M190 640l-72 7l10 53h480l-24 -193h-70l-3 122h-218l-44 -229h124q91 0 146 -43.5t55 -127.5q0 -102 -79.5 -165.5t-200.5 -63.5h-302l10 50l76 17zM335 328h-101l-50 -257h106q23 0 47.5 2.5t36.5 5.5l13 3q8 6 20 16.5t32 48t20 79.5q0 102 -124 102z" />
    <glyph glyph-name="afii10019" unicode="&#x412;" horiz-adv-x="621" 
d="M296 0h-303l10 50l76 17l112 574l-72 7l10 52h280q92 0 148.5 -42t56.5 -114q0 -58 -37.5 -108t-91.5 -72q-10 -2 -16 -2v-3q8 0 14 -2q39 -14 64 -50t25 -89q0 -97 -77.5 -157.5t-198.5 -60.5zM334 321h-100l-48 -249h106q24 0 48.5 3t37.5 6l13 3q3 2 7.5 5.5t16 16
t20.5 27.5t16.5 38.5t7.5 49.5q0 100 -125 100zM372 629h-78l-46 -236h84q24 0 49 2.5t37 5.5l13 3l8 5q4 3 15.5 15t20.5 25.5t16 36t7 46.5q0 97 -126 97z" />
    <glyph glyph-name="afii10020" unicode="&#x413;" horiz-adv-x="560" 
d="M183 61l84 -4l-11 -57h-264l10 50l76 17l112 573l-72 7l10 53h480l-24 -193h-70l-3 122h-218z" />
    <glyph glyph-name="afii10021" unicode="&#x414;" horiz-adv-x="717" 
d="M544 0h-466l-50 -154h-69l44 225h87q8 8 17.5 22t30.5 57.5t41.5 101t47.5 160.5t52 228l-72 7l10 53h546l-9 -50l-76 -17l-110 -562h80l-44 -225h-69zM571 629h-218q-80 -412 -182 -558h292z" />
    <glyph glyph-name="afii10022" unicode="&#x415;" horiz-adv-x="596" 
d="M497 0h-504l10 50l76 17l112 573l-72 7l10 53h491l-21 -177h-70l-6 106h-229l-46 -238h120l30 81h58l-46 -234h-58l2 81h-121l-48 -248h242l48 109h70z" />
    <glyph glyph-name="afii10024" unicode="&#x416;" horiz-adv-x="953" 
d="M493 60l72 -7l-10 -53h-251l9 50l76 17l50 259h-62l-252 -326h-160l11 53l72 7l248 316l-122 257l-69 17l10 50h228l-10 -53l-73 -7l114 -243l76 -13l51 256l-71 7l10 53h251l-10 -50l-76 -17l-48 -249l79 13l208 243l-67 7l10 53h228l-9 -50l-74 -17l-224 -257l126 -316
l70 -7l-11 -53h-157l-125 326h-66z" />
    <glyph glyph-name="afii10025" unicode="&#x417;" horiz-adv-x="562" 
d="M224 66q27 0 53.5 3t40.5 6l13 3q7 5 18 15.5t29.5 47t18.5 76.5q0 104 -124 104h-66l-8 11l12 61h60q28 0 57 4.5t44 8.5l14 4q6 5 14.5 15t22.5 43.5t14 70.5q0 96 -107 96q-28 0 -57.5 -5.5t-44.5 -11.5l-15 -5l-51 -117h-69l46 171q92 42 206 42q99 0 153.5 -41
t54.5 -118q0 -61 -36 -111.5t-94 -74.5q-8 -2 -15 -2l-1 -3q9 0 15 -2q40 -15 64.5 -53t24.5 -88q0 -102 -86.5 -163.5t-219.5 -61.5q-54 0 -102 10.5t-69 21.5l-20 11l20 168h69l6 -115q37 -21 115 -21z" />
    <glyph glyph-name="afii10026" unicode="&#x418;" horiz-adv-x="731" 
d="M182 60l72 -7l-10 -53h-252l10 50l76 17l112 573l-72 7l10 53h252l-10 -50l-76 -17l-84 -433l376 423l4 17l-71 7l9 53h252l-10 -50l-76 -17l-112 -573l72 -7l-10 -53h-252l10 50l76 17l83 428l-375 -417z" />
    <glyph glyph-name="afii10027" unicode="&#x419;" horiz-adv-x="731" 
d="M465 754q-39 0 -67.5 11.5t-40 28.5t-17.5 34t-6 28v12l72 7q-2 -27 13 -48.5t56 -21.5q40 0 63 21.5t32 48.5l69 -7q-1 -5 -4 -12.5t-16.5 -27t-31 -34.5t-50.5 -27.5t-72 -12.5zM182 60l72 -7l-10 -53h-252l10 50l76 17l112 573l-72 7l10 53h252l-10 -50l-76 -17
l-84 -433l376 423l4 17l-71 7l9 53h252l-10 -50l-76 -17l-112 -573l72 -7l-10 -53h-252l10 50l76 17l83 428l-375 -417z" />
    <glyph glyph-name="afii10028" unicode="&#x41a;" horiz-adv-x="660" 
d="M183 60l72 -7l-11 -53h-251l10 50l76 17l112 573l-72 7l10 53h251l-9 -50l-76 -17l-48 -249l81 13l220 243l-67 7l10 53h228l-10 -50l-73 -17l-236 -257l141 -316l70 -7l-10 -53h-157l-142 326h-67z" />
    <glyph glyph-name="afii10029" unicode="&#x41b;" horiz-adv-x="713" 
d="M570 629h-212q-32 -165 -62.5 -281t-57.5 -185.5t-58 -108t-58 -51t-63 -12.5q-24 0 -45.5 5t-31.5 10l-10 5l30 87q39 -24 113 -24q3 3 8.5 10t23 45t36 93.5t46.5 166t55 251.5l-72 7l10 53h540l-9 -50l-76 -17l-112 -573l71 -7l-10 -53h-251l10 50l76 17z" />
    <glyph glyph-name="afii10030" unicode="&#x41c;" horiz-adv-x="891" 
d="M139 60l75 -7l-11 -53h-232l10 50l78 17l158 573l-74 7l10 53h207l73 -456q5 -33 5 -59h4q15 38 28 62l249 453h198l-10 -50l-76 -17l-66 -573l72 -7l-11 -53h-251l10 50l76 17l55 464l5 40h-4q-4 -18 -16 -40l-246 -452h-91l-11 13l-75 439q-2 20 0 41h-3q-1 -7 -9 -41z
" />
    <glyph glyph-name="afii10031" unicode="&#x41d;" horiz-adv-x="731" 
d="M183 60l72 -7l-11 -53h-251l10 50l76 17l112 573l-72 7l10 53h251l-9 -50l-76 -17l-47 -242h294l49 249l-72 7l10 53h252l-10 -50l-76 -17l-112 -573l72 -7l-10 -53h-252l10 50l76 17l49 252h-295z" />
    <glyph glyph-name="afii10032" unicode="&#x41e;" horiz-adv-x="659" 
d="M53 272q0 187 105.5 312t258.5 125q109 0 170 -71.5t61 -208.5q0 -187 -105.5 -312.5t-257.5 -125.5q-110 0 -171 72t-61 209zM164 257q0 -192 138 -192q28 0 55 6.5t41 12.5l13 7q5 5 13.5 15t30.5 44t38.5 72t30 98t13.5 123q0 191 -137 191q-28 0 -56 -7t-42 -13
l-14 -7q-5 -5 -13.5 -15t-30 -44t-37.5 -71.5t-29.5 -97.5t-13.5 -122z" />
    <glyph glyph-name="afii10033" unicode="&#x41f;" horiz-adv-x="731" 
d="M182 60l72 -7l-10 -53h-252l10 50l76 17l112 573l-72 7l10 53h652l-10 -50l-76 -17l-112 -573l72 -7l-10 -53h-252l10 50l76 17l110 562h-295z" />
    <glyph glyph-name="afii10034" unicode="&#x420;" horiz-adv-x="608" 
d="M184 61l84 -4l-11 -57h-264l10 50l76 17l112 573l-72 7l10 53h286q92 0 146.5 -46t54.5 -129q0 -104 -80 -169.5t-201 -65.5h-107zM378 629h-84l-52 -267h89q23 0 47 3t36 5l13 3q8 6 20.5 17.5t33 50t20.5 82.5q0 106 -123 106z" />
    <glyph glyph-name="afii10035" unicode="&#x421;" horiz-adv-x="588" 
d="M525 498l-6 113q-37 23 -105 23q-33 0 -64 -7t-46 -14l-14 -7q-5 -5 -13.5 -15t-30 -43.5t-38 -71t-30 -96t-13.5 -120.5q0 -195 144 -195q25 0 52 5.5t42 11.5l15 5l51 117h69l-45 -171q-90 -42 -192 -42q-117 0 -182 73t-65 213q0 186 108 309t279 123q48 0 91.5 -10.5
t62.5 -21.5l19 -11l-20 -168h-69z" />
    <glyph glyph-name="afii10036" unicode="&#x422;" horiz-adv-x="631" 
d="M334 60l72 -7l-11 -53h-251l10 50l76 17l109 562h-139l-50 -122h-70l51 193h550l-24 -193h-70l-3 122h-140z" />
    <glyph glyph-name="afii10037" unicode="&#x423;" horiz-adv-x="665" 
d="M285 179l-132 461l-71 7l10 53h268l-9 -50l-81 -15l80 -296q9 -30 10 -65h4q19 42 33 65l193 301l-70 7l10 53h220l-9 -50l-73 -17l-273 -415q-94 -144 -141.5 -185.5t-122.5 -41.5q-28 0 -52 4t-34 8l-10 4l36 94q43 -30 134 -30q33 30 80 108z" />
    <glyph glyph-name="afii10038" unicode="&#x424;" horiz-adv-x="765" 
d="M53 319q0 125 79.5 192t263.5 75l11 54l-71 7l9 53h252l-10 -50l-76 -17l-9 -48q141 -7 196 -55t55 -147q0 -125 -80.5 -193t-263.5 -76l-10 -54l72 -7l-10 -53h-252l10 50l76 17l9 47q-141 7 -196 55.5t-55 149.5zM642 381q0 64 -36 94t-119 37l-64 -326q38 2 70.5 6.5
t46.5 7.5l13 4q4 2 10 6.5t21 21t27 35.5t21.5 49.5t9.5 64.5zM164 320q0 -64 36 -95t118 -38l64 326q-37 -2 -69 -6.5t-46 -8.5l-14 -3q-4 -2 -10 -6.5t-21 -21t-27 -35t-21.5 -49t-9.5 -63.5z" />
    <glyph glyph-name="afii10039" unicode="&#x425;" horiz-adv-x="687" 
d="M663 633l-232 -289l139 -284l69 -7l-11 -53h-273l10 50l81 15l-91 208q-2 4 -5 11t-5.5 12.5t-4.5 11.5h-4q-4 -6 -8.5 -12.5t-10 -13.5t-8.5 -11l-176 -211l70 -7l-11 -53h-226l10 50l76 17l250 297l-128 276l-69 7l10 53h274l-10 -50l-87 -15l88 -200q12 -26 15 -37h3
q2 3 25 38l158 204l-69 7l10 53h226l-9 -50z" />
    <glyph glyph-name="afii10040" unicode="&#x426;" horiz-adv-x="726" 
d="M553 0h-561l10 50l76 17l112 573l-72 7l10 53h252l-10 -50l-76 -17l-110 -562h287l111 569l-71 7l10 53h251l-10 -50l-76 -17l-110 -562h80l-43 -225h-69z" />
    <glyph glyph-name="afii10041" unicode="&#x427;" horiz-adv-x="683" 
d="M277 633l-31 -157q-11 -60 13.5 -88t89.5 -28q36 0 72 7t55 15l18 7l48 251l-71 7l10 53h251l-9 -50l-77 -17l-111 -573l72 -7l-11 -53h-252l11 50l76 17l49 252q-74 -31 -167 -31q-98 0 -144.5 45.5t-29.5 133.5l34 173l-72 7l11 53h251l-10 -50z" />
    <glyph glyph-name="afii10042" unicode="&#x428;" horiz-adv-x="1047" 
d="M906 640l-72 7l10 53h251l-9 -50l-76 -17l-112 -573l72 -7l-11 -53h-967l10 50l76 17l112 573l-72 7l10 53h252l-10 -50l-76 -17l-110 -562h253l111 569l-72 7l10 53h251l-9 -50l-76 -17l-110 -562h253z" />
    <glyph glyph-name="afii10043" unicode="&#x429;" horiz-adv-x="1049" 
d="M877 0h-885l10 50l76 17l112 573l-72 7l10 53h252l-10 -50l-76 -17l-110 -562h253l111 569l-72 7l10 53h251l-9 -50l-76 -17l-110 -562h253l111 569l-72 7l10 53h251l-9 -50l-76 -17l-110 -562h80l-44 -225h-69z" />
    <glyph glyph-name="afii10044" unicode="&#x42a;" horiz-adv-x="758" 
d="M144 50l77 17l108 562h-130l-50 -122h-69l50 193h392l-10 -50l-76 -17l-45 -233h124q91 0 146 -43.5t55 -127.5q0 -102 -79.5 -165.5t-200.5 -63.5h-302zM477 328h-100l-50 -257h106q23 0 47 2.5t36 5.5l13 3q8 6 20 16.5t32 48t20 79.5q0 102 -124 102z" />
    <glyph glyph-name="afii10045" unicode="&#x42b;" horiz-adv-x="904" 
d="M190 640l-72 7l10 53h252l-10 -50l-76 -17l-45 -233h124q91 0 146 -43.5t55 -127.5q0 -102 -79.5 -165.5t-200.5 -63.5h-302l10 50l76 17zM335 328h-101l-50 -257h106q23 0 47.5 2.5t36.5 5.5l13 3q8 6 20 16.5t32 48t20 79.5q0 102 -124 102zM756 60l72 -7l-11 -53h-251
l10 50l75 17l112 573l-71 7l10 53h251l-10 -50l-75 -17z" />
    <glyph glyph-name="afii10046" unicode="&#x42c;" horiz-adv-x="616" 
d="M190 640l-72 7l10 53h252l-10 -50l-76 -17l-45 -233h124q91 0 146 -43.5t55 -127.5q0 -102 -79.5 -165.5t-200.5 -63.5h-302l10 50l76 17zM335 328h-101l-50 -257h106q23 0 47.5 2.5t36.5 5.5l13 3q8 6 20 16.5t32 48t20 79.5q0 102 -124 102z" />
    <glyph glyph-name="afii10047" unicode="&#x42d;" horiz-adv-x="588" 
d="M105 202l6 -113q37 -23 105 -23q33 0 64 7t46 14l14 7q9 9 23 27t44 76.5t45 121.5h-156l-30 -81h-58l46 234h58l-2 -81h153q3 24 3 50q0 194 -145 194q-25 0 -52 -5.5t-42 -11.5l-15 -5l-52 -117h-69l46 171q90 42 192 42q115 0 181 -72.5t66 -213.5q0 -186 -108 -309
t-279 -123q-48 0 -91.5 10.5t-62.5 21.5l-19 11l20 168h69z" />
    <glyph glyph-name="afii10048" unicode="&#x42e;" horiz-adv-x="931" 
d="M354 270q0 33 2 49h-123l-51 -259l72 -7l-10 -53h-252l10 50l76 17l112 573l-72 7l10 53h252l-10 -50l-76 -17l-47 -242h120q31 141 123.5 229.5t211.5 88.5q102 0 161 -71t59 -207q0 -186 -102 -313t-246 -127q-103 0 -161.5 71t-58.5 208zM464 249q0 -184 126 -184
q24 0 48.5 6.5t37.5 12.5l13 6q5 6 13.5 17t29.5 47.5t37 76t29.5 100t13.5 121.5q0 182 -124 182q-24 0 -50 -6t-40 -12l-13 -7q-5 -6 -13 -17t-29 -47.5t-37 -75.5t-29 -99.5t-13 -120.5z" />
    <glyph glyph-name="afii10049" unicode="&#x42f;" horiz-adv-x="626" 
d="M477 60l72 -7l-10 -53h-252l10 50l76 17l47 243h-93l-208 -310h-154l11 53l72 7l180 257q-63 14 -98.5 54.5t-35.5 101.5q0 101 79.5 164t199.5 63h302l-10 -50l-76 -17zM334 382h101l48 247h-106q-23 0 -47.5 -2.5t-37.5 -5.5l-12 -3q-3 -2 -7.5 -5.5t-17 -16t-22 -27
t-17 -38.5t-7.5 -51q0 -98 125 -98z" />
    <glyph glyph-name="afii10065" unicode="&#x430;" horiz-adv-x="563" 
d="M37 166q0 153 83.5 258.5t225.5 105.5q40 0 82.5 -8.5t65.5 -17.5l22 -8l-79 -404q-6 -31 28 -22q21 6 48 23l7 -48q-6 -6 -15.5 -14.5t-40 -22.5t-59.5 -14q-31 0 -41 18.5t0 77.5l10 46h-6q-22 -66 -75.5 -105.5t-122.5 -39.5q-68 0 -100.5 42t-32.5 133zM298 89
q51 77 79 223l26 133q-39 14 -84 14q-26 0 -49.5 -5t-33.5 -10l-11 -5l-9 -12q-6 -8 -20.5 -34t-26 -55t-20.5 -74.5t-9 -92.5q0 -59 16 -83.5t53 -24.5q21 0 43 6.5t34 12.5z" />
    <glyph glyph-name="afii10066" unicode="&#x431;" horiz-adv-x="563" 
d="M217 576q-28 -46 -49 -142h3q83 92 189 92q74 0 122.5 -49t48.5 -146q0 -81 -33.5 -157t-104 -129.5t-163.5 -53.5q-179 0 -179 206q0 70 16 162q13 71 32 126t39 91.5t48 63t51.5 40t58 23.5t59 13t62 8t60.5 9q22 13 34 33l47 -23q-20 -45 -67 -70t-94.5 -32
t-100 -22.5t-79.5 -42.5zM328 459q-72 0 -137 -62q-34 -96 -34 -196q0 -73 24.5 -105.5t74.5 -32.5q20 0 40.5 4.5t31.5 8.5l10 4q10 13 24.5 37t38.5 92t24 130q0 120 -97 120z" />
    <glyph glyph-name="afii10067" unicode="&#x432;" horiz-adv-x="513" 
d="M50 187q0 139 86 241t213 102q67 0 102.5 -31t35.5 -83q0 -91 -102 -141q86 -21 86 -101q0 -74 -67.5 -128.5t-168.5 -54.5q-90 0 -137.5 49.5t-47.5 146.5zM366 164q0 74 -91 77q-56 -10 -116 -11q-1 -11 -1 -32q0 -73 25 -104t77 -31q19 0 38 3.5t28 7.5l10 3
q30 41 30 87zM243 443q-6 -6 -15.5 -18t-30 -53t-30.5 -86q104 4 159.5 34.5t55.5 81.5q0 57 -61 57q-16 0 -35.5 -4t-31.5 -8z" />
    <glyph glyph-name="afii10068" unicode="&#x433;" horiz-adv-x="454" 
d="M38 124q0 48 29.5 82t71 53.5t83 36.5t71 41t29.5 57q0 29 -22 47t-64 18q-28 0 -60 -8t-50 -16l-17 -8l-9 52q8 6 22 14.5t59 22.5t91 14q78 0 118 -35.5t40 -91.5q0 -46 -29 -79t-70.5 -52.5t-83.5 -36.5t-71 -42.5t-29 -59.5q0 -71 96 -71q31 0 65 8t52 16l19 9l9 -52
q-8 -6 -23 -14.5t-62.5 -22.5t-95.5 -14q-83 0 -126 36t-43 96z" />
    <glyph glyph-name="afii10069" unicode="&#x434;" horiz-adv-x="537" 
d="M150 718l18 40q7 0 19.5 -1t49 -8.5t69.5 -21t73 -43t69 -69.5t49 -105t20 -145q0 -167 -78.5 -270.5t-216.5 -103.5q-181 0 -181 206q0 147 78 237.5t192 90.5q40 0 81 -15q-17 57 -48 99t-63.5 62t-62.5 31.5t-49 13.5zM412 366q0 32 -3 62q-38 31 -96 31
q-21 0 -42.5 -4.5t-32.5 -8.5l-11 -4q-3 -4 -8.5 -11t-19.5 -31t-24.5 -50.5t-19 -68t-8.5 -84.5q0 -134 98 -134q18 0 38 4t31 8l10 4q4 4 9.5 11t21 33.5t27 57t21 80.5t9.5 105z" />
    <glyph glyph-name="afii10070" unicode="&#x435;" horiz-adv-x="485" 
d="M477 414q0 -86 -83.5 -138.5t-243.5 -54.5v-1q0 -156 121 -156q29 0 63 8t53 16l19 9l9 -55q-9 -6 -24 -14.5t-62 -22.5t-93 -14q-94 0 -144.5 56.5t-50.5 157.5q0 134 82.5 229.5t212.5 95.5q141 0 141 -116zM227 443q-6 -7 -16 -19.5t-29.5 -54.5t-27.5 -89
q110 2 163.5 34t53.5 86q0 59 -65 59q-17 0 -36.5 -4t-31.5 -8z" />
    <glyph glyph-name="afii10072" unicode="&#x436;" horiz-adv-x="788" 
d="M-14 40l27 46q5 -5 14.5 -11t31.5 -5.5t38 22.5l141 209q-10 47 -22.5 84t-19.5 51l-8 13q-17 6 -35 6q-16 0 -30.5 -5t-20.5 -10l-7 -5l16 85q22 10 57 10q58 0 90.5 -49.5t48.5 -178.5h51l44 219h97l-43 -219h48q117 228 235 228q13 0 25.5 -2.5t18.5 -5.5l6 -2
l-15 -85q-16 20 -50 20l-36 -6q-51 -47 -117 -157l72 -202q7 -20 27.5 -21t37.5 8l17 9l7 -46q-5 -5 -13.5 -12.5t-35 -20.5t-51.5 -13q-66 0 -83 63l-59 176h-48l-45 -233h-99l46 233h-47l-115 -176q-37 -63 -112 -63q-27 0 -48 11.5t-28 22.5z" />
    <glyph glyph-name="afii10073" unicode="&#x437;" horiz-adv-x="493" 
d="M208 63q26 0 49.5 2.5t34.5 5.5l10 3q37 33 37 91q0 71 -84 71h-61l-8 10l11 56h63q21 0 40 2.5t28 5.5l8 2q28 34 28 79q0 68 -91 68q-22 0 -40.5 -3.5t-26.5 -7.5l-8 -4l-31 -83h-75l26 130q71 39 179 39q82 0 126.5 -29.5t44.5 -84.5q0 -45 -26.5 -84t-69.5 -59
q71 -30 71 -109q0 -80 -63 -126.5t-186 -46.5q-55 0 -98 9.5t-58 19.5l-16 10l25 130h75l-1 -80q21 -17 87 -17z" />
    <glyph glyph-name="afii10074" unicode="&#x438;" horiz-adv-x="604" 
d="M64 463l8 49q71 16 116 16q71 0 58 -61l-54 -281q-13 -74 -2 -98.5t51 -24.5q25 0 50 6.5t37 12.5l12 6q6 9 15.5 26t30.5 75t33 123l41 209h103l-84 -429q-6 -31 28 -22q21 6 48 23l7 -48q-6 -6 -16 -14.5t-40 -22.5t-59 -14q-31 0 -41 18.5t0 77.5l10 46h-6
q-23 -61 -82.5 -103t-137.5 -42q-75 0 -97.5 48.5t-0.5 160.5l45 234q5 22 -4 25.5t-69 3.5z" />
    <glyph glyph-name="afii10075" unicode="&#x439;" horiz-adv-x="604" 
d="M64 463l8 49q71 16 116 16q71 0 58 -61l-54 -281q-13 -74 -2 -98.5t51 -24.5q25 0 50 6.5t37 12.5l12 6q6 9 15.5 26t30.5 75t33 123l41 209h103l-84 -429q-6 -31 28 -22q21 6 48 23l7 -48q-6 -6 -16 -14.5t-40 -22.5t-59 -14q-31 0 -41 18.5t0 77.5l10 46h-6
q-23 -61 -82.5 -103t-137.5 -42q-75 0 -97.5 48.5t-0.5 160.5l45 234q5 22 -4 25.5t-69 3.5zM350 603q-37 0 -64 11.5t-39 28.5t-19 34t-8 29v11l72 7q0 -71 68 -71q40 0 63.5 22t32.5 49l69 -7q-1 -5 -4.5 -12.5t-17 -27t-31 -34.5t-50.5 -27.5t-72 -12.5z" />
    <glyph glyph-name="afii10076" unicode="&#x43a;" horiz-adv-x="552" 
d="M503 88l7 -48q-5 -5 -13.5 -12.5t-35 -20.5t-51.5 -13q-62 0 -85 63l-76 176h-48l-46 -233h-103l86 434q4 22 -5 25.5t-69 3.5l9 49q70 16 115 16q70 0 59 -61l-33 -165h49q119 228 239 228q13 0 25.5 -2.5t18.5 -5.5l6 -2l-16 -85q-15 20 -49 20l-37 -6
q-53 -46 -119 -156l89 -201q8 -20 29 -21t37 8z" />
    <glyph glyph-name="afii10077" unicode="&#x43b;" horiz-adv-x="597" 
d="M365 72l75 384h-143q-48 -246 -110 -355.5t-148 -109.5q-14 0 -29.5 2.5t-23.5 4.5l-9 3l28 86q23 -17 85 -17q3 3 8 9.5t21 36t31 69.5t36 114t39 165l-63 7l10 50h383l-83 -429q-6 -31 28 -22q21 7 47 23l7 -48q-6 -6 -16.5 -14.5t-44.5 -23t-68 -14.5q-77 0 -60 79z
" />
    <glyph glyph-name="afii10078" unicode="&#x43c;" horiz-adv-x="762" 
d="M541 72l33 277q6 44 12 65h-5q-17 -46 -26 -65l-160 -303h-89l-9 10l-45 293q-4 43 -1 65h-5q0 -2 -5 -25.5t-9 -39.5q-20 -92 -33 -145.5t-28.5 -100t-32 -68t-37.5 -33t-50 -11.5q-15 0 -30 2.5t-23 4.5l-7 3l27 90q16 -16 69 -16q3 3 10 17.5t33.5 112.5t59.5 259
l-62 7l10 50h182l53 -310q4 -57 4 -68h4q11 30 29 68l171 310h115l-50 -430q-5 -40 50 -14l28 16l6 -48q-6 -6 -16.5 -14.5t-44.5 -23t-68 -14.5q-37 0 -51 18t-9 61z" />
    <glyph glyph-name="afii10079" unicode="&#x43d;" horiz-adv-x="607" 
d="M464 521h102l-84 -429q-6 -32 29 -21q21 6 47 22l6 -48q-6 -6 -16.5 -14.5t-44.5 -23t-68 -14.5q-77 0 -60 79l31 158h-206l-45 -230h-103l86 434q4 22 -5 25.5t-69 3.5l9 49q70 16 115 16q70 0 59 -61l-33 -169h206z" />
    <glyph glyph-name="afii10080" unicode="&#x43e;" horiz-adv-x="540" 
d="M41 197q0 144 85.5 238.5t210.5 94.5q87 0 133 -51.5t46 -152.5q0 -144 -84.5 -239.5t-210.5 -95.5q-88 0 -134 52.5t-46 153.5zM148 204q0 -141 100 -141q17 0 36.5 3.5t30.5 7.5l11 4q3 3 9 9.5t20 29.5t25 48t20 66t9 84q0 144 -99 144q-16 0 -36 -4t-32 -8l-11 -4
q-3 -4 -9 -11t-20 -30.5t-25 -49.5t-20 -66.5t-9 -81.5z" />
    <glyph glyph-name="afii10081" unicode="&#x43f;" horiz-adv-x="607" 
d="M558 93l6 -48q-6 -6 -16.5 -14.5t-44.5 -23t-68 -14.5q-77 0 -60 79l51 263q14 72 3 98t-54 26q-25 0 -49.5 -6.5t-37.5 -13.5l-12 -7q-6 -9 -15 -25.5t-30.5 -74t-33.5 -122.5l-41 -210h-102l84 434q4 22 -5 25.5t-69 3.5l9 49q49 16 96 16q34 0 44 -15t0 -68l-13 -59h6
q24 63 85 103.5t138 40.5q75 0 97.5 -48t0.5 -161l-44 -224q-6 -30 27 -24q21 5 48 20z" />
    <glyph glyph-name="afii10082" unicode="&#x440;" horiz-adv-x="574" 
d="M21 -166l117 599q4 23 -5 26.5t-69 3.5l9 49q49 16 96 16q34 0 44 -15t0 -68l-13 -59h6q21 62 75.5 103t127.5 41q68 0 101.5 -41t33.5 -131q0 -153 -84.5 -260t-216.5 -107q-43 0 -86 13l-35 -177l92 -7l-10 -50h-259l10 47zM197 210l-24 -125q44 -22 91 -22q21 0 43 5
t33 10l12 5q4 4 9.5 12t20.5 34t26.5 55t21 74t9.5 91q0 60 -16.5 85t-55.5 25q-21 0 -44 -6.5t-35 -12.5l-13 -7q-50 -77 -78 -223z" />
    <glyph glyph-name="afii10083" unicode="&#x441;" horiz-adv-x="494" 
d="M387 361l2 80q-20 18 -72 18q-24 0 -46 -4.5t-33 -8.5l-10 -5q-3 -3 -8.5 -9t-19 -27.5t-23.5 -45.5t-18.5 -63t-8.5 -80q0 -80 30.5 -116t90.5 -36q30 0 63.5 8t52.5 16l19 9l9 -55q-9 -6 -24.5 -14.5t-62 -22.5t-91.5 -14q-94 0 -145.5 55.5t-51.5 157.5
q0 133 82.5 229.5t213.5 96.5q44 0 82 -11t54 -23l15 -11l-25 -124h-75z" />
    <glyph glyph-name="afii10084" unicode="&#x442;" horiz-adv-x="891" 
d="M451 0h-102l66 335q13 72 2.5 98t-50.5 26q-24 0 -47 -6.5t-34 -12.5l-11 -7q-48 -74 -75 -212l-44 -221h-102l84 434q4 22 -5 25.5t-69 3.5l9 49q49 16 96 16q34 0 44 -15t0 -68l-13 -59h6q23 62 81.5 103t131.5 41q54 0 77.5 -26t25.5 -82q31 47 82.5 77.5t112.5 30.5
q72 0 94 -48t0 -161l-45 -229q-6 -30 26 -22q22 5 50 23l7 -48q-6 -6 -17 -14.5t-45 -23t-68 -14.5q-38 0 -53 18.5t-7 60.5l52 263q13 72 2.5 98t-50.5 26q-24 0 -46.5 -6.5t-33.5 -12.5l-11 -7q-5 -7 -14 -22t-29.5 -70t-33.5 -121z" />
    <glyph glyph-name="afii10085" unicode="&#x443;" horiz-adv-x="561" 
d="M-86 -227l16 84q32 -27 95 -27q17 0 32.5 2.5t22.5 5.5l8 2q45 41 112 137l-79 457q-4 22 -14.5 25.5t-71.5 3.5l10 49q48 16 93 16q73 0 80 -61l57 -398q77 115 126 219.5t49 144.5q0 19 -15 25.5t-56 7.5l9 46q53 15 91 15q68 0 68 -62t-71.5 -201.5t-173.5 -272.5
q-96 -126 -164.5 -178t-140.5 -52q-24 0 -44.5 3t-29.5 6z" />
    <glyph glyph-name="afii10086" unicode="&#x444;" horiz-adv-x="772" 
d="M37 163q0 154 77 260.5t205 106.5q35 0 69 -9l28 141q4 22 -3 26q-11 4 -71 4l9 49q70 15 115 15q70 0 59 -61l-20 -108q-3 -12 -17 -63t-26 -106h5q14 42 60 77t103 35q114 0 114 -171q0 -154 -78 -261t-206 -107q-34 0 -70 9l-34 -173l62 -7l-10 -50h-228l9 47l66 17
l19 95q8 38 24.5 100.5t19.5 73.5h-4q-15 -42 -61 -77t-102 -35q-114 0 -114 172zM279 88q44 78 69 224l26 133q-36 14 -73 14q-23 0 -43.5 -5t-29.5 -10l-10 -5q-3 -4 -8.5 -12t-19 -34.5t-23.5 -56t-18.5 -75t-8.5 -93.5q0 -57 14 -81t47 -24q18 0 37.5 6.5t29.5 12.5z
M433 210l-28 -135q31 -12 73 -12q22 0 43 5t31 10l9 5q3 4 8.5 12t19 34t24 55.5t19 75t8.5 93.5q0 57 -14 81.5t-47 24.5q-19 0 -38 -6.5t-29 -13.5l-10 -7q-45 -76 -69 -222z" />
    <glyph glyph-name="afii10087" unicode="&#x445;" horiz-adv-x="543" 
d="M488 88l7 -48q-5 -5 -13.5 -12.5t-35 -20.5t-51.5 -13q-60 0 -84 63l-55 145q-60 -113 -113 -162t-108 -49q-14 0 -26.5 2.5t-18.5 4.5l-5 3l16 86q16 -20 49 -20l34 4q69 70 144 206l-59 158q-7 18 -17 21t-62 3l-5 46q37 21 88 21q68 0 92 -61l47 -126
q55 104 101.5 147.5t97.5 43.5q14 0 27 -2.5t18 -5.5l6 -2l-15 -85q-17 20 -49 20l-35 -6q-53 -63 -123 -186l65 -171q8 -20 28.5 -21t37.5 8z" />
    <glyph glyph-name="afii10088" unicode="&#x446;" horiz-adv-x="615" 
d="M64 463l8 49q71 16 116 16q71 0 58 -61l-54 -281q-13 -74 -2 -98.5t51 -24.5q25 0 50 6.5t37 12.5l12 6q6 9 15.5 26t30.5 75t33 123l41 209h103l-84 -429q-4 -18 4.5 -23t26 1.5t26.5 11t18 10.5l1 1l33 -8q-21 -32 -27 -68t-5 -61.5t-15.5 -59t-56.5 -64.5l-34 8
q18 28 24.5 55.5t8 58t5.5 46.5q-26 -6 -41 -6q-31 0 -41 18.5t0 77.5l10 46h-6q-23 -61 -82.5 -103t-137.5 -42q-75 0 -97.5 48.5t-0.5 160.5l45 234q5 22 -4 25.5t-69 3.5z" />
    <glyph glyph-name="afii10089" unicode="&#x447;" horiz-adv-x="568" 
d="M336 72l31 161q-81 -39 -154 -39q-68 0 -97 38t-14 113l18 89q4 22 -5.5 25.5t-69.5 3.5l9 49q70 16 115 16q70 0 59 -61l-23 -118q-9 -46 6.5 -64t59.5 -18q62 0 108 27l45 227h102l-83 -429q-6 -30 26 -22q22 5 50 23l7 -48q-6 -6 -17 -14.5t-44.5 -23t-67.5 -14.5
q-38 0 -53.5 18.5t-7.5 60.5z" />
    <glyph glyph-name="afii10090" unicode="&#x448;" horiz-adv-x="891" 
d="M452 521h103l-66 -335q-14 -71 -3 -97t51 -26q23 0 46 6.5t35 12.5l11 6q48 74 75 213l-1 -128l3 139l41 209h103l-84 -429q-6 -31 26 -23q22 6 50 24l7 -48q-6 -6 -15.5 -14.5t-40 -22.5t-59.5 -14q-30 0 -40 20t-1 76l10 46h-6q-23 -63 -81.5 -104t-130.5 -41
q-55 0 -78.5 26.5t-24.5 82.5q-31 -47 -82.5 -78t-113.5 -31q-72 0 -94 48.5t0 160.5l47 235q5 22 -4.5 26t-69.5 4l9 49q70 16 115 16q70 0 59 -61l-55 -283q-14 -71 -3 -97t51 -26q24 0 46.5 6.5t33.5 12.5l11 6q5 7 13.5 22t29 70.5t33.5 120.5z" />
    <glyph glyph-name="afii10091" unicode="&#x449;" horiz-adv-x="903" 
d="M65 465l9 49q70 16 115 16q70 0 59 -61l-55 -283q-14 -71 -3 -97t51 -26q24 0 46.5 6.5t33.5 12.5l11 6q5 7 13.5 22t29 70.5t33.5 120.5l44 220h103l-66 -335q-14 -71 -3 -97t51 -26q23 0 46 6.5t35 12.5l11 6q48 74 75 213l-1 -128l3 139l41 209h103l-84 -429
q-3 -18 5.5 -23t25.5 2t25.5 11t18.5 10l1 1l33 -8q-21 -32 -27 -68t-4.5 -61.5t-15.5 -59t-57 -64.5l-34 8q19 28 25.5 55.5t7.5 58t5 46.5q-26 -6 -41 -6q-30 0 -40 20t-1 76l10 46h-6q-23 -63 -81.5 -104t-130.5 -41q-55 0 -78.5 26.5t-24.5 82.5q-31 -47 -82.5 -78
t-113.5 -31q-72 0 -94 48.5t0 160.5l47 235q5 22 -4.5 26t-69.5 4z" />
    <glyph glyph-name="afii10092" unicode="&#x44a;" horiz-adv-x="551" 
d="M44 432l-22 25q1 3 4 7.5t12.5 16t20 20.5t28 16t35.5 7q22 0 59.5 -13t56.5 -13l47 23h48q-69 -103 -105 -223q57 20 123 20q161 0 161 -131q0 -82 -60.5 -139t-169.5 -57q-181 0 -181 177q0 137 102 268q-12 -2 -18 -2q-20 0 -52 12.5t-49 12.5zM310 252q-54 0 -96 -13
q-7 -34 -7 -72q0 -54 21 -79t72 -25q20 0 39 3.5t29 7.5l9 3q32 39 32 94q0 81 -99 81z" />
    <glyph glyph-name="afii10093" unicode="&#x44b;" horiz-adv-x="782" 
d="M58 463l9 49q71 16 115 16q72 0 59 -61l-33 -167q54 18 115 18q163 0 163 -131q0 -82 -63 -139t-177 -57q-202 0 -163 196l49 247q4 22 -5 25.5t-69 3.5zM547 463l9 49q70 16 115 16q70 0 59 -61l-74 -375q-6 -30 26 -22q22 5 50 23l7 -48q-6 -6 -17 -14.5t-44.5 -23
t-67.5 -14.5q-38 0 -53.5 18.5t-7.5 60.5l72 362q4 22 -5.5 25.5t-68.5 3.5zM283 252q-40 0 -87 -11l-11 -58q-13 -65 6.5 -92.5t77.5 -27.5q23 0 43 3.5t29 7.5l9 3q33 39 33 94q0 81 -100 81z" />
    <glyph glyph-name="afii10094" unicode="&#x44c;" horiz-adv-x="525" 
d="M58 463l9 49q71 16 115 16q72 0 59 -61l-33 -167q54 18 115 18q163 0 163 -132q0 -82 -63 -138.5t-177 -56.5q-203 0 -163 196l49 247q4 22 -5 25.5t-69 3.5zM283 252q-40 0 -87 -11l-11 -58q-13 -65 6.5 -92.5t77.5 -27.5q23 0 43 3.5t29 7.5l9 3q33 39 33 94
q0 81 -100 81z" />
    <glyph glyph-name="afii10095" unicode="&#x44d;" horiz-adv-x="503" 
d="M185 234l13 66h177q1 6 1 18q0 141 -113 141q-20 0 -38.5 -3.5t-26.5 -7.5l-9 -4l-31 -83h-75l26 130q76 39 173 39q201 0 201 -208q0 -138 -84 -234.5t-226 -96.5q-44 0 -82.5 9.5t-54.5 19.5l-17 10l25 130h75l-1 -80q26 -17 78 -17q25 0 49.5 5t36.5 10l11 5
q51 58 73 151h-181z" />
    <glyph glyph-name="afii10096" unicode="&#x44e;" horiz-adv-x="762" 
d="M295 196q0 23 1 34h-96l-45 -230h-103l86 434q4 22 -5 25.5t-69 3.5l9 49q70 16 115 16q70 0 59 -61l-33 -169h93q26 104 98 168t167 64q81 0 123.5 -52t42.5 -152q0 -143 -79 -239t-197 -96q-82 0 -124.5 52.5t-42.5 152.5zM400 203q0 -140 88 -140q14 0 31 3.5t27 7.5
l10 4q3 3 8.5 10t18.5 30t23 48.5t18.5 67t8.5 84.5q0 141 -87 141q-14 0 -31.5 -4t-27.5 -8l-10 -4q-3 -4 -8.5 -10.5t-18.5 -30t-23 -49.5t-18.5 -66.5t-8.5 -83.5z" />
    <glyph glyph-name="afii10097" unicode="&#x44f;" horiz-adv-x="557" 
d="M325 72l31 154h-84q-51 -132 -97 -183.5t-115 -51.5q-18 0 -34.5 2.5t-23.5 4.5l-8 3l28 86q21 -19 78 -19q34 29 89 166q-97 27 -97 119q0 76 64 122t164 46h195l-83 -429q-6 -30 26 -22q22 5 50 23l7 -48q-6 -6 -17 -14.5t-44.5 -23t-67.5 -14.5q-38 0 -53.5 18.5
t-7.5 60.5zM196 361q0 -70 86 -70h87l31 165h-87q-25 0 -46 -3t-29 -5l-9 -3q-33 -32 -33 -84z" />
    <glyph glyph-name="uni0450" unicode="&#x450;" horiz-adv-x="485" 
d="M477 414q0 -86 -83.5 -138.5t-243.5 -54.5v-1q0 -156 121 -156q29 0 63 8t53 16l19 9l9 -55q-9 -6 -24 -14.5t-62 -22.5t-93 -14q-94 0 -144.5 56.5t-50.5 157.5q0 134 82.5 229.5t212.5 95.5q141 0 141 -116zM227 443q-6 -7 -16 -19.5t-29.5 -54.5t-27.5 -89
q110 2 163.5 34t53.5 86q0 59 -65 59q-17 0 -36.5 -4t-31.5 -8zM182 691l78 65l102 -155l-48 -22z" />
    <glyph glyph-name="afii10071" unicode="&#x451;" horiz-adv-x="485" 
d="M477 414q0 -86 -83.5 -138.5t-243.5 -54.5v-1q0 -156 121 -156q29 0 63 8t53 16l19 9l9 -55q-9 -6 -24 -14.5t-62 -22.5t-93 -14q-94 0 -144.5 56.5t-50.5 157.5q0 134 82.5 229.5t212.5 95.5q141 0 141 -116zM227 443q-6 -7 -16 -19.5t-29.5 -54.5t-27.5 -89
q110 2 163.5 34t53.5 86q0 59 -65 59q-17 0 -36.5 -4t-31.5 -8zM183 657q0 28 19.5 47t47.5 19q21 0 33.5 -12.5t12.5 -32.5q0 -28 -19.5 -46.5t-48.5 -18.5q-20 0 -32.5 12t-12.5 32zM377 657q0 28 19.5 47t47.5 19q21 0 33.5 -12.5t12.5 -32.5q0 -28 -19.5 -46.5
t-48.5 -18.5q-20 0 -32.5 12t-12.5 32z" />
    <glyph glyph-name="afii10099" unicode="&#x452;" horiz-adv-x="575" 
d="M349 0l65 335q13 73 2 98.5t-52 25.5q-25 0 -50 -6.5t-38 -13.5l-12 -7q-50 -76 -79 -222l-40 -210h-104l117 597h-63l11 53l71 12l32 88h82l-17 -88h156l-14 -65h-158l-9 -44q-5 -26 -18 -72t-17 -63h6q16 43 75 77.5t128 34.5q70 0 92.5 -46.5t-0.5 -162.5l-64 -321
q-25 -131 -80 -185t-146 -54q-21 0 -42.5 2.5t-32.5 4.5l-10 3l26 77q33 -18 75 -18q14 0 27 2.5t19 5.5l6 2q32 40 56 160z" />
    <glyph glyph-name="afii10100" unicode="&#x453;" horiz-adv-x="466" 
d="M213 601l162 155l53 -65l-175 -112zM50 124q0 48 29 82t70.5 53.5t83.5 36.5t71 41t29 57q0 29 -22 47t-64 18q-28 0 -59.5 -8t-49.5 -16l-18 -8l-8 52q8 6 22 14.5t59 22.5t91 14q78 0 118 -35.5t40 -91.5q0 -46 -29.5 -79t-71 -52.5t-83 -36.5t-71 -42.5t-29.5 -59.5
q0 -32 24 -51.5t72 -19.5q31 0 65 8t53 16l18 9l9 -52q-8 -6 -23 -14.5t-62.5 -22.5t-95.5 -14q-82 0 -125 36t-43 96z" />
    <glyph glyph-name="afii10101" unicode="&#x454;" horiz-adv-x="494" 
d="M387 361l2 80q-20 18 -72 18q-24 0 -46 -4.5t-33 -8.5l-10 -5q-5 -6 -14 -16.5t-28 -48t-28 -78.5h227l-12 -65h-223v-17q0 -80 30.5 -116t90.5 -36q30 0 63.5 8t52.5 16l19 9l9 -55q-9 -6 -24.5 -14.5t-62 -22.5t-91.5 -14q-94 0 -145.5 55.5t-51.5 157.5
q0 133 82.5 229.5t213.5 96.5q44 0 82 -11t54 -23l15 -11l-25 -124h-75z" />
    <glyph glyph-name="afii10102" unicode="&#x455;" horiz-adv-x="480" 
d="M327 142q0 19 -7 32.5t-24 23.5t-31 15.5t-40 14.5q-30 9 -48 16.5t-41 23t-34 39.5t-11 57q0 68 51 117t160 49q32 0 59 -4.5t43 -11.5t28 -13.5t16 -10.5l5 -5l-23 -122h-75l2 81q-20 18 -72 18q-18 0 -37.5 -2.5t-30.5 -5.5l-11 -2q-24 -30 -24 -66q0 -19 7 -33
t24 -24t32 -16t43 -15q31 -9 48.5 -16.5t39.5 -22t32.5 -38t10.5 -55.5q0 -73 -56 -124t-175 -51q-34 0 -63 4.5t-46.5 11t-30 13.5t-16.5 12l-5 4l25 123h75l-2 -81q23 -18 83 -18q21 0 44 2.5t36 5.5l12 2q27 34 27 72z" />
    <glyph glyph-name="afii10103" unicode="&#x456;" horiz-adv-x="299" 
d="M64 463l9 49q70 16 115 16q70 0 59 -61l-74 -375q-6 -30 26 -22q22 5 50 23l7 -48q-6 -6 -17 -14.5t-44.5 -23t-67.5 -14.5q-38 0 -53.5 18.5t-7.5 60.5l72 362q4 22 -5 25.5t-69 3.5zM153 673q0 34 24.5 57.5t59.5 23.5q27 0 42.5 -15.5t15.5 -41.5q0 -34 -24.5 -57
t-59.5 -23q-27 0 -42.5 15t-15.5 41z" />
    <glyph glyph-name="afii10104" unicode="&#x457;" horiz-adv-x="299" 
d="M82 657q0 28 19 47t47 19q22 0 34 -12.5t12 -32.5q0 -28 -19.5 -46.5t-47.5 -18.5q-21 0 -33 12t-12 32zM250 657q0 28 19.5 47t47.5 19q21 0 33.5 -12.5t12.5 -32.5q0 -28 -19.5 -46.5t-48.5 -18.5q-20 0 -32.5 12t-12.5 32zM64 464l8 48q71 16 115 16q71 0 60 -61
l-74 -375q-6 -30 26 -22q22 5 50 23l7 -48q-6 -6 -17 -14.5t-44.5 -23t-67.5 -14.5q-38 0 -53.5 18.5t-7.5 60.5l72 362q4 22 -5.5 26t-68.5 4z" />
    <glyph glyph-name="afii10105" unicode="&#x458;" horiz-adv-x="279" 
d="M153 672q0 36 24 59t60 23q27 0 42.5 -15.5t15.5 -40.5q0 -35 -24 -58t-60 -23q-27 0 -42.5 15t-15.5 40zM64 463l9 49q70 16 115 16q70 0 59 -61l-91 -467q-26 -131 -81 -185t-146 -54q-21 0 -42 2.5t-31 4.5l-11 3l26 77q32 -18 74 -18q14 0 27.5 2.5t19.5 5.5l6 2
q32 40 55 160l85 434q4 22 -5 25.5t-69 3.5z" />
    <glyph glyph-name="afii10106" unicode="&#x459;" horiz-adv-x="829" 
d="M387 187l53 269h-143q-48 -246 -110 -355.5t-148 -109.5q-14 0 -29.5 2.5t-23.5 4.5l-9 3l28 86q23 -17 85 -17q3 3 8 9.5t21 36t31 69.5t36 114t39 165l-63 7l10 50h383l-43 -221q54 18 116 18q162 0 162 -131q0 -82 -63 -139t-177 -57q-202 0 -163 196zM587 252
q-40 0 -87 -11l-11 -58q-13 -65 6.5 -92.5t77.5 -27.5q23 0 43 3.5t29 7.5l9 3q33 39 33 94q0 81 -100 81z" />
    <glyph glyph-name="afii10107" unicode="&#x45a;" horiz-adv-x="830" 
d="M388 187l8 43h-196l-45 -230h-103l86 434q4 22 -5 25.5t-69 3.5l9 49q70 16 115 16q70 0 59 -61l-33 -169h196l45 223h102l-44 -221q54 18 116 18q162 0 162 -131q0 -82 -63 -139t-177 -57q-202 0 -163 196zM588 252q-40 0 -87 -11l-11 -58q-13 -65 6.5 -92.5t77.5 -27.5
q23 0 43 3.5t29 7.5l9 3q33 39 33 94q0 81 -100 81z" />
    <glyph glyph-name="afii10108" unicode="&#x45b;" horiz-adv-x="595" 
d="M41 0l117 597h-63l11 53l71 12l32 88h82l-17 -88h156l-14 -65h-158l-9 -44q-5 -26 -18 -72t-17 -63h6q16 43 75 77.5t128 34.5q70 0 92.5 -46.5t-0.5 -162.5l-45 -229q-6 -31 28 -22q21 7 47 23l7 -48q-6 -6 -16.5 -14.5t-44.5 -23t-68 -14.5q-77 0 -60 79l51 263
q13 73 2 98.5t-52 25.5q-25 0 -50 -6.5t-38 -13.5l-12 -7q-50 -76 -79 -222l-40 -210h-104z" />
    <glyph glyph-name="afii10109" unicode="&#x45c;" horiz-adv-x="552" 
d="M503 88l7 -48q-5 -5 -13.5 -12.5t-35 -20.5t-51.5 -13q-62 0 -85 63l-76 176h-48l-46 -233h-103l86 434q4 22 -5 25.5t-69 3.5l9 49q70 16 115 16q70 0 59 -61l-33 -165h49q119 228 239 228q13 0 25.5 -2.5t18.5 -5.5l6 -2l-16 -85q-15 20 -49 20l-37 -6
q-53 -46 -119 -156l89 -201q8 -20 29 -21t37 8zM266 601l163 155l53 -65l-176 -112z" />
    <glyph glyph-name="uni045D" unicode="&#x45d;" horiz-adv-x="604" 
d="M64 463l8 49q71 16 116 16q71 0 58 -61l-54 -281q-13 -74 -2 -98.5t51 -24.5q25 0 50 6.5t37 12.5l12 6q6 9 15.5 26t30.5 75t33 123l41 209h103l-84 -429q-6 -31 28 -22q21 6 48 23l7 -48q-6 -6 -16 -14.5t-40 -22.5t-59 -14q-31 0 -41 18.5t0 77.5l10 46h-6
q-23 -61 -82.5 -103t-137.5 -42q-75 0 -97.5 48.5t-0.5 160.5l45 234q5 22 -4 25.5t-69 3.5zM222 691l78 65l102 -155l-48 -22z" />
    <glyph glyph-name="afii10110" unicode="&#x45e;" horiz-adv-x="561" 
d="M-86 -227l16 84q32 -27 95 -27q17 0 32.5 2.5t22.5 5.5l8 2q45 41 112 137l-79 457q-4 22 -14.5 25.5t-71.5 3.5l10 49q48 16 93 16q73 0 80 -61l57 -398q77 115 126 219.5t49 144.5q0 19 -15 25.5t-56 7.5l9 46q53 15 91 15q68 0 68 -62t-71.5 -201.5t-173.5 -272.5
q-96 -126 -164.5 -178t-140.5 -52q-24 0 -44.5 3t-29.5 6zM316 603q-37 0 -64 11.5t-39 28.5t-19 34t-8 29v11l72 7q0 -71 68 -71q40 0 63 21.5t32 49.5l70 -7q-1 -5 -4.5 -12.5t-17 -27t-31 -34.5t-50.5 -27.5t-72 -12.5z" />
    <glyph glyph-name="afii10193" unicode="&#x45f;" horiz-adv-x="604" 
d="M64 463l8 49q71 16 116 16q71 0 58 -61l-54 -281q-13 -74 -2 -98.5t51 -24.5q25 0 50 6.5t37 12.5l12 6q6 9 15.5 26t30.5 75t33 123l41 209h103l-84 -429q-6 -31 28 -22q21 6 48 23l7 -48q-6 -6 -16 -14.5t-40 -22.5t-59 -14q-31 0 -41 18.5t0 77.5l10 46h-6
q-22 -59 -77 -99q-11 -25 -14.5 -54t-4 -48t-17 -46.5t-53.5 -56.5l-34 8q27 40 31.5 91.5t11.5 67.5q-32 -8 -63 -8q-75 0 -97.5 48.5t-0.5 160.5l45 234q5 22 -4 25.5t-69 3.5z" />
    <glyph glyph-name="afii10050" unicode="&#x490;" horiz-adv-x="523" 
d="M485 700l50 121h70l-51 -192h-261l-110 -568l84 -4l-11 -57h-264l10 50l76 17l112 573l-72 7l10 53h357z" />
    <glyph glyph-name="afii10098" unicode="&#x491;" horiz-adv-x="456" 
d="M485 622l-34 -166h-163q-31 -192 -65 -294t-73 -136.5t-100 -34.5q-19 0 -37.5 2.5t-26.5 4.5l-9 3l28 86q23 -18 85 -18q5 9 15 32t37 138t51 282h181l36 101h75z" />
    <glyph glyph-name="uni04D8" unicode="&#x4d8;" horiz-adv-x="610" 
d="M596 426q0 -187 -105 -311t-262 -124q-92 0 -141.5 47t-51 126.5t32.5 184.5l35 21h375q22 127 -14.5 196t-123.5 69q-24 0 -51.5 -5.5t-42.5 -11.5l-15 -5l-51 -117h-69l46 171q89 42 192 42q118 0 182 -72t64 -211zM360 90l8 8q6 6 20.5 26.5t27.5 44t28 61.5t24 80
l-309 -11q-37 -114 -12 -173.5t104 -59.5q26 0 53 6t42 12z" />
    <glyph glyph-name="afii10846" unicode="&#x4d9;" horiz-adv-x="518" 
d="M114 424l-10 55q9 6 25 14.5t64.5 22.5t96.5 14q93 0 147 -51t54 -156q0 -135 -84 -233.5t-209 -98.5q-101 0 -142.5 69.5t-8.5 193.5l35 22h300q17 91 -17.5 136t-107.5 45q-32 0 -68 -8.5t-55 -16.5zM301 81q6 6 15 17t28 47.5t27 76.5l-242 -13q-16 -74 7 -110t77 -36
q21 0 43 4.5t34 8.5z" />
    <glyph glyph-name="Wgrave" unicode="&#x1e80;" horiz-adv-x="1039" 
d="M340 0h-102l-9 12l-73 625l-73 10l10 53h273l-10 -50l-79 -12l38 -465q0 -1 2 -25t2 -37h4q3 9 26 62l232 517h99l35 -517q0 -1 2 -25.5t2 -36.5h4q13 34 27 62l210 467l-71 7l10 53h223l-9 -50l-75 -17l-302 -633h-101l-10 12l-32 490q-3 41 -1 58h-5q-1 -2 -23 -58z
M508 853l78 65l102 -155l-48 -22z" />
    <glyph glyph-name="wgrave" unicode="&#x1e81;" horiz-adv-x="827" 
d="M644 466l8 46q52 15 91 15q67 0 67 -66q0 -41 -22.5 -103.5t-54 -122.5t-63.5 -114t-54 -87l-23 -34h-91l-59 345q-23 -74 -58 -160.5t-59 -135.5l-24 -49h-108l-74 434q-4 22 -14.5 25.5t-71.5 3.5l8 49q47 16 91 16q77 0 85 -61l58 -381q134 289 134 435h91l75 -434
q138 261 138 345q0 20 -14 26.5t-56 7.5zM343 691l78 65l102 -155l-48 -22z" />
    <glyph glyph-name="Wacute" unicode="&#x1e82;" horiz-adv-x="1039" 
d="M340 0h-102l-9 12l-73 625l-73 10l10 53h273l-10 -50l-79 -12l38 -465q0 -1 2 -25t2 -37h4q3 9 26 62l232 517h99l35 -517q0 -1 2 -25.5t2 -36.5h4q13 34 27 62l210 467l-71 7l10 53h223l-9 -50l-75 -17l-302 -633h-101l-10 12l-32 490q-3 41 -1 58h-5q-1 -2 -23 -58z
M571 763l163 155l53 -65l-175 -112z" />
    <glyph glyph-name="wacute" unicode="&#x1e83;" horiz-adv-x="827" 
d="M644 466l8 46q52 15 91 15q67 0 67 -66q0 -41 -22.5 -103.5t-54 -122.5t-63.5 -114t-54 -87l-23 -34h-91l-59 345q-23 -74 -58 -160.5t-59 -135.5l-24 -49h-108l-74 434q-4 22 -14.5 25.5t-71.5 3.5l8 49q47 16 91 16q77 0 85 -61l58 -381q134 289 134 435h91l75 -434
q138 261 138 345q0 20 -14 26.5t-56 7.5zM383 601l163 155l53 -65l-175 -112z" />
    <glyph glyph-name="Wdieresis" unicode="&#x1e84;" horiz-adv-x="1039" 
d="M340 0h-102l-9 12l-73 625l-73 10l10 53h273l-10 -50l-79 -12l38 -465q0 -1 2 -25t2 -37h4q3 9 26 62l232 517h99l35 -517q0 -1 2 -25.5t2 -36.5h4q13 34 27 62l210 467l-71 7l10 53h223l-9 -50l-75 -17l-302 -633h-101l-10 12l-32 490q-3 41 -1 58h-5q-1 -2 -23 -58z
M496 813q0 29 19.5 47.5t47.5 18.5q21 0 33 -12.5t12 -32.5q0 -28 -19 -46.5t-48 -18.5q-20 0 -32.5 12t-12.5 32zM690 813q0 29 19.5 47.5t47.5 18.5q21 0 33 -12.5t12 -32.5q0 -28 -19 -46.5t-48 -18.5q-21 0 -33 12t-12 32z" />
    <glyph glyph-name="wdieresis" unicode="&#x1e85;" horiz-adv-x="827" 
d="M644 466l8 46q52 15 91 15q67 0 67 -66q0 -41 -22.5 -103.5t-54 -122.5t-63.5 -114t-54 -87l-23 -34h-91l-59 345q-23 -74 -58 -160.5t-59 -135.5l-24 -49h-108l-74 434q-4 22 -14.5 25.5t-71.5 3.5l8 49q47 16 91 16q77 0 85 -61l58 -381q134 289 134 435h91l75 -434
q138 261 138 345q0 20 -14 26.5t-56 7.5zM325 657q0 28 19.5 47t47.5 19q21 0 33 -12.5t12 -32.5q0 -28 -19.5 -46.5t-47.5 -18.5q-21 0 -33 12t-12 32zM519 657q0 28 19.5 47t47.5 19q21 0 33 -12.5t12 -32.5q0 -28 -19.5 -46.5t-47.5 -18.5q-21 0 -33 12t-12 32z" />
    <glyph glyph-name="Ygrave" unicode="&#x1ef2;" horiz-adv-x="667" 
d="M658 633l-254 -328l-47 -245l71 -7l-11 -53h-251l10 50l77 17l46 236l-138 337l-69 7l11 53h271l-10 -50l-82 -15l86 -220q12 -31 14 -40h4q11 16 29 41l163 224l-70 7l11 53h226l-10 -50zM308 853l78 65l102 -155l-48 -22z" />
    <glyph glyph-name="ygrave" unicode="&#x1ef3;" horiz-adv-x="561" 
d="M-86 -227l16 84q32 -27 95 -27q17 0 32.5 2.5t22.5 5.5l8 2q45 41 112 137l-79 457q-4 22 -14.5 25.5t-71.5 3.5l10 49q48 16 93 16q73 0 80 -61l57 -398q77 115 126 219.5t49 144.5q0 19 -15 25.5t-56 7.5l9 46q53 15 91 15q68 0 68 -62t-71.5 -201.5t-173.5 -272.5
q-96 -126 -164.5 -178t-140.5 -52q-24 0 -44.5 3t-29.5 6zM175 691l77 65l103 -155l-49 -22z" />
    <glyph glyph-name="endash" unicode="&#x2013;" horiz-adv-x="502" 
d="M67 277l13 66h391l-12 -66h-392z" />
    <glyph glyph-name="emdash" unicode="&#x2014;" horiz-adv-x="752" 
d="M67 277l13 66h641l-12 -66h-642z" />
    <glyph glyph-name="quoteleft" unicode="&#x2018;" horiz-adv-x="221" 
d="M268 733l13 -25q-9 -6 -22.5 -16t-37.5 -39t-28 -54q39 -5 39 -47q0 -29 -20.5 -49.5t-51.5 -20.5q-48 0 -48 58q0 35 16 68t39 54.5t46 38t39 24.5z" />
    <glyph glyph-name="quoteright" unicode="&#x2019;" horiz-adv-x="221" 
d="M108 480l-13 25q9 6 22.5 16t37.5 39t28 54q-40 5 -40 47q0 29 21 49t52 20q47 0 47 -58q0 -35 -16 -67.5t-38.5 -54t-45.5 -38.5t-39 -24z" />
    <glyph glyph-name="quotesinglbase" unicode="&#x201a;" horiz-adv-x="221" 
d="M-3 -64l-13 25q9 6 22.5 16t37.5 39t28 54q-40 5 -40 47q0 29 21 49.5t52 20.5q47 0 47 -59q0 -34 -16 -66.5t-38.5 -54.5t-45.5 -38.5t-39 -24.5z" />
    <glyph glyph-name="quotedblleft" unicode="&#x201c;" horiz-adv-x="381" 
d="M268 733l13 -25q-9 -6 -22.5 -16t-37.5 -39t-28 -54q39 -5 39 -47q0 -29 -20.5 -49.5t-51.5 -20.5q-48 0 -48 58q0 35 16 68t39 54.5t46 38t39 24.5zM428 733l13 -25q-9 -6 -22.5 -16t-37.5 -39t-28 -54q39 -5 39 -47q0 -29 -20.5 -49.5t-51.5 -20.5q-48 0 -48 58
q0 35 16 68t39 54.5t46 38t39 24.5z" />
    <glyph glyph-name="quotedblright" unicode="&#x201d;" horiz-adv-x="381" 
d="M108 480l-13 25q9 6 22.5 16t37.5 39t28 54q-40 5 -40 47q0 29 21 49t52 20q47 0 47 -58q0 -35 -16 -67.5t-38.5 -54t-45.5 -38.5t-39 -24zM268 480l-13 25q9 6 22.5 16t37.5 39t28 54q-40 5 -40 47q0 29 21 49t51 20q48 0 48 -58q0 -35 -16 -67.5t-38.5 -54t-45.5 -38.5
t-39 -24z" />
    <glyph glyph-name="quotedblbase" unicode="&#x201e;" horiz-adv-x="381" 
d="M-3 -64l-13 25q9 6 22.5 16t37.5 39t28 54q-40 5 -40 47q0 29 21 49.5t52 20.5q47 0 47 -59q0 -34 -16 -66.5t-38.5 -54.5t-45.5 -38.5t-39 -24.5zM157 -64l-13 25q9 6 22.5 16t37.5 39t28 54q-40 5 -40 47q0 29 21 49.5t52 20.5q47 0 47 -59q0 -34 -16 -66.5
t-38.5 -54.5t-45.5 -38.5t-39 -24.5z" />
    <glyph glyph-name="dagger" unicode="&#x2020;" horiz-adv-x="508" 
d="M303 700h90l-50 -187l185 14l-17 -91l-180 14l-36 -251l-70 -299h-64l44 299l62 251l-185 -14l18 91l180 -14z" />
    <glyph glyph-name="daggerdbl" unicode="&#x2021;" horiz-adv-x="508" 
d="M303 700h90l-49 -187l184 14l-17 -91l-180 14l-14 -144l-42 -147l185 13l-18 -90l-180 13l-24 -195h-90l51 195l-185 -13l17 90l180 -13l15 147l41 144l-185 -14l18 91l180 -14z" />
    <glyph glyph-name="bullet" unicode="&#x2022;" horiz-adv-x="335" 
d="M92 283q0 46 31.5 76t77.5 30q34 0 53.5 -19t19.5 -52q0 -46 -31.5 -77.5t-75.5 -31.5q-34 0 -54.5 20.5t-20.5 53.5z" />
    <glyph glyph-name="ellipsis" unicode="&#x2026;" horiz-adv-x="680" 
d="M16 47q0 34 23.5 56.5t56.5 22.5q25 0 39.5 -15t14.5 -39q0 -34 -23.5 -56.5t-56.5 -22.5q-25 0 -39.5 14.5t-14.5 39.5zM242 47q0 34 23.5 56.5t56.5 22.5q25 0 39.5 -15t14.5 -39q0 -34 -23.5 -56.5t-56.5 -22.5q-25 0 -39.5 14.5t-14.5 39.5zM468 47q0 34 23.5 56.5
t56.5 22.5q25 0 39.5 -15t14.5 -39q0 -34 -23.5 -56.5t-56.5 -22.5q-25 0 -39.5 14.5t-14.5 39.5z" />
    <glyph glyph-name="perthousand" unicode="&#x2030;" horiz-adv-x="1193" 
d="M180 0h-79l599 700h79zM105 489q0 94 57 156t141 62q62 0 97 -37t35 -108q0 -95 -57.5 -157t-140.5 -62q-62 0 -97 37.5t-35 108.5zM185 489q0 -87 67 -87q12 0 25 2.5t19 5.5l7 2q6 6 14.5 18.5t23 51.5t14.5 81q0 85 -65 85q-12 0 -25 -3t-21 -5l-7 -3
q-6 -6 -14.5 -17.5t-23 -50t-14.5 -80.5zM446 140q0 93 57 155t140 62q62 0 97.5 -37.5t35.5 -108.5q0 -93 -57.5 -155.5t-140.5 -62.5q-62 0 -97 38t-35 109zM525 139q0 -87 67 -87q12 0 25 2.5t20 5.5l7 2q6 6 14.5 18.5t23 51.5t14.5 81q0 85 -65 85q-12 0 -25.5 -3
t-20.5 -5l-7 -3q-6 -6 -15 -17.5t-23.5 -50t-14.5 -80.5zM810 140q0 93 57 155t140 62q62 0 97 -37.5t35 -108.5q0 -93 -57.5 -155.5t-139.5 -62.5q-62 0 -97 38t-35 109zM889 139q0 -87 67 -87q12 0 25 2.5t19 5.5l7 2q6 6 14.5 18.5t23 51.5t14.5 81q0 85 -64 85
q-12 0 -25.5 -3t-20.5 -5l-7 -3q-6 -6 -15 -17.5t-23.5 -50t-14.5 -80.5z" />
    <glyph glyph-name="guilsinglleft" unicode="&#x2039;" horiz-adv-x="312" 
d="M209 128l-150 165l3 14l214 165l20 -33l-147 -139l93 -139z" />
    <glyph glyph-name="guilsinglright" unicode="&#x203a;" horiz-adv-x="312" 
d="M136 472l149 -165l-3 -14l-213 -165l-21 33l147 139l-92 139z" />
    <glyph glyph-name="fraction" unicode="&#x2044;" horiz-adv-x="778" 
d="M157 0h-80l587 700h80z" />
    <glyph glyph-name="Euro" unicode="&#x20ac;" horiz-adv-x="651" 
d="M73 397l14 66h63q44 113 137 179.5t216 66.5q49 0 92.5 -10.5t62.5 -21.5l19 -11l-20 -168h-69l-7 113q-36 23 -105 23q-33 0 -64 -7t-45 -14l-14 -7q-50 -53 -87 -143h222l-13 -66h-230q-12 -42 -16 -94h227l-12 -66h-216q9 -172 144 -172q25 0 52.5 5.5t41.5 11.5l15 5
l51 117h70l-46 -171q-90 -42 -192 -42q-110 0 -173.5 62.5t-72.5 183.5h-76l13 66h62q3 52 13 94h-57z" />
    <glyph glyph-name="uni20B4" unicode="&#x20b4;" horiz-adv-x="486" 
d="M38 258l11 60h416l-12 -60h-263q-47 -49 -47 -103q0 -46 28.5 -68.5t76.5 -22.5q32 0 66.5 8t53.5 16l18 9l9 -55q-9 -6 -24 -14.5t-62 -22.5t-92 -14q-83 0 -133.5 41.5t-50.5 113.5q0 60 42 112h-37zM64 395l12 60h266q43 45 43 98q0 83 -97 83q-32 0 -66.5 -8
t-53.5 -16l-18 -9l-9 55q8 6 23.5 14.5t62.5 22.5t93 14q80 0 127.5 -38.5t47.5 -106.5q0 -57 -40 -109h37l-12 -60h-416z" />
    <glyph glyph-name="afii61352" unicode="&#x2116;" horiz-adv-x="1133" 
d="M157 60l74 -7l-9 -53h-232l10 50l79 17l111 573l-75 7l11 53h177l211 -462q9 -18 16 -49l3 1q1 13 7 48l78 402l-75 7l11 53h232l-11 -50l-79 -17l-122 -633h-75l-231 499q-11 24 -15 49l-3 -1l-7 -48zM785 465q0 104 63 172.5t157 68.5q69 0 107.5 -41t38.5 -120
q0 -104 -63 -172.5t-156 -68.5q-70 0 -108.5 41t-38.5 120zM868 458q0 -100 76 -100q14 0 29.5 3t24.5 7l8 3q7 8 17.5 23t27.5 62t17 96q0 100 -75 100q-14 0 -30 -3t-25 -7l-8 -3q-7 -8 -17.5 -23t-27.5 -62t-17 -96z" />
    <glyph glyph-name="trademark" unicode="&#x2122;" horiz-adv-x="966" 
d="M531 338l46 -4l-7 -34h-146l6 31l49 12l91 319l-46 3l7 35h132l49 -250q4 -24 4 -36h2q12 27 18 39l143 247h127l-6 -32l-46 -11l-33 -319l43 -4l-6 -34h-160l6 31l47 12l26 247l3 24h-2q0 -1 -4 -10.5t-6 -13.5l-141 -245h-62l-6 7l-49 238q-3 11 -1 25h-2
q-1 -4 -2.5 -12.5t-2.5 -12.5zM267 338l43 -4l-7 -34h-158l6 31l46 12l60 310h-80l-30 -68h-47l31 115h343l-15 -115h-45l-5 68h-81z" />
    <glyph glyph-name="arrowleft" unicode="&#x2190;" horiz-adv-x="621" 
d="M565 311v-60h-407l115 -129l-28 -34l-201 186v13l201 186l28 -33l-115 -129h407z" />
    <glyph glyph-name="arrowup" unicode="&#x2191;" horiz-adv-x="482" 
d="M271 0h-60v406l-129 -113l-33 27l185 201h13l186 -201l-33 -27l-129 113v-406z" />
    <glyph glyph-name="arrowright" unicode="&#x2192;" horiz-adv-x="621" 
d="M55 236v60h407l-114 129l27 33l202 -186v-13l-202 -186l-27 34l114 129h-407z" />
    <glyph glyph-name="arrowdown" unicode="&#x2193;" horiz-adv-x="482" 
d="M211 521h60v-407l129 114l33 -27l-186 -201h-13l-185 201l33 27l129 -114v407z" />
    <glyph glyph-name="uni2196" unicode="&#x2196;" horiz-adv-x="482" 
d="M447 111l-42 -42l-288 287l-10 -171l-43 -5l-11 274l10 9l274 -11l-5 -42l-172 -12z" />
    <glyph glyph-name="uni2197" unicode="&#x2197;" horiz-adv-x="482" 
d="M76 69l-42 42l287 287l-171 12l-5 42l274 11l9 -9l-11 -274l-42 5l-12 171z" />
    <glyph glyph-name="uni2198" unicode="&#x2198;" horiz-adv-x="482" 
d="M34 421l42 42l287 -287l12 171l42 5l11 -274l-9 -9l-274 11l5 43l171 10z" />
    <glyph glyph-name="uni2199" unicode="&#x2199;" horiz-adv-x="482" 
d="M405 460l42 -42l-287 -288l172 -11l5 -42l-274 -11l-10 9l11 274l43 -5l10 -172z" />
    <glyph glyph-name="minus" unicode="&#x2212;" horiz-adv-x="502" 
d="M82 307v66h383v-66h-383z" />
    <glyph glyph-name="approxequal" unicode="&#x2248;" horiz-adv-x="502" 
d="M80 380v69q43 48 94 48q33 0 97 -28t98 -28q48 0 94 50v-70q-43 -49 -93 -49q-34 0 -97.5 28.5t-97.5 28.5q-47 0 -95 -49zM370 181q-34 0 -97.5 28.5t-97.5 28.5q-47 0 -95 -49v69q44 48 94 48q33 0 96.5 -28t98.5 -28q49 0 94 49v-69q-42 -49 -93 -49z" />
    <glyph glyph-name="notequal" unicode="&#x2260;" horiz-adv-x="502" 
d="M463 211h-211l-49 -114h-69l48 114h-102v66h130l53 126h-183v65h211l49 115h69l-48 -115h102v-65h-130l-54 -126h184v-66z" />
    <glyph glyph-name="lessequal" unicode="&#x2264;" horiz-adv-x="502" 
d="M73 447l383 165v-73l-287 -125l287 -125v-73l-383 165v66zM456 102h-383v66h383v-66z" />
    <glyph glyph-name="greaterequal" unicode="&#x2265;" horiz-adv-x="502" 
d="M463 447v-66l-383 -165v73l287 125l-287 125v73zM463 102h-383v66h383v-66z" />
    <glyph glyph-name="commaaccent" unicode="&#xf6c3;" horiz-adv-x="229" 
d="M-37 -258l-11 20q8 5 19.5 13.5t32.5 33.5t25 47q-34 3 -34 38q0 25 17.5 41.5t42.5 16.5q39 0 39 -45q0 -31 -13.5 -59t-32.5 -46.5t-38.5 -32.5t-33.5 -21z" />
    <glyph glyph-name="zerooldstyle" unicode="&#xf730;" horiz-adv-x="581" 
d="M50 232q0 161 89.5 269t217.5 108q91 0 143.5 -61.5t52.5 -179.5q0 -160 -89.5 -268.5t-216.5 -108.5q-91 0 -144 62t-53 179zM158 216q0 -151 103 -151q20 0 41 5.5t32 11.5l11 5q4 5 11 14t24 39t30 62.5t24 82t11 99.5q0 150 -101 150q-20 0 -42 -5.5t-34 -10.5
l-11 -6q-4 -5 -10.5 -14t-24 -39.5t-30.5 -63t-23.5 -81.5t-10.5 -98z" />
    <glyph glyph-name="oneoldstyle" unicode="&#xf731;" horiz-adv-x="439" 
d="M108 501l10 53q122 16 227 54l8 -10l-104 -532l105 -7l-11 -59h-323l11 59l118 17l83 425h-124z" />
    <glyph glyph-name="twooldstyle" unicode="&#xf732;" horiz-adv-x="549" 
d="M531 485q0 -43 -23 -81.5t-68 -75.5t-93 -70t-116.5 -82.5t-121.5 -95.5h257l47 103h70l-49 -183h-436l16 80q67 63 151.5 126.5t132.5 97t82.5 76t34.5 86.5q0 34 -22 51.5t-76 17.5q-33 0 -61.5 -6.5t-40.5 -12.5l-12 -7l-50 -107h-69l45 161q8 5 23 12.5t68.5 20.5
t114.5 13q196 0 196 -124z" />
    <glyph glyph-name="threeoldstyle" unicode="&#xf733;" horiz-adv-x="545" 
d="M468 137q0 -113 -84 -179.5t-217 -66.5q-55 0 -101 12t-64 24l-19 12l30 59q54 -35 157 -35q29 0 59 3.5t45 7.5l15 4q3 2 7.5 6.5t16 19t20.5 31.5t16 45t7 58q0 57 -26 82.5t-84 25.5h-43l-8 10l11 56q21 5 74.5 60t96.5 108l43 52h-208l-50 -112h-69l48 180h396
l-13 -68q-119 -142 -216 -223l-1 -4q161 -26 161 -168z" />
    <glyph glyph-name="fouroldstyle" unicode="&#xf734;" horiz-adv-x="585" 
d="M521 600l-85 -436h88l-14 -77h-87l-37 -193h-102l37 192h-313l8 42l396 472h109zM128 166h212l64 330z" />
    <glyph glyph-name="fiveoldstyle" unicode="&#xf735;" horiz-adv-x="523" 
d="M454 142q0 -117 -80 -184t-217 -67q-57 0 -103 12t-64 24l-18 12l31 59q52 -35 151 -35q28 0 57.5 3.5t44.5 7.5l16 3q8 7 19 19.5t30 53.5t19 85q0 68 -46.5 98.5t-151.5 30.5h-59l-8 10l102 326h337l-15 -80h-268l-60 -187q142 -3 212.5 -44t70.5 -147z" />
    <glyph glyph-name="sixoldstyle" unicode="&#xf736;" horiz-adv-x="567" 
d="M546 654l-29 -55q-50 18 -123 18q-38 0 -68.5 -6.5t-41.5 -12.5l-11 -6q-7 -10 -18.5 -27.5t-38 -74.5t-41.5 -115q69 43 165 43q84 0 131 -40.5t47 -125.5q0 -110 -75 -185.5t-195 -75.5q-100 0 -148 61.5t-48 192.5q0 85 20 162t59.5 141.5t107 102.5t154.5 38
q42 0 80.5 -8.5t55.5 -17.5zM308 347q-74 0 -145 -31q-7 -42 -7 -95q0 -82 25.5 -120t84.5 -38q19 0 39 3.5t31 7.5l10 4q7 7 18 20.5t29 57t18 90.5q0 54 -24.5 77.5t-78.5 23.5z" />
    <glyph glyph-name="sevenoldstyle" unicode="&#xf737;" horiz-adv-x="528" 
d="M211 -100h-114q27 77 73 166.5t84.5 152.5t101.5 163t93 150h-253l-49 -112h-69l48 180h431l-8 -42q-25 -45 -113 -196.5t-139.5 -255t-85.5 -206.5z" />
    <glyph glyph-name="eightoldstyle" unicode="&#xf738;" horiz-adv-x="565" 
d="M29 128q0 130 164 209q-77 46 -77 137q0 89 63 152t192 63q177 0 177 -130q0 -40 -16 -75.5t-42 -60.5t-47.5 -39.5t-44.5 -26.5q49 -23 76.5 -57t27.5 -92q0 -93 -70.5 -155.5t-207.5 -62.5q-195 0 -195 138zM400 191q0 15 -3.5 28t-12.5 23t-16 17t-24 14.5t-25.5 11.5
t-31 12t-31.5 11l-7 2q-118 -67 -118 -155t120 -88q27 0 54 4.5t41 9.5l13 5q41 49 41 105zM219 497q0 -25 8.5 -43t29.5 -32t35 -20.5t47 -19.5q113 67 113 154q0 79 -101 79q-25 0 -49 -4.5t-36 -9.5l-11 -5q-36 -45 -36 -99z" />
    <glyph glyph-name="nineoldstyle" unicode="&#xf739;" horiz-adv-x="566" 
d="M15 -69l30 60q45 -28 136 -28q38 0 69.5 6.5t43.5 12.5l13 7q8 11 21 30.5t41.5 82t44.5 126.5q-66 -43 -166 -43q-176 0 -176 164q0 109 74.5 184.5t194.5 75.5q100 0 147.5 -62t47.5 -196q0 -71 -12 -135.5t-40 -124.5t-69 -104t-102.5 -70t-137.5 -26q-48 0 -88 10
t-56 20zM281 256q71 0 144 30q7 51 7 93q0 82 -24.5 120.5t-83.5 38.5q-20 0 -40 -4t-30 -8l-10 -4q-7 -7 -18 -20t-29 -56.5t-18 -90.5q0 -53 24 -76t78 -23z" />
    <glyph glyph-name="A.smcp" horiz-adv-x="625" 
d="M324 560h93l9 -11l89 -495l59 -7l-9 -47h-235l9 43l65 17l-19 102h-211l-62 -108l61 -7l-10 -47h-198l9 45l60 15zM313 410l-104 -183h168l-31 183q-2 7 -4 56h-4q-16 -39 -25 -56z" />
    <glyph glyph-name="Aacute.smcp" horiz-adv-x="625" 
d="M324 560h93l9 -11l89 -495l59 -7l-9 -47h-235l9 43l65 17l-19 102h-211l-62 -108l61 -7l-10 -47h-198l9 45l60 15zM313 410l-104 -183h168l-31 183q-2 7 -4 56h-4q-16 -39 -25 -56zM323 611l140 129l47 -59l-149 -89z" />
    <glyph glyph-name="Abreve.smcp" horiz-adv-x="625" 
d="M324 560h93l9 -11l89 -495l59 -7l-9 -47h-235l9 43l65 17l-19 102h-211l-62 -108l61 -7l-10 -47h-198l9 45l60 15zM313 410l-104 -183h168l-31 183q-2 7 -4 56h-4q-16 -39 -25 -56zM487 703l29 -12q-2 -4 -5 -9.5t-14.5 -21t-25.5 -27t-38 -21t-51 -9.5t-47.5 9t-30 21.5
t-16 24.5t-7.5 21l-1 9l51 16q0 -2 1 -5t6.5 -11.5t12.5 -15t20.5 -11.5t30.5 -5q26 0 47.5 12t29.5 24z" />
    <glyph glyph-name="Acircumflex.smcp" horiz-adv-x="625" 
d="M324 560h93l9 -11l89 -495l59 -7l-9 -47h-235l9 43l65 17l-19 102h-211l-62 -108l61 -7l-10 -47h-198l9 45l60 15zM313 410l-104 -183h168l-31 183q-2 7 -4 56h-4q-16 -39 -25 -56zM260 611l141 123h12l94 -123l-44 -19l-72 63l-95 -63z" />
    <glyph glyph-name="Agrave.smcp" horiz-adv-x="625" 
d="M324 560h93l9 -11l89 -495l59 -7l-9 -47h-235l9 43l65 17l-19 102h-211l-62 -108l61 -7l-10 -47h-198l9 45l60 15zM313 410l-104 -183h168l-31 183q-2 7 -4 56h-4q-16 -39 -25 -56zM273 681l71 59l88 -129l-44 -19z" />
    <glyph glyph-name="Adieresis.smcp" horiz-adv-x="625" 
d="M324 560h93l9 -11l89 -495l59 -7l-9 -47h-235l9 43l65 17l-19 102h-211l-62 -108l61 -7l-10 -47h-198l9 45l60 15zM313 410l-104 -183h168l-31 183q-2 7 -4 56h-4q-16 -39 -25 -56zM260 653q0 25 17 41t42 16q19 0 30 -10.5t11 -28.5q0 -25 -17 -41t-43 -16q-18 0 -29 11
t-11 28zM426 654q0 24 17 40t42 16q19 0 30 -10.5t11 -28.5q0 -25 -17 -41t-42 -16q-19 0 -30 11t-11 29z" />
    <glyph glyph-name="Amacron.smcp" horiz-adv-x="625" 
d="M324 560h93l9 -11l89 -495l59 -7l-9 -47h-235l9 43l65 17l-19 102h-211l-62 -108l61 -7l-10 -47h-198l9 45l60 15zM313 410l-104 -183h168l-31 183q-2 7 -4 56h-4q-16 -39 -25 -56zM264 617l12 59h240l-12 -59h-240z" />
    <glyph glyph-name="Aogonek.smcp" horiz-adv-x="625" 
d="M465 -96q0 -27 31 -27q9 0 19.5 2t16.5 4l6 2l2 -25q-26 -22 -74 -22q-32 0 -49 14t-17 38q0 30 21 57.5t41 40.5l21 12h-153l9 43l65 17l-19 102h-211l-62 -108l61 -7l-10 -47h-198l9 45l60 15l290 500h93l9 -11l89 -495l59 -7l-9 -47h-40q-7 -5 -17 -14t-26.5 -34
t-16.5 -48zM313 410l-104 -183h168l-31 183q-2 7 -4 56h-4q-16 -39 -25 -56z" />
    <glyph glyph-name="Aring.smcp" horiz-adv-x="625" 
d="M324 560h93l9 -11l89 -495l59 -7l-9 -47h-235l9 43l65 17l-19 102h-211l-62 -108l61 -7l-10 -47h-198l9 45l60 15zM313 410l-104 -183h168l-31 183q-2 7 -4 56h-4q-16 -39 -25 -56zM315 652q0 37 25.5 60t65.5 23q31 0 48.5 -16t17.5 -42q0 -36 -26.5 -59t-66.5 -23
q-30 0 -47 15t-17 42zM360 658q0 -25 29 -25l25 4q11 15 11 34q0 25 -27 25l-26 -4q-12 -13 -12 -34z" />
    <glyph glyph-name="Atilde.smcp" horiz-adv-x="625" 
d="M324 560h93l9 -11l89 -495l59 -7l-9 -47h-235l9 43l65 17l-19 102h-211l-62 -108l61 -7l-10 -47h-198l9 45l60 15zM313 410l-104 -183h168l-31 183q-2 7 -4 56h-4q-16 -39 -25 -56zM264 612l-18 24q7 8 18.5 19t42.5 30t58 19q21 0 51 -15.5t50 -15.5l56 33l17 -25
q-7 -8 -18 -19t-42 -29.5t-57 -18.5q-21 0 -52 15.5t-50 15.5z" />
    <glyph glyph-name="AE.smcp" horiz-adv-x="723" 
d="M623 0h-362l9 43l63 17l4 102h-157l-68 -108l61 -7l-10 -47h-198l9 45l60 15l307 500h380l-18 -147h-63l-8 83h-182l-7 -180h70l25 64h50l-37 -192h-50l-1 64h-61l-6 -188h126l40 86h64zM327 410l-113 -183h132l13 242h-4q-11 -31 -28 -59z" />
    <glyph glyph-name="AEacute.smcp" horiz-adv-x="723" 
d="M623 0h-362l9 43l63 17l4 102h-157l-68 -108l61 -7l-10 -47h-198l9 45l60 15l307 500h380l-18 -147h-63l-8 83h-182l-7 -180h70l25 64h50l-37 -192h-50l-1 64h-61l-6 -188h126l40 86h64zM327 410l-113 -183h132l13 242h-4q-11 -31 -28 -59zM361 611l140 129l47 -59
l-149 -89z" />
    <glyph glyph-name="B.smcp" horiz-adv-x="549" 
d="M255 0h-260l9 45l63 15l87 447l-59 6l9 47h241q79 0 128 -33.5t49 -94.5q0 -44 -29.5 -82t-75.5 -58q-8 -2 -14 -2v-3q6 0 12 -2q74 -28 74 -111q0 -78 -66 -126t-168 -48zM282 253h-80l-36 -188h85q20 0 40.5 2.5t30.5 4.5l11 2q2 1 5.5 4t13 12t16.5 20t12.5 29t5.5 37
q0 77 -104 77zM311 496h-62l-34 -178h67q20 0 40.5 2t30.5 4l10 1q2 1 5.5 3.5t12.5 11.5t16 19t12.5 27t5.5 35q0 75 -104 75z" />
    <glyph glyph-name="C.smcp" horiz-adv-x="518" 
d="M439 395l-8 87q-30 19 -87 19q-28 0 -53 -5.5t-37 -11.5l-11 -5q-4 -4 -10.5 -12t-23.5 -35.5t-30 -56.5t-23.5 -75t-10.5 -92q0 -149 119 -149q20 0 42.5 4t34.5 8l12 4l43 92h63l-39 -141q-77 -33 -163 -33q-100 0 -156.5 58.5t-56.5 173.5q0 149 90 245.5t234 96.5
q41 0 78.5 -8.5t54.5 -16.5l17 -8l-16 -139h-63z" />
    <glyph glyph-name="Cacute.smcp" horiz-adv-x="518" 
d="M439 395l-8 87q-30 19 -87 19q-28 0 -53 -5.5t-37 -11.5l-11 -5q-4 -4 -10.5 -12t-23.5 -35.5t-30 -56.5t-23.5 -75t-10.5 -92q0 -149 119 -149q20 0 42.5 4t34.5 8l12 4l43 92h63l-39 -141q-77 -33 -163 -33q-100 0 -156.5 58.5t-56.5 173.5q0 149 90 245.5t234 96.5
q41 0 78.5 -8.5t54.5 -16.5l17 -8l-16 -139h-63zM308 611l140 129l47 -59l-149 -89z" />
    <glyph glyph-name="Ccaron.smcp" horiz-adv-x="518" 
d="M439 395l-8 87q-30 19 -87 19q-28 0 -53 -5.5t-37 -11.5l-11 -5q-4 -4 -10.5 -12t-23.5 -35.5t-30 -56.5t-23.5 -75t-10.5 -92q0 -149 119 -149q20 0 42.5 4t34.5 8l12 4l43 92h63l-39 -141q-77 -33 -163 -33q-100 0 -156.5 58.5t-56.5 173.5q0 149 90 245.5t234 96.5
q41 0 78.5 -8.5t54.5 -16.5l17 -8l-16 -139h-63zM356 592l-90 117l38 27l73 -65l99 65l27 -27l-135 -117h-12z" />
    <glyph glyph-name="Ccedilla.smcp" horiz-adv-x="518" 
d="M202 -70l21 65q-85 9 -132 67t-47 163q0 149 90 245.5t234 96.5q41 0 78.5 -8.5t54.5 -16.5l17 -8l-16 -139h-63l-8 87q-30 19 -87 19q-28 0 -53 -5.5t-37 -11.5l-11 -5q-4 -4 -10.5 -12t-23.5 -35.5t-30 -56.5t-23.5 -75t-10.5 -92q0 -149 119 -149q20 0 42.5 4t34.5 8
l12 4l43 92h63l-39 -141q-73 -31 -155 -33l-15 -43q2 0 5.5 -0.5t13 -3t16.5 -7t12.5 -14t5.5 -22.5q0 -30 -30 -49t-79 -19q-16 0 -29.5 2t-19.5 4l-6 2l18 43q13 -12 44 -12l29 4q8 12 8 24q0 11 -9 18t-18 8z" />
    <glyph glyph-name="Ccircumflex.smcp" horiz-adv-x="518" 
d="M439 395l-8 87q-30 19 -87 19q-28 0 -53 -5.5t-37 -11.5l-11 -5q-4 -4 -10.5 -12t-23.5 -35.5t-30 -56.5t-23.5 -75t-10.5 -92q0 -149 119 -149q20 0 42.5 4t34.5 8l12 4l43 92h63l-39 -141q-77 -33 -163 -33q-100 0 -156.5 58.5t-56.5 173.5q0 149 90 245.5t234 96.5
q41 0 78.5 -8.5t54.5 -16.5l17 -8l-16 -139h-63zM245 611l142 123h11l95 -123l-44 -19l-72 63l-95 -63z" />
    <glyph glyph-name="Cdotaccent.smcp" horiz-adv-x="518" 
d="M439 395l-8 87q-30 19 -87 19q-28 0 -53 -5.5t-37 -11.5l-11 -5q-4 -4 -10.5 -12t-23.5 -35.5t-30 -56.5t-23.5 -75t-10.5 -92q0 -149 119 -149q20 0 42.5 4t34.5 8l12 4l43 92h63l-39 -141q-77 -33 -163 -33q-100 0 -156.5 58.5t-56.5 173.5q0 149 90 245.5t234 96.5
q41 0 78.5 -8.5t54.5 -16.5l17 -8l-16 -139h-63zM309 654q0 30 22.5 50t52.5 20q24 0 38 -13.5t14 -36.5q0 -30 -21.5 -50.5t-52.5 -20.5q-25 0 -39 14t-14 37z" />
    <glyph glyph-name="D.smcp" horiz-adv-x="581" 
d="M244 0h-249l9 45l63 15l87 446l-59 7l9 47h249q91 0 144.5 -57.5t53.5 -168.5q0 -144 -88 -239t-219 -95zM332 496h-83l-84 -432h88q24 0 47.5 4t34.5 8l11 5l11 11q7 7 25 32t31.5 53.5t24.5 74.5t11 96q0 148 -117 148z" />
    <glyph glyph-name="Dcaron.smcp" horiz-adv-x="581" 
d="M244 0h-249l9 45l63 15l87 446l-59 7l9 47h249q91 0 144.5 -57.5t53.5 -168.5q0 -144 -88 -239t-219 -95zM332 496h-83l-84 -432h88q24 0 47.5 4t34.5 8l11 5l11 11q7 7 25 32t31.5 53.5t24.5 74.5t11 96q0 148 -117 148zM334 592l-90 117l38 27l73 -65l99 65l27 -27
l-135 -117h-12z" />
    <glyph glyph-name="Dcroat.smcp" horiz-adv-x="583" 
d="M46 253l10 53l64 12l36 188l-59 7l9 47h249q90 0 144 -57.5t54 -168.5q0 -144 -88 -239t-219 -95h-249l9 45l63 15l38 193h-61zM334 496h-83l-34 -178h114l-13 -65h-114l-37 -189h88q24 0 47 4t34 8l11 5l11 11q7 7 25 32t32 53.5t25 74.5t11 96q0 148 -117 148z" />
    <glyph glyph-name="Eth.smcp" horiz-adv-x="583" 
d="M46 253l10 53l64 12l36 188l-59 7l9 47h249q90 0 144 -57.5t54 -168.5q0 -144 -88 -239t-219 -95h-249l9 45l63 15l38 193h-61zM334 496h-83l-34 -178h114l-13 -65h-114l-37 -189h88q24 0 47 4t34 8l11 5l11 11q7 7 25 32t32 53.5t25 74.5t11 96q0 148 -117 148z" />
    <glyph glyph-name="Thorn.smcp" horiz-adv-x="539" 
d="M164 55l70 -4l-10 -51h-229l9 45l63 15l87 446l-59 7l9 47h219l-9 -45l-64 -15l-10 -53h88q78 0 126.5 -35.5t48.5 -102.5q0 -80 -67 -130t-169 -50h-89zM295 383h-67l-37 -189h72q19 0 39 2t30 4l10 2q6 4 15.5 11.5t25 34.5t15.5 58q0 77 -103 77z" />
    <glyph glyph-name="E.smcp" horiz-adv-x="526" 
d="M426 0h-431l9 45l63 15l87 446l-59 7l9 47h420l-17 -147h-64l-7 83h-187l-34 -180h94l25 64h52l-38 -192h-52v64h-95l-36 -188h197l40 86h64z" />
    <glyph glyph-name="Eacute.smcp" horiz-adv-x="526" 
d="M426 0h-431l9 45l63 15l87 446l-59 7l9 47h420l-17 -147h-64l-7 83h-187l-34 -180h94l25 64h52l-38 -192h-52v64h-95l-36 -188h197l40 86h64zM274 611l139 129l47 -59l-148 -89z" />
    <glyph glyph-name="Ebreve.smcp" horiz-adv-x="526" 
d="M426 0h-431l9 45l63 15l87 446l-59 7l9 47h420l-17 -147h-64l-7 83h-187l-34 -180h94l25 64h52l-38 -192h-52v64h-95l-36 -188h197l40 86h64zM447 703l29 -12q-2 -4 -5 -9.5t-14.5 -21t-25.5 -27t-38.5 -21t-51.5 -9.5q-43 0 -68 21.5t-29 42.5l-4 21l50 16q0 -2 1.5 -5
t6.5 -11.5t12 -15t20.5 -11.5t30.5 -5q27 0 48.5 12t29.5 24z" />
    <glyph glyph-name="Ecaron.smcp" horiz-adv-x="526" 
d="M426 0h-431l9 45l63 15l87 446l-59 7l9 47h420l-17 -147h-64l-7 83h-187l-34 -180h94l25 64h52l-38 -192h-52v64h-95l-36 -188h197l40 86h64zM332 592l-90 117l38 27l72 -65l100 65l26 -27l-135 -117h-11z" />
    <glyph glyph-name="Ecircumflex.smcp" horiz-adv-x="526" 
d="M426 0h-431l9 45l63 15l87 446l-59 7l9 47h420l-17 -147h-64l-7 83h-187l-34 -180h94l25 64h52l-38 -192h-52v64h-95l-36 -188h197l40 86h64zM210 611l142 123h12l94 -123l-45 -19l-71 63l-95 -63z" />
    <glyph glyph-name="Edieresis.smcp" horiz-adv-x="526" 
d="M426 0h-431l9 45l63 15l87 446l-59 7l9 47h420l-17 -147h-64l-7 83h-187l-34 -180h94l25 64h52l-38 -192h-52v64h-95l-36 -188h197l40 86h64zM213 654q0 24 17.5 40t41.5 16q19 0 30.5 -10.5t11.5 -28.5q0 -25 -17 -41t-43 -16q-19 0 -30 11t-11 29zM380 653
q0 25 16.5 41t42.5 16q19 0 30 -10.5t11 -28.5q0 -25 -17 -41t-43 -16q-18 0 -29 11t-11 28z" />
    <glyph glyph-name="Edotaccent.smcp" horiz-adv-x="526" 
d="M426 0h-431l9 45l63 15l87 446l-59 7l9 47h420l-17 -147h-64l-7 83h-187l-34 -180h94l25 64h52l-38 -192h-52v64h-95l-36 -188h197l40 86h64zM288 653q0 30 22 50t55 20q23 0 37.5 -13.5t14.5 -35.5q0 -31 -22 -51.5t-54 -20.5q-24 0 -38.5 14t-14.5 37z" />
    <glyph glyph-name="Egrave.smcp" horiz-adv-x="526" 
d="M426 0h-431l9 45l63 15l87 446l-59 7l9 47h420l-17 -147h-64l-7 83h-187l-34 -180h94l25 64h52l-38 -192h-52v64h-95l-36 -188h197l40 86h64zM229 681l71 59l88 -129l-44 -19z" />
    <glyph glyph-name="Emacron.smcp" horiz-adv-x="526" 
d="M426 0h-431l9 45l63 15l87 446l-59 7l9 47h420l-17 -147h-64l-7 83h-187l-34 -180h94l25 64h52l-38 -192h-52v64h-95l-36 -188h197l40 86h64zM223 617l12 59h239l-12 -59h-239z" />
    <glyph glyph-name="Eogonek.smcp" horiz-adv-x="526" 
d="M335 -96q0 -27 31 -27q9 0 19.5 2t16.5 4l6 2l2 -25q-27 -22 -74 -22q-65 0 -65 52q0 30 20.5 57.5t40.5 40.5l21 12h-358l9 45l63 15l87 446l-59 7l9 47h420l-17 -147h-64l-7 83h-187l-34 -180h94l25 64h52l-38 -192h-52v64h-95l-36 -188h197l40 86h64l-40 -150h-31
q-7 -5 -17 -14t-26.5 -34t-16.5 -48z" />
    <glyph glyph-name="F.smcp" horiz-adv-x="503" 
d="M224 0h-229l9 45l63 15l87 446l-59 7l9 47h415l-18 -150h-63l-7 86h-182l-36 -186h93l24 64h53l-37 -192h-53v64h-92l-37 -191l70 -4z" />
    <glyph glyph-name="G.smcp" horiz-adv-x="549" 
d="M468 234l-40 -206q-74 -35 -167 -35q-104 0 -161 58.5t-57 173.5q0 149 90 245.5t235 96.5q41 0 78.5 -8.5t53.5 -16.5l17 -8l-15 -139h-64l-8 87q-29 19 -86 19q-28 0 -53 -5.5t-37 -11.5l-11 -5q-4 -4 -10.5 -12.5t-23.5 -35.5t-30 -56.5t-23.5 -75.5t-10.5 -92
q0 -149 120 -149q47 0 87 17l32 165l-71 7l9 47h216l-9 -45z" />
    <glyph glyph-name="Gbreve.smcp" horiz-adv-x="549" 
d="M468 234l-40 -206q-74 -35 -167 -35q-104 0 -161 58.5t-57 173.5q0 149 90 245.5t235 96.5q41 0 78.5 -8.5t53.5 -16.5l17 -8l-15 -139h-64l-8 87q-29 19 -86 19q-28 0 -53 -5.5t-37 -11.5l-11 -5q-4 -4 -10.5 -12.5t-23.5 -35.5t-30 -56.5t-23.5 -75.5t-10.5 -92
q0 -149 120 -149q47 0 87 17l32 165l-71 7l9 47h216l-9 -45zM465 703l28 -12q-1 -4 -4 -9.5t-14.5 -21t-25.5 -27t-38.5 -21t-51.5 -9.5t-47.5 9t-30 21.5t-16 24.5t-7.5 21l-1 9l52 16q0 -2 1 -5t6 -11.5t12 -15t20 -11.5t30 -5q27 0 48.5 12t29.5 24z" />
    <glyph glyph-name="Gcircumflex.smcp" horiz-adv-x="549" 
d="M468 234l-40 -206q-74 -35 -167 -35q-104 0 -161 58.5t-57 173.5q0 149 90 245.5t235 96.5q41 0 78.5 -8.5t53.5 -16.5l17 -8l-15 -139h-64l-8 87q-29 19 -86 19q-28 0 -53 -5.5t-37 -11.5l-11 -5q-4 -4 -10.5 -12.5t-23.5 -35.5t-30 -56.5t-23.5 -75.5t-10.5 -92
q0 -149 120 -149q47 0 87 17l32 165l-71 7l9 47h216l-9 -45zM244 611l141 123h12l95 -123l-45 -19l-70 63l-96 -63z" />
    <glyph glyph-name="Gcommaaccent.smcp" horiz-adv-x="549" 
d="M468 234l-40 -206q-74 -35 -167 -35q-104 0 -161 58.5t-57 173.5q0 149 90 245.5t235 96.5q41 0 78.5 -8.5t53.5 -16.5l17 -8l-15 -139h-64l-8 87q-29 19 -86 19q-28 0 -53 -5.5t-37 -11.5l-11 -5q-4 -4 -10.5 -12.5t-23.5 -35.5t-30 -56.5t-23.5 -75.5t-10.5 -92
q0 -149 120 -149q47 0 87 17l32 165l-71 7l9 47h216l-9 -45zM175 -207l-9 17q6 4 16 11t27 27t20 37q-29 2 -29 33q0 20 15 34t37 14q34 0 34 -41q0 -38 -28 -71t-56 -47z" />
    <glyph glyph-name="Gdotaccent.smcp" horiz-adv-x="549" 
d="M468 234l-40 -206q-74 -35 -167 -35q-104 0 -161 58.5t-57 173.5q0 149 90 245.5t235 96.5q41 0 78.5 -8.5t53.5 -16.5l17 -8l-15 -139h-64l-8 87q-29 19 -86 19q-28 0 -53 -5.5t-37 -11.5l-11 -5q-4 -4 -10.5 -12.5t-23.5 -35.5t-30 -56.5t-23.5 -75.5t-10.5 -92
q0 -149 120 -149q47 0 87 17l32 165l-71 7l9 47h216l-9 -45zM312 653q0 30 22 50t53 20q25 0 39 -13t14 -36q0 -30 -22.5 -51t-52.5 -21q-24 0 -38.5 14t-14.5 37z" />
    </font>
</defs>
</svg>
