<?xml version="1.0" standalone="no"?>
<!DOCTYPE svg PUBLIC "-//W3C//DTD SVG 1.1//EN" "http://www.w3.org/Graphics/SVG/1.1/DTD/svg11.dtd" >
<svg xmlns="http://www.w3.org/2000/svg" xmlns:xlink="http://www.w3.org/1999/xlink" version="1.1">
<metadata>
Created by FontForge 20161013 at Fri Mar  6 19:05:54 2015
 By ,,,
Copyright (c) 2015 by Andriy Konstantynov. All rights reserved.
</metadata>
<defs>
<font id="DiariaPro-ExtraBold" horiz-adv-x="570" >
  <font-face 
    font-family="DiariaPro-ExtraBold"
    font-weight="400"
    font-stretch="normal"
    units-per-em="1000"
    panose-1="2 13 0 3 3 2 0 0 0 0"
    ascent="761"
    descent="-239"
    x-height="529"
    cap-height="700"
    bbox="-155 -262 1271 982"
    underline-thickness="50"
    underline-position="-150"
    unicode-range="U+0020-FB04"
  />
<missing-glyph horiz-adv-x="241" 
 />
    <glyph glyph-name="ff" unicode="ff" horiz-adv-x="724" 
d="M420 92v331h-180v-339l83 -5v-79h-294v68l52 24v331h-52v87l52 19v17q0 97 55 151.5t162 54.5q104 0 166 -50q54 60 177 60q41 0 79.5 -6t56.5 -12l18 -7v-155h-117l-16 69q-7 5 -27 5q-16 0 -28.5 -4t-16.5 -8l-5 -3q-6 -26 -6 -88v-24h124v-106h-124v-339l82 -5v-79
h-294v68zM240 537v-8h180v33q0 36 6 64q-51 20 -109 20q-23 0 -40 -4t-23 -8l-5 -3q-9 -31 -9 -94z" />
    <glyph glyph-name="fi" unicode="fi" horiz-adv-x="631" 
d="M240 423v-339l83 -5v-79h-294v68l52 24v331h-52v87l52 19v8q0 103 76.5 164t207.5 61q89 0 140.5 -28.5t51.5 -76.5q0 -19 -8.5 -37.5t-16.5 -27.5l-8 -10h-121l-13 73q-15 11 -52 11q-26 0 -46 -6t-27 -12l-7 -6q-18 -42 -18 -105v-8h105l206 11l13 -14v-444l52 -9v-73
h-264v68l53 24v331h-165z" />
    <glyph glyph-name="fl" unicode="fl" horiz-adv-x="645" 
d="M29 413v87l52 20v41q0 201 225 201q65 0 120 -16l139 15l14 -14v-665l52 -9v-73h-264v77l53 25v541l-6 3q-18 10 -73 10q-30 0 -52 -4t-29 -8l-7 -3q-13 -27 -13 -89v-32h126v-107h-126v-329l83 -5v-79h-294v68l52 24v321h-52z" />
    <glyph glyph-name="ffi" unicode="ffi" horiz-adv-x="968" 
d="M420 92v331h-180v-339l83 -5v-79h-294v68l52 24v331h-52v87l52 19v16q0 98 55 152.5t162 54.5q54 0 99.5 -15.5t61.5 -27.5t23 -20q78 73 221 73q89 0 140.5 -28.5t51.5 -76.5q0 -19 -8 -37.5t-16 -27.5l-8 -10h-122l-13 73q-15 11 -53 11q-25 0 -45 -6t-27 -12l-7 -6
q-17 -42 -17 -105v-8h105l204 11l14 -14v-444l52 -9v-73h-264v68l52 24v331h-163v-339l82 -5v-79h-294v68zM240 536v-7h180v8q0 48 16 86q-54 23 -119 23q-23 0 -40 -4t-23 -8l-5 -3q-9 -32 -9 -95z" />
    <glyph glyph-name="ffl" unicode="ffl" horiz-adv-x="983" 
d="M420 92v331h-180v-339l83 -5v-79h-294v68l52 24v331h-52v87l52 19v17q0 97 55 151.5t162 54.5t167 -51q55 61 179 61q64 0 119 -16l140 15l13 -14v-665l52 -9v-73h-263v77l52 25v541l-6 3q-20 10 -71 10q-31 0 -53.5 -4t-29.5 -8l-7 -3q-11 -27 -11 -89v-23h125v-106
h-125v-339l82 -5v-79h-294v68zM240 537v-8h180v32q0 37 7 65q-60 20 -110 20q-23 0 -40 -4t-23 -8l-5 -3q-9 -31 -9 -94z" />
    <glyph glyph-name="f_f_j" unicode="ffj" horiz-adv-x="968" 
d="M420 92v331h-180v-339l83 -5v-79h-294v68l52 24v331h-52v87l52 19v16q0 98 55 152.5t162 54.5q54 0 99.5 -15.5t61.5 -27.5t23 -20q78 73 221 73q89 0 140.5 -28.5t51.5 -76.5q0 -19 -8 -37.5t-16 -27.5l-8 -10h-122l-13 73q-15 11 -53 11q-25 0 -45 -6t-27 -12l-7 -6
q-17 -42 -17 -105v-8h105l204 11l14 -14v-526q0 -130 -51.5 -186t-159.5 -56q-26 0 -51 3t-38 5l-12 3l17 117q37 -23 82 -23l35 4q18 29 18 133v423h-163v-339l82 -5v-79h-294v68zM240 536v-7h180v8q0 48 16 86q-54 23 -119 23q-23 0 -40 -4t-23 -8l-5 -3q-9 -32 -9 -95z
" />
    <glyph glyph-name="f_j" unicode="fj" horiz-adv-x="631" 
d="M240 423v-339l83 -5v-79h-294v68l52 24v331h-52v87l52 19v8q0 103 76.5 164t207.5 61q89 0 140.5 -28.5t51.5 -76.5q0 -19 -8.5 -37.5t-16.5 -27.5l-8 -10h-121l-13 73q-15 11 -52 11q-26 0 -46 -6t-27 -12l-7 -6q-18 -42 -18 -105v-8h105l206 11l13 -14v-526
q0 -130 -51.5 -186t-159.5 -56q-26 0 -51 3t-38 5l-12 3l17 117q38 -23 83 -23l34 4q19 29 19 133v423h-165z" />
    <glyph glyph-name="afii10104_afii10104" unicode="&#x457;&#x457;" horiz-adv-x="606" 
d="M-28 666q0 33 20 53t52 20t52.5 -20t20.5 -53q0 -32 -20.5 -52t-52.5 -20t-52 20t-20 52zM226 666q0 33 20 53t52 20t52.5 -20t20.5 -53q0 -32 -20.5 -52t-52.5 -20t-52 20t-20 52zM24 452v68l198 20l14 -14v-444l53 -9v-73h-265v68l52 24v330zM480 666q0 33 20 53t52 20
t52.5 -20t20.5 -53q0 -32 -20.5 -52t-52.5 -20t-52 20t-20 52zM328 452v68l197 20l14 -14v-444l53 -9v-73h-264v68l52 24v330z" />
    <glyph glyph-name=".notdef" horiz-adv-x="241" 
 />
    <glyph glyph-name=".null" horiz-adv-x="0" 
 />
    <glyph glyph-name="nonmarkingreturn" horiz-adv-x="333" 
 />
    <glyph glyph-name="space" unicode=" " horiz-adv-x="241" 
 />
    <glyph glyph-name="exclam" unicode="!" horiz-adv-x="308" 
d="M62 81q0 40 25.5 65t65.5 25q39 0 64.5 -25t25.5 -65q0 -41 -25.5 -66t-64.5 -25q-40 0 -65.5 25t-25.5 66zM89 219l-14 301v180h159v-180l-15 -301h-130z" />
    <glyph glyph-name="quotedbl" unicode="&#x22;" horiz-adv-x="431" 
d="M64 402v278h135l-29 -278h-106zM242 402v278h135l-29 -278h-106z" />
    <glyph glyph-name="numbersign" unicode="#" horiz-adv-x="576" 
d="M57 519h94l34 181h109l-34 -181h116l34 181h109l-34 -181h68v-97h-86l-27 -144h77v-97h-95l-34 -181h-108l33 181h-116l-34 -181h-108l33 181h-65v97h83l27 144h-76v97zM242 422l-27 -144h116l27 144h-116z" />
    <glyph glyph-name="dollar" unicode="$" horiz-adv-x="546" 
d="M201 -75l4 63q-53 3 -96 13.5t-59 19.5l-16 9v188h107l27 -104q16 -7 45 -11l12 174q-12 4 -36 14q-154 66 -154 219q0 190 221 201l3 39h78l-3 -41q43 -4 78.5 -14t49.5 -18l14 -8v-185h-111l-17 103q-9 5 -22 9l-13 -180l31 -12q83 -33 125.5 -80.5t42.5 -129.5
q0 -189 -229 -205l-4 -64h-78zM357 174q0 47 -55 74l-11 -146l52 10q14 32 14 62zM190 533q0 -54 47 -84l11 151l-45 -9q-13 -23 -13 -58z" />
    <glyph glyph-name="percent" unicode="%" horiz-adv-x="830" 
d="M241 0h-116l463 700h116zM34 526q0 87 46 135.5t124 48.5q77 0 123.5 -49t46.5 -136t-46.5 -136t-122.5 -49q-78 0 -124.5 49t-46.5 137zM154 526q0 -55 11.5 -77t41.5 -22q11 0 20 2t13 4l4 2q8 22 8 88q0 57 -11 78.5t-39 21.5q-11 0 -20.5 -2.5t-13.5 -4.5l-5 -2
q-9 -21 -9 -88zM455 176q0 87 46.5 135.5t123.5 48.5t123.5 -48.5t46.5 -136.5t-46 -136.5t-123 -48.5q-78 0 -124.5 49t-46.5 137zM575 176q0 -55 11.5 -77t41.5 -22q11 0 20.5 2t13.5 4l4 2q8 22 8 88q0 57 -11 78.5t-40 21.5q-10 0 -19.5 -2.5t-13.5 -4.5l-5 -2
q-10 -21 -10 -88z" />
    <glyph glyph-name="ampersand" unicode="&#x26;" horiz-adv-x="684" 
d="M612 288q0 -66 -53 -145l55 -61l48 -9v-73h-171l-52 57q-78 -70 -204 -70q-99 0 -150 45.5t-51 129.5q0 125 129 208q-67 91 -67 167q0 79 53.5 124.5t149.5 45.5q87 0 133.5 -39t46.5 -111q0 -65 -33 -105t-94 -76l139 -157q12 33 12 69v24l-50 10v72h207v-67l-48 -25
v-14zM291 101q47 0 88 24l-152 170q-42 -39 -42 -94q0 -48 29 -74t77 -26zM243 547q0 -41 47 -100q65 44 65 96q0 56 -59 56q-12 0 -24 -2.5t-18 -4.5l-5 -3q-6 -22 -6 -42z" />
    <glyph glyph-name="quotesingle" unicode="'" horiz-adv-x="253" 
d="M64 402v278h135l-29 -278h-106z" />
    <glyph glyph-name="parenleft" unicode="(" horiz-adv-x="318" 
d="M33 323q0 69 13 131t34 105.5t46 79.5t50 59t46 38.5t34 21.5l13 7l26 -34q-4 -6 -11.5 -16.5t-26 -48.5t-33 -81.5t-26 -114.5t-11.5 -147t11 -146t27 -115.5t32 -80.5t27 -51l11 -15l-26 -33q-5 2 -13.5 6.5t-33 21.5t-47 38.5t-49.5 58.5t-46.5 80t-33 105t-13.5 131z
" />
    <glyph glyph-name="parenright" unicode=")" horiz-adv-x="318" 
d="M285 323q0 -69 -13 -131t-33.5 -105t-45.5 -79.5t-50.5 -59t-46 -38t-33.5 -22.5l-13 -6l-26 33q4 6 11.5 16.5t26 48.5t33 81.5t26 114.5t11.5 147t-11 146t-27 115.5t-32 80.5t-27 51l-11 15l26 34q10 -4 25.5 -13t56 -45t71.5 -81.5t56.5 -126.5t25.5 -176z" />
    <glyph glyph-name="asterisk" unicode="*" horiz-adv-x="495" 
d="M248 414l-71 -133l-104 78l103 106l-148 27l41 124l135 -66l-22 150h131l-21 -150l134 66l41 -124l-147 -26l103 -107l-104 -78z" />
    <glyph glyph-name="plus" unicode="+" horiz-adv-x="504" 
d="M53 292v96h151v151h96v-151h151v-96h-151v-151h-96v151h-151z" />
    <glyph glyph-name="comma" unicode="," horiz-adv-x="255" 
d="M56 -166l-30 36q9 8 22.5 21t37 47t23.5 60q-32 4 -50.5 27t-18.5 57q0 39 24.5 63t63.5 24q38 0 62.5 -26.5t24.5 -80.5q0 -43 -16.5 -82.5t-39.5 -65t-46.5 -44.5t-40.5 -28z" />
    <glyph glyph-name="hyphen" unicode="-" horiz-adv-x="362" 
d="M52 252v106h258v-106h-258z" />
    <glyph glyph-name="period" unicode="." horiz-adv-x="255" 
d="M36 81q0 40 25.5 65t65.5 25q39 0 64.5 -25t25.5 -65q0 -41 -25.5 -66t-64.5 -25q-40 0 -65.5 25t-25.5 66z" />
    <glyph glyph-name="slash" unicode="/" horiz-adv-x="421" 
d="M105 -100h-107l308 850h108z" />
    <glyph glyph-name="zero" unicode="0" horiz-adv-x="576" 
d="M32 341q0 166 70 258.5t186 92.5q117 0 187 -92.5t70 -259.5t-70 -259.5t-186 -92.5q-117 0 -187 93t-70 260zM204 339q0 -134 19 -187t71 -53q18 0 32.5 5.5t19.5 10.5l5 5q21 50 21 218q0 136 -19 189t-68 53q-18 0 -33 -5t-21 -11l-6 -5q-21 -48 -21 -220z" />
    <glyph glyph-name="one" unicode="1" horiz-adv-x="455" 
d="M44 541v80q143 22 262 70l13 -14v-580l101 -10v-87h-370v87l110 24v430h-116z" />
    <glyph glyph-name="two" unicode="2" horiz-adv-x="554" 
d="M504 529q0 -48 -17.5 -87t-52.5 -74.5t-73 -66.5t-93.5 -80.5t-99.5 -99.5h199l33 90h107l-15 -211h-454v121q56 73 119 140t96 98.5t55.5 71t22.5 83.5q0 36 -17 51.5t-55 15.5q-24 0 -42.5 -4.5t-25.5 -9.5l-7 -5l-32 -95h-107l14 181q8 5 23 12.5t69.5 19.5t117.5 12
q235 0 235 -163z" />
    <glyph glyph-name="three" unicode="3" horiz-adv-x="547" 
d="M507 192q0 -99 -71.5 -151.5t-195.5 -52.5q-60 0 -113 12t-75 24l-23 12l27 90q64 -30 163 -30q24 0 48.5 2t36.5 4l12 3q17 23 17 86q0 61 -22.5 86t-72.5 25h-41l-14 14v83q21 6 56 51t59 86l24 42h-138l-32 -104h-108l15 206h423v-102q-72 -106 -150 -184v-9
q175 -38 175 -193z" />
    <glyph glyph-name="four" unicode="4" horiz-adv-x="580" 
d="M475 680v-401h75v-115h-71v-77l71 -9v-78h-302v68l71 24v69h-294v63l283 456h167zM179 282h147v242z" />
    <glyph glyph-name="five" unicode="5" horiz-adv-x="521" 
d="M490 204q0 -216 -259 -216q-63 0 -116 12t-74 24l-21 12l27 90q59 -30 158 -30q24 0 47.5 2t35.5 4l11 3q18 33 18 87q0 70 -42.5 98.5t-143.5 28.5h-62l-14 13l41 348h357v-121h-251l-18 -137q69 -3 120.5 -14t95.5 -34.5t67 -66t23 -103.5z" />
    <glyph glyph-name="six" unicode="6" horiz-adv-x="561" 
d="M477 651l-28 -83q-54 17 -122 17q-34 0 -59 -5.5t-32 -11.5l-8 -6q-19 -40 -26 -157q40 26 113 26q99 0 156.5 -53t57.5 -158q0 -108 -61.5 -170t-175.5 -62q-260 0 -260 347q0 357 270 357q46 0 90 -10t64 -20zM284 325q-39 0 -84 -15q1 -120 21.5 -168t75.5 -48
q14 0 27.5 2.5t19.5 5.5l6 2q16 25 16 104q0 67 -17.5 92t-64.5 25z" />
    <glyph glyph-name="seven" unicode="7" horiz-adv-x="526" 
d="M309 0h-174q13 91 47.5 184t93.5 217.5t81 176.5h-183l-33 -104h-107l15 206h449v-63q-20 -62 -69.5 -191.5t-79.5 -229.5t-40 -196z" />
    <glyph glyph-name="eight" unicode="8" horiz-adv-x="560" 
d="M33 147q0 109 102 178q-85 58 -85 169q0 89 57 143.5t183 54.5q206 0 206 -157q0 -109 -92 -169q119 -60 119 -183q0 -93 -65.5 -144.5t-195.5 -51.5q-229 0 -229 160zM370 171q0 18 -6 32t-12 22.5t-23.5 17t-26.5 12t-35.5 12.5t-36.5 12q-46 -48 -46 -99
q0 -38 26 -58.5t74 -20.5q19 0 37.5 3t27.5 6l9 3q12 25 12 58zM204 513q0 -44 24 -66t74 -41q51 51 51 108q0 68 -78 68q-17 0 -32 -3t-21 -7l-7 -3q-11 -24 -11 -56z" />
    <glyph glyph-name="nine" unicode="9" horiz-adv-x="561" 
d="M61 31l27 90q52 -26 138 -26q36 0 62.5 5.5t35.5 11.5l9 5q20 40 27 162q-40 -26 -114 -26q-99 0 -155.5 51.5t-56.5 156.5q0 108 61 169.5t174 61.5q262 0 262 -347q0 -357 -291 -357q-52 0 -97 10.5t-63 21.5zM278 359q40 0 85 15q-2 117 -22.5 164.5t-74.5 47.5
q-15 0 -28 -3t-18 -6l-6 -3q-17 -23 -17 -103q0 -64 17.5 -88t63.5 -24z" />
    <glyph glyph-name="colon" unicode=":" horiz-adv-x="266" 
d="M41 81q0 40 25.5 65t65.5 25q39 0 64.5 -25t25.5 -65q0 -41 -25.5 -66t-64.5 -25q-40 0 -65.5 25t-25.5 66zM41 448q0 41 25.5 66t65.5 25q39 0 64.5 -25t25.5 -66q0 -40 -25.5 -65t-64.5 -25q-40 0 -65.5 25t-25.5 65z" />
    <glyph glyph-name="semicolon" unicode=";" horiz-adv-x="266" 
d="M61 -166l-29 36q9 8 22.5 21t36.5 47t23 60q-32 4 -50.5 27t-18.5 57q0 39 24.5 63t63.5 24t63.5 -26t24.5 -81q0 -43 -16.5 -82.5t-40 -65t-47 -44.5t-39.5 -28zM41 448q0 41 25.5 66t65.5 25q39 0 64.5 -25t25.5 -66q0 -40 -25.5 -65t-64.5 -25q-40 0 -65.5 25
t-25.5 65z" />
    <glyph glyph-name="less" unicode="&#x3c;" horiz-adv-x="504" 
d="M53 388l398 165v-108l-252 -105l252 -105v-108l-398 165v96z" />
    <glyph glyph-name="equal" unicode="=" horiz-adv-x="504" 
d="M53 488h398v-97h-398v97zM451 192h-398v97h398v-97z" />
    <glyph glyph-name="greater" unicode="&#x3e;" horiz-adv-x="504" 
d="M451 388v-96l-398 -165v108l252 105l-252 105v108z" />
    <glyph glyph-name="question" unicode="?" horiz-adv-x="504" 
d="M152 81q0 40 25.5 65t64.5 25q40 0 65.5 -25t25.5 -65q0 -41 -25.5 -66t-65.5 -25q-39 0 -64.5 25t-25.5 66zM179 219l-13 141q70 45 99 79.5t29 80.5q0 33 -15 47.5t-47 14.5q-20 0 -36 -5t-22 -9l-6 -5l-33 -96h-107l15 182q7 5 21.5 12.5t65.5 19.5t110 12
q226 0 226 -160q0 -62 -34 -106.5t-109 -97.5l-14 -110h-130z" />
    <glyph glyph-name="at" unicode="@" horiz-adv-x="798" 
d="M399 255q26 47 41 135l10 59q-13 5 -29 5q-12 0 -23.5 -2t-17.5 -4l-5 -3q-28 -60 -28 -149q0 -28 5 -39t20 -11q7 0 14 2t10 4zM449 248h-5q-32 -81 -121 -81q-48 0 -72 28.5t-24 94.5q0 109 60.5 176t161.5 67q31 0 64.5 -6.5t51.5 -12.5l18 -7l-45 -227q-3 -15 2 -21
t20 -6q11 0 24.5 2.5t21.5 5.5l7 3q4 8 11 23.5t18 65.5t11 103q0 92 -42.5 135t-161.5 43q-55 0 -102 -8.5t-67 -17.5l-19 -9q-5 -5 -12.5 -15t-27 -43.5t-34.5 -70t-27.5 -94.5t-12.5 -118q0 -107 47.5 -150t176.5 -43q76 0 140 12.5t90 25.5l26 13l22 -42q1 0 -2 -2.5
t-9.5 -7.5t-16.5 -11.5t-25 -14t-33 -14.5t-41.5 -14t-49 -12t-58 -8t-66.5 -3q-325 0 -325 283q0 192 131.5 317.5t332.5 125.5q139 0 213.5 -63.5t74.5 -178.5q0 -126 -80 -213.5t-176 -87.5q-14 0 -26.5 2.5t-26 9.5t-19 22.5t-0.5 38.5z" />
    <glyph glyph-name="A" unicode="A" horiz-adv-x="721" 
d="M276 700h160l16 -17l206 -596l61 -10v-77h-316v71l61 26l-29 90h-214l-32 -100l66 -10v-77h-253v73l56 24zM309 458l-53 -164h146l-51 164q-6 20 -18 85h-5q-12 -63 -19 -85z" />
    <glyph glyph-name="B" unicode="B" horiz-adv-x="632" 
d="M357 0h-324v73l61 24v517l-61 9v77h303q112 0 179.5 -50t67.5 -141q0 -94 -71 -144q-6 -3 -19 -3v-3q10 0 19 -3q91 -51 91 -160q0 -93 -67 -144.5t-179 -51.5zM318 302h-60v-195h69q20 0 39 2.5t28 4.5l9 2q23 20 23 88q0 56 -23.5 77t-84.5 21zM298 594h-40v-186h49
q20 0 39 2t28 4l9 2q23 20 23 84q0 52 -24 73t-84 21z" />
    <glyph glyph-name="C" unicode="C" horiz-adv-x="577" 
d="M443 484l-32 98q-35 18 -89 18q-26 0 -47.5 -5.5t-30.5 -10.5l-9 -6q-3 -6 -8 -19t-13 -72t-8 -139q0 -136 27.5 -192.5t98.5 -56.5q21 0 41.5 4t30.5 8l10 4l32 105h107l-15 -192q-91 -40 -199 -40q-147 0 -228.5 95t-81.5 268t81.5 267t228.5 94q49 0 98 -10t74 -20
l25 -11l14 -187h-107z" />
    <glyph glyph-name="D" unicode="D" horiz-adv-x="663" 
d="M338 0h-305v73l61 24v516l-61 10v77h304q135 0 216 -92t81 -258t-80.5 -258t-215.5 -92zM323 594h-65v-488h74q26 0 47 5t29 9l8 5q5 5 11.5 18t18 73t11.5 144q0 130 -30 182t-104 52z" />
    <glyph glyph-name="E" unicode="E" horiz-adv-x="590" 
d="M556 0h-523v73l61 24v516l-61 10v77h508l15 -201h-107l-33 95h-158v-186h54l17 75h88v-256h-88l-17 75h-54v-196h172l32 100h109z" />
    <glyph glyph-name="F" unicode="F" horiz-adv-x="564" 
d="M334 0h-301v73l61 24v516l-61 10v77h507l15 -206h-107l-32 100h-158v-195h59l18 75h87v-256h-87l-18 75h-59v-204l76 -5v-84z" />
    <glyph glyph-name="G" unicode="G" horiz-adv-x="623" 
d="M550 282v-250q-10 -5 -27 -12.5t-70.5 -19.5t-106.5 -12q-153 0 -235 94t-82 268t81.5 268t228.5 94q49 0 98 -10t74 -20l25 -11l14 -187h-107l-32 98q-35 18 -89 18q-26 0 -47.5 -5.5t-30.5 -10.5l-9 -6q-3 -6 -8 -19t-13 -72t-8 -139q0 -136 27.5 -192.5t98.5 -56.5
q37 0 73 13v180l-76 10v76h282v-71z" />
    <glyph glyph-name="H" unicode="H" horiz-adv-x="725" 
d="M258 87l61 -10v-77h-286v73l61 24v516l-61 10v77h286v-73l-61 -24v-195h209v205l-61 10v77h286v-73l-61 -24v-516l61 -10v-77h-286v73l61 24v205h-209v-215z" />
    <glyph glyph-name="I" unicode="I" horiz-adv-x="352" 
d="M258 87l61 -10v-77h-286v73l61 24v516l-61 10v77h286v-73l-61 -24v-516z" />
    <glyph glyph-name="J" unicode="J" horiz-adv-x="445" 
d="M356 603v-397q0 -102 -57 -160t-162 -58q-30 0 -59.5 5t-43.5 10l-15 5l16 108q32 -17 81 -17q14 0 29 1.5t23 3.5l8 2q16 33 16 123v382l-76 5v84h301v-73z" />
    <glyph glyph-name="K" unicode="K" horiz-adv-x="675" 
d="M258 87l61 -10v-77h-286v73l61 24v516l-61 10v77h286v-73l-61 -24v-205l61 18l138 197l-57 10v77h249v-73l-61 -24l-153 -216l172 -300l61 -10v-77h-201l-172 309h-37v-222z" />
    <glyph glyph-name="L" unicode="L" horiz-adv-x="569" 
d="M546 0h-513v73l61 24v516l-61 10v77h286v-73l-61 -24v-497h163l32 105h108z" />
    <glyph glyph-name="M" unicode="M" horiz-adv-x="909" 
d="M195 87l67 -10l-1 -77h-253v73l66 24l51 516l-66 10v77h267l117 -387q14 -46 19 -75h5q9 52 17 80l115 382h253v-73l-62 -24l50 -516l61 -10v-77h-287v73l61 24l-35 353q-3 39 -3 48h-4q0 -21 -9 -48l-108 -375h-143l-16 17l-112 358q-9 33 -9 49h-4q0 -21 -2 -49z" />
    <glyph glyph-name="N" unicode="N" horiz-adv-x="725" 
d="M215 87l66 -10v-77h-253v73l66 24v516l-66 10v77h222l230 -340q19 -32 28 -60l4 1q-2 19 -2 59v253l-66 10v77h253v-73l-66 -24v-603h-112l-272 409q-21 29 -30 59l-4 -1q2 -20 2 -58v-322z" />
    <glyph glyph-name="O" unicode="O" horiz-adv-x="650" 
d="M28 351q0 171 80.5 266t215.5 95t216 -95t81 -267t-80.5 -267t-215.5 -95t-216 96t-81 267zM205 349q0 -139 27 -194.5t101 -55.5q26 0 46.5 5.5t28.5 11.5l7 5q3 6 8 19.5t13 71.5t8 136q0 142 -27 197t-97 55q-26 0 -47.5 -5.5t-30.5 -10.5l-8 -6q-3 -6 -8 -19
t-13 -71.5t-8 -138.5z" />
    <glyph glyph-name="P" unicode="P" horiz-adv-x="626" 
d="M258 89l76 -5v-84h-301v73l61 24v516l-61 10v77h313q112 0 179.5 -56t67.5 -156q0 -101 -67.5 -157t-178.5 -56h-89v-186zM307 594h-49v-211h58q21 0 40 2t28 4l8 2q23 25 23 97q0 59 -23.5 82.5t-84.5 23.5z" />
    <glyph glyph-name="Q" unicode="Q" horiz-adv-x="651" 
d="M29 351q0 171 80.5 266t215.5 95t216 -95t81 -266q0 -127 -45.5 -212.5t-125.5 -120.5v-3q48 -22 103.5 -37.5t87.5 -19.5l32 -5l-31 -140q-7 1 -18.5 2.5t-48 13t-73 28.5t-86.5 51.5t-95 79.5h-6q-131 4 -209 99.5t-78 263.5zM206 346q0 -137 27.5 -192t101.5 -55
q26 0 46 5.5t27 11.5l8 5q3 6 8 19t13 72t8 139q0 140 -27.5 194.5t-97.5 54.5q-25 0 -46 -5.5t-30 -10.5l-9 -6q-3 -6 -8 -19t-13 -72.5t-8 -140.5z" />
    <glyph glyph-name="R" unicode="R" horiz-adv-x="657" 
d="M258 87l61 -10v-77h-286v73l61 24v516l-61 10v77h313q112 0 179.5 -54.5t67.5 -153.5q0 -71 -37 -120.5t-102 -70.5l134 -214l61 -10v-77h-205l-148 285h-38v-198zM307 594h-49v-201h58q21 0 40 2t28 4l8 2q23 21 23 91q0 58 -23.5 80t-84.5 22z" />
    <glyph glyph-name="S" unicode="S" horiz-adv-x="546" 
d="M357 174q0 21 -8.5 36.5t-27.5 27t-36 18t-47.5 17t-48.5 18.5q-154 66 -154 219q0 202 247 202q58 0 106.5 -11t67.5 -21l20 -11v-185h-111l-17 103q-23 15 -69 15q-17 0 -36 -3t-29 -5l-11 -3q-13 -23 -13 -58q0 -20 7 -36.5t15 -26.5t26.5 -21t30 -15.5t38 -14.5
t37.5 -15q83 -33 125.5 -80.5t42.5 -129.5q0 -207 -274 -207q-64 0 -115 10.5t-70 21.5l-19 11v188h107l27 -104q28 -13 87 -13q24 0 46 2.5t32 5.5l10 3q14 32 14 62z" />
    <glyph glyph-name="T" unicode="T" horiz-adv-x="624" 
d="M394 87l62 -10v-77h-287v73l61 24v497h-81l-33 -115h-107l15 221h577l15 -221h-107l-33 115h-82v-507z" />
    <glyph glyph-name="U" unicode="U" horiz-adv-x="710" 
d="M621 603v-339q0 -131 -72 -203.5t-194 -72.5q-120 0 -193 68.5t-73 189.5v367l-61 10v77h291v-73l-61 -24v-360q0 -83 27.5 -116t101.5 -33q29 0 50.5 4t28.5 8l7 5q28 37 28 151v351l-67 10v77h253v-73z" />
    <glyph glyph-name="V" unicode="V" horiz-adv-x="705" 
d="M443 0h-159l-16 17l-205 596l-61 10v77h321v-73l-66 -21l112 -364q7 -22 19 -85h5q12 63 19 85l104 371l-61 10v77h248v-73l-56 -24z" />
    <glyph glyph-name="W" unicode="W" horiz-adv-x="1051" 
d="M425 0h-159l-17 17l-182 591l-65 15v77h324v-73l-67 -16l87 -368q15 -59 17 -74h5q1 12 4 26t7 28t5 20l106 447h151l107 -447q14 -57 17 -74h5q1 12 4 25.5t7 28t5 20.5l81 370l-61 10v77h238v-73l-58 -24l-166 -603h-159l-16 17l-92 402q-12 45 -15 70h-5
q-2 -13 -15 -70z" />
    <glyph glyph-name="X" unicode="X" horiz-adv-x="687" 
d="M603 603l-156 -266l173 -250l60 -10v-77h-324v73l69 21l-87 148q-3 6 -12 20t-13 22h-4q-8 -18 -23 -44l-93 -153l59 -10v-77h-244v73l64 24l169 272l-165 244l-59 10v77h324v-73l-80 -21l94 -146q18 -26 24 -42h4q2 7 21 44l77 151l-58 10v77h244v-73z" />
    <glyph glyph-name="Y" unicode="Y" horiz-adv-x="667" 
d="M595 603l-175 -311v-205l61 -10v-77h-286v73l61 24v193l-189 323l-59 10v77h321v-73l-70 -21l87 -158q17 -30 25 -49h4q4 10 23 51l78 163l-59 10v77h243v-73z" />
    <glyph glyph-name="Z" unicode="Z" horiz-adv-x="575" 
d="M29 0v63l304 531h-170l-32 -105h-107l15 211h498v-63l-304 -531h184l17 105h112v-211h-517z" />
    <glyph glyph-name="bracketleft" unicode="[" horiz-adv-x="353" 
d="M320 750v-97h-101v-705h101v-96h-246v898h246z" />
    <glyph glyph-name="backslash" unicode="\" horiz-adv-x="421" 
d="M423 -100h-108l-309 850h109z" />
    <glyph glyph-name="bracketright" unicode="]" horiz-adv-x="353" 
d="M33 -148v96h101v705h-101v97h246v-898h-246z" />
    <glyph glyph-name="asciicircum" unicode="^" horiz-adv-x="426" 
d="M34 521l169 189h20l169 -189l-48 -39l-131 102l-131 -102z" />
    <glyph glyph-name="underscore" unicode="_" horiz-adv-x="504" 
d="M2 -148v96h500v-96h-500z" />
    <glyph glyph-name="grave" unicode="`" horiz-adv-x="430" 
d="M77 672l97 97l139 -178l-67 -29z" />
    <glyph glyph-name="a" unicode="a" horiz-adv-x="543" 
d="M32 130q0 70 44 115t130 53l111 10v49q0 43 -16 61t-54 18q-14 0 -24.5 -2t-14.5 -4l-4 -3l-19 -76h-117v152q6 4 19 10.5t59.5 17t101.5 10.5q122 0 175.5 -50.5t53.5 -152.5v-211q0 -27 27 -27h32l8 -75q-36 -33 -109 -33q-79 0 -105 54q-67 -58 -154 -58
q-67 0 -105.5 38t-38.5 104zM181 150q0 -24 13.5 -38t39.5 -14q40 0 83 30v96l-127 -28q-9 -24 -9 -46z" />
    <glyph glyph-name="b" unicode="b" horiz-adv-x="568" 
d="M9 673v67l198 21l13 -14v-207q0 -18 -4 -33l2 -3v-1q71 38 138 38q89 0 138 -70t49 -192q0 -291 -278 -291q-57 0 -108 12t-73 24l-23 11v608zM375 255q0 99 -17 138t-64 39q-39 0 -74 -19v-300q25 -19 74 -19q20 0 37.5 4t24.5 8l8 3q11 40 11 146z" />
    <glyph glyph-name="c" unicode="c" horiz-adv-x="487" 
d="M337 351l-18 76q-9 8 -43 8q-20 0 -37.5 -3.5t-24.5 -7.5l-7 -4q-14 -46 -14 -132q0 -59 7.5 -98t23.5 -58.5t34 -26.5t45 -7q33 0 65.5 7t49.5 14l16 7l29 -82q-8 -6 -23 -15.5t-62.5 -25t-96.5 -15.5q-114 0 -185 75.5t-71 201.5q0 123 68.5 199.5t193.5 76.5
q44 0 85.5 -9t61.5 -18l20 -9v-154h-117z" />
    <glyph glyph-name="d" unicode="d" horiz-adv-x="573" 
d="M559 77v-67l-193 -21l-14 14l7 43l-5 5q-71 -63 -152 -63q-80 0 -128.5 71t-48.5 187q0 142 68 218.5t176 76.5q43 0 79 -12v114l-54 30v67l199 21l14 -14v-640zM193 269q0 -93 15.5 -131t55.5 -38q49 0 84 44v265q-20 26 -74 26q-20 0 -37 -3.5t-24 -7.5l-7 -4
q-13 -36 -13 -151z" />
    <glyph glyph-name="e" unicode="e" horiz-adv-x="509" 
d="M440 126l30 -82q-8 -6 -23.5 -15.5t-63.5 -25t-97 -15.5q-115 0 -188 75.5t-73 199.5q0 123 70 200.5t185 77.5q107 0 163.5 -71t40.5 -203l-45 -31h-247q3 -138 120 -138q29 0 61 7t49 14zM206 419q-13 -38 -13 -104l152 20q4 55 -15 77.5t-57 22.5q-20 0 -36.5 -4
t-23.5 -8z" />
    <glyph glyph-name="f" unicode="f" horiz-adv-x="386" 
d="M29 423v87l52 19v33q0 200 223 200q41 0 79 -6t55 -12l18 -7v-155h-116l-16 69q-6 5 -27 5q-16 0 -28 -4t-17 -8l-4 -3q-8 -26 -8 -88v-24h126v-106h-126v-339l83 -5v-79h-294v68l52 24v331h-52z" />
    <glyph glyph-name="g" unicode="g" horiz-adv-x="544" 
d="M533 590l-13 -117q-13 4 -35 4q-27 0 -58 -9q34 -43 34 -105q0 -84 -58 -131t-156 -47q-28 0 -58 5q-13 -17 -13 -37q0 -37 50 -37h116q87 0 137 -37.5t50 -111.5q0 -97 -85 -153t-229 -56q-103 0 -160.5 30.5t-57.5 92.5q0 49 31 81.5t69 49.5q-51 30 -51 90
q0 69 64 116q-80 48 -80 146q0 83 59 130t157 47q70 0 119 -24q61 77 136 77zM213 -13q-13 0 -33 2q-31 -29 -31 -70q0 -29 20.5 -41.5t73.5 -12.5q29 0 59.5 3.5t46.5 6.5l16 3q16 26 16 57q0 52 -64 52h-104zM172 372q0 -42 18 -61t60 -19q15 0 30 2t22 4l7 2q10 20 10 54
q0 79 -77 79q-15 0 -30 -1.5t-22 -3.5l-8 -2q-10 -18 -10 -54z" />
    <glyph glyph-name="h" unicode="h" horiz-adv-x="600" 
d="M19 673v67l198 21l14 -14v-218l-5 -32l2 -3q69 47 159 47q80 0 113.5 -43t33.5 -128v-288l52 -9v-73h-265v68l53 24v265q0 42 -12.5 58.5t-45.5 16.5q-48 0 -85 -29v-321l53 -9v-73h-265v68l53 24v551z" />
    <glyph glyph-name="i" unicode="i" horiz-adv-x="303" 
d="M24 452v68l198 20l14 -14v-444l53 -9v-73h-265v68l52 24v330zM49 675q0 43 27.5 69t71.5 26q43 0 70.5 -26.5t27.5 -68.5t-27.5 -68.5t-70.5 -26.5q-44 0 -71.5 26t-27.5 69z" />
    <glyph glyph-name="j" unicode="j" horiz-adv-x="292" 
d="M45 675q0 43 27 69t71 26q43 0 70.5 -26.5t27.5 -68.5t-27.5 -68.5t-70.5 -26.5q-44 0 -71 26t-27 69zM19 452v68l198 20l14 -14v-526q0 -130 -51.5 -186t-159.5 -56q-26 0 -51 3t-37 5l-13 3l17 117q38 -23 83 -23l34 4q19 29 19 133v422z" />
    <glyph glyph-name="k" unicode="k" horiz-adv-x="576" 
d="M495 437l-101 -144l126 -211l49 -9v-73h-173l-135 228h-30v-146l53 -9v-73h-265v68l53 24v551l-53 30v67l198 21l14 -14v-431l52 19l83 112l-51 10v72h228v-68z" />
    <glyph glyph-name="l" unicode="l" horiz-adv-x="298" 
d="M19 673v67l198 21l14 -14v-665l53 -9v-73h-265v77l53 25v541z" />
    <glyph glyph-name="m" unicode="m" horiz-adv-x="879" 
d="M367 92v272q0 38 -10.5 52.5t-39.5 14.5q-47 0 -77 -37v-312l54 -9v-73h-265v68l52 24v330l-52 30v68l193 20l14 -14l-7 -43l3 -4q62 62 159 62q91 0 120 -70q63 70 166 70q74 0 105 -41.5t31 -122.5v-295l52 -9v-73h-256v68l45 24v272q0 37 -11 52t-40 15q-46 0 -77 -36
q1 -7 1 -22v-291l50 -9v-73h-254v68z" />
    <glyph glyph-name="n" unicode="n" horiz-adv-x="609" 
d="M29 452v68l193 20l14 -14l-7 -43l4 -4q72 62 167 62q76 0 109.5 -43.5t33.5 -127.5v-288l52 -9v-73h-264v68l53 24v265q0 42 -13 58.5t-43 16.5q-49 0 -88 -49v-301l54 -9v-73h-265v68l52 24v330z" />
    <glyph glyph-name="o" unicode="o" horiz-adv-x="554" 
d="M25 266q0 129 68.5 202t183.5 73t184 -73.5t69 -202.5q0 -130 -69 -203.5t-183 -73.5q-115 0 -184 74t-69 204zM193 267q0 -95 18.5 -134t70.5 -39q19 0 35.5 4t22.5 8l7 3q15 40 15 153q0 96 -19 134.5t-69 38.5q-18 0 -35 -3.5t-25 -7.5l-7 -4q-14 -39 -14 -153z" />
    <glyph glyph-name="p" unicode="p" horiz-adv-x="575" 
d="M14 452v68l193 20l14 -14l-7 -43l5 -5q71 63 152 63q80 0 129 -71t49 -187q0 -141 -68.5 -218t-177.5 -77q-43 0 -77 12v-146l83 -5v-79h-295v68l53 24v560zM381 244q0 104 -15.5 144.5t-56.5 40.5q-48 0 -83 -44v-266q21 -25 74 -25q20 0 37 4t23 8l7 3q14 47 14 135z
" />
    <glyph glyph-name="q" unicode="q" horiz-adv-x="566" 
d="M349 25q-71 -37 -139 -37q-88 0 -137 69.5t-49 191.5q0 292 277 292q58 0 109 -11.5t74 -23.5l22 -12v-642l52 -9v-73h-265v68l54 24v128q0 19 4 32zM192 273q0 -101 17.5 -138t66.5 -37q44 0 71 16v302q-27 19 -74 19q-20 0 -37 -4t-24 -8l-7 -4q-13 -37 -13 -146z" />
    <glyph glyph-name="r" unicode="r" horiz-adv-x="431" 
d="M424 539l-13 -146q-21 8 -57 8q-63 0 -114 -32v-285l84 -5v-79h-295v68l52 24v330l-52 30v68l193 20l14 -14l-8 -70l5 -4q61 90 152 90z" />
    <glyph glyph-name="s" unicode="s" horiz-adv-x="467" 
d="M306 134q0 25 -22.5 38t-77.5 31q-4 1 -6.5 2t-6 2t-6.5 2q-77 25 -113.5 62t-36.5 110q0 74 44 117t155 43q50 0 94.5 -9t63.5 -18l20 -9v-150h-117l-18 77q-19 8 -49 8q-14 0 -27 -2t-19 -4l-6 -3q-7 -15 -7 -30q0 -27 26 -43t85 -35q39 -13 63.5 -25t48 -31.5
t34.5 -48t11 -67.5q0 -164 -220 -164q-54 0 -99.5 9t-64.5 18l-19 9v152h116l18 -77q24 -8 63 -8q20 0 36 2t22 4l6 3q9 17 9 35z" />
    <glyph glyph-name="t" unicode="t" horiz-adv-x="382" 
d="M14 423v87l52 19l24 107h135v-107h131v-106h-131v-261q0 -62 53 -62q15 0 33 4t29 8l11 4l17 -80q-6 -5 -16.5 -13t-48.5 -21.5t-80 -13.5q-157 0 -157 169v266h-52z" />
    <glyph glyph-name="u" unicode="u" horiz-adv-x="591" 
d="M312 452v68l198 20l13 -14v-419l53 -30v-67l-193 -21l-14 14l8 43l-5 3q-71 -61 -164 -61q-76 0 -109 44t-33 128v262l-52 30v68l198 20l13 -14v-354q0 -40 12 -57t41 -17q46 0 86 45v279z" />
    <glyph glyph-name="v" unicode="v" horiz-adv-x="590" 
d="M374 0h-143l-13 13l-165 434l-51 10v72h285v-68l-60 -21l68 -198q19 -56 25 -85h5q4 19 24 85l61 205l-54 10v72h226v-68l-46 -24z" />
    <glyph glyph-name="w" unicode="w" horiz-adv-x="863" 
d="M359 0h-147l-13 13l-143 429l-54 15v72h288v-68l-60 -16l50 -202q12 -48 16 -71h5q2 19 16 71l76 281h138l70 -281q15 -61 17 -71h5q2 14 9 40t8 31l47 204l-54 10v72h224v-68l-47 -24l-135 -437h-147l-13 13l-58 225q-12 49 -15 68h-5q-4 -28 -15 -68z" />
    <glyph glyph-name="x" unicode="x" horiz-adv-x="584" 
d="M508 437l-116 -184l132 -171l48 -9v-73h-291v68l63 21l-50 74q-20 30 -25 40h-4q-9 -22 -23 -41l-54 -80l51 -9v-73h-224v68l54 24l124 186l-126 169l-48 10v72h290v-68l-63 -21l50 -75q19 -29 24 -39h3q7 14 22 41l45 80l-53 10v72h224v-68z" />
    <glyph glyph-name="y" unicode="y" horiz-adv-x="594" 
d="M246 -28l-193 475l-51 10v72h288v-68l-61 -21l75 -198q10 -26 22 -85h5q7 38 22 85l65 205l-54 10v72h223v-68l-45 -24l-163 -437q-53 -144 -99.5 -193t-133.5 -49q-29 0 -56.5 4t-41.5 8l-13 4l23 128q49 -23 142 -23q25 26 46 93z" />
    <glyph glyph-name="z" unicode="z" horiz-adv-x="499" 
d="M34 0v58l236 370h-96l-18 -85h-116v186h417v-58l-235 -369h110l18 84h117v-186h-433z" />
    <glyph glyph-name="braceleft" unicode="{" horiz-adv-x="388" 
d="M111 48l9 104q9 100 -92 100v97q101 0 92 100l-9 105q-10 108 42 152t202 44v-97q-57 0 -79.5 -23.5t-17.5 -75.5l9 -105q10 -99 -78 -148q89 -50 78 -149l-9 -104q-5 -52 17.5 -76t79.5 -24v-96q-150 0 -202 43.5t-42 152.5z" />
    <glyph glyph-name="bar" unicode="|" horiz-adv-x="245" 
d="M171 -100h-97v850h97v-850z" />
    <glyph glyph-name="braceright" unicode="}" horiz-adv-x="388" 
d="M268 152l9 -104q10 -109 -42 -152.5t-202 -43.5v96q57 0 79.5 24t17.5 76l-9 104q-13 99 77 149q-88 49 -77 148l9 105q5 52 -17.5 75.5t-79.5 23.5v97q150 0 202 -44t42 -152l-9 -105q-9 -100 92 -100v-97q-101 0 -92 -100z" />
    <glyph glyph-name="asciitilde" unicode="~" horiz-adv-x="507" 
d="M75 230l-37 39q3 5 9 13.5t24.5 30.5t37 38.5t45.5 30t52 13.5q34 0 84.5 -28t64.5 -28l78 64l36 -40q-3 -5 -9 -13.5t-24.5 -30t-37 -38t-45 -30t-51.5 -13.5q-32 0 -83 28.5t-65 28.5z" />
    <glyph glyph-name="exclamdown" unicode="&#xa1;" horiz-adv-x="308" 
d="M219 401l15 -301v-180h-160v180l15 301h130zM243 539q0 -40 -25.5 -65t-64.5 -25q-40 0 -65.5 25t-25.5 65q0 41 25.5 66t65.5 25q39 0 64.5 -25t25.5 -66z" />
    <glyph glyph-name="cent" unicode="&#xa2;" horiz-adv-x="487" 
d="M454 351h-107l-19 76q-4 2 -10 3l-23 -332h8q33 0 65.5 7t49.5 14l16 7l29 -82q-8 -6 -22.5 -15t-60.5 -24.5t-93 -16.5l-4 -53h-77l4 62q-85 21 -135 92.5t-50 175.5q0 113 58 187.5t166 86.5l3 40h77l-3 -40q34 -4 66 -12.5t47 -14.5l15 -7v-154zM193 288
q0 -108 27 -152l21 295l-33 -11q-15 -46 -15 -132z" />
    <glyph glyph-name="sterling" unicode="&#xa3;" 
d="M59 537q0 85 48.5 130t166.5 45q59 0 110 -11t72 -22l22 -11l14 -181h-107l-32 95q-18 21 -74 21q-18 0 -35 -2.5t-25 -5.5l-8 -3q-9 -22 -9 -54q0 -23 6 -43.5t19.5 -48.5t17.5 -38h116v-107h-108q-12 -63 -84 -180h207l33 90h107l-15 -211h-463v63q6 15 21 56t20.5 56
t14 42.5t12 46t4.5 37.5h-67v87l45 17q-29 75 -29 132z" />
    <glyph glyph-name="yen" unicode="&#xa5;" horiz-adv-x="667" 
d="M133 276v87h85l-151 250l-59 10v77h321v-73l-70 -21l87 -149q15 -25 25 -50h4q5 13 23 52l78 154l-59 10v77h243v-73l-65 -24l-140 -240h88v-87h-123v-48h123v-88h-123v-53l61 -10v-77h-286v73l61 24v43h-123v88h123v48h-123z" />
    <glyph glyph-name="brokenbar" unicode="&#xa6;" horiz-adv-x="245" 
d="M171 750v-350h-97v350h97zM171 -100h-97v350h97v-350z" />
    <glyph glyph-name="section" unicode="&#xa7;" horiz-adv-x="480" 
d="M453 308q0 -84 -55 -125q54 -43 54 -127q0 -78 -46 -123.5t-163 -45.5q-51 0 -97 9.5t-66 18.5l-21 9v149h117l20 -77q23 -8 56 -8q16 0 30.5 2.5t21.5 5.5l6 2q8 16 8 33q0 27 -23.5 41.5t-81.5 33.5q-4 1 -6.5 2t-5.5 2q-85 30 -126 68.5t-41 113.5q0 86 58 126
q-47 41 -47 123q0 80 44 125.5t155 45.5q48 0 91.5 -9t62.5 -19l20 -9v-149h-116l-18 77q-19 8 -46 8q-14 0 -27 -2.5t-19 -4.5l-6 -3q-6 -16 -6 -33q0 -27 22 -41.5t74 -33.5q8 -3 12 -4q85 -31 125 -68t40 -113zM168 308q0 -7 1.5 -13t6 -11t8.5 -9t12 -8t14.5 -7t18 -7
t19.5 -6.5t22.5 -7t23.5 -7.5q4 -2 12 -4q14 30 14 57q0 10 -2 18t-7.5 14.5t-11 10.5t-18 9t-22.5 8.5t-30 10t-35 12.5q-5 1 -13 5q-13 -26 -13 -65z" />
    <glyph glyph-name="dieresis" unicode="&#xa8;" horiz-adv-x="405" 
d="M27 666q0 33 20.5 53t52.5 20t52.5 -20t20.5 -53q0 -32 -20.5 -52t-52.5 -20t-52.5 20t-20.5 52zM232 666q0 33 20.5 53t52.5 20t52.5 -20t20.5 -53q0 -32 -20.5 -52t-52.5 -20t-52.5 20t-20.5 52z" />
    <glyph glyph-name="copyright" unicode="&#xa9;" horiz-adv-x="749" 
d="M29 350q0 162 95.5 258.5t250.5 96.5t250.5 -96.5t95.5 -258.5t-95.5 -258.5t-250.5 -96.5t-250.5 96.5t-95.5 258.5zM114 355q0 -129 73.5 -201.5t198.5 -72.5q37 0 74.5 6.5t56.5 13.5l19 7q4 3 10.5 9t23.5 28.5t30 47.5t23.5 67t10.5 87q0 126 -73.5 199t-198.5 73
q-39 0 -77 -7.5t-57 -14.5l-18 -7q-4 -3 -10.5 -9t-23 -27t-29 -46t-23 -66.5t-10.5 -86.5zM445 415l-18 49q-20 8 -49 8q-14 0 -25.5 -2.5t-16.5 -5.5l-5 -2q-14 -24 -14 -115q0 -67 14 -94t53 -27q12 0 23 2t16 4l5 1l19 52h60l-8 -101q-51 -20 -112 -20
q-81 0 -126.5 48.5t-45.5 137.5t45 136.5t127 47.5q27 0 54.5 -5t41.5 -10l14 -5l9 -99h-61z" />
    <glyph glyph-name="ordfeminine" unicode="&#xaa;" horiz-adv-x="390" 
d="M24 443q0 51 32 83t93 38l70 5v32q0 49 -42 49l-22 -4l-13 -53h-92v112q39 26 127 26q90 0 128.5 -36t38.5 -110v-139q0 -18 18 -18h21l7 -59q-28 -25 -83 -25q-57 0 -77 37q-43 -40 -104 -40q-47 0 -74.5 27.5t-27.5 74.5zM141 459q0 -14 8 -23.5t22 -9.5q20 0 48 18v59
l-76 -18q-2 -16 -2 -26z" />
    <glyph glyph-name="guillemotleft" unicode="&#xab;" horiz-adv-x="479" 
d="M222 121l-189 169v20l189 169l39 -48l-102 -131l102 -131zM397 121l-189 169v20l189 169l39 -48l-102 -131l102 -131z" />
    <glyph glyph-name="registered" unicode="&#xae;" horiz-adv-x="749" 
d="M29 350q0 162 95.5 258.5t250.5 96.5t250.5 -96.5t95.5 -258.5t-95.5 -258.5t-250.5 -96.5t-250.5 96.5t-95.5 258.5zM114 355q0 -129 73.5 -201.5t198.5 -72.5q37 0 74.5 6.5t56.5 13.5l19 7q4 3 10.5 9t24 28.5t30.5 47.5t23.5 67t10.5 87q0 126 -74 199t-199 73
q-39 0 -77 -7.5t-57 -14.5l-18 -7q-4 -3 -10.5 -9t-23 -27t-29 -46t-23 -66.5t-10.5 -86.5zM338 222l34 -5v-44h-161v41l33 14v257l-33 5v44h176q63 0 100.5 -28.5t37.5 -80.5q0 -74 -75 -98l72 -105l34 -5v-44h-116l-82 145h-20v-96zM365 473h-27v-95h32l41 4q14 9 14 43
q0 28 -13 38t-47 10z" />
    <glyph glyph-name="macron" unicode="&#xaf;" horiz-adv-x="405" 
d="M47 612v96h311v-96h-311z" />
    <glyph glyph-name="degree" unicode="&#xb0;" horiz-adv-x="369" 
d="M33 541q0 65 41.5 104.5t109.5 39.5t110 -39.5t42 -104.5t-42 -104.5t-110 -39.5t-109.5 39.5t-41.5 104.5zM134 545q0 -64 55 -64q9 0 18.5 1.5t14.5 3.5l5 2q10 18 10 49q0 65 -54 65q-10 0 -20.5 -2t-15.5 -4l-5 -2q-8 -18 -8 -49z" />
    <glyph glyph-name="plusminus" unicode="&#xb1;" horiz-adv-x="504" 
d="M53 391v97h151v150h96v-150h151v-97h-151v-151h-96v151h-151zM53 101v97h398v-97h-398z" />
    <glyph glyph-name="twosuperior" unicode="&#xb2;" horiz-adv-x="354" 
d="M312 617q0 -32 -17 -58t-40.5 -42.5t-63 -47.5t-70.5 -63h100l21 45h71l-9 -125h-270v80q41 50 86 92t60.5 61t15.5 47q0 17 -7.5 22.5t-24.5 5.5q-11 0 -19.5 -2t-11.5 -4l-3 -2l-21 -48h-71l10 107q41 23 124 23q140 0 140 -91z" />
    <glyph glyph-name="threesuperior" unicode="&#xb3;" horiz-adv-x="354" 
d="M312 430q0 -54 -43 -83t-116 -29q-35 0 -66.5 7t-45.5 13l-14 7l18 60q37 -16 94 -16l51 4q6 11 6 38q0 31 -11 42.5t-36 11.5h-18l-10 9v55q12 3 29.5 24t28.5 41l11 19h-62l-21 -55h-72l9 122h252v-67q-37 -54 -81 -95q97 -25 97 -108z" />
    <glyph glyph-name="acute" unicode="&#xb4;" horiz-adv-x="430" 
d="M102 591l139 178l97 -97l-168 -110z" />
    <glyph glyph-name="paragraph" unicode="&#xb6;" horiz-adv-x="655" 
d="M464 -100v694h-88v-694h-97v375q-111 0 -178.5 56t-67.5 157q0 100 67.5 156t179.5 56h342v-77l-61 -10v-713h-97z" />
    <glyph glyph-name="periodcentered" unicode="&#xb7;" horiz-adv-x="244" 
d="M31 360q0 41 25.5 66t65.5 25q39 0 64.5 -25t25.5 -66q0 -40 -25.5 -65.5t-64.5 -25.5q-40 0 -65.5 25.5t-25.5 65.5z" />
    <glyph glyph-name="cedilla" unicode="&#xb8;" horiz-adv-x="348" 
d="M133 -87l12 97h67l-10 -68q3 0 8.5 -0.5t19 -4.5t24 -11t19 -21t8.5 -33q0 -40 -34.5 -61.5t-97.5 -21.5q-19 0 -36.5 2t-24.5 4l-8 2l13 68q17 -14 51 -14l27 3q3 9 3 21q0 16 -10 25.5t-20 11.5z" />
    <glyph glyph-name="onesuperior" unicode="&#xb9;" horiz-adv-x="354" 
d="M47 610v54q106 18 180 43l9 -9v-309l75 -6v-57h-261v57l80 16v211h-83z" />
    <glyph glyph-name="ordmasculine" unicode="&#xba;" horiz-adv-x="397" 
d="M18 537q0 91 49.5 142.5t131.5 51.5t131 -51.5t49 -142.5q0 -92 -49 -144t-131 -52t-131.5 52.5t-49.5 143.5zM151 538q0 -66 9.5 -90t41.5 -24q13 0 23 2.5t14 5.5l4 2q4 25 4 100q0 67 -9.5 91t-40.5 24q-12 0 -22.5 -2.5t-14.5 -4.5l-5 -3q-4 -25 -4 -101z" />
    <glyph glyph-name="guillemotright" unicode="&#xbb;" horiz-adv-x="479" 
d="M82 479l190 -169v-20l-190 -169l-38 48l101 131l-101 131zM257 479l189 -169v-20l-189 -169l-39 48l102 131l-102 131z" />
    <glyph glyph-name="onequarter" unicode="&#xbc;" horiz-adv-x="829" 
d="M203 0h-116l587 700h116zM739 374v-211h40v-76h-38v-30l38 -7v-50h-181v44l37 16v25h-154v41l147 248h111zM47 610v54q106 18 180 43l9 -9v-309l75 -6v-57h-261v57l80 16v211h-83zM579 165h61v103z" />
    <glyph glyph-name="onehalf" unicode="&#xbd;" horiz-adv-x="841" 
d="M47 610v54q106 18 180 43l9 -9v-309l75 -6v-57h-261v57l80 16v211h-83zM203 0h-116l587 700h116zM806 291q0 -32 -17 -58t-40.5 -42.5t-63 -47.5t-70.5 -63h100l21 45h71l-9 -125h-271v80q41 50 86.5 92t61 61t15.5 47q0 17 -7.5 22.5t-24.5 5.5q-11 0 -19.5 -2t-11.5 -4
l-3 -2l-21 -48h-71l10 107q41 23 124 23q140 0 140 -91z" />
    <glyph glyph-name="threequarters" unicode="&#xbe;" horiz-adv-x="829" 
d="M203 0h-116l587 700h116zM739 374v-211h40v-76h-38v-30l38 -7v-50h-181v44l37 16v25h-154v41l147 248h111zM312 430q0 -54 -43 -83t-116 -29q-35 0 -66.5 7t-45.5 13l-14 7l18 60q37 -16 94 -16l51 4q6 11 6 38q0 31 -11 42.5t-36 11.5h-18l-10 9v55q12 3 29.5 24
t28.5 41l11 19h-62l-21 -55h-72l9 122h252v-67q-37 -54 -81 -95q97 -25 97 -108zM579 165h61v103z" />
    <glyph glyph-name="questiondown" unicode="&#xbf;" horiz-adv-x="504" 
d="M353 539q0 -40 -25.5 -65t-65.5 -25t-65 25t-25 65q0 41 25 66t65 25t65.5 -25t25.5 -66zM326 402l12 -151q-70 -45 -98.5 -79.5t-28.5 -81.5q0 -32 14.5 -47t47.5 -15q20 0 36 5t22 10l6 5l32 95h107l-14 -182q-7 -5 -21.5 -12t-66 -19t-110.5 -12q-226 0 -226 160
q0 62 34 106t109 97l14 121h131z" />
    <glyph glyph-name="Agrave" unicode="&#xc0;" horiz-adv-x="721" 
d="M276 700h160l16 -17l206 -596l61 -10v-77h-316v71l61 26l-29 90h-214l-32 -100l66 -10v-77h-253v73l56 24zM309 458l-53 -164h146l-51 164q-6 20 -18 85h-5q-12 -63 -19 -85zM193 846l97 97l139 -178l-68 -29z" />
    <glyph glyph-name="Aacute" unicode="&#xc1;" horiz-adv-x="721" 
d="M276 700h160l16 -17l206 -596l61 -10v-77h-316v71l61 26l-29 90h-214l-32 -100l66 -10v-77h-253v73l56 24zM309 458l-53 -164h146l-51 164q-6 20 -18 85h-5q-12 -63 -19 -85zM277 765l139 178l97 -97l-168 -110z" />
    <glyph glyph-name="Acircumflex" unicode="&#xc2;" horiz-adv-x="721" 
d="M276 700h160l16 -17l206 -596l61 -10v-77h-316v71l61 26l-29 90h-214l-32 -100l66 -10v-77h-253v73l56 24zM309 458l-53 -164h146l-51 164q-6 20 -18 85h-5q-12 -63 -19 -85zM202 765l149 168h19l149 -168l-68 -29l-91 71l-90 -71z" />
    <glyph glyph-name="Atilde" unicode="&#xc3;" horiz-adv-x="721" 
d="M276 700h160l16 -17l206 -596l61 -10v-77h-316v71l61 26l-29 90h-214l-32 -100l66 -10v-77h-253v73l56 24zM309 458l-53 -164h146l-51 164q-6 20 -18 85h-5q-12 -63 -19 -85zM211 758l-36 40q3 4 7.5 11t20 24t31.5 30t40 24t48 11q27 0 68 -19.5t62 -19.5l57 42l36 -39
q-3 -4 -7.5 -11t-19.5 -24t-31 -30t-39.5 -24t-46.5 -11q-27 0 -69 19.5t-62 19.5z" />
    <glyph glyph-name="Adieresis" unicode="&#xc4;" horiz-adv-x="721" 
d="M276 700h160l16 -17l206 -596l61 -10v-77h-316v71l61 26l-29 90h-214l-32 -100l66 -10v-77h-253v73l56 24zM309 458l-53 -164h146l-51 164q-6 20 -18 85h-5q-12 -63 -19 -85zM185 835q0 33 20 53t52 20t52.5 -20t20.5 -53q0 -32 -20.5 -52t-52.5 -20t-52 20t-20 52z
M390 835q0 33 20 53t52 20t52.5 -20t20.5 -53q0 -32 -20.5 -52t-52.5 -20t-52 20t-20 52z" />
    <glyph glyph-name="Aring" unicode="&#xc5;" horiz-adv-x="721" 
d="M276 700h160l16 -17l206 -596l61 -10v-77h-316v71l61 26l-29 90h-214l-32 -100l66 -10v-77h-253v73l56 24zM309 458l-53 -164h146l-51 164q-6 20 -18 85h-5q-12 -63 -19 -85zM260 833q0 43 27 68.5t71 25.5q46 0 73.5 -25.5t27.5 -68.5t-27.5 -68.5t-73.5 -25.5
q-45 0 -71.5 25.5t-26.5 68.5zM330 835q0 -36 32 -36l21 4q6 10 6 28q0 36 -31 36l-22 -5q-6 -10 -6 -27z" />
    <glyph glyph-name="AE" unicode="&#xc6;" horiz-adv-x="839" 
d="M805 0h-473v71l62 26l-9 90h-157l-39 -100l66 -10v-77h-253v73l56 24l238 603h494l15 -201h-107l-33 95h-164l22 -186h52l18 75h83v-256h-83l-18 75h-38l25 -196h117l32 100h109zM326 458l-63 -164h115l-22 253h-5q-8 -47 -25 -89z" />
    <glyph glyph-name="Ccedilla" unicode="&#xc7;" horiz-adv-x="577" 
d="M282 -87l9 78q-125 14 -193.5 107.5t-68.5 252.5q0 173 81.5 267t228.5 94q49 0 98 -10t74 -20l25 -11l14 -187h-107l-32 98q-35 18 -89 18q-26 0 -47.5 -5.5t-30.5 -10.5l-9 -6q-3 -6 -8 -19t-13 -72t-8 -139q0 -136 27.5 -192.5t98.5 -56.5q21 0 41.5 4t30.5 8l10 4
l32 105h107l-15 -192q-81 -35 -180 -39l-7 -47q3 0 8.5 -0.5t19 -4.5t24 -11t19 -21t8.5 -33q0 -40 -34.5 -61.5t-97.5 -21.5q-19 0 -36 2t-25 4l-8 2l14 68q17 -14 51 -14l27 3q3 9 3 21q0 16 -10.5 25.5t-21.5 11.5z" />
    <glyph glyph-name="Egrave" unicode="&#xc8;" horiz-adv-x="590" 
d="M556 0h-523v73l61 24v516l-61 10v77h508l15 -201h-107l-33 95h-158v-186h54l17 75h88v-256h-88l-17 75h-54v-196h172l32 100h109zM137 846l96 97l140 -178l-68 -29z" />
    <glyph glyph-name="Eacute" unicode="&#xc9;" horiz-adv-x="590" 
d="M556 0h-523v73l61 24v516l-61 10v77h508l15 -201h-107l-33 95h-158v-186h54l17 75h88v-256h-88l-17 75h-54v-196h172l32 100h109zM211 765l139 178l97 -97l-168 -110z" />
    <glyph glyph-name="Ecircumflex" unicode="&#xca;" horiz-adv-x="590" 
d="M556 0h-523v73l61 24v516l-61 10v77h508l15 -201h-107l-33 95h-158v-186h54l17 75h88v-256h-88l-17 75h-54v-196h172l32 100h109zM136 765l149 168h19l149 -168l-68 -29l-91 71l-90 -71z" />
    <glyph glyph-name="Edieresis" unicode="&#xcb;" horiz-adv-x="590" 
d="M556 0h-523v73l61 24v516l-61 10v77h508l15 -201h-107l-33 95h-158v-186h54l17 75h88v-256h-88l-17 75h-54v-196h172l32 100h109zM125 835q0 33 20 53t52 20t52.5 -20t20.5 -53q0 -32 -20.5 -52t-52.5 -20t-52 20t-20 52zM329 835q0 33 20.5 53t52.5 20t52.5 -20
t20.5 -53q0 -32 -20.5 -52t-52.5 -20t-52.5 20t-20.5 52z" />
    <glyph glyph-name="Igrave" unicode="&#xcc;" horiz-adv-x="352" 
d="M257 87l61 -10v-77h-286v73l61 24v516l-61 10v77h286v-73l-61 -24v-516zM18 846l97 97l139 -178l-67 -29z" />
    <glyph glyph-name="Iacute" unicode="&#xcd;" horiz-adv-x="352" 
d="M257 87l61 -10v-77h-286v73l61 24v516l-61 10v77h286v-73l-61 -24v-516zM83 765l139 178l97 -97l-168 -110z" />
    <glyph glyph-name="Icircumflex" unicode="&#xce;" horiz-adv-x="352" 
d="M257 87l61 -10v-77h-286v73l61 24v516l-61 10v77h286v-73l-61 -24v-516zM17 765l149 168h20l148 -168l-67 -29l-91 71l-91 -71z" />
    <glyph glyph-name="Idieresis" unicode="&#xcf;" horiz-adv-x="352" 
d="M257 87l61 -10v-77h-286v73l61 24v516l-61 10v77h286v-73l-61 -24v-516zM1 835q0 33 20 53t52 20q33 0 53.5 -20t20.5 -53q0 -32 -21 -52t-53 -20t-52 20t-20 52zM206 835q0 33 20 53t52 20q33 0 53.5 -20t20.5 -53q0 -32 -21 -52t-53 -20t-52 20t-20 52z" />
    <glyph glyph-name="Eth" unicode="&#xd0;" horiz-adv-x="663" 
d="M33 302v87l61 19v205l-61 10v77h304q135 0 216 -92t81 -258t-80.5 -258t-215.5 -92h-305v73l61 24v205h-61zM323 594h-65v-186h108v-106h-108v-196h74q26 0 47 5t29 9l8 5q5 5 11.5 18t18 73t11.5 144q0 130 -30 182t-104 52z" />
    <glyph glyph-name="Ntilde" unicode="&#xd1;" horiz-adv-x="724" 
d="M215 87l66 -10v-77h-253v73l66 24v516l-66 10v77h222l230 -340q19 -32 28 -60l4 1q-2 19 -2 59v253l-66 10v77h253v-73l-66 -24v-603h-112l-272 409q-21 29 -30 59l-4 -1q2 -20 2 -58v-322zM208 758l-36 40q3 4 7.5 11t20 24t31.5 30t40 24t48 11q27 0 68 -19.5t61 -19.5
l58 42l36 -39q-3 -4 -7.5 -11t-19.5 -24t-31 -30t-39.5 -24t-46.5 -11q-27 0 -69 19.5t-62 19.5z" />
    <glyph glyph-name="Ograve" unicode="&#xd2;" horiz-adv-x="651" 
d="M29 351q0 171 81 266t216 95t216 -95t81 -267t-80.5 -267t-215.5 -95t-216.5 96t-81.5 267zM207 349q0 -139 27 -194.5t101 -55.5q26 0 46.5 5.5t28.5 11.5l7 5q3 6 8 19.5t13 71.5t8 136q0 142 -27 197t-98 55q-25 0 -46.5 -5.5t-30.5 -10.5l-8 -6q-3 -6 -8 -19
t-13 -71.5t-8 -138.5zM168 846l96 97l140 -178l-68 -29z" />
    <glyph glyph-name="Oacute" unicode="&#xd3;" horiz-adv-x="651" 
d="M29 351q0 171 81 266t216 95t216 -95t81 -267t-80.5 -267t-215.5 -95t-216.5 96t-81.5 267zM207 349q0 -139 27 -194.5t101 -55.5q26 0 46.5 5.5t28.5 11.5l7 5q3 6 8 19.5t13 71.5t8 136q0 142 -27 197t-98 55q-25 0 -46.5 -5.5t-30.5 -10.5l-8 -6q-3 -6 -8 -19
t-13 -71.5t-8 -138.5zM232 765l140 178l96 -97l-168 -110z" />
    <glyph glyph-name="Ocircumflex" unicode="&#xd4;" horiz-adv-x="651" 
d="M29 351q0 171 81 266t216 95t216 -95t81 -267t-80.5 -267t-215.5 -95t-216.5 96t-81.5 267zM207 349q0 -139 27 -194.5t101 -55.5q26 0 46.5 5.5t28.5 11.5l7 5q3 6 8 19.5t13 71.5t8 136q0 142 -27 197t-98 55q-25 0 -46.5 -5.5t-30.5 -10.5l-8 -6q-3 -6 -8 -19
t-13 -71.5t-8 -138.5zM167 765l149 168h19l149 -168l-68 -29l-91 71l-90 -71z" />
    <glyph glyph-name="Otilde" unicode="&#xd5;" horiz-adv-x="651" 
d="M29 351q0 171 81 266t216 95t216 -95t81 -267t-80.5 -267t-215.5 -95t-216.5 96t-81.5 267zM207 349q0 -139 27 -194.5t101 -55.5q26 0 46.5 5.5t28.5 11.5l7 5q3 6 8 19.5t13 71.5t8 136q0 142 -27 197t-98 55q-25 0 -46.5 -5.5t-30.5 -10.5l-8 -6q-3 -6 -8 -19
t-13 -71.5t-8 -138.5zM176 758l-36 40q3 4 7.5 11t20 24t31.5 30t40 24t48 11q27 0 68 -19.5t62 -19.5l57 42l36 -39q-3 -4 -7.5 -11t-19.5 -24t-31 -30t-39.5 -24t-46.5 -11q-27 0 -69 19.5t-62 19.5z" />
    <glyph glyph-name="Odieresis" unicode="&#xd6;" horiz-adv-x="651" 
d="M29 351q0 171 81 266t216 95t216 -95t81 -267t-80.5 -267t-215.5 -95t-216.5 96t-81.5 267zM207 349q0 -139 27 -194.5t101 -55.5q26 0 46.5 5.5t28.5 11.5l7 5q3 6 8 19.5t13 71.5t8 136q0 142 -27 197t-98 55q-25 0 -46.5 -5.5t-30.5 -10.5l-8 -6q-3 -6 -8 -19
t-13 -71.5t-8 -138.5zM150 835q0 33 20 53t52 20t52.5 -20t20.5 -53q0 -32 -20.5 -52t-52.5 -20t-52 20t-20 52zM355 835q0 33 20 53t52 20t52.5 -20t20.5 -53q0 -32 -20.5 -52t-52.5 -20t-52 20t-20 52z" />
    <glyph glyph-name="multiply" unicode="&#xd7;" horiz-adv-x="504" 
d="M125 145l-68 68l126 127l-126 127l68 68l126 -127l127 127l69 -68l-127 -127l127 -127l-69 -68l-127 126z" />
    <glyph glyph-name="Oslash" unicode="&#xd8;" horiz-adv-x="651" 
d="M48 23l51 74q-70 95 -70 254q0 171 80.5 266t215.5 95q93 0 163 -47l32 47l83 -36l-51 -74q70 -93 70 -252q0 -172 -80.5 -267t-215.5 -95q-95 0 -163 47l-33 -47zM445 348q0 57 -4 93l-203 -296q29 -46 96 -46q26 0 46.5 5.5t27.5 11.5l8 5q3 6 8 19.5t13 71.5t8 136z
M206 349q0 -64 3 -91l203 297q-27 45 -91 45q-26 0 -47.5 -5.5t-29.5 -10.5l-9 -6q-3 -6 -8 -19t-13 -71.5t-8 -138.5z" />
    <glyph glyph-name="Ugrave" unicode="&#xd9;" horiz-adv-x="710" 
d="M621 603v-339q0 -131 -72 -203.5t-194 -72.5q-120 0 -193 68.5t-73 189.5v367l-61 10v77h291v-73l-61 -24v-360q0 -83 27.5 -116t101.5 -33q29 0 50.5 4t28.5 8l7 5q28 37 28 151v351l-67 10v77h253v-73zM206 846l97 97l139 -178l-67 -29z" />
    <glyph glyph-name="Uacute" unicode="&#xda;" horiz-adv-x="710" 
d="M621 603v-339q0 -131 -72 -203.5t-194 -72.5q-120 0 -193 68.5t-73 189.5v367l-61 10v77h291v-73l-61 -24v-360q0 -83 27.5 -116t101.5 -33q29 0 50.5 4t28.5 8l7 5q28 37 28 151v351l-67 10v77h253v-73zM271 765l140 178l96 -97l-168 -110z" />
    <glyph glyph-name="Ucircumflex" unicode="&#xdb;" horiz-adv-x="710" 
d="M621 603v-339q0 -131 -72 -203.5t-194 -72.5q-120 0 -193 68.5t-73 189.5v367l-61 10v77h291v-73l-61 -24v-360q0 -83 27.5 -116t101.5 -33q29 0 50.5 4t28.5 8l7 5q28 37 28 151v351l-67 10v77h253v-73zM206 765l149 168h19l149 -168l-68 -29l-91 71l-91 -71z" />
    <glyph glyph-name="Udieresis" unicode="&#xdc;" horiz-adv-x="710" 
d="M621 603v-339q0 -131 -72 -203.5t-194 -72.5q-120 0 -193 68.5t-73 189.5v367l-61 10v77h291v-73l-61 -24v-360q0 -83 27.5 -116t101.5 -33q29 0 50.5 4t28.5 8l7 5q28 37 28 151v351l-67 10v77h253v-73zM190 835q0 33 20 53t52 20t52.5 -20t20.5 -53q0 -32 -20.5 -52
t-52.5 -20t-52 20t-20 52zM394 835q0 33 20.5 53t52.5 20t52.5 -20t20.5 -53q0 -32 -20.5 -52t-52.5 -20t-52.5 20t-20.5 52z" />
    <glyph glyph-name="Yacute" unicode="&#xdd;" horiz-adv-x="667" 
d="M595 603l-175 -311v-205l61 -10v-77h-286v73l61 24v193l-189 323l-59 10v77h321v-73l-70 -21l87 -158q17 -30 25 -49h4q4 10 23 51l78 163l-59 10v77h243v-73zM247 750l139 178l97 -97l-169 -110z" />
    <glyph glyph-name="Thorn" unicode="&#xde;" horiz-adv-x="626" 
d="M258 89l76 -5v-84h-301v73l61 24v516l-61 10v77h286v-73l-61 -24v-41h88q112 0 179.5 -53t67.5 -149t-67.5 -149t-178.5 -53h-89v-69zM307 456h-49v-191h58q21 0 40 1.5t28 3.5l8 2q23 23 23 88q0 54 -23.5 75t-84.5 21z" />
    <glyph glyph-name="germandbls" unicode="&#xdf;" horiz-adv-x="687" 
d="M420 98q18 -8 53 -8q17 0 30 2t18 4l5 3q4 16 4 32q0 29 -18.5 43.5t-69.5 35.5q-76 32 -115 91t-39 174q101 40 101 117q0 74 -72 74q-18 0 -35 -5t-26 -9l-8 -5q-17 -40 -17 -110v-537h-212v68l53 24v445q0 110 66 167.5t195 57.5q204 0 204 -158q0 -60 -29 -99.5
t-91 -71.5q0 -63 98 -112q8 -4 29.5 -13.5t30.5 -14.5t26.5 -15t25.5 -20.5t18 -25t14 -33.5t4 -42q0 -79 -51.5 -124.5t-157.5 -45.5q-45 0 -87.5 8.5t-62.5 17.5l-19 9v153h117z" />
    <glyph glyph-name="agrave" unicode="&#xe0;" horiz-adv-x="543" 
d="M32 130q0 70 44 115t130 53l111 10v49q0 43 -16 61t-54 18q-14 0 -24.5 -2t-14.5 -4l-4 -3l-19 -76h-117v152q6 4 19 10.5t59.5 17t101.5 10.5q122 0 175.5 -50.5t53.5 -152.5v-211q0 -27 27 -27h32l8 -75q-36 -33 -109 -33q-79 0 -105 54q-67 -58 -154 -58
q-67 0 -105.5 38t-38.5 104zM85 672l97 97l139 -178l-68 -29zM181 150q0 -24 13.5 -38t39.5 -14q40 0 83 30v96l-127 -28q-9 -24 -9 -46z" />
    <glyph glyph-name="aacute" unicode="&#xe1;" horiz-adv-x="543" 
d="M32 130q0 70 44 115t130 53l111 10v49q0 43 -16 61t-54 18q-14 0 -24.5 -2t-14.5 -4l-4 -3l-19 -76h-117v152q6 4 19 10.5t59.5 17t101.5 10.5q122 0 175.5 -50.5t53.5 -152.5v-211q0 -27 27 -27h32l8 -75q-36 -33 -109 -33q-79 0 -105 54q-67 -58 -154 -58
q-67 0 -105.5 38t-38.5 104zM181 591l139 178l97 -97l-169 -110zM181 150q0 -24 13.5 -38t39.5 -14q40 0 83 30v96l-127 -28q-9 -24 -9 -46z" />
    <glyph glyph-name="acircumflex" unicode="&#xe2;" horiz-adv-x="543" 
d="M32 130q0 70 44 115t130 53l111 10v49q0 43 -16 61t-54 18q-14 0 -24.5 -2t-14.5 -4l-4 -3l-19 -76h-117v152q6 4 19 10.5t59.5 17t101.5 10.5q122 0 175.5 -50.5t53.5 -152.5v-211q0 -27 27 -27h32l8 -75q-36 -33 -109 -33q-79 0 -105 54q-67 -58 -154 -58
q-67 0 -105.5 38t-38.5 104zM98 591l149 168h20l148 -168l-67 -29l-91 71l-91 -71zM181 150q0 -24 13.5 -38t39.5 -14q40 0 83 30v96l-127 -28q-9 -24 -9 -46z" />
    <glyph glyph-name="atilde" unicode="&#xe3;" horiz-adv-x="543" 
d="M32 130q0 70 44 115t130 53l111 10v49q0 43 -16 61t-54 18q-14 0 -24.5 -2t-14.5 -4l-4 -3l-19 -76h-117v152q6 4 19 10.5t59.5 17t101.5 10.5q122 0 175.5 -50.5t53.5 -152.5v-211q0 -27 27 -27h32l8 -75q-36 -33 -109 -33q-79 0 -105 54q-67 -58 -154 -58
q-67 0 -105.5 38t-38.5 104zM118 594l-37 40q3 4 7.5 11t20 24.5t31.5 30.5t40 24t48 11q27 0 68 -19.5t62 -19.5l58 42l35 -40q-3 -4 -7.5 -11t-19.5 -24t-31 -30t-39.5 -24t-46.5 -11q-27 0 -69 19.5t-62 19.5zM181 150q0 -24 13.5 -38t39.5 -14q40 0 83 30v96l-127 -28
q-9 -24 -9 -46z" />
    <glyph glyph-name="adieresis" unicode="&#xe4;" horiz-adv-x="543" 
d="M32 130q0 70 44 115t130 53l111 10v49q0 43 -16 61t-54 18q-14 0 -24.5 -2t-14.5 -4l-4 -3l-19 -76h-117v152q6 4 19 10.5t59.5 17t101.5 10.5q122 0 175.5 -50.5t53.5 -152.5v-211q0 -27 27 -27h32l8 -75q-36 -33 -109 -33q-79 0 -105 54q-67 -58 -154 -58
q-67 0 -105.5 38t-38.5 104zM86 666q0 33 20 53t52 20q33 0 53.5 -20t20.5 -53q0 -32 -21 -52t-53 -20t-52 20t-20 52zM291 666q0 33 20 53t52 20t52.5 -20t20.5 -53q0 -32 -20.5 -52t-52.5 -20t-52 20t-20 52zM181 150q0 -24 13.5 -38t39.5 -14q40 0 83 30v96l-127 -28
q-9 -24 -9 -46z" />
    <glyph glyph-name="aring" unicode="&#xe5;" horiz-adv-x="543" 
d="M32 130q0 70 44 115t130 53l111 10v49q0 43 -16 61t-54 18q-14 0 -24.5 -2t-14.5 -4l-4 -3l-19 -76h-117v152q6 4 19 10.5t59.5 17t101.5 10.5q122 0 175.5 -50.5t53.5 -152.5v-211q0 -27 27 -27h32l8 -75q-36 -33 -109 -33q-79 0 -105 54q-67 -58 -154 -58
q-67 0 -105.5 38t-38.5 104zM170 659q0 43 27 68.5t71 25.5q46 0 73.5 -25.5t27.5 -68.5t-27.5 -68.5t-73.5 -25.5q-45 0 -71.5 25.5t-26.5 68.5zM181 150q0 -24 13.5 -38t39.5 -14q40 0 83 30v96l-127 -28q-9 -24 -9 -46zM240 661q0 -36 31 -36l22 4q5 10 5 28q0 36 -30 36
l-22 -4q-6 -11 -6 -28z" />
    <glyph glyph-name="ae" unicode="&#xe6;" horiz-adv-x="770" 
d="M701 126l30 -82q-8 -6 -22.5 -15.5t-61 -25t-93.5 -15.5q-116 0 -187 85q-81 -85 -190 -85q-68 0 -106.5 38t-38.5 105q0 71 45 114t129 53l102 11q3 27 13 60q-4 67 -74 67q-14 0 -24.5 -2t-14.5 -4l-4 -3l-19 -76h-117v152q6 4 19 10.5t59.5 17t101.5 10.5
q108 0 164 -42q59 42 138 42q101 0 155.5 -71t38.5 -203l-44 -31h-227q3 -138 111 -138q27 0 56 7t45 14zM181 150q0 -24 13.5 -38t39.5 -14q47 0 94 39q-16 39 -21 87l-117 -28q-9 -24 -9 -46zM487 419q-13 -38 -13 -104l132 20q4 55 -13 77.5t-50 22.5q-16 0 -30 -4
t-20 -8z" />
    <glyph glyph-name="ccedilla" unicode="&#xe7;" horiz-adv-x="487" 
d="M230 -87l9 78q-97 14 -155.5 87.5t-58.5 186.5q0 123 68.5 199.5t193.5 76.5q44 0 85.5 -9t61.5 -18l20 -9v-154h-117l-18 76q-9 8 -43 8q-20 0 -37.5 -3.5t-24.5 -7.5l-7 -4q-14 -46 -14 -132q0 -59 7.5 -98t23.5 -58.5t34 -26.5t45 -7q33 0 65.5 7t49.5 14l16 7l29 -82
q-7 -5 -20 -13t-54 -23t-83 -19l-7 -47q3 0 8.5 -0.5t19 -4.5t24 -11t19 -21t8.5 -33q0 -40 -34.5 -61.5t-97.5 -21.5q-19 0 -36.5 2t-25.5 4l-7 2l13 68q17 -14 51 -14l27 3q3 9 3 21q0 16 -10.5 25.5t-20.5 11.5z" />
    <glyph glyph-name="egrave" unicode="&#xe8;" horiz-adv-x="509" 
d="M440 126l30 -82q-8 -6 -23.5 -15.5t-63.5 -25t-97 -15.5q-115 0 -188 75.5t-73 199.5q0 123 70 200.5t185 77.5q107 0 163.5 -71t40.5 -203l-45 -31h-247q3 -138 120 -138q29 0 61 7t49 14zM206 419q-13 -38 -13 -104l152 20q4 55 -15 77.5t-57 22.5q-20 0 -36.5 -4
t-23.5 -8zM93 672l96 97l140 -178l-68 -29z" />
    <glyph glyph-name="eacute" unicode="&#xe9;" horiz-adv-x="509" 
d="M440 126l30 -82q-8 -6 -23.5 -15.5t-63.5 -25t-97 -15.5q-115 0 -188 75.5t-73 199.5q0 123 70 200.5t185 77.5q107 0 163.5 -71t40.5 -203l-45 -31h-247q3 -138 120 -138q29 0 61 7t49 14zM206 419q-13 -38 -13 -104l152 20q4 55 -15 77.5t-57 22.5q-20 0 -36.5 -4
t-23.5 -8zM218 591l139 178l97 -97l-169 -110z" />
    <glyph glyph-name="ecircumflex" unicode="&#xea;" horiz-adv-x="509" 
d="M440 126l30 -82q-8 -6 -23.5 -15.5t-63.5 -25t-97 -15.5q-115 0 -188 75.5t-73 199.5q0 123 70 200.5t185 77.5q107 0 163.5 -71t40.5 -203l-45 -31h-247q3 -138 120 -138q29 0 61 7t49 14zM206 419q-13 -38 -13 -104l152 20q4 55 -15 77.5t-57 22.5q-20 0 -36.5 -4
t-23.5 -8zM112 591l149 168h19l149 -168l-68 -29l-91 71l-90 -71z" />
    <glyph glyph-name="edieresis" unicode="&#xeb;" horiz-adv-x="509" 
d="M440 126l30 -82q-8 -6 -23.5 -15.5t-63.5 -25t-97 -15.5q-115 0 -188 75.5t-73 199.5q0 123 70 200.5t185 77.5q107 0 163.5 -71t40.5 -203l-45 -31h-247q3 -138 120 -138q29 0 61 7t49 14zM206 419q-13 -38 -13 -104l152 20q4 55 -15 77.5t-57 22.5q-20 0 -36.5 -4
t-23.5 -8zM96 666q0 33 20 53t52 20t52.5 -20t20.5 -53q0 -32 -20.5 -52t-52.5 -20t-52 20t-20 52zM301 666q0 33 20 53t52 20t52.5 -20t20.5 -53q0 -32 -20.5 -52t-52.5 -20t-52 20t-20 52z" />
    <glyph glyph-name="igrave" unicode="&#xec;" horiz-adv-x="303" 
d="M-37 672l97 97l139 -178l-67 -29zM24 452v68l198 20l14 -14v-444l53 -9v-73h-265v68l52 24v330z" />
    <glyph glyph-name="iacute" unicode="&#xed;" horiz-adv-x="303" 
d="M74 591l140 178l96 -97l-168 -110zM24 452v68l198 20l14 -14v-444l53 -9v-73h-265v68l52 24v330z" />
    <glyph glyph-name="icircumflex" unicode="&#xee;" horiz-adv-x="303" 
d="M24 452v68l198 20l14 -14v-444l53 -9v-73h-265v68l52 24v330zM-12 591l149 168h19l149 -168l-68 -29l-90 71l-91 -71z" />
    <glyph glyph-name="idieresis" unicode="&#xef;" horiz-adv-x="303" 
d="M-28 666q0 33 20 53t52 20t52.5 -20t20.5 -53q0 -32 -20.5 -52t-52.5 -20t-52 20t-20 52zM177 666q0 33 20 53t52 20t52.5 -20t20.5 -53q0 -32 -20.5 -52t-52.5 -20t-52 20t-20 52zM24 452v68l198 20l14 -14v-444l53 -9v-73h-265v68l52 24v330z" />
    <glyph glyph-name="eth" unicode="&#xf0;" horiz-adv-x="544" 
d="M390 692l-58 -31q182 -139 182 -384q0 -145 -63.5 -217t-174.5 -72q-116 0 -183.5 73.5t-67.5 205.5q0 129 63 201.5t170 72.5q4 0 11.5 -0.5t11.5 -0.5q-25 40 -51 68l-100 -53l-40 70l76 39q-19 13 -38 22.5t-28 12.5l-10 3l28 58q62 -12 137 -51l98 51zM353 242
q0 97 -23 179q-26 14 -61 14q-17 0 -33 -3.5t-23 -7.5l-7 -4q-13 -41 -13 -152q0 -97 17.5 -135.5t67.5 -38.5q17 0 32 4t22 8l6 3q15 46 15 133z" />
    <glyph glyph-name="ntilde" unicode="&#xf1;" horiz-adv-x="609" 
d="M29 452v68l193 20l14 -14l-7 -43l4 -4q72 62 167 62q76 0 109.5 -43.5t33.5 -127.5v-288l52 -9v-73h-264v68l53 24v265q0 42 -13 58.5t-43 16.5q-49 0 -88 -49v-301l54 -9v-73h-265v68l52 24v330zM151 594l-37 40q3 4 7.5 11t20 24.5t32 30.5t40.5 24t48 11
q27 0 68 -19.5t61 -19.5l58 42l36 -40q-3 -4 -7.5 -11t-19.5 -24t-31 -30t-39.5 -24t-46.5 -11q-27 0 -69 19.5t-62 19.5z" />
    <glyph glyph-name="ograve" unicode="&#xf2;" horiz-adv-x="554" 
d="M25 266q0 129 68.5 202t183.5 73t184 -73.5t69 -202.5q0 -130 -69 -203.5t-183 -73.5q-115 0 -184 74t-69 204zM193 267q0 -95 18.5 -134t70.5 -39q19 0 35.5 4t22.5 8l7 3q15 40 15 153q0 96 -19 134.5t-69 38.5q-18 0 -35 -3.5t-25 -7.5l-7 -4q-14 -39 -14 -153z
M89 672l97 97l139 -178l-68 -29z" />
    <glyph glyph-name="oacute" unicode="&#xf3;" horiz-adv-x="554" 
d="M25 266q0 129 68.5 202t183.5 73t184 -73.5t69 -202.5q0 -130 -69 -203.5t-183 -73.5q-115 0 -184 74t-69 204zM193 267q0 -95 18.5 -134t70.5 -39q19 0 35.5 4t22.5 8l7 3q15 40 15 153q0 96 -19 134.5t-69 38.5q-18 0 -35 -3.5t-25 -7.5l-7 -4q-14 -39 -14 -153z
M215 591l139 178l97 -97l-169 -110z" />
    <glyph glyph-name="ocircumflex" unicode="&#xf4;" horiz-adv-x="554" 
d="M25 266q0 129 68.5 202t183.5 73t184 -73.5t69 -202.5q0 -130 -69 -203.5t-183 -73.5q-115 0 -184 74t-69 204zM193 267q0 -95 18.5 -134t70.5 -39q19 0 35.5 4t22.5 8l7 3q15 40 15 153q0 96 -19 134.5t-69 38.5q-18 0 -35 -3.5t-25 -7.5l-7 -4q-14 -39 -14 -153z
M119 591l148 168h20l149 -168l-68 -29l-91 71l-91 -71z" />
    <glyph glyph-name="otilde" unicode="&#xf5;" horiz-adv-x="554" 
d="M25 266q0 129 68.5 202t183.5 73t184 -73.5t69 -202.5q0 -130 -69 -203.5t-183 -73.5q-115 0 -184 74t-69 204zM193 267q0 -95 18.5 -134t70.5 -39q19 0 35.5 4t22.5 8l7 3q15 40 15 153q0 96 -19 134.5t-69 38.5q-18 0 -35 -3.5t-25 -7.5l-7 -4q-14 -39 -14 -153z
M128 594l-37 40q3 4 7.5 11t20 24.5t32 30.5t40.5 24t48 11q27 0 68 -19.5t61 -19.5l58 42l36 -40q-3 -4 -7.5 -11t-19.5 -24t-31 -30t-39.5 -24t-46.5 -11q-27 0 -69 19.5t-62 19.5z" />
    <glyph glyph-name="odieresis" unicode="&#xf6;" horiz-adv-x="554" 
d="M25 266q0 129 68.5 202t183.5 73t184 -73.5t69 -202.5q0 -130 -69 -203.5t-183 -73.5q-115 0 -184 74t-69 204zM193 267q0 -95 18.5 -134t70.5 -39q19 0 35.5 4t22.5 8l7 3q15 40 15 153q0 96 -19 134.5t-69 38.5q-18 0 -35 -3.5t-25 -7.5l-7 -4q-14 -39 -14 -153z
M102 666q0 33 20 53t52 20t52.5 -20t20.5 -53q0 -32 -20.5 -52t-52.5 -20t-52 20t-20 52zM306 666q0 33 20.5 53t52.5 20t52.5 -20t20.5 -53q0 -32 -20.5 -52t-52.5 -20t-52.5 20t-20.5 52z" />
    <glyph glyph-name="divide" unicode="&#xf7;" horiz-adv-x="504" 
d="M53 292v96h398v-96h-398zM167 506q0 37 23 59t59 22t59 -22t23 -59q0 -36 -23 -58.5t-59 -22.5t-59 22.5t-23 58.5zM249 92q-36 0 -59 22.5t-23 58.5q0 37 23 59t59 22t59 -22t23 -59q0 -36 -23 -58.5t-59 -22.5z" />
    <glyph glyph-name="oslash" unicode="&#xf8;" horiz-adv-x="554" 
d="M35 8l49 66q-59 73 -59 192q0 129 68.5 202t183.5 73q75 0 131 -32l31 41l81 -30l-49 -65q59 -71 59 -190q0 -130 -69 -203.5t-183 -73.5q-75 0 -133 32l-30 -40zM367 262q0 20 -2 52l-148 -199q20 -26 66 -26q20 0 37 4t24 8l8 4q15 40 15 157zM188 267q0 -36 1 -52
l149 199q-22 26 -64 26q-20 0 -38 -4t-26 -8l-8 -4q-14 -40 -14 -157z" />
    <glyph glyph-name="ugrave" unicode="&#xf9;" horiz-adv-x="591" 
d="M312 452v68l198 20l13 -14v-419l53 -30v-67l-193 -21l-14 14l8 43l-5 3q-71 -61 -164 -61q-76 0 -109 44t-33 128v262l-52 30v68l198 20l13 -14v-354q0 -40 12 -57t41 -17q46 0 86 45v279zM100 672l97 97l139 -178l-68 -29z" />
    <glyph glyph-name="uacute" unicode="&#xfa;" horiz-adv-x="591" 
d="M312 452v68l198 20l13 -14v-419l53 -30v-67l-193 -21l-14 14l8 43l-5 3q-71 -61 -164 -61q-76 0 -109 44t-33 128v262l-52 30v68l198 20l13 -14v-354q0 -40 12 -57t41 -17q46 0 86 45v279zM221 591l140 178l96 -97l-168 -110z" />
    <glyph glyph-name="ucircumflex" unicode="&#xfb;" horiz-adv-x="591" 
d="M312 452v68l198 20l13 -14v-419l53 -30v-67l-193 -21l-14 14l8 43l-5 3q-71 -61 -164 -61q-76 0 -109 44t-33 128v262l-52 30v68l198 20l13 -14v-354q0 -40 12 -57t41 -17q46 0 86 45v279zM128 591l149 168h19l149 -168l-68 -29l-91 71l-91 -71z" />
    <glyph glyph-name="udieresis" unicode="&#xfc;" horiz-adv-x="591" 
d="M312 452v68l198 20l13 -14v-419l53 -30v-67l-193 -21l-14 14l8 43l-5 3q-71 -61 -164 -61q-76 0 -109 44t-33 128v262l-52 30v68l198 20l13 -14v-354q0 -40 12 -57t41 -17q46 0 86 45v279zM310 666q0 33 20 53t52 20t52.5 -20t20.5 -53q0 -32 -20.5 -52t-52.5 -20t-52 20
t-20 52zM105 666q0 33 20 53t52 20t52.5 -20t20.5 -53q0 -32 -20.5 -52t-52.5 -20t-52 20t-20 52z" />
    <glyph glyph-name="yacute" unicode="&#xfd;" horiz-adv-x="594" 
d="M246 -28l-193 475l-51 10v72h288v-68l-61 -21l75 -198q10 -26 22 -85h5q7 38 22 85l65 205l-54 10v72h223v-68l-45 -24l-163 -437q-53 -144 -99.5 -193t-133.5 -49q-29 0 -56.5 4t-41.5 8l-13 4l23 128q49 -23 142 -23q25 26 46 93zM244 591l139 178l97 -97l-168 -110z
" />
    <glyph glyph-name="thorn" unicode="&#xfe;" 
d="M9 673v67l193 21l14 -14v-218q0 -22 -7 -46l5 -5q71 63 152 63q80 0 128.5 -71t48.5 -187q0 -141 -68.5 -218t-176.5 -77q-42 0 -78 12v-146l84 -5v-79h-295v68l52 24v781zM375 244q0 104 -15 144.5t-56 40.5q-48 0 -84 -45v-265q21 -25 74 -25q20 0 37 4t24 8l7 3
q13 47 13 135z" />
    <glyph glyph-name="ydieresis" unicode="&#xff;" horiz-adv-x="594" 
d="M246 -28l-193 475l-51 10v72h288v-68l-61 -21l75 -198q10 -26 22 -85h5q7 38 22 85l65 205l-54 10v72h223v-68l-45 -24l-163 -437q-53 -144 -99.5 -193t-133.5 -49q-29 0 -56.5 4t-41.5 8l-13 4l23 128q49 -23 142 -23q25 26 46 93zM125 666q0 33 20 53t52 20
q33 0 53.5 -20t20.5 -53q0 -32 -21 -52t-53 -20t-52 20t-20 52zM330 666q0 33 20 53t52 20t52.5 -20t20.5 -53q0 -32 -20.5 -52t-52.5 -20t-52 20t-20 52z" />
    <glyph glyph-name="Amacron" unicode="&#x100;" horiz-adv-x="721" 
d="M276 700h160l16 -17l206 -596l61 -10v-77h-316v71l61 26l-29 90h-214l-32 -100l66 -10v-77h-253v73l56 24zM309 458l-53 -164h146l-51 164q-6 20 -18 85h-5q-12 -63 -19 -85zM204 761v97h312v-97h-312z" />
    <glyph glyph-name="amacron" unicode="&#x101;" horiz-adv-x="543" 
d="M32 130q0 70 44 115t130 53l111 10v49q0 43 -16 61t-54 18q-14 0 -24.5 -2t-14.5 -4l-4 -3l-19 -76h-117v152q6 4 19 10.5t59.5 17t101.5 10.5q122 0 175.5 -50.5t53.5 -152.5v-211q0 -27 27 -27h32l8 -75q-36 -33 -109 -33q-79 0 -105 54q-67 -58 -154 -58
q-67 0 -105.5 38t-38.5 104zM108 612v96h311v-96h-311zM181 150q0 -24 13.5 -38t39.5 -14q40 0 83 30v96l-127 -28q-9 -24 -9 -46z" />
    <glyph glyph-name="Abreve" unicode="&#x102;" horiz-adv-x="721" 
d="M276 700h160l16 -17l206 -596l61 -10v-77h-316v71l61 26l-29 90h-214l-32 -100l66 -10v-77h-253v73l56 24zM309 458l-53 -164h146l-51 164q-6 20 -18 85h-5q-12 -63 -19 -85zM464 892l51 -19q-1 -5 -3.5 -13.5t-14 -29.5t-27.5 -37t-45 -29.5t-65 -13.5q-35 0 -64 12
t-45 29.5t-27 35t-15 29.5l-4 12l76 25q3 -6 9 -15t30.5 -24.5t54.5 -15.5t52 13.5t29 26.5z" />
    <glyph glyph-name="abreve" unicode="&#x103;" horiz-adv-x="543" 
d="M32 130q0 70 44 115t130 53l111 10v49q0 43 -16 61t-54 18q-14 0 -24.5 -2t-14.5 -4l-4 -3l-19 -76h-117v152q6 4 19 10.5t59.5 17t101.5 10.5q122 0 175.5 -50.5t53.5 -152.5v-211q0 -27 27 -27h32l8 -75q-36 -33 -109 -33q-79 0 -105 54q-67 -58 -154 -58
q-67 0 -105.5 38t-38.5 104zM363 737l51 -19q-1 -5 -3.5 -13t-14 -29t-27.5 -37.5t-45 -29.5t-65 -13q-35 0 -64 12t-45 29t-27.5 34.5t-15.5 29.5l-4 12l77 26q3 -6 9 -15.5t30 -25t55 -15.5q30 0 52 13.5t30 27.5zM181 150q0 -24 13.5 -38t39.5 -14q40 0 83 30v96
l-127 -28q-9 -24 -9 -46z" />
    <glyph glyph-name="Aogonek" unicode="&#x104;" horiz-adv-x="721" 
d="M634 -105q0 -44 36 -44q9 0 20 2t18 4l6 2l8 -41q-26 -29 -89 -29q-100 0 -100 86q0 22 7.5 43t18.5 35.5t22 25.5t19 16l7 5h-204v71l61 26l-29 90h-214l-32 -100l66 -10v-77h-253v73l56 24l218 603h160l16 -17l206 -596l61 -10v-77h-46q-39 -49 -39 -105zM309 458
l-53 -164h146l-51 164q-6 20 -18 85h-5q-12 -63 -19 -85z" />
    <glyph glyph-name="aogonek" unicode="&#x105;" horiz-adv-x="543" 
d="M458 -103q0 -44 36 -44q9 0 20 2t18 4l6 2l7 -41q-26 -29 -89 -29q-48 0 -74 22t-26 64q0 67 61 116q-64 4 -87 53q-67 -58 -154 -58q-67 0 -105.5 38t-38.5 104q0 70 44 115t130 53l111 10v49q0 43 -16 61t-54 18q-14 0 -24.5 -2t-14.5 -4l-4 -3l-19 -76h-117v152
q6 4 19 10.5t59.5 17t101.5 10.5q122 0 175.5 -50.5t53.5 -152.5v-211q0 -27 27 -27h32l8 -75q-18 -15 -50 -25q-36 -48 -36 -103zM181 150q0 -24 13.5 -38t39.5 -14q40 0 83 30v96l-127 -28q-9 -24 -9 -46z" />
    <glyph glyph-name="Cacute" unicode="&#x106;" horiz-adv-x="577" 
d="M443 484l-32 98q-35 18 -89 18q-26 0 -47.5 -5.5t-30.5 -10.5l-9 -6q-3 -6 -8 -19t-13 -72t-8 -139q0 -136 27.5 -192.5t98.5 -56.5q21 0 41.5 4t30.5 8l10 4l32 105h107l-15 -192q-91 -40 -199 -40q-147 0 -228.5 95t-81.5 268t81.5 267t228.5 94q49 0 98 -10t74 -20
l25 -11l14 -187h-107zM250 765l139 178l97 -97l-168 -110z" />
    <glyph glyph-name="cacute" unicode="&#x107;" horiz-adv-x="487" 
d="M337 351l-18 76q-9 8 -43 8q-20 0 -37.5 -3.5t-24.5 -7.5l-7 -4q-14 -46 -14 -132q0 -59 7.5 -98t23.5 -58.5t34 -26.5t45 -7q33 0 65.5 7t49.5 14l16 7l29 -82q-8 -6 -23 -15.5t-62.5 -25t-96.5 -15.5q-114 0 -185 75.5t-71 201.5q0 123 68.5 199.5t193.5 76.5
q44 0 85.5 -9t61.5 -18l20 -9v-154h-117zM205 591l140 178l96 -97l-168 -110z" />
    <glyph glyph-name="Ccircumflex" unicode="&#x108;" horiz-adv-x="577" 
d="M443 484l-32 98q-35 18 -89 18q-26 0 -47.5 -5.5t-30.5 -10.5l-9 -6q-3 -6 -8 -19t-13 -72t-8 -139q0 -136 27.5 -192.5t98.5 -56.5q21 0 41.5 4t30.5 8l10 4l32 105h107l-15 -192q-91 -40 -199 -40q-147 0 -228.5 95t-81.5 268t81.5 267t228.5 94q49 0 98 -10t74 -20
l25 -11l14 -187h-107zM171 765l148 168h20l149 -168l-68 -29l-91 71l-91 -71z" />
    <glyph glyph-name="ccircumflex" unicode="&#x109;" horiz-adv-x="487" 
d="M337 351l-18 76q-9 8 -43 8q-20 0 -37.5 -3.5t-24.5 -7.5l-7 -4q-14 -46 -14 -132q0 -59 7.5 -98t23.5 -58.5t34 -26.5t45 -7q33 0 65.5 7t49.5 14l16 7l29 -82q-8 -6 -23 -15.5t-62.5 -25t-96.5 -15.5q-114 0 -185 75.5t-71 201.5q0 123 68.5 199.5t193.5 76.5
q44 0 85.5 -9t61.5 -18l20 -9v-154h-117zM121 591l149 168h19l149 -168l-68 -29l-91 71l-91 -71z" />
    <glyph glyph-name="Cdotaccent" unicode="&#x10a;" horiz-adv-x="577" 
d="M443 484l-32 98q-35 18 -89 18q-26 0 -47.5 -5.5t-30.5 -10.5l-9 -6q-3 -6 -8 -19t-13 -72t-8 -139q0 -136 27.5 -192.5t98.5 -56.5q21 0 41.5 4t30.5 8l10 4l32 105h107l-15 -192q-91 -40 -199 -40q-147 0 -228.5 95t-81.5 268t81.5 267t228.5 94q49 0 98 -10t74 -20
l25 -11l14 -187h-107zM225 833q0 43 27.5 69.5t70.5 26.5t70.5 -26.5t27.5 -69.5q0 -42 -27.5 -68.5t-70.5 -26.5t-70.5 26.5t-27.5 68.5z" />
    <glyph glyph-name="cdotaccent" unicode="&#x10b;" horiz-adv-x="487" 
d="M337 351l-18 76q-9 8 -43 8q-20 0 -37.5 -3.5t-24.5 -7.5l-7 -4q-14 -46 -14 -132q0 -59 7.5 -98t23.5 -58.5t34 -26.5t45 -7q33 0 65.5 7t49.5 14l16 7l29 -82q-8 -6 -23 -15.5t-62.5 -25t-96.5 -15.5q-114 0 -185 75.5t-71 201.5q0 123 68.5 199.5t193.5 76.5
q44 0 85.5 -9t61.5 -18l20 -9v-154h-117zM171 674q0 43 27 69t71 26q43 0 70.5 -26.5t27.5 -68.5t-27.5 -68.5t-70.5 -26.5q-44 0 -71 26t-27 69z" />
    <glyph glyph-name="Ccaron" unicode="&#x10c;" horiz-adv-x="577" 
d="M443 484l-32 98q-35 18 -89 18q-26 0 -47.5 -5.5t-30.5 -10.5l-9 -6q-3 -6 -8 -19t-13 -72t-8 -139q0 -136 27.5 -192.5t98.5 -56.5q21 0 41.5 4t30.5 8l10 4l32 105h107l-15 -192q-91 -40 -199 -40q-147 0 -228.5 95t-81.5 268t81.5 267t228.5 94q49 0 98 -10t74 -20
l25 -11l14 -187h-107zM315 736l-139 158l53 44l96 -76l96 76l53 -44l-139 -158h-20z" />
    <glyph glyph-name="ccaron" unicode="&#x10d;" horiz-adv-x="487" 
d="M337 351l-18 76q-9 8 -43 8q-20 0 -37.5 -3.5t-24.5 -7.5l-7 -4q-14 -46 -14 -132q0 -59 7.5 -98t23.5 -58.5t34 -26.5t45 -7q33 0 65.5 7t49.5 14l16 7l29 -82q-8 -6 -23 -15.5t-62.5 -25t-96.5 -15.5q-114 0 -185 75.5t-71 201.5q0 123 68.5 199.5t193.5 76.5
q44 0 85.5 -9t61.5 -18l20 -9v-154h-117zM268 571l-139 159l53 43l96 -75l96 75l53 -43l-139 -159h-20z" />
    <glyph glyph-name="Dcaron" unicode="&#x10e;" horiz-adv-x="663" 
d="M338 0h-305v73l61 24v516l-61 10v77h304q135 0 216 -92t81 -258t-80.5 -258t-215.5 -92zM323 594h-65v-488h74q26 0 47 5t29 9l8 5q5 5 11.5 18t18 73t11.5 144q0 130 -30 182t-104 52zM297 736l-140 158l54 44l95 -76l96 76l53 -44l-139 -158h-19z" />
    <glyph glyph-name="dcaron" unicode="&#x10f;" horiz-adv-x="726" 
d="M559 77v-67l-193 -21l-14 14l7 43l-5 5q-71 -63 -152 -63q-80 0 -128.5 71t-48.5 187q0 142 68 218.5t176 76.5q43 0 79 -12v114l-54 30v67l199 21l14 -14v-640zM193 269q0 -93 15.5 -131t55.5 -38q49 0 84 44v265q-20 26 -74 26q-20 0 -37 -3.5t-24 -7.5l-7 -4
q-13 -36 -13 -151zM559 461l-26 33q8 7 20.5 18.5t33 42t20.5 54.5q-29 4 -45 24.5t-16 50.5q0 35 21.5 57t56.5 22t57 -24t22 -73q0 -39 -15 -74.5t-36 -58t-42 -40t-36 -25.5z" />
    <glyph glyph-name="Dcroat" unicode="&#x110;" horiz-adv-x="663" 
d="M33 302v87l61 19v205l-61 10v77h304q135 0 216 -92t81 -258t-80.5 -258t-215.5 -92h-305v73l61 24v205h-61zM323 594h-65v-186h108v-106h-108v-196h74q26 0 47 5t29 9l8 5q5 5 11.5 18t18 73t11.5 144q0 130 -30 182t-104 52z" />
    <glyph glyph-name="dcroat" unicode="&#x111;" horiz-adv-x="573" 
d="M227 566v78h121v15l-54 29v52l199 21l14 -14v-103h52v-78h-52v-459l52 -30v-67l-193 -21l-14 14l7 43l-5 5q-71 -63 -152 -63q-80 0 -128.5 71t-48.5 187q0 142 68 218.5t176 76.5q43 0 79 -12v37h-121zM193 269q0 -93 15.5 -131t55.5 -38q49 0 84 44v265q-20 26 -74 26
q-20 0 -37 -3.5t-24 -7.5l-7 -4q-13 -36 -13 -151z" />
    <glyph glyph-name="Emacron" unicode="&#x112;" horiz-adv-x="590" 
d="M556 0h-523v73l61 24v516l-61 10v77h508l15 -201h-107l-33 95h-158v-186h54l17 75h88v-256h-88l-17 75h-54v-196h172l32 100h109zM149 761v97h311v-97h-311z" />
    <glyph glyph-name="emacron" unicode="&#x113;" horiz-adv-x="509" 
d="M440 126l30 -82q-8 -6 -23.5 -15.5t-63.5 -25t-97 -15.5q-115 0 -188 75.5t-73 199.5q0 123 70 200.5t185 77.5q107 0 163.5 -71t40.5 -203l-45 -31h-247q3 -138 120 -138q29 0 61 7t49 14zM206 419q-13 -38 -13 -104l152 20q4 55 -15 77.5t-57 22.5q-20 0 -36.5 -4
t-23.5 -8zM118 612v96h312v-96h-312z" />
    <glyph glyph-name="Ebreve" unicode="&#x114;" horiz-adv-x="590" 
d="M556 0h-523v73l61 24v516l-61 10v77h508l15 -201h-107l-33 95h-158v-186h54l17 75h88v-256h-88l-17 75h-54v-196h172l32 100h109zM409 892l51 -19q-1 -5 -3.5 -13.5t-14 -29.5t-27.5 -37t-45 -29.5t-65 -13.5q-35 0 -64 12t-45 29.5t-27.5 35t-15.5 29.5l-4 12l77 25
q3 -6 9 -15t30.5 -24.5t54.5 -15.5t52 13.5t30 26.5z" />
    <glyph glyph-name="ebreve" unicode="&#x115;" horiz-adv-x="509" 
d="M440 126l30 -82q-8 -6 -23.5 -15.5t-63.5 -25t-97 -15.5q-115 0 -188 75.5t-73 199.5q0 123 70 200.5t185 77.5q107 0 163.5 -71t40.5 -203l-45 -31h-247q3 -138 120 -138q29 0 61 7t49 14zM206 419q-13 -38 -13 -104l152 20q4 55 -15 77.5t-57 22.5q-20 0 -36.5 -4
t-23.5 -8zM373 737l51 -19q-1 -5 -3.5 -13t-14 -29t-27.5 -37.5t-45 -29.5t-65 -13q-35 0 -64 12t-45 29t-27.5 34.5t-15.5 29.5l-4 12l77 26l3 -6q2 -4 10.5 -13.5t18 -17t26.5 -13.5t36 -6q30 0 52 13.5t30 27.5z" />
    <glyph glyph-name="Edotaccent" unicode="&#x116;" horiz-adv-x="590" 
d="M556 0h-523v73l61 24v516l-61 10v77h508l15 -201h-107l-33 95h-158v-186h54l17 75h88v-256h-88l-17 75h-54v-196h172l32 100h109zM206 832q0 43 27.5 69.5t70.5 26.5q44 0 71 -26.5t27 -69.5t-27 -69t-71 -26q-43 0 -70.5 26.5t-27.5 68.5z" />
    <glyph glyph-name="edotaccent" unicode="&#x117;" horiz-adv-x="509" 
d="M440 126l30 -82q-8 -6 -23.5 -15.5t-63.5 -25t-97 -15.5q-115 0 -188 75.5t-73 199.5q0 123 70 200.5t185 77.5q107 0 163.5 -71t40.5 -203l-45 -31h-247q3 -138 120 -138q29 0 61 7t49 14zM206 419q-13 -38 -13 -104l152 20q4 55 -15 77.5t-57 22.5q-20 0 -36.5 -4
t-23.5 -8zM170 674q0 42 27.5 68.5t70.5 26.5q44 0 71 -26t27 -69t-27 -69t-71 -26q-43 0 -70.5 26.5t-27.5 68.5z" />
    <glyph glyph-name="Eogonek" unicode="&#x118;" horiz-adv-x="590" 
d="M481 -105q0 -44 36 -44q9 0 20 2t17 4l7 2l8 -41q-26 -29 -89 -29q-100 0 -100 86q0 22 7.5 43t18.5 35.5t22 25.5t18 16l8 5h-421v73l61 24v516l-61 10v77h508l15 -201h-107l-33 95h-158v-186h54l17 75h88v-256h-88l-17 75h-54v-196h172l32 100h109l-15 -206h-36
q-39 -49 -39 -105z" />
    <glyph glyph-name="eogonek" unicode="&#x119;" horiz-adv-x="509" 
d="M383 -86q0 -44 36 -44q9 0 20 2t17 4l7 2l7 -41q-25 -29 -89 -29q-99 0 -99 85q0 55 40 97q-24 -2 -36 -2q-115 0 -188 75.5t-73 199.5q0 123 70 200.5t185 77.5q107 0 163.5 -71t40.5 -203l-45 -31h-247q3 -138 120 -138q29 0 61 7t49 14l18 7l30 -82q-20 -15 -51 -28
q-36 -57 -36 -102zM206 419q-13 -38 -13 -104l152 20q4 55 -15 77.5t-57 22.5q-20 0 -36.5 -4t-23.5 -8z" />
    <glyph glyph-name="Ecaron" unicode="&#x11a;" horiz-adv-x="590" 
d="M556 0h-523v73l61 24v516l-61 10v77h508l15 -201h-107l-33 95h-158v-186h54l17 75h88v-256h-88l-17 75h-54v-196h172l32 100h109zM294 736l-139 158l54 44l95 -76l96 76l53 -44l-139 -158h-20z" />
    <glyph glyph-name="ecaron" unicode="&#x11b;" horiz-adv-x="509" 
d="M440 126l30 -82q-8 -6 -23.5 -15.5t-63.5 -25t-97 -15.5q-115 0 -188 75.5t-73 199.5q0 123 70 200.5t185 77.5q107 0 163.5 -71t40.5 -203l-45 -31h-247q3 -138 120 -138q29 0 61 7t49 14zM206 419q-13 -38 -13 -104l152 20q4 55 -15 77.5t-57 22.5q-20 0 -36.5 -4
t-23.5 -8zM260 571l-139 159l53 43l95 -75l96 75l53 -43l-139 -159h-19z" />
    <glyph glyph-name="Gcircumflex" unicode="&#x11c;" horiz-adv-x="623" 
d="M550 282v-250q-10 -5 -27 -12.5t-70.5 -19.5t-106.5 -12q-153 0 -235 94t-82 268t81.5 268t228.5 94q49 0 98 -10t74 -20l25 -11l14 -187h-107l-32 98q-35 18 -89 18q-26 0 -47.5 -5.5t-30.5 -10.5l-9 -6q-3 -6 -8 -19t-13 -72t-8 -139q0 -136 27.5 -192.5t98.5 -56.5
q37 0 73 13v180l-76 10v76h282v-71zM171 765l149 168h20l148 -168l-67 -29l-91 71l-91 -71z" />
    <glyph glyph-name="gcircumflex" unicode="&#x11d;" horiz-adv-x="544" 
d="M533 590l-13 -117q-13 4 -35 4q-27 0 -58 -9q34 -43 34 -105q0 -84 -58 -131t-156 -47q-28 0 -58 5q-13 -17 -13 -37q0 -37 50 -37h116q87 0 137 -37.5t50 -111.5q0 -97 -85 -153t-229 -56q-103 0 -160.5 30.5t-57.5 92.5q0 49 31 81.5t69 49.5q-51 30 -51 90
q0 69 64 116q-80 48 -80 146q0 83 59 130t157 47q70 0 119 -24q61 77 136 77zM87 591l149 168h19l149 -168l-68 -29l-90 71l-91 -71zM213 -13q-13 0 -33 2q-31 -29 -31 -70q0 -29 20.5 -41.5t73.5 -12.5q29 0 59.5 3.5t46.5 6.5l16 3q16 26 16 57q0 52 -64 52h-104zM172 372
q0 -42 18 -61t60 -19q15 0 30 2t22 4l7 2q10 20 10 54q0 79 -77 79q-15 0 -30 -1.5t-22 -3.5l-8 -2q-10 -18 -10 -54z" />
    <glyph glyph-name="Gbreve" unicode="&#x11e;" horiz-adv-x="623" 
d="M550 282v-250q-10 -5 -27 -12.5t-70.5 -19.5t-106.5 -12q-153 0 -235 94t-82 268t81.5 268t228.5 94q49 0 98 -10t74 -20l25 -11l14 -187h-107l-32 98q-35 18 -89 18q-26 0 -47.5 -5.5t-30.5 -10.5l-9 -6q-3 -6 -8 -19t-13 -72t-8 -139q0 -136 27.5 -192.5t98.5 -56.5
q37 0 73 13v180l-76 10v76h282v-71zM426 892l52 -19q-1 -5 -3.5 -13.5t-14.5 -29.5t-27.5 -37t-44.5 -29.5t-65 -13.5q-35 0 -64 12t-45.5 29.5t-27.5 35t-15 29.5l-4 12l76 25q3 -6 9 -15t30.5 -24.5t54.5 -15.5q19 0 35 5.5t25.5 13.5t16.5 16t10 13z" />
    <glyph glyph-name="gbreve" unicode="&#x11f;" horiz-adv-x="544" 
d="M533 590l-13 -117q-13 4 -35 4q-27 0 -58 -9q34 -43 34 -105q0 -84 -58 -131t-156 -47q-28 0 -58 5q-13 -17 -13 -37q0 -37 50 -37h116q87 0 137 -37.5t50 -111.5q0 -97 -85 -153t-229 -56q-103 0 -160.5 30.5t-57.5 92.5q0 49 31 81.5t69 49.5q-51 30 -51 90
q0 69 64 116q-80 48 -80 146q0 83 59 130t157 47q70 0 119 -24q61 77 136 77zM350 737l52 -19q-1 -5 -3.5 -13t-14.5 -29t-27.5 -37.5t-44.5 -29.5t-65 -13q-35 0 -64 12t-45.5 29t-27.5 34.5t-15 29.5l-4 12l76 26l3 -6q2 -4 10.5 -13.5t18 -17t26.5 -13.5t36 -6
q30 0 52 13.5t29 27.5zM213 -13q-13 0 -33 2q-31 -29 -31 -70q0 -29 20.5 -41.5t73.5 -12.5q29 0 59.5 3.5t46.5 6.5l16 3q16 26 16 57q0 52 -64 52h-104zM172 372q0 -42 18 -61t60 -19q15 0 30 2t22 4l7 2q10 20 10 54q0 79 -77 79q-15 0 -30 -1.5t-22 -3.5l-8 -2
q-10 -18 -10 -54z" />
    <glyph glyph-name="Gdotaccent" unicode="&#x120;" horiz-adv-x="623" 
d="M550 282v-250q-10 -5 -27 -12.5t-70.5 -19.5t-106.5 -12q-153 0 -235 94t-82 268t81.5 268t228.5 94q49 0 98 -10t74 -20l25 -11l14 -187h-107l-32 98q-35 18 -89 18q-26 0 -47.5 -5.5t-30.5 -10.5l-9 -6q-3 -6 -8 -19t-13 -72t-8 -139q0 -136 27.5 -192.5t98.5 -56.5
q37 0 73 13v180l-76 10v76h282v-71zM232 832q0 43 27 69.5t71 26.5q43 0 70.5 -26.5t27.5 -69.5q0 -42 -27.5 -68.5t-70.5 -26.5q-44 0 -71 26t-27 69z" />
    <glyph glyph-name="gdotaccent" unicode="&#x121;" horiz-adv-x="544" 
d="M533 590l-13 -117q-13 4 -35 4q-27 0 -58 -9q34 -43 34 -105q0 -84 -58 -131t-156 -47q-28 0 -58 5q-13 -17 -13 -37q0 -37 50 -37h116q87 0 137 -37.5t50 -111.5q0 -97 -85 -153t-229 -56q-103 0 -160.5 30.5t-57.5 92.5q0 49 31 81.5t69 49.5q-51 30 -51 90
q0 69 64 116q-80 48 -80 146q0 83 59 130t157 47q70 0 119 -24q61 77 136 77zM145 674q0 43 27 69t71 26q43 0 70.5 -26.5t27.5 -68.5t-27.5 -68.5t-70.5 -26.5q-44 0 -71 26t-27 69zM213 -13q-13 0 -33 2q-31 -29 -31 -70q0 -29 20.5 -41.5t73.5 -12.5q29 0 59.5 3.5
t46.5 6.5l16 3q16 26 16 57q0 52 -64 52h-104zM172 372q0 -42 18 -61t60 -19q15 0 30 2t22 4l7 2q10 20 10 54q0 79 -77 79q-15 0 -30 -1.5t-22 -3.5l-8 -2q-10 -18 -10 -54z" />
    <glyph glyph-name="Gcommaaccent" unicode="&#x122;" horiz-adv-x="623" 
d="M550 282v-250q-10 -5 -27 -12.5t-70.5 -19.5t-106.5 -12q-153 0 -235 94t-82 268t81.5 268t228.5 94q49 0 98 -10t74 -20l25 -11l14 -187h-107l-32 98q-35 18 -89 18q-26 0 -47.5 -5.5t-30.5 -10.5l-9 -6q-3 -6 -8 -19t-13 -72t-8 -139q0 -136 27.5 -192.5t98.5 -56.5
q37 0 73 13v180l-76 10v76h282v-71zM293 -261l-21 26q6 5 16 14t25.5 32.5t15.5 42.5q-22 3 -34.5 19t-12.5 39q0 27 17 44t44 17t44 -18.5t17 -56.5q0 -48 -28 -87.5t-56 -55.5z" />
    <glyph glyph-name="gcommaaccent" unicode="&#x123;" horiz-adv-x="544" 
d="M533 590l-13 -117q-13 4 -35 4q-27 0 -58 -9q34 -43 34 -105q0 -84 -58 -131t-156 -47q-28 0 -58 5q-13 -17 -13 -37q0 -37 50 -37h116q87 0 137 -37.5t50 -111.5q0 -97 -85 -153t-229 -56q-103 0 -160.5 30.5t-57.5 92.5q0 49 31 81.5t69 49.5q-51 30 -51 90
q0 69 64 116q-80 48 -80 146q0 83 59 130t157 47q70 0 119 -24q61 77 136 77zM213 -13q-13 0 -33 2q-31 -29 -31 -70q0 -29 20.5 -41.5t73.5 -12.5q29 0 59.5 3.5t46.5 6.5l16 3q16 26 16 57q0 52 -64 52h-104zM299 797l20 -25q-6 -5 -15.5 -14.5t-25.5 -33t-16 -42.5
q22 -2 34.5 -18t12.5 -39q0 -27 -16.5 -44t-43.5 -17q-61 0 -61 75q0 30 11.5 57.5t27.5 45t32.5 30.5t28.5 19zM172 372q0 -42 18 -61t60 -19q15 0 30 2t22 4l7 2q10 20 10 54q0 79 -77 79q-15 0 -30 -1.5t-22 -3.5l-8 -2q-10 -18 -10 -54z" />
    <glyph glyph-name="Hcircumflex" unicode="&#x124;" horiz-adv-x="725" 
d="M258 87l61 -10v-77h-286v73l61 24v516l-61 10v77h286v-73l-61 -24v-195h209v205l-61 10v77h286v-73l-61 -24v-516l61 -10v-77h-286v73l61 24v205h-209v-215zM204 765l149 168h19l149 -168l-68 -29l-91 71l-91 -71z" />
    <glyph glyph-name="hcircumflex" unicode="&#x125;" horiz-adv-x="600" 
d="M19 673v67l198 21l14 -14v-218l-5 -32l2 -3q69 47 159 47q80 0 113.5 -43t33.5 -128v-288l52 -9v-73h-265v68l53 24v265q0 42 -12.5 58.5t-45.5 16.5q-48 0 -85 -29v-321l53 -9v-73h-265v68l53 24v551zM-20 804l149 168h20l148 -168l-67 -29l-91 71l-91 -71z" />
    <glyph glyph-name="Hbar" unicode="&#x126;" horiz-adv-x="725" 
d="M33 472v96h61v45l-61 10v77h286v-73l-61 -24v-35h209v45l-61 10v77h286v-73l-61 -24v-35h61v-96h-61v-385l61 -10v-77h-286v73l61 24v205h-209v-215l61 -10v-77h-286v73l61 24v375h-61zM258 408h209v64h-209v-64z" />
    <glyph glyph-name="hbar" unicode="&#x127;" horiz-adv-x="600" 
d="M19 580v77l62 20l24 73h126v-73h130v-97h-130v-51l-5 -32l2 -3q69 47 159 47q80 0 113.5 -43t33.5 -128v-288l52 -9v-73h-265v68l53 24v265q0 42 -12.5 58.5t-45.5 16.5q-48 0 -85 -29v-321l53 -9v-73h-265v68l53 24v488h-53z" />
    <glyph glyph-name="Itilde" unicode="&#x128;" horiz-adv-x="352" 
d="M258 87l61 -10v-77h-286v73l61 24v516l-61 10v77h286v-73l-61 -24v-516zM28 768l-37 40q3 4 7.5 11t20 24t31.5 30t40 24t48 11q28 0 68.5 -19.5t61.5 -19.5l58 42l36 -39q-3 -4 -7.5 -11t-19.5 -24t-31 -30t-40 -24t-47 -11q-27 0 -69 19.5t-61 19.5z" />
    <glyph glyph-name="itilde" unicode="&#x129;" horiz-adv-x="303" 
d="M-1 594l-37 40q3 4 7.5 11t20 24.5t31.5 30.5t40 24t48 11q28 0 68.5 -19.5t61.5 -19.5l58 42l36 -40q-3 -4 -7.5 -11t-19.5 -24t-31 -30t-40 -24t-47 -11q-27 0 -69 19.5t-61 19.5zM24 452v68l198 20l14 -14v-444l53 -9v-73h-265v68l52 24v330z" />
    <glyph glyph-name="Imacron" unicode="&#x12a;" horiz-adv-x="352" 
d="M258 87l61 -10v-77h-286v73l61 24v516l-61 10v77h286v-73l-61 -24v-516zM21 761v97h311v-97h-311z" />
    <glyph glyph-name="imacron" unicode="&#x12b;" horiz-adv-x="303" 
d="M-10 612v96h312v-96h-312zM24 452v68l198 20l14 -14v-444l53 -9v-73h-265v68l52 24v330z" />
    <glyph glyph-name="Ibreve" unicode="&#x12c;" horiz-adv-x="352" 
d="M258 87l61 -10v-77h-286v73l61 24v516l-61 10v77h286v-73l-61 -24v-516zM281 892l51 -19q-1 -5 -3.5 -13.5t-14.5 -29.5t-27.5 -37t-44.5 -29.5t-65 -13.5q-35 0 -64 12t-45.5 29.5t-27.5 35t-15 29.5l-4 12l76 25q3 -6 9 -15t30.5 -24.5t54.5 -15.5t52.5 13.5t30.5 26.5
z" />
    <glyph glyph-name="ibreve" unicode="&#x12d;" horiz-adv-x="303" 
d="M242 737l51 -19q-1 -5 -3.5 -13t-14.5 -29t-27.5 -37.5t-44.5 -29.5t-65 -13q-35 0 -64 12t-45.5 29t-27.5 34.5t-15 29.5l-4 12l76 26l3 -6q2 -4 10.5 -13.5t18 -17t26.5 -13.5t36 -6q30 0 52.5 13.5t29.5 27.5zM24 452v68l198 20l14 -14v-444l53 -9v-73h-265v68l52 24
v330z" />
    <glyph glyph-name="Iogonek" unicode="&#x12e;" horiz-adv-x="352" 
d="M235 -105q0 -44 36 -44q8 0 19 2t18 4l6 2l8 -41q-26 -29 -89 -29q-48 0 -74 22t-26 64q0 22 7.5 43t18.5 35.5t22 25.5t19 16l7 5h-174v73l61 24v516l-61 10v77h286v-73l-61 -24v-516l61 -10v-77h-46q-38 -49 -38 -105z" />
    <glyph glyph-name="iogonek" unicode="&#x12f;" horiz-adv-x="303" 
d="M175 -105q0 -44 36 -44q9 0 19.5 2t17.5 4l6 2l8 -41q-26 -29 -89 -29q-48 0 -74 22t-26 64q0 22 7.5 43t18.5 35.5t22 25.5t19 16l7 5h-123v68l52 24v330l-52 30v68l198 20l14 -14v-444l53 -9v-73h-76q-38 -49 -38 -105zM49 675q0 43 27.5 69t71.5 26q43 0 70.5 -26.5
t27.5 -68.5t-27.5 -68.5t-70.5 -26.5q-44 0 -71.5 26t-27.5 69z" />
    <glyph glyph-name="Idotaccent" unicode="&#x130;" horiz-adv-x="352" 
d="M258 87l61 -10v-77h-286v73l61 24v516l-61 10v77h286v-73l-61 -24v-516zM78 832q0 43 27.5 69.5t70.5 26.5t70.5 -26.5t27.5 -69.5q0 -42 -27.5 -68.5t-70.5 -26.5t-70.5 26.5t-27.5 68.5z" />
    <glyph glyph-name="dotlessi" unicode="&#x131;" horiz-adv-x="303" 
d="M24 452v68l198 20l14 -14v-444l53 -9v-73h-265v68l52 24v330z" />
    <glyph glyph-name="IJ" unicode="&#x132;" horiz-adv-x="704" 
d="M610 603v-647q0 -102 -57 -160t-162 -58q-30 0 -59.5 5t-43.5 10l-15 5l15 108q32 -17 82 -17q14 0 29 1.5t23 3.5l8 2q16 33 16 123v634l-61 10v77h286v-73zM258 87l61 -10v-77h-286v73l61 24v516l-61 10v77h286v-73l-61 -24v-516z" />
    <glyph glyph-name="ij" unicode="&#x133;" horiz-adv-x="595" 
d="M24 452v68l198 20l14 -14v-444l53 -9v-73h-265v68l52 24v330zM49 675q0 43 27.5 69t71.5 26q43 0 70.5 -26.5t27.5 -68.5t-27.5 -68.5t-70.5 -26.5q-44 0 -71.5 26t-27.5 69zM348 675q0 42 27.5 68.5t70.5 26.5t70.5 -26.5t27.5 -68.5t-27.5 -68.5t-70.5 -26.5
t-70.5 26.5t-27.5 68.5zM323 452v68l197 20l14 -14v-526q0 -130 -51.5 -186t-159.5 -56q-26 0 -51 3t-38 5l-12 3l17 117q38 -23 83 -23l34 4q19 29 19 133v422z" />
    <glyph glyph-name="Jcircumflex" unicode="&#x134;" horiz-adv-x="445" 
d="M356 603v-397q0 -102 -57 -160t-162 -58q-30 0 -59.5 5t-43.5 10l-15 5l16 108q32 -17 81 -17q14 0 29 1.5t23 3.5l8 2q16 33 16 123v382l-76 5v84h301v-73zM110 765l149 168h19l149 -168l-68 -29l-91 71l-91 -71z" />
    <glyph glyph-name="jcircumflex" unicode="&#x135;" horiz-adv-x="292" 
d="M19 452v68l198 20l14 -14v-526q0 -130 -51.5 -186t-159.5 -56q-26 0 -51 3t-37 5l-13 3l17 117q38 -23 83 -23l34 4q19 29 19 133v422zM-17 591l149 168h20l148 -168l-67 -29l-91 71l-91 -71z" />
    <glyph glyph-name="Kcommaaccent" unicode="&#x136;" horiz-adv-x="675" 
d="M258 87l61 -10v-77h-286v73l61 24v516l-61 10v77h286v-73l-61 -24v-205l61 18l138 197l-57 10v77h249v-73l-61 -24l-153 -216l172 -300l61 -10v-77h-201l-172 309h-37v-222zM312 -261l-20 26q6 5 15.5 14t25.5 32.5t16 42.5q-23 3 -35.5 19t-12.5 39q0 27 17.5 44
t43.5 17q27 0 44 -18.5t17 -56.5q0 -30 -11.5 -57.5t-27.5 -45t-32.5 -31t-27.5 -19.5z" />
    <glyph glyph-name="kcommaaccent" unicode="&#x137;" horiz-adv-x="576" 
d="M495 437l-101 -144l126 -211l49 -9v-73h-173l-135 228h-30v-146l53 -9v-73h-265v68l53 24v551l-53 30v67l198 21l14 -14v-431l52 19l83 112l-51 10v72h228v-68zM266 -261l-20 26q6 5 15.5 14t25.5 32.5t16 42.5q-22 3 -34.5 19t-12.5 39q0 27 17 44t44 17t43.5 -18.5
t16.5 -56.5q0 -30 -11.5 -57.5t-27.5 -45t-32.5 -31t-27.5 -19.5z" />
    <glyph glyph-name="Lacute" unicode="&#x139;" horiz-adv-x="569" 
d="M546 0h-513v73l61 24v516l-61 10v77h286v-73l-61 -24v-497h163l32 105h108zM99 765l140 178l96 -97l-168 -110z" />
    <glyph glyph-name="lacute" unicode="&#x13a;" horiz-adv-x="298" 
d="M19 673v67l198 21l14 -14v-665l53 -9v-73h-265v77l53 25v541zM61 804l139 178l97 -97l-168 -110z" />
    <glyph glyph-name="Lcommaaccent" unicode="&#x13b;" horiz-adv-x="569" 
d="M546 0h-513v73l61 24v516l-61 10v77h286v-73l-61 -24v-497h163l32 105h108zM263 -261l-20 26q6 5 15.5 14t25.5 32.5t16 42.5q-22 3 -34.5 19t-12.5 39q0 27 17 44t44 17t43.5 -18.5t16.5 -56.5q0 -48 -28 -87.5t-56 -55.5z" />
    <glyph glyph-name="lcommaaccent" unicode="&#x13c;" horiz-adv-x="298" 
d="M19 673v67l198 21l14 -14v-665l53 -9v-73h-265v77l53 25v541zM96 -261l-20 26q6 5 15.5 14t25.5 32.5t16 42.5q-23 3 -35.5 19t-12.5 39q0 27 17.5 44t43.5 17q27 0 44 -18.5t17 -56.5q0 -30 -11.5 -57.5t-27.5 -45t-32.5 -31t-27.5 -19.5z" />
    <glyph glyph-name="Lcaron" unicode="&#x13d;" horiz-adv-x="569" 
d="M546 0h-513v73l61 24v516l-61 10v77h286v-73l-61 -24v-497h163l32 105h108zM396 410l-26 33q8 7 20 18.5t32.5 41.5t20.5 54q-29 4 -45 25t-16 51q0 35 22 57t56 22q35 0 57.5 -24t22.5 -73q0 -39 -15 -74.5t-36 -58t-42 -40t-36 -24.5z" />
    <glyph glyph-name="lcaron" unicode="&#x13e;" horiz-adv-x="450" 
d="M19 673v67l198 21l14 -14v-665l53 -9v-73h-265v77l53 25v541zM288 461l-26 33q8 7 20.5 18.5t33 42t20.5 54.5q-29 4 -45 24.5t-16 50.5q0 35 21.5 57t56.5 22t57 -24t22 -73q0 -39 -15 -74.5t-36 -58t-42 -40t-36 -25.5z" />
    <glyph glyph-name="Ldot" unicode="&#x13f;" horiz-adv-x="569" 
d="M546 0h-513v73l61 24v516l-61 10v77h286v-73l-61 -24v-497h163l32 105h108zM379 360q0 41 25.5 66t64.5 25q40 0 65.5 -25t25.5 -66q0 -40 -25.5 -65.5t-65.5 -25.5q-39 0 -64.5 25.5t-25.5 65.5z" />
    <glyph glyph-name="Lslash" unicode="&#x141;" horiz-adv-x="574" 
d="M388 369l-125 -62v-201h163l32 105h107l-14 -211h-513v73l61 24v128l-43 -21l-39 89l82 41v279l-61 10v77h286v-73l-61 -24v-188l86 43z" />
    <glyph glyph-name="lslash" unicode="&#x142;" horiz-adv-x="322" 
d="M313 374l-73 -36v-256l54 -9v-73h-265v77l52 25v159l-38 -18l-33 89l71 34v277l-52 30v67l198 21l13 -14v-303l39 19z" />
    <glyph glyph-name="Nacute" unicode="&#x143;" horiz-adv-x="725" 
d="M215 87l66 -10v-77h-253v73l66 24v516l-66 10v77h222l230 -340q19 -32 28 -60l4 1q-2 19 -2 59v253l-66 10v77h253v-73l-66 -24v-603h-112l-272 409q-21 29 -30 59l-4 -1q2 -20 2 -58v-322zM284 765l139 178l97 -97l-169 -110z" />
    <glyph glyph-name="nacute" unicode="&#x144;" horiz-adv-x="609" 
d="M29 452v68l193 20l14 -14l-7 -43l4 -4q72 62 167 62q76 0 109.5 -43.5t33.5 -127.5v-288l52 -9v-73h-264v68l53 24v265q0 42 -13 58.5t-43 16.5q-49 0 -88 -49v-301l54 -9v-73h-265v68l52 24v330zM235 591l140 178l96 -97l-168 -110z" />
    <glyph glyph-name="Ncommaaccent" unicode="&#x145;" horiz-adv-x="725" 
d="M215 87l66 -10v-77h-253v73l66 24v516l-66 10v77h222l230 -340q19 -32 28 -60l4 1q-2 19 -2 59v253l-66 10v77h253v-73l-66 -24v-603h-112l-272 409q-21 29 -30 59l-4 -1q2 -20 2 -58v-322zM328 -261l-20 26q6 5 15.5 14t25.5 32.5t16 42.5q-22 3 -34.5 19t-12.5 39
q0 27 17 44t44 17t43.5 -18.5t16.5 -56.5q0 -30 -11.5 -57.5t-27.5 -45t-32.5 -31t-27.5 -19.5z" />
    <glyph glyph-name="ncommaaccent" unicode="&#x146;" horiz-adv-x="609" 
d="M29 452v68l193 20l14 -14l-7 -43l4 -4q72 62 167 62q76 0 109.5 -43.5t33.5 -127.5v-288l52 -9v-73h-264v68l53 24v265q0 42 -13 58.5t-43 16.5q-49 0 -88 -49v-301l54 -9v-73h-265v68l52 24v330zM259 -261l-21 26q6 5 15.5 14t25.5 32.5t16 42.5q-22 3 -34.5 19
t-12.5 39q0 27 17 44t44 17t43.5 -18.5t16.5 -56.5q0 -30 -11.5 -57.5t-27.5 -45t-32 -31t-28 -19.5z" />
    <glyph glyph-name="Ncaron" unicode="&#x147;" horiz-adv-x="725" 
d="M215 87l66 -10v-77h-253v73l66 24v516l-66 10v77h222l230 -340q19 -32 28 -60l4 1q-2 19 -2 59v253l-66 10v77h253v-73l-66 -24v-603h-112l-272 409q-21 29 -30 59l-4 -1q2 -20 2 -58v-322zM353 736l-139 158l53 44l95 -76l96 76l53 -44l-139 -158h-19z" />
    <glyph glyph-name="ncaron" unicode="&#x148;" horiz-adv-x="609" 
d="M29 452v68l193 20l14 -14l-7 -43l4 -4q72 62 167 62q76 0 109.5 -43.5t33.5 -127.5v-288l52 -9v-73h-264v68l53 24v265q0 42 -13 58.5t-43 16.5q-49 0 -88 -49v-301l54 -9v-73h-265v68l52 24v330zM299 571l-139 159l53 43l96 -75l96 75l53 -43l-139 -159h-20z" />
    <glyph glyph-name="Eng" unicode="&#x14a;" horiz-adv-x="725" 
d="M215 87l66 -10v-77h-253v73l66 24v516l-66 10v77h222l230 -340q19 -32 28 -60l4 1q-2 19 -2 59v253l-66 10v77h253v-73l-66 -24v-647q0 -102 -51.5 -160t-148.5 -58q-30 0 -59.5 5t-43.5 10l-15 5l16 108q32 -17 81 -17q14 0 29 1.5t23 3.5l8 2q16 33 16 123v70l-239 360
q-21 29 -30 59l-4 -1q2 -20 2 -58v-322z" />
    <glyph glyph-name="eng" unicode="&#x14b;" horiz-adv-x="604" 
d="M29 452v68l193 20l14 -14l-7 -43l4 -4q72 62 167 62q76 0 109.5 -43.5t33.5 -127.5v-370q0 -130 -51.5 -186t-159.5 -56q-26 0 -51 3t-37 5l-13 3l17 117q38 -23 83 -23l34 4q19 29 19 133v357q0 42 -13 58.5t-43 16.5q-49 0 -88 -49v-301l54 -9v-73h-265v68l52 24v330z
" />
    <glyph glyph-name="Omacron" unicode="&#x14c;" horiz-adv-x="650" 
d="M28 351q0 171 80.5 266t215.5 95t216 -95t81 -267t-80.5 -267t-215.5 -95t-216 96t-81 267zM205 349q0 -139 27 -194.5t101 -55.5q26 0 46.5 5.5t28.5 11.5l7 5q3 6 8 19.5t13 71.5t8 136q0 142 -27 197t-97 55q-26 0 -47.5 -5.5t-30.5 -10.5l-8 -6q-3 -6 -8 -19
t-13 -71.5t-8 -138.5zM169 761v97h312v-97h-312z" />
    <glyph glyph-name="omacron" unicode="&#x14d;" horiz-adv-x="554" 
d="M25 266q0 129 68.5 202t183.5 73t184 -73.5t69 -202.5q0 -130 -69 -203.5t-183 -73.5q-115 0 -184 74t-69 204zM193 267q0 -95 18.5 -134t70.5 -39q19 0 35.5 4t22.5 8l7 3q15 40 15 153q0 96 -19 134.5t-69 38.5q-18 0 -35 -3.5t-25 -7.5l-7 -4q-14 -39 -14 -153z
M121 612v96h311v-96h-311z" />
    <glyph glyph-name="Obreve" unicode="&#x14e;" horiz-adv-x="650" 
d="M28 351q0 171 80.5 266t215.5 95t216 -95t81 -267t-80.5 -267t-215.5 -95t-216 96t-81 267zM205 349q0 -139 27 -194.5t101 -55.5q26 0 46.5 5.5t28.5 11.5l7 5q3 6 8 19.5t13 71.5t8 136q0 142 -27 197t-97 55q-26 0 -47.5 -5.5t-30.5 -10.5l-8 -6q-3 -6 -8 -19
t-13 -71.5t-8 -138.5zM429 892l51 -19q-1 -5 -3.5 -13.5t-14 -29.5t-27.5 -37t-45 -29.5t-65 -13.5q-35 0 -64 12t-45 29.5t-27.5 35t-15.5 29.5l-4 12l77 25q3 -6 9 -15t30.5 -24.5t54.5 -15.5t52 13.5t30 26.5z" />
    <glyph glyph-name="obreve" unicode="&#x14f;" horiz-adv-x="554" 
d="M25 266q0 129 68.5 202t183.5 73t184 -73.5t69 -202.5q0 -130 -69 -203.5t-183 -73.5q-115 0 -184 74t-69 204zM193 267q0 -95 18.5 -134t70.5 -39q19 0 35.5 4t22.5 8l7 3q15 40 15 153q0 96 -19 134.5t-69 38.5q-18 0 -35 -3.5t-25 -7.5l-7 -4q-14 -39 -14 -153z
M381 737l51 -19q-1 -5 -3.5 -13t-14 -29t-27.5 -37.5t-45 -29.5t-65 -13q-35 0 -64 12t-45 29t-27.5 34.5t-15.5 29.5l-4 12l77 26q3 -6 9 -15.5t30 -25t55 -15.5q30 0 52 13.5t30 27.5z" />
    <glyph glyph-name="Ohungarumlaut" unicode="&#x150;" horiz-adv-x="650" 
d="M28 351q0 171 80.5 266t215.5 95t216 -95t81 -267t-80.5 -267t-215.5 -95t-216 96t-81 267zM205 349q0 -139 27 -194.5t101 -55.5q26 0 46.5 5.5t28.5 11.5l7 5q3 6 8 19.5t13 71.5t8 136q0 142 -27 197t-97 55q-26 0 -47.5 -5.5t-30.5 -10.5l-8 -6q-3 -6 -8 -19
t-13 -71.5t-8 -138.5zM155 765l110 178l96 -78l-139 -129zM329 765l110 178l96 -78l-139 -129z" />
    <glyph glyph-name="ohungarumlaut" unicode="&#x151;" horiz-adv-x="554" 
d="M25 266q0 129 68.5 202t183.5 73t184 -73.5t69 -202.5q0 -130 -69 -203.5t-183 -73.5q-115 0 -184 74t-69 204zM193 267q0 -95 18.5 -134t70.5 -39q19 0 35.5 4t22.5 8l7 3q15 40 15 153q0 96 -19 134.5t-69 38.5q-18 0 -35 -3.5t-25 -7.5l-7 -4q-14 -39 -14 -153z
M121 591l110 178l97 -78l-140 -129zM295 591l110 178l97 -78l-140 -129z" />
    <glyph glyph-name="OE" unicode="&#x152;" horiz-adv-x="903" 
d="M869 0h-455q-40 -12 -87 -12q-136 0 -217 96t-81 267t81 266t216 95q48 0 88 -12h440l15 -201h-107l-33 95h-151v-186h47l18 75h88v-256h-88l-18 75h-47v-196h165l33 100h108zM336 99q11 0 21.5 1t18 3t14 4t11 4.5t7.5 4.5t4 3l2 1v437q-28 43 -92 43q-26 0 -47.5 -5.5
t-30.5 -10.5l-8 -6q-3 -6 -8 -19t-13.5 -72.5t-8.5 -140.5q0 -137 28 -192t102 -55z" />
    <glyph glyph-name="oe" unicode="&#x153;" horiz-adv-x="833" 
d="M764 126l30 -82q-8 -6 -23.5 -15.5t-63.5 -25t-97 -15.5q-110 0 -165 68h-5q-53 -68 -162 -68q-115 0 -184 74t-69 204q0 129 68.5 202t183.5 73q108 0 162 -68h5q57 68 161 68q106 0 162 -71t40 -203l-44 -31h-248q3 -138 121 -138q29 0 61 7t49 14zM193 269
q0 -97 18.5 -136t71.5 -39q19 0 35 4t22 8l7 3q15 42 15 151q0 98 -19 136.5t-69 38.5q-18 0 -35 -3.5t-25 -7.5l-7 -4q-14 -41 -14 -151zM531 419q-15 -38 -15 -104l153 20q4 55 -15 77.5t-57 22.5q-20 0 -36.5 -4t-22.5 -8z" />
    <glyph glyph-name="Racute" unicode="&#x154;" horiz-adv-x="657" 
d="M258 87l61 -10v-77h-286v73l61 24v516l-61 10v77h313q112 0 179.5 -54.5t67.5 -153.5q0 -71 -37 -120.5t-102 -70.5l134 -214l61 -10v-77h-205l-148 285h-38v-198zM307 594h-49v-201h58q21 0 40 2t28 4l8 2q23 21 23 91q0 58 -23.5 80t-84.5 22zM235 765l139 178l97 -97
l-169 -110z" />
    <glyph glyph-name="racute" unicode="&#x155;" horiz-adv-x="431" 
d="M424 539l-13 -146q-21 8 -57 8q-63 0 -114 -32v-285l84 -5v-79h-295v68l52 24v330l-52 30v68l193 20l14 -14l-8 -70l5 -4q61 90 152 90zM165 591l139 178l97 -97l-169 -110z" />
    <glyph glyph-name="Rcommaaccent" unicode="&#x156;" horiz-adv-x="657" 
d="M258 87l61 -10v-77h-286v73l61 24v516l-61 10v77h313q112 0 179.5 -54.5t67.5 -153.5q0 -71 -37 -120.5t-102 -70.5l134 -214l61 -10v-77h-205l-148 285h-38v-198zM307 594h-49v-201h58q21 0 40 2t28 4l8 2q23 21 23 91q0 58 -23.5 80t-84.5 22zM302 -261l-20 26
q6 5 15.5 14t25.5 32.5t16 42.5q-22 3 -34.5 19t-12.5 39q0 27 17 44t44 17t43.5 -18.5t16.5 -56.5q0 -30 -11.5 -57.5t-27.5 -45t-32.5 -31t-27.5 -19.5z" />
    <glyph glyph-name="rcommaaccent" unicode="&#x157;" horiz-adv-x="431" 
d="M424 539l-13 -146q-21 8 -57 8q-63 0 -114 -32v-285l84 -5v-79h-295v68l52 24v330l-52 30v68l193 20l14 -14l-8 -70l5 -4q61 90 152 90zM121 -261l-20 26q6 5 15.5 14t25.5 32.5t16 42.5q-22 3 -34.5 19t-12.5 39q0 27 17 44t43 17q27 0 44 -18.5t17 -56.5
q0 -48 -28 -87.5t-56 -55.5z" />
    <glyph glyph-name="Rcaron" unicode="&#x158;" horiz-adv-x="657" 
d="M258 87l61 -10v-77h-286v73l61 24v516l-61 10v77h313q112 0 179.5 -54.5t67.5 -153.5q0 -71 -37 -120.5t-102 -70.5l134 -214l61 -10v-77h-205l-148 285h-38v-198zM307 594h-49v-201h58q21 0 40 2t28 4l8 2q23 21 23 91q0 58 -23.5 80t-84.5 22zM309 736l-140 158l54 44
l95 -76l96 76l53 -44l-139 -158h-19z" />
    <glyph glyph-name="rcaron" unicode="&#x159;" horiz-adv-x="431" 
d="M424 539l-13 -146q-21 8 -57 8q-63 0 -114 -32v-285l84 -5v-79h-295v68l52 24v330l-52 30v68l193 20l14 -14l-8 -70l5 -4q61 90 152 90zM234 571l-139 159l53 43l96 -75l95 75l54 -43l-140 -159h-19z" />
    <glyph glyph-name="Sacute" unicode="&#x15a;" horiz-adv-x="546" 
d="M357 174q0 21 -8.5 36.5t-27.5 27t-36 18t-47.5 17t-48.5 18.5q-154 66 -154 219q0 202 247 202q58 0 106.5 -11t67.5 -21l20 -11v-185h-111l-17 103q-23 15 -69 15q-17 0 -36 -3t-29 -5l-11 -3q-13 -23 -13 -58q0 -20 7 -36.5t15 -26.5t26.5 -21t30 -15.5t38 -14.5
t37.5 -15q83 -33 125.5 -80.5t42.5 -129.5q0 -207 -274 -207q-64 0 -115 10.5t-70 21.5l-19 11v188h107l27 -104q28 -13 87 -13q24 0 46 2.5t32 5.5l10 3q14 32 14 62zM194 765l139 178l97 -97l-168 -110z" />
    <glyph glyph-name="sacute" unicode="&#x15b;" horiz-adv-x="467" 
d="M306 134q0 25 -22.5 38t-77.5 31q-4 1 -6.5 2t-6 2t-6.5 2q-77 25 -113.5 62t-36.5 110q0 74 44 117t155 43q50 0 94.5 -9t63.5 -18l20 -9v-150h-117l-18 77q-19 8 -49 8q-14 0 -27 -2t-19 -4l-6 -3q-7 -15 -7 -30q0 -27 26 -43t85 -35q39 -13 63.5 -25t48 -31.5
t34.5 -48t11 -67.5q0 -164 -220 -164q-54 0 -99.5 9t-64.5 18l-19 9v152h116l18 -77q24 -8 63 -8q20 0 36 2t22 4l6 3q9 17 9 35zM154 591l139 178l97 -97l-168 -110z" />
    <glyph glyph-name="Scircumflex" unicode="&#x15c;" horiz-adv-x="546" 
d="M357 174q0 21 -8.5 36.5t-27.5 27t-36 18t-47.5 17t-48.5 18.5q-154 66 -154 219q0 202 247 202q58 0 106.5 -11t67.5 -21l20 -11v-185h-111l-17 103q-23 15 -69 15q-17 0 -36 -3t-29 -5l-11 -3q-13 -23 -13 -58q0 -20 7 -36.5t15 -26.5t26.5 -21t30 -15.5t38 -14.5
t37.5 -15q83 -33 125.5 -80.5t42.5 -129.5q0 -207 -274 -207q-64 0 -115 10.5t-70 21.5l-19 11v188h107l27 -104q28 -13 87 -13q24 0 46 2.5t32 5.5l10 3q14 32 14 62zM114 765l149 168h20l148 -168l-67 -29l-91 71l-91 -71z" />
    <glyph glyph-name="scircumflex" unicode="&#x15d;" horiz-adv-x="467" 
d="M306 134q0 25 -22.5 38t-77.5 31q-4 1 -6.5 2t-6 2t-6.5 2q-77 25 -113.5 62t-36.5 110q0 74 44 117t155 43q50 0 94.5 -9t63.5 -18l20 -9v-150h-117l-18 77q-19 8 -49 8q-14 0 -27 -2t-19 -4l-6 -3q-7 -15 -7 -30q0 -27 26 -43t85 -35q39 -13 63.5 -25t48 -31.5
t34.5 -48t11 -67.5q0 -164 -220 -164q-54 0 -99.5 9t-64.5 18l-19 9v152h116l18 -77q24 -8 63 -8q20 0 36 2t22 4l6 3q9 17 9 35zM79 591l149 168h19l149 -168l-67 -29l-91 71l-91 -71z" />
    <glyph glyph-name="Scedilla" unicode="&#x15e;" horiz-adv-x="546" 
d="M217 -87l9 74q-60 1 -108 12t-66 21l-18 10v188h107l27 -104q28 -13 87 -13q24 0 46 2.5t32 5.5l10 3q14 32 14 62q0 21 -8.5 36.5t-27.5 27t-36 18t-47.5 17t-48.5 18.5q-154 66 -154 219q0 202 247 202q58 0 106.5 -11t67.5 -21l20 -11v-185h-111l-17 103
q-23 15 -69 15q-17 0 -36 -3t-29 -5l-11 -3q-13 -23 -13 -58q0 -20 7 -36.5t15 -26.5t26.5 -21t30 -15.5t38 -14.5t37.5 -15q83 -33 125.5 -80.5t42.5 -129.5q0 -185 -219 -205l-7 -47q3 0 8.5 -0.5t19 -4.5t24 -11t19 -21t8.5 -33q0 -40 -34.5 -61.5t-96.5 -21.5
q-19 0 -36.5 2t-25.5 4l-8 2l14 68q17 -14 51 -14l27 3q3 9 3 21q0 16 -10.5 25.5t-20.5 11.5z" />
    <glyph glyph-name="scedilla" unicode="&#x15f;" horiz-adv-x="467" 
d="M182 -87l9 75q-46 2 -84.5 11t-54.5 17l-16 7v152h116l18 -77q24 -8 63 -8q20 0 36 2t22 4l6 3q9 17 9 35q0 25 -22.5 38t-77.5 31q-4 1 -6.5 2t-6 2t-6.5 2q-77 25 -113.5 62t-36.5 110q0 74 44 117t155 43q50 0 94.5 -9t63.5 -18l20 -9v-150h-117l-18 77q-19 8 -49 8
q-14 0 -27 -2t-19 -4l-6 -3q-7 -15 -7 -30q0 -27 26 -43t85 -35q39 -13 63.5 -25t48 -31.5t34.5 -48t11 -67.5q0 -149 -181 -163l-7 -46q3 0 8.5 -0.5t19.5 -4.5t24.5 -11t19 -21t8.5 -33q0 -40 -35 -61.5t-97 -21.5q-19 0 -36.5 2t-25.5 4l-8 2l14 68q17 -14 51 -14l27 3
q3 9 3 21q0 16 -10.5 25.5t-21.5 11.5z" />
    <glyph glyph-name="Scaron" unicode="&#x160;" horiz-adv-x="546" 
d="M357 174q0 21 -8.5 36.5t-27.5 27t-36 18t-47.5 17t-48.5 18.5q-154 66 -154 219q0 202 247 202q58 0 106.5 -11t67.5 -21l20 -11v-185h-111l-17 103q-23 15 -69 15q-17 0 -36 -3t-29 -5l-11 -3q-13 -23 -13 -58q0 -20 7 -36.5t15 -26.5t26.5 -21t30 -15.5t38 -14.5
t37.5 -15q83 -33 125.5 -80.5t42.5 -129.5q0 -207 -274 -207q-64 0 -115 10.5t-70 21.5l-19 11v188h107l27 -104q28 -13 87 -13q24 0 46 2.5t32 5.5l10 3q14 32 14 62zM259 736l-139 158l53 44l96 -76l95 76l54 -44l-140 -158h-19z" />
    <glyph glyph-name="scaron" unicode="&#x161;" horiz-adv-x="467" 
d="M306 134q0 25 -22.5 38t-77.5 31q-4 1 -6.5 2t-6 2t-6.5 2q-77 25 -113.5 62t-36.5 110q0 74 44 117t155 43q50 0 94.5 -9t63.5 -18l20 -9v-150h-117l-18 77q-19 8 -49 8q-14 0 -27 -2t-19 -4l-6 -3q-7 -15 -7 -30q0 -27 26 -43t85 -35q39 -13 63.5 -25t48 -31.5
t34.5 -48t11 -67.5q0 -164 -220 -164q-54 0 -99.5 9t-64.5 18l-19 9v152h116l18 -77q24 -8 63 -8q20 0 36 2t22 4l6 3q9 17 9 35zM221 571l-139 159l53 43l96 -75l96 75l53 -43l-139 -159h-20z" />
    <glyph glyph-name="Tcommaaccent" unicode="&#x162;" horiz-adv-x="624" 
d="M394 87l62 -10v-77h-287v73l61 24v497h-81l-33 -115h-107l15 221h577l15 -221h-107l-33 115h-82v-507zM257 -261l-21 26q6 5 16 14t26 32.5t16 42.5q-23 3 -35.5 19t-12.5 39q0 27 17.5 44t43.5 17q27 0 44 -18.5t17 -56.5q0 -48 -28 -87.5t-56 -55.5z" />
    <glyph glyph-name="tcommaaccent" unicode="&#x163;" horiz-adv-x="382" 
d="M14 423v87l52 19l24 107h135v-107h131v-106h-131v-261q0 -62 53 -62q15 0 33 4t29 8l11 4l17 -80q-6 -5 -16.5 -13t-48.5 -21.5t-80 -13.5q-157 0 -157 169v266h-52zM167 -261l-21 26q6 5 15.5 14t25.5 32.5t16 42.5q-22 3 -34.5 19t-12.5 39q0 27 17 44t44 17
t43.5 -18.5t16.5 -56.5q0 -30 -11.5 -57.5t-27.5 -45t-32 -31t-28 -19.5z" />
    <glyph glyph-name="Tcaron" unicode="&#x164;" horiz-adv-x="624" 
d="M394 87l62 -10v-77h-287v73l61 24v497h-81l-33 -115h-107l15 221h577l15 -221h-107l-33 115h-82v-507zM302 736l-139 158l53 44l95 -76l96 76l53 -44l-139 -158h-19z" />
    <glyph glyph-name="tcaron" unicode="&#x165;" horiz-adv-x="382" 
d="M14 423v87l52 19l24 107h135v-107h131v-106h-131v-261q0 -62 53 -62q15 0 33 4t29 8l11 4l17 -80q-6 -5 -16.5 -13t-48.5 -21.5t-80 -13.5q-157 0 -157 169v266h-52zM279 546l-18 24q52 44 52 82q-21 3 -32.5 18t-11.5 36q0 25 15.5 40.5t40.5 15.5t40.5 -17t15.5 -52
q0 -28 -10.5 -53.5t-25.5 -41.5t-30 -28.5t-25 -17.5z" />
    <glyph glyph-name="Tbar" unicode="&#x166;" horiz-adv-x="624" 
d="M126 312v97h104v185h-81l-33 -115h-107l15 221h577l15 -221h-107l-33 115h-82v-185h104v-97h-104v-225l62 -10v-77h-287v73l61 24v215h-104z" />
    <glyph glyph-name="tbar" unicode="&#x167;" horiz-adv-x="382" 
d="M14 423v87l52 19l24 107h135v-107h131v-106h-131v-74h131v-97h-131v-90q0 -62 53 -62q15 0 33 4t29 8l11 4l17 -80q-6 -5 -16.5 -13t-48.5 -21.5t-80 -13.5q-157 0 -157 169v95h-52v97h52v74h-52z" />
    <glyph glyph-name="Utilde" unicode="&#x168;" horiz-adv-x="710" 
d="M621 603v-339q0 -131 -72 -203.5t-194 -72.5q-120 0 -193 68.5t-73 189.5v367l-61 10v77h291v-73l-61 -24v-360q0 -83 27.5 -116t101.5 -33q29 0 50.5 4t28.5 8l7 5q28 37 28 151v351l-67 10v77h253v-73zM207 758l-37 40q3 4 7.5 11t20 24.5t31.5 30.5t40 24t48 11
q28 0 68.5 -19.5t61.5 -19.5l58 42l35 -40q-3 -4 -7.5 -11t-19.5 -24t-31 -30t-39.5 -24t-46.5 -11q-27 0 -69 19.5t-61 19.5z" />
    <glyph glyph-name="utilde" unicode="&#x169;" horiz-adv-x="591" 
d="M312 452v68l198 20l13 -14v-419l53 -30v-67l-193 -21l-14 14l8 43l-5 3q-71 -61 -164 -61q-76 0 -109 44t-33 128v262l-52 30v68l198 20l13 -14v-354q0 -40 12 -57t41 -17q46 0 86 45v279zM146 594l-37 40q3 4 7.5 11t20 24.5t31.5 30.5t40 24t48 11q28 0 68.5 -19.5
t61.5 -19.5l58 42l36 -40q-3 -4 -7.5 -11t-19.5 -24t-31 -30t-40 -24t-47 -11q-27 0 -69 19.5t-61 19.5z" />
    <glyph glyph-name="Umacron" unicode="&#x16a;" horiz-adv-x="710" 
d="M621 603v-339q0 -131 -72 -203.5t-194 -72.5q-120 0 -193 68.5t-73 189.5v367l-61 10v77h291v-73l-61 -24v-360q0 -83 27.5 -116t101.5 -33q29 0 50.5 4t28.5 8l7 5q28 37 28 151v351l-67 10v77h253v-73zM199 761v97h312v-97h-312z" />
    <glyph glyph-name="umacron" unicode="&#x16b;" horiz-adv-x="591" 
d="M312 452v68l198 20l13 -14v-419l53 -30v-67l-193 -21l-14 14l8 43l-5 3q-71 -61 -164 -61q-76 0 -109 44t-33 128v262l-52 30v68l198 20l13 -14v-354q0 -40 12 -57t41 -17q46 0 86 45v279zM139 612v96h311v-96h-311z" />
    <glyph glyph-name="Ubreve" unicode="&#x16c;" horiz-adv-x="710" 
d="M621 603v-339q0 -131 -72 -203.5t-194 -72.5q-120 0 -193 68.5t-73 189.5v367l-61 10v77h291v-73l-61 -24v-360q0 -83 27.5 -116t101.5 -33q29 0 50.5 4t28.5 8l7 5q28 37 28 151v351l-67 10v77h253v-73zM469 892l51 -19q-1 -5 -3.5 -13.5t-14 -29.5t-27.5 -37t-45 -29.5
t-65 -13.5q-35 0 -64 12t-45 29.5t-27.5 35t-15.5 29.5l-4 12l77 25q3 -6 9 -15t30 -24.5t55 -15.5q30 0 52 13.5t30 26.5z" />
    <glyph glyph-name="ubreve" unicode="&#x16d;" horiz-adv-x="591" 
d="M312 452v68l198 20l13 -14v-419l53 -30v-67l-193 -21l-14 14l8 43l-5 3q-71 -61 -164 -61q-76 0 -109 44t-33 128v262l-52 30v68l198 20l13 -14v-354q0 -40 12 -57t41 -17q46 0 86 45v279zM399 737l51 -19q-1 -5 -3.5 -13t-14.5 -29t-27.5 -37.5t-44.5 -29.5t-65 -13
q-35 0 -64 12t-45.5 29t-27.5 34.5t-15 29.5l-4 12l76 26l3 -6q2 -4 10.5 -13.5t18 -17t26.5 -13.5t36 -6q30 0 52.5 13.5t30.5 27.5z" />
    <glyph glyph-name="Uring" unicode="&#x16e;" horiz-adv-x="710" 
d="M621 603v-339q0 -131 -72 -203.5t-194 -72.5q-120 0 -193 68.5t-73 189.5v367l-61 10v77h291v-73l-61 -24v-360q0 -83 27.5 -116t101.5 -33q29 0 50.5 4t28.5 8l7 5q28 37 28 151v351l-67 10v77h253v-73zM264 830q0 43 27.5 68.5t71.5 25.5q46 0 73.5 -25.5t27.5 -68.5
t-27.5 -68.5t-73.5 -25.5q-45 0 -72 25.5t-27 68.5zM335 832q0 -36 31 -36l22 4q5 10 5 28q0 36 -30 36l-23 -5q-5 -10 -5 -27z" />
    <glyph glyph-name="uring" unicode="&#x16f;" horiz-adv-x="591" 
d="M312 452v68l198 20l13 -14v-419l53 -30v-67l-193 -21l-14 14l8 43l-5 3q-71 -61 -164 -61q-76 0 -109 44t-33 128v262l-52 30v68l198 20l13 -14v-354q0 -40 12 -57t41 -17q46 0 86 45v279zM187 659q0 43 27.5 68.5t71.5 25.5q45 0 73 -25.5t28 -68.5t-28 -68.5t-73 -25.5
t-72 25.5t-27 68.5zM258 661q0 -36 31 -36l22 4q5 10 5 28q0 36 -30 36l-23 -4q-5 -11 -5 -28z" />
    <glyph glyph-name="Uhungarumlaut" unicode="&#x170;" horiz-adv-x="710" 
d="M621 603v-339q0 -131 -72 -203.5t-194 -72.5q-120 0 -193 68.5t-73 189.5v367l-61 10v77h291v-73l-61 -24v-360q0 -83 27.5 -116t101.5 -33q29 0 50.5 4t28.5 8l7 5q28 37 28 151v351l-67 10v77h253v-73zM204 765l110 178l97 -78l-139 -129zM378 765l110 178l97 -78
l-139 -129z" />
    <glyph glyph-name="uhungarumlaut" unicode="&#x171;" horiz-adv-x="591" 
d="M312 452v68l198 20l13 -14v-419l53 -30v-67l-193 -21l-14 14l8 43l-5 3q-71 -61 -164 -61q-76 0 -109 44t-33 128v262l-52 30v68l198 20l13 -14v-354q0 -40 12 -57t41 -17q46 0 86 45v279zM298 591l110 178l97 -78l-139 -129zM124 591l110 178l97 -78l-139 -129z" />
    <glyph glyph-name="Uogonek" unicode="&#x172;" horiz-adv-x="710" 
d="M418 -100q0 -44 36 -44q9 0 20 2t18 4l6 2l7 -41q-26 -29 -89 -29q-48 0 -74 22t-26 64q0 61 52 108h-13q-120 0 -193 68.5t-73 189.5v367l-61 10v77h291v-73l-61 -24v-360q0 -83 27.5 -116t101.5 -33q29 0 50.5 4t28.5 8l7 5q28 37 28 151v351l-67 10v77h253v-73
l-66 -24v-339q0 -102 -44 -169t-123 -93q-10 -11 -23 -40.5t-13 -61.5z" />
    <glyph glyph-name="uogonek" unicode="&#x173;" horiz-adv-x="591" 
d="M492 -99q0 -43 36 -43l43 7l8 -40q-26 -29 -89 -29q-48 0 -74 22t-26 63q0 64 59 115l-66 -7l-14 14l8 43l-5 3q-71 -61 -164 -61q-76 0 -109 44t-33 128v262l-52 30v68l198 20l13 -14v-354q0 -40 12 -57t41 -17q46 0 86 45v279l-52 30v68l198 20l13 -14v-419l53 -30v-67
l-48 -6q-10 -12 -23 -41t-13 -62z" />
    <glyph glyph-name="Wcircumflex" unicode="&#x174;" horiz-adv-x="1051" 
d="M425 0h-159l-17 17l-182 591l-65 15v77h324v-73l-67 -16l87 -368q15 -59 17 -74h5q1 12 4 26t7 28t5 20l106 447h151l107 -447q14 -57 17 -74h5q1 12 4 25.5t7 28t5 20.5l81 370l-61 10v77h238v-73l-58 -24l-166 -603h-159l-16 17l-92 402q-12 45 -15 70h-5
q-2 -13 -15 -70zM405 765l149 168h20l148 -168l-67 -29l-91 71l-91 -71z" />
    <glyph glyph-name="wcircumflex" unicode="&#x175;" horiz-adv-x="863" 
d="M359 0h-147l-13 13l-143 429l-54 15v72h288v-68l-60 -16l50 -202q12 -48 16 -71h5q2 19 16 71l76 281h138l70 -281q15 -61 17 -71h5q2 14 9 40t8 31l47 204l-54 10v72h224v-68l-47 -24l-135 -437h-147l-13 13l-58 225q-12 49 -15 68h-5q-4 -28 -15 -68zM302 591l148 168
h20l149 -168l-68 -29l-91 71l-91 -71z" />
    <glyph glyph-name="Ycircumflex" unicode="&#x176;" horiz-adv-x="667" 
d="M595 603l-175 -311v-205l61 -10v-77h-286v73l61 24v193l-189 323l-59 10v77h321v-73l-70 -21l87 -158q17 -30 25 -49h4q4 10 23 51l78 163l-59 10v77h243v-73zM194 765l149 168h19l149 -168l-68 -29l-91 71l-90 -71z" />
    <glyph glyph-name="ycircumflex" unicode="&#x177;" horiz-adv-x="594" 
d="M246 -28l-193 475l-51 10v72h288v-68l-61 -21l75 -198q10 -26 22 -85h5q7 38 22 85l65 205l-54 10v72h223v-68l-45 -24l-163 -437q-53 -144 -99.5 -193t-133.5 -49q-29 0 -56.5 4t-41.5 8l-13 4l23 128q49 -23 142 -23q25 26 46 93zM153 591l149 168h19l149 -168l-68 -29
l-91 71l-91 -71z" />
    <glyph glyph-name="Ydieresis" unicode="&#x178;" horiz-adv-x="667" 
d="M595 603l-175 -311v-205l61 -10v-77h-286v73l61 24v193l-189 323l-59 10v77h321v-73l-70 -21l87 -158q17 -30 25 -49h4q4 10 23 51l78 163l-59 10v77h243v-73zM168 830q0 33 20 53t52 20q33 0 53.5 -20t20.5 -53q0 -32 -21 -52t-53 -20t-52 20t-20 52zM373 830
q0 33 20 53t52 20t52.5 -20t20.5 -53q0 -32 -20.5 -52t-52.5 -20t-52 20t-20 52z" />
    <glyph glyph-name="Zacute" unicode="&#x179;" horiz-adv-x="575" 
d="M29 0v63l304 531h-170l-32 -105h-107l15 211h498v-63l-304 -531h184l17 105h112v-211h-517zM209 765l139 178l97 -97l-169 -110z" />
    <glyph glyph-name="zacute" unicode="&#x17a;" horiz-adv-x="499" 
d="M34 0v58l236 370h-96l-18 -85h-116v186h417v-58l-235 -369h110l18 84h117v-186h-433zM170 591l140 178l96 -97l-168 -110z" />
    <glyph glyph-name="Zdotaccent" unicode="&#x17b;" horiz-adv-x="575" 
d="M29 0v63l304 531h-170l-32 -105h-107l15 211h498v-63l-304 -531h184l17 105h112v-211h-517zM189 832q0 43 27.5 69.5t71.5 26.5q43 0 70.5 -26.5t27.5 -69.5q0 -42 -27.5 -68.5t-70.5 -26.5q-44 0 -71.5 26t-27.5 69z" />
    <glyph glyph-name="zdotaccent" unicode="&#x17c;" horiz-adv-x="499" 
d="M34 0v58l236 370h-96l-18 -85h-116v186h417v-58l-235 -369h110l18 84h117v-186h-433zM151 674q0 42 27.5 68.5t70.5 26.5q44 0 71 -26t27 -69t-27 -69t-71 -26q-43 0 -70.5 26.5t-27.5 68.5z" />
    <glyph glyph-name="Zcaron" unicode="&#x17d;" horiz-adv-x="575" 
d="M29 0v63l304 531h-170l-32 -105h-107l15 211h498v-63l-304 -531h184l17 105h112v-211h-517zM278 735l-139 158l53 44l96 -76l95 76l53 -44l-139 -158h-19z" />
    <glyph glyph-name="zcaron" unicode="&#x17e;" horiz-adv-x="499" 
d="M34 0v58l236 370h-96l-18 -85h-116v186h417v-58l-235 -369h110l18 84h117v-186h-433zM241 571l-139 159l54 43l95 -75l96 75l53 -43l-139 -159h-20z" />
    <glyph glyph-name="uni018F" unicode="&#x18f;" horiz-adv-x="605" 
d="M579 350q0 -173 -81 -267.5t-220 -94.5q-149 0 -210 104t-28 270l39 27h322q0 121 -26 166.5t-96 45.5q-24 0 -45.5 -4t-30.5 -8l-9 -4l-33 -105h-107l15 192q91 40 200 40q147 0 228.5 -94.5t81.5 -267.5zM371 118q21 62 27 179l-206 -19q-16 -89 11.5 -133.5
t89.5 -44.5q20 0 39.5 4.5t29.5 9.5z" />
    <glyph glyph-name="florin" unicode="&#x192;" horiz-adv-x="431" 
d="M32 344l15 87l64 19l13 70q23 130 84 186t168 56q25 0 48.5 -2.5t34.5 -5.5l11 -2l-34 -111q-38 18 -77 18q-10 0 -18.5 -1.5t-12.5 -3.5l-3 -1q-23 -29 -41 -133l-13 -70h128l-19 -106h-128l-61 -344q-23 -130 -84 -186t-168 -56q-25 0 -48.5 2.5t-34.5 5.5l-11 2
l34 111q37 -18 76 -18q10 0 18.5 1.5t12.5 3.5l4 1q23 29 41 133l61 344h-60z" />
    <glyph glyph-name="uni01DD" unicode="&#x1dd;" horiz-adv-x="509" 
d="M69 403l-30 82q8 6 23.5 15.5t63.5 25t98 15.5q115 0 188 -75.5t73 -199.5q0 -122 -70.5 -200t-185.5 -78q-106 0 -162.5 71t-40.5 203l44 31h248q-3 139 -120 139q-30 0 -62 -7t-50 -15zM303 110q14 38 14 104l-153 -20q-4 -55 15 -77.5t57 -22.5q20 0 36.5 4t23.5 8z
" />
    <glyph glyph-name="Aringacute" unicode="&#x1fa;" horiz-adv-x="721" 
d="M260 735q0 40 23.5 65t63.5 28l85 124l88 -97l-85 -55q24 -26 24 -65q0 -26 -11 -48l4 -4l206 -596l61 -10v-77h-316v71l61 26l-29 90h-214l-32 -100l66 -10v-77h-253v73l56 24l213 589q-11 19 -11 49zM309 458l-53 -164h146l-51 164q-6 20 -18 85h-5q-12 -63 -19 -85z
M330 737q0 -36 32 -36l21 4q6 10 6 28q0 35 -31 35l-22 -4q-6 -10 -6 -27z" />
    <glyph glyph-name="aringacute" unicode="&#x1fb;" horiz-adv-x="543" 
d="M32 130q0 70 44 115t130 53l111 10v49q0 43 -16 61t-54 18q-14 0 -24.5 -2t-14.5 -4l-4 -3l-19 -76h-117v152q6 4 19 10.5t59.5 17t101.5 10.5q122 0 175.5 -50.5t53.5 -152.5v-211q0 -27 27 -27h32l8 -75q-36 -33 -109 -33q-79 0 -105 54q-67 -58 -154 -58
q-67 0 -105.5 38t-38.5 104zM170 652q0 42 24.5 67.5t66.5 27.5l84 120l87 -97l-85 -55q22 -25 22 -63q0 -43 -27.5 -68.5t-73.5 -25.5q-44 0 -71 25.5t-27 68.5zM181 150q0 -24 13.5 -38t39.5 -14q40 0 83 30v96l-127 -28q-9 -24 -9 -46zM240 655q0 -36 31 -36l22 4
q5 10 5 27q0 36 -30 36l-22 -4q-6 -10 -6 -27z" />
    <glyph glyph-name="AEacute" unicode="&#x1fc;" horiz-adv-x="839" 
d="M805 0h-473v71l62 26l-9 90h-157l-39 -100l66 -10v-77h-253v73l56 24l238 603h494l15 -201h-107l-33 95h-164l22 -186h52l18 75h83v-256h-83l-18 75h-38l25 -196h117l32 100h109zM326 458l-63 -164h115l-22 253h-5q-8 -47 -25 -89zM308 765l139 178l97 -97l-169 -110z
" />
    <glyph glyph-name="aeacute" unicode="&#x1fd;" horiz-adv-x="770" 
d="M701 126l30 -82q-8 -6 -22.5 -15.5t-61 -25t-93.5 -15.5q-116 0 -187 85q-81 -85 -190 -85q-68 0 -106.5 38t-38.5 105q0 71 45 114t129 53l102 11q3 27 13 60q-4 67 -74 67q-14 0 -24.5 -2t-14.5 -4l-4 -3l-19 -76h-117v152q6 4 19 10.5t59.5 17t101.5 10.5
q108 0 164 -42q59 42 138 42q101 0 155.5 -71t38.5 -203l-44 -31h-227q3 -138 111 -138q27 0 56 7t45 14zM336 591l139 178l97 -97l-168 -110zM181 150q0 -24 13.5 -38t39.5 -14q47 0 94 39q-16 39 -21 87l-117 -28q-9 -24 -9 -46zM487 419q-13 -38 -13 -104l132 20
q4 55 -13 77.5t-50 22.5q-16 0 -30 -4t-20 -8z" />
    <glyph glyph-name="Oslashacute" unicode="&#x1fe;" horiz-adv-x="650" 
d="M48 23l51 74q-70 95 -70 254q0 171 80.5 266t215.5 95q93 0 163 -47l32 47l83 -36l-51 -74q70 -93 70 -252q0 -172 -80.5 -267t-215.5 -95q-95 0 -163 47l-33 -47zM445 348q0 57 -4 93l-203 -296q29 -46 96 -46q26 0 46.5 5.5t27.5 11.5l8 5q3 6 8 19.5t13 71.5t8 136z
M206 349q0 -64 3 -91l203 297q-27 45 -91 45q-26 0 -47.5 -5.5t-29.5 -10.5l-9 -6q-3 -6 -8 -19t-13 -71.5t-8 -138.5zM246 765l139 178l97 -97l-169 -110z" />
    <glyph glyph-name="oslashacute" unicode="&#x1ff;" horiz-adv-x="554" 
d="M35 8l49 66q-59 73 -59 192q0 129 68.5 202t183.5 73q75 0 131 -32l31 41l81 -30l-49 -65q59 -71 59 -190q0 -130 -69 -203.5t-183 -73.5q-75 0 -133 32l-30 -40zM198 591l140 178l96 -97l-168 -110zM367 262q0 20 -2 52l-148 -199q20 -26 66 -26q20 0 37 4t24 8l8 4
q15 40 15 157zM188 267q0 -36 1 -52l149 199q-22 26 -64 26q-20 0 -38 -4t-26 -8l-8 -4q-14 -40 -14 -157z" />
    <glyph glyph-name="Scommaaccent" unicode="&#x218;" horiz-adv-x="546" 
d="M357 174q0 21 -8.5 36.5t-27.5 27t-36 18t-47.5 17t-48.5 18.5q-154 66 -154 219q0 202 247 202q58 0 106.5 -11t67.5 -21l20 -11v-185h-111l-17 103q-23 15 -69 15q-17 0 -36 -3t-29 -5l-11 -3q-13 -23 -13 -58q0 -20 7 -36.5t15 -26.5t26.5 -21t30 -15.5t38 -14.5
t37.5 -15q83 -33 125.5 -80.5t42.5 -129.5q0 -207 -274 -207q-64 0 -115 10.5t-70 21.5l-19 11v188h107l27 -104q28 -13 87 -13q24 0 46 2.5t32 5.5l10 3q14 32 14 62zM218 -261l-21 26q6 5 16 14t25.5 32.5t15.5 42.5q-22 3 -34.5 19t-12.5 39q0 27 17 44t44 17t44 -18.5
t17 -56.5q0 -30 -11.5 -57.5t-27.5 -45t-32.5 -31t-27.5 -19.5z" />
    <glyph glyph-name="scommaaccent" unicode="&#x219;" horiz-adv-x="467" 
d="M306 134q0 25 -22.5 38t-77.5 31q-4 1 -6.5 2t-6 2t-6.5 2q-77 25 -113.5 62t-36.5 110q0 74 44 117t155 43q50 0 94.5 -9t63.5 -18l20 -9v-150h-117l-18 77q-19 8 -49 8q-14 0 -27 -2t-19 -4l-6 -3q-7 -15 -7 -30q0 -27 26 -43t85 -35q39 -13 63.5 -25t48 -31.5
t34.5 -48t11 -67.5q0 -164 -220 -164q-54 0 -99.5 9t-64.5 18l-19 9v152h116l18 -77q24 -8 63 -8q20 0 36 2t22 4l6 3q9 17 9 35zM184 -261l-21 26q6 5 16 14t25.5 32.5t15.5 42.5q-22 3 -34.5 19t-12.5 39q0 27 17 44t44 17t44 -18.5t17 -56.5q0 -30 -11.5 -57.5t-27.5 -45
t-32.5 -31t-27.5 -19.5z" />
    <glyph glyph-name="uni021A" unicode="&#x21a;" horiz-adv-x="624" 
d="M394 87l62 -10v-77h-287v73l61 24v497h-81l-33 -115h-107l15 221h577l15 -221h-107l-33 115h-82v-507zM257 -261l-21 26q6 5 16 14t26 32.5t16 42.5q-23 3 -35.5 19t-12.5 39q0 27 17.5 44t43.5 17q27 0 44 -18.5t17 -56.5q0 -48 -28 -87.5t-56 -55.5z" />
    <glyph glyph-name="uni021B" unicode="&#x21b;" horiz-adv-x="382" 
d="M14 423v87l52 19l24 107h135v-107h131v-106h-131v-261q0 -62 53 -62q15 0 33 4t29 8l11 4l17 -80q-6 -5 -16.5 -13t-48.5 -21.5t-80 -13.5q-157 0 -157 169v266h-52zM167 -261l-21 26q6 5 15.5 14t25.5 32.5t16 42.5q-22 3 -34.5 19t-12.5 39q0 27 17 44t44 17
t43.5 -18.5t16.5 -56.5q0 -30 -11.5 -57.5t-27.5 -45t-32 -31t-28 -19.5z" />
    <glyph glyph-name="dotlessj" unicode="&#x237;" horiz-adv-x="292" 
d="M19 452v68l198 20l14 -14v-526q0 -130 -51.5 -186t-159.5 -56q-26 0 -51 3t-37 5l-13 3l17 117q38 -23 83 -23l34 4q19 29 19 133v422z" />
    <glyph glyph-name="circumflex" unicode="&#x2c6;" horiz-adv-x="420" 
d="M52 591l148 168h20l149 -168l-68 -29l-91 71l-91 -71z" />
    <glyph glyph-name="caron" unicode="&#x2c7;" horiz-adv-x="420" 
d="M200 571l-139 159l54 43l95 -75l96 75l53 -43l-139 -159h-20z" />
    <glyph glyph-name="breve" unicode="&#x2d8;" horiz-adv-x="420" 
d="M311 737l51 -19q-1 -5 -3.5 -13t-14 -29t-27.5 -37.5t-45 -29.5t-65 -13q-35 0 -64 12t-45 29t-27.5 34.5t-15.5 29.5l-4 12l77 26l3 -6q2 -4 10.5 -13.5t18 -17t26.5 -13.5t36 -6q30 0 52 13.5t30 27.5z" />
    <glyph glyph-name="dotaccent" unicode="&#x2d9;" horiz-adv-x="296" 
d="M49 674q0 43 27.5 69t71.5 26q43 0 70.5 -26.5t27.5 -68.5t-27.5 -68.5t-70.5 -26.5q-44 0 -71.5 26t-27.5 69z" />
    <glyph glyph-name="ring" unicode="&#x2da;" horiz-adv-x="565" 
d="M193 659q0 43 27.5 68.5t71.5 25.5q45 0 73 -25.5t28 -68.5t-28 -68.5t-73 -25.5t-72 25.5t-27 68.5zM264 661q0 -36 31 -36l22 4q5 10 5 28q0 36 -30 36l-23 -4q-5 -11 -5 -28z" />
    <glyph glyph-name="ogonek" unicode="&#x2db;" horiz-adv-x="348" 
d="M183 -105q0 -44 36 -44q8 0 19 2t18 4l6 2l8 -41q-26 -29 -89 -29q-48 0 -74 22t-26 64q0 22 7.5 43t18.5 35.5t22 25.5t19 16l7 5h66q-38 -49 -38 -105z" />
    <glyph glyph-name="tilde" unicode="&#x2dc;" horiz-adv-x="491" 
d="M97 594l-37 40q3 4 7.5 11t20 24.5t32 30.5t40.5 24t48 11q27 0 68 -19.5t61 -19.5l58 42l36 -40q-3 -4 -7.5 -11t-19.5 -24t-31 -30t-39.5 -24t-46.5 -11q-27 0 -69 19.5t-62 19.5z" />
    <glyph glyph-name="hungarumlaut" unicode="&#x2dd;" horiz-adv-x="506" 
d="M53 591l110 178l97 -78l-140 -129zM227 591l110 178l97 -78l-140 -129z" />
    <glyph glyph-name="uni0400" unicode="&#x400;" horiz-adv-x="590" 
d="M556 0h-523v73l61 24v516l-61 10v77h508l15 -201h-107l-33 95h-158v-186h54l17 75h88v-256h-88l-17 75h-54v-196h172l32 100h109zM137 846l96 97l140 -178l-68 -29z" />
    <glyph glyph-name="afii10023" unicode="&#x401;" horiz-adv-x="590" 
d="M556 0h-523v73l61 24v516l-61 10v77h508l15 -201h-107l-33 95h-158v-186h54l17 75h88v-256h-88l-17 75h-54v-196h172l32 100h109zM125 835q0 33 20 53t52 20t52.5 -20t20.5 -53q0 -32 -20.5 -52t-52.5 -20t-52 20t-20 52zM329 835q0 33 20.5 53t52.5 20t52.5 -20
t20.5 -53q0 -32 -20.5 -52t-52.5 -20t-52.5 20t-20.5 52z" />
    <glyph glyph-name="afii10051" unicode="&#x402;" horiz-adv-x="774" 
d="M582 187v30q0 50 -20 70.5t-72 20.5q-29 0 -53 -6t-33 -12l-10 -5v-198l62 -10v-77h-287v73l61 24v497h-81l-33 -115h-107l15 221h577l15 -221h-107l-33 115h-82v-204q52 25 137 25q100 0 157.5 -46t57.5 -136v-57q0 -188 -168 -188q-24 0 -47 4t-34 8l-11 4l11 104
q17 -9 44 -9l32 4q9 27 9 84z" />
    <glyph glyph-name="afii10052" unicode="&#x403;" horiz-adv-x="561" 
d="M197 765l140 178l96 -97l-168 -110zM258 89l76 -5v-84h-301v73l61 24v516l-61 10v77h504l15 -221h-107l-33 115h-154v-505z" />
    <glyph glyph-name="afii10053" unicode="&#x404;" horiz-adv-x="577" 
d="M443 484l-32 98q-35 18 -89 18q-26 0 -47.5 -5.5t-30.5 -10.5l-9 -6q-25 -40 -31 -170h96l17 75h88v-256h-88l-17 75h-96q4 -109 33 -156t95 -47q21 0 41.5 4t30.5 8l10 4l32 105h107l-15 -192q-91 -40 -199 -40q-147 0 -228.5 95t-81.5 268t81.5 267t228.5 94
q49 0 98 -10t74 -20l25 -11l14 -187h-107z" />
    <glyph glyph-name="afii10054" unicode="&#x405;" horiz-adv-x="546" 
d="M357 174q0 21 -8.5 36.5t-27.5 27t-36 18t-47.5 17t-48.5 18.5q-154 66 -154 219q0 202 247 202q58 0 106.5 -11t67.5 -21l20 -11v-185h-111l-17 103q-23 15 -69 15q-17 0 -36 -3t-29 -5l-11 -3q-13 -23 -13 -58q0 -20 7 -36.5t15 -26.5t26.5 -21t30 -15.5t38 -14.5
t37.5 -15q83 -33 125.5 -80.5t42.5 -129.5q0 -207 -274 -207q-64 0 -115 10.5t-70 21.5l-19 11v188h107l27 -104q28 -13 87 -13q24 0 46 2.5t32 5.5l10 3q14 32 14 62z" />
    <glyph glyph-name="afii10055" unicode="&#x406;" horiz-adv-x="352" 
d="M258 87l61 -10v-77h-286v73l61 24v516l-61 10v77h286v-73l-61 -24v-516z" />
    <glyph glyph-name="afii10056" unicode="&#x407;" horiz-adv-x="352" 
d="M6 835q0 33 20.5 53t52.5 20t52.5 -20t20.5 -53q0 -32 -20.5 -52t-52.5 -20t-52.5 20t-20.5 52zM201 835q0 33 20 53t52 20t52.5 -20t20.5 -53q0 -32 -20.5 -52t-52.5 -20t-52 20t-20 52zM257 87l61 -10v-77h-286v73l61 24v516l-61 10v77h286v-73l-61 -24v-516z" />
    <glyph glyph-name="afii10057" unicode="&#x408;" horiz-adv-x="445" 
d="M356 603v-397q0 -102 -57 -160t-162 -58q-30 0 -59.5 5t-43.5 10l-15 5l16 108q32 -17 81 -17q14 0 29 1.5t23 3.5l8 2q16 33 16 123v382l-76 5v84h301v-73z" />
    <glyph glyph-name="afii10058" unicode="&#x409;" horiz-adv-x="1000" 
d="M467 594h-151q0 -187 -11.5 -308t-37.5 -185.5t-58.5 -88.5t-82.5 -24q-23 0 -50 4t-43 8l-16 5l19 137q48 -29 113 -29q2 3 5.5 9.5t12.5 41t15.5 84t12 146.5t5.5 219l-61 10v77h553v-73l-61 -24v-188h99q112 0 179 -54.5t67 -153.5q0 -98 -67.5 -152.5t-179.5 -54.5
h-323v73l61 24v497zM691 307h-60v-201h69q20 0 39 2t27 4l9 3q24 23 24 91q0 57 -24 79t-84 22z" />
    <glyph glyph-name="afii10059" unicode="&#x40a;" horiz-adv-x="999" 
d="M466 613l-61 10v77h287v-73l-62 -24v-189h100q111 0 178.5 -54.5t67.5 -152.5t-67.5 -152.5t-179.5 -54.5h-324v73l61 24v210h-208v-220l61 -10v-77h-286v73l61 24v516l-61 10v77h286v-73l-61 -24v-189h208v199zM690 307h-60v-201h69q21 0 40 2t27 4l9 3q23 23 23 91
q0 57 -23.5 79t-84.5 22z" />
    <glyph glyph-name="afii10060" unicode="&#x40b;" horiz-adv-x="815" 
d="M394 87l62 -10v-77h-287v73l61 24v497h-81l-33 -115h-107l15 221h577l15 -221h-107l-33 115h-82v-204q51 25 133 25q98 0 154 -46t56 -136v-146l61 -10v-77h-287v73l62 24v120q0 49 -19.5 70t-68.5 21q-28 0 -50.5 -6t-31.5 -12l-9 -5v-198z" />
    <glyph glyph-name="afii10061" unicode="&#x40c;" horiz-adv-x="675" 
d="M259 765l140 178l96 -97l-168 -110zM258 87l61 -10v-77h-286v73l61 24v516l-61 10v77h286v-73l-61 -24v-205l61 18l138 197l-57 10v77h249v-73l-61 -24l-153 -216l172 -300l61 -10v-77h-201l-172 309h-37v-222z" />
    <glyph glyph-name="uni040D" unicode="&#x40d;" horiz-adv-x="725" 
d="M210 846l96 97l140 -178l-68 -29zM258 87l61 -10v-77h-286v73l61 24v516l-61 10v77h286v-73l-61 -24v-314l209 305v19l-61 10v77h286v-73l-61 -24v-516l61 -10v-77h-286v73l61 24v305l-209 -295v-20z" />
    <glyph glyph-name="afii10062" unicode="&#x40e;" horiz-adv-x="679" 
d="M350 750q-46 0 -81 14t-51.5 34.5t-27 41t-12.5 34.5l-2 14l105 9q9 -72 69 -72q61 0 70 72l105 -9q0 -6 -2 -15t-12.5 -33t-27.5 -42t-52 -33t-81 -15zM281 165l-218 448l-61 10v77h313v-73l-66 -21l96 -212q17 -38 25 -81h5q15 55 26 81l88 219l-62 10v77h236v-73
l-56 -24l-169 -374q-68 -149 -113 -195t-134 -46q-35 0 -66 5t-45 11l-14 5l25 136q61 -39 154 -39q21 17 36 59z" />
    <glyph glyph-name="afii10145" unicode="&#x40f;" horiz-adv-x="725" 
d="M296 0h-263v73l61 24v516l-61 10v77h286v-73l-61 -24v-497h209v507l-61 10v77h286v-73l-61 -24v-516l61 -10v-77h-262l-14 -150h-107z" />
    <glyph glyph-name="afii10017" unicode="&#x410;" horiz-adv-x="721" 
d="M276 700h160l16 -17l206 -596l61 -10v-77h-316v71l61 26l-29 90h-214l-32 -100l66 -10v-77h-253v73l56 24zM309 458l-53 -164h146l-51 164q-6 20 -18 85h-5q-12 -63 -19 -85z" />
    <glyph glyph-name="afii10018" unicode="&#x411;" horiz-adv-x="627" 
d="M94 613l-61 10v77h504l15 -221h-107l-33 115h-154v-179h99q112 0 179 -54.5t67 -153.5q0 -98 -67.5 -152.5t-179.5 -54.5h-323v73l61 24v516zM318 307h-60v-201h69q20 0 39 2t28 4l9 3q23 23 23 91q0 57 -24 79t-84 22z" />
    <glyph glyph-name="afii10019" unicode="&#x412;" horiz-adv-x="632" 
d="M357 0h-324v73l61 24v517l-61 9v77h303q112 0 179.5 -50t67.5 -141q0 -94 -71 -144q-6 -3 -19 -3v-3q10 0 19 -3q91 -51 91 -160q0 -93 -67 -144.5t-179 -51.5zM318 302h-60v-195h69q20 0 39 2.5t28 4.5l9 2q23 20 23 88q0 56 -23.5 77t-84.5 21zM298 594h-40v-186h49
q20 0 39 2t28 4l9 2q23 20 23 84q0 52 -24 73t-84 21z" />
    <glyph glyph-name="afii10020" unicode="&#x413;" horiz-adv-x="561" 
d="M258 89l76 -5v-84h-301v73l61 24v516l-61 10v77h504l15 -221h-107l-33 115h-154v-505z" />
    <glyph glyph-name="afii10021" unicode="&#x414;" horiz-adv-x="723" 
d="M563 0h-403l-27 -150h-107v256h87q6 10 13.5 25t20 56t21.5 93t16 140.5t7 192.5l-61 10v77h556v-73l-61 -24v-497h72v-256h-107zM461 594h-154q0 -312 -68 -488h222v488z" />
    <glyph glyph-name="afii10022" unicode="&#x415;" horiz-adv-x="590" 
d="M556 0h-523v73l61 24v516l-61 10v77h508l15 -201h-107l-33 95h-158v-186h54l17 75h88v-256h-88l-17 75h-54v-196h172l32 100h109z" />
    <glyph glyph-name="afii10024" unicode="&#x416;" horiz-adv-x="972" 
d="M404 398v215l-61 10v77h286v-73l-61 -24v-205l61 18l128 197l-57 10v77h249v-73l-61 -24l-143 -216l159 -300l61 -10v-77h-201l-158 309h-38v-222l61 -10v-77h-286v73l61 24v212h-38l-158 -309h-200v77l61 10l158 300l-143 216l-61 24v73h249v-77l-57 -10l128 -197z" />
    <glyph glyph-name="afii10025" unicode="&#x417;" horiz-adv-x="562" 
d="M256 100q21 0 41 2t29 4l10 3q20 23 20 92q0 58 -23 79.5t-85 21.5h-62l-14 14v92h65q21 0 40 2t28 4l9 2q22 19 22 86q0 52 -20.5 75.5t-66.5 23.5q-21 0 -41.5 -4t-31.5 -8l-10 -4l-32 -105h-107l15 192q90 40 212 40q123 0 191 -52t68 -148q0 -98 -71 -147
q-6 -3 -19 -3v-3q13 0 19 -3q91 -51 91 -160q0 -98 -77.5 -153t-203.5 -55q-54 0 -107.5 10t-79.5 20l-26 11l-15 187h107l33 -101q32 -15 92 -15z" />
    <glyph glyph-name="afii10026" unicode="&#x418;" horiz-adv-x="725" 
d="M258 87l61 -10v-77h-286v73l61 24v516l-61 10v77h286v-73l-61 -24v-314l209 305v19l-61 10v77h286v-73l-61 -24v-516l61 -10v-77h-286v73l61 24v305l-209 -295v-20z" />
    <glyph glyph-name="afii10027" unicode="&#x419;" horiz-adv-x="725" 
d="M362 750q-46 0 -81 14t-51.5 34.5t-27 41t-12.5 34.5l-2 14l105 9q9 -72 69 -72q61 0 70 72l105 -9q0 -6 -2 -15t-12.5 -33t-27.5 -42t-52 -33t-81 -15zM258 87l61 -10v-77h-286v73l61 24v516l-61 10v77h286v-73l-61 -24v-314l209 305v19l-61 10v77h286v-73l-61 -24v-516
l61 -10v-77h-286v73l61 24v305l-209 -295v-20z" />
    <glyph glyph-name="afii10028" unicode="&#x41a;" horiz-adv-x="675" 
d="M258 87l61 -10v-77h-286v73l61 24v516l-61 10v77h286v-73l-61 -24v-205l61 18l138 197l-57 10v77h249v-73l-61 -24l-153 -216l172 -300l61 -10v-77h-201l-172 309h-37v-222z" />
    <glyph glyph-name="afii10029" unicode="&#x41b;" horiz-adv-x="723" 
d="M465 594h-150q0 -192 -12 -313.5t-39 -185t-61 -85.5t-87 -22q-25 0 -50 4t-38 8l-12 5l19 137q47 -29 112 -29q2 3 5.5 9.5t12.5 41t16 84t12.5 146.5t5.5 219l-61 10v77h552v-73l-61 -24v-516l61 -10v-77h-286v73l61 24v497z" />
    <glyph glyph-name="afii10030" unicode="&#x41c;" horiz-adv-x="909" 
d="M195 87l67 -10l-1 -77h-253v73l66 24l51 516l-66 10v77h267l117 -387q14 -46 19 -75h5q9 52 17 80l115 382h253v-73l-62 -24l50 -516l61 -10v-77h-287v73l61 24l-35 353q-3 39 -3 48h-4q0 -21 -9 -48l-108 -375h-143l-16 17l-112 358q-9 33 -9 49h-4q0 -21 -2 -49z" />
    <glyph glyph-name="afii10031" unicode="&#x41d;" horiz-adv-x="725" 
d="M258 87l61 -10v-77h-286v73l61 24v516l-61 10v77h286v-73l-61 -24v-195h209v205l-61 10v77h286v-73l-61 -24v-516l61 -10v-77h-286v73l61 24v205h-209v-215z" />
    <glyph glyph-name="afii10032" unicode="&#x41e;" horiz-adv-x="650" 
d="M28 351q0 171 80.5 266t215.5 95t216 -95t81 -267t-80.5 -267t-215.5 -95t-216 96t-81 267zM205 349q0 -139 27 -194.5t101 -55.5q26 0 46.5 5.5t28.5 11.5l7 5q3 6 8 19.5t13 71.5t8 136q0 142 -27 197t-97 55q-26 0 -47.5 -5.5t-30.5 -10.5l-8 -6q-3 -6 -8 -19
t-13 -71.5t-8 -138.5z" />
    <glyph glyph-name="afii10033" unicode="&#x41f;" horiz-adv-x="725" 
d="M258 87l61 -10v-77h-286v73l61 24v516l-61 10v77h659v-73l-61 -24v-516l61 -10v-77h-286v73l61 24v497h-209v-507z" />
    <glyph glyph-name="afii10034" unicode="&#x420;" horiz-adv-x="626" 
d="M258 89l76 -5v-84h-301v73l61 24v516l-61 10v77h313q112 0 179.5 -56t67.5 -156q0 -101 -67.5 -157t-178.5 -56h-89v-186zM307 594h-49v-211h58q21 0 40 2t28 4l8 2q23 25 23 97q0 59 -23.5 82.5t-84.5 23.5z" />
    <glyph glyph-name="afii10035" unicode="&#x421;" horiz-adv-x="577" 
d="M443 484l-32 98q-35 18 -89 18q-26 0 -47.5 -5.5t-30.5 -10.5l-9 -6q-3 -6 -8 -19t-13 -72t-8 -139q0 -136 27.5 -192.5t98.5 -56.5q21 0 41.5 4t30.5 8l10 4l32 105h107l-15 -192q-91 -40 -199 -40q-147 0 -228.5 95t-81.5 268t81.5 267t228.5 94q49 0 98 -10t74 -20
l25 -11l14 -187h-107z" />
    <glyph glyph-name="afii10036" unicode="&#x422;" horiz-adv-x="624" 
d="M394 87l62 -10v-77h-287v73l61 24v497h-81l-33 -115h-107l15 221h577l15 -221h-107l-33 115h-82v-507z" />
    <glyph glyph-name="afii10037" unicode="&#x423;" horiz-adv-x="665" 
d="M281 165l-218 448l-61 10v77h313v-73l-66 -21l96 -212q17 -38 25 -81h5q15 55 26 81l88 219l-62 10v77h236v-73l-56 -24l-169 -374q-68 -149 -113 -195t-134 -46q-35 0 -66 5t-45 11l-14 5l25 136q61 -39 154 -39q21 17 36 59z" />
    <glyph glyph-name="afii10038" unicode="&#x424;" horiz-adv-x="788" 
d="M25 351q0 117 64 167.5t223 58.5v36l-61 10v77h286v-73l-61 -24v-26q158 -8 222 -58.5t64 -168.5q0 -119 -64 -169.5t-222 -58.5v-35l61 -10v-77h-286v73l61 24v26q-158 8 -222.5 59t-64.5 169zM594 347q0 58 -25.5 85t-92.5 34v-235q28 2 51 5.5t32 5.5l9 3
q26 29 26 102zM194 351q0 -57 25 -83.5t93 -34.5v234q-27 -2 -50 -5t-32 -5l-10 -2q-26 -30 -26 -104z" />
    <glyph glyph-name="afii10039" unicode="&#x425;" horiz-adv-x="687" 
d="M603 603l-156 -266l173 -250l60 -10v-77h-324v73l69 21l-87 148q-3 6 -12 20t-13 22h-4q-8 -18 -23 -44l-93 -153l59 -10v-77h-244v73l64 24l169 272l-165 244l-59 10v77h324v-73l-80 -21l94 -146q18 -26 24 -42h4q2 7 21 44l77 151l-58 10v77h244v-73z" />
    <glyph glyph-name="afii10040" unicode="&#x426;" horiz-adv-x="720" 
d="M559 0h-526v73l61 24v516l-61 10v77h286v-73l-61 -24v-497h199v507l-61 10v77h286v-73l-61 -24v-497h73v-256h-107z" />
    <glyph glyph-name="afii10041" unicode="&#x427;" horiz-adv-x="688" 
d="M243 603v-130q0 -49 20 -69.5t72 -20.5q29 0 53 5.5t34 11.5l9 5v208l-62 10v77h287v-73l-61 -24v-516l61 -10v-77h-287v73l62 24v204q-52 -26 -137 -26q-100 0 -157.5 46t-57.5 136v156l-61 10v77h286v-73z" />
    <glyph glyph-name="afii10042" unicode="&#x428;" horiz-adv-x="1044" 
d="M786 613l-61 10v77h287v-73l-62 -24v-516l62 -10v-77h-979v73l61 24v516l-61 10v77h286v-73l-61 -24v-497h182v507l-61 10v77h286v-73l-61 -24v-497h182v507z" />
    <glyph glyph-name="afii10043" unicode="&#x429;" horiz-adv-x="1049" 
d="M889 0h-856v73l61 24v516l-61 10v77h286v-73l-61 -24v-497h182v507l-61 10v77h286v-73l-61 -24v-497h182v507l-61 10v77h287v-73l-62 -24v-497h73v-256h-107z" />
    <glyph glyph-name="afii10044" unicode="&#x42a;" horiz-adv-x="763" 
d="M168 73l62 24v497h-81l-33 -115h-107l15 221h431v-73l-61 -24v-188h99q111 0 178.5 -55t67.5 -153t-67.5 -152.5t-179.5 -54.5h-324v73zM454 307h-60v-201h68q21 0 40 2t28 4l8 3q24 23 24 91q0 57 -24 79t-84 22z" />
    <glyph glyph-name="afii10045" unicode="&#x42b;" horiz-adv-x="931" 
d="M94 613l-61 10v77h286v-73l-61 -24v-188h99q112 0 179 -54.5t67 -153.5q0 -98 -67.5 -152.5t-179.5 -54.5h-323v73l61 24v516zM318 307h-60v-201h69q20 0 39 2t28 4l9 3q23 23 23 91q0 57 -24 79t-84 22zM837 87l62 -10v-77h-287v73l61 24v516l-61 10v77h287v-73l-62 -24
v-516z" />
    <glyph glyph-name="afii10046" unicode="&#x42c;" horiz-adv-x="627" 
d="M94 613l-61 10v77h286v-73l-61 -24v-188h99q112 0 179 -54.5t67 -153.5q0 -98 -67.5 -152.5t-179.5 -54.5h-323v73l61 24v516zM318 307h-60v-201h69q20 0 39 2t28 4l9 3q23 23 23 91q0 57 -24 79t-84 22z" />
    <glyph glyph-name="afii10047" unicode="&#x42d;" horiz-adv-x="577" 
d="M134 216l32 -98q35 -18 89 -18q26 0 47.5 5.5t30.5 10.5l9 6q25 41 31 180h-76l-18 -75h-88v256h88l18 -75h75q-5 103 -34 148t-93 45q-21 0 -41 -4t-30 -8l-10 -4l-33 -105h-107l15 192q91 40 199 40q147 0 229 -95t82 -268t-82 -267t-229 -94q-49 0 -98 10t-74 20
l-24 11l-15 187h107z" />
    <glyph glyph-name="afii10048" unicode="&#x42e;" horiz-adv-x="945" 
d="M258 87l61 -10v-77h-286v73l61 24v516l-61 10v77h286v-73l-61 -24v-195h96q13 145 89 224.5t193 79.5q129 0 206.5 -95.5t77.5 -266.5t-77.5 -266.5t-205.5 -95.5q-120 0 -196 82.5t-87 231.5h-96v-215zM530 346q0 -137 24.5 -192t90.5 -55q21 0 39 4.5t25 9.5l7 5
q26 52 26 234q0 140 -24 194t-87 54q-21 0 -39.5 -5t-27.5 -9l-8 -5q-26 -51 -26 -235z" />
    <glyph glyph-name="afii10049" unicode="&#x42f;" horiz-adv-x="640" 
d="M546 87l61 -10v-77h-287v73l62 24v198h-56l-127 -295h-191v77l61 10l108 223q-66 21 -103.5 69.5t-37.5 117.5q0 94 68 148.5t179 54.5h324v-73l-61 -24v-516zM322 403h60v191h-69q-21 0 -40 -2t-27 -4l-9 -3q-23 -21 -23 -85q0 -54 24 -75.5t84 -21.5z" />
    <glyph glyph-name="afii10065" unicode="&#x430;" horiz-adv-x="543" 
d="M32 130q0 70 44 115t130 53l111 10v49q0 43 -16 61t-54 18q-14 0 -24.5 -2t-14.5 -4l-4 -3l-19 -76h-117v152q6 4 19 10.5t59.5 17t101.5 10.5q122 0 175.5 -50.5t53.5 -152.5v-211q0 -27 27 -27h32l8 -75q-36 -33 -109 -33q-79 0 -105 54q-67 -58 -154 -58
q-67 0 -105.5 38t-38.5 104zM181 150q0 -24 13.5 -38t39.5 -14q40 0 83 30v96l-127 -28q-9 -24 -9 -46z" />
    <glyph glyph-name="afii10066" unicode="&#x431;" horiz-adv-x="562" 
d="M180 573q-20 -40 -22 -124h5q54 85 156 85q88 0 153 -68.5t65 -201.5q0 -132 -67.5 -204t-191.5 -72q-80 0 -132.5 32.5t-84 118.5t-31.5 229q0 62 5.5 111t17 85t26 62.5t37 44.5t45 29.5t53.5 19t60 12t68 9.5q32 4 49 6q17 10 25 23l72 -35q-14 -51 -58 -80.5
t-89.5 -37t-94 -18t-66.5 -26.5zM290 435q-52 0 -85 -42q-5 -30 -5 -89q0 -115 25 -162.5t73 -47.5q15 0 28.5 4t19.5 8l6 3q18 39 18 154q0 96 -18 134t-62 38z" />
    <glyph glyph-name="afii10067" unicode="&#x432;" 
d="M29 0v68l52 24v355l-52 10v72h281q93 0 149.5 -36.5t56.5 -98.5q0 -74 -64 -114q89 -38 89 -122q0 -73 -61 -115.5t-161 -42.5h-290zM310 226h-70v-129h70q20 0 35.5 2t20.5 4l6 2q8 15 8 50q0 38 -15 54.5t-55 16.5zM300 432h-60v-109h60q18 0 32 1.5t19 3.5l5 2
q7 12 7 42q0 32 -13.5 46t-49.5 14z" />
    <glyph glyph-name="afii10068" unicode="&#x433;" horiz-adv-x="473" 
d="M330 432h-90v-348l84 -5v-79h-295v68l52 24v355l-52 10v72h430v-186h-112z" />
    <glyph glyph-name="afii10069" unicode="&#x434;" horiz-adv-x="611" 
d="M457 0h-304l-28 -130h-107v227h76q2 2 6 7.5t13.5 30t16.5 59.5t13 102t6 151l-52 10v72h480v-68l-53 -24v-340h67v-227h-107zM260 432q0 -230 -41 -335h146v335h-105z" />
    <glyph glyph-name="afii10070" unicode="&#x435;" horiz-adv-x="509" 
d="M440 126l30 -82q-8 -6 -23.5 -15.5t-63.5 -25t-97 -15.5q-115 0 -188 75.5t-73 199.5q0 123 70 200.5t185 77.5q107 0 163.5 -71t40.5 -203l-45 -31h-247q3 -138 120 -138q29 0 61 7t49 14zM206 419q-13 -38 -13 -104l152 20q4 55 -15 77.5t-57 22.5q-20 0 -36.5 -4
t-23.5 -8z" />
    <glyph glyph-name="afii10072" unicode="&#x436;" horiz-adv-x="830" 
d="M170 290l-101 147l-53 24v68h233v-72l-42 -10l82 -117l46 -12v129l-52 10v72h264v-68l-53 -24v-119l47 12l81 117l-41 10v72h233v-68l-53 -24l-101 -147l113 -208l49 -9v-73h-170l-122 220h-36v-138l53 -9v-73h-264v68l52 24v128h-36l-121 -220h-170v73l49 9z" />
    <glyph glyph-name="afii10073" unicode="&#x437;" horiz-adv-x="504" 
d="M235 94q23 0 40 2t23 4l5 2q11 16 11 52q0 37 -16.5 53t-53.5 16h-52l-14 14v83h56q18 0 32 2t19 4l5 1q6 16 6 42q0 36 -17 51t-56 15l-42 -5l-18 -79h-116v154q70 36 191 36q212 0 212 -141q0 -82 -65 -123q90 -42 90 -133q0 -156 -239 -156q-60 0 -109 9t-67 19l-19 9
v153h117l18 -76q11 -8 59 -8z" />
    <glyph glyph-name="afii10074" unicode="&#x438;" horiz-adv-x="624" 
d="M293 461l-53 -24v-155q0 -32 -4 -49h4q11 30 25 49l119 150v15l-52 10v72h263v-68l-52 -24v-355l52 -9v-73h-263v68l52 24v155q0 27 5 50h-5q-8 -29 -24 -50l-120 -150v-15l53 -9v-73h-264v68l52 24v355l-52 10v72h264v-68z" />
    <glyph glyph-name="afii10075" unicode="&#x439;" horiz-adv-x="624" 
d="M311 592q-46 0 -81 14t-51.5 34.5t-27 41t-12.5 34.5l-2 14l105 8q9 -71 69 -71q61 0 70 71l105 -8q0 -6 -2 -15t-12.5 -33t-27.5 -42t-52 -33t-81 -15zM293 461l-53 -24v-155q0 -32 -4 -49h4q11 30 25 49l119 150v15l-52 10v72h263v-68l-52 -24v-355l52 -9v-73h-263v68
l52 24v155q0 27 5 50h-5q-8 -29 -24 -50l-120 -150v-15l53 -9v-73h-264v68l52 24v355l-52 10v72h264v-68z" />
    <glyph glyph-name="afii10076" unicode="&#x43a;" horiz-adv-x="582" 
d="M231 82l52 -9v-73h-264v68l53 24v355l-53 10v72h264v-68l-52 -24v-119l55 12l88 117l-46 10v72h233v-68l-53 -24l-109 -147l126 -208l49 -9v-73h-172l-136 220h-35v-138z" />
    <glyph glyph-name="afii10077" unicode="&#x43b;" horiz-adv-x="601" 
d="M149 447l-52 10v72h475v-68l-53 -24v-355l53 -9v-73h-264v68l52 24v340h-100q0 -243 -43 -343.5t-135 -100.5q-16 0 -35 3t-30 5l-11 3l15 125q28 -20 84 -20q2 3 5 9t10.5 32t13 60.5t10.5 99t5 142.5z" />
    <glyph glyph-name="afii10078" unicode="&#x43c;" horiz-adv-x="734" 
d="M694 461l-52 -24l33 -355l52 -9v-73h-263v68l52 24l-21 222q-4 51 0 77h-6q-5 -48 -13 -77l-57 -264h-139l-13 12l-63 252q-10 42 -10 77h-6q0 -27 -4 -77l-19 -232l52 -9v-73h-211v68l52 24l30 355l-52 10v72h247l64 -242q16 -67 19 -90h5q5 40 18 90l62 242h243v-68z
" />
    <glyph glyph-name="afii10079" unicode="&#x43d;" horiz-adv-x="624" 
d="M293 461l-53 -24v-119h144v129l-52 10v72h263v-68l-52 -24v-355l52 -9v-73h-263v68l52 24v125h-144v-135l53 -9v-73h-264v68l52 24v355l-52 10v72h264v-68z" />
    <glyph glyph-name="afii10080" unicode="&#x43e;" horiz-adv-x="554" 
d="M25 266q0 129 68.5 202t183.5 73t184 -73.5t69 -202.5q0 -130 -69 -203.5t-183 -73.5q-115 0 -184 74t-69 204zM193 267q0 -95 18.5 -134t70.5 -39q19 0 35.5 4t22.5 8l7 3q15 40 15 153q0 96 -19 134.5t-69 38.5q-18 0 -35 -3.5t-25 -7.5l-7 -4q-14 -39 -14 -153z" />
    <glyph glyph-name="afii10081" unicode="&#x43f;" horiz-adv-x="624" 
d="M81 447l-52 10v72h566v-68l-52 -24v-355l52 -9v-73h-263v68l52 24v340h-144v-350l53 -9v-73h-264v68l52 24v355z" />
    <glyph glyph-name="afii10082" unicode="&#x440;" horiz-adv-x="575" 
d="M14 452v68l193 20l14 -14l-7 -43l5 -5q71 63 152 63q80 0 129 -71t49 -187q0 -141 -68.5 -218t-177.5 -77q-43 0 -77 12v-146l83 -5v-79h-295v68l53 24v560zM381 244q0 104 -15.5 144.5t-56.5 40.5q-48 0 -83 -44v-266q21 -25 74 -25q20 0 37 4t23 8l7 3q14 47 14 135z
" />
    <glyph glyph-name="afii10083" unicode="&#x441;" horiz-adv-x="487" 
d="M337 351l-18 76q-9 8 -43 8q-20 0 -37.5 -3.5t-24.5 -7.5l-7 -4q-14 -46 -14 -132q0 -59 7.5 -98t23.5 -58.5t34 -26.5t45 -7q33 0 65.5 7t49.5 14l16 7l29 -82q-8 -6 -23 -15.5t-62.5 -25t-96.5 -15.5q-114 0 -185 75.5t-71 201.5q0 123 68.5 199.5t193.5 76.5
q44 0 85.5 -9t61.5 -18l20 -9v-154h-117z" />
    <glyph glyph-name="afii10084" unicode="&#x442;" horiz-adv-x="543" 
d="M401 432h-50v-350l52 -9v-73h-263v68l52 24v340h-50l-18 -89h-112v186h519v-186h-112z" />
    <glyph glyph-name="afii10085" unicode="&#x443;" horiz-adv-x="594" 
d="M246 -28l-193 475l-51 10v72h288v-68l-61 -21l75 -198q10 -26 22 -85h5q7 38 22 85l65 205l-54 10v72h223v-68l-45 -24l-163 -437q-53 -144 -99.5 -193t-133.5 -49q-29 0 -56.5 4t-41.5 8l-13 4l23 128q49 -23 142 -23q25 26 46 93z" />
    <glyph glyph-name="afii10086" unicode="&#x444;" horiz-adv-x="775" 
d="M498 -12q-11 0 -31 2v-158l53 -9v-73h-264v77l52 25v138q-20 -2 -30 -2q-115 0 -184 74t-69 204q0 129 68.5 202t183.5 73q21 0 31 -1v103l-52 30v67l197 21l14 -14v-208q20 2 31 2q115 0 183.5 -73t68.5 -203t-68.5 -203.5t-183.5 -73.5zM193 267q0 -95 18.5 -134
t70.5 -39q10 0 26 2v333q-15 6 -34 6t-35.5 -3.5t-24.5 -7.5l-7 -4q-14 -39 -14 -153zM495 435q-12 0 -28 -2v-333q15 -6 35 -6q19 0 35.5 4t22.5 8l7 3q15 40 15 153q0 97 -18.5 135t-68.5 38z" />
    <glyph glyph-name="afii10087" unicode="&#x445;" horiz-adv-x="584" 
d="M508 437l-116 -184l132 -171l48 -9v-73h-291v68l63 21l-50 74q-20 30 -25 40h-4q-9 -22 -23 -41l-54 -80l51 -9v-73h-224v68l54 24l124 186l-126 169l-48 10v72h290v-68l-63 -21l50 -75q19 -29 24 -39h3q7 14 22 41l45 80l-53 10v72h224v-68z" />
    <glyph glyph-name="afii10088" unicode="&#x446;" horiz-adv-x="624" 
d="M471 0h-442v68l52 24v355l-52 10v72h264v-68l-53 -24v-340h139v350l-52 10v72h264v-68l-53 -24v-340h67v-227h-107z" />
    <glyph glyph-name="afii10089" unicode="&#x447;" horiz-adv-x="604" 
d="M575 461l-52 -24v-355l52 -9v-73h-265v68l54 24v127q-79 -37 -148 -37q-73 0 -111.5 42.5t-38.5 123.5v99l-52 10v72h263v-68l-52 -24v-81q0 -37 12.5 -50.5t48.5 -13.5q43 0 78 16v139l-53 10v72h264v-68z" />
    <glyph glyph-name="afii10090" unicode="&#x448;" horiz-adv-x="892" 
d="M811 82l52 -9v-73h-834v68l52 24v355l-52 10v72h260v-68l-49 -24v-340h127v350l-49 10v72h256v-68l-48 -24v-340h126v350l-48 10v72h259v-68l-52 -24v-355z" />
    <glyph glyph-name="afii10091" unicode="&#x449;" horiz-adv-x="898" 
d="M743 0h-714v68l52 24v355l-52 10v72h260v-68l-49 -24v-340h127v350l-49 10v72h256v-68l-48 -24v-340h126v350l-48 10v72h259v-68l-52 -24v-340h67v-227h-107z" />
    <glyph glyph-name="afii10092" unicode="&#x44a;" horiz-adv-x="665" 
d="M12 529h395v-68l-52 -24v-109h64q100 0 161 -44t61 -119q0 -76 -61 -120.5t-161 -44.5h-275v68l52 24v340h-54l-18 -89h-112v186zM410 231h-55v-134h55q20 0 36.5 2t22.5 4l6 2q8 17 8 52q0 39 -16 56.5t-57 17.5z" />
    <glyph glyph-name="afii10093" unicode="&#x44b;" horiz-adv-x="820" 
d="M29 0v68l52 24v355l-52 10v72h264v-68l-53 -24v-109h65q100 0 160.5 -44t60.5 -119q0 -76 -60.5 -120.5t-160.5 -44.5h-276zM295 231h-55v-134h55q20 0 36.5 2t22.5 4l6 2q8 17 8 52q0 39 -16 56.5t-57 17.5zM791 461l-52 -24v-355l52 -9v-73h-263v68l52 24v355l-52 10
v72h263v-68z" />
    <glyph glyph-name="afii10094" unicode="&#x44c;" horiz-adv-x="551" 
d="M29 0v68l52 24v355l-52 10v72h264v-68l-53 -24v-109h65q100 0 160.5 -44t60.5 -119q0 -76 -60.5 -120.5t-160.5 -44.5h-276zM295 231h-55v-134h55q20 0 36.5 2t22.5 4l6 2q8 17 8 52q0 39 -16 56.5t-57 17.5z" />
    <glyph glyph-name="afii10095" unicode="&#x44d;" horiz-adv-x="492" 
d="M168 221v97h134q-7 66 -30 91.5t-64 25.5q-11 0 -19.5 -1.5t-12.5 -2.5l-3 -1l-18 -79h-117v154q70 36 179 36q250 0 250 -260q0 -139 -67.5 -216t-194.5 -77q-44 0 -85.5 9t-61.5 19l-20 9v153h117l18 -76q13 -8 45 -8q19 0 36.5 4t25.5 8l8 3q14 32 17 112h-137z" />
    <glyph glyph-name="afii10096" unicode="&#x44e;" horiz-adv-x="807" 
d="M293 461l-53 -24v-119h61q13 106 77 164.5t162 58.5q110 0 176.5 -73.5t66.5 -202.5q0 -130 -66 -203.5t-176 -73.5q-100 0 -164 60.5t-76 168.5h-61v-135l53 -9v-73h-264v68l52 24v355l-52 10v72h264v-68zM465 270q0 -98 17 -137t63 -39q16 0 30 4t20 8l6 3
q15 41 15 152q0 98 -17.5 136t-62.5 38q-16 0 -30.5 -3.5t-21.5 -7.5l-6 -4q-13 -41 -13 -150z" />
    <glyph glyph-name="afii10097" unicode="&#x44f;" horiz-adv-x="566" 
d="M16 73l49 9l73 154q-101 40 -101 136q0 73 60.5 115t160.5 42h279v-68l-52 -24v-355l52 -9v-73h-264v68l53 24v124h-58l-85 -216h-167v73zM195 378q0 -35 15.5 -50t57.5 -15h58v119h-58q-20 0 -36.5 -2t-22.5 -4l-6 -2q-8 -13 -8 -46z" />
    <glyph glyph-name="uni0450" unicode="&#x450;" horiz-adv-x="509" 
d="M440 126l30 -82q-8 -6 -23.5 -15.5t-63.5 -25t-97 -15.5q-115 0 -188 75.5t-73 199.5q0 123 70 200.5t185 77.5q107 0 163.5 -71t40.5 -203l-45 -31h-247q3 -138 120 -138q29 0 61 7t49 14zM206 419q-13 -38 -13 -104l152 20q4 55 -15 77.5t-57 22.5q-20 0 -36.5 -4
t-23.5 -8zM93 672l96 97l140 -178l-68 -29z" />
    <glyph glyph-name="afii10071" unicode="&#x451;" horiz-adv-x="509" 
d="M89 666q0 33 20 53t52 20t52.5 -20t20.5 -53q0 -32 -20.5 -52t-52.5 -20t-52 20t-20 52zM294 666q0 33 20 53t52 20t52.5 -20t20.5 -53q0 -32 -20.5 -52t-52.5 -20t-52 20t-20 52zM440 126l30 -82q-8 -6 -23.5 -15.5t-63.5 -25t-97 -15.5q-115 0 -188 75.5t-73 199.5
q0 123 70 200.5t185 77.5q107 0 163.5 -71t40.5 -203l-45 -31h-247q3 -138 120 -138q29 0 61 7t49 14zM206 419q-13 -38 -13 -104l152 20q4 55 -15 77.5t-57 22.5q-20 0 -36.5 -4t-23.5 -8z" />
    <glyph glyph-name="afii10099" unicode="&#x452;" horiz-adv-x="600" 
d="M19 580v77l62 20l24 73h126v-73h130v-97h-130v-51l-5 -32l2 -3q69 47 159 47q80 0 113.5 -43t33.5 -128v-370q0 -130 -51.5 -186t-159.5 -56q-26 0 -51 3t-38 5l-12 3l16 117q38 -23 83 -23l35 4q18 29 18 133v357q0 42 -12.5 58.5t-45.5 16.5q-48 0 -85 -29v-321l53 -9
v-73h-265v68l53 24v488h-53z" />
    <glyph glyph-name="afii10100" unicode="&#x453;" horiz-adv-x="473" 
d="M161 591l139 178l97 -97l-169 -110zM330 432h-90v-348l84 -5v-79h-295v68l52 24v355l-52 10v72h430v-186h-112z" />
    <glyph glyph-name="afii10101" unicode="&#x454;" horiz-adv-x="487" 
d="M337 351l-18 76q-9 8 -43 8q-20 0 -38 -3.5t-26 -7.5l-8 -4q-13 -35 -16 -102h179v-97h-176q9 -72 37.5 -97.5t77.5 -25.5q31 0 63 7t49 14l16 7l29 -82q-8 -6 -23 -15.5t-62.5 -25t-95.5 -15.5q-115 0 -186 75.5t-71 201.5q0 123 68.5 199.5t194.5 76.5q43 0 84.5 -9
t61.5 -18l20 -9v-154h-117z" />
    <glyph glyph-name="afii10102" unicode="&#x455;" horiz-adv-x="467" 
d="M306 134q0 25 -22.5 38t-77.5 31q-4 1 -6.5 2t-6 2t-6.5 2q-77 25 -113.5 62t-36.5 110q0 74 44 117t155 43q50 0 94.5 -9t63.5 -18l20 -9v-150h-117l-18 77q-19 8 -49 8q-14 0 -27 -2t-19 -4l-6 -3q-7 -15 -7 -30q0 -27 26 -43t85 -35q39 -13 63.5 -25t48 -31.5
t34.5 -48t11 -67.5q0 -164 -220 -164q-54 0 -99.5 9t-64.5 18l-19 9v152h116l18 -77q24 -8 63 -8q20 0 36 2t22 4l6 3q9 17 9 35z" />
    <glyph glyph-name="afii10103" unicode="&#x456;" horiz-adv-x="303" 
d="M24 452v68l198 20l14 -14v-444l53 -9v-73h-265v68l52 24v330zM49 675q0 43 27.5 69t71.5 26q43 0 70.5 -26.5t27.5 -68.5t-27.5 -68.5t-70.5 -26.5q-44 0 -71.5 26t-27.5 69z" />
    <glyph glyph-name="afii10104" unicode="&#x457;" horiz-adv-x="303" 
d="M-28 666q0 33 20 53t52 20t52.5 -20t20.5 -53q0 -32 -20.5 -52t-52.5 -20t-52 20t-20 52zM177 666q0 33 20 53t52 20t52.5 -20t20.5 -53q0 -32 -20.5 -52t-52.5 -20t-52 20t-20 52zM24 452v68l198 20l14 -14v-444l53 -9v-73h-265v68l52 24v330z" />
    <glyph glyph-name="afii10105" unicode="&#x458;" horiz-adv-x="292" 
d="M45 675q0 43 27 69t71 26q43 0 70.5 -26.5t27.5 -68.5t-27.5 -68.5t-70.5 -26.5q-44 0 -71 26t-27 69zM19 452v68l198 20l14 -14v-526q0 -130 -51.5 -186t-159.5 -56q-26 0 -51 3t-37 5l-13 3l17 117q38 -23 83 -23l34 4q19 29 19 133v422z" />
    <glyph glyph-name="afii10106" unicode="&#x459;" horiz-adv-x="816" 
d="M584 0h-276v68l52 24v340h-100q0 -243 -43 -343.5t-135 -100.5q-16 0 -35 3t-30 5l-11 3l15 125q28 -20 84 -20q2 3 5 9t10.5 32t13 60.5t10.5 99t5 142.5l-52 10v72h475v-68l-53 -24v-109h65q100 0 158.5 -44t58.5 -120q0 -77 -59 -120.5t-158 -43.5zM574 231h-55v-134
h55q19 0 34 2t20 4l6 2q8 19 8 52q0 38 -15.5 56t-52.5 18z" />
    <glyph glyph-name="afii10107" unicode="&#x45a;" horiz-adv-x="840" 
d="M607 0h-275v68l52 24v139h-144v-149l53 -9v-73h-264v68l52 24v355l-52 10v72h264v-68l-53 -24v-109h144v119l-52 10v72h263v-68l-52 -24v-109h64q100 0 158.5 -44t58.5 -120q0 -77 -58.5 -120.5t-158.5 -43.5zM598 231h-55v-134h55q19 0 34 2t20 4l6 2q8 19 8 52
q0 38 -16 56t-52 18z" />
    <glyph glyph-name="afii10108" unicode="&#x45b;" horiz-adv-x="600" 
d="M19 580v77l62 20l24 73h126v-73h130v-97h-130v-51l-5 -32l2 -3q69 47 159 47q80 0 113.5 -43t33.5 -128v-288l52 -9v-73h-265v68l53 24v265q0 42 -12.5 58.5t-45.5 16.5q-48 0 -85 -29v-321l53 -9v-73h-265v68l53 24v488h-53z" />
    <glyph glyph-name="afii10109" unicode="&#x45c;" horiz-adv-x="582" 
d="M231 82l52 -9v-73h-264v68l53 24v355l-53 10v72h264v-68l-52 -24v-119l55 12l88 117l-46 10v72h233v-68l-53 -24l-109 -147l126 -208l49 -9v-73h-172l-136 220h-35v-138zM218 591l139 178l97 -97l-168 -110z" />
    <glyph glyph-name="uni045D" unicode="&#x45d;" horiz-adv-x="624" 
d="M169 672l97 97l139 -178l-67 -29zM293 461l-53 -24v-155q0 -32 -4 -49h4q11 30 25 49l119 150v15l-52 10v72h263v-68l-52 -24v-355l52 -9v-73h-263v68l52 24v155q0 27 5 50h-5q-8 -29 -24 -50l-120 -150v-15l53 -9v-73h-264v68l52 24v355l-52 10v72h264v-68z" />
    <glyph glyph-name="afii10110" unicode="&#x45e;" horiz-adv-x="594" 
d="M301 592q-46 0 -81 14t-52 34.5t-27.5 41t-12.5 34.5l-2 14l106 8q8 -71 69 -71q32 0 48 17.5t21 53.5l106 -8q0 -6 -2 -15t-12.5 -33t-27.5 -42t-52 -33t-81 -15zM246 -28l-193 475l-51 10v72h288v-68l-61 -21l75 -198q10 -26 22 -85h5q7 38 22 85l65 205l-54 10v72h223
v-68l-45 -24l-163 -437q-53 -144 -99.5 -193t-133.5 -49q-29 0 -56.5 4t-41.5 8l-13 4l23 128q49 -23 142 -23q25 26 46 93z" />
    <glyph glyph-name="afii10193" unicode="&#x45f;" horiz-adv-x="624" 
d="M246 0h-217v68l52 24v355l-52 10v72h264v-68l-53 -24v-340h144v350l-52 10v72h263v-68l-52 -24v-355l52 -9v-73h-215l-14 -130h-107z" />
    <glyph glyph-name="afii10050" unicode="&#x490;" horiz-adv-x="519" 
d="M366 700l33 115h107l-15 -221h-233v-505l76 -5v-84h-301v73l61 24v516l-61 10v77h333z" />
    <glyph glyph-name="afii10098" unicode="&#x491;" horiz-adv-x="434" 
d="M240 432v-348l84 -5v-79h-295v68l52 24v355l-52 10v72h261l18 104h112v-201h-180z" />
    <glyph glyph-name="uni04D8" unicode="&#x4d8;" horiz-adv-x="605" 
d="M579 350q0 -173 -81 -267.5t-220 -94.5q-149 0 -210 104t-28 270l39 27h322q0 121 -26 166.5t-96 45.5q-24 0 -45.5 -4t-30.5 -8l-9 -4l-33 -105h-107l15 192q91 40 200 40q147 0 228.5 -94.5t81.5 -267.5zM371 118q21 62 27 179l-206 -19q-16 -89 11.5 -133.5
t89.5 -44.5q20 0 39.5 4.5t29.5 9.5z" />
    <glyph glyph-name="afii10846" unicode="&#x4d9;" horiz-adv-x="509" 
d="M69 403l-30 82q8 6 23.5 15.5t63.5 25t98 15.5q115 0 188 -75.5t73 -199.5q0 -122 -70.5 -200t-185.5 -78q-106 0 -162.5 71t-40.5 203l44 31h248q-3 139 -120 139q-30 0 -62 -7t-50 -15zM303 110q14 38 14 104l-153 -20q-4 -55 15 -77.5t57 -22.5q20 0 36.5 4t23.5 8z
" />
    <glyph glyph-name="Wgrave" unicode="&#x1e80;" horiz-adv-x="1051" 
d="M425 0h-159l-17 17l-182 591l-65 15v77h324v-73l-67 -16l87 -368q15 -59 17 -74h5q1 12 4 26t7 28t5 20l106 447h151l107 -447q14 -57 17 -74h5q1 12 4 25.5t7 28t5 20.5l81 370l-61 10v77h238v-73l-58 -24l-166 -603h-159l-16 17l-92 402q-12 45 -15 70h-5
q-2 -13 -15 -70zM407 846l96 97l140 -178l-68 -29z" />
    <glyph glyph-name="wgrave" unicode="&#x1e81;" horiz-adv-x="863" 
d="M359 0h-147l-13 13l-143 429l-54 15v72h288v-68l-60 -16l50 -202q12 -48 16 -71h5q2 19 16 71l76 281h138l70 -281q15 -61 17 -71h5q2 14 9 40t8 31l47 204l-54 10v72h224v-68l-47 -24l-135 -437h-147l-13 13l-58 225q-12 49 -15 68h-5q-4 -28 -15 -68zM305 672l96 97
l140 -178l-68 -29z" />
    <glyph glyph-name="Wacute" unicode="&#x1e82;" horiz-adv-x="1051" 
d="M425 0h-159l-17 17l-182 591l-65 15v77h324v-73l-67 -16l87 -368q15 -59 17 -74h5q1 12 4 26t7 28t5 20l106 447h151l107 -447q14 -57 17 -74h5q1 12 4 25.5t7 28t5 20.5l81 370l-61 10v77h238v-73l-58 -24l-166 -603h-159l-16 17l-92 402q-12 45 -15 70h-5
q-2 -13 -15 -70zM484 765l139 178l97 -97l-168 -110z" />
    <glyph glyph-name="wacute" unicode="&#x1e83;" horiz-adv-x="863" 
d="M359 0h-147l-13 13l-143 429l-54 15v72h288v-68l-60 -16l50 -202q12 -48 16 -71h5q2 19 16 71l76 281h138l70 -281q15 -61 17 -71h5q2 14 9 40t8 31l47 204l-54 10v72h224v-68l-47 -24l-135 -437h-147l-13 13l-58 225q-12 49 -15 68h-5q-4 -28 -15 -68zM384 591l139 178
l97 -97l-168 -110z" />
    <glyph glyph-name="Wdieresis" unicode="&#x1e84;" horiz-adv-x="1051" 
d="M425 0h-159l-17 17l-182 591l-65 15v77h324v-73l-67 -16l87 -368q15 -59 17 -74h5q1 12 4 26t7 28t5 20l106 447h151l107 -447q14 -57 17 -74h5q1 12 4 25.5t7 28t5 20.5l81 370l-61 10v77h238v-73l-58 -24l-166 -603h-159l-16 17l-92 402q-12 45 -15 70h-5
q-2 -13 -15 -70zM388 835q0 33 20.5 53t52.5 20t52.5 -20t20.5 -53q0 -32 -20.5 -52t-52.5 -20t-52.5 20t-20.5 52zM593 835q0 33 20 53t52 20q33 0 53.5 -20t20.5 -53q0 -32 -21 -52t-53 -20t-52 20t-20 52z" />
    <glyph glyph-name="wdieresis" unicode="&#x1e85;" horiz-adv-x="863" 
d="M359 0h-147l-13 13l-143 429l-54 15v72h288v-68l-60 -16l50 -202q12 -48 16 -71h5q2 19 16 71l76 281h138l70 -281q15 -61 17 -71h5q2 14 9 40t8 31l47 204l-54 10v72h224v-68l-47 -24l-135 -437h-147l-13 13l-58 225q-12 49 -15 68h-5q-4 -28 -15 -68zM287 666
q0 33 20.5 53t52.5 20t52.5 -20t20.5 -53q0 -32 -20.5 -52t-52.5 -20t-52.5 20t-20.5 52zM492 666q0 33 20 53t52 20q33 0 53.5 -20t20.5 -53q0 -32 -21 -52t-53 -20t-52 20t-20 52z" />
    <glyph glyph-name="Ygrave" unicode="&#x1ef2;" horiz-adv-x="667" 
d="M595 603l-175 -311v-205l61 -10v-77h-286v73l61 24v193l-189 323l-59 10v77h321v-73l-70 -21l87 -158q17 -30 25 -49h4q4 10 23 51l78 163l-59 10v77h243v-73zM185 846l97 97l139 -178l-68 -29z" />
    <glyph glyph-name="ygrave" unicode="&#x1ef3;" horiz-adv-x="594" 
d="M246 -28l-193 475l-51 10v72h288v-68l-61 -21l75 -198q10 -26 22 -85h5q7 38 22 85l65 205l-54 10v72h223v-68l-45 -24l-163 -437q-53 -144 -99.5 -193t-133.5 -49q-29 0 -56.5 4t-41.5 8l-13 4l23 128q49 -23 142 -23q25 26 46 93zM154 672l96 97l140 -178l-68 -29z" />
    <glyph glyph-name="endash" unicode="&#x2013;" horiz-adv-x="504" 
d="M52 262v96h400v-96h-400z" />
    <glyph glyph-name="emdash" unicode="&#x2014;" horiz-adv-x="754" 
d="M52 262v96h650v-96h-650z" />
    <glyph glyph-name="quoteleft" unicode="&#x2018;" horiz-adv-x="243" 
d="M186 733l26 -33q-8 -7 -20 -18.5t-32.5 -42t-20.5 -54.5q29 -4 45 -24.5t16 -50.5q0 -35 -21.5 -57t-56.5 -22t-57 24t-22 73q0 39 14.5 74.5t35.5 58t42.5 40t36.5 25.5z" />
    <glyph glyph-name="quoteright" unicode="&#x2019;" horiz-adv-x="243" 
d="M61 431l-26 33q8 7 20.5 18.5t33 42t20.5 54.5q-29 4 -45 24.5t-16 50.5q0 35 21.5 57t56.5 22t57 -24t22 -73q0 -39 -15 -74.5t-36 -58t-42 -40t-36 -25.5z" />
    <glyph glyph-name="quotesinglbase" unicode="&#x201a;" horiz-adv-x="243" 
d="M56 -69l-26 34q8 7 20.5 18.5t33 41.5t20.5 54q-29 4 -45 24.5t-16 50.5q0 36 21.5 57.5t56.5 21.5t57 -23.5t22 -73.5q0 -39 -15 -74t-36 -58t-42 -40.5t-36 -25.5z" />
    <glyph glyph-name="quotedblleft" unicode="&#x201c;" horiz-adv-x="430" 
d="M186 733l26 -33q-8 -7 -20 -18.5t-32.5 -42t-20.5 -54.5q29 -4 45 -24.5t16 -50.5q0 -35 -21.5 -57t-56.5 -22t-57 24t-22 73q0 39 14.5 74.5t35.5 58t42.5 40t36.5 25.5zM373 733l26 -33q-8 -7 -20 -18.5t-32.5 -42t-20.5 -54.5q29 -4 45 -24.5t16 -50.5
q0 -35 -21.5 -57t-56.5 -22t-57 24t-22 73q0 39 14.5 74.5t35.5 58t42.5 40t35.5 25.5z" />
    <glyph glyph-name="quotedblright" unicode="&#x201d;" horiz-adv-x="430" 
d="M61 431l-26 33q8 7 20.5 18.5t33 42t20.5 54.5q-29 4 -45 24.5t-16 50.5q0 35 21.5 57t56.5 22t57 -24t22 -73q0 -39 -15 -74.5t-36 -58t-42 -40t-36 -25.5zM249 431l-26 33q8 7 20 18.5t32.5 42t20.5 54.5q-29 4 -45 24.5t-16 50.5q0 35 21.5 57t56.5 22t57 -24t22 -73
q0 -39 -14.5 -74.5t-35.5 -58t-42.5 -40t-35.5 -25.5z" />
    <glyph glyph-name="quotedblbase" unicode="&#x201e;" horiz-adv-x="430" 
d="M56 -69l-26 34q8 7 20.5 18.5t33 41.5t20.5 54q-29 4 -45 24.5t-16 50.5q0 36 21.5 57.5t56.5 21.5t57 -23.5t22 -73.5q0 -39 -15 -74t-36 -58t-42 -40.5t-36 -25.5zM244 -69l-26 34q8 7 20 18.5t32.5 41.5t20.5 54q-29 4 -45 24.5t-16 50.5q0 36 21.5 57.5t56.5 21.5
t57 -23.5t22 -73.5q0 -39 -14.5 -74t-35.5 -58t-42.5 -40.5t-36.5 -25.5z" />
    <glyph glyph-name="dagger" unicode="&#x2020;" horiz-adv-x="541" 
d="M203 700h135l-19 -190l189 20v-136l-189 20l19 -223l-19 -291h-97l-19 291l19 223l-189 -20v136l189 -20z" />
    <glyph glyph-name="daggerdbl" unicode="&#x2021;" horiz-adv-x="542" 
d="M203 700h135l-19 -190l189 20v-136l-189 20l19 -113l-19 -114l189 19v-135l-189 19l19 -190h-135l19 190l-189 -19v135l189 -19l-19 114l19 113l-189 -20v136l189 -20z" />
    <glyph glyph-name="bullet" unicode="&#x2022;" horiz-adv-x="351" 
d="M66 300q0 49 30.5 78.5t79.5 29.5q48 0 78 -29.5t30 -78.5t-30 -79.5t-78 -30.5t-79 30.5t-31 79.5z" />
    <glyph glyph-name="ellipsis" unicode="&#x2026;" horiz-adv-x="758" 
d="M36 81q0 40 25.5 65t65.5 25q39 0 64.5 -25t25.5 -65q0 -41 -25.5 -66t-64.5 -25q-40 0 -65.5 25t-25.5 66zM288 81q0 40 25.5 65t64.5 25q40 0 65.5 -25t25.5 -65q0 -41 -25.5 -66t-65.5 -25q-39 0 -64.5 25t-25.5 66zM539 81q0 40 25.5 65t64.5 25q40 0 65.5 -25
t25.5 -65q0 -41 -25.5 -66t-65.5 -25q-39 0 -64.5 25t-25.5 66z" />
    <glyph glyph-name="perthousand" unicode="&#x2030;" horiz-adv-x="1198" 
d="M241 0h-116l463 700h116zM34 526q0 87 46 135.5t124 48.5q77 0 123.5 -49t46.5 -136t-46.5 -136t-122.5 -49q-78 0 -124.5 49t-46.5 137zM154 526q0 -55 11.5 -77t41.5 -22q11 0 20 2t13 4l4 2q8 22 8 88q0 57 -11 78.5t-39 21.5q-11 0 -20.5 -2.5t-13.5 -4.5l-5 -2
q-9 -21 -9 -88zM455 176q0 87 46.5 135.5t123.5 48.5t123.5 -48.5t46.5 -136.5t-46 -136.5t-123 -48.5q-78 0 -124.5 49t-46.5 137zM575 176q0 -55 11.5 -77t41.5 -22q11 0 20.5 2t13.5 4l4 2q8 22 8 88q0 57 -11 78.5t-40 21.5q-10 0 -19.5 -2.5t-13.5 -4.5l-5 -2
q-10 -21 -10 -88zM825 176q0 87 46 135.5t124 48.5q77 0 123.5 -49t46.5 -136t-46.5 -136t-122.5 -49q-78 0 -124.5 49t-46.5 137zM945 176q0 -55 11.5 -77t41.5 -22q11 0 20 2t13 4l4 2q8 22 8 88q0 57 -10.5 78.5t-39.5 21.5q-11 0 -20.5 -2.5t-14.5 -4.5l-4 -2
q-9 -21 -9 -88z" />
    <glyph glyph-name="guilsinglleft" unicode="&#x2039;" horiz-adv-x="305" 
d="M222 121l-189 169v20l189 169l39 -48l-102 -131l102 -131z" />
    <glyph glyph-name="guilsinglright" unicode="&#x203a;" horiz-adv-x="305" 
d="M82 479l190 -169v-20l-190 -169l-38 48l101 131l-101 131z" />
    <glyph glyph-name="fraction" unicode="&#x2044;" horiz-adv-x="781" 
d="M155 0h-116l587 700h116z" />
    <glyph glyph-name="Euro" unicode="&#x20ac;" horiz-adv-x="642" 
d="M38 382v96h68q27 113 103.5 173.5t194.5 60.5q49 0 98 -10t74 -20l24 -11l15 -187h-107l-33 98q-34 18 -88 18q-26 0 -47.5 -5.5t-30.5 -10.5l-9 -6q-14 -27 -23 -100h170v-96h-176v-64h176v-96h-169q11 -65 39 -94t80 -29q21 0 41 4t30 8l10 4l33 105h107l-15 -192
q-91 -40 -199 -40q-117 0 -193.5 60.5t-103.5 173.5h-69v96h56q-1 11 -1 33q0 21 1 31h-56z" />
    <glyph glyph-name="uni20B4" unicode="&#x20b4;" horiz-adv-x="489" 
d="M21 244v88h447v-88h-246q-19 -30 -19 -65q0 -81 96 -81q31 0 63.5 7t49.5 14l16 7l29 -82q-8 -6 -22.5 -15.5t-63.5 -25t-102 -15.5q-102 0 -168 50.5t-66 136.5q0 40 13 69h-27zM21 380v87h250q15 25 15 59q0 76 -90 76q-32 0 -64.5 -7t-49.5 -14l-16 -7l-29 82
q8 6 22.5 15.5t63.5 25t102 15.5q100 0 164.5 -48.5t64.5 -133.5q0 -32 -12 -63h26v-87h-447z" />
    <glyph glyph-name="afii61352" unicode="&#x2116;" horiz-adv-x="1130" 
d="M215 87l66 -10v-77h-253v73l66 24v516l-66 10v77h222l230 -340q19 -32 28 -60l4 1q-2 19 -2 59v253l-66 10v77h253v-73l-66 -24v-603h-112l-272 409q-21 29 -30 59l-4 -1q2 -20 2 -58v-322zM727 506q0 97 51 150t137 53q85 0 136 -53.5t51 -150.5t-51 -150.5t-136 -53.5
q-86 0 -137 54t-51 151zM854 506q0 -70 13 -97.5t51 -27.5q14 0 25.5 3t16.5 6l5 3q9 26 9 110q0 72 -13 99t-49 27q-14 0 -26 -3t-18 -6l-5 -3q-9 -25 -9 -111z" />
    <glyph glyph-name="trademark" unicode="&#x2122;" horiz-adv-x="972" 
d="M258 354l37 -5v-49h-179v45l37 16v271h-46l-21 -63h-69l10 131h358l9 -131h-67l-21 63h-48v-278zM516 354l42 -5v-49h-159v45l41 16l31 285l-40 5v49h169l70 -209q8 -21 12 -46h3q3 29 11 50l68 205h160v-46l-38 -15l31 -285l38 -5v-49h-180v45l37 16l-22 181
q0 4 -0.5 14.5t-0.5 14.5h-3q-2 -18 -5 -29l-65 -200h-91l-10 10l-67 190q-6 21 -6 29h-3q0 -20 -1 -29z" />
    <glyph glyph-name="arrowleft" unicode="&#x2190;" horiz-adv-x="615" 
d="M562 328v-87h-368l87 -107l-39 -49l-209 190v19l209 190l39 -49l-87 -107h368z" />
    <glyph glyph-name="arrowup" unicode="&#x2191;" horiz-adv-x="480" 
d="M284 0h-88v367l-107 -86l-48 39l189 209h20l189 -209l-48 -39l-107 86v-367z" />
    <glyph glyph-name="arrowright" unicode="&#x2192;" horiz-adv-x="615" 
d="M52 226v87h368l-86 107l38 49l210 -190v-19l-210 -190l-38 49l85 107h-367z" />
    <glyph glyph-name="arrowdown" unicode="&#x2193;" horiz-adv-x="480" 
d="M196 529h88v-368l107 87l48 -39l-189 -209h-20l-189 209l48 39l107 -87v368z" />
    <glyph glyph-name="uni2196" unicode="&#x2196;" horiz-adv-x="480" 
d="M458 126l-61 -62l-261 259l-15 -135l-61 -8l-13 282l13 14l282 -14l-7 -61l-137 -15z" />
    <glyph glyph-name="uni2197" unicode="&#x2197;" horiz-adv-x="480" 
d="M83 64l-61 62l260 260l-137 15l-7 61l282 14l13 -14l-13 -282l-61 8l-16 135z" />
    <glyph glyph-name="uni2198" unicode="&#x2198;" horiz-adv-x="480" 
d="M22 415l61 61l260 -260l16 136l61 8l13 -282l-13 -14l-282 14l7 61l136 15z" />
    <glyph glyph-name="uni2199" unicode="&#x2199;" horiz-adv-x="480" 
d="M397 475l61 -61l-260 -260l137 -15l7 -61l-282 -14l-13 14l13 282l61 -8l15 -136z" />
    <glyph glyph-name="minus" unicode="&#x2212;" horiz-adv-x="504" 
d="M53 292v96h398v-96h-398z" />
    <glyph glyph-name="approxequal" unicode="&#x2248;" horiz-adv-x="504" 
d="M53 363v102q46 52 99 52q34 0 99 -28t101 -28q53 0 99 53v-103q-45 -53 -98 -53q-34 0 -98.5 28t-100.5 28q-54 0 -101 -51zM353 159q-34 0 -98.5 28t-100.5 28q-53 0 -101 -51v102q46 52 99 52q34 0 99 -28t101 -28q52 0 99 52v-102q-45 -53 -98 -53z" />
    <glyph glyph-name="notequal" unicode="&#x2260;" horiz-adv-x="504" 
d="M451 192h-211l-47 -110h-102l47 110h-85v97h126l44 102h-170v97h212l47 110h102l-48 -110h85v-97h-126l-44 -102h170v-97z" />
    <glyph glyph-name="lessequal" unicode="&#x2264;" horiz-adv-x="504" 
d="M53 472l398 165v-108l-252 -105l252 -105v-108l-398 165v96zM451 87h-398v96h398v-96z" />
    <glyph glyph-name="greaterequal" unicode="&#x2265;" horiz-adv-x="504" 
d="M451 472v-96l-398 -165v108l252 105l-252 105v108zM451 87h-398v96h398v-96z" />
    <glyph glyph-name="commaaccent" unicode="&#xf6c3;" horiz-adv-x="255" 
d="M77 -261l-21 26q6 5 16 14t25.5 32.5t15.5 42.5q-22 3 -34.5 19t-12.5 39q0 27 17 44t44 17t44 -18.5t17 -56.5q0 -48 -28 -87.5t-56 -55.5z" />
    <glyph glyph-name="zerooldstyle" unicode="&#xf730;" horiz-adv-x="576" 
d="M32 301q0 147 70 229t186 82q117 0 187 -82t70 -230t-70 -230t-186 -82q-117 0 -187 82.5t-70 230.5zM204 299q0 -111 19 -155.5t71 -44.5q18 0 32.5 4.5t19.5 8.5l5 4q21 42 21 182q0 114 -19 158t-68 44q-18 0 -33 -4t-21 -8l-6 -5q-21 -41 -21 -184z" />
    <glyph glyph-name="oneoldstyle" unicode="&#xf731;" horiz-adv-x="455" 
d="M44 461v80q143 22 262 70l13 -14v-500l101 -10v-87h-370v87l110 24v350h-116z" />
    <glyph glyph-name="twooldstyle" unicode="&#xf732;" horiz-adv-x="554" 
d="M499 472q0 -51 -29 -94t-68 -72t-108 -81.5t-121 -103.5h194l33 90h107l-15 -211h-454v121q67 73 148 141t111 102.5t30 80.5q0 30 -17.5 43t-55.5 13q-23 0 -41.5 -4.5t-25.5 -9.5l-7 -5l-33 -95h-107l15 181q8 5 23 12.5t69.5 19.5t117.5 12q234 0 234 -140z" />
    <glyph glyph-name="threeoldstyle" unicode="&#xf733;" horiz-adv-x="547" 
d="M507 102q0 -104 -71.5 -159t-195.5 -55q-60 0 -113 12t-75 24l-23 12l27 90q64 -30 163 -30q24 0 48.5 2.5t36.5 5.5l12 2q17 25 17 94q0 67 -22.5 94.5t-72.5 27.5h-41l-14 14v83q21 6 56 51t59 86l24 42h-138l-32 -104h-108l15 206h423v-102q-72 -106 -150 -184v-10
q175 -41 175 -202z" />
    <glyph glyph-name="fouroldstyle" unicode="&#xf734;" horiz-adv-x="580" 
d="M475 600v-406h75v-115h-71v-189h-160v186h-294v63l283 461h167zM179 197h147v245z" />
    <glyph glyph-name="fiveoldstyle" unicode="&#xf735;" horiz-adv-x="521" 
d="M490 114q0 -226 -259 -226q-63 0 -116 12t-74 24l-21 12l27 90q59 -30 158 -30q24 0 47.5 2.5t35.5 5.5l11 2q18 36 18 95q0 76 -42.5 107t-143.5 31h-62l-14 13l41 348h357v-121h-251l-18 -137q69 -3 120.5 -14.5t95.5 -36t67 -69t23 -108.5z" />
    <glyph glyph-name="sixoldstyle" unicode="&#xf736;" horiz-adv-x="561" 
d="M477 651l-28 -83q-54 17 -122 17q-34 0 -59 -5.5t-32 -11.5l-8 -6q-19 -40 -26 -157q40 26 113 26q99 0 156.5 -53t57.5 -158q0 -108 -61.5 -170t-175.5 -62q-260 0 -260 347q0 357 270 357q46 0 90 -10t64 -20zM284 325q-39 0 -84 -15q1 -120 21.5 -168t75.5 -48
q14 0 27.5 2.5t19.5 5.5l6 2q16 25 16 104q0 67 -17.5 92t-64.5 25z" />
    <glyph glyph-name="sevenoldstyle" unicode="&#xf737;" horiz-adv-x="526" 
d="M309 -100h-174q13 91 46 185t97 235.5t79 177.5h-183l-33 -104h-107l15 206h449v-63q-17 -52 -69 -194t-81 -244.5t-39 -198.5z" />
    <glyph glyph-name="eightoldstyle" unicode="&#xf738;" horiz-adv-x="560" 
d="M33 147q0 109 102 178q-85 58 -85 169q0 89 57 143.5t183 54.5q206 0 206 -157q0 -109 -92 -169q119 -60 119 -183q0 -93 -65.5 -144.5t-195.5 -51.5q-229 0 -229 160zM370 171q0 18 -6 32t-12 22.5t-23.5 17t-26.5 12t-35.5 12.5t-36.5 12q-46 -48 -46 -99
q0 -38 26 -58.5t74 -20.5q19 0 37.5 3t27.5 6l9 3q12 25 12 58zM204 513q0 -44 24 -66t74 -41q51 51 51 108q0 68 -78 68q-17 0 -32 -3t-21 -7l-7 -3q-11 -24 -11 -56z" />
    <glyph glyph-name="nineoldstyle" unicode="&#xf739;" horiz-adv-x="561" 
d="M61 -69l27 90q52 -26 138 -26q36 0 62.5 6t35.5 11l9 6q22 45 28 181q-38 -26 -115 -26q-99 0 -155.5 51.5t-56.5 156.5q0 108 61 169.5t174 61.5q262 0 262 -357q0 -184 -71.5 -275.5t-219.5 -91.5q-52 0 -97 11t-63 21zM278 279q40 0 85 15q-2 116 -23 164t-74 48
q-15 0 -28 -3t-18 -6l-6 -3q-17 -23 -17 -103q0 -64 17.5 -88t63.5 -24z" />
    <glyph glyph-name="A.smcp" horiz-adv-x="634" 
d="M240 560h145l15 -15l172 -467l51 -8v-70h-277v63l50 24l-21 56h-176l-24 -65l55 -8v-70h-219v65l45 22zM270 344l-39 -105h113l-37 105q-2 8 -15 73h-5q-11 -56 -17 -73z" />
    <glyph glyph-name="Aacute.smcp" horiz-adv-x="634" 
d="M240 560h145l15 -15l172 -467l51 -8v-70h-277v63l50 24l-21 56h-176l-24 -65l55 -8v-70h-219v65l45 22zM270 344l-39 -105h113l-37 105q-2 8 -15 73h-5q-11 -56 -17 -73zM243 613l120 149l87 -87l-145 -88z" />
    <glyph glyph-name="Abreve.smcp" horiz-adv-x="634" 
d="M240 560h145l15 -15l172 -467l51 -8v-70h-277v63l50 24l-21 56h-176l-24 -65l55 -8v-70h-219v65l45 22zM270 344l-39 -105h113l-37 105q-2 8 -15 73h-5q-11 -56 -17 -73zM405 719l47 -17q-1 -4 -3.5 -11t-12.5 -25t-23.5 -31.5t-39 -24.5t-56.5 -11t-56 10t-39.5 24.5
t-24.5 29.5t-13 25l-4 10l70 22q3 -5 8 -12t26 -19t46 -12t43.5 10.5t24.5 20.5z" />
    <glyph glyph-name="Acircumflex.smcp" horiz-adv-x="634" 
d="M240 560h145l15 -15l172 -467l51 -8v-70h-277v63l50 24l-21 56h-176l-24 -65l55 -8v-70h-219v65l45 22zM270 344l-39 -105h113l-37 105q-2 8 -15 73h-5q-11 -56 -17 -73zM180 613l128 140h17l129 -140l-62 -26l-75 53l-76 -53z" />
    <glyph glyph-name="Agrave.smcp" horiz-adv-x="634" 
d="M240 560h145l15 -15l172 -467l51 -8v-70h-277v63l50 24l-21 56h-176l-24 -65l55 -8v-70h-219v65l45 22zM270 344l-39 -105h113l-37 105q-2 8 -15 73h-5q-11 -56 -17 -73zM170 675l88 87l119 -149l-61 -26z" />
    <glyph glyph-name="Adieresis.smcp" horiz-adv-x="634" 
d="M240 560h145l15 -15l172 -467l51 -8v-70h-277v63l50 24l-21 56h-176l-24 -65l55 -8v-70h-219v65l45 22zM270 344l-39 -105h113l-37 105q-2 8 -15 73h-5q-11 -56 -17 -73zM164 671q0 29 18 46.5t46 17.5q29 0 47 -17.5t18 -46.5q0 -28 -18 -45.5t-47 -17.5q-28 0 -46 17.5
t-18 45.5zM340 671q0 29 18 46.5t46 17.5q29 0 47 -17.5t18 -46.5q0 -28 -18 -45.5t-47 -17.5q-28 0 -46 17.5t-18 45.5z" />
    <glyph glyph-name="Amacron.smcp" horiz-adv-x="634" 
d="M240 560h145l15 -15l172 -467l51 -8v-70h-277v63l50 24l-21 56h-176l-24 -65l55 -8v-70h-219v65l45 22zM270 344l-39 -105h113l-37 105q-2 8 -15 73h-5q-11 -56 -17 -73zM181 605v87h271v-87h-271z" />
    <glyph glyph-name="Aogonek.smcp" horiz-adv-x="634" 
d="M553 -83q0 -34 29 -34l36 6l7 -37q-22 -24 -77 -24q-87 0 -87 70q0 18 6.5 35.5t15.5 29t18.5 20.5t16.5 13l6 4h-178v63l50 24l-21 56h-176l-24 -65l55 -8v-70h-219v65l45 22l184 473h145l15 -15l172 -467l51 -8v-70h-40q-30 -40 -30 -83zM270 344l-39 -105h113l-37 105
q-2 8 -15 73h-5q-11 -56 -17 -73z" />
    <glyph glyph-name="Aring.smcp" horiz-adv-x="634" 
d="M240 560h145l15 -15l172 -467l51 -8v-70h-277v63l50 24l-21 56h-176l-24 -65l55 -8v-70h-219v65l45 22zM270 344l-39 -105h113l-37 105q-2 8 -15 73h-5q-11 -56 -17 -73zM230 667q0 35 23 56.5t63 21.5q39 0 63 -21.5t24 -56.5t-24 -56t-63 -21q-40 0 -63 20.5t-23 56.5z
M293 669q0 -27 25 -27l17 3q3 8 3 21q0 25 -23 25l-18 -3q-4 -7 -4 -19z" />
    <glyph glyph-name="Atilde.smcp" horiz-adv-x="634" 
d="M240 560h145l15 -15l172 -467l51 -8v-70h-277v63l50 24l-21 56h-176l-24 -65l55 -8v-70h-219v65l45 22zM270 344l-39 -105h113l-37 105q-2 8 -15 73h-5q-11 -56 -17 -73zM188 604l-32 35q2 4 6.5 9.5t18 21t27.5 27t35 21t42 9.5q24 0 59 -16t52 -16l49 34l33 -35
q-2 -4 -6.5 -9.5t-17.5 -20.5t-27 -26.5t-35 -21t-41 -9.5q-24 0 -60.5 16t-52.5 16z" />
    <glyph glyph-name="AE.smcp" horiz-adv-x="735" 
d="M699 0h-411v63l50 24l-5 56h-128l-30 -65l55 -8v-70h-219v65l45 22l201 473h429l13 -169h-97l-29 73h-129l16 -132h38l16 58h75v-212h-75l-16 58h-26l20 -140h93l28 78h99zM284 344l-47 -105h90l-17 183h-3q-7 -44 -23 -78z" />
    <glyph glyph-name="AEacute.smcp" horiz-adv-x="735" 
d="M699 0h-411v63l50 24l-5 56h-128l-30 -65l55 -8v-70h-219v65l45 22l201 473h429l13 -169h-97l-29 73h-129l16 -132h38l16 58h75v-212h-75l-16 58h-26l20 -140h93l28 78h99zM284 344l-47 -105h90l-17 183h-3q-7 -44 -23 -78zM266 613l120 149l88 -87l-146 -88z" />
    <glyph glyph-name="B.smcp" horiz-adv-x="558" 
d="M317 0h-280v65l50 22v395l-50 9v69h261q97 0 154.5 -40.5t57.5 -114.5q0 -70 -57 -113q-2 -2 -15 -2v-3q13 0 15 -2q74 -45 74 -126q0 -76 -57.5 -117.5t-152.5 -41.5zM280 236h-44v-139h52l62 5q15 13 15 64q0 41 -17.5 55.5t-67.5 14.5zM264 464h-28v-132h36l61 4
q16 14 16 61q0 39 -18 53t-67 14z" />
    <glyph glyph-name="C.smcp" horiz-adv-x="508" 
d="M381 383l-29 74q-27 13 -71 13q-21 0 -38 -4t-24 -8l-7 -4q-19 -35 -19 -176q0 -107 19.5 -148t77.5 -41q17 0 33 2.5t24 5.5l8 3l29 82h97l-13 -161q-79 -31 -172 -31q-126 0 -195.5 75.5t-69.5 215.5q0 139 69.5 214t195.5 75q42 0 84.5 -8t63.5 -16l22 -7l12 -156h-97
z" />
    <glyph glyph-name="Cacute.smcp" horiz-adv-x="508" 
d="M381 383l-29 74q-27 13 -71 13q-21 0 -38 -4t-24 -8l-7 -4q-19 -35 -19 -176q0 -107 19.5 -148t77.5 -41q17 0 33 2.5t24 5.5l8 3l29 82h97l-13 -161q-79 -31 -172 -31q-126 0 -195.5 75.5t-69.5 215.5q0 139 69.5 214t195.5 75q42 0 84.5 -8t63.5 -16l22 -7l12 -156h-97
zM219 613l119 149l87 -87l-145 -88z" />
    <glyph glyph-name="Ccaron.smcp" horiz-adv-x="508" 
d="M381 383l-29 74q-27 13 -71 13q-21 0 -38 -4t-24 -8l-7 -4q-19 -35 -19 -176q0 -107 19.5 -148t77.5 -41q17 0 33 2.5t24 5.5l8 3l29 82h97l-13 -161q-79 -31 -172 -31q-126 0 -195.5 75.5t-69.5 215.5q0 139 69.5 214t195.5 75q42 0 84.5 -8t63.5 -16l22 -7l12 -156h-97
zM275 587l-119 131l47 39l81 -58l81 58l48 -39l-120 -131h-18z" />
    <glyph glyph-name="Ccedilla.smcp" horiz-adv-x="508" 
d="M247 -69l8 61q-107 12 -165.5 86.5t-58.5 202.5q0 139 69.5 214t195.5 75q42 0 84.5 -8t63.5 -16l22 -7l12 -156h-97l-29 74q-27 13 -71 13q-21 0 -38 -4t-24 -8l-7 -4q-19 -35 -19 -176q0 -107 19.5 -148t77.5 -41q17 0 33 2.5t24 5.5l8 3l29 82h97l-13 -161
q-69 -27 -154 -30l-6 -36q3 0 7.5 -0.5t16 -3.5t20.5 -8.5t16.5 -17t7.5 -27.5q0 -33 -30 -51t-85 -18q-16 0 -31 1.5t-22 3.5l-7 1l12 60q14 -11 44 -11l21 2q2 6 2 15q0 12 -8 19.5t-16 9.5z" />
    <glyph glyph-name="Ccircumflex.smcp" horiz-adv-x="508" 
d="M381 383l-29 74q-27 13 -71 13q-21 0 -38 -4t-24 -8l-7 -4q-19 -35 -19 -176q0 -107 19.5 -148t77.5 -41q17 0 33 2.5t24 5.5l8 3l29 82h97l-13 -161q-79 -31 -172 -31q-126 0 -195.5 75.5t-69.5 215.5q0 139 69.5 214t195.5 75q42 0 84.5 -8t63.5 -16l22 -7l12 -156h-97
zM150 613l128 140h18l129 -140l-61 -26l-77 53l-76 -53z" />
    <glyph glyph-name="Cdotaccent.smcp" horiz-adv-x="508" 
d="M381 383l-29 74q-27 13 -71 13q-21 0 -38 -4t-24 -8l-7 -4q-19 -35 -19 -176q0 -107 19.5 -148t77.5 -41q17 0 33 2.5t24 5.5l8 3l29 82h97l-13 -161q-79 -31 -172 -31q-126 0 -195.5 75.5t-69.5 215.5q0 139 69.5 214t195.5 75q42 0 84.5 -8t63.5 -16l22 -7l12 -156h-97
zM195 668q0 38 24.5 61.5t63.5 23.5q38 0 62.5 -23.5t24.5 -61.5q0 -37 -24.5 -60.5t-62.5 -23.5q-39 0 -63.5 23.5t-24.5 60.5z" />
    <glyph glyph-name="D.smcp" horiz-adv-x="584" 
d="M298 0h-261v65l50 22v395l-50 8v70h261q116 0 185 -73t69 -207t-69 -207t-185 -73zM285 464h-49v-368h57q21 0 38 3t23 7l7 3q3 4 8 13t13 55t8 112q0 101 -22.5 138t-82.5 37z" />
    <glyph glyph-name="Dcaron.smcp" horiz-adv-x="584" 
d="M298 0h-261v65l50 22v395l-50 8v70h261q116 0 185 -73t69 -207t-69 -207t-185 -73zM285 464h-49v-368h57q21 0 38 3t23 7l7 3q3 4 8 13t13 55t8 112q0 101 -22.5 138t-82.5 37zM262 587l-121 131l49 39l80 -58l80 58l48 -39l-119 -131h-17z" />
    <glyph glyph-name="Dcroat.smcp" horiz-adv-x="584" 
d="M37 236v78l50 18v150l-50 8v70h261q116 0 185.5 -73t69.5 -207t-69.5 -207t-185.5 -73h-261v65l50 22v149h-50zM285 464h-49v-132h87v-96h-87v-140h57q21 0 38 3t23 7l7 3q3 4 8 13t13 55t8 112q0 101 -22.5 138t-82.5 37z" />
    <glyph glyph-name="Eth.smcp" horiz-adv-x="584" 
d="M37 236v78l50 18v150l-50 8v70h261q116 0 185.5 -73t69.5 -207t-69.5 -207t-185.5 -73h-261v65l50 22v149h-50zM285 464h-49v-132h87v-96h-87v-140h57q21 0 38 3t23 7l7 3q3 4 8 13t13 55t8 112q0 101 -22.5 138t-82.5 37z" />
    <glyph glyph-name="Thorn.smcp" horiz-adv-x="555" 
d="M236 79l63 -3v-76h-262v65l50 22v395l-50 8v70h249v-65l-50 -22v-21h71q97 0 154.5 -43t57.5 -121t-57.5 -121t-153.5 -43h-72v-45zM272 356h-36v-135h44q17 0 32.5 1.5t22.5 3.5l7 1q16 14 16 61q0 39 -18 53.5t-68 14.5z" />
    <glyph glyph-name="E.smcp" horiz-adv-x="521" 
d="M485 0h-448v65l50 22v395l-50 8v70h434l14 -169h-98l-28 73h-123v-132h34l16 58h79v-212h-79l-16 58h-34v-140h135l28 78h99z" />
    <glyph glyph-name="Eacute.smcp" horiz-adv-x="521" 
d="M485 0h-448v65l50 22v395l-50 8v70h434l14 -169h-98l-28 73h-123v-132h34l16 58h79v-212h-79l-16 58h-34v-140h135l28 78h99zM186 613l120 149l87 -87l-145 -88z" />
    <glyph glyph-name="Ebreve.smcp" horiz-adv-x="521" 
d="M485 0h-448v65l50 22v395l-50 8v70h434l14 -169h-98l-28 73h-123v-132h34l16 58h79v-212h-79l-16 58h-34v-140h135l28 78h99zM358 719l46 -17q-1 -4 -3.5 -11t-12.5 -25t-23.5 -31.5t-39 -24.5t-56.5 -11t-56 10t-39 24.5t-24 29.5t-14 25l-3 10l69 22q3 -5 8 -12t26 -19
t46 -12t44 10.5t26 20.5z" />
    <glyph glyph-name="Ecaron.smcp" horiz-adv-x="521" 
d="M485 0h-448v65l50 22v395l-50 8v70h434l14 -169h-98l-28 73h-123v-132h34l16 58h79v-212h-79l-16 58h-34v-140h135l28 78h99zM259 587l-119 131l48 39l80 -58l81 58l48 -39l-120 -131h-18z" />
    <glyph glyph-name="Ecircumflex.smcp" horiz-adv-x="521" 
d="M485 0h-448v65l50 22v395l-50 8v70h434l14 -169h-98l-28 73h-123v-132h34l16 58h79v-212h-79l-16 58h-34v-140h135l28 78h99zM123 613l128 140h17l129 -140l-62 -26l-76 53l-75 -53z" />
    <glyph glyph-name="Edieresis.smcp" horiz-adv-x="521" 
d="M485 0h-448v65l50 22v395l-50 8v70h434l14 -169h-98l-28 73h-123v-132h34l16 58h79v-212h-79l-16 58h-34v-140h135l28 78h99zM111 671q0 29 18.5 46.5t46.5 17.5q29 0 47 -17.5t18 -46.5q0 -28 -18 -45.5t-47 -17.5q-28 0 -46.5 17.5t-18.5 45.5zM287 671q0 29 18.5 46.5
t46.5 17.5q29 0 47 -17.5t18 -46.5q0 -28 -18 -45.5t-47 -17.5q-28 0 -46.5 17.5t-18.5 45.5z" />
    <glyph glyph-name="Edotaccent.smcp" horiz-adv-x="521" 
d="M485 0h-448v65l50 22v395l-50 8v70h434l14 -169h-98l-28 73h-123v-132h34l16 58h79v-212h-79l-16 58h-34v-140h135l28 78h99zM180 668q0 37 25 60.5t63 23.5q39 0 64 -23.5t25 -60.5q0 -38 -25 -61.5t-64 -23.5t-63.5 23.5t-24.5 61.5z" />
    <glyph glyph-name="Egrave.smcp" horiz-adv-x="521" 
d="M485 0h-448v65l50 22v395l-50 8v70h434l14 -169h-98l-28 73h-123v-132h34l16 58h79v-212h-79l-16 58h-34v-140h135l28 78h99zM122 675l87 87l120 -149l-61 -26z" />
    <glyph glyph-name="Emacron.smcp" horiz-adv-x="521" 
d="M485 0h-448v65l50 22v395l-50 8v70h434l14 -169h-98l-28 73h-123v-132h34l16 58h79v-212h-79l-16 58h-34v-140h135l28 78h99zM134 605v87h270v-87h-270z" />
    <glyph glyph-name="Eogonek.smcp" horiz-adv-x="521" 
d="M424 -83q0 -34 29 -34l36 6l7 -37q-23 -24 -77 -24q-87 0 -87 70q0 29 16 54.5t32 36.5l15 11h-358v65l50 22v395l-50 8v70h434l14 -169h-98l-28 73h-123v-132h34l16 58h79v-212h-79l-16 58h-34v-140h135l28 78h99l-13 -174h-31q-30 -40 -30 -83z" />
    <glyph glyph-name="F.smcp" horiz-adv-x="499" 
d="M299 0h-262v65l50 22v395l-50 8v70h435l13 -174h-97l-29 78h-123v-139h41l14 57h81v-211h-81l-14 58h-41v-150l63 -3v-76z" />
    <glyph glyph-name="G.smcp" horiz-adv-x="549" 
d="M478 221v-196q-73 -35 -175 -35q-132 0 -202 75t-70 215q0 141 69.5 215.5t195.5 74.5q42 0 84.5 -8t63.5 -16l22 -7l12 -156h-97l-29 74q-27 13 -71 13q-21 0 -38 -4t-24 -8l-7 -4q-19 -35 -19 -176q0 -107 19.5 -148t77.5 -41q37 0 57 9v132l-63 9v69h245v-64z" />
    <glyph glyph-name="Gbreve.smcp" horiz-adv-x="549" 
d="M478 221v-196q-73 -35 -175 -35q-132 0 -202 75t-70 215q0 141 69.5 215.5t195.5 74.5q42 0 84.5 -8t63.5 -16l22 -7l12 -156h-97l-29 74q-27 13 -71 13q-21 0 -38 -4t-24 -8l-7 -4q-19 -35 -19 -176q0 -107 19.5 -148t77.5 -41q37 0 57 9v132l-63 9v69h245v-64zM371 719
l47 -17q-1 -4 -3.5 -11t-12.5 -25t-23.5 -31.5t-39 -24.5t-56.5 -11t-56 10t-39 24.5t-24 29.5t-14 25l-3 10l69 22q2 -5 7.5 -12t26 -19t45.5 -12q26 0 45 10.5t25 20.5z" />
    <glyph glyph-name="Gcircumflex.smcp" horiz-adv-x="549" 
d="M478 221v-196q-73 -35 -175 -35q-132 0 -202 75t-70 215q0 141 69.5 215.5t195.5 74.5q42 0 84.5 -8t63.5 -16l22 -7l12 -156h-97l-29 74q-27 13 -71 13q-21 0 -38 -4t-24 -8l-7 -4q-19 -35 -19 -176q0 -107 19.5 -148t77.5 -41q37 0 57 9v132l-63 9v69h245v-64zM151 613
l129 140h18l127 -140l-60 -26l-76 53l-76 -53z" />
    <glyph glyph-name="Gcommaaccent.smcp" horiz-adv-x="549" 
d="M478 221v-196q-73 -35 -175 -35q-132 0 -202 75t-70 215q0 141 69.5 215.5t195.5 74.5q42 0 84.5 -8t63.5 -16l22 -7l12 -156h-97l-29 74q-27 13 -71 13q-21 0 -38 -4t-24 -8l-7 -4q-19 -35 -19 -176q0 -107 19.5 -148t77.5 -41q37 0 57 9v132l-63 9v69h245v-64z
M258 -210l-19 23q48 38 48 70q-19 2 -30 16t-11 33q0 23 15 38t39 15q23 0 38.5 -16t15.5 -48q0 -25 -10 -47.5t-24 -37t-28 -25.5t-24 -16z" />
    <glyph glyph-name="Gdotaccent.smcp" horiz-adv-x="549" 
d="M478 221v-196q-73 -35 -175 -35q-132 0 -202 75t-70 215q0 141 69.5 215.5t195.5 74.5q42 0 84.5 -8t63.5 -16l22 -7l12 -156h-97l-29 74q-27 13 -71 13q-21 0 -38 -4t-24 -8l-7 -4q-19 -35 -19 -176q0 -107 19.5 -148t77.5 -41q37 0 57 9v132l-63 9v69h245v-64zM200 668
q0 37 25 60.5t64 23.5q38 0 63 -23.5t25 -60.5q0 -38 -24.5 -61.5t-63.5 -23.5t-64 23.5t-25 61.5z" />
    <glyph glyph-name="H.smcp" horiz-adv-x="635" 
d="M236 78l50 -8v-70h-249v65l50 22v395l-50 8v70h249v-65l-50 -22v-141h163v150l-50 8v70h249v-65l-50 -22v-395l50 -8v-70h-249v65l50 22v149h-163v-158z" />
    <glyph glyph-name="Hbar.smcp" horiz-adv-x="635" 
d="M37 372v88h50v22l-50 8v70h249v-65l-50 -22v-13h163v22l-50 8v70h249v-65l-50 -22v-13h50v-88h-50v-294l50 -8v-70h-249v65l50 22v149h-163v-158l50 -8v-70h-249v65l50 22v285h-50zM236 332h163v40h-163v-40z" />
    <glyph glyph-name="Hcircumflex.smcp" horiz-adv-x="635" 
d="M236 78l50 -8v-70h-249v65l50 22v395l-50 8v70h249v-65l-50 -22v-141h163v150l-50 8v70h249v-65l-50 -22v-395l50 -8v-70h-249v65l50 22v149h-163v-158zM181 613l128 140h17l129 -140l-62 -26l-76 53l-75 -53z" />
    <glyph glyph-name="I.smcp" horiz-adv-x="323" 
d="M236 78l50 -8v-70h-249v65l50 22v395l-50 8v70h249v-65l-50 -22v-395z" />
    <glyph glyph-name="Iacute.smcp" horiz-adv-x="323" 
d="M235 78l50 -8v-70h-249v65l50 22v395l-50 8v70h249v-65l-50 -22v-395zM79 613l119 149l88 -87l-145 -88z" />
    <glyph glyph-name="Ibreve.smcp" horiz-adv-x="323" 
d="M235 78l50 -8v-70h-248v65l50 22v395l-50 8v70h248v-65l-50 -22v-395zM251 719l46 -17q-1 -4 -3.5 -11t-12.5 -25t-23.5 -31.5t-39 -24.5t-56.5 -11t-56 10t-39.5 24.5t-24 29.5t-12.5 25l-4 10l69 22q2 -5 7.5 -12t26 -19t46.5 -12q25 0 44 10.5t25 20.5z" />
    <glyph glyph-name="Icircumflex.smcp" horiz-adv-x="323" 
d="M235 78l50 -8v-70h-249v65l50 22v395l-50 8v70h249v-65l-50 -22v-395zM24 613l129 140h18l128 -140l-61 -26l-76 53l-77 -53z" />
    <glyph glyph-name="Idieresis.smcp" horiz-adv-x="323" 
d="M235 78l50 -8v-70h-249v65l50 22v395l-50 8v70h249v-65l-50 -22v-395zM9 671q0 29 18 46.5t47 17.5t47 -17.5t18 -46.5q0 -28 -18 -45.5t-47 -17.5t-47 17.5t-18 45.5zM185 671q0 29 18 46.5t47 17.5t47 -17.5t18 -46.5q0 -28 -18 -45.5t-47 -17.5t-47 17.5t-18 45.5z
" />
    <glyph glyph-name="Idotaccent.smcp" horiz-adv-x="323" 
d="M236 78l50 -8v-70h-249v65l50 22v395l-50 8v70h249v-65l-50 -22v-395zM74 668q0 37 24.5 60.5t62.5 23.5q39 0 63.5 -23.5t24.5 -60.5q0 -38 -24.5 -61.5t-63.5 -23.5q-38 0 -62.5 23.5t-24.5 61.5z" />
    <glyph glyph-name="Igrave.smcp" horiz-adv-x="323" 
d="M235 78l50 -8v-70h-249v65l50 22v395l-50 8v70h249v-65l-50 -22v-395zM24 675l87 87l120 -149l-61 -26z" />
    <glyph glyph-name="Imacron.smcp" horiz-adv-x="323" 
d="M236 78l50 -8v-70h-249v65l50 22v395l-50 8v70h249v-65l-50 -22v-395zM27 605v87h270v-87h-270z" />
    <glyph glyph-name="Iogonek.smcp" horiz-adv-x="322" 
d="M216 -83q0 -34 29 -34l37 6l6 -37q-22 -24 -77 -24q-87 0 -87 70q0 29 16 54.5t32 36.5l15 11h-150v65l50 22v395l-50 8v70h249v-65l-50 -22v-395l50 -8v-70h-40q-30 -40 -30 -83z" />
    <glyph glyph-name="Itilde.smcp" horiz-adv-x="323" 
d="M236 78l50 -8v-70h-249v65l50 22v395l-50 8v70h249v-65l-50 -22v-395zM34 612l-33 35q2 4 6.5 9.5t18 21t27.5 27t35.5 21t42.5 9.5q24 0 59 -16t51 -16l50 34l32 -35q-2 -4 -6 -9.5t-17.5 -20.5t-27.5 -26.5t-35 -21t-41 -9.5q-23 0 -59 16t-52 16z" />
    <glyph glyph-name="IJ.smcp" horiz-adv-x="625" 
d="M538 473v-500q0 -86 -49.5 -134.5t-141.5 -48.5q-26 0 -51 3.5t-38 6.5l-12 4l13 99q28 -14 69 -14l49 5q13 26 13 99v489l-50 8v70h248v-65zM236 78l50 -8v-70h-249v65l50 22v395l-50 8v70h249v-65l-50 -22v-395z" />
    <glyph glyph-name="J.smcp" horiz-adv-x="398" 
d="M315 473v-300q0 -86 -49.5 -134.5t-140.5 -48.5q-26 0 -51.5 3.5t-37.5 6.5l-13 4l13 99q28 -14 69 -14l50 5q12 26 12 99v287l-63 4v76h261v-65z" />
    <glyph glyph-name="Jcircumflex.smcp" horiz-adv-x="398" 
d="M315 473v-300q0 -86 -49.5 -134.5t-140.5 -48.5q-26 0 -51.5 3.5t-37.5 6.5l-13 4l13 99q28 -14 69 -14l50 5q12 26 12 99v287l-63 4v76h261v-65zM99 613l128 140h18l128 -140l-61 -26l-76 53l-76 -53z" />
    <glyph glyph-name="K.smcp" horiz-adv-x="597" 
d="M236 78l50 -8v-70h-249v65l50 22v395l-50 8v70h249v-65l-50 -22v-151l48 16l112 144l-46 8v70h215v-65l-51 -22l-125 -160l142 -235l50 -8v-70h-178l-140 242h-27v-164z" />
    <glyph glyph-name="Kcommaaccent.smcp" horiz-adv-x="597" 
d="M236 78l50 -8v-70h-249v65l50 22v395l-50 8v70h249v-65l-50 -22v-151l48 16l112 144l-46 8v70h215v-65l-51 -22l-125 -160l142 -235l50 -8v-70h-178l-140 242h-27v-164zM277 -210l-18 23q48 38 48 70q-20 2 -31 16t-11 33q0 23 15.5 38t38.5 15q24 0 39 -16t15 -48
q0 -25 -10 -47.5t-24 -37t-28 -25.5t-24 -16z" />
    <glyph glyph-name="L.smcp" horiz-adv-x="503" 
d="M476 0h-439v65l50 22v395l-50 8v70h249v-65l-50 -22v-377h127l28 81h98z" />
    <glyph glyph-name="Lacute.smcp" horiz-adv-x="503" 
d="M476 0h-439v65l50 22v395l-50 8v70h249v-65l-50 -22v-377h127l28 81h98zM94 613l120 149l87 -87l-146 -88z" />
    <glyph glyph-name="Lcaron.smcp" horiz-adv-x="503" 
d="M476 0h-439v65l50 22v395l-50 8v70h249v-65l-50 -22v-377h127l28 81h98zM347 313l-24 30q7 6 17.5 15.5t28 34t17.5 42.5q-25 4 -39.5 22t-14.5 44q0 31 19.5 50.5t51.5 19.5q31 0 50.5 -21t19.5 -63q0 -33 -13 -63t-31.5 -49.5t-37 -34t-31.5 -20.5z" />
    <glyph glyph-name="Lcommaaccent.smcp" horiz-adv-x="503" 
d="M476 0h-439v65l50 22v395l-50 8v70h249v-65l-50 -22v-377h127l28 81h98zM233 -210l-18 23q48 38 48 70q-41 5 -41 49q0 23 15 38t38 15q24 0 39 -16t15 -48q0 -25 -10 -47.5t-24 -37t-28 -25.5t-24 -16z" />
    <glyph glyph-name="Ldot.smcp" horiz-adv-x="503" 
d="M476 0h-439v65l50 22v395l-50 8v70h249v-65l-50 -22v-377h127l28 81h98zM329 288q0 36 22.5 58t58.5 22t58.5 -22t22.5 -58t-22.5 -58t-58.5 -22t-58.5 22t-22.5 58z" />
    <glyph glyph-name="Lslash.smcp" horiz-adv-x="508" 
d="M345 289l-105 -50v-143h128l28 81h98l-13 -177h-440v65l51 22v81l-34 -16l-35 80l69 33v217l-51 8v70h249v-65l-50 -22v-138l70 34z" />
    <glyph glyph-name="M.smcp" horiz-adv-x="795" 
d="M179 78l55 -8l-1 -70h-218v65l55 22l43 395l-55 8v70h239l91 -288q12 -38 17 -66h4q5 35 16 70l89 284h224v-65l-50 -22l42 -395l50 -8v-70h-249v65l49 21l-29 249q-3 33 -3 42h-3q0 -15 -8 -42l-84 -276h-129l-16 15l-86 261q-8 24 -8 41h-4q0 -17 -2 -41z" />
    <glyph glyph-name="N.smcp" horiz-adv-x="634" 
d="M196 78l54 -8v-70h-218v65l55 22v395l-55 8v70h197l182 -235q15 -20 25 -51l4 1q-2 17 -2 50v157l-54 8v70h218v-65l-54 -22v-473h-103l-221 298q-18 25 -26 52l-4 -1q2 -18 2 -51v-220z" />
    <glyph glyph-name="Nacute.smcp" horiz-adv-x="634" 
d="M196 78l54 -8v-70h-218v65l55 22v395l-55 8v70h197l182 -235q15 -20 25 -51l4 1q-2 17 -2 50v157l-54 8v70h218v-65l-54 -22v-473h-103l-221 298q-18 25 -26 52l-4 -1q2 -18 2 -51v-220zM248 613l120 149l87 -87l-146 -88z" />
    <glyph glyph-name="Ncaron.smcp" horiz-adv-x="634" 
d="M196 78l54 -8v-70h-218v65l55 22v395l-55 8v70h197l182 -235q15 -20 25 -51l4 1q-2 17 -2 50v157l-54 8v70h218v-65l-54 -22v-473h-103l-221 298q-18 25 -26 52l-4 -1q2 -18 2 -51v-220zM309 587l-121 131l49 39l80 -58l80 58l48 -39l-119 -131h-17z" />
    <glyph glyph-name="Ncommaaccent.smcp" horiz-adv-x="634" 
d="M196 78l54 -8v-70h-218v65l55 22v395l-55 8v70h197l182 -235q15 -20 25 -51l4 1q-2 17 -2 50v157l-54 8v70h218v-65l-54 -22v-473h-103l-221 298q-18 25 -26 52l-4 -1q2 -18 2 -51v-220zM288 -210l-18 23q48 38 48 70q-41 5 -41 49q0 23 15 38t39 15q23 0 38 -16t15 -48
q0 -25 -10 -47.5t-24 -37t-28 -25.5t-24 -16z" />
    <glyph glyph-name="Ntilde.smcp" horiz-adv-x="634" 
d="M196 78l54 -8v-70h-218v65l55 22v395l-55 8v70h197l182 -235q15 -20 25 -51l4 1q-2 17 -2 50v157l-54 8v70h218v-65l-54 -22v-473h-103l-221 298q-18 25 -26 52l-4 -1q2 -18 2 -51v-220zM184 604l-33 35q2 4 6.5 9.5t18 21t27.5 27t35.5 21t42.5 9.5q23 0 58 -16t53 -16
l49 34l32 -35q-2 -4 -6 -9.5t-17.5 -20.5t-27.5 -26.5t-34.5 -21t-40.5 -9.5q-24 0 -60.5 16t-52.5 16z" />
    <glyph glyph-name="Eng.smcp" horiz-adv-x="634" 
d="M196 78l54 -8v-70h-218v65l55 22v395l-55 8v70h197l182 -235q15 -20 25 -51l4 1q-2 17 -2 50v157l-54 8v70h218v-65l-54 -22v-500q0 -86 -44.5 -134.5t-129.5 -48.5q-26 0 -51 3.5t-37 6.5l-13 4l13 99q27 -14 69 -14l49 5q12 26 12 99v46l-192 259q-18 25 -26 52l-4 -1
q2 -18 2 -51v-220z" />
    <glyph glyph-name="O.smcp" 
d="M30 281q0 137 69.5 213t184.5 76q116 0 185 -76t69 -214t-68.5 -214t-184.5 -76t-185.5 76.5t-69.5 214.5zM192 279q0 -109 20 -149.5t80 -40.5q22 0 38.5 4.5t21.5 8.5l5 4q20 36 20 172q0 113 -20 152.5t-77 39.5q-21 0 -38.5 -4t-23.5 -8l-7 -4q-19 -35 -19 -175z" />
    <glyph glyph-name="Oacute.smcp" horiz-adv-x="571" 
d="M32 281q0 137 69.5 213t184.5 76q116 0 185 -76t69 -214t-68.5 -214t-184.5 -76t-185.5 76.5t-69.5 214.5zM194 279q0 -109 20 -149.5t80 -40.5q22 0 38.5 4.5t21.5 8.5l5 4q20 36 20 172q0 113 -20 152.5t-77 39.5q-21 0 -38.5 -4t-23.5 -8l-7 -4q-19 -35 -19 -175z
M203 613l120 149l88 -87l-146 -88z" />
    <glyph glyph-name="Obreve.smcp" 
d="M30 281q0 137 69.5 213t184.5 76q116 0 185 -76t69 -214t-68.5 -214t-184.5 -76t-185.5 76.5t-69.5 214.5zM192 279q0 -109 20 -149.5t80 -40.5q22 0 38.5 4.5t21.5 8.5l5 4q20 36 20 172q0 113 -20 152.5t-77 39.5q-21 0 -38.5 -4t-23.5 -8l-7 -4q-19 -35 -19 -175z
M374 719l47 -17q-1 -4 -3.5 -11t-12.5 -25t-24 -31.5t-39.5 -24.5t-56.5 -11q-30 0 -55.5 10t-39.5 24.5t-24 29.5t-14 25l-3 10l70 22q2 -5 7.5 -12t26 -19t46.5 -12q25 0 43.5 10.5t25.5 20.5z" />
    <glyph glyph-name="Ocircumflex.smcp" horiz-adv-x="571" 
d="M32 281q0 137 69.5 213t184.5 76q116 0 185 -76t69 -214t-68.5 -214t-184.5 -76t-185.5 76.5t-69.5 214.5zM194 279q0 -109 20 -149.5t80 -40.5q22 0 38.5 4.5t21.5 8.5l5 4q20 36 20 172q0 113 -20 152.5t-77 39.5q-21 0 -38.5 -4t-23.5 -8l-7 -4q-19 -35 -19 -175z
M149 613l128 140h17l129 -140l-62 -26l-76 53l-75 -53z" />
    <glyph glyph-name="Odieresis.smcp" horiz-adv-x="571" 
d="M32 281q0 137 69.5 213t184.5 76q116 0 185 -76t69 -214t-68.5 -214t-184.5 -76t-185.5 76.5t-69.5 214.5zM194 279q0 -109 20 -149.5t80 -40.5q22 0 38.5 4.5t21.5 8.5l5 4q20 36 20 172q0 113 -20 152.5t-77 39.5q-21 0 -38.5 -4t-23.5 -8l-7 -4q-19 -35 -19 -175z
M133 671q0 29 18 46.5t46 17.5q29 0 47 -17.5t18 -46.5q0 -28 -18 -45.5t-47 -17.5q-28 0 -46 17.5t-18 45.5zM309 671q0 29 18 46.5t46 17.5q29 0 47 -17.5t18 -46.5q0 -28 -18 -45.5t-47 -17.5q-28 0 -46 17.5t-18 45.5z" />
    <glyph glyph-name="Ograve.smcp" horiz-adv-x="571" 
d="M32 281q0 137 69.5 213t184.5 76q116 0 185 -76t69 -214t-68.5 -214t-184.5 -76t-185.5 76.5t-69.5 214.5zM194 279q0 -109 20 -149.5t80 -40.5q22 0 38.5 4.5t21.5 8.5l5 4q20 36 20 172q0 113 -20 152.5t-77 39.5q-21 0 -38.5 -4t-23.5 -8l-7 -4q-19 -35 -19 -175z
M148 675l87 87l120 -149l-61 -26z" />
    <glyph glyph-name="Ohungarumlaut.smcp" 
d="M30 281q0 137 69.5 213t184.5 76q116 0 185 -76t69 -214t-68.5 -214t-184.5 -76t-185.5 76.5t-69.5 214.5zM192 279q0 -109 20 -149.5t80 -40.5q22 0 38.5 4.5t21.5 8.5l5 4q20 36 20 172q0 113 -20 152.5t-77 39.5q-21 0 -38.5 -4t-23.5 -8l-7 -4q-19 -35 -19 -175z
M136 613l94 149l87 -70l-119 -105zM286 613l93 149l89 -70l-121 -105z" />
    <glyph glyph-name="Omacron.smcp" 
d="M30 281q0 137 69.5 213t184.5 76q116 0 185 -76t69 -214t-68.5 -214t-184.5 -76t-185.5 76.5t-69.5 214.5zM192 279q0 -109 20 -149.5t80 -40.5q22 0 38.5 4.5t21.5 8.5l5 4q20 36 20 172q0 113 -20 152.5t-77 39.5q-21 0 -38.5 -4t-23.5 -8l-7 -4q-19 -35 -19 -175z
M150 605v87h270v-87h-270z" />
    <glyph glyph-name="Oslash.smcp" horiz-adv-x="571" 
d="M49 23l41 56q-59 78 -59 202q0 137 69.5 213t184.5 76q78 0 137 -36l26 35l75 -32l-42 -57q58 -75 58 -200q0 -138 -68.5 -214t-184.5 -76q-80 0 -137 36l-26 -35zM193 279q0 -40 1 -57l159 217q-21 31 -72 31q-21 0 -38.5 -4t-24.5 -8l-6 -4q-19 -35 -19 -175zM378 278
q0 23 -2 59l-158 -216q22 -32 75 -32q22 0 38.5 4.5t21.5 8.5l5 4q20 36 20 172z" />
    <glyph glyph-name="Oslashacute.smcp" 
d="M49 23l41 56q-59 78 -59 202q0 137 69.5 213t184.5 76q78 0 137 -36l26 35l75 -32l-42 -57q58 -75 58 -200q0 -138 -68.5 -214t-184.5 -76q-80 0 -137 36l-26 -35zM193 279q0 -40 1 -57l159 217q-21 31 -72 31q-21 0 -38.5 -4t-24.5 -8l-6 -4q-19 -35 -19 -175zM378 278
q0 23 -2 59l-158 -216q22 -32 75 -32q22 0 38.5 4.5t21.5 8.5l5 4q20 36 20 172zM215 613l120 149l88 -87l-146 -88z" />
    <glyph glyph-name="Otilde.smcp" horiz-adv-x="571" 
d="M32 281q0 137 69.5 213t184.5 76q116 0 185 -76t69 -214t-68.5 -214t-184.5 -76t-185.5 76.5t-69.5 214.5zM194 279q0 -109 20 -149.5t80 -40.5q22 0 38.5 4.5t21.5 8.5l5 4q20 36 20 172q0 113 -20 152.5t-77 39.5q-21 0 -38.5 -4t-23.5 -8l-7 -4q-19 -35 -19 -175z
M157 604l-33 35q2 4 6.5 9.5t18 21t27.5 27t35.5 21t42.5 9.5q24 0 59 -16t52 -16l49 34l32 -35q-2 -4 -6 -9.5t-17.5 -20.5t-27.5 -26.5t-34.5 -21t-40.5 -9.5q-24 0 -60.5 16t-52.5 16z" />
    <glyph glyph-name="OE.smcp" horiz-adv-x="792" 
d="M757 0h-396q-33 -10 -76 -10q-116 0 -185 76.5t-69 214.5q0 137 69 213t184 76q43 0 77 -10h383l13 -169h-98l-29 73h-119v-132h31l16 58h79v-212h-79l-16 58h-31v-140h131l29 78h98zM294 89q14 0 26 2t19.5 4.5t12.5 5.5t7.5 5t1.5 2v322q-24 40 -81 40q-21 0 -38 -4
t-23 -8l-6 -4q-20 -35 -20 -178q0 -107 20 -147t81 -40z" />
    <glyph glyph-name="P.smcp" horiz-adv-x="555" 
d="M236 79l63 -3v-76h-262v65l50 22v395l-50 8v70h270q96 0 154 -45t58 -127t-57.5 -127t-153.5 -45h-72v-137zM272 464h-36v-151h44l62 5q16 17 16 70q0 44 -18 60t-68 16z" />
    <glyph glyph-name="Q.smcp" horiz-adv-x="572" 
d="M31 281q0 137 69.5 213t184.5 76q116 0 185 -75.5t69 -213.5q0 -101 -38 -168.5t-105 -96.5v-3q40 -16 86.5 -27t73.5 -14l26 -4l-28 -126q-6 0 -16 2t-41 11t-62.5 23.5t-74.5 43.5t-82 67l-2 1q-111 0 -178 77.5t-67 213.5zM193 276q0 -107 20.5 -147t80.5 -40
q22 0 38 4.5t21 8.5l5 4q20 34 20 175q0 111 -20 150t-78 39q-20 0 -37 -4t-24 -8l-7 -4q-19 -35 -19 -178z" />
    <glyph glyph-name="R.smcp" horiz-adv-x="581" 
d="M236 78l50 -8v-70h-249v65l50 22v395l-50 8v70h270q97 0 154.5 -44t57.5 -125q0 -113 -113 -152l108 -161l51 -8v-70h-182l-123 224h-24v-146zM272 464h-36v-143h44l62 5q16 14 16 66q0 43 -18 57.5t-68 14.5z" />
    <glyph glyph-name="Racute.smcp" horiz-adv-x="581" 
d="M236 78l50 -8v-70h-249v65l50 22v395l-50 8v70h270q97 0 154.5 -44t57.5 -125q0 -113 -113 -152l108 -161l51 -8v-70h-182l-123 224h-24v-146zM272 464h-36v-143h44l62 5q16 14 16 66q0 43 -18 57.5t-68 14.5zM209 613l119 149l87 -87l-146 -88z" />
    <glyph glyph-name="Rcaron.smcp" horiz-adv-x="581" 
d="M236 78l50 -8v-70h-249v65l50 22v395l-50 8v70h270q97 0 154.5 -44t57.5 -125q0 -113 -113 -152l108 -161l51 -8v-70h-182l-123 224h-24v-146zM273 587l-120 131l49 39l79 -58l81 58l48 -39l-120 -131h-17zM272 464h-36v-143h44l62 5q16 14 16 66q0 43 -18 57.5t-68 14.5
z" />
    <glyph glyph-name="Rcommaaccent.smcp" horiz-adv-x="581" 
d="M236 78l50 -8v-70h-249v65l50 22v395l-50 8v70h270q97 0 154.5 -44t57.5 -125q0 -113 -113 -152l108 -161l51 -8v-70h-182l-123 224h-24v-146zM272 464h-36v-143h44l62 5q16 14 16 66q0 43 -18 57.5t-68 14.5zM268 -210l-18 23q48 38 48 70q-19 2 -30 16t-11 33
q0 23 15 38t39 15q23 0 38 -16t15 -48q0 -25 -10 -47.5t-24 -37t-28 -25.5t-24 -16z" />
    <glyph glyph-name="S.smcp" horiz-adv-x="484" 
d="M307 139q0 19 -13.5 32.5t-29 20t-48 17t-50.5 17.5q-130 53 -130 178q0 166 215 166q50 0 91.5 -8t58.5 -16l17 -9v-154h-103l-15 80q-17 9 -52 9q-14 0 -29 -2t-23 -4l-9 -2q-10 -15 -10 -39q0 -18 6 -31t21.5 -22.5t26.5 -14.5t37.5 -14t38.5 -14q69 -28 105 -67.5
t36 -103.5q0 -169 -237 -169q-55 0 -98.5 8t-59.5 17l-16 8v157h97l23 -81q23 -7 69 -7q20 0 38 1.5t26 3.5l7 2q10 23 10 41z" />
    <glyph glyph-name="Sacute.smcp" horiz-adv-x="484" 
d="M307 139q0 19 -13.5 32.5t-29 20t-48 17t-50.5 17.5q-130 53 -130 178q0 166 215 166q50 0 91.5 -8t58.5 -16l17 -9v-154h-103l-15 80q-17 9 -52 9q-14 0 -29 -2t-23 -4l-9 -2q-10 -15 -10 -39q0 -18 6 -31t21.5 -22.5t26.5 -14.5t37.5 -14t38.5 -14q69 -28 105 -67.5
t36 -103.5q0 -169 -237 -169q-55 0 -98.5 8t-59.5 17l-16 8v157h97l23 -81q23 -7 69 -7q20 0 38 1.5t26 3.5l7 2q10 23 10 41zM173 613l119 149l88 -87l-145 -88z" />
    <glyph glyph-name="Scaron.smcp" horiz-adv-x="484" 
d="M307 139q0 19 -13.5 32.5t-29 20t-48 17t-50.5 17.5q-130 53 -130 178q0 166 215 166q50 0 91.5 -8t58.5 -16l17 -9v-154h-103l-15 80q-17 9 -52 9q-14 0 -29 -2t-23 -4l-9 -2q-10 -15 -10 -39q0 -18 6 -31t21.5 -22.5t26.5 -14.5t37.5 -14t38.5 -14q69 -28 105 -67.5
t36 -103.5q0 -169 -237 -169q-55 0 -98.5 8t-59.5 17l-16 8v157h97l23 -81q23 -7 69 -7q20 0 38 1.5t26 3.5l7 2q10 23 10 41zM230 587l-120 131l48 39l81 -58l80 58l48 -39l-120 -131h-17z" />
    <glyph glyph-name="Scedilla.smcp" horiz-adv-x="484" 
d="M193 -69l7 58q-51 1 -92 9t-56 16l-15 8v157h97l23 -81q23 -7 69 -7q20 0 38 1.5t26 3.5l7 2q10 23 10 41q0 19 -13.5 32.5t-29 20t-48 17t-50.5 17.5q-130 53 -130 178q0 166 215 166q50 0 91.5 -8t58.5 -16l17 -9v-154h-103l-15 80q-17 9 -52 9q-14 0 -29 -2t-23 -4
l-9 -2q-10 -15 -10 -39q0 -18 6 -31t21.5 -22.5t26.5 -14.5t37.5 -14t38.5 -14q69 -28 105 -67.5t36 -103.5q0 -151 -188 -167l-6 -36q3 0 7.5 -0.5t16.5 -3.5t21 -8.5t16.5 -17t7.5 -27.5q0 -33 -30.5 -51t-85.5 -18q-16 0 -30.5 1.5t-21.5 3.5l-7 1l12 60q14 -11 43 -11
l22 2q2 6 2 15q0 12 -8.5 19.5t-16.5 9.5z" />
    <glyph glyph-name="Scircumflex.smcp" horiz-adv-x="484" 
d="M307 139q0 19 -13.5 32.5t-29 20t-48 17t-50.5 17.5q-130 53 -130 178q0 166 215 166q50 0 91.5 -8t58.5 -16l17 -9v-154h-103l-15 80q-17 9 -52 9q-14 0 -29 -2t-23 -4l-9 -2q-10 -15 -10 -39q0 -18 6 -31t21.5 -22.5t26.5 -14.5t37.5 -14t38.5 -14q69 -28 105 -67.5
t36 -103.5q0 -169 -237 -169q-55 0 -98.5 8t-59.5 17l-16 8v157h97l23 -81q23 -7 69 -7q20 0 38 1.5t26 3.5l7 2q10 23 10 41zM105 613l128 140h18l128 -140l-61 -26l-76 53l-76 -53z" />
    <glyph glyph-name="Scommaaccent.smcp" horiz-adv-x="484" 
d="M307 139q0 19 -13.5 32.5t-29 20t-48 17t-50.5 17.5q-130 53 -130 178q0 166 215 166q50 0 91.5 -8t58.5 -16l17 -9v-154h-103l-15 80q-17 9 -52 9q-14 0 -29 -2t-23 -4l-9 -2q-10 -15 -10 -39q0 -18 6 -31t21.5 -22.5t26.5 -14.5t37.5 -14t38.5 -14q69 -28 105 -67.5
t36 -103.5q0 -169 -237 -169q-55 0 -98.5 8t-59.5 17l-16 8v157h97l23 -81q23 -7 69 -7q20 0 38 1.5t26 3.5l7 2q10 23 10 41zM195 -210l-18 23q5 4 13.5 11.5t21.5 26t13 32.5q-19 2 -30 16t-11 33q0 23 15 38t39 15q23 0 38.5 -16t15.5 -48q0 -25 -10 -47.5t-24 -37
t-28.5 -25.5t-24.5 -16z" />
    <glyph glyph-name="T.smcp" horiz-adv-x="550" 
d="M350 78l50 -8v-70h-249v65l50 22v377h-60l-29 -89h-97l13 185h495l13 -185h-98l-28 89h-60v-386z" />
    <glyph glyph-name="Tbar.smcp" horiz-adv-x="550" 
d="M114 243v86h87v135h-60l-29 -89h-97l13 185h495l13 -185h-98l-28 89h-60v-135h86v-86h-86v-165l50 -8v-70h-249v65l50 22v156h-87z" />
    <glyph glyph-name="Tcaron.smcp" horiz-adv-x="550" 
d="M350 78l50 -8v-70h-249v65l50 22v377h-60l-29 -89h-97l13 185h495l13 -185h-98l-28 89h-60v-386zM266 587l-120 131l48 39l80 -58l81 58l47 -39l-119 -131h-17z" />
    <glyph glyph-name="Tcommaaccent.smcp" horiz-adv-x="550" 
d="M350 78l50 -8v-70h-249v65l50 22v377h-60l-29 -89h-97l13 185h495l13 -185h-98l-28 89h-60v-386zM228 -210l-19 23q5 4 13.5 11.5t21.5 26t13 32.5q-19 2 -30 16t-11 33q0 23 15 38t39 15q23 0 38.5 -16t15.5 -48q0 -25 -10 -47.5t-24 -37t-28 -25.5t-24 -16z" />
    <glyph glyph-name="uni021A.smcp" horiz-adv-x="550" 
d="M350 78l50 -8v-70h-249v65l50 22v377h-60l-29 -89h-97l13 185h495l13 -185h-98l-28 89h-60v-386zM228 -210l-19 23q5 4 13.5 11.5t21.5 26t13 32.5q-19 2 -30 16t-11 33q0 23 15 38t39 15q23 0 38.5 -16t15.5 -48q0 -25 -10 -47.5t-24 -37t-28 -25.5t-24 -16z" />
    <glyph glyph-name="U.smcp" horiz-adv-x="622" 
d="M539 473v-256q0 -109 -62 -168t-166 -59t-166 55t-62 154v283l-50 8v70h253v-65l-50 -22v-277q0 -63 21.5 -87t83.5 -24q24 0 41.5 3.5t23.5 6.5l5 3q19 27 19 116v268l-56 8v70h220v-65z" />
    <glyph glyph-name="Uacute.smcp" horiz-adv-x="622" 
d="M539 473v-256q0 -109 -62 -168t-166 -59t-166 55t-62 154v283l-50 8v70h253v-65l-50 -22v-277q0 -63 21.5 -87t83.5 -24q24 0 41.5 3.5t23.5 6.5l5 3q19 27 19 116v268l-56 8v70h220v-65zM237 613l119 149l88 -87l-145 -88z" />
    <glyph glyph-name="Ubreve.smcp" horiz-adv-x="622" 
d="M539 473v-256q0 -109 -62 -168t-166 -59t-166 55t-62 154v283l-50 8v70h253v-65l-50 -22v-277q0 -63 21.5 -87t83.5 -24q24 0 41.5 3.5t23.5 6.5l5 3q19 27 19 116v268l-56 8v70h220v-65zM409 719l46 -17q-1 -4 -3.5 -11t-12.5 -25t-23.5 -31.5t-39 -24.5t-56.5 -11
t-56 10t-39 24.5t-24 29.5t-13 25l-4 10l70 22q2 -5 7.5 -12t26 -19t46.5 -12q25 0 43.5 10.5t24.5 20.5z" />
    <glyph glyph-name="Ucircumflex.smcp" horiz-adv-x="622" 
d="M539 473v-256q0 -109 -62 -168t-166 -59t-166 55t-62 154v283l-50 8v70h253v-65l-50 -22v-277q0 -63 21.5 -87t83.5 -24q24 0 41.5 3.5t23.5 6.5l5 3q19 27 19 116v268l-56 8v70h220v-65zM183 613l128 140h17l129 -140l-62 -26l-76 53l-76 -53z" />
    <glyph glyph-name="Udieresis.smcp" horiz-adv-x="622" 
d="M539 473v-256q0 -109 -62 -168t-166 -59t-166 55t-62 154v283l-50 8v70h253v-65l-50 -22v-277q0 -63 21.5 -87t83.5 -24q24 0 41.5 3.5t23.5 6.5l5 3q19 27 19 116v268l-56 8v70h220v-65zM167 671q0 29 18.5 46.5t46.5 17.5q29 0 47 -17.5t18 -46.5q0 -28 -18 -45.5
t-47 -17.5q-28 0 -46.5 17.5t-18.5 45.5zM343 671q0 29 18.5 46.5t46.5 17.5q29 0 47 -17.5t18 -46.5q0 -28 -18 -45.5t-47 -17.5q-28 0 -46.5 17.5t-18.5 45.5z" />
    <glyph glyph-name="Ugrave.smcp" horiz-adv-x="622" 
d="M539 473v-256q0 -109 -62 -168t-166 -59t-166 55t-62 154v283l-50 8v70h253v-65l-50 -22v-277q0 -63 21.5 -87t83.5 -24q24 0 41.5 3.5t23.5 6.5l5 3q19 27 19 116v268l-56 8v70h220v-65zM182 675l87 87l120 -149l-61 -26z" />
    <glyph glyph-name="Uhungarumlaut.smcp" horiz-adv-x="622" 
d="M539 473v-256q0 -109 -62 -168t-166 -59t-166 55t-62 154v283l-50 8v70h253v-65l-50 -22v-277q0 -63 21.5 -87t83.5 -24q24 0 41.5 3.5t23.5 6.5l5 3q19 27 19 116v268l-56 8v70h220v-65zM181 613l93 149l88 -70l-120 -105zM330 613l94 149l87 -70l-119 -105z" />
    <glyph glyph-name="Umacron.smcp" horiz-adv-x="622" 
d="M539 473v-256q0 -109 -62 -168t-166 -59t-166 55t-62 154v283l-50 8v70h253v-65l-50 -22v-277q0 -63 21.5 -87t83.5 -24q24 0 41.5 3.5t23.5 6.5l5 3q19 27 19 116v268l-56 8v70h220v-65zM176 605v87h270v-87h-270z" />
    <glyph glyph-name="Uogonek.smcp" horiz-adv-x="622" 
d="M368 -79q0 -34 30 -34l36 6l6 -37q-21 -24 -77 -24q-86 0 -86 70q0 51 44 88h-10q-104 0 -166 55t-62 154v283l-50 8v70h253v-65l-50 -22v-277q0 -63 21.5 -87t83.5 -24q24 0 41.5 3.5t23.5 6.5l5 3q19 27 19 116v268l-56 8v70h220v-65l-55 -22v-256q0 -84 -37 -139
t-104 -76q-7 -7 -18.5 -31.5t-11.5 -49.5z" />
    <glyph glyph-name="Uring.smcp" horiz-adv-x="622" 
d="M539 473v-256q0 -109 -62 -168t-166 -59t-166 55t-62 154v283l-50 8v70h253v-65l-50 -22v-277q0 -63 21.5 -87t83.5 -24q24 0 41.5 3.5t23.5 6.5l5 3q19 27 19 116v268l-56 8v70h220v-65zM233 665q0 35 23.5 56.5t61.5 21.5q40 0 64 -21.5t24 -56.5q0 -36 -24 -57
t-64 -21q-38 0 -61.5 21t-23.5 57zM296 666q0 -26 25 -26l17 3q4 7 4 21q0 25 -24 25l-18 -3q-4 -7 -4 -20z" />
    <glyph glyph-name="Utilde.smcp" horiz-adv-x="622" 
d="M539 473v-256q0 -109 -62 -168t-166 -59t-166 55t-62 154v283l-50 8v70h253v-65l-50 -22v-277q0 -63 21.5 -87t83.5 -24q24 0 41.5 3.5t23.5 6.5l5 3q19 27 19 116v268l-56 8v70h220v-65zM183 603l-33 35q2 4 6.5 9.5t18 21t28 27t35.5 21t42 9.5q24 0 59 -16t52 -16
l49 34l33 -35q-2 -4 -6.5 -9.5t-17.5 -20.5t-27.5 -26.5t-35.5 -21t-41 -9.5q-24 0 -60 15.5t-52 15.5z" />
    <glyph glyph-name="V.smcp" horiz-adv-x="620" 
d="M393 0h-145l-16 15l-171 467l-50 8v70h281v-65l-54 -19l88 -260q5 -16 16 -73h5q12 60 16 74l81 265l-49 8v70h214v-65l-46 -22z" />
    <glyph glyph-name="W.smcp" horiz-adv-x="915" 
d="M378 0h-145l-16 15l-152 463l-54 12v70h284v-65l-56 -15l67 -264q1 -5 4.5 -17.5t6 -24t4.5 -21.5h4q2 13 14 63l86 336h137l86 -336l6 -25q7 -25 9 -38h4q2 13 7.5 35.5t6.5 27.5l63 266l-50 8v70h205v-65l-48 -22l-138 -473h-145l-15 15l-72 294q-10 41 -13 60h-4
q-1 -10 -3.5 -21.5t-5.5 -23t-4 -15.5z" />
    <glyph glyph-name="Wacute.smcp" horiz-adv-x="915" 
d="M378 0h-145l-16 15l-152 463l-54 12v70h284v-65l-56 -15l67 -264q1 -5 4.5 -17.5t6 -24t4.5 -21.5h4q2 13 14 63l86 336h137l86 -336l6 -25q7 -25 9 -38h4q2 13 7.5 35.5t6.5 27.5l63 266l-50 8v70h205v-65l-48 -22l-138 -473h-145l-15 15l-72 294q-10 41 -13 60h-4
q-1 -10 -3.5 -21.5t-5.5 -23t-4 -15.5zM422 613l120 149l88 -87l-146 -88z" />
    <glyph glyph-name="Wcircumflex.smcp" horiz-adv-x="915" 
d="M378 0h-145l-16 15l-152 463l-54 12v70h284v-65l-56 -15l67 -264q1 -5 4.5 -17.5t6 -24t4.5 -21.5h4q2 13 14 63l86 336h137l86 -336l6 -25q7 -25 9 -38h4q2 13 7.5 35.5t6.5 27.5l63 266l-50 8v70h205v-65l-48 -22l-138 -473h-145l-15 15l-72 294q-10 41 -13 60h-4
q-1 -10 -3.5 -21.5t-5.5 -23t-4 -15.5zM355 613l128 140h18l129 -140l-62 -26l-76 53l-76 -53z" />
    <glyph glyph-name="Wdieresis.smcp" horiz-adv-x="915" 
d="M378 0h-145l-16 15l-152 463l-54 12v70h284v-65l-56 -15l67 -264q1 -5 4.5 -17.5t6 -24t4.5 -21.5h4q2 13 14 63l86 336h137l86 -336l6 -25q7 -25 9 -38h4q2 13 7.5 35.5t6.5 27.5l63 266l-50 8v70h205v-65l-48 -22l-138 -473h-145l-15 15l-72 294q-10 41 -13 60h-4
q-1 -10 -3.5 -21.5t-5.5 -23t-4 -15.5zM339 671q0 29 18 46.5t47 17.5t46.5 -17.5t17.5 -46.5q0 -28 -18 -45.5t-46 -17.5q-29 0 -47 17.5t-18 45.5zM515 671q0 29 18 46.5t47 17.5t46.5 -17.5t17.5 -46.5q0 -28 -18 -45.5t-46 -17.5q-29 0 -47 17.5t-18 45.5z" />
    <glyph glyph-name="Wgrave.smcp" horiz-adv-x="915" 
d="M378 0h-145l-16 15l-152 463l-54 12v70h284v-65l-56 -15l67 -264q1 -5 4.5 -17.5t6 -24t4.5 -21.5h4q2 13 14 63l86 336h137l86 -336l6 -25q7 -25 9 -38h4q2 13 7.5 35.5t6.5 27.5l63 266l-50 8v70h205v-65l-48 -22l-138 -473h-145l-15 15l-72 294q-10 41 -13 60h-4
q-1 -10 -3.5 -21.5t-5.5 -23t-4 -15.5zM354 675l88 87l119 -149l-61 -26z" />
    <glyph glyph-name="X.smcp" horiz-adv-x="604" 
d="M525 473l-128 -206l143 -189l49 -8v-70h-284v65l57 19l-66 101q-18 27 -22 35h-3q-8 -17 -22 -37l-70 -105l47 -8v-70h-211v65l54 22l139 210l-137 185l-48 8v70h283v-65l-66 -19l73 -99q14 -20 22 -37h3q4 10 18 38l59 104l-47 8v70h210v-65z" />
    <glyph glyph-name="Y.smcp" horiz-adv-x="587" 
d="M518 473l-147 -243v-152l50 -8v-70h-248v65l50 22v141l-159 254l-49 8v70h281v-65l-58 -19l67 -108q16 -26 22 -42h4q3 9 10.5 23.5t9.5 20.5l58 112l-47 8v70h210v-65z" />
    <glyph glyph-name="Yacute.smcp" horiz-adv-x="587" 
d="M518 473l-147 -243v-152l50 -8v-70h-248v65l50 22v141l-159 254l-49 8v70h281v-65l-58 -19l67 -108q16 -26 22 -42h4q3 9 10.5 23.5t9.5 20.5l58 112l-47 8v70h210v-65zM217 599l119 149l88 -87l-145 -87z" />
    <glyph glyph-name="Ycircumflex.smcp" horiz-adv-x="587" 
d="M518 473l-147 -243v-152l50 -8v-70h-248v65l50 22v141l-159 254l-49 8v70h281v-65l-58 -19l67 -108q16 -26 22 -42h4q3 9 10.5 23.5t9.5 20.5l58 112l-47 8v70h210v-65zM173 613l129 140h17l128 -140l-61 -26l-75 53l-76 -53z" />
    <glyph glyph-name="Ydieresis.smcp" horiz-adv-x="587" 
d="M518 473l-147 -243v-152l50 -8v-70h-248v65l50 22v141l-159 254l-49 8v70h281v-65l-58 -19l67 -108q16 -26 22 -42h4q3 9 10.5 23.5t9.5 20.5l58 112l-47 8v70h210v-65zM149 667q0 29 18 46.5t46 17.5q29 0 47.5 -17.5t18.5 -46.5q0 -28 -18.5 -45.5t-47.5 -17.5
q-28 0 -46 17.5t-18 45.5zM325 667q0 29 18 46.5t46 17.5q29 0 47.5 -17.5t18.5 -46.5q0 -28 -18.5 -45.5t-47.5 -17.5q-28 0 -46 17.5t-18 45.5z" />
    <glyph glyph-name="Ygrave.smcp" horiz-adv-x="587" 
d="M518 473l-147 -243v-152l50 -8v-70h-248v65l50 22v141l-159 254l-49 8v70h281v-65l-58 -19l67 -108q16 -26 22 -42h4q3 9 10.5 23.5t9.5 20.5l58 112l-47 8v70h210v-65zM164 675l88 87l119 -149l-62 -26z" />
    <glyph glyph-name="Z.smcp" horiz-adv-x="507" 
d="M32 0v57l250 407h-128l-29 -81h-97l12 177h427v-57l-249 -407h140l16 81h101v-177h-443z" />
    <glyph glyph-name="Zacute.smcp" horiz-adv-x="507" 
d="M32 0v57l250 407h-128l-29 -81h-97l12 177h427v-57l-249 -407h140l16 81h101v-177h-443zM184 613l120 149l88 -87l-146 -88z" />
    <glyph glyph-name="Zcaron.smcp" horiz-adv-x="507" 
d="M32 0v57l250 407h-128l-29 -81h-97l12 177h427v-57l-249 -407h140l16 81h101v-177h-443zM245 588l-120 132l49 38l79 -57l81 57l48 -38l-120 -132h-17z" />
    <glyph glyph-name="Zdotaccent.smcp" horiz-adv-x="507" 
d="M32 0v57l250 407h-128l-29 -81h-97l12 177h427v-57l-249 -407h140l16 81h101v-177h-443zM166 668q0 37 24.5 60.5t62.5 23.5q39 0 64 -23.5t25 -60.5q0 -38 -25 -61.5t-64 -23.5q-38 0 -62.5 23.5t-24.5 61.5z" />
    <glyph glyph-name="uni018F.smcp" horiz-adv-x="534" 
d="M504 281q0 -140 -69.5 -215.5t-188.5 -75.5q-128 0 -181 84.5t-23 218.5l35 23h266q0 92 -19 123.5t-76 31.5q-19 0 -36 -2.5t-24 -5.5l-8 -3l-28 -82h-98l13 161q79 31 172 31q126 0 195.5 -75t69.5 -214zM322 103q12 46 18 130l-160 -17q-27 -126 80 -126q16 0 31.5 3
t22.5 7z" />
    <glyph glyph-name="f_b" horiz-adv-x="926" 
d="M29 413v87l52 20v41q0 201 225 201q65 0 120 -16l139 15l14 -14v-207q0 -19 -5 -33l3 -3v-1q68 38 137 38q89 0 138.5 -70t49.5 -192q0 -144 -70 -217.5t-208 -73.5q-58 0 -109 12t-73 24l-22 11v608l-6 3q-18 10 -73 10q-30 0 -52 -4t-29 -8l-7 -3q-13 -27 -13 -89v-32
h126v-107h-126v-329l83 -5v-79h-294v68l52 24v321h-52zM734 255q0 98 -17 137.5t-64 39.5q-39 0 -74 -19v-301q26 -18 74 -18q20 0 37.5 4t24.5 8l7 3q12 40 12 146z" />
    <glyph glyph-name="f_f_b" horiz-adv-x="1264" 
d="M420 92v331h-180v-339l83 -5v-79h-294v68l52 24v331h-52v87l52 19v17q0 97 55 151.5t162 54.5t167 -51q55 61 179 61q64 0 119 -16l140 15l13 -14v-207q0 -19 -5 -33l3 -3v-1q71 38 138 38q89 0 138 -70t49 -192q0 -291 -278 -291q-57 0 -108 12t-73 24l-23 11v608l-6 3
q-20 10 -71 10q-31 0 -53.5 -4t-29.5 -8l-7 -3q-11 -27 -11 -89v-23h125v-106h-125v-339l82 -5v-79h-294v68zM1071 255q0 98 -17 137.5t-64 39.5q-39 0 -74 -19v-300q25 -19 74 -19q20 0 37.5 4t24.5 8l7 3q12 40 12 146zM240 537v-8h180v32q0 37 7 65q-60 20 -110 20
q-23 0 -40 -4t-23 -8l-5 -3q-9 -31 -9 -94z" />
    <glyph glyph-name="f_h" horiz-adv-x="948" 
d="M722 92v265q0 42 -12.5 58.5t-45.5 16.5q-48 0 -85 -29v-321l53 -9v-73h-265v68l53 24v551l-6 3q-18 10 -73 10q-30 0 -52 -4t-29 -8l-7 -3q-13 -27 -13 -89v-32h126v-107h-126v-329l83 -5v-79h-294v68l52 24v321h-52v87l52 20v41q0 201 225 201q65 0 120 -16l139 15
l14 -14v-218l-5 -32l2 -3q69 47 159 47q80 0 113.5 -43t33.5 -128v-288l52 -9v-73h-265v68z" />
    </font>
</defs>
</svg>
